G04*
G04 #@! TF.GenerationSoftware,Altium Limited,Altium Designer,21.6.4 (81)*
G04*
G04 Layer_Color=2752767*
%FSLAX44Y44*%
%MOMM*%
G71*
G04*
G04 #@! TF.SameCoordinates,BBD99886-0AEC-46FA-8170-3E0A894F067B*
G04*
G04*
G04 #@! TF.FilePolarity,Positive*
G04*
G01*
G75*
%ADD101C,0.0508*%
%ADD102C,0.0677*%
%ADD103C,0.0339*%
D101*
X691408Y552978D02*
Y557042D01*
X695472D01*
Y552978D01*
X691408D01*
Y707878D02*
Y711942D01*
X695472D01*
Y707878D01*
X691408D01*
X726440Y573278D02*
X724408Y577342D01*
X728472D01*
X726440Y573278D01*
X751840Y585978D02*
X749808Y590042D01*
X753872D01*
X751840Y585978D01*
X726440Y598678D02*
X724408Y602742D01*
X728472D01*
X726440Y598678D01*
X751840Y611378D02*
X749808Y615442D01*
X753872D01*
X751840Y611378D01*
X726440Y624078D02*
X724408Y628142D01*
X728472D01*
X726440Y624078D01*
X751840Y636778D02*
X749808Y640842D01*
X753872D01*
X751840Y636778D01*
X726440Y649478D02*
X724408Y653542D01*
X728472D01*
X726440Y649478D01*
X751840Y662178D02*
X749808Y666242D01*
X753872D01*
X751840Y662178D01*
X726440Y674878D02*
X724408Y678942D01*
X728472D01*
X726440Y674878D01*
X751840Y687578D02*
X749808Y691642D01*
X753872D01*
X751840Y687578D01*
X662940Y573278D02*
X663956Y574294D01*
X664972D01*
X663956Y575310D01*
X664972Y576326D01*
X663956D01*
X662940Y577342D01*
X661924Y576326D01*
X660908D01*
X661924Y575310D01*
X660908Y574294D01*
X661924D01*
X662940Y573278D01*
Y687578D02*
X663956Y688594D01*
X664972D01*
X663956Y689610D01*
X664972Y690626D01*
X663956D01*
X662940Y691642D01*
X661924Y690626D01*
X660908D01*
X661924Y689610D01*
X660908Y688594D01*
X661924D01*
X662940Y687578D01*
X819318Y603868D02*
X820334Y605900D01*
X819318Y607932D01*
X821350Y606916D01*
X823382Y607932D01*
X822366Y605900D01*
X823382Y603868D01*
X821350Y604884D01*
X819318Y603868D01*
X870118D02*
X871134Y605900D01*
X870118Y607932D01*
X872150Y606916D01*
X874182Y607932D01*
X873166Y605900D01*
X874182Y603868D01*
X872150Y604884D01*
X870118Y603868D01*
X819318Y553068D02*
X820334Y555100D01*
X819318Y557132D01*
X821350Y556116D01*
X823382Y557132D01*
X822366Y555100D01*
X823382Y553068D01*
X821350Y554084D01*
X819318Y553068D01*
X870118D02*
X871134Y555100D01*
X870118Y557132D01*
X872150Y556116D01*
X874182Y557132D01*
X873166Y555100D01*
X874182Y553068D01*
X872150Y554084D01*
X870118Y553068D01*
X845734Y579484D02*
Y578468D01*
X847766D01*
Y579484D01*
X848782D01*
Y581516D01*
X847766D01*
Y582532D01*
X845734D01*
Y581516D01*
X844718D01*
Y579484D01*
X845734D01*
X931418Y599868D02*
X932434D01*
X933450Y600884D01*
X934466Y599868D01*
X935482D01*
Y600884D01*
X934466Y601900D01*
X935482Y602916D01*
Y603932D01*
X934466D01*
X933450Y602916D01*
X932434Y603932D01*
X931418D01*
Y602916D01*
X932434Y601900D01*
X931418Y600884D01*
Y599868D01*
Y716868D02*
X932434D01*
X933450Y717884D01*
X934466Y716868D01*
X935482D01*
Y717884D01*
X934466Y718900D01*
X935482Y719916D01*
Y720932D01*
X934466D01*
X933450Y719916D01*
X932434Y720932D01*
X931418D01*
Y719916D01*
X932434Y718900D01*
X931418Y717884D01*
Y716868D01*
Y637900D02*
X933450Y639932D01*
X935482Y637900D01*
X933450Y635868D01*
X931418Y637900D01*
Y682900D02*
X933450Y684932D01*
X935482Y682900D01*
X933450Y680868D01*
X931418Y682900D01*
X815968Y761218D02*
Y765282D01*
X820032D01*
Y761218D01*
X815968D01*
X816984Y762234D02*
Y764266D01*
X819016D01*
Y762234D01*
X816984D01*
X779964Y769322D02*
Y773386D01*
X784028D01*
Y769322D01*
X779964D01*
X780980Y770338D02*
Y772370D01*
X783012D01*
Y770338D01*
X780980D01*
X770968Y770218D02*
Y774282D01*
X775032D01*
Y770218D01*
X770968D01*
X771984Y771234D02*
Y773266D01*
X774016D01*
Y771234D01*
X771984D01*
X636218Y758968D02*
Y763032D01*
X640282D01*
Y758968D01*
X636218D01*
X637234Y759984D02*
Y762016D01*
X639266D01*
Y759984D01*
X637234D01*
X708716Y751505D02*
Y755569D01*
X712780D01*
Y751505D01*
X708716D01*
X709732Y752521D02*
Y754553D01*
X711764D01*
Y752521D01*
X709732D01*
X709718Y777718D02*
Y781782D01*
X713782D01*
Y777718D01*
X709718D01*
X710734Y778734D02*
Y780766D01*
X712766D01*
Y778734D01*
X710734D01*
X691968Y734468D02*
Y738532D01*
X696032D01*
Y734468D01*
X691968D01*
X692984Y735484D02*
Y737516D01*
X695016D01*
Y735484D01*
X692984D01*
X797718Y783468D02*
Y787532D01*
X801782D01*
Y783468D01*
X797718D01*
X798734Y784484D02*
Y786516D01*
X800766D01*
Y784484D01*
X798734D01*
X810218Y776768D02*
Y780832D01*
X814282D01*
Y776768D01*
X810218D01*
X811234Y777784D02*
Y779816D01*
X813266D01*
Y777784D01*
X811234D01*
X687313Y763322D02*
Y767386D01*
X691377D01*
Y763322D01*
X687313D01*
X688329Y764338D02*
Y766370D01*
X690361D01*
Y764338D01*
X688329D01*
X719718Y714468D02*
Y718532D01*
X723782D01*
Y714468D01*
X719718D01*
X720734Y715484D02*
Y717516D01*
X722766D01*
Y715484D01*
X720734D01*
X750718Y751238D02*
Y755302D01*
X754782D01*
Y751238D01*
X750718D01*
X751734Y752254D02*
Y754286D01*
X753766D01*
Y752254D01*
X751734D01*
X709218Y736218D02*
Y740282D01*
X713282D01*
Y736218D01*
X709218D01*
X710234Y737234D02*
Y739266D01*
X712266D01*
Y737234D01*
X710234D01*
X888718Y603718D02*
Y607782D01*
X892782D01*
Y603718D01*
X888718D01*
X889734Y604734D02*
Y606766D01*
X891766D01*
Y604734D01*
X889734D01*
X794718Y628468D02*
Y632532D01*
X798782D01*
Y628468D01*
X794718D01*
X795734Y629484D02*
Y631516D01*
X797766D01*
Y629484D01*
X795734D01*
X806453Y653483D02*
Y657547D01*
X810517D01*
Y653483D01*
X806453D01*
X807469Y654499D02*
Y656531D01*
X809501D01*
Y654499D01*
X807469D01*
X815328Y653483D02*
Y657547D01*
X819392D01*
Y653483D01*
X815328D01*
X816344Y654499D02*
Y656531D01*
X818376D01*
Y654499D01*
X816344D01*
X824203Y653483D02*
Y657547D01*
X828267D01*
Y653483D01*
X824203D01*
X825219Y654499D02*
Y656531D01*
X827251D01*
Y654499D01*
X825219D01*
X811218Y713218D02*
Y717282D01*
X815282D01*
Y713218D01*
X811218D01*
X812234Y714234D02*
Y716266D01*
X814266D01*
Y714234D01*
X812234D01*
X866218Y697968D02*
Y702032D01*
X870282D01*
Y697968D01*
X866218D01*
X867234Y698984D02*
Y701016D01*
X869266D01*
Y698984D01*
X867234D01*
X847468Y648468D02*
Y652532D01*
X851532D01*
Y648468D01*
X847468D01*
X848484Y649484D02*
Y651516D01*
X850516D01*
Y649484D01*
X848484D01*
X901593Y604843D02*
Y608907D01*
X905657D01*
Y604843D01*
X901593D01*
X902609Y605859D02*
Y607891D01*
X904641D01*
Y605859D01*
X902609D01*
X904593Y563593D02*
Y567657D01*
X908657D01*
Y563593D01*
X904593D01*
X905609Y564609D02*
Y566641D01*
X907641D01*
Y564609D01*
X905609D01*
X949093Y530093D02*
Y534157D01*
X953157D01*
Y530093D01*
X949093D01*
X950109Y531109D02*
Y533141D01*
X952141D01*
Y531109D01*
X950109D01*
X907328Y578358D02*
Y582422D01*
X911392D01*
Y578358D01*
X907328D01*
X908344Y579374D02*
Y581406D01*
X910376D01*
Y579374D01*
X908344D01*
X948968Y558468D02*
Y562532D01*
X953032D01*
Y558468D01*
X948968D01*
X949984Y559484D02*
Y561516D01*
X952016D01*
Y559484D01*
X949984D01*
X817853Y631392D02*
Y635456D01*
X821917D01*
Y631392D01*
X817853D01*
X818869Y632408D02*
Y634440D01*
X820901D01*
Y632408D01*
X818869D01*
X812355Y629887D02*
Y633951D01*
X816419D01*
Y629887D01*
X812355D01*
X813371Y630903D02*
Y632935D01*
X815403D01*
Y630903D01*
X813371D01*
X598968Y545218D02*
Y549282D01*
X603032D01*
Y545218D01*
X598968D01*
X599984Y546234D02*
Y548266D01*
X602016D01*
Y546234D01*
X599984D01*
X664968Y728968D02*
Y733032D01*
X669032D01*
Y728968D01*
X664968D01*
X665984Y729984D02*
Y732016D01*
X668016D01*
Y729984D01*
X665984D01*
X648218Y721968D02*
Y726032D01*
X652282D01*
Y721968D01*
X648218D01*
X649234Y722984D02*
Y725016D01*
X651266D01*
Y722984D01*
X649234D01*
X840468Y729468D02*
Y733532D01*
X844532D01*
Y729468D01*
X840468D01*
X841484Y730484D02*
Y732516D01*
X843516D01*
Y730484D01*
X841484D01*
X730718Y552468D02*
Y556532D01*
X734782D01*
Y552468D01*
X730718D01*
X731734Y553484D02*
Y555516D01*
X733766D01*
Y553484D01*
X731734D01*
X921468Y661760D02*
Y665824D01*
X925532D01*
Y661760D01*
X921468D01*
X922484Y662776D02*
Y664808D01*
X924516D01*
Y662776D01*
X922484D01*
X921468Y655051D02*
Y659115D01*
X925532D01*
Y655051D01*
X921468D01*
X922484Y656067D02*
Y658099D01*
X924516D01*
Y656067D01*
X922484D01*
X921468Y648343D02*
Y652407D01*
X925532D01*
Y648343D01*
X921468D01*
X922484Y649359D02*
Y651391D01*
X924516D01*
Y649359D01*
X922484D01*
X921468Y641635D02*
Y645699D01*
X925532D01*
Y641635D01*
X921468D01*
X922484Y642651D02*
Y644683D01*
X924516D01*
Y642651D01*
X922484D01*
X921468Y628218D02*
Y632282D01*
X925532D01*
Y628218D01*
X921468D01*
X922484Y629234D02*
Y631266D01*
X924516D01*
Y629234D01*
X922484D01*
X929968Y647968D02*
Y652032D01*
X934032D01*
Y647968D01*
X929968D01*
X930984Y648984D02*
Y651016D01*
X933016D01*
Y648984D01*
X930984D01*
X929968Y667218D02*
Y671282D01*
X934032D01*
Y667218D01*
X929968D01*
X930984Y668234D02*
Y670266D01*
X933016D01*
Y668234D01*
X930984D01*
X921468Y668468D02*
Y672532D01*
X925532D01*
Y668468D01*
X921468D01*
X922484Y669484D02*
Y671516D01*
X924516D01*
Y669484D01*
X922484D01*
X929968Y654385D02*
Y658449D01*
X934032D01*
Y654385D01*
X929968D01*
X930984Y655401D02*
Y657433D01*
X933016D01*
Y655401D01*
X930984D01*
X929968Y660801D02*
Y664865D01*
X934032D01*
Y660801D01*
X929968D01*
X930984Y661817D02*
Y663849D01*
X933016D01*
Y661817D01*
X930984D01*
X774968Y662468D02*
Y666532D01*
X779032D01*
Y662468D01*
X774968D01*
X775984Y663484D02*
Y665516D01*
X778016D01*
Y663484D01*
X775984D01*
X775432Y647774D02*
Y651838D01*
X779496D01*
Y647774D01*
X775432D01*
X776448Y648790D02*
Y650822D01*
X778480D01*
Y648790D01*
X776448D01*
X770218Y685218D02*
Y689282D01*
X774282D01*
Y685218D01*
X770218D01*
X771234Y686234D02*
Y688266D01*
X773266D01*
Y686234D01*
X771234D01*
X767954Y694018D02*
Y698082D01*
X772018D01*
Y694018D01*
X767954D01*
X768970Y695034D02*
Y697066D01*
X771002D01*
Y695034D01*
X768970D01*
X769718Y708968D02*
Y713032D01*
X773782D01*
Y708968D01*
X769718D01*
X770734Y709984D02*
Y712016D01*
X772766D01*
Y709984D01*
X770734D01*
X796718Y741468D02*
Y745532D01*
X800782D01*
Y741468D01*
X796718D01*
X797734Y742484D02*
Y744516D01*
X799766D01*
Y742484D01*
X797734D01*
X779468Y722218D02*
Y726282D01*
X783532D01*
Y722218D01*
X779468D01*
X780484Y723234D02*
Y725266D01*
X782516D01*
Y723234D01*
X780484D01*
X820968Y751218D02*
Y755282D01*
X825032D01*
Y751218D01*
X820968D01*
X821984Y752234D02*
Y754266D01*
X824016D01*
Y752234D01*
X821984D01*
X943218Y785468D02*
Y789532D01*
X947282D01*
Y785468D01*
X943218D01*
X944234Y786484D02*
Y788516D01*
X946266D01*
Y786484D01*
X944234D01*
X888968Y781718D02*
Y785782D01*
X893032D01*
Y781718D01*
X888968D01*
X889984Y782734D02*
Y784766D01*
X892016D01*
Y782734D01*
X889984D01*
X936218Y775718D02*
Y779782D01*
X940282D01*
Y775718D01*
X936218D01*
X937234Y776734D02*
Y778766D01*
X939266D01*
Y776734D01*
X937234D01*
X899468Y769468D02*
Y773532D01*
X903532D01*
Y769468D01*
X899468D01*
X900484Y770484D02*
Y772516D01*
X902516D01*
Y770484D01*
X900484D01*
X882718Y724968D02*
Y729032D01*
X886782D01*
Y724968D01*
X882718D01*
X883734Y725984D02*
Y728016D01*
X885766D01*
Y725984D01*
X883734D01*
X928718Y703218D02*
Y707282D01*
X932782D01*
Y703218D01*
X928718D01*
X929734Y704234D02*
Y706266D01*
X931766D01*
Y704234D01*
X929734D01*
X928718Y696468D02*
Y700532D01*
X932782D01*
Y696468D01*
X928718D01*
X929734Y697484D02*
Y699516D01*
X931766D01*
Y697484D01*
X929734D01*
X863917Y623048D02*
Y627112D01*
X867981D01*
Y623048D01*
X863917D01*
X864933Y624064D02*
Y626096D01*
X866965D01*
Y624064D01*
X864933D01*
X859773Y626963D02*
Y631027D01*
X863837D01*
Y626963D01*
X859773D01*
X860789Y627979D02*
Y630011D01*
X862821D01*
Y627979D01*
X860789D01*
X792218Y715968D02*
Y720032D01*
X796282D01*
Y715968D01*
X792218D01*
X793234Y716984D02*
Y719016D01*
X795266D01*
Y716984D01*
X793234D01*
X816218Y727968D02*
Y732032D01*
X820282D01*
Y727968D01*
X816218D01*
X817234Y728984D02*
Y731016D01*
X819266D01*
Y728984D01*
X817234D01*
X826218Y713218D02*
Y717282D01*
X830282D01*
Y713218D01*
X826218D01*
X827234Y714234D02*
Y716266D01*
X829266D01*
Y714234D01*
X827234D01*
X836193Y714443D02*
Y718507D01*
X840257D01*
Y714443D01*
X836193D01*
X837209Y715459D02*
Y717491D01*
X839241D01*
Y715459D01*
X837209D01*
X798968Y717218D02*
Y721282D01*
X803032D01*
Y717218D01*
X798968D01*
X799984Y718234D02*
Y720266D01*
X802016D01*
Y718234D01*
X799984D01*
X832533Y678903D02*
Y682967D01*
X836597D01*
Y678903D01*
X832533D01*
X833549Y679919D02*
Y681951D01*
X835581D01*
Y679919D01*
X833549D01*
X840568Y692766D02*
Y696830D01*
X844632D01*
Y692766D01*
X840568D01*
X841584Y693782D02*
Y695814D01*
X843616D01*
Y693782D01*
X841584D01*
X852718Y697968D02*
Y702032D01*
X856782D01*
Y697968D01*
X852718D01*
X853734Y698984D02*
Y701016D01*
X855766D01*
Y698984D01*
X853734D01*
X816320Y701572D02*
Y705636D01*
X820384D01*
Y701572D01*
X816320D01*
X817336Y702588D02*
Y704620D01*
X819368D01*
Y702588D01*
X817336D01*
X849217Y677468D02*
Y681532D01*
X853281D01*
Y677468D01*
X849217D01*
X850233Y678484D02*
Y680516D01*
X852265D01*
Y678484D01*
X850233D01*
X806203Y661713D02*
Y665777D01*
X810267D01*
Y661713D01*
X806203D01*
X807219Y662729D02*
Y664761D01*
X809251D01*
Y662729D01*
X807219D01*
X824453Y661713D02*
Y665777D01*
X828517D01*
Y661713D01*
X824453D01*
X825469Y662729D02*
Y664761D01*
X827501D01*
Y662729D01*
X825469D01*
X824203Y671233D02*
Y675297D01*
X828267D01*
Y671233D01*
X824203D01*
X825219Y672249D02*
Y674281D01*
X827251D01*
Y672249D01*
X825219D01*
X815328Y661713D02*
Y665777D01*
X819392D01*
Y661713D01*
X815328D01*
X816344Y662729D02*
Y664761D01*
X818376D01*
Y662729D01*
X816344D01*
X815328Y671233D02*
Y675297D01*
X819392D01*
Y671233D01*
X815328D01*
X816344Y672249D02*
Y674281D01*
X818376D01*
Y672249D01*
X816344D01*
X806453Y671233D02*
Y675297D01*
X810517D01*
Y671233D01*
X806453D01*
X807469Y672249D02*
Y674281D01*
X809501D01*
Y672249D01*
X807469D01*
X816218Y770718D02*
Y774782D01*
X820282D01*
Y770718D01*
X816218D01*
X817234Y771734D02*
Y773766D01*
X819266D01*
Y771734D01*
X817234D01*
X810218Y770718D02*
Y774782D01*
X814282D01*
Y770718D01*
X810218D01*
X811234Y771734D02*
Y773766D01*
X813266D01*
Y771734D01*
X811234D01*
X869218Y772968D02*
Y777032D01*
X873282D01*
Y772968D01*
X869218D01*
X870234Y773984D02*
Y776016D01*
X872266D01*
Y773984D01*
X870234D01*
X862718Y772968D02*
Y777032D01*
X866782D01*
Y772968D01*
X862718D01*
X863734Y773984D02*
Y776016D01*
X865766D01*
Y773984D01*
X863734D01*
X859468Y697968D02*
Y702032D01*
X863532D01*
Y697968D01*
X859468D01*
X860484Y698984D02*
Y701016D01*
X862516D01*
Y698984D01*
X860484D01*
X921718Y703218D02*
Y707282D01*
X925782D01*
Y703218D01*
X921718D01*
X922734Y704234D02*
Y706266D01*
X924766D01*
Y704234D01*
X922734D01*
X921718Y696468D02*
Y700532D01*
X925782D01*
Y696468D01*
X921718D01*
X922734Y697484D02*
Y699516D01*
X924766D01*
Y697484D01*
X922734D01*
X921718Y690218D02*
Y694282D01*
X925782D01*
Y690218D01*
X921718D01*
X922734Y691234D02*
Y693266D01*
X924766D01*
Y691234D01*
X922734D01*
X762508Y660298D02*
Y664362D01*
X766572D01*
Y660298D01*
X762508D01*
X763524Y661314D02*
Y663346D01*
X765556D01*
Y661314D01*
X763524D01*
X762508Y654598D02*
Y658662D01*
X766572D01*
Y654598D01*
X762508D01*
X763524Y655614D02*
Y657646D01*
X765556D01*
Y655614D01*
X763524D01*
X763778Y680298D02*
Y684362D01*
X767842D01*
Y680298D01*
X763778D01*
X764794Y681314D02*
Y683346D01*
X766826D01*
Y681314D01*
X764794D01*
X763778Y674598D02*
Y678662D01*
X767842D01*
Y674598D01*
X763778D01*
X764794Y675614D02*
Y677646D01*
X766826D01*
Y675614D01*
X764794D01*
X869100Y719328D02*
X867068Y723392D01*
X871132D01*
X869100Y719328D01*
Y720344D02*
X868084Y722376D01*
X870116D01*
X869100Y720344D01*
X858100Y719328D02*
X856068Y723392D01*
X860132D01*
X858100Y719328D01*
Y720344D02*
X857084Y722376D01*
X859116D01*
X858100Y720344D01*
D102*
X619272Y564660D02*
G03*
X619272Y564660I-2032J0D01*
G01*
X639572D02*
G03*
X639572Y564660I-2032J0D01*
G01*
X619272Y700260D02*
G03*
X619272Y700260I-2032J0D01*
G01*
X639572D02*
G03*
X639572Y700260I-2032J0D01*
G01*
X836442Y651680D02*
G03*
X836442Y651680I-2032J0D01*
G01*
X844282Y636227D02*
G03*
X844282Y636227I-2032J0D01*
G01*
X843532Y640500D02*
G03*
X843532Y640500I-2032J0D01*
G01*
X803731Y695500D02*
G03*
X803731Y695500I-2032J0D01*
G01*
X853782Y657500D02*
G03*
X853782Y657500I-2032J0D01*
G01*
X849532Y665500D02*
G03*
X849532Y665500I-2032J0D01*
G01*
X838037Y636227D02*
G03*
X838037Y636227I-2032J0D01*
G01*
X854012Y665618D02*
G03*
X854012Y665618I-2032J0D01*
G01*
X843782Y688750D02*
G03*
X843782Y688750I-2032J0D01*
G01*
X835032Y697500D02*
G03*
X835032Y697500I-2032J0D01*
G01*
X778532Y674750D02*
G03*
X778532Y674750I-2032J0D01*
G01*
X834282Y710500D02*
G03*
X834282Y710500I-2032J0D01*
G01*
X831532Y705500D02*
G03*
X831532Y705500I-2032J0D01*
G01*
X796901Y695000D02*
G03*
X796901Y695000I-2032J0D01*
G01*
X806019Y691119D02*
G03*
X806019Y691119I-2032J0D01*
G01*
X830032Y694500D02*
G03*
X830032Y694500I-2032J0D01*
G01*
X911532Y728500D02*
G03*
X911532Y728500I-2032J0D01*
G01*
X906657Y728375D02*
G03*
X906657Y728375I-2032J0D01*
G01*
X855282Y685163D02*
G03*
X855282Y685163I-2032J0D01*
G01*
X828032Y631416D02*
G03*
X828032Y631416I-2032J0D01*
G01*
X826042Y681510D02*
G03*
X826042Y681510I-2032J0D01*
G01*
X901032Y739250D02*
G03*
X901032Y739250I-2032J0D01*
G01*
X901282Y728500D02*
G03*
X901282Y728500I-2032J0D01*
G01*
X761401Y718750D02*
G03*
X761401Y718750I-2032J0D01*
G01*
X807532Y681000D02*
G03*
X807532Y681000I-2032J0D01*
G01*
X869282Y745000D02*
G03*
X869282Y745000I-2032J0D01*
G01*
X874532D02*
G03*
X874532Y745000I-2032J0D01*
G01*
X787032Y650250D02*
G03*
X787032Y650250I-2032J0D01*
G01*
D103*
X835426Y651680D02*
G03*
X835426Y651680I-1016J0D01*
G01*
X843266Y636227D02*
G03*
X843266Y636227I-1016J0D01*
G01*
X842516Y640500D02*
G03*
X842516Y640500I-1016J0D01*
G01*
X802715Y695500D02*
G03*
X802715Y695500I-1016J0D01*
G01*
X852766Y657500D02*
G03*
X852766Y657500I-1016J0D01*
G01*
X848516Y665500D02*
G03*
X848516Y665500I-1016J0D01*
G01*
X837021Y636227D02*
G03*
X837021Y636227I-1016J0D01*
G01*
X852996Y665618D02*
G03*
X852996Y665618I-1016J0D01*
G01*
X842766Y688750D02*
G03*
X842766Y688750I-1016J0D01*
G01*
X834016Y697500D02*
G03*
X834016Y697500I-1016J0D01*
G01*
X777516Y674750D02*
G03*
X777516Y674750I-1016J0D01*
G01*
X833266Y710500D02*
G03*
X833266Y710500I-1016J0D01*
G01*
X830516Y705500D02*
G03*
X830516Y705500I-1016J0D01*
G01*
X795885Y695000D02*
G03*
X795885Y695000I-1016J0D01*
G01*
X805003Y691119D02*
G03*
X805003Y691119I-1016J0D01*
G01*
X829016Y694500D02*
G03*
X829016Y694500I-1016J0D01*
G01*
X910516Y728500D02*
G03*
X910516Y728500I-1016J0D01*
G01*
X905641Y728375D02*
G03*
X905641Y728375I-1016J0D01*
G01*
X854266Y685163D02*
G03*
X854266Y685163I-1016J0D01*
G01*
X827016Y631416D02*
G03*
X827016Y631416I-1016J0D01*
G01*
X825026Y681510D02*
G03*
X825026Y681510I-1016J0D01*
G01*
X900016Y739250D02*
G03*
X900016Y739250I-1016J0D01*
G01*
X900266Y728500D02*
G03*
X900266Y728500I-1016J0D01*
G01*
X760385Y718750D02*
G03*
X760385Y718750I-1016J0D01*
G01*
X806516Y681000D02*
G03*
X806516Y681000I-1016J0D01*
G01*
X868266Y745000D02*
G03*
X868266Y745000I-1016J0D01*
G01*
X873516D02*
G03*
X873516Y745000I-1016J0D01*
G01*
X786016Y650250D02*
G03*
X786016Y650250I-1016J0D01*
G01*
M02*
