G04*
G04 #@! TF.GenerationSoftware,Altium Limited,Altium Designer,21.6.4 (81)*
G04*
G04 Layer_Color=16711935*
%FSLAX44Y44*%
%MOMM*%
G71*
G04*
G04 #@! TF.SameCoordinates,BBD99886-0AEC-46FA-8170-3E0A894F067B*
G04*
G04*
G04 #@! TF.FilePolarity,Negative*
G04*
G01*
G75*
%ADD22R,0.4725X0.5153*%
%ADD26R,0.5725X0.6153*%
%ADD27R,0.4725X0.5811*%
%ADD29R,0.6000X0.5000*%
%ADD31R,0.5000X0.6000*%
%ADD33R,0.5153X0.4725*%
%ADD34C,1.0000*%
%ADD55R,0.6700X2.2450*%
%ADD56C,2.5510*%
%ADD57C,1.7260*%
%ADD58C,1.5540*%
%ADD59R,1.5540X1.5540*%
%ADD60C,3.3260*%
%ADD61C,2.6018*%
%ADD62R,2.4248X2.4248*%
%ADD63O,3.7360X1.7360*%
%ADD64C,1.3260*%
%ADD65C,0.5760*%
%ADD88R,0.5200X0.5200*%
%ADD89R,0.6153X0.5725*%
%ADD90R,0.5811X0.4725*%
%ADD93R,0.5596X0.5621*%
%ADD94R,1.5562X1.5544*%
%ADD95R,0.4500X0.6750*%
%ADD96R,0.6750X0.4500*%
%ADD97R,0.5000X0.4000*%
%ADD98R,1.3260X0.9260*%
%ADD99R,0.7260X1.3260*%
D22*
X821690Y654026D02*
D03*
Y646454D02*
D03*
X824230Y711176D02*
D03*
Y703604D02*
D03*
X810260Y711176D02*
D03*
Y703604D02*
D03*
D26*
X592750Y546964D02*
D03*
Y555536D02*
D03*
D27*
X798750Y729595D02*
D03*
Y736905D02*
D03*
D29*
X847500Y697250D02*
D03*
Y687250D02*
D03*
X796290Y702390D02*
D03*
Y712390D02*
D03*
X838200Y702390D02*
D03*
Y712390D02*
D03*
D31*
X649500Y742000D02*
D03*
X659500D02*
D03*
X716000Y554750D02*
D03*
X726000D02*
D03*
X616500Y582750D02*
D03*
X606500D02*
D03*
D33*
X794464Y760000D02*
D03*
X802036D02*
D03*
X777264Y711200D02*
D03*
X784836D02*
D03*
X775500Y696250D02*
D03*
X783071D02*
D03*
X840716Y684530D02*
D03*
X833144D02*
D03*
X777264Y669290D02*
D03*
X784836D02*
D03*
X777264Y655320D02*
D03*
X784836D02*
D03*
X833144Y646430D02*
D03*
X840716D02*
D03*
D34*
X759750Y708750D02*
D03*
X738250D02*
D03*
D55*
X727250Y517930D02*
D03*
X736662D02*
D03*
X746073D02*
D03*
X755485D02*
D03*
X764896D02*
D03*
X774308D02*
D03*
X791735D02*
D03*
X801146D02*
D03*
X810558D02*
D03*
D56*
X693440Y555010D02*
D03*
Y709910D02*
D03*
D57*
X617240Y564660D02*
D03*
X637540D02*
D03*
X617240Y700260D02*
D03*
X637540D02*
D03*
D58*
X726440Y575310D02*
D03*
X751840Y588010D02*
D03*
X726440Y600710D02*
D03*
X751840Y613410D02*
D03*
X726440Y626110D02*
D03*
X751840Y638810D02*
D03*
X726440Y651510D02*
D03*
X751840Y664210D02*
D03*
X726440Y676910D02*
D03*
D59*
X751840Y689610D02*
D03*
D60*
X662940Y575310D02*
D03*
Y689610D02*
D03*
D61*
X821350Y605900D02*
D03*
X872150D02*
D03*
X821350Y555100D02*
D03*
X872150D02*
D03*
D62*
X846750Y580500D02*
D03*
D63*
X933450Y601900D02*
D03*
Y718900D02*
D03*
D64*
Y637900D02*
D03*
Y682900D02*
D03*
D65*
X869100Y721360D02*
D03*
X858100D02*
D03*
D88*
X689000Y779750D02*
D03*
X697000D02*
D03*
D89*
X773214Y782000D02*
D03*
X781786D02*
D03*
X659036Y731000D02*
D03*
X650464D02*
D03*
D90*
X687155Y733750D02*
D03*
X679845D02*
D03*
X696655Y771750D02*
D03*
X689345D02*
D03*
X696155Y758500D02*
D03*
X688845D02*
D03*
D93*
X777038Y683260D02*
D03*
X785062D02*
D03*
D94*
X862330Y674239D02*
D03*
Y656721D02*
D03*
D95*
X832305Y671830D02*
D03*
X841555D02*
D03*
X832305Y659130D02*
D03*
X841555D02*
D03*
D96*
X852750Y634375D02*
D03*
Y643625D02*
D03*
D97*
X865250Y646000D02*
D03*
Y638000D02*
D03*
D98*
X779250Y759700D02*
D03*
X721750D02*
D03*
Y734300D02*
D03*
X779250D02*
D03*
D99*
X763200Y765750D02*
D03*
X750500D02*
D03*
X737800D02*
D03*
Y728250D02*
D03*
X750500D02*
D03*
X763200D02*
D03*
M02*
