G04*
G04 #@! TF.GenerationSoftware,Altium Limited,Altium Designer,21.6.4 (81)*
G04*
G04 Layer_Color=16711935*
%FSLAX44Y44*%
%MOMM*%
G71*
G04*
G04 #@! TF.SameCoordinates,BBD99886-0AEC-46FA-8170-3E0A894F067B*
G04*
G04*
G04 #@! TF.FilePolarity,Positive*
G04*
G01*
G75*
%ADD10C,0.2000*%
%ADD13C,0.2540*%
D10*
X510750Y796290D02*
X960766Y796290D01*
X960766Y778125D02*
X960766Y796290D01*
X960766Y509131D02*
X960766Y778125D01*
X949879Y509131D02*
X960766D01*
X897050Y509130D02*
X949879Y509131D01*
X897050Y509130D02*
Y533122D01*
X896359Y535001D02*
X897050Y533122D01*
X894526Y535807D02*
X896359Y535001D01*
X849930Y535057D02*
X851740Y535807D01*
X849181Y533248D02*
X849930Y535057D01*
X849181Y533248D02*
X849181Y517333D01*
X848431Y515524D02*
X849181Y517333D01*
X846622Y514774D02*
X848431Y515524D01*
X830422Y514774D02*
X846622Y514774D01*
X721510Y506377D02*
X722260Y504567D01*
X721510Y532985D02*
X721510Y506377D01*
X722260Y504567D02*
X724069Y503818D01*
X851740Y535807D02*
X894526D01*
X828612Y515524D02*
X830422Y514774D01*
X827862Y517333D02*
X828612Y515524D01*
X827862Y530437D02*
X827862Y517333D01*
X827444Y532509D02*
X827862Y530437D01*
X826303Y534202D02*
X827444Y532509D01*
X824611Y535343D02*
X826303Y534202D01*
X822539Y535761D02*
X824611Y535343D01*
X818774Y534202D02*
X820501Y535356D01*
X817620Y532475D02*
X818774Y534202D01*
X817215Y530437D02*
X817620Y532475D01*
X817215Y506446D02*
X817215Y530437D01*
X814655Y503886D02*
X816465Y504636D01*
X820501Y535356D02*
X822539Y535761D01*
X720733Y534984D02*
X721510Y532985D01*
X718734Y535761D02*
X720733Y534984D01*
X665620Y535693D02*
X718734Y535761D01*
X510750Y535693D02*
X665620Y535693D01*
X787876Y503886D02*
X814655Y503886D01*
X786059Y504632D02*
X787876Y503886D01*
X785305Y506446D02*
X786059Y504632D01*
X785305Y506446D02*
X785305Y522474D01*
X784529Y524349D02*
X785305Y522474D01*
X780773Y524352D02*
X782655Y525125D01*
X779993Y522474D02*
X780773Y524352D01*
X779993Y506423D02*
X779993Y522474D01*
X779260Y504583D02*
X779993Y506423D01*
X777434Y503818D02*
X779260Y504583D01*
X724069Y503818D02*
X777434D01*
X782655Y525125D02*
X784529Y524349D01*
X816465Y504636D02*
X817215Y506446D01*
D13*
X510750Y535693D02*
Y796290D01*
M02*
