G04*
G04 #@! TF.GenerationSoftware,Altium Limited,Altium Designer,21.6.4 (81)*
G04*
G04 Layer_Color=8388736*
%FSLAX44Y44*%
%MOMM*%
G71*
G04*
G04 #@! TF.SameCoordinates,BBD99886-0AEC-46FA-8170-3E0A894F067B*
G04*
G04*
G04 #@! TF.FilePolarity,Negative*
G04*
G01*
G75*
%ADD22R,0.4725X0.5153*%
%ADD23R,1.1938X0.8890*%
%ADD24R,1.4986X0.5588*%
%ADD25R,0.5588X1.4986*%
%ADD26R,0.5725X0.6153*%
%ADD27R,0.4725X0.5811*%
%ADD29R,0.6000X0.5000*%
%ADD30R,0.8000X0.8000*%
%ADD31R,0.5000X0.6000*%
%ADD33R,0.5153X0.4725*%
%ADD34C,1.0000*%
%ADD35R,0.5200X0.5200*%
%ADD36R,1.8000X1.2000*%
%ADD38R,0.4000X0.5000*%
%ADD40R,0.5621X0.5596*%
%ADD42R,1.5549X2.3062*%
%ADD45R,0.3760X0.9260*%
%ADD46R,0.6260X0.5760*%
%ADD47R,2.8560X0.8760*%
%ADD48R,0.2760X0.6760*%
%ADD49R,0.6760X0.2760*%
%ADD50R,2.8760X2.8760*%
%ADD51R,0.7260X1.1260*%
%ADD52R,1.0760X0.7760*%
%ADD53O,0.4760X0.7760*%
%ADD54R,2.4760X1.7260*%
%ADD55R,0.6700X2.2450*%
%ADD56C,2.5510*%
%ADD57C,1.7260*%
%ADD58C,1.5540*%
%ADD59R,1.5540X1.5540*%
%ADD60C,3.3260*%
%ADD61C,2.6018*%
%ADD62R,2.4248X2.4248*%
%ADD63O,3.7360X1.7360*%
%ADD64C,1.3260*%
%ADD65C,0.5760*%
D22*
X641750Y775036D02*
D03*
Y767464D02*
D03*
X951250Y545464D02*
D03*
Y553036D02*
D03*
X796290Y711176D02*
D03*
Y703604D02*
D03*
X810260Y711176D02*
D03*
Y703604D02*
D03*
X824230Y711176D02*
D03*
Y703604D02*
D03*
X951230Y787351D02*
D03*
Y779780D02*
D03*
D23*
X660000Y777500D02*
D03*
X698500D02*
D03*
Y754500D02*
D03*
X660000D02*
D03*
D24*
X657660Y766000D02*
D03*
X700840D02*
D03*
D25*
X673250Y778573D02*
D03*
X685250D02*
D03*
Y753427D02*
D03*
X673250D02*
D03*
D26*
X718000Y771214D02*
D03*
Y779786D02*
D03*
X718250Y759786D02*
D03*
Y751214D02*
D03*
X901000Y546464D02*
D03*
Y555036D02*
D03*
D27*
X903750Y600155D02*
D03*
Y592845D02*
D03*
X951230Y741525D02*
D03*
Y734215D02*
D03*
D29*
X939000Y541500D02*
D03*
Y551500D02*
D03*
D30*
X926250Y518250D02*
D03*
X909750D02*
D03*
D31*
X941500Y518500D02*
D03*
X951500D02*
D03*
X925750Y580390D02*
D03*
X915750D02*
D03*
D33*
X830536Y746250D02*
D03*
X822964D02*
D03*
X822984Y759460D02*
D03*
X830556D02*
D03*
X867386Y680720D02*
D03*
X859814D02*
D03*
X867386Y666750D02*
D03*
X859814D02*
D03*
X871244Y637540D02*
D03*
X878816D02*
D03*
X871244Y623570D02*
D03*
X878816D02*
D03*
D34*
X731520Y779780D02*
D03*
X756500Y780500D02*
D03*
D35*
X721360Y730060D02*
D03*
Y738060D02*
D03*
X798830Y760920D02*
D03*
Y752920D02*
D03*
D36*
X780730Y757490D02*
D03*
X740730D02*
D03*
Y733490D02*
D03*
X780730D02*
D03*
D38*
X826770Y778700D02*
D03*
X818770D02*
D03*
D40*
X890270Y726643D02*
D03*
Y718617D02*
D03*
D42*
X847263Y759460D02*
D03*
X869777D02*
D03*
D45*
X927500Y534000D02*
D03*
X922500D02*
D03*
X917500D02*
D03*
X912500D02*
D03*
Y565500D02*
D03*
X917500D02*
D03*
X922500D02*
D03*
X927500D02*
D03*
D46*
X753050Y718820D02*
D03*
X745550D02*
D03*
D47*
X905050Y700400D02*
D03*
Y620400D02*
D03*
Y690400D02*
D03*
Y680400D02*
D03*
Y670400D02*
D03*
Y660400D02*
D03*
Y650400D02*
D03*
Y640400D02*
D03*
Y630400D02*
D03*
D48*
X800010Y639480D02*
D03*
X804010D02*
D03*
X808010D02*
D03*
X812010D02*
D03*
X816010D02*
D03*
X820010D02*
D03*
X824010D02*
D03*
X828010D02*
D03*
X832010D02*
D03*
X836010D02*
D03*
Y687480D02*
D03*
X832010D02*
D03*
X828010D02*
D03*
X824010D02*
D03*
X820010D02*
D03*
X816010D02*
D03*
X812010D02*
D03*
X808010D02*
D03*
X804010D02*
D03*
X800010D02*
D03*
D49*
X842010Y645480D02*
D03*
Y649480D02*
D03*
Y653480D02*
D03*
Y657480D02*
D03*
Y661480D02*
D03*
Y665480D02*
D03*
Y669480D02*
D03*
Y673480D02*
D03*
Y677480D02*
D03*
Y681480D02*
D03*
X794010D02*
D03*
Y677480D02*
D03*
Y673480D02*
D03*
Y669480D02*
D03*
Y665480D02*
D03*
Y661480D02*
D03*
Y657480D02*
D03*
Y653480D02*
D03*
Y649480D02*
D03*
Y645480D02*
D03*
D50*
X818010Y663480D02*
D03*
D51*
X882260Y783590D02*
D03*
X865260D02*
D03*
D52*
X938170Y749980D02*
D03*
X893170D02*
D03*
X938170Y771480D02*
D03*
X893170D02*
D03*
D53*
X873100Y735610D02*
D03*
X863600D02*
D03*
X854100D02*
D03*
Y707110D02*
D03*
X863600D02*
D03*
X873100D02*
D03*
D54*
X863600Y721360D02*
D03*
D55*
X791735Y517680D02*
D03*
X810558D02*
D03*
X801146D02*
D03*
X764896D02*
D03*
X774308D02*
D03*
X746073D02*
D03*
X755485D02*
D03*
X736662D02*
D03*
X727250D02*
D03*
D56*
X693440Y555010D02*
D03*
Y709910D02*
D03*
D57*
X617240Y564660D02*
D03*
X637540D02*
D03*
X617240Y700260D02*
D03*
X637540D02*
D03*
D58*
X726440Y575310D02*
D03*
X751840Y588010D02*
D03*
X726440Y600710D02*
D03*
X751840Y613410D02*
D03*
X726440Y626110D02*
D03*
X751840Y638810D02*
D03*
X726440Y651510D02*
D03*
X751840Y664210D02*
D03*
X726440Y676910D02*
D03*
D59*
X751840Y689610D02*
D03*
D60*
X662940Y575310D02*
D03*
Y689610D02*
D03*
D61*
X821350Y605900D02*
D03*
X872150D02*
D03*
X821350Y555100D02*
D03*
X872150D02*
D03*
D62*
X846750Y580500D02*
D03*
D63*
X933450Y601900D02*
D03*
Y718900D02*
D03*
D64*
Y637900D02*
D03*
Y682900D02*
D03*
D65*
X869100Y721360D02*
D03*
X858100D02*
D03*
M02*
