G04*
G04 #@! TF.GenerationSoftware,Altium Limited,Altium Designer,21.6.4 (81)*
G04*
G04 Layer_Color=32896*
%FSLAX44Y44*%
%MOMM*%
G71*
G04*
G04 #@! TF.SameCoordinates,BBD99886-0AEC-46FA-8170-3E0A894F067B*
G04*
G04*
G04 #@! TF.FilePolarity,Positive*
G04*
G01*
G75*
%ADD10C,0.2000*%
%ADD12C,0.1524*%
%ADD13C,0.2540*%
%ADD14C,0.1000*%
%ADD17C,0.1520*%
%ADD100C,0.4000*%
D10*
X687750Y786500D02*
X698250D01*
X770138Y788862D02*
X784862D01*
X770138Y775138D02*
X784862D01*
X792000Y726689D02*
Y739811D01*
X805500Y726689D02*
Y739811D01*
X791888Y766750D02*
X804612D01*
X791888Y753250D02*
X804612D01*
X685939Y751750D02*
X699061D01*
X685939Y765250D02*
X699061D01*
X715500Y741000D02*
Y753000D01*
Y772000D02*
X730500D01*
X715500Y767000D02*
Y772000D01*
Y722000D02*
X730500D01*
X715500D02*
Y727000D01*
X770500Y722000D02*
X785500D01*
Y727000D01*
Y741000D02*
Y753000D01*
X770500Y772000D02*
X785500D01*
Y767000D02*
Y772000D01*
X647388Y724138D02*
X662112D01*
X647388Y737862D02*
X662112D01*
X649500Y734890D02*
X659500D01*
X649500Y749000D02*
X659500D01*
X715500Y547750D02*
X726500D01*
X715500Y561750D02*
X726500D01*
X606500Y589860D02*
X616500D01*
X606500Y575750D02*
X616500D01*
X585888Y543888D02*
Y558612D01*
X599612Y543888D02*
Y558612D01*
X840390Y687250D02*
Y697250D01*
X854500Y687250D02*
Y697250D01*
X803290Y702390D02*
Y712390D01*
X789180Y702390D02*
Y712390D01*
X845200Y702390D02*
Y712390D01*
X831090Y702390D02*
Y712390D01*
X774688Y717950D02*
X787412D01*
X774688Y704450D02*
X787412D01*
X772923Y703000D02*
X785648D01*
X772923Y689500D02*
X785648D01*
X774239Y690510D02*
X787861D01*
X774239Y676010D02*
X787861D01*
X874111Y648949D02*
Y682011D01*
X850549Y648949D02*
Y682011D01*
X830568Y677780D02*
X843292D01*
X830568Y691280D02*
X843292D01*
X830930Y678080D02*
X842930D01*
X830930Y665580D02*
X842930D01*
X774688Y676040D02*
X787412D01*
X774688Y662540D02*
X787412D01*
X774688Y662070D02*
X787412D01*
X774688Y648570D02*
X787412D01*
X846500Y633000D02*
Y645000D01*
X859000Y633000D02*
Y645000D01*
X828440Y643878D02*
Y656602D01*
X814940Y643878D02*
Y656602D01*
X859000Y636750D02*
Y647250D01*
X871500Y636750D02*
Y647250D01*
X830980Y701028D02*
Y713752D01*
X817480Y701028D02*
Y713752D01*
X817010Y701028D02*
Y713752D01*
X803510Y701028D02*
Y713752D01*
X830930Y665380D02*
X842930D01*
X830930Y652880D02*
X842930D01*
X830568Y653180D02*
X843292D01*
X830568Y639680D02*
X843292D01*
D12*
X767370Y708750D02*
G03*
X767370Y708750I-7620J0D01*
G01*
X745870D02*
G03*
X745870Y708750I-7620J0D01*
G01*
D13*
X960416Y509131D02*
X960416Y777541D01*
X816115Y504053D02*
X816865Y505862D01*
X814306Y503303D02*
X816115Y504053D01*
X784956Y505862D02*
X784956Y521891D01*
X779643Y505839D02*
X779644Y521891D01*
X787526Y503303D02*
X814306Y503303D01*
X784956Y505862D02*
X785710Y504048D01*
X778910Y504000D02*
X779643Y505839D01*
X785710Y504048D02*
X787526Y503303D01*
X777084Y503234D02*
X778910Y504000D01*
X960416Y777541D02*
X960990Y780422D01*
X817271Y531891D02*
X818425Y533619D01*
X816865Y529854D02*
X817271Y531891D01*
X818425Y533619D02*
X820152Y534773D01*
X721161Y505793D02*
X721910Y503984D01*
X721161Y532402D02*
X721161Y505793D01*
X721910Y503984D02*
X723720Y503234D01*
X777084D01*
X822189Y535178D02*
X822189Y535178D01*
X822189Y535178D02*
X824261Y534759D01*
X720383Y534401D02*
X721161Y532402D01*
X820152Y534773D02*
X822189Y535178D01*
X824261Y534759D02*
X825954Y533618D01*
X718384Y535178D02*
X720383Y534401D01*
X827513Y516750D02*
X828263Y514940D01*
X827513Y529854D02*
X827513Y516750D01*
X828263Y514940D02*
X830072Y514191D01*
X825954Y533618D02*
X827094Y531926D01*
X827513Y529854D01*
X782305Y524542D02*
X782306Y524541D01*
X780424Y523769D02*
X782306Y524541D01*
X782305Y524542D02*
X784180Y523765D01*
X784956Y521891D01*
X779644Y521891D02*
X780424Y523769D01*
X816865Y505862D02*
X816865Y529854D01*
X665271Y535109D02*
X718384Y535178D01*
X848831Y532664D02*
X849581Y534474D01*
X894176Y535224D02*
X896009Y534418D01*
X849581Y534474D02*
X851391Y535224D01*
X894176D01*
X848082Y514940D02*
X848832Y516750D01*
X846273Y514191D02*
X848082Y514940D01*
X830072Y514191D02*
X846273Y514191D01*
X848831Y532664D02*
X848832Y516750D01*
X896701Y508547D02*
Y532539D01*
X896009Y534418D02*
X896701Y532539D01*
Y508547D02*
X939147Y508547D01*
X939144Y508593D02*
X939147Y508547D01*
D14*
X790500Y734300D02*
G03*
X789500Y734300I-500J0D01*
G01*
D02*
G03*
X790500Y734300I500J0D01*
G01*
D17*
X680272Y766691D02*
Y774309D01*
X676463D01*
X675193Y773039D01*
Y770500D01*
X676463Y769230D01*
X680272D01*
X677733D02*
X675193Y766691D01*
X672654D02*
X670115D01*
X671385D01*
Y774309D01*
X672654Y773039D01*
X666306D02*
X665037Y774309D01*
X662498D01*
X661228Y773039D01*
Y771770D01*
X662498Y770500D01*
X661228Y769230D01*
Y767961D01*
X662498Y766691D01*
X665037D01*
X666306Y767961D01*
Y769230D01*
X665037Y770500D01*
X666306Y771770D01*
Y773039D01*
X665037Y770500D02*
X662498D01*
X680272Y754441D02*
Y762059D01*
X676463D01*
X675193Y760789D01*
Y758250D01*
X676463Y756980D01*
X680272D01*
X677733D02*
X675193Y754441D01*
X672654D02*
X670115D01*
X671385D01*
Y762059D01*
X672654Y760789D01*
X666306Y762059D02*
X661228D01*
Y760789D01*
X666306Y755711D01*
Y754441D01*
X819270Y763039D02*
X820539Y764309D01*
X823078D01*
X824348Y763039D01*
Y757961D01*
X823078Y756691D01*
X820539D01*
X819270Y757961D01*
X812922Y756691D02*
Y764309D01*
X816730Y760500D01*
X811652D01*
X717989Y711375D02*
X714398Y707784D01*
X716193Y709580D01*
X721580Y704193D01*
X717989Y700602D02*
X712602Y705989D01*
X709909Y703295D01*
X709909Y701500D01*
X711704Y699705D01*
X713500D01*
X716193Y702398D01*
X709909Y692523D02*
X704523Y697909D01*
X709909Y697909D01*
X706318Y694318D01*
X725239Y702875D02*
X721648Y699284D01*
X723443Y701080D01*
X728830Y695693D01*
X725239Y692102D02*
X719852Y697489D01*
X717159Y694796D01*
X717159Y693000D01*
X718954Y691205D01*
X720750D01*
X723443Y693898D01*
X715364Y691205D02*
X713568D01*
X711773Y689409D01*
Y687614D01*
X712670Y686716D01*
X714466D01*
X715364Y687614D01*
X714466Y686716D01*
X714466Y684920D01*
X715364Y684023D01*
X717159Y684023D01*
X718954Y685818D01*
Y687614D01*
X762522Y549691D02*
Y557309D01*
X758713D01*
X757443Y556039D01*
Y553500D01*
X758713Y552230D01*
X762522D01*
X759983D02*
X757443Y549691D01*
X754904D02*
X752365D01*
X753635D01*
Y557309D01*
X754904Y556039D01*
X748556D02*
X747287Y557309D01*
X744748D01*
X743478Y556039D01*
Y550961D01*
X744748Y549691D01*
X747287D01*
X748556Y550961D01*
Y556039D01*
X654098Y756191D02*
Y763809D01*
X650289D01*
X649020Y762539D01*
Y760000D01*
X650289Y758730D01*
X654098D01*
X651559D02*
X649020Y756191D01*
X646480Y757461D02*
X645211Y756191D01*
X642672D01*
X641402Y757461D01*
Y762539D01*
X642672Y763809D01*
X645211D01*
X646480Y762539D01*
Y761270D01*
X645211Y760000D01*
X641402D01*
X580098Y546941D02*
Y554559D01*
X576289D01*
X575020Y553289D01*
Y550750D01*
X576289Y549480D01*
X580098D01*
X577559D02*
X575020Y546941D01*
X572480Y554559D02*
X567402D01*
Y553289D01*
X572480Y548211D01*
Y546941D01*
X836441Y722402D02*
X844059D01*
Y726211D01*
X842789Y727480D01*
X840250D01*
X838980Y726211D01*
Y722402D01*
Y724941D02*
X836441Y727480D01*
X844059Y735098D02*
Y730020D01*
X840250D01*
X841520Y732559D01*
Y733828D01*
X840250Y735098D01*
X837711D01*
X836441Y733828D01*
Y731289D01*
X837711Y730020D01*
X654348Y768191D02*
Y775809D01*
X650539D01*
X649270Y774539D01*
Y772000D01*
X650539Y770730D01*
X654348D01*
X651809D02*
X649270Y768191D01*
X646730Y774539D02*
X645461Y775809D01*
X642922D01*
X641652Y774539D01*
Y773270D01*
X642922Y772000D01*
X644191D01*
X642922D01*
X641652Y770730D01*
Y769461D01*
X642922Y768191D01*
X645461D01*
X646730Y769461D01*
X640098Y577941D02*
Y585559D01*
X636289D01*
X635020Y584289D01*
Y581750D01*
X636289Y580480D01*
X640098D01*
X637559D02*
X635020Y577941D01*
X627402D02*
X632480D01*
X627402Y583020D01*
Y584289D01*
X628672Y585559D01*
X631211D01*
X632480Y584289D01*
X858941Y705172D02*
X866559D01*
Y708980D01*
X865289Y710250D01*
X862750D01*
X861480Y708980D01*
Y705172D01*
Y707711D02*
X858941Y710250D01*
Y712789D02*
Y715328D01*
Y714059D01*
X866559D01*
X865289Y712789D01*
X888309Y667902D02*
X880691D01*
Y672980D01*
Y680598D02*
Y675520D01*
X885770Y680598D01*
X887039D01*
X888309Y679328D01*
Y676789D01*
X887039Y675520D01*
X892809Y644059D02*
X897887D01*
Y640250D01*
X895348D01*
X897887D01*
Y636441D01*
X890270Y644059D02*
Y636441D01*
X886461D01*
X885191Y637711D01*
Y638980D01*
X886461Y640250D01*
X890270D01*
X886461D01*
X885191Y641520D01*
Y642789D01*
X886461Y644059D01*
X890270D01*
X882652Y636441D02*
X880113D01*
X881383D01*
Y644059D01*
X882652Y642789D01*
X785318Y628330D02*
X786588Y629600D01*
X789127D01*
X790397Y628330D01*
Y623252D01*
X789127Y621982D01*
X786588D01*
X785318Y623252D01*
X777701Y621982D02*
X782779D01*
X777701Y627061D01*
Y628330D01*
X778970Y629600D01*
X781510D01*
X782779Y628330D01*
X770083Y629600D02*
X775162D01*
Y625791D01*
X772622Y627061D01*
X771353D01*
X770083Y625791D01*
Y623252D01*
X771353Y621982D01*
X773892D01*
X775162Y623252D01*
X785318Y639864D02*
X786588Y641134D01*
X789127D01*
X790397Y639864D01*
Y634786D01*
X789127Y633516D01*
X786588D01*
X785318Y634786D01*
X777701Y633516D02*
X782779D01*
X777701Y638595D01*
Y639864D01*
X778970Y641134D01*
X781510D01*
X782779Y639864D01*
X775162D02*
X773892Y641134D01*
X771353D01*
X770083Y639864D01*
Y638595D01*
X771353Y637325D01*
X772622D01*
X771353D01*
X770083Y636055D01*
Y634786D01*
X771353Y633516D01*
X773892D01*
X775162Y634786D01*
X819078Y688539D02*
X820348Y689809D01*
X822887D01*
X824157Y688539D01*
Y683461D01*
X822887Y682191D01*
X820348D01*
X819078Y683461D01*
X811461Y682191D02*
X816539D01*
X811461Y687270D01*
Y688539D01*
X812730Y689809D01*
X815270D01*
X816539Y688539D01*
X808922D02*
X807652Y689809D01*
X805113D01*
X803843Y688539D01*
Y683461D01*
X805113Y682191D01*
X807652D01*
X808922Y683461D01*
Y688539D01*
X818444Y674289D02*
X819713Y675559D01*
X822252D01*
X823522Y674289D01*
Y669211D01*
X822252Y667941D01*
X819713D01*
X818444Y669211D01*
X815904Y667941D02*
X813365D01*
X814635D01*
Y675559D01*
X815904Y674289D01*
X809556Y669211D02*
X808287Y667941D01*
X805748D01*
X804478Y669211D01*
Y674289D01*
X805748Y675559D01*
X808287D01*
X809556Y674289D01*
Y673020D01*
X808287Y671750D01*
X804478D01*
X785318Y616797D02*
X786588Y618066D01*
X789127D01*
X790397Y616797D01*
Y611718D01*
X789127Y610449D01*
X786588D01*
X785318Y611718D01*
X782779Y610449D02*
X780240D01*
X781510D01*
Y618066D01*
X782779Y616797D01*
X776431D02*
X775162Y618066D01*
X772622D01*
X771353Y616797D01*
Y615527D01*
X772622Y614258D01*
X771353Y612988D01*
Y611718D01*
X772622Y610449D01*
X775162D01*
X776431Y611718D01*
Y612988D01*
X775162Y614258D01*
X776431Y615527D01*
Y616797D01*
X775162Y614258D02*
X772622D01*
X816289Y726556D02*
X817559Y725287D01*
Y722748D01*
X816289Y721478D01*
X811211D01*
X809941Y722748D01*
Y725287D01*
X811211Y726556D01*
X809941Y729096D02*
Y731635D01*
Y730365D01*
X817559D01*
X816289Y729096D01*
X817559Y740522D02*
Y735444D01*
X813750D01*
X815020Y737983D01*
Y739252D01*
X813750Y740522D01*
X811211D01*
X809941Y739252D01*
Y736713D01*
X811211Y735444D01*
X828789Y727306D02*
X830059Y726037D01*
Y723498D01*
X828789Y722228D01*
X823711D01*
X822441Y723498D01*
Y726037D01*
X823711Y727306D01*
X822441Y729846D02*
Y732385D01*
Y731115D01*
X830059D01*
X828789Y729846D01*
X822441Y740002D02*
X830059D01*
X826250Y736194D01*
Y741272D01*
X785318Y605263D02*
X786588Y606533D01*
X789127D01*
X790397Y605263D01*
Y600185D01*
X789127Y598915D01*
X786588D01*
X785318Y600185D01*
X782779Y598915D02*
X780240D01*
X781510D01*
Y606533D01*
X782779Y605263D01*
X776431D02*
X775162Y606533D01*
X772622D01*
X771353Y605263D01*
Y603993D01*
X772622Y602724D01*
X773892D01*
X772622D01*
X771353Y601454D01*
Y600185D01*
X772622Y598915D01*
X775162D01*
X776431Y600185D01*
X785318Y593729D02*
X786588Y594999D01*
X789127D01*
X790397Y593729D01*
Y588651D01*
X789127Y587381D01*
X786588D01*
X785318Y588651D01*
X782779Y587381D02*
X780240D01*
X781510D01*
Y594999D01*
X782779Y593729D01*
X771353Y587381D02*
X776431D01*
X771353Y592460D01*
Y593729D01*
X772622Y594999D01*
X775162D01*
X776431Y593729D01*
X807789Y647076D02*
X809059Y645807D01*
Y643267D01*
X807789Y641998D01*
X802711D01*
X801441Y643267D01*
Y645807D01*
X802711Y647076D01*
X801441Y649615D02*
Y652154D01*
Y650885D01*
X809059D01*
X807789Y649615D01*
X801441Y655963D02*
Y658502D01*
Y657233D01*
X809059D01*
X807789Y655963D01*
X875444Y624289D02*
X876713Y625559D01*
X879252D01*
X880522Y624289D01*
Y619211D01*
X879252Y617941D01*
X876713D01*
X875444Y619211D01*
X872904Y617941D02*
X870365D01*
X871635D01*
Y625559D01*
X872904Y624289D01*
X866556D02*
X865287Y625559D01*
X862748D01*
X861478Y624289D01*
Y619211D01*
X862748Y617941D01*
X865287D01*
X866556Y619211D01*
Y624289D01*
X823020Y620289D02*
X824289Y621559D01*
X826828D01*
X828098Y620289D01*
Y615211D01*
X826828Y613941D01*
X824289D01*
X823020Y615211D01*
X820480D02*
X819211Y613941D01*
X816672D01*
X815402Y615211D01*
Y620289D01*
X816672Y621559D01*
X819211D01*
X820480Y620289D01*
Y619020D01*
X819211Y617750D01*
X815402D01*
X823520Y633039D02*
X824789Y634309D01*
X827328D01*
X828598Y633039D01*
Y627961D01*
X827328Y626691D01*
X824789D01*
X823520Y627961D01*
X820980Y633039D02*
X819711Y634309D01*
X817172D01*
X815902Y633039D01*
Y631770D01*
X817172Y630500D01*
X815902Y629230D01*
Y627961D01*
X817172Y626691D01*
X819711D01*
X820980Y627961D01*
Y629230D01*
X819711Y630500D01*
X820980Y631770D01*
Y633039D01*
X819711Y630500D02*
X817172D01*
D100*
X578752Y795706D02*
X960766D01*
X511500Y535693D02*
Y795706D01*
X580956D01*
X960766Y509126D02*
X960766Y795706D01*
X949879Y509131D02*
X960416D01*
X897050Y509130D02*
X949879Y509131D01*
X897050Y509130D02*
Y533122D01*
X896359Y535001D02*
X897050Y533122D01*
X894526Y535807D02*
X896359Y535001D01*
X851740Y535807D02*
X894526D01*
X849930Y535057D02*
X851740Y535807D01*
X849181Y533248D02*
X849930Y535057D01*
X849181Y533248D02*
X849181Y517333D01*
X848431Y515524D02*
X849181Y517333D01*
X846622Y514774D02*
X848431Y515524D01*
X830422Y514774D02*
X846622Y514774D01*
X828612Y515524D02*
X830422Y514774D01*
X827862Y517333D02*
X828612Y515524D01*
X827862Y530437D02*
X827862Y517333D01*
X827444Y532509D02*
X827862Y530437D01*
X826303Y534202D02*
X827444Y532509D01*
X824611Y535343D02*
X826303Y534202D01*
X822539Y535761D02*
X824611Y535343D01*
X820501Y535356D02*
X822539Y535761D01*
X818774Y534202D02*
X820501Y535356D01*
X817620Y532475D02*
X818774Y534202D01*
X817215Y530437D02*
X817620Y532475D01*
X817215Y506446D02*
X817215Y530437D01*
X816465Y504636D02*
X817215Y506446D01*
X814655Y503886D02*
X816465Y504636D01*
X787876Y503886D02*
X814655Y503886D01*
X786059Y504632D02*
X787876Y503886D01*
X785305Y506446D02*
X786059Y504632D01*
X785305Y506446D02*
X785305Y522474D01*
X784529Y524349D02*
X785305Y522474D01*
X782655Y525125D02*
X784529Y524349D01*
X780773Y524352D02*
X782655Y525125D01*
X779993Y522474D02*
X780773Y524352D01*
X779993Y506423D02*
X779993Y522474D01*
X779260Y504583D02*
X779993Y506423D01*
X777434Y503818D02*
X779260Y504583D01*
X724069Y503818D02*
X777434D01*
X722260Y504567D02*
X724069Y503818D01*
X721510Y506377D02*
X722260Y504567D01*
X721510Y532985D02*
X721510Y506377D01*
X720733Y534984D02*
X721510Y532985D01*
X718734Y535761D02*
X720733Y534984D01*
X665620Y535693D02*
X718734Y535761D01*
X511500Y535693D02*
X665620Y535693D01*
M02*
