G04*
G04 #@! TF.GenerationSoftware,Altium Limited,Altium Designer,21.6.4 (81)*
G04*
G04 Layer_Physical_Order=3*
G04 Layer_Color=16440176*
%FSLAX44Y44*%
%MOMM*%
G71*
G04*
G04 #@! TF.SameCoordinates,BBD99886-0AEC-46FA-8170-3E0A894F067B*
G04*
G04*
G04 #@! TF.FilePolarity,Positive*
G04*
G01*
G75*
%ADD61C,2.6018*%
%ADD62R,2.4248X2.4248*%
%ADD76C,2.4750*%
%ADD77C,1.6500*%
%ADD78C,1.4780*%
%ADD79R,1.4780X1.4780*%
%ADD80C,3.2500*%
%ADD81O,3.6600X1.6600*%
%ADD82C,1.2500*%
%ADD83C,0.4800*%
%ADD84C,0.3000*%
%ADD85C,0.4500*%
%ADD86C,0.5000*%
%ADD87C,0.2761*%
G36*
X826250Y754027D02*
X825798Y755119D01*
X824869Y756048D01*
X823656Y756550D01*
X822344D01*
X821131Y756048D01*
X820202Y755119D01*
X819700Y753906D01*
Y752594D01*
X820202Y751381D01*
X821131Y750452D01*
X822344Y749950D01*
X823656D01*
X824869Y750452D01*
X825798Y751381D01*
X826250Y752473D01*
Y717917D01*
X825452Y717119D01*
X824950Y715906D01*
Y714594D01*
X825452Y713381D01*
X826250Y712583D01*
Y696144D01*
X825965Y695860D01*
X825600Y694977D01*
Y694023D01*
X825965Y693140D01*
X826250Y692856D01*
Y682374D01*
X826045Y682869D01*
X825369Y683545D01*
X824487Y683910D01*
X823533D01*
X822651Y683545D01*
X821975Y682869D01*
X821610Y681987D01*
Y681033D01*
X821975Y680151D01*
X822651Y679475D01*
X823533Y679110D01*
X824487D01*
X825369Y679475D01*
X826045Y680151D01*
X826250Y680646D01*
Y676565D01*
X825579D01*
X824366Y676063D01*
X823437Y675134D01*
X822935Y673921D01*
Y672609D01*
X823437Y671396D01*
X824276Y670557D01*
X824276Y670557D01*
D01*
X824234Y670539D01*
X824139Y670500D01*
X823946D01*
X819649D01*
X819456D01*
D01*
X819456Y670500D01*
X819356Y670541D01*
X819319Y670557D01*
X819319D01*
X820158Y671396D01*
X820660Y672609D01*
Y673921D01*
X820158Y675134D01*
X819229Y676063D01*
X818016Y676565D01*
X816704D01*
X815491Y676063D01*
X814562Y675134D01*
X814060Y673921D01*
Y672609D01*
X814562Y671396D01*
X815401Y670557D01*
X815264Y670500D01*
X810775D01*
X810581D01*
D01*
X810581Y670500D01*
X810481Y670541D01*
X810444Y670557D01*
X810444D01*
X811283Y671396D01*
X811785Y672609D01*
Y673921D01*
X811283Y675134D01*
X810354Y676063D01*
X809141Y676565D01*
X807829D01*
X806616Y676063D01*
X805687Y675134D01*
X805185Y673921D01*
Y672609D01*
X805687Y671396D01*
X806526Y670557D01*
X806526Y670557D01*
X806442Y670522D01*
X806389Y670500D01*
X757274D01*
X756930Y670844D01*
X755040Y671935D01*
X752931Y672500D01*
X750749D01*
X748640Y671935D01*
X746750Y670844D01*
X746406Y670500D01*
X732141D01*
X731948D01*
D01*
X731948Y670500D01*
X731848Y670541D01*
X731811Y670557D01*
X731811D01*
X733074Y671820D01*
X734165Y673710D01*
X734730Y675819D01*
Y678001D01*
X734165Y680110D01*
X733074Y682000D01*
X731530Y683544D01*
X729640Y684635D01*
X727531Y685200D01*
X725349D01*
X723240Y684635D01*
X721350Y683544D01*
X719806Y682000D01*
X718715Y680110D01*
X718150Y678001D01*
Y675819D01*
X718715Y673710D01*
X719806Y671820D01*
X721069Y670557D01*
X721069Y670557D01*
X720932Y670500D01*
X512962D01*
Y794353D01*
X826250Y794353D01*
Y754027D01*
D02*
G37*
G36*
X958829Y778125D02*
Y712724D01*
X951743D01*
X951181Y713863D01*
X951486Y714260D01*
X952413Y716498D01*
X952729Y718900D01*
X952413Y721302D01*
X951486Y723540D01*
X950012Y725462D01*
X948090Y726936D01*
X945852Y727863D01*
X943450Y728179D01*
X923450D01*
X921048Y727863D01*
X918810Y726936D01*
X916889Y725462D01*
X915414Y723540D01*
X914487Y721302D01*
X914171Y718900D01*
X914487Y716498D01*
X915414Y714260D01*
X915527Y714113D01*
X914965Y712974D01*
X849250D01*
X848561Y712689D01*
X848276Y712000D01*
Y683376D01*
X848381Y683121D01*
X848430Y682850D01*
X848520Y682788D01*
X848561Y682687D01*
X848816Y682582D01*
X849043Y682424D01*
X850276Y682156D01*
X850517Y682199D01*
X850760Y682174D01*
X850870Y682263D01*
X851009Y682288D01*
X851890Y683129D01*
X852773Y682763D01*
X853727D01*
X853985Y682870D01*
X855220Y682483D01*
X855484Y682216D01*
X855487Y682214D01*
X855488Y682211D01*
X855830Y682069D01*
X856171Y681926D01*
X856174Y681927D01*
X856177Y681926D01*
X926300D01*
X926310Y681921D01*
X926787Y680140D01*
X927729Y678510D01*
X929060Y677179D01*
X930690Y676237D01*
X931952Y675899D01*
X932026Y675750D01*
Y672550D01*
X931344D01*
X930131Y672048D01*
X929202Y671119D01*
X928700Y669906D01*
Y668594D01*
X929202Y667381D01*
X929740Y666843D01*
X929998Y666042D01*
X929740Y665240D01*
X929202Y664703D01*
X928700Y663490D01*
Y662177D01*
X929202Y660964D01*
X929740Y660427D01*
X929998Y659625D01*
X929740Y658823D01*
X929202Y658286D01*
X928700Y657073D01*
Y655760D01*
X929202Y654547D01*
X929740Y654010D01*
X929998Y653208D01*
X929740Y652406D01*
X929202Y651869D01*
X928700Y650656D01*
Y649344D01*
X929202Y648131D01*
X930131Y647202D01*
X931344Y646700D01*
X932026D01*
Y645050D01*
X931952Y644901D01*
X930690Y644563D01*
X929060Y643621D01*
X927973Y642535D01*
X927103Y642887D01*
X926800Y643114D01*
Y644323D01*
X926298Y645536D01*
X925554Y646279D01*
X925449Y647021D01*
X925554Y647762D01*
X926298Y648506D01*
X926800Y649718D01*
Y651031D01*
X926298Y652244D01*
X925554Y652988D01*
X925449Y653729D01*
X925554Y654471D01*
X926298Y655214D01*
X926800Y656427D01*
Y657740D01*
X926298Y658953D01*
X925554Y659696D01*
X925449Y660437D01*
X925554Y661179D01*
X926298Y661922D01*
X926800Y663135D01*
Y664448D01*
X926298Y665661D01*
X925554Y666404D01*
X925449Y667146D01*
X925554Y667887D01*
X926298Y668631D01*
X926800Y669844D01*
Y671156D01*
X926298Y672369D01*
X925369Y673298D01*
X924156Y673800D01*
X922844D01*
X921631Y673298D01*
X920702Y672369D01*
X920200Y671156D01*
Y669844D01*
X920702Y668631D01*
X921446Y667887D01*
X921551Y667146D01*
X921446Y666404D01*
X920702Y665661D01*
X920200Y664448D01*
Y663135D01*
X920702Y661922D01*
X921446Y661179D01*
X921551Y660437D01*
X921446Y659696D01*
X920702Y658953D01*
X920200Y657740D01*
Y656427D01*
X920702Y655214D01*
X921446Y654471D01*
X921551Y653729D01*
X921446Y652988D01*
X920702Y652244D01*
X920200Y651031D01*
Y649718D01*
X920702Y648506D01*
X921446Y647762D01*
X921551Y647021D01*
X921446Y646279D01*
X920702Y645536D01*
X920200Y644323D01*
Y643010D01*
X920702Y641797D01*
X921631Y640869D01*
X922844Y640367D01*
X924156D01*
X925369Y640869D01*
X925671Y641171D01*
X926183Y640936D01*
X926725Y640429D01*
X926300Y638841D01*
Y636959D01*
X926787Y635140D01*
X927729Y633510D01*
X929060Y632179D01*
X930690Y631237D01*
X931952Y630899D01*
X932026Y630750D01*
Y611179D01*
X923450D01*
X921048Y610863D01*
X918810Y609936D01*
X916889Y608461D01*
X915414Y606540D01*
X914487Y604302D01*
X914171Y601900D01*
X914487Y599498D01*
X915414Y597260D01*
X916889Y595339D01*
X918810Y593864D01*
X921048Y592937D01*
X923450Y592621D01*
X932026D01*
Y511068D01*
X930853Y511068D01*
X898988Y511068D01*
Y533122D01*
X898921Y533456D01*
X898868Y533791D01*
X898177Y535670D01*
X898167Y535686D01*
X898164Y535704D01*
X897970Y536008D01*
X897782Y536315D01*
X897767Y536326D01*
X897758Y536341D01*
X897463Y536547D01*
X897171Y536760D01*
X897153Y536764D01*
X897138Y536775D01*
X895305Y537580D01*
X895285Y537585D01*
X895267Y537597D01*
X894916Y537667D01*
X894567Y537744D01*
X894547Y537740D01*
X894526Y537744D01*
X888224D01*
Y552807D01*
X888104Y553097D01*
X888023Y553400D01*
X887965Y553433D01*
X887939Y553496D01*
X887649Y553616D01*
X887377Y553773D01*
X886107Y553940D01*
X886059Y553977D01*
Y556223D01*
X886107Y556260D01*
X887377Y556427D01*
X887649Y556584D01*
X887939Y556704D01*
X887965Y556767D01*
X888023Y556800D01*
X888104Y557103D01*
X888224Y557393D01*
Y601950D01*
X889494Y602698D01*
X890094Y602450D01*
X891406D01*
X892619Y602952D01*
X893548Y603881D01*
X894050Y605094D01*
Y606406D01*
X893548Y607619D01*
X892619Y608548D01*
X891406Y609050D01*
X890094D01*
X889494Y608802D01*
X888224Y609550D01*
Y647250D01*
X887939Y647939D01*
X887250Y648224D01*
X853504D01*
X852655Y649494D01*
X852800Y649844D01*
Y651156D01*
X852298Y652369D01*
X851369Y653298D01*
X850156Y653800D01*
X848844D01*
X847631Y653298D01*
X846702Y652369D01*
X846200Y651156D01*
Y649844D01*
X846345Y649494D01*
X845496Y648224D01*
X835902D01*
X835416Y649398D01*
X835589Y649571D01*
X835770Y649645D01*
X836445Y650321D01*
X836810Y651203D01*
Y652158D01*
X836445Y653040D01*
X835770Y653715D01*
X834887Y654080D01*
X833933D01*
X833051Y653715D01*
X832375Y653040D01*
X832301Y652859D01*
X828520Y649078D01*
X827250Y649604D01*
Y652364D01*
X828104Y652717D01*
X829033Y653646D01*
X829535Y654859D01*
Y656171D01*
X829033Y657384D01*
X828104Y658313D01*
X827250Y658666D01*
Y660490D01*
X828354Y660947D01*
X829283Y661876D01*
X829785Y663089D01*
Y664401D01*
X829283Y665614D01*
X828354Y666543D01*
X827250Y667000D01*
Y670114D01*
X828104Y670467D01*
X829033Y671396D01*
X829535Y672609D01*
Y673921D01*
X829033Y675134D01*
X828104Y676063D01*
X827250Y676416D01*
Y691918D01*
X827523Y692100D01*
X828477D01*
X829360Y692465D01*
X830035Y693140D01*
X830400Y694023D01*
Y694910D01*
X830587Y695078D01*
X831524Y695582D01*
X831640Y695465D01*
X832523Y695100D01*
X833477D01*
X834360Y695465D01*
X835035Y696141D01*
X835400Y697023D01*
Y697977D01*
X835035Y698859D01*
X834360Y699535D01*
X833477Y699900D01*
X832523D01*
X831640Y699535D01*
X830965Y698859D01*
X830600Y697977D01*
Y697090D01*
X830413Y696922D01*
X829476Y696419D01*
X829360Y696535D01*
X828477Y696900D01*
X827523D01*
X827250Y697082D01*
Y702564D01*
X827499Y702817D01*
X828520Y703308D01*
X829023Y703100D01*
X829977D01*
X830860Y703465D01*
X831535Y704140D01*
X831900Y705023D01*
Y705977D01*
X831535Y706860D01*
X831467Y706927D01*
X831530Y707166D01*
X832090Y708100D01*
X832727D01*
X833609Y708465D01*
X834285Y709140D01*
X834650Y710023D01*
Y710977D01*
X834285Y711860D01*
X833609Y712535D01*
X832727Y712900D01*
X832223D01*
X831433Y713808D01*
X831335Y714073D01*
X831550Y714594D01*
Y715906D01*
X831048Y717119D01*
X830119Y718048D01*
X828906Y718550D01*
X827594D01*
X827250Y718780D01*
Y794353D01*
X958829Y794353D01*
X958829Y778125D01*
D02*
G37*
G36*
X818016Y669965D02*
X818630Y669868D01*
X818809Y669794D01*
X818945Y669657D01*
X818983Y669641D01*
X818983D01*
X818984Y669641D01*
X819083Y669600D01*
X819277Y669600D01*
X819456Y669526D01*
X824139D01*
X824318Y669600D01*
X824512D01*
X824607Y669639D01*
X824607Y669639D01*
X824607D01*
X824649Y669657D01*
X824786Y669794D01*
X824828Y669811D01*
X824980Y669842D01*
X826250Y669003D01*
Y667045D01*
X825829D01*
X824616Y666543D01*
X823687Y665614D01*
X823185Y664401D01*
Y663089D01*
X823687Y661876D01*
X824616Y660947D01*
X825829Y660445D01*
X826250D01*
Y658815D01*
X825579D01*
X824366Y658313D01*
X823437Y657384D01*
X822935Y656171D01*
Y654859D01*
X823437Y653646D01*
X824366Y652717D01*
X825579Y652215D01*
X826250D01*
Y648325D01*
X798367D01*
X797477Y648148D01*
X796723Y647644D01*
X795106Y646027D01*
X794602Y645273D01*
X794425Y644383D01*
Y632842D01*
X793952Y632369D01*
X793450Y631156D01*
Y629844D01*
X793952Y628631D01*
X794881Y627702D01*
X796094Y627200D01*
X797406D01*
X798619Y627702D01*
X799548Y628631D01*
X800050Y629844D01*
Y631156D01*
X799548Y632369D01*
X799075Y632842D01*
Y643419D01*
X799331Y643675D01*
X828730D01*
X829620Y643852D01*
X830374Y644356D01*
X833268Y647250D01*
X848723D01*
X848844Y647200D01*
X850156D01*
X850277Y647250D01*
X887056D01*
X887193Y647193D01*
X887250Y647056D01*
Y609550D01*
Y608193D01*
X885980Y608026D01*
X885111Y611269D01*
X883280Y614440D01*
X880690Y617030D01*
X877519Y618861D01*
X873981Y619809D01*
X870319D01*
X866781Y618861D01*
X863610Y617030D01*
X861020Y614440D01*
X859189Y611269D01*
X858241Y607731D01*
Y604069D01*
X859189Y600531D01*
X861020Y597360D01*
X863610Y594770D01*
X866781Y592939D01*
X870319Y591991D01*
X873981D01*
X877519Y592939D01*
X880690Y594770D01*
X883280Y597360D01*
X885111Y600531D01*
X885980Y603774D01*
X887250Y603607D01*
Y601950D01*
Y558709D01*
X886960Y558476D01*
X885519Y558948D01*
X885111Y560469D01*
X883280Y563640D01*
X880690Y566230D01*
X877519Y568061D01*
X873981Y569009D01*
X870319D01*
X866781Y568061D01*
X863610Y566230D01*
X861020Y563640D01*
X859189Y560469D01*
X858241Y556931D01*
Y553269D01*
X859189Y549731D01*
X861020Y546560D01*
X863610Y543970D01*
X866781Y542139D01*
X870319Y541191D01*
X873981D01*
X877519Y542139D01*
X880690Y543970D01*
X883280Y546560D01*
X885111Y549731D01*
X885519Y551252D01*
X886960Y551724D01*
X887250Y551491D01*
Y537744D01*
X851740D01*
X850999Y537597D01*
X849189Y536847D01*
X849189Y536847D01*
X848561Y536427D01*
X848141Y535799D01*
X848141Y535799D01*
X847391Y533989D01*
X847391Y533989D01*
X847244Y533248D01*
X847244Y517719D01*
X846949Y517006D01*
X846237Y516712D01*
X830807Y516711D01*
X830095Y517006D01*
X829800Y517719D01*
X829799Y530437D01*
X829762Y530627D01*
X829761Y530821D01*
X829343Y532893D01*
X829342Y532894D01*
Y532895D01*
X829198Y533240D01*
X829052Y533590D01*
X829051Y533591D01*
X829050Y533592D01*
X827909Y535285D01*
X827646Y535545D01*
X827386Y535808D01*
X825694Y536949D01*
X825693Y536949D01*
X825692Y536950D01*
X825341Y537097D01*
X824996Y537241D01*
X824995D01*
X824994Y537242D01*
X822922Y537660D01*
X822919D01*
X822916Y537661D01*
X822544D01*
X822166Y537662D01*
X822164Y537661D01*
X822161D01*
X820123Y537256D01*
X819425Y536967D01*
X817698Y535813D01*
X817163Y535278D01*
X816009Y533551D01*
X815720Y532853D01*
X815315Y530815D01*
Y530625D01*
X815277Y530437D01*
X815277Y506831D01*
X814982Y506119D01*
X814270Y505824D01*
X788258Y505824D01*
X787539Y506119D01*
X787243Y506832D01*
X787243Y522474D01*
X787095Y523216D01*
X786319Y525090D01*
X786319Y525090D01*
X785899Y525718D01*
X785270Y526138D01*
X783396Y526915D01*
X783027Y526988D01*
X782661Y527062D01*
X782658Y527061D01*
X782655Y527062D01*
X782280Y526987D01*
X781919Y526917D01*
X781914Y526914D01*
X781914Y526914D01*
X781913Y526914D01*
X780038Y526145D01*
X780036Y526143D01*
X780034Y526143D01*
X779717Y525932D01*
X779408Y525727D01*
X779407Y525725D01*
X779405Y525724D01*
X779200Y525418D01*
X778986Y525100D01*
X778986Y525098D01*
X778984Y525096D01*
X778204Y523218D01*
X778204Y523217D01*
X778203Y523216D01*
X778129Y522843D01*
X778056Y522476D01*
X778056Y522475D01*
X778056Y522474D01*
X778056Y506795D01*
X777761Y506056D01*
X777044Y505755D01*
X724454D01*
X723742Y506050D01*
X723447Y506762D01*
X723447Y532985D01*
X723377Y533336D01*
X723316Y533687D01*
X722538Y535686D01*
X722515Y535723D01*
X722506Y535765D01*
X722313Y536040D01*
X722132Y536324D01*
X722097Y536349D01*
X722072Y536384D01*
X721789Y536564D01*
X721513Y536757D01*
X721471Y536767D01*
X721435Y536790D01*
X719436Y537567D01*
X719083Y537629D01*
X718731Y537699D01*
X665618Y537630D01*
X512962Y537630D01*
Y669526D01*
X720932D01*
X721069Y669583D01*
X721069Y669583D01*
X721112Y669600D01*
X721305D01*
X721442Y669657D01*
X721579Y669794D01*
X721758Y669868D01*
X722920Y669370D01*
X723240Y669185D01*
X725349Y668620D01*
X727531D01*
X729640Y669185D01*
X729960Y669370D01*
X731122Y669868D01*
X731301Y669794D01*
X731438Y669657D01*
X731475Y669641D01*
X731475D01*
X731475Y669641D01*
X731575Y669600D01*
X731769Y669600D01*
X731948Y669526D01*
X743870D01*
X744603Y668256D01*
X744115Y667410D01*
X743550Y665301D01*
Y663119D01*
X744115Y661010D01*
X745206Y659120D01*
X746750Y657576D01*
X748640Y656485D01*
X750749Y655920D01*
X752931D01*
X755040Y656485D01*
X756930Y657576D01*
X758474Y659120D01*
X759565Y661010D01*
X759930Y662370D01*
X759970Y662521D01*
X761240Y662354D01*
X761240Y662144D01*
Y661674D01*
X761742Y660461D01*
X761893Y660310D01*
X762625Y659480D01*
X761893Y658650D01*
X761742Y658499D01*
X761240Y657286D01*
Y655974D01*
X761742Y654761D01*
X762671Y653832D01*
X763884Y653330D01*
X765196D01*
X766409Y653832D01*
X767338Y654761D01*
X767840Y655974D01*
Y657286D01*
X767338Y658499D01*
X767187Y658650D01*
X766456Y659480D01*
X767187Y660310D01*
X767338Y660461D01*
X767840Y661674D01*
Y662986D01*
X767338Y664199D01*
X766409Y665128D01*
X765196Y665630D01*
X763884D01*
X762671Y665128D01*
X761742Y664199D01*
X761482Y663570D01*
X761400Y663373D01*
X760130Y663625D01*
X760130Y663779D01*
Y665301D01*
X759565Y667410D01*
X759077Y668256D01*
X759810Y669526D01*
X806389D01*
X806526Y669583D01*
X806526Y669583D01*
X806568Y669600D01*
X806762Y669600D01*
X806814Y669622D01*
X806814Y669622D01*
X806815D01*
X806899Y669657D01*
X807036Y669794D01*
X807215Y669868D01*
X807829Y669965D01*
X809141D01*
X809755Y669868D01*
X809934Y669794D01*
X810070Y669657D01*
X810108Y669641D01*
X810108D01*
X810108Y669641D01*
X810208Y669600D01*
X810402Y669600D01*
X810581Y669526D01*
X815264D01*
X815443Y669600D01*
X815637Y669600D01*
X815774Y669657D01*
X815911Y669794D01*
X815953Y669811D01*
X816704Y669965D01*
X818016D01*
D02*
G37*
G36*
X918810Y710864D02*
X921048Y709937D01*
X923450Y709621D01*
X943450D01*
X945852Y709937D01*
X948090Y710864D01*
X949245Y711750D01*
X958829D01*
X958829Y511068D01*
X949879D01*
X933000Y511068D01*
Y592621D01*
X943450D01*
X945852Y592937D01*
X948090Y593864D01*
X950012Y595339D01*
X951486Y597260D01*
X952413Y599498D01*
X952729Y601900D01*
X952413Y604302D01*
X951486Y606540D01*
X950012Y608461D01*
X948090Y609936D01*
X945852Y610863D01*
X943450Y611179D01*
X933000D01*
Y630750D01*
X934391D01*
X936210Y631237D01*
X937840Y632179D01*
X939171Y633510D01*
X940113Y635140D01*
X940600Y636959D01*
Y638841D01*
X940113Y640660D01*
X939171Y642290D01*
X937840Y643621D01*
X936210Y644563D01*
X934391Y645050D01*
X933000D01*
Y646842D01*
X933869Y647202D01*
X934798Y648131D01*
X935300Y649344D01*
Y650656D01*
X934798Y651869D01*
X934260Y652406D01*
X934002Y653208D01*
X934260Y654010D01*
X934798Y654547D01*
X935300Y655760D01*
Y657073D01*
X934798Y658286D01*
X934260Y658823D01*
X934002Y659625D01*
X934260Y660427D01*
X934798Y660964D01*
X935300Y662177D01*
Y663490D01*
X934798Y664703D01*
X934260Y665240D01*
X934002Y666042D01*
X934260Y666843D01*
X934798Y667381D01*
X935300Y668594D01*
Y669906D01*
X934798Y671119D01*
X933869Y672048D01*
X933000Y672408D01*
Y675750D01*
X934391D01*
X936210Y676237D01*
X937840Y677179D01*
X939171Y678510D01*
X940113Y680140D01*
X940600Y681959D01*
Y683841D01*
X940113Y685660D01*
X939171Y687290D01*
X937840Y688621D01*
X936210Y689563D01*
X934391Y690050D01*
X932509D01*
X930690Y689563D01*
X929060Y688621D01*
X927729Y687290D01*
X926787Y685660D01*
X926300Y683841D01*
Y682900D01*
X856177D01*
X855913Y683167D01*
X855436Y684170D01*
X855650Y684686D01*
Y685641D01*
X855285Y686523D01*
X854610Y687198D01*
X853727Y687563D01*
X852773D01*
X851890Y687198D01*
X851215Y686523D01*
X850850Y685641D01*
Y684686D01*
X851061Y684175D01*
X850483Y683108D01*
X849250Y683376D01*
Y712000D01*
X917330D01*
X918810Y710864D01*
D02*
G37*
%LPC*%
G36*
X800406Y788800D02*
X799094D01*
X797881Y788298D01*
X796952Y787369D01*
X796450Y786156D01*
Y784844D01*
X796952Y783631D01*
X797881Y782702D01*
X799094Y782200D01*
X800406D01*
X801619Y782702D01*
X802548Y783631D01*
X803050Y784844D01*
Y786156D01*
X802548Y787369D01*
X801619Y788298D01*
X800406Y788800D01*
D02*
G37*
G36*
X712406Y783050D02*
X711094D01*
X709881Y782548D01*
X708952Y781619D01*
X708450Y780406D01*
Y779094D01*
X708952Y777881D01*
X709881Y776952D01*
X711094Y776450D01*
X712406D01*
X713619Y776952D01*
X714548Y777881D01*
X715050Y779094D01*
Y780406D01*
X714548Y781619D01*
X713619Y782548D01*
X712406Y783050D01*
D02*
G37*
G36*
X773656Y775550D02*
X772344D01*
X771131Y775048D01*
X770202Y774119D01*
X769700Y772906D01*
Y771594D01*
X770202Y770381D01*
X771131Y769452D01*
X772344Y768950D01*
X773656D01*
X774869Y769452D01*
X775798Y770381D01*
X776300Y771594D01*
Y772906D01*
X775798Y774119D01*
X774869Y775048D01*
X773656Y775550D01*
D02*
G37*
G36*
X782653Y774654D02*
X781340D01*
X780127Y774152D01*
X779199Y773224D01*
X778696Y772011D01*
Y770698D01*
X779199Y769485D01*
X780127Y768557D01*
X781340Y768054D01*
X782653D01*
X783866Y768557D01*
X784794Y769485D01*
X785296Y770698D01*
Y772011D01*
X784794Y773224D01*
X783866Y774152D01*
X782653Y774654D01*
D02*
G37*
G36*
X690001Y768654D02*
X688688D01*
X687475Y768151D01*
X686547Y767223D01*
X686045Y766010D01*
Y764697D01*
X686547Y763484D01*
X687475Y762556D01*
X688688Y762054D01*
X690001D01*
X691214Y762556D01*
X692142Y763484D01*
X692645Y764697D01*
Y766010D01*
X692142Y767223D01*
X691214Y768151D01*
X690001Y768654D01*
D02*
G37*
G36*
X818656Y766550D02*
X817344D01*
X816131Y766048D01*
X815202Y765119D01*
X814700Y763906D01*
Y762594D01*
X815202Y761381D01*
X816131Y760452D01*
X817344Y759950D01*
X818656D01*
X819869Y760452D01*
X820798Y761381D01*
X821300Y762594D01*
Y763906D01*
X820798Y765119D01*
X819869Y766048D01*
X818656Y766550D01*
D02*
G37*
G36*
X638906Y764300D02*
X637594D01*
X636381Y763798D01*
X635452Y762869D01*
X634950Y761656D01*
Y760344D01*
X635452Y759131D01*
X636381Y758202D01*
X637594Y757700D01*
X638906D01*
X640119Y758202D01*
X641048Y759131D01*
X641550Y760344D01*
Y761656D01*
X641048Y762869D01*
X640119Y763798D01*
X638906Y764300D01*
D02*
G37*
G36*
X711405Y756837D02*
X710092D01*
X708879Y756335D01*
X707951Y755407D01*
X707448Y754194D01*
Y752881D01*
X707951Y751668D01*
X708879Y750740D01*
X710092Y750237D01*
X711405D01*
X712617Y750740D01*
X713546Y751668D01*
X714048Y752881D01*
Y754194D01*
X713546Y755407D01*
X712617Y756335D01*
X711405Y756837D01*
D02*
G37*
G36*
X753406Y756570D02*
X752094D01*
X750881Y756068D01*
X749952Y755139D01*
X749450Y753926D01*
Y752614D01*
X749952Y751401D01*
X750881Y750472D01*
X752094Y749970D01*
X753406D01*
X754619Y750472D01*
X755548Y751401D01*
X756050Y752614D01*
Y753926D01*
X755548Y755139D01*
X754619Y756068D01*
X753406Y756570D01*
D02*
G37*
G36*
X799406Y746800D02*
X798094D01*
X796881Y746298D01*
X795952Y745369D01*
X795450Y744156D01*
Y742844D01*
X795952Y741631D01*
X796881Y740702D01*
X798094Y740200D01*
X799406D01*
X800619Y740702D01*
X801548Y741631D01*
X802050Y742844D01*
Y744156D01*
X801548Y745369D01*
X800619Y746298D01*
X799406Y746800D01*
D02*
G37*
G36*
X711906Y741550D02*
X710594D01*
X709381Y741048D01*
X708452Y740119D01*
X707950Y738906D01*
Y737594D01*
X708452Y736381D01*
X709381Y735452D01*
X710594Y734950D01*
X711906D01*
X713119Y735452D01*
X714048Y736381D01*
X714550Y737594D01*
Y738906D01*
X714048Y740119D01*
X713119Y741048D01*
X711906Y741550D01*
D02*
G37*
G36*
X694656Y739800D02*
X693344D01*
X692131Y739298D01*
X691202Y738369D01*
X690700Y737156D01*
Y735844D01*
X691202Y734631D01*
X692131Y733702D01*
X693344Y733200D01*
X694656D01*
X695869Y733702D01*
X696798Y734631D01*
X697300Y735844D01*
Y737156D01*
X696798Y738369D01*
X695869Y739298D01*
X694656Y739800D01*
D02*
G37*
G36*
X667656Y734300D02*
X666344D01*
X665131Y733798D01*
X664202Y732869D01*
X663700Y731656D01*
Y730344D01*
X664202Y729131D01*
X665131Y728202D01*
X666344Y727700D01*
X667656D01*
X668869Y728202D01*
X669798Y729131D01*
X670300Y730344D01*
Y731656D01*
X669798Y732869D01*
X668869Y733798D01*
X667656Y734300D01*
D02*
G37*
G36*
X818906Y733300D02*
X817594D01*
X816381Y732798D01*
X815452Y731869D01*
X814950Y730656D01*
Y729344D01*
X815452Y728131D01*
X816381Y727202D01*
X817594Y726700D01*
X818906D01*
X820119Y727202D01*
X821048Y728131D01*
X821550Y729344D01*
Y730656D01*
X821048Y731869D01*
X820119Y732798D01*
X818906Y733300D01*
D02*
G37*
G36*
X782156Y727550D02*
X780844D01*
X779631Y727048D01*
X778702Y726119D01*
X778200Y724906D01*
Y723594D01*
X778702Y722381D01*
X779631Y721452D01*
X780844Y720950D01*
X782156D01*
X783369Y721452D01*
X784298Y722381D01*
X784800Y723594D01*
Y724906D01*
X784298Y726119D01*
X783369Y727048D01*
X782156Y727550D01*
D02*
G37*
G36*
X650906Y727300D02*
X649594D01*
X648381Y726798D01*
X647452Y725869D01*
X646950Y724656D01*
Y723344D01*
X647452Y722131D01*
X648381Y721202D01*
X649594Y720700D01*
X650906D01*
X652119Y721202D01*
X653048Y722131D01*
X653550Y723344D01*
Y724656D01*
X653048Y725869D01*
X652119Y726798D01*
X650906Y727300D01*
D02*
G37*
G36*
X759846Y721150D02*
X758891D01*
X758009Y720785D01*
X757334Y720109D01*
X756969Y719227D01*
Y718273D01*
X757334Y717391D01*
X758009Y716715D01*
X758891Y716350D01*
X759846D01*
X760728Y716715D01*
X761403Y717391D01*
X761769Y718273D01*
Y719227D01*
X761403Y720109D01*
X760728Y720785D01*
X759846Y721150D01*
D02*
G37*
G36*
X794906Y721300D02*
X793594D01*
X792381Y720798D01*
X791452Y719869D01*
X790950Y718656D01*
Y717344D01*
X791452Y716131D01*
X792381Y715202D01*
X793594Y714700D01*
X794906D01*
X796119Y715202D01*
X797048Y716131D01*
X797550Y717344D01*
Y718656D01*
X797048Y719869D01*
X796119Y720798D01*
X794906Y721300D01*
D02*
G37*
G36*
X722406Y719800D02*
X721094D01*
X719881Y719298D01*
X718952Y718369D01*
X718450Y717156D01*
Y715844D01*
X718952Y714631D01*
X719881Y713702D01*
X721094Y713200D01*
X722406D01*
X723619Y713702D01*
X724548Y714631D01*
X725050Y715844D01*
Y717156D01*
X724548Y718369D01*
X723619Y719298D01*
X722406Y719800D01*
D02*
G37*
G36*
X813906Y718550D02*
X812594D01*
X811381Y718048D01*
X810452Y717119D01*
X809950Y715906D01*
Y714594D01*
X810452Y713381D01*
X811381Y712452D01*
X812594Y711950D01*
X813906D01*
X815119Y712452D01*
X816048Y713381D01*
X816550Y714594D01*
Y715906D01*
X816048Y717119D01*
X815119Y718048D01*
X813906Y718550D01*
D02*
G37*
G36*
X772406Y714300D02*
X771094D01*
X769881Y713798D01*
X768952Y712869D01*
X768450Y711656D01*
Y710344D01*
X768952Y709131D01*
X769881Y708202D01*
X771094Y707700D01*
X772406D01*
X773619Y708202D01*
X774548Y709131D01*
X775050Y710344D01*
Y711656D01*
X774548Y712869D01*
X773619Y713798D01*
X772406Y714300D01*
D02*
G37*
G36*
X819009Y706904D02*
X817696D01*
X816483Y706402D01*
X815555Y705474D01*
X815052Y704261D01*
Y702948D01*
X815555Y701735D01*
X816483Y700807D01*
X817696Y700304D01*
X819009D01*
X820222Y700807D01*
X821150Y701735D01*
X821652Y702948D01*
Y704261D01*
X821150Y705474D01*
X820222Y706402D01*
X819009Y706904D01*
D02*
G37*
G36*
X695188Y723185D02*
X691692D01*
X688316Y722280D01*
X685289Y720533D01*
X682817Y718061D01*
X681070Y715034D01*
X680165Y711658D01*
Y708162D01*
X681070Y704786D01*
X682817Y701759D01*
X685289Y699287D01*
X688316Y697540D01*
X691692Y696635D01*
X695188D01*
X698564Y697540D01*
X701591Y699287D01*
X704063Y701759D01*
X705810Y704786D01*
X706715Y708162D01*
Y711658D01*
X705810Y715034D01*
X704063Y718061D01*
X701591Y720533D01*
X698564Y722280D01*
X695188Y723185D01*
D02*
G37*
G36*
X802176Y697900D02*
X801221D01*
X800339Y697535D01*
X799664Y696860D01*
X799299Y695977D01*
Y695023D01*
X799664Y694140D01*
X800339Y693465D01*
X801221Y693100D01*
X802176D01*
X803058Y693465D01*
X803733Y694140D01*
X804099Y695023D01*
Y695977D01*
X803733Y696860D01*
X803058Y697535D01*
X802176Y697900D01*
D02*
G37*
G36*
X770642Y699350D02*
X769329D01*
X768116Y698848D01*
X767188Y697919D01*
X766686Y696706D01*
Y695394D01*
X767188Y694181D01*
X768116Y693252D01*
X769329Y692750D01*
X770642D01*
X771855Y693252D01*
X772783Y694181D01*
X773286Y695394D01*
Y696706D01*
X772783Y697919D01*
X771855Y698848D01*
X770642Y699350D01*
D02*
G37*
G36*
X795346Y697400D02*
X794391D01*
X793509Y697035D01*
X792834Y696359D01*
X792469Y695477D01*
Y694523D01*
X792834Y693641D01*
X793509Y692965D01*
X794391Y692600D01*
X795346D01*
X796228Y692965D01*
X796903Y693641D01*
X797269Y694523D01*
Y695477D01*
X796903Y696359D01*
X796228Y697035D01*
X795346Y697400D01*
D02*
G37*
G36*
X638745Y709410D02*
X636335D01*
X634008Y708786D01*
X631922Y707582D01*
X630218Y705878D01*
X629014Y703792D01*
X628390Y701465D01*
Y699055D01*
X629014Y696728D01*
X630218Y694642D01*
X631922Y692938D01*
X634008Y691734D01*
X636335Y691110D01*
X638745D01*
X641072Y691734D01*
X643158Y692938D01*
X644862Y694642D01*
X646066Y696728D01*
X646690Y699055D01*
Y701465D01*
X646066Y703792D01*
X644862Y705878D01*
X643158Y707582D01*
X641072Y708786D01*
X638745Y709410D01*
D02*
G37*
G36*
X618445D02*
X616035D01*
X613708Y708786D01*
X611622Y707582D01*
X609918Y705878D01*
X608714Y703792D01*
X608090Y701465D01*
Y699055D01*
X608714Y696728D01*
X609918Y694642D01*
X611622Y692938D01*
X613708Y691734D01*
X616035Y691110D01*
X618445D01*
X620772Y691734D01*
X622858Y692938D01*
X624562Y694642D01*
X625766Y696728D01*
X626390Y699055D01*
Y701465D01*
X625766Y703792D01*
X624562Y705878D01*
X622858Y707582D01*
X620772Y708786D01*
X618445Y709410D01*
D02*
G37*
G36*
X804464Y693519D02*
X803510D01*
X802628Y693153D01*
X801952Y692478D01*
X801587Y691596D01*
Y690641D01*
X801952Y689759D01*
X802628Y689084D01*
X803510Y688719D01*
X804464D01*
X805347Y689084D01*
X806022Y689759D01*
X806387Y690641D01*
Y691596D01*
X806022Y692478D01*
X805347Y693153D01*
X804464Y693519D01*
D02*
G37*
G36*
X772906Y690550D02*
X771594D01*
X770381Y690048D01*
X769452Y689119D01*
X768950Y687906D01*
Y686594D01*
X769452Y685381D01*
X770381Y684452D01*
X771594Y683950D01*
X772906D01*
X774119Y684452D01*
X775048Y685381D01*
X775550Y686594D01*
Y687906D01*
X775048Y689119D01*
X774119Y690048D01*
X772906Y690550D01*
D02*
G37*
G36*
X760130Y697900D02*
X743550D01*
Y681320D01*
X760130D01*
Y697900D01*
D02*
G37*
G36*
X805977Y683400D02*
X805023D01*
X804140Y683035D01*
X803465Y682359D01*
X803100Y681477D01*
Y680523D01*
X803465Y679641D01*
X804140Y678965D01*
X805023Y678600D01*
X805977D01*
X806860Y678965D01*
X807535Y679641D01*
X807900Y680523D01*
Y681477D01*
X807535Y682359D01*
X806860Y683035D01*
X805977Y683400D01*
D02*
G37*
G36*
X766466Y685630D02*
X765154D01*
X763941Y685127D01*
X763012Y684199D01*
X762510Y682986D01*
Y681674D01*
X763012Y680461D01*
X763941Y679532D01*
X764067Y679480D01*
X763941Y679427D01*
X763012Y678499D01*
X762510Y677286D01*
Y675974D01*
X763012Y674761D01*
X763941Y673832D01*
X765154Y673330D01*
X766466D01*
X767679Y673832D01*
X768608Y674761D01*
X769110Y675974D01*
Y677286D01*
X768608Y678499D01*
X767679Y679427D01*
X767553Y679480D01*
X767679Y679532D01*
X768608Y680461D01*
X769110Y681674D01*
Y682986D01*
X768608Y684199D01*
X767679Y685127D01*
X766466Y685630D01*
D02*
G37*
G36*
X664629Y706760D02*
X661251D01*
X657937Y706101D01*
X654816Y704808D01*
X652008Y702931D01*
X649619Y700543D01*
X647742Y697734D01*
X646449Y694613D01*
X645790Y691299D01*
Y687921D01*
X646449Y684607D01*
X647742Y681486D01*
X649619Y678678D01*
X652008Y676289D01*
X654816Y674412D01*
X657937Y673119D01*
X661251Y672460D01*
X664629D01*
X667943Y673119D01*
X671064Y674412D01*
X673873Y676289D01*
X676261Y678678D01*
X678138Y681486D01*
X679431Y684607D01*
X680090Y687921D01*
Y691299D01*
X679431Y694613D01*
X678138Y697734D01*
X676261Y700543D01*
X673873Y702931D01*
X671064Y704808D01*
X667943Y706101D01*
X664629Y706760D01*
D02*
G37*
G36*
X945906Y790800D02*
X944594D01*
X943381Y790298D01*
X942452Y789369D01*
X941950Y788156D01*
Y786844D01*
X942452Y785631D01*
X943381Y784702D01*
X944594Y784200D01*
X945906D01*
X947119Y784702D01*
X948048Y785631D01*
X948550Y786844D01*
Y788156D01*
X948048Y789369D01*
X947119Y790298D01*
X945906Y790800D01*
D02*
G37*
G36*
X891656Y787050D02*
X890344D01*
X889131Y786548D01*
X888202Y785619D01*
X887700Y784406D01*
Y783094D01*
X888202Y781881D01*
X889131Y780952D01*
X890344Y780450D01*
X891656D01*
X892869Y780952D01*
X893798Y781881D01*
X894300Y783094D01*
Y784406D01*
X893798Y785619D01*
X892869Y786548D01*
X891656Y787050D01*
D02*
G37*
G36*
X938906Y781050D02*
X937594D01*
X936381Y780548D01*
X935452Y779619D01*
X934950Y778406D01*
Y777094D01*
X935452Y775881D01*
X936381Y774952D01*
X937594Y774450D01*
X938906D01*
X940119Y774952D01*
X941048Y775881D01*
X941550Y777094D01*
Y778406D01*
X941048Y779619D01*
X940119Y780548D01*
X938906Y781050D01*
D02*
G37*
G36*
X902156Y774800D02*
X900844D01*
X899631Y774298D01*
X898702Y773369D01*
X898200Y772156D01*
Y770844D01*
X898702Y769631D01*
X899631Y768702D01*
X900844Y768200D01*
X902156D01*
X903369Y768702D01*
X904298Y769631D01*
X904800Y770844D01*
Y772156D01*
X904298Y773369D01*
X903369Y774298D01*
X902156Y774800D01*
D02*
G37*
G36*
X899477Y741650D02*
X898523D01*
X897641Y741285D01*
X896965Y740610D01*
X896600Y739727D01*
Y738773D01*
X896965Y737890D01*
X897641Y737215D01*
X898523Y736850D01*
X899477D01*
X900359Y737215D01*
X901035Y737890D01*
X901400Y738773D01*
Y739727D01*
X901035Y740610D01*
X900359Y741285D01*
X899477Y741650D01*
D02*
G37*
G36*
X909977Y730900D02*
X909023D01*
X908140Y730535D01*
X907830Y730224D01*
X907149Y729939D01*
X906221Y730173D01*
X905984Y730410D01*
X905102Y730775D01*
X904148D01*
X903266Y730410D01*
X902676Y729820D01*
X902030Y729788D01*
X901285Y729859D01*
X900610Y730535D01*
X899727Y730900D01*
X898773D01*
X897890Y730535D01*
X897215Y729859D01*
X896850Y728977D01*
Y728023D01*
X897215Y727141D01*
X897890Y726465D01*
X898773Y726100D01*
X899727D01*
X900610Y726465D01*
X901199Y727055D01*
X901845Y727087D01*
X902590Y727016D01*
X903266Y726340D01*
X904148Y725975D01*
X905102D01*
X905984Y726340D01*
X906295Y726651D01*
X906976Y726936D01*
X907904Y726702D01*
X908140Y726465D01*
X909023Y726100D01*
X909977D01*
X910860Y726465D01*
X911535Y727141D01*
X911900Y728023D01*
Y728977D01*
X911535Y729859D01*
X910860Y730535D01*
X909977Y730900D01*
D02*
G37*
G36*
X885406Y730300D02*
X884094D01*
X882881Y729798D01*
X881952Y728869D01*
X881450Y727656D01*
Y726344D01*
X881952Y725131D01*
X882881Y724202D01*
X884094Y723700D01*
X885406D01*
X886619Y724202D01*
X887548Y725131D01*
X888050Y726344D01*
Y727656D01*
X887548Y728869D01*
X886619Y729798D01*
X885406Y730300D01*
D02*
G37*
G36*
X869776Y724760D02*
X868424D01*
X867174Y724242D01*
X866218Y723286D01*
X865700Y722036D01*
Y720684D01*
X866218Y719434D01*
X867174Y718478D01*
X868424Y717960D01*
X869776D01*
X871026Y718478D01*
X871982Y719434D01*
X872500Y720684D01*
Y722036D01*
X871982Y723286D01*
X871026Y724242D01*
X869776Y724760D01*
D02*
G37*
G36*
X858776D02*
X857424D01*
X856174Y724242D01*
X855218Y723286D01*
X854700Y722036D01*
Y720684D01*
X855218Y719434D01*
X856174Y718478D01*
X857424Y717960D01*
X858776D01*
X860026Y718478D01*
X860982Y719434D01*
X861500Y720684D01*
Y722036D01*
X860982Y723286D01*
X860026Y724242D01*
X858776Y724760D01*
D02*
G37*
G36*
X842227Y691150D02*
X841273D01*
X840390Y690785D01*
X839715Y690109D01*
X839350Y689227D01*
Y688273D01*
X839715Y687391D01*
X840390Y686715D01*
X841273Y686350D01*
X842227D01*
X843110Y686715D01*
X843785Y687391D01*
X844150Y688273D01*
Y689227D01*
X843785Y690109D01*
X843110Y690785D01*
X842227Y691150D01*
D02*
G37*
G36*
X852457Y668018D02*
X851502D01*
X850620Y667653D01*
X850510Y667543D01*
X849806Y667049D01*
X848859Y667535D01*
X847977Y667900D01*
X847023D01*
X846141Y667535D01*
X845465Y666860D01*
X845100Y665977D01*
Y665023D01*
X845465Y664140D01*
X846141Y663465D01*
X847023Y663100D01*
X847977D01*
X848859Y663465D01*
X848969Y663575D01*
X849674Y664069D01*
X850620Y663584D01*
X851502Y663218D01*
X852457D01*
X853339Y663584D01*
X854014Y664259D01*
X854380Y665141D01*
Y666096D01*
X854014Y666978D01*
X853339Y667653D01*
X852457Y668018D01*
D02*
G37*
G36*
X852227Y659900D02*
X851273D01*
X850390Y659535D01*
X849715Y658859D01*
X849350Y657977D01*
Y657023D01*
X849715Y656141D01*
X850390Y655465D01*
X851273Y655100D01*
X852227D01*
X853110Y655465D01*
X853785Y656141D01*
X854150Y657023D01*
Y657977D01*
X853785Y658859D01*
X853110Y659535D01*
X852227Y659900D01*
D02*
G37*
G36*
X924156Y633550D02*
X922844D01*
X921631Y633048D01*
X920702Y632119D01*
X920200Y630906D01*
Y629594D01*
X920702Y628381D01*
X921631Y627452D01*
X922844Y626950D01*
X924156D01*
X925369Y627452D01*
X926298Y628381D01*
X926800Y629594D01*
Y630906D01*
X926298Y632119D01*
X925369Y633048D01*
X924156Y633550D01*
D02*
G37*
G36*
X910016Y583690D02*
X908704D01*
X907491Y583188D01*
X906562Y582259D01*
X906060Y581046D01*
Y579734D01*
X906562Y578521D01*
X907491Y577592D01*
X908704Y577090D01*
X910016D01*
X911229Y577592D01*
X912158Y578521D01*
X912660Y579734D01*
Y581046D01*
X912158Y582259D01*
X911229Y583188D01*
X910016Y583690D01*
D02*
G37*
G36*
X907281Y568925D02*
X905969D01*
X904756Y568423D01*
X903827Y567494D01*
X903325Y566281D01*
Y564969D01*
X903827Y563756D01*
X904756Y562827D01*
X905969Y562325D01*
X907281D01*
X908494Y562827D01*
X909423Y563756D01*
X909925Y564969D01*
Y566281D01*
X909423Y567494D01*
X908494Y568423D01*
X907281Y568925D01*
D02*
G37*
G36*
X777656Y667800D02*
X776344D01*
X775131Y667298D01*
X774202Y666369D01*
X773700Y665156D01*
Y663844D01*
X774202Y662631D01*
X775131Y661702D01*
X776344Y661200D01*
X777656D01*
X778869Y661702D01*
X779798Y662631D01*
X780300Y663844D01*
Y665156D01*
X779798Y666369D01*
X778869Y667298D01*
X777656Y667800D01*
D02*
G37*
G36*
X818016Y667045D02*
X816704D01*
X815491Y666543D01*
X814562Y665614D01*
X814060Y664401D01*
Y663089D01*
X814562Y661876D01*
X815491Y660947D01*
X816704Y660445D01*
X818016D01*
X819229Y660947D01*
X820158Y661876D01*
X820660Y663089D01*
Y664401D01*
X820158Y665614D01*
X819229Y666543D01*
X818016Y667045D01*
D02*
G37*
G36*
X808891D02*
X807579D01*
X806366Y666543D01*
X805437Y665614D01*
X804935Y664401D01*
Y663089D01*
X805437Y661876D01*
X806366Y660947D01*
X807579Y660445D01*
X808891D01*
X810104Y660947D01*
X811033Y661876D01*
X811535Y663089D01*
Y664401D01*
X811033Y665614D01*
X810104Y666543D01*
X808891Y667045D01*
D02*
G37*
G36*
X818016Y658815D02*
X816704D01*
X815491Y658313D01*
X814562Y657384D01*
X814060Y656171D01*
Y654859D01*
X814562Y653646D01*
X815491Y652717D01*
X816704Y652215D01*
X818016D01*
X819229Y652717D01*
X820158Y653646D01*
X820660Y654859D01*
Y656171D01*
X820158Y657384D01*
X819229Y658313D01*
X818016Y658815D01*
D02*
G37*
G36*
X809141D02*
X807829D01*
X806616Y658313D01*
X805687Y657384D01*
X805185Y656171D01*
Y654859D01*
X805687Y653646D01*
X806616Y652717D01*
X807829Y652215D01*
X809141D01*
X810354Y652717D01*
X811283Y653646D01*
X811785Y654859D01*
Y656171D01*
X811283Y657384D01*
X810354Y658313D01*
X809141Y658815D01*
D02*
G37*
G36*
X778121Y653106D02*
X776808D01*
X775595Y652603D01*
X774667Y651675D01*
X774164Y650462D01*
Y649149D01*
X774667Y647936D01*
X775595Y647008D01*
X776808Y646506D01*
X778121D01*
X779334Y647008D01*
X780262Y647936D01*
X780764Y649149D01*
Y650462D01*
X780262Y651675D01*
X779334Y652603D01*
X778121Y653106D01*
D02*
G37*
G36*
X727531Y659800D02*
X725349D01*
X723240Y659235D01*
X721350Y658144D01*
X719806Y656600D01*
X718715Y654710D01*
X718150Y652601D01*
Y650419D01*
X718715Y648310D01*
X719806Y646420D01*
X721350Y644876D01*
X723240Y643785D01*
X725349Y643220D01*
X727531D01*
X729640Y643785D01*
X731530Y644876D01*
X733074Y646420D01*
X734165Y648310D01*
X734730Y650419D01*
Y652601D01*
X734165Y654710D01*
X733074Y656600D01*
X731530Y658144D01*
X729640Y659235D01*
X727531Y659800D01*
D02*
G37*
G36*
X820541Y636724D02*
X819228D01*
X818015Y636221D01*
X817087Y635293D01*
X815588Y634993D01*
X815043Y635219D01*
X813730D01*
X812518Y634716D01*
X811589Y633788D01*
X811087Y632575D01*
Y631262D01*
X811589Y630049D01*
X812518Y629121D01*
X813730Y628619D01*
X815043D01*
X816256Y629121D01*
X817185Y630049D01*
X818683Y630349D01*
X819228Y630124D01*
X820541D01*
X821754Y630626D01*
X822682Y631554D01*
X823185Y632767D01*
Y634080D01*
X822682Y635293D01*
X821754Y636221D01*
X820541Y636724D01*
D02*
G37*
G36*
X842727Y638627D02*
X841773D01*
X840891Y638261D01*
X840215Y637586D01*
X839850Y636704D01*
Y635749D01*
X840215Y634867D01*
X840891Y634192D01*
X841773Y633827D01*
X842727D01*
X843609Y634192D01*
X844285Y634867D01*
X844650Y635749D01*
Y636704D01*
X844285Y637586D01*
X843609Y638261D01*
X842727Y638627D01*
D02*
G37*
G36*
X836482D02*
X835528D01*
X834645Y638261D01*
X833970Y637586D01*
X833605Y636704D01*
Y635749D01*
X833970Y634867D01*
X834645Y634192D01*
X835528Y633827D01*
X836482D01*
X837365Y634192D01*
X838040Y634867D01*
X838405Y635749D01*
Y636704D01*
X838040Y637586D01*
X837365Y638261D01*
X836482Y638627D01*
D02*
G37*
G36*
X752931Y647100D02*
X750749D01*
X748640Y646535D01*
X746750Y645444D01*
X745206Y643900D01*
X744115Y642010D01*
X743550Y639901D01*
Y637719D01*
X744115Y635610D01*
X745206Y633720D01*
X746750Y632176D01*
X748640Y631085D01*
X750749Y630520D01*
X752931D01*
X755040Y631085D01*
X756930Y632176D01*
X758474Y633720D01*
X759565Y635610D01*
X760130Y637719D01*
Y639901D01*
X759565Y642010D01*
X758474Y643900D01*
X756930Y645444D01*
X755040Y646535D01*
X752931Y647100D01*
D02*
G37*
G36*
X862462Y632295D02*
X861149D01*
X859936Y631792D01*
X859008Y630864D01*
X858505Y629651D01*
Y628338D01*
X859008Y627125D01*
X859936Y626197D01*
X861149Y625695D01*
X862462Y625695D01*
X862649Y624521D01*
Y624424D01*
X863151Y623211D01*
X864079Y622283D01*
X865292Y621780D01*
X866605D01*
X867818Y622283D01*
X868746Y623211D01*
X869249Y624424D01*
Y625737D01*
X868746Y626950D01*
X867818Y627878D01*
X866605Y628380D01*
X865292Y628380D01*
X865105Y629554D01*
Y629651D01*
X864603Y630864D01*
X863675Y631792D01*
X862462Y632295D01*
D02*
G37*
G36*
X727531Y634400D02*
X725349D01*
X723240Y633835D01*
X721350Y632744D01*
X719806Y631200D01*
X718715Y629310D01*
X718150Y627201D01*
Y625019D01*
X718715Y622910D01*
X719806Y621020D01*
X721350Y619476D01*
X723240Y618385D01*
X725349Y617820D01*
X727531D01*
X729640Y618385D01*
X731530Y619476D01*
X733074Y621020D01*
X734165Y622910D01*
X734730Y625019D01*
Y627201D01*
X734165Y629310D01*
X733074Y631200D01*
X731530Y632744D01*
X729640Y633835D01*
X727531Y634400D01*
D02*
G37*
G36*
X752931Y621700D02*
X750749D01*
X748640Y621135D01*
X746750Y620044D01*
X745206Y618500D01*
X744115Y616610D01*
X743550Y614501D01*
Y612319D01*
X744115Y610210D01*
X745206Y608320D01*
X746750Y606776D01*
X748640Y605685D01*
X750749Y605120D01*
X752931D01*
X755040Y605685D01*
X756930Y606776D01*
X758474Y608320D01*
X759565Y610210D01*
X760130Y612319D01*
Y614501D01*
X759565Y616610D01*
X758474Y618500D01*
X756930Y620044D01*
X755040Y621135D01*
X752931Y621700D01*
D02*
G37*
G36*
X727531Y609000D02*
X725349D01*
X723240Y608435D01*
X721350Y607344D01*
X719806Y605800D01*
X718715Y603910D01*
X718150Y601801D01*
Y599619D01*
X718715Y597510D01*
X719806Y595620D01*
X721350Y594076D01*
X723240Y592985D01*
X725349Y592420D01*
X727531D01*
X729640Y592985D01*
X731530Y594076D01*
X733074Y595620D01*
X734165Y597510D01*
X734730Y599619D01*
Y601801D01*
X734165Y603910D01*
X733074Y605800D01*
X731530Y607344D01*
X729640Y608435D01*
X727531Y609000D01*
D02*
G37*
G36*
X823181Y619809D02*
X819519D01*
X815981Y618861D01*
X812810Y617030D01*
X810220Y614440D01*
X808389Y611269D01*
X807441Y607731D01*
Y604069D01*
X808389Y600531D01*
X810220Y597360D01*
X812810Y594770D01*
X815981Y592939D01*
X819519Y591991D01*
X823181D01*
X826719Y592939D01*
X829890Y594770D01*
X832480Y597360D01*
X834311Y600531D01*
X835259Y604069D01*
Y607731D01*
X834311Y611269D01*
X832480Y614440D01*
X829890Y617030D01*
X826719Y618861D01*
X823181Y619809D01*
D02*
G37*
G36*
X752931Y596300D02*
X750749D01*
X748640Y595735D01*
X746750Y594644D01*
X745206Y593100D01*
X744115Y591210D01*
X743550Y589101D01*
Y586919D01*
X744115Y584810D01*
X745206Y582920D01*
X746750Y581376D01*
X748640Y580285D01*
X750749Y579720D01*
X752931D01*
X755040Y580285D01*
X756930Y581376D01*
X758474Y582920D01*
X759565Y584810D01*
X760130Y586919D01*
Y589101D01*
X759565Y591210D01*
X758474Y593100D01*
X756930Y594644D01*
X755040Y595735D01*
X752931Y596300D01*
D02*
G37*
G36*
X664629Y592460D02*
X661251D01*
X657937Y591801D01*
X654816Y590508D01*
X652008Y588631D01*
X649619Y586242D01*
X647742Y583434D01*
X646449Y580312D01*
X645790Y576999D01*
Y573621D01*
X646449Y570308D01*
X646799Y569464D01*
X645657Y568901D01*
X644862Y570278D01*
X643158Y571982D01*
X641072Y573186D01*
X638745Y573810D01*
X636335D01*
X634008Y573186D01*
X631922Y571982D01*
X630218Y570278D01*
X629014Y568192D01*
X628390Y565865D01*
Y563455D01*
X629014Y561128D01*
X630218Y559042D01*
X631922Y557338D01*
X634008Y556134D01*
X636335Y555510D01*
X638745D01*
X641072Y556134D01*
X643158Y557338D01*
X644862Y559042D01*
X646066Y561128D01*
X646690Y563455D01*
Y565865D01*
X646278Y567401D01*
X647484Y567810D01*
X647742Y567186D01*
X649619Y564378D01*
X652008Y561989D01*
X654816Y560112D01*
X657937Y558819D01*
X661251Y558160D01*
X664629D01*
X667943Y558819D01*
X671064Y560112D01*
X673873Y561989D01*
X676261Y564378D01*
X678138Y567186D01*
X679431Y570308D01*
X680090Y573621D01*
Y576999D01*
X679431Y580312D01*
X678138Y583434D01*
X676261Y586242D01*
X673873Y588631D01*
X671064Y590508D01*
X667943Y591801D01*
X664629Y592460D01*
D02*
G37*
G36*
X859774Y593524D02*
X833726D01*
Y567476D01*
X859774D01*
Y593524D01*
D02*
G37*
G36*
X727531Y583600D02*
X725349D01*
X723240Y583035D01*
X721350Y581944D01*
X719806Y580400D01*
X718715Y578510D01*
X718150Y576401D01*
Y574219D01*
X718715Y572110D01*
X719806Y570220D01*
X721350Y568676D01*
X723240Y567585D01*
X725349Y567020D01*
X727531D01*
X729640Y567585D01*
X731530Y568676D01*
X733074Y570220D01*
X734165Y572110D01*
X734730Y574219D01*
Y576401D01*
X734165Y578510D01*
X733074Y580400D01*
X731530Y581944D01*
X729640Y583035D01*
X727531Y583600D01*
D02*
G37*
G36*
X618445Y573810D02*
X616035D01*
X613708Y573186D01*
X611622Y571982D01*
X609918Y570278D01*
X608714Y568192D01*
X608090Y565865D01*
Y563455D01*
X608714Y561128D01*
X609918Y559042D01*
X611622Y557338D01*
X613708Y556134D01*
X616035Y555510D01*
X618445D01*
X620772Y556134D01*
X622858Y557338D01*
X624562Y559042D01*
X625766Y561128D01*
X626390Y563455D01*
Y565865D01*
X625766Y568192D01*
X624562Y570278D01*
X622858Y571982D01*
X620772Y573186D01*
X618445Y573810D01*
D02*
G37*
G36*
X733406Y557800D02*
X732094D01*
X730881Y557298D01*
X729952Y556369D01*
X729450Y555156D01*
Y553844D01*
X729952Y552631D01*
X730881Y551702D01*
X732094Y551200D01*
X733406D01*
X734619Y551702D01*
X735548Y552631D01*
X736050Y553844D01*
Y555156D01*
X735548Y556369D01*
X734619Y557298D01*
X733406Y557800D01*
D02*
G37*
G36*
X601656Y550550D02*
X600344D01*
X599131Y550048D01*
X598202Y549119D01*
X597700Y547906D01*
Y546594D01*
X598202Y545381D01*
X599131Y544452D01*
X600344Y543950D01*
X601656D01*
X602869Y544452D01*
X603798Y545381D01*
X604300Y546594D01*
Y547906D01*
X603798Y549119D01*
X602869Y550048D01*
X601656Y550550D01*
D02*
G37*
G36*
X695188Y568285D02*
X691692D01*
X688316Y567380D01*
X685289Y565633D01*
X682817Y563161D01*
X681070Y560134D01*
X680165Y556758D01*
Y553262D01*
X681070Y549886D01*
X682817Y546859D01*
X685289Y544387D01*
X688316Y542640D01*
X691692Y541735D01*
X695188D01*
X698564Y542640D01*
X701591Y544387D01*
X704063Y546859D01*
X705810Y549886D01*
X706715Y553262D01*
Y556758D01*
X705810Y560134D01*
X704063Y563161D01*
X701591Y565633D01*
X698564Y567380D01*
X695188Y568285D01*
D02*
G37*
G36*
X823181Y569009D02*
X819519D01*
X815981Y568061D01*
X812810Y566230D01*
X810220Y563640D01*
X808389Y560469D01*
X807441Y556931D01*
Y553269D01*
X808389Y549731D01*
X810220Y546560D01*
X812810Y543970D01*
X815981Y542139D01*
X819519Y541191D01*
X823181D01*
X826719Y542139D01*
X829890Y543970D01*
X832480Y546560D01*
X834311Y549731D01*
X835259Y553269D01*
Y556931D01*
X834311Y560469D01*
X832480Y563640D01*
X829890Y566230D01*
X826719Y568061D01*
X823181Y569009D01*
D02*
G37*
G36*
X951656Y563800D02*
X950344D01*
X949131Y563298D01*
X948202Y562369D01*
X947700Y561156D01*
Y559844D01*
X948202Y558631D01*
X949131Y557702D01*
X950344Y557200D01*
X951656D01*
X952869Y557702D01*
X953798Y558631D01*
X954300Y559844D01*
Y561156D01*
X953798Y562369D01*
X952869Y563298D01*
X951656Y563800D01*
D02*
G37*
%LPD*%
D61*
X821350Y605900D02*
D03*
X872150D02*
D03*
X821350Y555100D02*
D03*
X872150D02*
D03*
D62*
X846750Y580500D02*
D03*
D76*
X693440Y555010D02*
D03*
Y709910D02*
D03*
D77*
X617240Y564660D02*
D03*
X637540D02*
D03*
X617240Y700260D02*
D03*
X637540D02*
D03*
D78*
X726440Y575310D02*
D03*
X751840Y588010D02*
D03*
X726440Y600710D02*
D03*
X751840Y613410D02*
D03*
X726440Y626110D02*
D03*
X751840Y638810D02*
D03*
X726440Y651510D02*
D03*
X751840Y664210D02*
D03*
X726440Y676910D02*
D03*
D79*
X751840Y689610D02*
D03*
D80*
X662940Y575310D02*
D03*
Y689610D02*
D03*
D81*
X933450Y601900D02*
D03*
Y718900D02*
D03*
D82*
Y637900D02*
D03*
Y682900D02*
D03*
D83*
X818000Y763250D02*
D03*
X781996Y771354D02*
D03*
X773000Y772250D02*
D03*
X638250Y761000D02*
D03*
X710748Y753537D02*
D03*
X711750Y779750D02*
D03*
X694000Y736500D02*
D03*
X799750Y785500D02*
D03*
X812250Y778800D02*
D03*
X689345Y765354D02*
D03*
X721750Y716500D02*
D03*
X752750Y753270D02*
D03*
X711250Y738250D02*
D03*
X890750Y605750D02*
D03*
X796750Y630500D02*
D03*
X808485Y655515D02*
D03*
X817360D02*
D03*
X826235D02*
D03*
X813250Y715250D02*
D03*
X849500Y650500D02*
D03*
X903625Y606875D02*
D03*
X906625Y565625D02*
D03*
X951125Y532125D02*
D03*
X909360Y580390D02*
D03*
X951000Y560500D02*
D03*
X819885Y633424D02*
D03*
X814387Y631919D02*
D03*
X601000Y547250D02*
D03*
X667000Y731000D02*
D03*
X650250Y724000D02*
D03*
X842500Y731500D02*
D03*
X732750Y554500D02*
D03*
X923500Y663792D02*
D03*
Y657083D02*
D03*
Y650375D02*
D03*
Y643667D02*
D03*
Y630250D02*
D03*
X932000Y650000D02*
D03*
Y669250D02*
D03*
X923500Y670500D02*
D03*
X932000Y656417D02*
D03*
Y662833D02*
D03*
X777000Y664500D02*
D03*
X777464Y649806D02*
D03*
X772250Y687250D02*
D03*
X769986Y696050D02*
D03*
X771750Y711000D02*
D03*
X798750Y743500D02*
D03*
X781500Y724250D02*
D03*
X823000Y753250D02*
D03*
X945250Y787500D02*
D03*
X891000Y783750D02*
D03*
X938250Y777750D02*
D03*
X901500Y771500D02*
D03*
X884750Y727000D02*
D03*
X865949Y625080D02*
D03*
X861805Y628995D02*
D03*
X794250Y718000D02*
D03*
X818250Y730000D02*
D03*
X828250Y715250D02*
D03*
X838225Y716475D02*
D03*
X801000Y719250D02*
D03*
X834565Y680935D02*
D03*
X842600Y694798D02*
D03*
X818352Y703604D02*
D03*
X851249Y679500D02*
D03*
X808235Y663745D02*
D03*
X826485D02*
D03*
X826235Y673265D02*
D03*
X817360Y663745D02*
D03*
X817360Y673265D02*
D03*
X808485D02*
D03*
X818250Y772750D02*
D03*
X812250D02*
D03*
X764540Y662330D02*
D03*
Y656630D02*
D03*
X765810Y682330D02*
D03*
Y676630D02*
D03*
D84*
X834410Y651680D02*
D03*
X842250Y636227D02*
D03*
X841500Y640500D02*
D03*
X801699Y695500D02*
D03*
X851750Y657500D02*
D03*
X847500Y665500D02*
D03*
X836005Y636227D02*
D03*
X851980Y665618D02*
D03*
X841750Y688750D02*
D03*
X833000Y697500D02*
D03*
X776500Y674750D02*
D03*
X832250Y710500D02*
D03*
X829500Y705500D02*
D03*
X794869Y695000D02*
D03*
X803987Y691119D02*
D03*
X828000Y694500D02*
D03*
X909500Y728500D02*
D03*
X904625Y728375D02*
D03*
X853250Y685163D02*
D03*
X826000Y631416D02*
D03*
X824010Y681510D02*
D03*
X899000Y739250D02*
D03*
X899250Y728500D02*
D03*
X759369Y718750D02*
D03*
X805500Y681000D02*
D03*
X867250Y745000D02*
D03*
X872500D02*
D03*
X785000Y650250D02*
D03*
D85*
X868250Y700000D02*
D03*
X930750Y705250D02*
D03*
Y698500D02*
D03*
X854750Y700000D02*
D03*
X871250Y775000D02*
D03*
X864750D02*
D03*
X861500Y700000D02*
D03*
X923750Y705250D02*
D03*
Y698500D02*
D03*
Y692250D02*
D03*
D86*
X869100Y721360D02*
D03*
X858100D02*
D03*
D87*
X796750Y644383D02*
X798367Y646000D01*
X828730D02*
X834410Y651680D01*
X798367Y646000D02*
X828730D01*
X796750Y630500D02*
Y644383D01*
M02*
