M48
;Layer_Color=9474304
;FILE_FORMAT=4:4
METRIC,LZ
;TYPE=PLATED
T1F00S00C0.1500
T2F00S00C0.2000
T3F00S00C0.3000
T5F00S00C0.9700
T6F00S00C1.1000
T7F00S00C1.5748
T8F00S00C1.6500
T9F00S00C1.7018
%
T01
X00826Y00631416
X00836005Y00636227
X0084225
X008415Y006405
X0083441Y0065168
X0085175Y006575
X0085198Y00665618
X008475Y006655
X0085325Y00685163
X0084175Y0068875
X00833Y006975
X00828Y006945
X008295Y007055
X0083225Y007105
X0082401Y0068151
X008055Y00681
X00803987Y00691119
X00801699Y006955
X00794869Y00695
X0086725Y00745
X008725
X00899Y0073925
X0089925Y007285
X00904625Y00728375
X009095Y007285
X00759369Y0071875
X007765Y0067475
X00785Y0065025
T02
X008581Y0072136
X008691
T03
X0079675Y006305
X00814387Y00631919
X00819885Y00633424
X0081736Y00655515
X0081736Y00663745
X00808235
X00808485Y00655515
X00826235
X00826485Y00663745
X00826235Y00673265
X0081736
X00808485
X00834565Y00680935
X00851249Y006795
X008426Y00694798
X0085475Y007
X008615
X0086825
X0088475Y00727
X008425Y007315
X00838225Y00716475
X0082825Y0071525
X0081325
X00801Y0071925
X0079425Y00718
X0079875Y007435
X0081825Y0073
X00818352Y00703604
X00823Y0075325
X00818Y0076325
X0081825Y0077275
X0081225
Y007788
X0079975Y007855
X0086475Y00775
X0087125
X00891Y0078375
X009015Y007715
X0093825Y0077775
X0094525Y007875
X0093075Y0070525
Y006985
X0092375
Y0069225
Y0070525
X009235Y006705
Y00663792
Y00657083
Y00650375
Y00643667
Y0063025
X00932Y0065
Y00656417
Y00662833
Y0066925
X00903625Y00606875
X0089075Y0060575
X0090936Y0058039
X00906625Y00565625
X00951Y005605
X00951125Y00532125
X00865949Y0062508
X00861805Y00628995
X008495Y006505
X00777464Y00649806
X00777Y006645
X0076454Y0066233
Y0065663
X0076581Y0067663
Y0068233
X0077225Y0068725
X00769986Y0069605
X0077175Y00711
X007815Y0072425
X00781996Y00771354
X00773Y0077225
X0075275Y0075327
X00710748Y00753537
X0071125Y0073825
X00694Y007365
X00667Y00731
X0065025Y00724
X0063825Y00761
X00689345Y00765354
X0071175Y0077975
X0072175Y007165
X0073275Y005545
X00601Y0054725
T05
X0072644Y0057531
Y0060071
Y0062611
Y0065151
Y0067691
X0075184Y0066421
Y0063881
Y0061341
Y0058801
Y0068961
T06
X0061724Y0056466
X0063754
Y0070026
X0061724
T07
X0084675Y005805
T08
X0069344Y0055501
Y0070991
T09
X0082135Y005551
Y006059
X0087215
Y005551
M30
