M48
;Layer_Color=9474304
;FILE_FORMAT=4:4
METRIC,LZ
;TYPE=PLATED
T01F00S00C0.2000
T03F00S00C0.9000
T04F00S00C0.9800
T05F00S00C1.0000
T06F00S00C1.1000
T07F00S00C1.5000
T08F00S00C1.7000
T09F00S00C2.1500
;TYPE=NON_PLATED
T10F00S00C1.8000
T11F00S00C3.2000
%
T01
X01199Y00499
Y0052
Y00551
X01195Y0068
Y0072
X01175Y0074
X01157
X01137Y00741
X01139502Y0072767
Y0071517
X01127002
X01117002Y0069517
X01137002
X01139502Y0068517
Y0067267
X01127002
X01097002Y0067217
Y0068317
Y0070017
X01097Y00716
X01097002Y0072567
X01095Y00745
X01117Y00741
X01057502Y0073817
X01072002Y0072017
X01074502Y0067767
X01098Y00655
X01101Y00632
X01118Y00641
X0113Y006347
Y00629
X01122Y00625
X01115Y00619
X01115Y006
X01117Y00577
X011113
X01117Y00567
X01098Y0057
X01079Y00568
X01075Y00582
X01063Y00580384
Y00589616
X01072Y00605
X01064Y00615
X01073Y00625
X01066Y00639
X01022
X01025Y00658
X01035092Y00657977
X01013Y00658
X01019Y00666
X00998Y00667
Y00688
X00997Y00703
X00988Y00712
X00996Y00723
X01007502Y0073817
X01011Y00756
X01019502Y0075517
X01024502Y0074517
X01022002Y0070767
X01022502Y0069417
X01014502Y0070017
X01046502
X00988Y00678
X009565Y0072875
X009365Y0074975
X009425Y0077
Y0078
Y0079
X009525
Y0078
X009625
Y0079
Y0077
X009525
X00991Y00767
Y00779
X01008Y00778
X00914Y00767
X0089Y00769
X00882942Y00771
X0089Y0078
X00878Y00789
X00867Y00777
X00857Y00776
X00854Y0077
X008505Y00783
X0086Y00754
X00861Y00738
X00860558Y00723
X00855558Y00714
X00851Y00694
X0085Y00686
X00844Y00691
X00826558Y00709
Y00722
Y00736
Y00749
X00811558
Y00736
Y00722
X00811558Y00709
X00796558
Y00722
Y00736
Y00749
X00794558Y00787
X00803Y00786
X00812
X008825Y007525
X00885408Y00739
X00884308Y00723
X00884558Y00716
X00883558Y00709
X00884Y00695
X00883558Y00684
X00884Y00673
X00890558Y00664
X00883558Y00657
X0089Y0065
X00894Y00643
X00913Y00625
X00922
X0093Y00605
X00937Y006
X00947
X00957
X00966
Y00589
Y0058
X00967Y0057
Y0056
Y00551
Y0054
Y00528
Y00516
Y00504
Y00491
X00982
Y00504
Y00516
Y00528
Y00539
X00983Y0056
Y0057
X00984Y0058
Y0059
X00957Y00589
X00947
X00937
X00928Y00583
X00899Y00569
X00877
Y00596
X00897Y00595
X00901Y00606
X00904Y0061
X008665Y006175
X00851149Y00618
X00838649
X00818942Y006185
X00809Y00607
X00801Y00615
X00809Y00645
X008165
X008265
X00836558Y00646
X00829Y00635
X0085Y00652
X00859Y00659
X00824Y00671
X00814Y00673
X00805
X00907Y00684
X00907558Y00702
X00902Y00702
X00912Y00712
X00908808Y0071675
X00902Y00531
X00929
X00932Y00493
X00928Y00476
X00926Y00456
X00938Y00455
X00936Y00443
X00921Y00445
X00913Y00436
X00929Y00432
X00923Y00422
X00928Y00409
X00974
X01012Y0045
X0105Y00475
X01058Y00504
X01045Y00507
X01052Y00515
X01037
X01025Y00505
X01035Y00557
X01025Y00567
X00995
X01058Y00568
X01059Y00534
X01103Y00529
Y00504
X01134Y00513
X01145Y00527
X01145Y0054
X01185Y00535
Y00525
Y00545
X01179Y00576
Y005817
X01180031Y0059097
X01176Y00595
X01177Y00604
X01174Y00613
X01168Y00612
X0117Y00622
X01174Y00638
X01167Y00644
X01154Y0064
X01139Y00642
Y00625
Y00618
X01140085Y00612362
X01153Y0061
X01169Y00598
X0117Y00571
X01153Y00578
X0113925Y0058
X01131Y005843
Y0059
X01139Y00595
X0117Y00517
Y00505
X01165Y0049
X01145
X01125Y0048
X01185
X01085Y0046
X00897Y00458
X00895Y00445
X00887Y00439
X00871Y00445
X00878Y00456
X00859Y00455
X00843Y00454
X0085Y00446
X00865Y00432
X00855Y00471
X00839Y00467
X0081Y00465
X00811Y00475
Y005
X008175Y005175
X00828Y00518
X0082Y00527
X00812Y00534
X00802Y0054
Y00552
X00815Y00549
X00825Y00541
X00834Y00532
X00843Y00523
X0085Y00513
X00849909Y00500862
X00836Y00508
X00866Y00507
X00891
X00849Y00566
X00822
X00789Y00552
Y0054
X00775Y00539
X00781Y00531
X007669Y0052
Y00505
X00777
X0075Y004975
X00741Y00498
Y00487
X00729
Y00498
X00722Y00517
X00729Y00536
X00715Y00537
X00701Y00534
X00694Y00539
X00684Y0054
X0067Y00534
X00675Y00528
X00663Y00527
X00643Y00532
X00628Y00525
X00633Y00517
X00643Y00507
X00635Y00494
X00617Y0049
X00606Y00507
X006075Y0054
X00605Y0055
X00585Y00533
X005875Y00525
X00567Y00508
Y004935
X00566Y00542
Y00566
X00571Y00584
X00567Y005965
X006Y00595
X00643Y00557
X0068925Y0055825
X00698Y00558
X00703Y00567
X00706Y00547
X00719Y00555
X00736Y00547
X00748Y00551
X0075Y00539
X00743Y00535
X00745Y005275
X007525
X00758Y00534
X00761Y0054
Y00552
X00769Y00557
X00777
X00782Y00604
X0077Y00616
X00756Y00618
X00754Y00595
X00755Y00589
X00737Y00588
X0072
X00711Y00585
X00696Y00606
X007225Y006175
X00735Y00606
X00715Y00643
X00722Y00667
X00725442Y006775
X00716Y00678
X00726942Y006895
X00722Y00704
X00709Y00717
X00686Y00717
X00687Y00687
Y00657
X0074Y00666
X00755
X00762Y00686
X00769
X00781558Y00709
Y00722
Y00736
Y00749
X0078Y00779
X00784558Y00786
X00764558
X00752558Y007815
X00744558Y007735
X00729Y0077
X0072Y00749
X00722Y00733
X00744558Y00732
X00745558Y00749
X00758Y00757
X007665Y007675
X006975Y0076
X00669Y00761
X00675Y00774
X00649
X0063Y007825
Y0075
X006
X00585Y00765
X00595Y00785
X006625Y007425
X007115Y0079
X00748591Y00708644
X00766Y00635
X00747Y00518
X00748Y00512
X00687Y00508
Y00518
X0068Y00476
X00677Y00578
X00531Y00571
Y00539
X00537Y00514
X00514Y00482
X00524Y00469
X00495Y00539
X00481894Y0053941
Y0055141
X00482Y00563
X00533Y0061
X00522Y0065
X00541Y00679
X00543Y0069197
Y0069767
X00532Y00702
X00782Y00465
X00784Y008125
X00774
X00764
X00744Y008
X007315
X00719
X00689Y0081
X0063Y008125
Y00795
X00595Y007975
Y0081
X00794Y008125
X00804
X00814
X00824558Y00803
X00844Y00815
X00874
X00867Y00807
X0089Y00815
X00904
X00916Y00811
X009425Y008
X009525
X009625
X00991942Y00804
X01001Y0081
X01015Y0081
X0089Y0079425
T03
X004492Y006186
Y00639
Y006594
Y006798
X00467Y006696
Y006492
Y006288
Y0069
T04
X005933Y0057
X006187
X007223
X007477
T05
X008042Y004175
X008296
X00855
X008804
X009058
X004744Y00491
Y005164
X00449
Y00491
T06
X004997Y005842
Y006096
Y00699
Y007244
T07
X00975Y0045
X00735
X00625
T08
X009496Y004246
X010004
Y004754
X009496
X007604
X007096
Y004246
X007604
X006504
Y004754
X005996
Y004246
T09
X004202Y005743
Y007343
T10
X004637Y005969
Y007117
T11
X0105Y00435
Y00785
X0055
Y00435
M30
