G04*
G04 #@! TF.GenerationSoftware,Altium Limited,Altium Designer,24.8.2 (39)*
G04*
G04 Layer_Color=8388736*
%FSLAX44Y44*%
%MOMM*%
G71*
G04*
G04 #@! TF.SameCoordinates,B24E7647-DC98-4454-BF0C-B73D814473A7*
G04*
G04*
G04 #@! TF.FilePolarity,Negative*
G04*
G01*
G75*
%ADD16R,0.3000X0.4000*%
%ADD17O,0.7600X1.2700*%
%ADD18R,1.7780X1.7780*%
%ADD19C,1.5240*%
%ADD20R,0.5200X0.5200*%
%ADD21R,2.7800X0.8000*%
%ADD22R,1.9000X2.4000*%
%ADD23R,0.2000X1.1000*%
%ADD24R,1.1000X0.2000*%
G04:AMPARAMS|DCode=25|XSize=1.05mm|YSize=0.45mm|CornerRadius=0.225mm|HoleSize=0mm|Usage=FLASHONLY|Rotation=0.000|XOffset=0mm|YOffset=0mm|HoleType=Round|Shape=RoundedRectangle|*
%AMROUNDEDRECTD25*
21,1,1.0500,0.0000,0,0,0.0*
21,1,0.6000,0.4500,0,0,0.0*
1,1,0.4500,0.3000,0.0000*
1,1,0.4500,-0.3000,0.0000*
1,1,0.4500,-0.3000,0.0000*
1,1,0.4500,0.3000,0.0000*
%
%ADD25ROUNDEDRECTD25*%
%ADD26R,3.5000X4.1000*%
%ADD29R,0.5811X0.4725*%
%ADD30R,0.5000X0.6000*%
%ADD31R,0.5153X0.4725*%
%ADD32R,0.4725X0.5153*%
%ADD33R,0.7000X0.6500*%
%ADD34R,0.5725X0.6153*%
%ADD35R,0.5000X0.5500*%
%ADD36R,15.8500X2.8250*%
%ADD37R,5.8000X4.6000*%
%ADD38R,0.7000X1.6500*%
%ADD39R,1.3000X1.9000*%
%ADD40R,0.6700X2.2450*%
%ADD41O,3.6600X1.6600*%
%ADD42C,1.2500*%
%ADD43C,1.6250*%
%ADD44C,2.4000*%
%ADD45C,1.5300*%
%ADD46C,1.4000*%
%ADD47R,1.4000X1.4000*%
%ADD48C,0.5000*%
%ADD49C,0.6000*%
G36*
X558369Y784694D02*
X558544D01*
X558733Y784680D01*
X558967Y784650D01*
X559215Y784621D01*
X559492Y784592D01*
X559798Y784548D01*
X560118Y784490D01*
X560454Y784432D01*
X560818Y784344D01*
X561183Y784257D01*
X561576Y784155D01*
X561970Y784038D01*
X561256Y781968D01*
X561226Y781982D01*
X561153Y782012D01*
X561051Y782041D01*
X560891Y782099D01*
X560702Y782157D01*
X560483Y782230D01*
X560235Y782318D01*
X559973Y782391D01*
X559681Y782464D01*
X559375Y782551D01*
X558733Y782682D01*
X558413Y782741D01*
X558077Y782784D01*
X557757Y782799D01*
X557436Y782813D01*
X557334D01*
X557202Y782799D01*
X557042Y782784D01*
X556853Y782770D01*
X556634Y782726D01*
X556386Y782682D01*
X556138Y782609D01*
X555876Y782522D01*
X555613Y782420D01*
X555365Y782289D01*
X555132Y782128D01*
X554913Y781939D01*
X554724Y781735D01*
X554549Y781487D01*
X554432Y781195D01*
X554418Y781166D01*
X554403Y781093D01*
X554374Y780976D01*
X554359Y780831D01*
X554345Y780656D01*
X554359Y780481D01*
X554418Y780306D01*
X554505Y780145D01*
X554520Y780131D01*
X554578Y780072D01*
X554666Y780000D01*
X554811Y779898D01*
X554899Y779825D01*
X555015Y779766D01*
X555132Y779694D01*
X555263Y779621D01*
X555424Y779548D01*
X555599Y779460D01*
X555788Y779387D01*
X555992Y779300D01*
X557232Y778804D01*
X558281Y778396D01*
X558296D01*
X558311Y778381D01*
X558383Y778352D01*
X558500Y778294D01*
X558660Y778206D01*
X558835Y778090D01*
X559025Y777944D01*
X559229Y777784D01*
X559419Y777594D01*
X559608Y777361D01*
X559783Y777113D01*
X559929Y776821D01*
X560031Y776515D01*
X560089Y776165D01*
X560104Y775976D01*
Y775771D01*
X560089Y775567D01*
X560046Y775363D01*
X560002Y775145D01*
X559929Y774911D01*
Y774897D01*
X559900Y774824D01*
X559856Y774736D01*
X559798Y774605D01*
X559725Y774445D01*
X559623Y774255D01*
X559506Y774051D01*
X559375Y773818D01*
X559215Y773585D01*
X559025Y773337D01*
X558821Y773089D01*
X558587Y772841D01*
X558325Y772593D01*
X558048Y772345D01*
X557727Y772112D01*
X557392Y771893D01*
X557377Y771879D01*
X557304Y771850D01*
X557202Y771791D01*
X557057Y771718D01*
X556882Y771631D01*
X556663Y771544D01*
X556415Y771441D01*
X556138Y771339D01*
X555832Y771237D01*
X555497Y771135D01*
X555147Y771048D01*
X554753Y770960D01*
X554359Y770887D01*
X553937Y770829D01*
X553485Y770800D01*
X553033Y770785D01*
X552858D01*
X552727Y770800D01*
X552566Y770815D01*
X552362Y770829D01*
X552129Y770844D01*
X551866Y770887D01*
X551575Y770917D01*
X551254Y770975D01*
X550904Y771033D01*
X550525Y771106D01*
X550117Y771194D01*
X549694Y771296D01*
X549242Y771412D01*
X548775Y771544D01*
X549563Y773862D01*
X549592Y773847D01*
X549679Y773818D01*
X549796Y773760D01*
X549971Y773672D01*
X550190Y773585D01*
X550438Y773483D01*
X550714Y773381D01*
X551021Y773278D01*
X551342Y773162D01*
X551677Y773060D01*
X552362Y772870D01*
X552727Y772797D01*
X553062Y772739D01*
X553412Y772695D01*
X553732Y772681D01*
X553864D01*
X553966Y772695D01*
X554097D01*
X554228Y772710D01*
X554389Y772724D01*
X554564Y772754D01*
X554943Y772812D01*
X555336Y772899D01*
X555745Y773031D01*
X556124Y773205D01*
X556138D01*
X556167Y773235D01*
X556211Y773264D01*
X556284Y773308D01*
X556444Y773424D01*
X556648Y773585D01*
X556867Y773774D01*
X557071Y774022D01*
X557261Y774299D01*
X557348Y774445D01*
X557407Y774605D01*
Y774620D01*
X557421Y774634D01*
X557436Y774707D01*
X557465Y774824D01*
X557480Y774970D01*
Y775130D01*
X557450Y775305D01*
X557392Y775480D01*
X557290Y775626D01*
X557275Y775640D01*
X557217Y775699D01*
X557173Y775742D01*
X557100Y775786D01*
X557028Y775844D01*
X556940Y775917D01*
X556823Y775990D01*
X556707Y776078D01*
X556561Y776165D01*
X556386Y776267D01*
X556197Y776369D01*
X555978Y776486D01*
X555745Y776617D01*
X555482Y776748D01*
X554286Y777142D01*
X554272Y777157D01*
X554214Y777171D01*
X554126Y777215D01*
X554024Y777259D01*
X553893Y777332D01*
X553732Y777404D01*
X553397Y777594D01*
X553033Y777827D01*
X552668Y778075D01*
X552508Y778221D01*
X552347Y778352D01*
X552216Y778512D01*
X552100Y778658D01*
Y778673D01*
X552085Y778702D01*
X552056Y778746D01*
X552027Y778804D01*
X551983Y778892D01*
X551954Y778994D01*
X551925Y779110D01*
X551895Y779241D01*
X551866Y779387D01*
X551852Y779548D01*
X551837Y779737D01*
Y779927D01*
X551866Y780131D01*
X551895Y780364D01*
X551954Y780597D01*
X552027Y780845D01*
X552041Y780860D01*
X552056Y780933D01*
X552100Y781020D01*
X552143Y781151D01*
X552216Y781297D01*
X552304Y781487D01*
X552420Y781676D01*
X552537Y781895D01*
X552683Y782114D01*
X552843Y782347D01*
X553018Y782580D01*
X553222Y782813D01*
X553456Y783047D01*
X553689Y783280D01*
X553951Y783484D01*
X554243Y783688D01*
X554257Y783703D01*
X554316Y783732D01*
X554403Y783776D01*
X554534Y783849D01*
X554680Y783922D01*
X554870Y784009D01*
X555088Y784111D01*
X555322Y784199D01*
X555584Y784301D01*
X555876Y784388D01*
X556197Y784476D01*
X556532Y784548D01*
X556882Y784621D01*
X557261Y784665D01*
X557654Y784694D01*
X558063Y784709D01*
X558238D01*
X558369Y784694D01*
D02*
G37*
G36*
X597894D02*
X598055D01*
X598244Y784680D01*
X598463Y784650D01*
X598696Y784636D01*
X598973Y784592D01*
X599250Y784548D01*
X599556Y784505D01*
X599877Y784432D01*
X600548Y784286D01*
X600897Y784184D01*
X601247Y784067D01*
X600518Y781895D01*
X600489Y781910D01*
X600431Y781939D01*
X600329Y781982D01*
X600183Y782041D01*
X600008Y782114D01*
X599819Y782187D01*
X599585Y782274D01*
X599338Y782362D01*
X599061Y782434D01*
X598769Y782522D01*
X598157Y782668D01*
X597850Y782726D01*
X597530Y782770D01*
X597209Y782799D01*
X596888Y782813D01*
X596801D01*
X596699Y782799D01*
X596567D01*
X596392Y782770D01*
X596203Y782741D01*
X595970Y782697D01*
X595722Y782638D01*
X595459Y782566D01*
X595182Y782464D01*
X594876Y782362D01*
X594570Y782216D01*
X594249Y782055D01*
X593928Y781866D01*
X593608Y781647D01*
X593287Y781399D01*
X593272Y781385D01*
X593214Y781341D01*
X593127Y781254D01*
X593010Y781151D01*
X592864Y781006D01*
X592704Y780845D01*
X592529Y780641D01*
X592339Y780422D01*
X592135Y780175D01*
X591931Y779912D01*
X591727Y779621D01*
X591523Y779300D01*
X591333Y778950D01*
X591144Y778600D01*
X590969Y778221D01*
X590823Y777813D01*
X590808Y777784D01*
X590794Y777711D01*
X590765Y777594D01*
X590721Y777448D01*
X590677Y777259D01*
X590634Y777040D01*
X590604Y776792D01*
X590561Y776530D01*
X590546Y776253D01*
Y775961D01*
Y775655D01*
X590590Y775349D01*
X590648Y775057D01*
X590721Y774751D01*
X590852Y774474D01*
X590998Y774197D01*
X591013Y774182D01*
X591042Y774139D01*
X591100Y774066D01*
X591173Y773978D01*
X591275Y773876D01*
X591406Y773760D01*
X591552Y773628D01*
X591727Y773512D01*
X591931Y773381D01*
X592164Y773249D01*
X592412Y773133D01*
X592704Y773031D01*
X593010Y772943D01*
X593345Y772870D01*
X593724Y772827D01*
X594118Y772812D01*
X594264D01*
X594366Y772827D01*
X594497Y772841D01*
X594672Y772856D01*
X594862Y772870D01*
X595095Y772899D01*
X595343Y772943D01*
X595620Y772987D01*
X595926Y773045D01*
X596261Y773118D01*
X596626Y773191D01*
X597005Y773293D01*
X597413Y773395D01*
X597850Y773526D01*
X597165Y771558D01*
X597136Y771544D01*
X597063Y771529D01*
X596932Y771485D01*
X596757Y771441D01*
X596553Y771383D01*
X596305Y771310D01*
X596028Y771237D01*
X595736Y771179D01*
X595401Y771106D01*
X595066Y771033D01*
X594366Y770902D01*
X593637Y770815D01*
X593287Y770800D01*
X592937Y770785D01*
X592806D01*
X592718Y770800D01*
X592631D01*
X592427Y770815D01*
X592164Y770844D01*
X591873Y770887D01*
X591537Y770946D01*
X591188Y771019D01*
X590823Y771121D01*
X590458Y771252D01*
X590079Y771398D01*
X589715Y771587D01*
X589365Y771806D01*
X589044Y772054D01*
X588738Y772345D01*
X588476Y772681D01*
X588461Y772710D01*
X588417Y772768D01*
X588359Y772870D01*
X588286Y773031D01*
X588213Y773220D01*
X588126Y773439D01*
X588038Y773716D01*
X587965Y774022D01*
X587907Y774357D01*
X587849Y774736D01*
X587834Y775145D01*
Y775597D01*
X587878Y776063D01*
X587951Y776573D01*
X588068Y777113D01*
X588242Y777682D01*
Y777696D01*
X588257Y777711D01*
X588272Y777754D01*
X588301Y777813D01*
X588330Y777900D01*
X588359Y777988D01*
X588447Y778206D01*
X588563Y778469D01*
X588724Y778775D01*
X588899Y779110D01*
X589103Y779489D01*
X589336Y779883D01*
X589598Y780291D01*
X589905Y780714D01*
X590240Y781137D01*
X590604Y781560D01*
X590998Y781982D01*
X591435Y782376D01*
X591902Y782755D01*
X591917D01*
X591931Y782784D01*
X592019Y782843D01*
X592164Y782930D01*
X592354Y783061D01*
X592602Y783207D01*
X592893Y783367D01*
X593214Y783557D01*
X593593Y783732D01*
X593987Y783922D01*
X594424Y784097D01*
X594905Y784257D01*
X595401Y784403D01*
X595911Y784534D01*
X596451Y784621D01*
X597019Y784694D01*
X597588Y784709D01*
X597763D01*
X597894Y784694D01*
D02*
G37*
G36*
X606350Y778104D02*
X610170Y771092D01*
X607487D01*
X604003Y777667D01*
X601772Y771092D01*
X599367D01*
X603886Y784403D01*
X606292D01*
X604149Y778075D01*
X611395Y784403D01*
X613698D01*
X606350Y778104D01*
D02*
G37*
G36*
X520841Y771092D02*
X518800D01*
X522235Y781196D01*
X517152Y773818D01*
X515184D01*
X515068Y780981D01*
X511714Y771092D01*
X509921D01*
X514440Y784403D01*
X517182D01*
X517306Y776869D01*
X522518Y784403D01*
X525361D01*
X520841Y771092D01*
D02*
G37*
G36*
X634416Y786735D02*
X634562D01*
X634737Y786721D01*
X634926Y786692D01*
X635145Y786648D01*
X635378Y786604D01*
X635626Y786546D01*
X635874Y786458D01*
X636136Y786371D01*
X636384Y786254D01*
X636618Y786123D01*
X636836Y785963D01*
X637040Y785773D01*
X637230Y785569D01*
X637244Y785555D01*
X637274Y785511D01*
X637317Y785452D01*
X637361Y785350D01*
X637419Y785234D01*
X637492Y785102D01*
X637551Y784942D01*
X637609Y784753D01*
X637667Y784534D01*
X637696Y784301D01*
X637726Y784053D01*
X637740Y783776D01*
X637726Y783484D01*
X637682Y783178D01*
X637609Y782843D01*
X637507Y782493D01*
Y782478D01*
X637492Y782434D01*
X637463Y782376D01*
X637419Y782289D01*
X637376Y782172D01*
X637317Y782055D01*
X637259Y781910D01*
X637172Y781749D01*
X636982Y781399D01*
X636749Y781006D01*
X636457Y780597D01*
X636122Y780189D01*
X636107Y780175D01*
X636078Y780145D01*
X636020Y780087D01*
X635947Y780000D01*
X635845Y779898D01*
X635728Y779781D01*
X635582Y779650D01*
X635422Y779489D01*
X635233Y779329D01*
X635028Y779139D01*
X634795Y778950D01*
X634547Y778746D01*
X634270Y778527D01*
X633979Y778308D01*
X633658Y778075D01*
X633323Y777827D01*
X632215Y777025D01*
X632200D01*
X632185Y776996D01*
X632142Y776967D01*
X632083Y776938D01*
X631937Y776821D01*
X631733Y776661D01*
X631485Y776486D01*
X631208Y776267D01*
X630902Y776019D01*
X630582Y775757D01*
X630246Y775465D01*
X629911Y775159D01*
X629576Y774853D01*
X629255Y774532D01*
X628934Y774197D01*
X628657Y773876D01*
X628409Y773556D01*
X628190Y773235D01*
X634270D01*
X633541Y771092D01*
X624691D01*
X625362Y773074D01*
X625391Y773103D01*
X625464Y773191D01*
X625581Y773322D01*
X625741Y773497D01*
X625945Y773716D01*
X626193Y773978D01*
X626485Y774270D01*
X626820Y774605D01*
X627199Y774955D01*
X627593Y775349D01*
X628045Y775742D01*
X628511Y776165D01*
X629022Y776603D01*
X629576Y777055D01*
X630144Y777506D01*
X630742Y777959D01*
X631937Y778848D01*
X631967Y778862D01*
X632040Y778935D01*
X632156Y779023D01*
X632317Y779154D01*
X632506Y779314D01*
X632725Y779504D01*
X632958Y779723D01*
X633206Y779956D01*
X633468Y780218D01*
X633716Y780495D01*
X633979Y780801D01*
X634212Y781108D01*
X634431Y781428D01*
X634635Y781749D01*
X634810Y782085D01*
X634941Y782420D01*
Y782434D01*
X634955Y782464D01*
X634970Y782522D01*
X634999Y782609D01*
X635014Y782697D01*
X635043Y782799D01*
X635072Y783061D01*
X635101Y783338D01*
X635087Y783630D01*
X635057Y783776D01*
X635014Y783922D01*
X634970Y784053D01*
X634897Y784184D01*
Y784199D01*
X634883Y784213D01*
X634810Y784286D01*
X634708Y784403D01*
X634547Y784519D01*
X634343Y784636D01*
X634081Y784753D01*
X633920Y784796D01*
X633745Y784826D01*
X633570Y784855D01*
X633220D01*
X633118Y784840D01*
X632973Y784826D01*
X632798Y784796D01*
X632594Y784767D01*
X632360Y784723D01*
X632083Y784665D01*
X631792Y784592D01*
X631471Y784519D01*
X631106Y784417D01*
X630727Y784286D01*
X630305Y784155D01*
X629867Y783994D01*
X629386Y783805D01*
X630101Y785890D01*
X630130Y785904D01*
X630202Y785934D01*
X630319Y785963D01*
X630494Y786021D01*
X630684Y786094D01*
X630932Y786167D01*
X631194Y786240D01*
X631485Y786327D01*
X631792Y786400D01*
X632113Y786473D01*
X632812Y786619D01*
X633162Y786677D01*
X633512Y786706D01*
X633862Y786735D01*
X634212Y786750D01*
X634299D01*
X634416Y786735D01*
D02*
G37*
G36*
X587280Y782507D02*
X583810D01*
X580574Y772987D01*
X584044D01*
X583402Y771092D01*
X574057D01*
X574698Y772987D01*
X578168D01*
X581405Y782507D01*
X577935D01*
X578576Y784403D01*
X587922D01*
X587280Y782507D01*
D02*
G37*
G36*
X576112D02*
X571141D01*
X567262Y771092D01*
X564857D01*
X568735Y782507D01*
X563778D01*
X564419Y784403D01*
X576754D01*
X576112Y782507D01*
D02*
G37*
G36*
X536820D02*
X530099D01*
X528904Y778994D01*
X534604D01*
X533963Y777098D01*
X528262D01*
X526862Y772987D01*
X534050D01*
X533409Y771092D01*
X523815D01*
X528335Y784403D01*
X537462D01*
X536820Y782507D01*
D02*
G37*
G36*
X511262D02*
X507792D01*
X504556Y772987D01*
X508026D01*
X507384Y771092D01*
X498038D01*
X498680Y772987D01*
X502150D01*
X505387Y782507D01*
X501917D01*
X502558Y784403D01*
X511904D01*
X511262Y782507D01*
D02*
G37*
G36*
X500094D02*
X495122D01*
X491244Y771092D01*
X488839D01*
X492717Y782507D01*
X487760D01*
X488401Y784403D01*
X500736D01*
X500094Y782507D01*
D02*
G37*
D16*
X855500Y706520D02*
D03*
X850500D02*
D03*
X845500D02*
D03*
Y712020D02*
D03*
X850500D02*
D03*
X855500D02*
D03*
D17*
X917300Y781000D02*
D03*
X904600D02*
D03*
X917300Y740000D02*
D03*
X904600D02*
D03*
X930000Y740000D02*
D03*
X942700D02*
D03*
Y781000D02*
D03*
X930000D02*
D03*
D18*
X852555Y599839D02*
D03*
X900815D02*
D03*
X852555Y551579D02*
D03*
X900815D02*
D03*
D19*
X876685Y575709D02*
D03*
D20*
X790000Y594000D02*
D03*
Y586000D02*
D03*
X822500D02*
D03*
Y594000D02*
D03*
D21*
X905050Y700400D02*
D03*
Y620400D02*
D03*
Y690400D02*
D03*
Y680400D02*
D03*
Y670400D02*
D03*
Y660400D02*
D03*
Y650400D02*
D03*
Y640400D02*
D03*
Y630400D02*
D03*
D22*
X784500Y560000D02*
D03*
X825500D02*
D03*
D23*
X790960Y688220D02*
D03*
X794960D02*
D03*
X798960D02*
D03*
X802960D02*
D03*
X806960D02*
D03*
X810960D02*
D03*
X814960D02*
D03*
X818960D02*
D03*
X822960D02*
D03*
X826960D02*
D03*
X830960D02*
D03*
X834960D02*
D03*
X838960D02*
D03*
X842960D02*
D03*
X846960D02*
D03*
Y617220D02*
D03*
X842960D02*
D03*
X838960D02*
D03*
X834960D02*
D03*
X830960D02*
D03*
X826960D02*
D03*
X822960D02*
D03*
X818960D02*
D03*
X814960D02*
D03*
X810960D02*
D03*
X806960D02*
D03*
X802960D02*
D03*
X798960D02*
D03*
X794960D02*
D03*
X790960D02*
D03*
D24*
X854460Y680720D02*
D03*
Y676720D02*
D03*
Y672720D02*
D03*
Y668720D02*
D03*
Y664720D02*
D03*
Y660720D02*
D03*
Y656720D02*
D03*
Y652720D02*
D03*
Y648720D02*
D03*
Y644720D02*
D03*
Y640720D02*
D03*
Y636720D02*
D03*
Y632720D02*
D03*
Y628720D02*
D03*
Y624720D02*
D03*
X783460D02*
D03*
Y628720D02*
D03*
Y632720D02*
D03*
Y636720D02*
D03*
Y640720D02*
D03*
Y644720D02*
D03*
Y648720D02*
D03*
Y652720D02*
D03*
Y656720D02*
D03*
Y660720D02*
D03*
Y664720D02*
D03*
Y668720D02*
D03*
Y672720D02*
D03*
Y676720D02*
D03*
Y680720D02*
D03*
D25*
X744000Y774050D02*
D03*
Y761350D02*
D03*
Y748650D02*
D03*
Y735950D02*
D03*
X801000D02*
D03*
Y748650D02*
D03*
Y761350D02*
D03*
Y774050D02*
D03*
D26*
X772500Y755000D02*
D03*
D29*
X888655Y780000D02*
D03*
X881345D02*
D03*
Y750000D02*
D03*
X888655D02*
D03*
X881345Y765000D02*
D03*
X888655D02*
D03*
D30*
X815000Y737500D02*
D03*
X825000D02*
D03*
X815000Y760000D02*
D03*
X825000D02*
D03*
X730000Y747500D02*
D03*
X720000D02*
D03*
X940000Y585000D02*
D03*
X930000D02*
D03*
D31*
X881176Y643429D02*
D03*
X873604D02*
D03*
X823786Y775000D02*
D03*
X816214D02*
D03*
X876214Y635000D02*
D03*
X883786D02*
D03*
X876214Y625000D02*
D03*
X883786D02*
D03*
D32*
X807127Y703149D02*
D03*
Y710721D02*
D03*
X818960Y710639D02*
D03*
Y703068D02*
D03*
D33*
X720250Y760000D02*
D03*
X729750D02*
D03*
D34*
X812500Y594286D02*
D03*
Y585714D02*
D03*
D35*
X800000Y586250D02*
D03*
Y593750D02*
D03*
D36*
X790750Y514625D02*
D03*
D37*
X818960Y652720D02*
D03*
D38*
X660000Y740625D02*
D03*
X670000D02*
D03*
X680000D02*
D03*
X700000D02*
D03*
X690000D02*
D03*
D39*
X647000Y779375D02*
D03*
X713000D02*
D03*
D40*
X791735Y517680D02*
D03*
X810558D02*
D03*
X801146D02*
D03*
X764896D02*
D03*
X774308D02*
D03*
X746073D02*
D03*
X755485D02*
D03*
X736662D02*
D03*
X727250D02*
D03*
D41*
X933450Y601900D02*
D03*
Y718900D02*
D03*
D42*
Y637900D02*
D03*
Y682900D02*
D03*
D43*
X652500Y689300D02*
D03*
Y575000D02*
D03*
D44*
X683000Y709650D02*
D03*
Y554650D02*
D03*
D45*
X606800Y564300D02*
D03*
X627100D02*
D03*
X606800Y700000D02*
D03*
X627100D02*
D03*
D46*
X741400Y689300D02*
D03*
X716000Y676600D02*
D03*
X741400Y663900D02*
D03*
X716000Y651200D02*
D03*
X741400Y638500D02*
D03*
X716000Y625800D02*
D03*
X741400Y613100D02*
D03*
X716000Y600400D02*
D03*
X741400Y587700D02*
D03*
D47*
X716000Y575000D02*
D03*
D48*
X840818Y771170D02*
D03*
Y760170D02*
D03*
X927682Y760330D02*
D03*
X927680Y770000D02*
D03*
D49*
X782500D02*
D03*
Y760000D02*
D03*
Y750000D02*
D03*
Y740000D02*
D03*
X762500Y770000D02*
D03*
Y760000D02*
D03*
Y750000D02*
D03*
Y740000D02*
D03*
X772500Y770000D02*
D03*
Y760000D02*
D03*
Y750000D02*
D03*
Y740000D02*
D03*
X828949Y668354D02*
D03*
Y658353D02*
D03*
X838949Y668354D02*
D03*
X798949D02*
D03*
Y658353D02*
D03*
Y638353D02*
D03*
Y648353D02*
D03*
X808949Y658353D02*
D03*
Y638353D02*
D03*
Y648353D02*
D03*
X828949Y638353D02*
D03*
X818949D02*
D03*
X828949Y648353D02*
D03*
X838949Y638353D02*
D03*
X818949Y648353D02*
D03*
Y668354D02*
D03*
X838949Y648353D02*
D03*
X808949Y668354D02*
D03*
X838949Y658353D02*
D03*
X818949D02*
D03*
M02*
