G04*
G04 #@! TF.GenerationSoftware,Altium Limited,Altium Designer,24.8.2 (39)*
G04*
G04 Layer_Physical_Order=1*
G04 Layer_Color=255*
%FSLAX44Y44*%
%MOMM*%
G71*
G04*
G04 #@! TF.SameCoordinates,B24E7647-DC98-4454-BF0C-B73D814473A7*
G04*
G04*
G04 #@! TF.FilePolarity,Positive*
G04*
G01*
G75*
%ADD12C,0.2000*%
%ADD16R,0.3000X0.4000*%
%ADD17O,0.7600X1.2700*%
%ADD18R,1.7780X1.7780*%
%ADD19C,1.5240*%
%ADD20R,0.5200X0.5200*%
%ADD21R,2.7800X0.8000*%
%ADD22R,1.9000X2.4000*%
%ADD23R,0.2000X1.1000*%
%ADD24R,1.1000X0.2000*%
G04:AMPARAMS|DCode=25|XSize=1.05mm|YSize=0.45mm|CornerRadius=0.225mm|HoleSize=0mm|Usage=FLASHONLY|Rotation=0.000|XOffset=0mm|YOffset=0mm|HoleType=Round|Shape=RoundedRectangle|*
%AMROUNDEDRECTD25*
21,1,1.0500,0.0000,0,0,0.0*
21,1,0.6000,0.4500,0,0,0.0*
1,1,0.4500,0.3000,0.0000*
1,1,0.4500,-0.3000,0.0000*
1,1,0.4500,-0.3000,0.0000*
1,1,0.4500,0.3000,0.0000*
%
%ADD25ROUNDEDRECTD25*%
%ADD26R,3.5000X4.1000*%
%ADD27R,0.6000X1.5500*%
%ADD28R,1.2000X1.8000*%
%ADD29R,0.5811X0.4725*%
%ADD30R,0.5000X0.6000*%
%ADD31R,0.5153X0.4725*%
%ADD32R,0.4725X0.5153*%
%ADD33R,0.7000X0.6500*%
%ADD34R,0.5725X0.6153*%
%ADD35R,0.5000X0.5500*%
%ADD37R,5.8000X4.6000*%
%ADD41O,3.6600X1.6600*%
%ADD42C,1.2500*%
%ADD43C,1.6250*%
%ADD44C,2.4000*%
%ADD45C,1.5300*%
%ADD46C,1.4000*%
%ADD47R,1.4000X1.4000*%
%ADD48C,0.5000*%
%ADD49C,0.6000*%
%ADD50C,0.1524*%
%ADD51C,0.3810*%
%ADD52C,0.2030*%
%ADD53C,0.1800*%
%ADD54C,0.1530*%
%ADD55C,0.3490*%
%ADD56R,0.6500X2.2250*%
%ADD57C,0.4000*%
%ADD58C,0.4800*%
%ADD59C,0.4500*%
G36*
X948704Y792568D02*
X948685Y792549D01*
X948000Y790895D01*
Y789105D01*
X948685Y787451D01*
X949951Y786185D01*
X951605Y785500D01*
X953395D01*
X955049Y786185D01*
X956315Y787451D01*
X957000Y789105D01*
X958217Y788977D01*
X958217Y778523D01*
X957000Y778395D01*
X956315Y780049D01*
X955049Y781315D01*
X953395Y782000D01*
X951605D01*
X949951Y781315D01*
X949374Y780738D01*
X948104Y781264D01*
Y783550D01*
X947692Y785618D01*
X946521Y787371D01*
X944768Y788542D01*
X942700Y788954D01*
X940632Y788542D01*
X938879Y787371D01*
X937708Y785618D01*
X937296Y783550D01*
Y778450D01*
X937708Y776382D01*
X938879Y774629D01*
X940632Y773457D01*
X942700Y773046D01*
X944768Y773457D01*
X946521Y774629D01*
X947091Y775481D01*
X948524Y775340D01*
X948685Y774951D01*
X949951Y773685D01*
X951605Y773000D01*
X953395D01*
X955049Y773685D01*
X956315Y774951D01*
X957000Y776605D01*
X958217Y776477D01*
Y766023D01*
X957000Y765895D01*
X956315Y767549D01*
X955049Y768815D01*
X953395Y769500D01*
X951605D01*
X949951Y768815D01*
X948685Y767549D01*
X948000Y765895D01*
Y764105D01*
X948685Y762451D01*
X949951Y761185D01*
X951605Y760500D01*
X953395D01*
X955049Y761185D01*
X956315Y762451D01*
X957000Y764105D01*
X958217Y763977D01*
Y753523D01*
X957000Y753395D01*
X956315Y755049D01*
X955049Y756315D01*
X953395Y757000D01*
X951605D01*
X949951Y756315D01*
X948685Y755049D01*
X948000Y753395D01*
Y751605D01*
X948685Y749951D01*
X949951Y748685D01*
X951605Y748000D01*
X953395D01*
X955049Y748685D01*
X956315Y749951D01*
X957000Y751605D01*
X958217Y751477D01*
X958217Y511679D01*
X949879D01*
X899599Y511679D01*
Y533122D01*
X899512Y533561D01*
X899443Y534003D01*
X898751Y535882D01*
X898738Y535902D01*
X898734Y535926D01*
X898479Y536325D01*
X898232Y536730D01*
X898212Y536744D01*
X898199Y536764D01*
X897811Y537036D01*
X897428Y537315D01*
X897404Y537321D01*
X897385Y537335D01*
X895552Y538140D01*
X895524Y538147D01*
X895501Y538162D01*
X895040Y538254D01*
X894581Y538355D01*
X894553Y538351D01*
X894526Y538356D01*
X851740D01*
X850764Y538162D01*
X848955Y537412D01*
X848128Y536860D01*
X847575Y536033D01*
X846826Y534223D01*
X846632Y533248D01*
X846632Y518379D01*
X845576Y517323D01*
X830928Y517323D01*
X830563Y517475D01*
X830411Y517840D01*
X830411Y530437D01*
X830361Y530687D01*
X830361Y530942D01*
X829942Y533014D01*
X829942Y533016D01*
Y533017D01*
X829751Y533473D01*
X829559Y533932D01*
X829558Y533933D01*
X829557Y533934D01*
X828416Y535627D01*
X828072Y535969D01*
X827857Y536186D01*
X828011Y537243D01*
X828076Y537456D01*
X829968D01*
X830852Y537631D01*
X831601Y538132D01*
X840966Y547497D01*
X841467Y548246D01*
X841642Y549130D01*
Y558384D01*
X843684Y560426D01*
X853377D01*
X854261Y560601D01*
X855010Y561102D01*
X860341Y566433D01*
X860842Y567182D01*
X861017Y568066D01*
Y571734D01*
X862099Y572815D01*
X862708Y574285D01*
Y575877D01*
X862099Y577347D01*
X861040Y578406D01*
X860973Y578548D01*
X860960Y579852D01*
X861141Y579973D01*
X863793Y582625D01*
X869313Y582912D01*
X869830Y581751D01*
X869387Y581309D01*
X868186Y579229D01*
X867565Y576909D01*
Y574508D01*
X868186Y572189D01*
X869387Y570109D01*
X871085Y568411D01*
X873165Y567210D01*
X875484Y566589D01*
X877885D01*
X880205Y567210D01*
X880213Y567215D01*
X881222Y566331D01*
X881000Y565796D01*
Y564204D01*
X881609Y562734D01*
X882734Y561609D01*
X882864Y560274D01*
X882266Y559568D01*
X879762D01*
X878879Y559393D01*
X878131Y558893D01*
X868238Y549000D01*
X866704D01*
X865234Y548391D01*
X864109Y547266D01*
X863500Y545796D01*
Y544204D01*
X864109Y542734D01*
X865234Y541609D01*
X866704Y541000D01*
X868296D01*
X869766Y541609D01*
X870891Y542734D01*
X871500Y544204D01*
Y545738D01*
X880717Y554956D01*
X883997D01*
X884879Y555131D01*
X885627Y555631D01*
X896631Y566635D01*
X897131Y567383D01*
X897306Y568265D01*
Y571650D01*
X898391Y572734D01*
X899000Y574204D01*
Y575796D01*
X898391Y577266D01*
X897407Y578250D01*
X898391Y579234D01*
X899000Y580704D01*
Y582296D01*
X898391Y583766D01*
X897266Y584891D01*
X895796Y585500D01*
X894970D01*
X894339Y586379D01*
X894201Y586508D01*
X894096Y586666D01*
X890471Y590290D01*
Y595607D01*
X890891Y596026D01*
X891500Y597496D01*
Y599088D01*
X890891Y600558D01*
X889766Y601683D01*
X888296Y602292D01*
X886704D01*
X885234Y601683D01*
X884109Y600558D01*
X883500Y599088D01*
Y598968D01*
X882266Y598406D01*
X880796Y599015D01*
X879204D01*
X877734Y598406D01*
X876609Y597281D01*
X876000Y595811D01*
Y594219D01*
X876609Y592749D01*
X877734Y591624D01*
X879204Y591015D01*
X880796D01*
X882266Y591624D01*
X883391Y592749D01*
X883791Y593714D01*
X885043Y594207D01*
X885264Y594205D01*
X885859Y593851D01*
Y589335D01*
X886034Y588452D01*
X886534Y587704D01*
X887180Y587058D01*
X886654Y585788D01*
X886174D01*
X884953Y585282D01*
X882324Y586516D01*
X882324Y586518D01*
X882236Y586558D01*
X882213Y586563D01*
X881187Y586988D01*
X879855Y587540D01*
X876685Y587958D01*
X876062Y587876D01*
X876034Y587880D01*
X865912Y587354D01*
X865486Y588603D01*
X865837Y589129D01*
X866013Y590012D01*
Y595870D01*
X871148Y601006D01*
X871648Y601754D01*
X871824Y602636D01*
Y602759D01*
X872565Y603500D01*
X873296D01*
X874766Y604109D01*
X875891Y605234D01*
X876500Y606704D01*
Y608296D01*
X875891Y609766D01*
X874766Y610891D01*
X873296Y611500D01*
X871704D01*
X870234Y610891D01*
X869478Y610135D01*
X869109Y609766D01*
X867867Y610086D01*
X867711Y610243D01*
X867540Y610314D01*
Y613045D01*
X867345Y614026D01*
X866789Y614858D01*
X863735Y617912D01*
X864261Y619182D01*
X864756D01*
X866226Y619791D01*
X867351Y620916D01*
X867960Y622387D01*
Y623978D01*
X867403Y625322D01*
X867401Y625331D01*
X867418Y625634D01*
X867827Y626768D01*
X868467Y627033D01*
X869451Y628017D01*
X869984Y629304D01*
Y630696D01*
X869451Y631983D01*
X868467Y632967D01*
X867180Y633500D01*
X866916D01*
X866880Y633536D01*
X866877Y633540D01*
X863512Y636906D01*
X864037Y638176D01*
X864399D01*
X865282Y638351D01*
X866030Y638851D01*
X867785Y640607D01*
X869040Y640516D01*
X869528Y639669D01*
Y639567D01*
X871159D01*
X872138Y638862D01*
Y631138D01*
X876081D01*
X876413Y631000D01*
X878005D01*
X878337Y631138D01*
X887862D01*
Y633963D01*
X888088Y634007D01*
X888915Y634560D01*
X889206Y634851D01*
X902050D01*
X902296Y634900D01*
X920450D01*
Y644900D01*
Y655900D01*
X902296D01*
X902050Y655949D01*
X889671D01*
X886477Y659143D01*
X887575Y660241D01*
X888184Y661711D01*
Y662902D01*
X890133Y664851D01*
X902050D01*
X902296Y664900D01*
X920450D01*
Y674900D01*
Y684626D01*
X925158D01*
X925700Y683920D01*
Y681880D01*
X926228Y679909D01*
X927249Y678141D01*
X928691Y676699D01*
X930459Y675678D01*
X932430Y675150D01*
X934470D01*
X936441Y675678D01*
X938209Y676699D01*
X939651Y678141D01*
X940672Y679909D01*
X941200Y681880D01*
Y683920D01*
X940672Y685891D01*
X939651Y687659D01*
X938209Y689101D01*
X936441Y690122D01*
X936087Y690217D01*
X935874Y690650D01*
Y709016D01*
X943450D01*
X946008Y709352D01*
X948392Y710340D01*
X950439Y711911D01*
X952010Y713958D01*
X952998Y716342D01*
X953335Y718900D01*
X952998Y721458D01*
X952010Y723842D01*
X950439Y725889D01*
X948392Y727460D01*
X946008Y728448D01*
X943450Y728784D01*
X923450D01*
X920892Y728448D01*
X918508Y727460D01*
X916461Y725889D01*
X915084Y724096D01*
X913647Y723737D01*
X913517Y723866D01*
X912047Y724475D01*
X910456D01*
X908986Y723866D01*
X907860Y722741D01*
X907251Y721271D01*
Y719680D01*
X907860Y718210D01*
X908945Y717125D01*
Y715321D01*
X905931Y712306D01*
X900915D01*
X900389Y713576D01*
X904131Y717318D01*
X904631Y718066D01*
X904806Y718949D01*
Y727024D01*
X904631Y727907D01*
X904131Y728655D01*
X899806Y732980D01*
Y749122D01*
X924917Y774232D01*
X925070Y774312D01*
X926554Y774378D01*
X927932Y773457D01*
X930000Y773046D01*
X932068Y773457D01*
X933821Y774629D01*
X934993Y776382D01*
X935404Y778450D01*
Y783550D01*
X934993Y785618D01*
X933821Y787371D01*
X932068Y788542D01*
X930000Y788954D01*
X928338Y788623D01*
X924393Y792568D01*
X924879Y793741D01*
X948218D01*
X948704Y792568D01*
D02*
G37*
G36*
X679894Y792471D02*
X679589Y792268D01*
X666322Y779000D01*
X664788D01*
X663317Y778391D01*
X662465Y779308D01*
X663391Y780234D01*
X664000Y781704D01*
Y783296D01*
X663391Y784766D01*
X662266Y785891D01*
X660796Y786500D01*
X659204D01*
X657734Y785891D01*
X656609Y784766D01*
X656000Y783296D01*
Y781704D01*
X656609Y780234D01*
X657734Y779109D01*
X659204Y778500D01*
X660796D01*
X662266Y779109D01*
X663119Y778192D01*
X662192Y777266D01*
X661583Y775796D01*
Y774204D01*
X662192Y772734D01*
X663317Y771609D01*
X664788Y771000D01*
X666379D01*
X667849Y771609D01*
X668974Y772734D01*
X669583Y774204D01*
Y775738D01*
X682176Y788331D01*
X705500D01*
Y779316D01*
X704230Y778613D01*
X703296Y779000D01*
X701704D01*
X700234Y778391D01*
X699109Y777266D01*
X698581Y775990D01*
X687545Y764955D01*
X686793Y763829D01*
X686528Y762500D01*
Y750459D01*
X685500Y749875D01*
X684500D01*
Y749875D01*
X680596D01*
X679748Y751145D01*
X679859Y751413D01*
Y753004D01*
X679250Y754475D01*
X678125Y755600D01*
X676655Y756209D01*
X675063D01*
X673593Y755600D01*
X672508Y754515D01*
X668746D01*
X664000Y759262D01*
Y760796D01*
X663391Y762266D01*
X662266Y763391D01*
X660796Y764000D01*
X659204D01*
X657734Y763391D01*
X656609Y762266D01*
X656000Y760796D01*
Y759204D01*
X656609Y757734D01*
X657734Y756609D01*
X659204Y756000D01*
X660738D01*
X665593Y751145D01*
X665500Y749875D01*
X664500D01*
X664230Y749875D01*
X655500D01*
Y731375D01*
X656422D01*
X656948Y730105D01*
X656609Y729766D01*
X656000Y728296D01*
Y726704D01*
X656609Y725234D01*
X657734Y724109D01*
X659204Y723500D01*
X660796D01*
X662266Y724109D01*
X663391Y725234D01*
X664000Y726704D01*
Y728296D01*
X663391Y729766D01*
X663052Y730105D01*
X663578Y731375D01*
X664500Y731375D01*
X665500D01*
X665770Y731375D01*
X666422D01*
X666948Y730105D01*
X666609Y729766D01*
X666000Y728296D01*
Y726704D01*
X666609Y725234D01*
X667734Y724109D01*
X669204Y723500D01*
X670796D01*
X672266Y724109D01*
X673391Y725234D01*
X674000Y726704D01*
Y728296D01*
X673391Y729766D01*
X673375Y729782D01*
X673748Y731087D01*
X674500Y731375D01*
X675500D01*
Y731375D01*
X675770Y731375D01*
X677436D01*
Y728689D01*
X677631Y727708D01*
X678187Y726876D01*
X679376Y725687D01*
X680208Y725131D01*
X681189Y724936D01*
X701907D01*
X702734Y724109D01*
X704204Y723500D01*
X705796D01*
X707266Y724109D01*
X708391Y725234D01*
X709000Y726704D01*
Y728296D01*
X708391Y729766D01*
X707266Y730891D01*
X705796Y731500D01*
X705540D01*
Y739355D01*
X700000D01*
Y740625D01*
X698730D01*
Y750915D01*
X694460D01*
X693472Y751595D01*
Y761062D01*
X703490Y771081D01*
X704230Y771387D01*
X705500Y770684D01*
Y768875D01*
X720500D01*
Y788331D01*
X791663D01*
X796282Y783712D01*
X795756Y782442D01*
X752827D01*
X751846Y782246D01*
X751014Y781691D01*
X747164Y777841D01*
X747000Y777874D01*
X741000D01*
X739537Y777582D01*
X738296Y776754D01*
X737468Y775513D01*
X737177Y774050D01*
X737468Y772587D01*
X738296Y771346D01*
X739537Y770518D01*
X741000Y770227D01*
X747000D01*
X748463Y770518D01*
X749704Y771346D01*
X750532Y772587D01*
X750824Y774050D01*
X750791Y774214D01*
X753889Y777313D01*
X794143D01*
X794822Y776043D01*
X794468Y775513D01*
X794400Y775173D01*
X792773Y773546D01*
X792020Y772420D01*
X791756Y771091D01*
Y769395D01*
X791609Y769248D01*
X791000Y767778D01*
Y766186D01*
X791609Y764716D01*
X792734Y763591D01*
X793373Y763326D01*
X794206Y762936D01*
X794249Y761712D01*
X794176Y761350D01*
X794292Y760770D01*
X794130Y759672D01*
X793406Y759210D01*
X792451Y758815D01*
X791185Y757549D01*
X790500Y755895D01*
Y754105D01*
X791185Y752451D01*
X792451Y751185D01*
X793406Y750790D01*
X794130Y750328D01*
X794292Y749230D01*
X794176Y748650D01*
X794252Y748270D01*
X794108Y747026D01*
X793369Y746695D01*
X792451Y746315D01*
X791185Y745049D01*
X790500Y743395D01*
Y741605D01*
X791185Y739951D01*
X792451Y738685D01*
X793500Y738251D01*
X794163Y737677D01*
X794332Y736730D01*
X794176Y735950D01*
X794209Y735786D01*
X792973Y734549D01*
X757923D01*
X756941Y734354D01*
X756109Y733798D01*
X754861Y732549D01*
X723577D01*
X721294Y734832D01*
X721592Y736330D01*
X722266Y736609D01*
X723391Y737734D01*
X724000Y739204D01*
Y740796D01*
X723613Y741730D01*
X724000Y743000D01*
X724000D01*
Y752000D01*
X717422D01*
X716896Y753270D01*
X718876Y755250D01*
X734750D01*
Y757878D01*
X739446D01*
X739537Y757818D01*
X741000Y757527D01*
X747000D01*
X748463Y757818D01*
X749704Y758646D01*
X750532Y759887D01*
X750824Y761350D01*
X750532Y762813D01*
X749704Y764054D01*
X748463Y764882D01*
X747000Y765173D01*
X741000D01*
X739537Y764882D01*
X739446Y764822D01*
X731350D01*
X730990Y764750D01*
X715250D01*
Y758876D01*
X710687Y754313D01*
X710131Y753481D01*
X709936Y752500D01*
Y740000D01*
X710131Y739019D01*
X710687Y738187D01*
X720702Y728172D01*
X721534Y727616D01*
X722515Y727421D01*
X755923D01*
X756904Y727616D01*
X757736Y728172D01*
X758985Y729421D01*
X794035D01*
X795016Y729616D01*
X795848Y730172D01*
X797836Y732159D01*
X798000Y732127D01*
X804000D01*
X805463Y732418D01*
X806704Y733246D01*
X806797Y733386D01*
X811000D01*
Y733000D01*
X815874D01*
X821273Y727600D01*
Y707145D01*
X815098D01*
Y706277D01*
X810989D01*
Y707226D01*
X806027D01*
X805779Y707275D01*
X804578D01*
X804233Y708108D01*
X803108Y709233D01*
X801638Y709842D01*
X800047D01*
X798576Y709233D01*
X797451Y708108D01*
X797292Y707723D01*
X796054Y707477D01*
X795064Y708349D01*
Y713134D01*
X800430Y718500D01*
X800796D01*
X802266Y719109D01*
X803391Y720234D01*
X804000Y721704D01*
Y723296D01*
X803391Y724766D01*
X802266Y725891D01*
X800796Y726500D01*
X799204D01*
X797734Y725891D01*
X796609Y724766D01*
X796000Y723296D01*
Y721704D01*
X796112Y721434D01*
X790687Y716010D01*
X790131Y715178D01*
X789936Y714196D01*
Y707092D01*
X790131Y706111D01*
X790687Y705279D01*
X790917Y705049D01*
X790619Y703550D01*
X790234Y703391D01*
X789109Y702266D01*
X788500Y700796D01*
Y699204D01*
X789109Y697734D01*
X790234Y696609D01*
X790522Y696490D01*
X790269Y695220D01*
X788460D01*
Y681220D01*
X807082D01*
X807509Y680581D01*
Y679189D01*
X808042Y677902D01*
X809026Y676918D01*
X810313Y676385D01*
X811705D01*
X812991Y676918D01*
X813976Y677902D01*
X814509Y679189D01*
Y680581D01*
X814936Y681220D01*
X835677D01*
X836525Y679950D01*
X836512Y679916D01*
Y678524D01*
X837044Y677238D01*
X838029Y676253D01*
X839315Y675720D01*
X840708D01*
X841994Y676253D01*
X842979Y677238D01*
X843511Y678524D01*
Y679916D01*
X843498Y679950D01*
X844346Y681220D01*
X847460D01*
Y670220D01*
Y658220D01*
Y646220D01*
Y634220D01*
Y624220D01*
X831194D01*
X830960Y624570D01*
Y626161D01*
X830351Y627632D01*
X829226Y628757D01*
X827756Y629366D01*
X826164D01*
X824694Y628757D01*
X823569Y627632D01*
X822960Y626161D01*
Y624570D01*
X822726Y624220D01*
X790460D01*
Y638220D01*
Y650220D01*
Y662220D01*
Y675220D01*
X783596D01*
X783360Y675267D01*
X778480D01*
X773881Y679865D01*
X773087Y680396D01*
X772151Y680582D01*
X770101D01*
X769987Y680559D01*
X767789D01*
X766722Y681626D01*
X765252Y682235D01*
X763661D01*
X762191Y681626D01*
X761065Y680501D01*
X760456Y679031D01*
Y677440D01*
X761065Y675969D01*
X762191Y674844D01*
X763203Y674425D01*
X764321Y673804D01*
Y672213D01*
X764930Y670743D01*
X766055Y669618D01*
X766298Y669517D01*
X766045Y668247D01*
X759881D01*
X748097Y680030D01*
X747572Y680381D01*
X747388Y681135D01*
X747374Y681312D01*
X747423Y681832D01*
X749034Y683442D01*
X750290Y685618D01*
X750936Y688030D01*
X741400D01*
X731864D01*
X732510Y685618D01*
X733766Y683442D01*
X735191Y682017D01*
X734695Y680747D01*
X731933D01*
X730997Y680561D01*
X730203Y680030D01*
X725770Y675598D01*
X725769D01*
X724500Y675983D01*
Y677719D01*
X723921Y679881D01*
X722802Y681819D01*
X721219Y683402D01*
X719281Y684521D01*
X717119Y685100D01*
X714881D01*
X712719Y684521D01*
X710781Y683402D01*
X709198Y681819D01*
X708079Y679881D01*
X707500Y677719D01*
Y675481D01*
X708079Y673319D01*
X709198Y671381D01*
X710781Y669798D01*
X712719Y668679D01*
X712411Y667447D01*
X711840D01*
X710903Y667261D01*
X710109Y666730D01*
X706244Y662866D01*
X705017Y663343D01*
X704917Y664260D01*
X705891Y665234D01*
X706500Y666704D01*
Y668296D01*
X705891Y669766D01*
X704766Y670891D01*
X703296Y671500D01*
X701704D01*
X700234Y670891D01*
X699109Y669766D01*
X698500Y668296D01*
Y666704D01*
X699109Y665234D01*
X700194Y664149D01*
Y661087D01*
X698507Y659401D01*
X698007Y658653D01*
X697832Y657770D01*
Y625195D01*
X696562Y624346D01*
X696076Y624547D01*
X695482D01*
X694925Y625104D01*
Y661768D01*
X695891Y662734D01*
X696500Y664204D01*
Y665796D01*
X695891Y667266D01*
X694766Y668391D01*
X693296Y669000D01*
X691704D01*
X691076Y668740D01*
X689806Y669588D01*
Y674149D01*
X690891Y675234D01*
X691500Y676704D01*
Y678296D01*
X690891Y679766D01*
X689766Y680891D01*
X688296Y681500D01*
X686704D01*
X685234Y680891D01*
X684109Y679766D01*
X683500Y678296D01*
Y676704D01*
X684109Y675234D01*
X685194Y674149D01*
Y669588D01*
X683924Y668740D01*
X683296Y669000D01*
X681704D01*
X681337Y668848D01*
X680067Y669696D01*
Y695145D01*
X681223Y696150D01*
X684777D01*
X688211Y697070D01*
X691289Y698847D01*
X693803Y701361D01*
X695580Y704439D01*
X696500Y707873D01*
Y711427D01*
X695580Y714861D01*
X693803Y717939D01*
X691289Y720453D01*
X688211Y722230D01*
X684777Y723150D01*
X681223D01*
X677789Y722230D01*
X674711Y720453D01*
X672197Y717939D01*
X670420Y714861D01*
X669500Y711427D01*
Y707873D01*
X670420Y704439D01*
X672197Y701361D01*
X673812Y699746D01*
X673388Y699110D01*
X673123Y697782D01*
Y578232D01*
X673388Y576904D01*
X674140Y575777D01*
X678990Y570927D01*
Y567552D01*
X677789Y567230D01*
X674711Y565453D01*
X672197Y562939D01*
X670420Y559861D01*
X669500Y556427D01*
Y552873D01*
X670420Y549439D01*
X672197Y546361D01*
X674711Y543847D01*
X675657Y543301D01*
X675328Y542074D01*
X632291D01*
X614694Y559672D01*
X615326Y560768D01*
X615950Y563095D01*
Y565505D01*
X615326Y567832D01*
X614122Y569918D01*
X612418Y571622D01*
X610332Y572826D01*
X608005Y573450D01*
X605595D01*
X603268Y572826D01*
X601182Y571622D01*
X599478Y569918D01*
X598274Y567832D01*
X597650Y565505D01*
Y563095D01*
X598274Y560768D01*
X599478Y558682D01*
X601182Y556978D01*
X603268Y555774D01*
X605595Y555150D01*
X608005D01*
X610332Y555774D01*
X611428Y556406D01*
X628419Y539415D01*
X627933Y538242D01*
X516438Y538242D01*
X514162Y538554D01*
X512039Y539389D01*
X507617Y542871D01*
X504323Y548124D01*
X503434Y551054D01*
X503108Y554281D01*
X503451Y557458D01*
X504399Y560477D01*
X505914Y563254D01*
X507963Y565707D01*
X510453Y567711D01*
X513258Y569175D01*
X516293Y570068D01*
X519614Y570365D01*
X574634Y570365D01*
X574750Y570388D01*
X574868Y570376D01*
X578656Y570725D01*
X578901Y570798D01*
X579156Y570822D01*
X582691Y571885D01*
X582912Y572003D01*
X583152Y572075D01*
X586358Y573778D01*
X586549Y573934D01*
X586766Y574049D01*
X589566Y576317D01*
X589723Y576505D01*
X589913Y576657D01*
X592232Y579416D01*
X592351Y579631D01*
X592510Y579819D01*
X594271Y582993D01*
X594347Y583232D01*
X594469Y583451D01*
X595597Y586966D01*
X595626Y587220D01*
X595703Y587464D01*
X596121Y591245D01*
X596097Y591525D01*
X596121Y591804D01*
X595705Y595586D01*
X595628Y595831D01*
X595599Y596085D01*
X594473Y599602D01*
X594351Y599821D01*
X594274Y600060D01*
X592514Y603236D01*
X592355Y603424D01*
X592236Y603640D01*
X589918Y606400D01*
X589727Y606553D01*
X589571Y606741D01*
X586770Y609010D01*
X586552Y609125D01*
X586362Y609281D01*
X583156Y610985D01*
X582915Y611057D01*
X582694Y611175D01*
X579158Y612239D01*
X578903Y612264D01*
X578657Y612337D01*
X574868Y612686D01*
X574750Y612673D01*
X574634Y612696D01*
X429392Y612696D01*
X426015Y613056D01*
X423023Y614001D01*
X420315Y615485D01*
X417954Y617445D01*
X416007Y619818D01*
X414539Y622534D01*
X413612Y625532D01*
X413288Y628749D01*
X413630Y631913D01*
X414578Y634931D01*
X416093Y637709D01*
X418142Y640162D01*
X420633Y642166D01*
X423437Y643630D01*
X426473Y644522D01*
X429794Y644820D01*
X539720Y644820D01*
X539836Y644843D01*
X539953Y644831D01*
X543743Y645180D01*
X543988Y645253D01*
X544244Y645277D01*
X547779Y646342D01*
X548001Y646459D01*
X548241Y646532D01*
X551447Y648236D01*
X551638Y648392D01*
X551856Y648506D01*
X554656Y650776D01*
X554813Y650964D01*
X555003Y651117D01*
X557322Y653877D01*
X557440Y654093D01*
X557600Y654280D01*
X559360Y657456D01*
X559437Y657695D01*
X559558Y657915D01*
X560685Y661431D01*
X560714Y661685D01*
X560791Y661928D01*
X561209Y665711D01*
X561185Y665988D01*
X561210Y666265D01*
X560812Y669943D01*
X560737Y670183D01*
X560710Y670433D01*
X559613Y673929D01*
X559493Y674148D01*
X559418Y674387D01*
X557663Y677604D01*
X557502Y677797D01*
X557381Y678017D01*
X555010Y680856D01*
X554813Y681015D01*
X554651Y681208D01*
X551769Y683528D01*
X551547Y683644D01*
X551351Y683801D01*
X548103Y685498D01*
X547863Y685568D01*
X547642Y685684D01*
X544126Y686717D01*
X543875Y686740D01*
X543634Y686810D01*
X539950Y687141D01*
X539835Y687129D01*
X539722Y687151D01*
X396342Y687151D01*
X391870Y687642D01*
X387946Y689188D01*
X384561Y691702D01*
X381908Y695079D01*
X380244Y699039D01*
X379691Y703219D01*
X380244Y707399D01*
X381908Y711358D01*
X384561Y714736D01*
X387946Y717250D01*
X391870Y718796D01*
X396342Y719286D01*
X617968Y719286D01*
X618081Y719309D01*
X618195Y719296D01*
X621880Y719627D01*
X622121Y719698D01*
X622371Y719720D01*
X625887Y720753D01*
X626109Y720869D01*
X626348Y720940D01*
X629597Y722636D01*
X629793Y722793D01*
X630015Y722910D01*
X632897Y725229D01*
X633059Y725423D01*
X633256Y725581D01*
X635627Y728420D01*
X635747Y728641D01*
X635908Y728833D01*
X637664Y732050D01*
X637738Y732289D01*
X637858Y732508D01*
X638956Y736005D01*
X638983Y736254D01*
X639058Y736494D01*
X639456Y740172D01*
X639431Y740446D01*
X639456Y740720D01*
X639058Y744398D01*
X638983Y744638D01*
X638956Y744887D01*
X637859Y748384D01*
X637739Y748603D01*
X637664Y748842D01*
X635909Y752059D01*
X635748Y752252D01*
X635627Y752472D01*
X633256Y755311D01*
X633059Y755470D01*
X632898Y755663D01*
X630015Y757982D01*
X629793Y758099D01*
X629597Y758256D01*
X626349Y759953D01*
X626109Y760023D01*
X625888Y760139D01*
X622371Y761172D01*
X622121Y761195D01*
X621880Y761265D01*
X618196Y761596D01*
X618081Y761583D01*
X617968Y761606D01*
X515033Y761606D01*
X493280D01*
X490006Y761930D01*
X487010Y762841D01*
X484248Y764316D01*
X481802Y766322D01*
X479797Y768769D01*
X478324Y771533D01*
X477415Y774529D01*
X477105Y777679D01*
X477416Y780826D01*
X478326Y783821D01*
X479800Y786582D01*
X481806Y789028D01*
X484251Y791033D01*
X487012Y792507D01*
X490007Y793417D01*
X493280Y793741D01*
X679508D01*
X679894Y792471D01*
D02*
G37*
G36*
X876939Y776138D02*
X877873D01*
Y768862D01*
X876939D01*
Y761138D01*
X877873D01*
Y753862D01*
X876939D01*
Y753472D01*
X869531D01*
X869424Y753578D01*
X868815Y755049D01*
X867549Y756315D01*
X865895Y757000D01*
X864105D01*
X862451Y756315D01*
X861185Y755049D01*
X860500Y753395D01*
Y752910D01*
X855045Y747455D01*
X854293Y746329D01*
X854028Y745000D01*
Y733911D01*
X854149Y733304D01*
X852979Y732678D01*
X852266Y733391D01*
X850796Y734000D01*
X849204D01*
X847734Y733391D01*
X846609Y732266D01*
X846000Y730796D01*
Y729262D01*
X843869Y727131D01*
X843369Y726383D01*
X843194Y725500D01*
Y715520D01*
X842500D01*
Y703020D01*
X843421D01*
Y699015D01*
X843616Y698034D01*
X844172Y697202D01*
X844411Y696963D01*
Y695220D01*
X834731D01*
X834478Y696490D01*
X834766Y696609D01*
X835891Y697734D01*
X836500Y699204D01*
Y700796D01*
X835891Y702266D01*
X835064Y703093D01*
Y729889D01*
X837452Y732276D01*
X838008Y733108D01*
X838203Y734090D01*
Y771643D01*
X838008Y772624D01*
X837452Y773456D01*
X829746Y781162D01*
X830272Y782432D01*
X861908D01*
X862175Y781884D01*
X862298Y781162D01*
X861185Y780049D01*
X860500Y778395D01*
Y776605D01*
X861185Y774951D01*
X862451Y773685D01*
X864105Y773000D01*
X865895D01*
X867549Y773685D01*
X868815Y774951D01*
X869500Y776605D01*
Y778395D01*
X868815Y780049D01*
X867702Y781162D01*
X867825Y781884D01*
X868092Y782432D01*
X876939D01*
Y776138D01*
D02*
G37*
G36*
X833074Y770581D02*
Y743776D01*
X831907Y743382D01*
X831804Y743379D01*
X824720Y750463D01*
X823888Y751019D01*
X823335Y751129D01*
X822799Y752389D01*
X825910Y755500D01*
X829000D01*
Y764500D01*
X821000D01*
Y760416D01*
X820109Y759681D01*
X819000Y760155D01*
Y764500D01*
X815910D01*
X815400Y765010D01*
X814273Y765763D01*
X812945Y766027D01*
X805392D01*
X804063Y765763D01*
X803182Y765173D01*
X799677D01*
X799000Y766186D01*
Y767778D01*
X798699Y768503D01*
Y769653D01*
X799273Y770227D01*
X804000D01*
X805463Y770518D01*
X805554Y770578D01*
X811965D01*
X813294Y770843D01*
X813635Y771071D01*
X815757D01*
X816092Y771138D01*
X820291D01*
Y777313D01*
X826342D01*
X833074Y770581D01*
D02*
G37*
G36*
X865638Y747545D02*
X866764Y746793D01*
X868093Y746528D01*
X876939D01*
Y746138D01*
X886349D01*
Y736592D01*
X886525Y735710D01*
X887025Y734962D01*
X894893Y727093D01*
Y725550D01*
X894109Y724766D01*
X893500Y723296D01*
Y721704D01*
X894109Y720234D01*
X895234Y719109D01*
X895872Y718845D01*
X896384Y717327D01*
X896212Y717068D01*
X889464D01*
X889212Y718338D01*
X890049Y718685D01*
X891315Y719951D01*
X892000Y721605D01*
Y723395D01*
X891315Y725049D01*
X890049Y726315D01*
X888395Y727000D01*
X886605D01*
X884951Y726315D01*
X883685Y725049D01*
X883173Y723813D01*
X881827D01*
X881315Y725049D01*
X880049Y726315D01*
X878395Y727000D01*
X876605D01*
X874951Y726315D01*
X873685Y725049D01*
X873000Y723395D01*
Y721605D01*
X873685Y719951D01*
X874951Y718685D01*
X876605Y718000D01*
X878395D01*
X880049Y718685D01*
X881315Y719951D01*
X881827Y721187D01*
X883173D01*
X883685Y719951D01*
X884951Y718685D01*
X885788Y718338D01*
X885536Y717068D01*
X882985D01*
X882103Y716893D01*
X881355Y716393D01*
X873268Y708306D01*
X868533D01*
X868280Y709576D01*
X869000Y709874D01*
X870126Y711000D01*
X870734Y712470D01*
Y714061D01*
X870126Y715531D01*
X869000Y716657D01*
X867530Y717265D01*
X865939D01*
X864469Y716657D01*
X864288Y716476D01*
X863989Y716536D01*
X863715Y717085D01*
X863474Y717933D01*
X864000Y719204D01*
Y720796D01*
X863472Y722071D01*
Y731411D01*
X863207Y732740D01*
X862455Y733866D01*
X860972Y735349D01*
Y743562D01*
X865296Y747887D01*
X865638Y747545D01*
D02*
G37*
G36*
X890369Y711186D02*
X890208Y710796D01*
Y709204D01*
X890817Y707734D01*
X891381Y707170D01*
X890855Y705900D01*
X889650D01*
Y699757D01*
X889639Y699755D01*
X888812Y699202D01*
X886848Y697238D01*
X886295Y696411D01*
X886101Y695435D01*
Y694699D01*
X875645D01*
X874670Y694505D01*
X873843Y693952D01*
X862939Y683049D01*
X861460D01*
Y683220D01*
X859206D01*
X858960Y683269D01*
X854460D01*
X854214Y683220D01*
X849460D01*
Y692306D01*
X849539Y692705D01*
Y698025D01*
X849344Y699006D01*
X848963Y699577D01*
X849949Y700387D01*
X851842Y698493D01*
X852591Y697994D01*
X853473Y697818D01*
X856574D01*
X856609Y697734D01*
X857734Y696609D01*
X859204Y696000D01*
X860796D01*
X862266Y696609D01*
X863391Y697734D01*
X864000Y699204D01*
Y700796D01*
X863391Y702266D01*
X863233Y702424D01*
X863759Y703694D01*
X874223D01*
X875106Y703869D01*
X875854Y704369D01*
X883941Y712456D01*
X889521D01*
X890369Y711186D01*
D02*
G37*
G36*
X920892Y709352D02*
X923450Y709016D01*
X934250D01*
Y690650D01*
X932430D01*
X930459Y690122D01*
X928691Y689101D01*
X927249Y687659D01*
X926435Y686250D01*
X917750D01*
Y694900D01*
X920450D01*
Y705900D01*
X917750D01*
Y709438D01*
X919020Y710128D01*
X920892Y709352D01*
D02*
G37*
G36*
X755901Y640042D02*
X755603Y638544D01*
X755234Y638391D01*
X754109Y637266D01*
X753500Y635796D01*
Y634204D01*
X754109Y632734D01*
X755234Y631609D01*
X756611Y631039D01*
Y628245D01*
X756797Y627308D01*
X757327Y626514D01*
X760356Y623486D01*
X761150Y622955D01*
X762087Y622769D01*
X769202D01*
X769204Y621500D01*
X767734Y620891D01*
X766609Y619766D01*
X766000Y618296D01*
Y616704D01*
X766609Y615234D01*
X767734Y614109D01*
X769204Y613500D01*
X770796D01*
X772266Y614109D01*
X773391Y615234D01*
X773715Y616017D01*
X774313Y616417D01*
X780052Y622156D01*
X783460D01*
X783783Y622220D01*
X788460D01*
Y613058D01*
X788396Y612735D01*
Y603040D01*
X788591Y602059D01*
X789147Y601227D01*
X796000Y594374D01*
Y588689D01*
X794100D01*
Y590100D01*
X785900D01*
Y585526D01*
X782687Y582313D01*
X782131Y581481D01*
X781936Y580500D01*
Y573500D01*
X773500D01*
X773500Y573500D01*
Y573500D01*
X772266Y573391D01*
X770796Y574000D01*
X769204D01*
X767734Y573391D01*
X766609Y572266D01*
X766000Y570796D01*
Y569204D01*
X766609Y567734D01*
X767734Y566609D01*
X769204Y566000D01*
X770796D01*
X772266Y566609D01*
X773500Y566047D01*
Y546836D01*
X753925D01*
X751631Y549131D01*
X750883Y549631D01*
X750000Y549806D01*
X747088D01*
X746240Y551076D01*
X746500Y551704D01*
Y553238D01*
X764131Y570869D01*
X764631Y571617D01*
X764806Y572500D01*
Y602236D01*
X765891Y603321D01*
X766500Y604791D01*
Y606382D01*
X765891Y607853D01*
X764766Y608978D01*
X763296Y609587D01*
X761704D01*
X760234Y608978D01*
X759109Y607853D01*
X758735Y606949D01*
X757482Y606093D01*
X755891D01*
X754420Y605484D01*
X753295Y604359D01*
X752686Y602889D01*
Y601297D01*
X753295Y599827D01*
X754380Y598743D01*
Y577641D01*
X733238Y556500D01*
X731704D01*
X730234Y555891D01*
X729109Y554766D01*
X728500Y553296D01*
Y551704D01*
X728579Y551515D01*
X727838Y550339D01*
X726805Y550258D01*
X711736Y565327D01*
X712222Y566500D01*
X724500D01*
Y583500D01*
X707500D01*
Y582709D01*
X706327Y582223D01*
X702444Y586105D01*
Y616275D01*
X703618Y616761D01*
X709009Y611370D01*
X709803Y610839D01*
X710740Y610653D01*
X720996D01*
X721522Y609383D01*
X720029Y607889D01*
X719281Y608321D01*
X717119Y608900D01*
X714881D01*
X712719Y608321D01*
X710781Y607202D01*
X709198Y605619D01*
X708079Y603681D01*
X707500Y601519D01*
Y599281D01*
X708079Y597119D01*
X709198Y595181D01*
X710781Y593598D01*
X712719Y592479D01*
X714881Y591900D01*
X717119D01*
X719281Y592479D01*
X721219Y593598D01*
X722802Y595181D01*
X723921Y597119D01*
X724500Y599281D01*
Y601519D01*
X723921Y603681D01*
X723489Y604428D01*
X726658Y607598D01*
X727189Y608391D01*
X727375Y609328D01*
Y610653D01*
X733256D01*
X733479Y609819D01*
X734598Y607881D01*
X736181Y606298D01*
X738119Y605179D01*
X740281Y604600D01*
X742519D01*
X744681Y605179D01*
X746619Y606298D01*
X748202Y607881D01*
X749321Y609819D01*
X749900Y611981D01*
Y614219D01*
X749321Y616381D01*
X748202Y618319D01*
X746619Y619902D01*
X744681Y621021D01*
X742519Y621600D01*
X740281D01*
X738119Y621021D01*
X736181Y619902D01*
X734598Y618319D01*
X733479Y616381D01*
X733256Y615547D01*
X728327D01*
X725744Y618130D01*
X724950Y618661D01*
X724014Y618847D01*
X722864D01*
X722338Y620117D01*
X722802Y620581D01*
X723921Y622519D01*
X724500Y624681D01*
Y626919D01*
X723921Y629081D01*
X723489Y629828D01*
X730476Y636815D01*
X731006Y637609D01*
X731630Y637971D01*
X732809Y637423D01*
X732923Y637296D01*
X733479Y635219D01*
X734598Y633281D01*
X736181Y631698D01*
X738119Y630579D01*
X740281Y630000D01*
X742519D01*
X744681Y630579D01*
X746619Y631698D01*
X748202Y633281D01*
X749321Y635219D01*
X749900Y637381D01*
Y639619D01*
X749561Y640883D01*
X750514Y642153D01*
X753790D01*
X755901Y640042D01*
D02*
G37*
G36*
X816701Y605030D02*
X818171Y604421D01*
X819762D01*
X821232Y605030D01*
X821299Y605097D01*
X822041Y605489D01*
X823166Y604364D01*
X824637Y603755D01*
X826228D01*
X827582Y604316D01*
X828156Y604109D01*
X828852Y603722D01*
Y587113D01*
X827773Y586035D01*
X826600Y586521D01*
Y590100D01*
X818400D01*
Y588564D01*
X816862D01*
Y598862D01*
X810900D01*
X810653Y598912D01*
X808161D01*
X803318Y603755D01*
X803607Y604809D01*
X804458Y604966D01*
X805161Y604263D01*
X806447Y603731D01*
X807839D01*
X809126Y604263D01*
X810110Y605248D01*
X811003Y604853D01*
X811015Y604841D01*
X812302Y604308D01*
X813694D01*
X814981Y604841D01*
X815936Y605796D01*
X816701Y605030D01*
D02*
G37*
G36*
X846116Y609946D02*
X846336Y609727D01*
X847168Y609171D01*
X848149Y608976D01*
X860852D01*
X861557Y607920D01*
X861445Y607648D01*
Y606056D01*
X862054Y604586D01*
X863179Y603461D01*
X864649Y602852D01*
X864675D01*
X865201Y601582D01*
X862076Y598456D01*
X861576Y597708D01*
X861400Y596826D01*
Y590967D01*
X861220Y590787D01*
X855361D01*
X854479Y590611D01*
X853731Y590111D01*
X852875Y589255D01*
X845421D01*
X843709Y590967D01*
Y608711D01*
X844353Y609354D01*
X844710Y609889D01*
X845720Y609995D01*
X846116Y609946D01*
D02*
G37*
G36*
X694808Y578665D02*
Y572411D01*
X694983Y571528D01*
X695483Y570780D01*
X697694Y568569D01*
Y556879D01*
X696424Y556712D01*
X695580Y559861D01*
X693803Y562939D01*
X691289Y565453D01*
X688211Y567230D01*
X685934Y567840D01*
Y572365D01*
X685670Y573694D01*
X684917Y574820D01*
X680067Y579670D01*
Y591610D01*
X681337Y592136D01*
X694808Y578665D01*
D02*
G37*
G36*
X796000Y582000D02*
X802184D01*
X802437Y581490D01*
X802573Y580730D01*
X801609Y579766D01*
X801000Y578296D01*
Y576704D01*
X801609Y575234D01*
X802734Y574109D01*
X804204Y573500D01*
X805796D01*
X807266Y574109D01*
X808391Y575234D01*
X809000Y576704D01*
Y578296D01*
X808391Y579766D01*
X808289Y579868D01*
X808815Y581138D01*
X816862D01*
Y583436D01*
X818400D01*
Y581900D01*
X819936D01*
Y573500D01*
X814500D01*
Y548530D01*
X813215D01*
X811745Y547921D01*
X810660Y546836D01*
X795500D01*
Y573500D01*
X787064D01*
Y579438D01*
X789526Y581900D01*
X794100D01*
Y583561D01*
X796000D01*
Y582000D01*
D02*
G37*
%LPC*%
G36*
X942700Y747954D02*
X940632Y747542D01*
X938879Y746371D01*
X937708Y744618D01*
X937296Y742550D01*
Y737450D01*
X937708Y735382D01*
X938879Y733629D01*
X940632Y732458D01*
X942700Y732046D01*
X944768Y732458D01*
X946521Y733629D01*
X947692Y735382D01*
X948104Y737450D01*
Y742550D01*
X947692Y744618D01*
X946521Y746371D01*
X944768Y747542D01*
X942700Y747954D01*
D02*
G37*
G36*
X933958Y645650D02*
X932942D01*
X931935Y645517D01*
X930954Y645254D01*
X930015Y644866D01*
X929135Y644358D01*
X928329Y643739D01*
X927611Y643021D01*
X926992Y642215D01*
X926484Y641335D01*
X926096Y640396D01*
X925833Y639415D01*
X925700Y638408D01*
Y637392D01*
X925833Y636385D01*
X926096Y635404D01*
X926484Y634465D01*
X926992Y633585D01*
X927611Y632779D01*
X928329Y632061D01*
X929135Y631442D01*
X930015Y630934D01*
X930665Y630665D01*
X930632Y630632D01*
X932430Y630150D01*
X934470D01*
X936441Y630678D01*
X938209Y631698D01*
X939651Y633141D01*
X940672Y634909D01*
X941200Y636880D01*
Y638920D01*
X940672Y640891D01*
X939651Y642659D01*
X938209Y644101D01*
X938000Y644222D01*
Y644177D01*
X937765Y644358D01*
X936885Y644866D01*
X935947Y645254D01*
X934965Y645517D01*
X933958Y645650D01*
D02*
G37*
G36*
X878005Y629629D02*
X876413D01*
X874943Y629020D01*
X874785Y628862D01*
X872138D01*
Y621138D01*
X887862D01*
Y621351D01*
X889650D01*
Y614900D01*
X907593D01*
X908442Y613630D01*
X908262Y613196D01*
Y611604D01*
X908871Y610134D01*
X909996Y609009D01*
X911466Y608400D01*
X913058D01*
X914528Y609009D01*
X915653Y610134D01*
X916262Y611604D01*
Y613196D01*
X916082Y613630D01*
X916931Y614900D01*
X920450D01*
Y625900D01*
X893157D01*
X892626Y626255D01*
X891650Y626449D01*
X887862D01*
Y628862D01*
X879633D01*
X879475Y629020D01*
X878005Y629629D01*
D02*
G37*
G36*
X943450Y611785D02*
X923450D01*
X920892Y611448D01*
X918508Y610460D01*
X916461Y608889D01*
X914890Y606842D01*
X913902Y604458D01*
X913566Y601900D01*
X913902Y599342D01*
X914890Y596958D01*
X916461Y594911D01*
X918508Y593340D01*
X920892Y592352D01*
X923450Y592015D01*
X936528D01*
Y589500D01*
X936000D01*
Y580500D01*
X944000D01*
Y589500D01*
X943472D01*
Y592018D01*
X946008Y592352D01*
X948392Y593340D01*
X950439Y594911D01*
X952010Y596958D01*
X952998Y599342D01*
X953335Y601900D01*
X952998Y604458D01*
X952010Y606842D01*
X950439Y608889D01*
X948392Y610460D01*
X946008Y611448D01*
X943450Y611785D01*
D02*
G37*
G36*
X869270Y564000D02*
X867679D01*
X866209Y563391D01*
X865084Y562266D01*
X864475Y560796D01*
Y559204D01*
X865084Y557734D01*
X866209Y556609D01*
X867679Y556000D01*
X869270D01*
X870741Y556609D01*
X871866Y557734D01*
X872475Y559204D01*
Y560796D01*
X871866Y562266D01*
X870741Y563391D01*
X869270Y564000D01*
D02*
G37*
G36*
X838296Y539000D02*
X836704D01*
X835234Y538391D01*
X834109Y537266D01*
X833500Y535796D01*
Y534204D01*
X834109Y532734D01*
X835234Y531609D01*
X836704Y531000D01*
X838296D01*
X839766Y531609D01*
X840891Y532734D01*
X841500Y534204D01*
Y535796D01*
X840891Y537266D01*
X839766Y538391D01*
X838296Y539000D01*
D02*
G37*
G36*
X654500Y789875D02*
X639500D01*
Y789497D01*
X639208Y788348D01*
X638230Y788348D01*
X486227D01*
Y769383D01*
X638441D01*
X639500Y768875D01*
X640267Y768875D01*
X654500D01*
Y789875D01*
D02*
G37*
G36*
X747000Y752474D02*
X741000D01*
X739537Y752182D01*
X739446Y752122D01*
X730650D01*
X730038Y752000D01*
X726000D01*
Y743000D01*
X734000D01*
Y745178D01*
X739446D01*
X739537Y745118D01*
X741000Y744827D01*
X747000D01*
X748463Y745118D01*
X749704Y745946D01*
X750532Y747187D01*
X750824Y748650D01*
X750532Y750113D01*
X749704Y751354D01*
X748463Y752182D01*
X747000Y752474D01*
D02*
G37*
G36*
X701270Y750915D02*
Y741895D01*
X705540D01*
Y750915D01*
X701270D01*
D02*
G37*
G36*
X775796Y706500D02*
X774204D01*
X772734Y705891D01*
X771609Y704766D01*
X771000Y703296D01*
Y701704D01*
X771609Y700234D01*
X772734Y699109D01*
X774204Y698500D01*
X775796D01*
X777266Y699109D01*
X778391Y700234D01*
X779000Y701704D01*
Y703296D01*
X778391Y704766D01*
X777266Y705891D01*
X775796Y706500D01*
D02*
G37*
G36*
X608005Y709150D02*
X605595D01*
X603268Y708526D01*
X601182Y707322D01*
X599478Y705618D01*
X598274Y703532D01*
X597650Y701205D01*
Y698795D01*
X598274Y696468D01*
X599478Y694382D01*
X601182Y692678D01*
X603268Y691474D01*
X605595Y690850D01*
X608005D01*
X610332Y691474D01*
X612418Y692678D01*
X614122Y694382D01*
X615326Y696468D01*
X615950Y698795D01*
Y701205D01*
X615326Y703532D01*
X614122Y705618D01*
X612418Y707322D01*
X610332Y708526D01*
X608005Y709150D01*
D02*
G37*
G36*
X742670Y698836D02*
Y690570D01*
X750936D01*
X750290Y692982D01*
X749034Y695158D01*
X747258Y696934D01*
X745082Y698190D01*
X742670Y698836D01*
D02*
G37*
G36*
X740130D02*
X737718Y698190D01*
X735542Y696934D01*
X733766Y695158D01*
X732510Y692982D01*
X731864Y690570D01*
X740130D01*
Y698836D01*
D02*
G37*
G36*
X613523Y682123D02*
X611932D01*
X610462Y681514D01*
X609337Y680389D01*
X608728Y678919D01*
Y677328D01*
X609337Y675857D01*
X610462Y674732D01*
X611932Y674123D01*
X613523D01*
X614994Y674732D01*
X616119Y675857D01*
X616728Y677328D01*
Y678919D01*
X616119Y680389D01*
X614994Y681514D01*
X613523Y682123D01*
D02*
G37*
G36*
X628305Y709150D02*
X625895D01*
X623568Y708526D01*
X621482Y707322D01*
X619778Y705618D01*
X618574Y703532D01*
X617950Y701205D01*
Y698795D01*
X618574Y696468D01*
X619778Y694382D01*
X621482Y692678D01*
X623568Y691474D01*
X625895Y690850D01*
X628305D01*
X630632Y691474D01*
X632718Y692678D01*
X634043Y694003D01*
X635213Y693377D01*
X634750Y691048D01*
Y687552D01*
X635432Y684122D01*
X636770Y680892D01*
X638713Y677985D01*
X641185Y675513D01*
X644092Y673570D01*
X647322Y672232D01*
X650752Y671550D01*
X654248D01*
X657678Y672232D01*
X660908Y673570D01*
X663815Y675513D01*
X666287Y677985D01*
X668230Y680892D01*
X669568Y684122D01*
X670250Y687552D01*
Y691048D01*
X669568Y694477D01*
X668230Y697708D01*
X666287Y700615D01*
X663815Y703087D01*
X660908Y705030D01*
X657678Y706368D01*
X654248Y707050D01*
X650752D01*
X647322Y706368D01*
X644092Y705030D01*
X641185Y703087D01*
X638713Y700615D01*
X637520Y698830D01*
X636250Y699215D01*
Y701205D01*
X635626Y703532D01*
X634422Y705618D01*
X632718Y707322D01*
X630632Y708526D01*
X628305Y709150D01*
D02*
G37*
G36*
X598034Y629000D02*
X596443D01*
X594973Y628391D01*
X593848Y627266D01*
X593239Y625796D01*
Y624204D01*
X593848Y622734D01*
X594973Y621609D01*
X596443Y621000D01*
X598034D01*
X599504Y621609D01*
X600630Y622734D01*
X601239Y624204D01*
Y625796D01*
X600630Y627266D01*
X599504Y628391D01*
X598034Y629000D01*
D02*
G37*
G36*
X654248Y592750D02*
X650752D01*
X647322Y592068D01*
X644092Y590730D01*
X641185Y588787D01*
X638713Y586315D01*
X636770Y583408D01*
X635432Y580177D01*
X634750Y576748D01*
Y573252D01*
X635213Y570923D01*
X634043Y570297D01*
X632718Y571622D01*
X630632Y572826D01*
X628305Y573450D01*
X625895D01*
X623568Y572826D01*
X621482Y571622D01*
X619778Y569918D01*
X618574Y567832D01*
X617950Y565505D01*
Y563095D01*
X618574Y560768D01*
X619778Y558682D01*
X621482Y556978D01*
X623568Y555774D01*
X625895Y555150D01*
X628305D01*
X630632Y555774D01*
X632718Y556978D01*
X634422Y558682D01*
X635626Y560768D01*
X636250Y563095D01*
Y565085D01*
X637520Y565470D01*
X638713Y563685D01*
X641185Y561213D01*
X644092Y559270D01*
X647322Y557932D01*
X650752Y557250D01*
X654248D01*
X657678Y557932D01*
X660908Y559270D01*
X663815Y561213D01*
X666287Y563685D01*
X668230Y566592D01*
X669568Y569823D01*
X670250Y573252D01*
Y576748D01*
X669568Y580177D01*
X668230Y583408D01*
X666287Y586315D01*
X663815Y588787D01*
X660908Y590730D01*
X657678Y592068D01*
X654248Y592750D01*
D02*
G37*
%LPD*%
G36*
X558336Y784792D02*
X558511D01*
X558701Y784778D01*
X558934Y784749D01*
X559182Y784719D01*
X559459Y784690D01*
X559765Y784647D01*
X560086Y784588D01*
X560421Y784530D01*
X560786Y784442D01*
X561150Y784355D01*
X561544Y784253D01*
X561938Y784136D01*
X561223Y782066D01*
X561194Y782081D01*
X561121Y782110D01*
X561019Y782139D01*
X560859Y782197D01*
X560669Y782255D01*
X560450Y782328D01*
X560203Y782416D01*
X559940Y782489D01*
X559649Y782562D01*
X559342Y782649D01*
X558701Y782780D01*
X558380Y782839D01*
X558045Y782882D01*
X557724Y782897D01*
X557403Y782912D01*
X557301D01*
X557170Y782897D01*
X557010Y782882D01*
X556820Y782868D01*
X556601Y782824D01*
X556354Y782780D01*
X556106Y782707D01*
X555843Y782620D01*
X555581Y782518D01*
X555333Y782387D01*
X555100Y782226D01*
X554881Y782037D01*
X554692Y781833D01*
X554516Y781585D01*
X554400Y781293D01*
X554385Y781264D01*
X554371Y781191D01*
X554342Y781075D01*
X554327Y780929D01*
X554312Y780754D01*
X554327Y780579D01*
X554385Y780404D01*
X554473Y780243D01*
X554487Y780229D01*
X554546Y780171D01*
X554633Y780098D01*
X554779Y779996D01*
X554866Y779923D01*
X554983Y779864D01*
X555100Y779791D01*
X555231Y779719D01*
X555391Y779646D01*
X555566Y779558D01*
X555756Y779485D01*
X555960Y779398D01*
X557199Y778902D01*
X558249Y778494D01*
X558264D01*
X558278Y778479D01*
X558351Y778450D01*
X558468Y778392D01*
X558628Y778304D01*
X558803Y778188D01*
X558993Y778042D01*
X559197Y777881D01*
X559386Y777692D01*
X559576Y777459D01*
X559751Y777211D01*
X559896Y776919D01*
X559999Y776613D01*
X560057Y776263D01*
X560071Y776074D01*
Y775870D01*
X560057Y775665D01*
X560013Y775461D01*
X559969Y775243D01*
X559896Y775009D01*
Y774995D01*
X559867Y774922D01*
X559823Y774834D01*
X559765Y774703D01*
X559692Y774543D01*
X559590Y774353D01*
X559474Y774149D01*
X559342Y773916D01*
X559182Y773683D01*
X558993Y773435D01*
X558788Y773187D01*
X558555Y772939D01*
X558293Y772691D01*
X558016Y772443D01*
X557695Y772210D01*
X557360Y771991D01*
X557345Y771977D01*
X557272Y771948D01*
X557170Y771889D01*
X557024Y771816D01*
X556849Y771729D01*
X556631Y771641D01*
X556383Y771539D01*
X556106Y771437D01*
X555799Y771335D01*
X555464Y771233D01*
X555114Y771146D01*
X554721Y771058D01*
X554327Y770985D01*
X553904Y770927D01*
X553452Y770898D01*
X553000Y770883D01*
X552825D01*
X552694Y770898D01*
X552534Y770912D01*
X552330Y770927D01*
X552096Y770942D01*
X551834Y770985D01*
X551542Y771014D01*
X551222Y771073D01*
X550872Y771131D01*
X550493Y771204D01*
X550084Y771292D01*
X549661Y771394D01*
X549210Y771510D01*
X548743Y771641D01*
X549530Y773960D01*
X549560Y773945D01*
X549647Y773916D01*
X549764Y773858D01*
X549939Y773770D01*
X550157Y773683D01*
X550405Y773580D01*
X550682Y773478D01*
X550988Y773376D01*
X551309Y773260D01*
X551644Y773158D01*
X552330Y772968D01*
X552694Y772895D01*
X553029Y772837D01*
X553379Y772793D01*
X553700Y772779D01*
X553831D01*
X553933Y772793D01*
X554065D01*
X554196Y772808D01*
X554356Y772822D01*
X554531Y772852D01*
X554910Y772910D01*
X555304Y772997D01*
X555712Y773129D01*
X556091Y773304D01*
X556106D01*
X556135Y773333D01*
X556179Y773362D01*
X556251Y773406D01*
X556412Y773522D01*
X556616Y773683D01*
X556835Y773872D01*
X557039Y774120D01*
X557228Y774397D01*
X557316Y774543D01*
X557374Y774703D01*
Y774718D01*
X557389Y774732D01*
X557403Y774805D01*
X557433Y774922D01*
X557447Y775068D01*
Y775228D01*
X557418Y775403D01*
X557360Y775578D01*
X557257Y775724D01*
X557243Y775738D01*
X557185Y775797D01*
X557141Y775840D01*
X557068Y775884D01*
X556995Y775942D01*
X556908Y776015D01*
X556791Y776088D01*
X556674Y776176D01*
X556529Y776263D01*
X556354Y776365D01*
X556164Y776467D01*
X555945Y776584D01*
X555712Y776715D01*
X555450Y776846D01*
X554254Y777240D01*
X554240Y777255D01*
X554181Y777269D01*
X554094Y777313D01*
X553992Y777357D01*
X553861Y777430D01*
X553700Y777503D01*
X553365Y777692D01*
X553000Y777925D01*
X552636Y778173D01*
X552475Y778319D01*
X552315Y778450D01*
X552184Y778611D01*
X552067Y778756D01*
Y778771D01*
X552053Y778800D01*
X552023Y778844D01*
X551994Y778902D01*
X551950Y778990D01*
X551921Y779092D01*
X551892Y779208D01*
X551863Y779340D01*
X551834Y779485D01*
X551819Y779646D01*
X551805Y779835D01*
Y780025D01*
X551834Y780229D01*
X551863Y780462D01*
X551921Y780695D01*
X551994Y780943D01*
X552009Y780958D01*
X552023Y781031D01*
X552067Y781118D01*
X552111Y781249D01*
X552184Y781395D01*
X552271Y781585D01*
X552388Y781774D01*
X552505Y781993D01*
X552650Y782212D01*
X552811Y782445D01*
X552986Y782678D01*
X553190Y782912D01*
X553423Y783145D01*
X553656Y783378D01*
X553919Y783582D01*
X554210Y783786D01*
X554225Y783801D01*
X554283Y783830D01*
X554371Y783874D01*
X554502Y783947D01*
X554648Y784019D01*
X554837Y784107D01*
X555056Y784209D01*
X555289Y784297D01*
X555552Y784399D01*
X555843Y784486D01*
X556164Y784574D01*
X556499Y784647D01*
X556849Y784719D01*
X557228Y784763D01*
X557622Y784792D01*
X558030Y784807D01*
X558205D01*
X558336Y784792D01*
D02*
G37*
G36*
X597862D02*
X598022D01*
X598212Y784778D01*
X598430Y784749D01*
X598664Y784734D01*
X598941Y784690D01*
X599218Y784647D01*
X599524Y784603D01*
X599845Y784530D01*
X600515Y784384D01*
X600865Y784282D01*
X601215Y784165D01*
X600486Y781993D01*
X600457Y782008D01*
X600398Y782037D01*
X600297Y782081D01*
X600151Y782139D01*
X599976Y782212D01*
X599786Y782285D01*
X599553Y782372D01*
X599305Y782459D01*
X599028Y782532D01*
X598736Y782620D01*
X598124Y782766D01*
X597818Y782824D01*
X597497Y782868D01*
X597177Y782897D01*
X596856Y782912D01*
X596768D01*
X596666Y782897D01*
X596535D01*
X596360Y782868D01*
X596171Y782839D01*
X595937Y782795D01*
X595689Y782737D01*
X595427Y782664D01*
X595150Y782562D01*
X594844Y782459D01*
X594538Y782314D01*
X594217Y782153D01*
X593896Y781964D01*
X593575Y781745D01*
X593255Y781497D01*
X593240Y781483D01*
X593182Y781439D01*
X593094Y781351D01*
X592977Y781249D01*
X592832Y781104D01*
X592671Y780943D01*
X592496Y780739D01*
X592307Y780520D01*
X592103Y780273D01*
X591899Y780010D01*
X591694Y779719D01*
X591490Y779398D01*
X591301Y779048D01*
X591111Y778698D01*
X590936Y778319D01*
X590791Y777911D01*
X590776Y777881D01*
X590761Y777809D01*
X590732Y777692D01*
X590689Y777546D01*
X590645Y777357D01*
X590601Y777138D01*
X590572Y776890D01*
X590528Y776628D01*
X590514Y776351D01*
Y776059D01*
Y775753D01*
X590557Y775447D01*
X590616Y775155D01*
X590689Y774849D01*
X590820Y774572D01*
X590965Y774295D01*
X590980Y774280D01*
X591009Y774237D01*
X591068Y774164D01*
X591141Y774076D01*
X591243Y773974D01*
X591374Y773858D01*
X591520Y773726D01*
X591694Y773610D01*
X591899Y773478D01*
X592132Y773347D01*
X592380Y773231D01*
X592671Y773129D01*
X592977Y773041D01*
X593313Y772968D01*
X593692Y772924D01*
X594086Y772910D01*
X594231D01*
X594333Y772924D01*
X594465Y772939D01*
X594640Y772954D01*
X594829Y772968D01*
X595062Y772997D01*
X595310Y773041D01*
X595587Y773085D01*
X595893Y773143D01*
X596229Y773216D01*
X596593Y773289D01*
X596972Y773391D01*
X597381Y773493D01*
X597818Y773624D01*
X597133Y771656D01*
X597104Y771641D01*
X597031Y771627D01*
X596899Y771583D01*
X596725Y771539D01*
X596520Y771481D01*
X596273Y771408D01*
X595995Y771335D01*
X595704Y771277D01*
X595369Y771204D01*
X595033Y771131D01*
X594333Y771000D01*
X593605Y770912D01*
X593255Y770898D01*
X592905Y770883D01*
X592773D01*
X592686Y770898D01*
X592598D01*
X592394Y770912D01*
X592132Y770942D01*
X591840Y770985D01*
X591505Y771044D01*
X591155Y771117D01*
X590791Y771219D01*
X590426Y771350D01*
X590047Y771496D01*
X589683Y771685D01*
X589333Y771904D01*
X589012Y772152D01*
X588706Y772443D01*
X588443Y772779D01*
X588429Y772808D01*
X588385Y772866D01*
X588327Y772968D01*
X588254Y773129D01*
X588181Y773318D01*
X588093Y773537D01*
X588006Y773814D01*
X587933Y774120D01*
X587875Y774455D01*
X587816Y774834D01*
X587802Y775243D01*
Y775695D01*
X587845Y776161D01*
X587918Y776671D01*
X588035Y777211D01*
X588210Y777779D01*
Y777794D01*
X588225Y777809D01*
X588239Y777852D01*
X588268Y777911D01*
X588298Y777998D01*
X588327Y778086D01*
X588414Y778304D01*
X588531Y778567D01*
X588691Y778873D01*
X588866Y779208D01*
X589070Y779587D01*
X589304Y779981D01*
X589566Y780389D01*
X589872Y780812D01*
X590207Y781235D01*
X590572Y781658D01*
X590965Y782081D01*
X591403Y782474D01*
X591870Y782853D01*
X591884D01*
X591899Y782882D01*
X591986Y782941D01*
X592132Y783028D01*
X592321Y783159D01*
X592569Y783305D01*
X592861Y783465D01*
X593182Y783655D01*
X593561Y783830D01*
X593954Y784019D01*
X594392Y784194D01*
X594873Y784355D01*
X595369Y784501D01*
X595879Y784632D01*
X596418Y784719D01*
X596987Y784792D01*
X597556Y784807D01*
X597730D01*
X597862Y784792D01*
D02*
G37*
G36*
X606318Y778202D02*
X610138Y771189D01*
X607455D01*
X603970Y777765D01*
X601740Y771189D01*
X599334D01*
X603854Y784501D01*
X606259D01*
X604116Y778173D01*
X611362Y784501D01*
X613666D01*
X606318Y778202D01*
D02*
G37*
G36*
X520808Y771189D02*
X518767D01*
X522202Y781294D01*
X517120Y773916D01*
X515152D01*
X515036Y781078D01*
X511682Y771189D01*
X509888D01*
X514408Y784501D01*
X517149D01*
X517273Y776966D01*
X522485Y784501D01*
X525328D01*
X520808Y771189D01*
D02*
G37*
G36*
X634384Y786833D02*
X634529D01*
X634704Y786819D01*
X634894Y786790D01*
X635113Y786746D01*
X635346Y786702D01*
X635594Y786644D01*
X635842Y786556D01*
X636104Y786469D01*
X636352Y786352D01*
X636585Y786221D01*
X636804Y786061D01*
X637008Y785871D01*
X637197Y785667D01*
X637212Y785652D01*
X637241Y785609D01*
X637285Y785550D01*
X637329Y785448D01*
X637387Y785332D01*
X637460Y785201D01*
X637518Y785040D01*
X637576Y784851D01*
X637635Y784632D01*
X637664Y784399D01*
X637693Y784151D01*
X637708Y783874D01*
X637693Y783582D01*
X637649Y783276D01*
X637576Y782941D01*
X637475Y782591D01*
Y782576D01*
X637460Y782532D01*
X637431Y782474D01*
X637387Y782387D01*
X637343Y782270D01*
X637285Y782153D01*
X637227Y782008D01*
X637139Y781847D01*
X636950Y781497D01*
X636716Y781104D01*
X636425Y780695D01*
X636089Y780287D01*
X636075Y780273D01*
X636046Y780243D01*
X635987Y780185D01*
X635914Y780098D01*
X635812Y779996D01*
X635696Y779879D01*
X635550Y779748D01*
X635390Y779587D01*
X635200Y779427D01*
X634996Y779237D01*
X634763Y779048D01*
X634515Y778844D01*
X634238Y778625D01*
X633946Y778406D01*
X633625Y778173D01*
X633290Y777925D01*
X632182Y777123D01*
X632168D01*
X632153Y777094D01*
X632109Y777065D01*
X632051Y777036D01*
X631905Y776919D01*
X631701Y776759D01*
X631453Y776584D01*
X631176Y776365D01*
X630870Y776117D01*
X630549Y775855D01*
X630214Y775563D01*
X629879Y775257D01*
X629543Y774951D01*
X629222Y774630D01*
X628902Y774295D01*
X628625Y773974D01*
X628377Y773653D01*
X628158Y773333D01*
X634238D01*
X633509Y771189D01*
X624659D01*
X625330Y773172D01*
X625359Y773202D01*
X625432Y773289D01*
X625548Y773420D01*
X625709Y773595D01*
X625913Y773814D01*
X626161Y774076D01*
X626452Y774368D01*
X626788Y774703D01*
X627167Y775053D01*
X627560Y775447D01*
X628012Y775840D01*
X628479Y776263D01*
X628989Y776701D01*
X629543Y777152D01*
X630112Y777605D01*
X630709Y778056D01*
X631905Y778946D01*
X631934Y778960D01*
X632007Y779033D01*
X632124Y779121D01*
X632284Y779252D01*
X632474Y779412D01*
X632692Y779602D01*
X632926Y779821D01*
X633173Y780054D01*
X633436Y780316D01*
X633684Y780593D01*
X633946Y780900D01*
X634179Y781206D01*
X634398Y781526D01*
X634602Y781847D01*
X634777Y782182D01*
X634908Y782518D01*
Y782532D01*
X634923Y782562D01*
X634938Y782620D01*
X634967Y782707D01*
X634981Y782795D01*
X635010Y782897D01*
X635040Y783159D01*
X635069Y783436D01*
X635054Y783728D01*
X635025Y783874D01*
X634981Y784019D01*
X634938Y784151D01*
X634865Y784282D01*
Y784297D01*
X634850Y784311D01*
X634777Y784384D01*
X634675Y784501D01*
X634515Y784617D01*
X634311Y784734D01*
X634048Y784851D01*
X633888Y784894D01*
X633713Y784923D01*
X633538Y784953D01*
X633188D01*
X633086Y784938D01*
X632940Y784923D01*
X632765Y784894D01*
X632561Y784865D01*
X632328Y784821D01*
X632051Y784763D01*
X631759Y784690D01*
X631438Y784617D01*
X631074Y784515D01*
X630695Y784384D01*
X630272Y784253D01*
X629835Y784092D01*
X629354Y783903D01*
X630068Y785988D01*
X630097Y786002D01*
X630170Y786031D01*
X630287Y786061D01*
X630462Y786119D01*
X630651Y786192D01*
X630899Y786265D01*
X631161Y786338D01*
X631453Y786425D01*
X631759Y786498D01*
X632080Y786571D01*
X632780Y786717D01*
X633130Y786775D01*
X633480Y786804D01*
X633830Y786833D01*
X634179Y786848D01*
X634267D01*
X634384Y786833D01*
D02*
G37*
G36*
X587248Y782605D02*
X583778D01*
X580541Y773085D01*
X584011D01*
X583370Y771189D01*
X574024D01*
X574666Y773085D01*
X578135D01*
X581372Y782605D01*
X577902D01*
X578544Y784501D01*
X587889D01*
X587248Y782605D01*
D02*
G37*
G36*
X576080D02*
X571108D01*
X567230Y771189D01*
X564824D01*
X568703Y782605D01*
X563745D01*
X564387Y784501D01*
X576721D01*
X576080Y782605D01*
D02*
G37*
G36*
X536788D02*
X530067D01*
X528871Y779092D01*
X534572D01*
X533930Y777196D01*
X528229D01*
X526830Y773085D01*
X534018D01*
X533376Y771189D01*
X523783D01*
X528302Y784501D01*
X537429D01*
X536788Y782605D01*
D02*
G37*
G36*
X511230D02*
X507760D01*
X504523Y773085D01*
X507993D01*
X507351Y771189D01*
X498006D01*
X498647Y773085D01*
X502118D01*
X505354Y782605D01*
X501884D01*
X502526Y784501D01*
X511871D01*
X511230Y782605D01*
D02*
G37*
G36*
X500062D02*
X495090D01*
X491212Y771189D01*
X488806D01*
X492685Y782605D01*
X487727D01*
X488369Y784501D01*
X500703D01*
X500062Y782605D01*
D02*
G37*
%LPC*%
G36*
X865895Y769500D02*
X864105D01*
X862451Y768815D01*
X861185Y767549D01*
X860500Y765895D01*
Y764105D01*
X861185Y762451D01*
X862451Y761185D01*
X864105Y760500D01*
X865895D01*
X867549Y761185D01*
X868815Y762451D01*
X869500Y764105D01*
Y765895D01*
X868815Y767549D01*
X867549Y768815D01*
X865895Y769500D01*
D02*
G37*
G36*
X742519Y596200D02*
X740281D01*
X738119Y595621D01*
X736181Y594502D01*
X734598Y592919D01*
X733479Y590981D01*
X732900Y588819D01*
Y586581D01*
X733479Y584419D01*
X734598Y582481D01*
X736181Y580898D01*
X738119Y579779D01*
X740281Y579200D01*
X742519D01*
X744681Y579779D01*
X746619Y580898D01*
X748202Y582481D01*
X749321Y584419D01*
X749900Y586581D01*
Y588819D01*
X749321Y590981D01*
X748202Y592919D01*
X746619Y594502D01*
X744681Y595621D01*
X742519Y596200D01*
D02*
G37*
%LPD*%
D12*
X884508Y657506D02*
X888615Y653400D01*
X881575Y657506D02*
X884508D01*
X880432Y658650D02*
X881575Y657506D01*
X884184Y662506D02*
X889078Y667400D01*
X868398Y656470D02*
X870578Y658650D01*
X881500Y671929D02*
Y672500D01*
X875217Y665646D02*
X881500Y671929D01*
X878982Y655150D02*
X881688Y652444D01*
X870578Y658650D02*
X880432D01*
X859210Y656470D02*
X868398D01*
X872027Y655150D02*
X878982D01*
X859210Y652970D02*
X869847D01*
X872027Y655150D01*
X889078Y667400D02*
X902050D01*
X888615Y653400D02*
X902050D01*
X881688Y652444D02*
X882500D01*
X876214Y635000D02*
X877209D01*
X876580Y625000D02*
X877209Y625629D01*
X888150Y637400D02*
X902050D01*
X891650Y623900D02*
X895150Y620400D01*
X884886Y623900D02*
X891650D01*
X895150Y620400D02*
X905050D01*
X887112Y636362D02*
X888150Y637400D01*
X883786Y635000D02*
X885148Y636362D01*
X887112D01*
X902050Y637400D02*
X905050Y640400D01*
X883786Y625000D02*
X884886Y623900D01*
X858960Y680720D02*
X859180Y680500D01*
X858960Y676720D02*
X859240Y677000D01*
X859180Y680500D02*
X863995D01*
X875645Y692150D01*
X854460Y680720D02*
X858960D01*
X875645Y692150D02*
X887478D01*
X859240Y677000D02*
X865445D01*
X877095Y688650D01*
X887478D01*
X873770Y672451D02*
X874361Y671860D01*
X872328Y669146D02*
X874361Y671179D01*
Y671860D01*
X869222Y665646D02*
X875217D01*
X859210Y664970D02*
X862756D01*
X864256Y666470D02*
X868398D01*
X862806Y669970D02*
X869847D01*
X862756Y664970D02*
X864256Y666470D01*
X868398D02*
X869222Y665646D01*
X869847Y669970D02*
X870672Y669146D01*
X861306Y668470D02*
X862806Y669970D01*
X854460Y676720D02*
X858960D01*
X859210Y668470D02*
X861306D01*
X870672Y669146D02*
X872328D01*
X854460Y664720D02*
X858960D01*
X859210Y664970D01*
X858960Y668720D02*
X859210Y668470D01*
X854460Y668720D02*
X858960D01*
Y656720D02*
X859210Y656470D01*
X858960Y652720D02*
X859210Y652970D01*
X902050Y653400D02*
X905050Y650400D01*
X888650Y685365D02*
X890614Y683400D01*
X902050D01*
X905050Y680400D01*
X888650Y695435D02*
X890614Y697400D01*
X902050D02*
X905050Y700400D01*
X888650Y693322D02*
Y695435D01*
X887478Y688650D02*
X888650Y687478D01*
Y685365D02*
Y687478D01*
X887478Y692150D02*
X888650Y693322D01*
X890614Y697400D02*
X902050D01*
X854460Y652720D02*
X858960D01*
X854460Y656720D02*
X858960D01*
X902050Y667400D02*
X905050Y670400D01*
D16*
X855500Y706520D02*
D03*
X850500D02*
D03*
X845500D02*
D03*
Y712020D02*
D03*
X850500D02*
D03*
X855500D02*
D03*
D17*
X917300Y781000D02*
D03*
X904600D02*
D03*
X917300Y740000D02*
D03*
X904600D02*
D03*
X930000Y740000D02*
D03*
X942700D02*
D03*
Y781000D02*
D03*
X930000D02*
D03*
D18*
X852555Y599839D02*
D03*
X900815D02*
D03*
X852555Y551579D02*
D03*
X900815D02*
D03*
D19*
X876685Y575709D02*
D03*
D20*
X790000Y594000D02*
D03*
Y586000D02*
D03*
X822500D02*
D03*
Y594000D02*
D03*
D21*
X905050Y700400D02*
D03*
Y620400D02*
D03*
Y690400D02*
D03*
Y680400D02*
D03*
Y670400D02*
D03*
Y660400D02*
D03*
Y650400D02*
D03*
Y640400D02*
D03*
Y630400D02*
D03*
D22*
X784500Y560000D02*
D03*
X825500D02*
D03*
D23*
X790960Y688220D02*
D03*
X794960D02*
D03*
X798960D02*
D03*
X802960D02*
D03*
X806960D02*
D03*
X810960D02*
D03*
X814960D02*
D03*
X818960D02*
D03*
X822960D02*
D03*
X826960D02*
D03*
X830960D02*
D03*
X834960D02*
D03*
X838960D02*
D03*
X842960D02*
D03*
X846960D02*
D03*
Y617220D02*
D03*
X842960D02*
D03*
X838960D02*
D03*
X834960D02*
D03*
X830960D02*
D03*
X826960D02*
D03*
X822960D02*
D03*
X818960D02*
D03*
X814960D02*
D03*
X810960D02*
D03*
X806960D02*
D03*
X802960D02*
D03*
X798960D02*
D03*
X794960D02*
D03*
X790960D02*
D03*
D24*
X854460Y680720D02*
D03*
Y676720D02*
D03*
Y672720D02*
D03*
Y668720D02*
D03*
Y664720D02*
D03*
Y660720D02*
D03*
Y656720D02*
D03*
Y652720D02*
D03*
Y648720D02*
D03*
Y644720D02*
D03*
Y640720D02*
D03*
Y636720D02*
D03*
Y632720D02*
D03*
Y628720D02*
D03*
Y624720D02*
D03*
X783460D02*
D03*
Y628720D02*
D03*
Y632720D02*
D03*
Y636720D02*
D03*
Y640720D02*
D03*
Y644720D02*
D03*
Y648720D02*
D03*
Y652720D02*
D03*
Y656720D02*
D03*
Y660720D02*
D03*
Y664720D02*
D03*
Y668720D02*
D03*
Y672720D02*
D03*
Y676720D02*
D03*
Y680720D02*
D03*
D25*
X744000Y774050D02*
D03*
Y761350D02*
D03*
Y748650D02*
D03*
Y735950D02*
D03*
X801000D02*
D03*
Y748650D02*
D03*
Y761350D02*
D03*
Y774050D02*
D03*
D26*
X772500Y755000D02*
D03*
D27*
X660000Y740625D02*
D03*
X670000D02*
D03*
X680000D02*
D03*
X700000D02*
D03*
X690000D02*
D03*
D28*
X647000Y779375D02*
D03*
X713000D02*
D03*
D29*
X888655Y780000D02*
D03*
X881345D02*
D03*
Y750000D02*
D03*
X888655D02*
D03*
X881345Y765000D02*
D03*
X888655D02*
D03*
D30*
X815000Y737500D02*
D03*
X825000D02*
D03*
X815000Y760000D02*
D03*
X825000D02*
D03*
X730000Y747500D02*
D03*
X720000D02*
D03*
X940000Y585000D02*
D03*
X930000D02*
D03*
D31*
X881176Y643429D02*
D03*
X873604D02*
D03*
X823786Y775000D02*
D03*
X816214D02*
D03*
X876214Y635000D02*
D03*
X883786D02*
D03*
X876214Y625000D02*
D03*
X883786D02*
D03*
D32*
X807127Y703149D02*
D03*
Y710721D02*
D03*
X818960Y710639D02*
D03*
Y703068D02*
D03*
D33*
X720250Y760000D02*
D03*
X729750D02*
D03*
D34*
X812500Y594286D02*
D03*
Y585714D02*
D03*
D35*
X800000Y586250D02*
D03*
Y593750D02*
D03*
D37*
X818960Y652720D02*
D03*
D41*
X933450Y601900D02*
D03*
Y718900D02*
D03*
D42*
Y637900D02*
D03*
Y682900D02*
D03*
D43*
X652500Y689300D02*
D03*
Y575000D02*
D03*
D44*
X683000Y709650D02*
D03*
Y554650D02*
D03*
D45*
X606800Y564300D02*
D03*
X627100D02*
D03*
X606800Y700000D02*
D03*
X627100D02*
D03*
D46*
X741400Y689300D02*
D03*
X716000Y676600D02*
D03*
X741400Y663900D02*
D03*
X716000Y651200D02*
D03*
X741400Y638500D02*
D03*
X716000Y625800D02*
D03*
X741400Y613100D02*
D03*
X716000Y600400D02*
D03*
X741400Y587700D02*
D03*
D47*
X716000Y575000D02*
D03*
D48*
X866734Y713266D02*
D03*
X860000Y720000D02*
D03*
X850000Y730000D02*
D03*
X851500Y720000D02*
D03*
X840738D02*
D03*
X660000Y760000D02*
D03*
X675859Y752209D02*
D03*
X679585Y763680D02*
D03*
X702117Y754617D02*
D03*
X665583Y775000D02*
D03*
X680000D02*
D03*
X880000Y595015D02*
D03*
X887500Y598292D02*
D03*
X886970Y581788D02*
D03*
X895000Y581500D02*
D03*
X888500Y575471D02*
D03*
X885000Y565000D02*
D03*
X895000Y575000D02*
D03*
X902917Y600373D02*
D03*
X855446Y695362D02*
D03*
X860000Y700000D02*
D03*
X818967Y608421D02*
D03*
X825432Y607755D02*
D03*
X952500Y570000D02*
D03*
X945000Y555000D02*
D03*
X952500Y540000D02*
D03*
X937500Y570000D02*
D03*
X765000Y555000D02*
D03*
X660000D02*
D03*
X645000Y765000D02*
D03*
X652500Y750000D02*
D03*
X645000Y735000D02*
D03*
X652500Y720000D02*
D03*
Y600000D02*
D03*
X645000Y555000D02*
D03*
X630000Y765000D02*
D03*
X637500Y720000D02*
D03*
X630000Y675000D02*
D03*
Y645000D02*
D03*
X637500Y600000D02*
D03*
X630000Y585000D02*
D03*
X622500Y660000D02*
D03*
X615000Y645000D02*
D03*
X622500Y600000D02*
D03*
X600000Y675000D02*
D03*
X607500Y660000D02*
D03*
X600000Y645000D02*
D03*
X607500Y600000D02*
D03*
X600000Y585000D02*
D03*
X585000Y705000D02*
D03*
X592500Y690000D02*
D03*
X585000Y675000D02*
D03*
X592500Y660000D02*
D03*
X585000Y645000D02*
D03*
X592500Y630000D02*
D03*
X585000Y615000D02*
D03*
X592500Y570000D02*
D03*
X585000Y555000D02*
D03*
X570000Y705000D02*
D03*
X577500Y690000D02*
D03*
X570000Y675000D02*
D03*
X577500Y660000D02*
D03*
X570000Y645000D02*
D03*
X577500Y630000D02*
D03*
X570000Y555000D02*
D03*
X555000Y705000D02*
D03*
X562500Y690000D02*
D03*
X555000Y645000D02*
D03*
X562500Y630000D02*
D03*
X555000Y555000D02*
D03*
X540000Y705000D02*
D03*
X547500Y690000D02*
D03*
Y630000D02*
D03*
X540000Y555000D02*
D03*
X525000Y705000D02*
D03*
X532500Y690000D02*
D03*
Y630000D02*
D03*
X525000Y555000D02*
D03*
X517500Y630000D02*
D03*
X510000Y555000D02*
D03*
X502500Y630000D02*
D03*
X487500D02*
D03*
X472500D02*
D03*
X457500Y690000D02*
D03*
Y630000D02*
D03*
X442500Y690000D02*
D03*
Y630000D02*
D03*
X427500D02*
D03*
X405000Y705000D02*
D03*
X412500Y690000D02*
D03*
X390000Y705000D02*
D03*
X397500Y690000D02*
D03*
X884184Y662506D02*
D03*
X881500Y672500D02*
D03*
X912262Y612400D02*
D03*
X732500Y552500D02*
D03*
X894208Y710000D02*
D03*
X897500Y722500D02*
D03*
X775000Y702500D02*
D03*
X858708Y575081D02*
D03*
X875724Y649791D02*
D03*
X882500Y652444D02*
D03*
X863960Y623182D02*
D03*
X872500Y607500D02*
D03*
X865445Y606852D02*
D03*
X851404Y567500D02*
D03*
X770000Y570000D02*
D03*
X777500Y577500D02*
D03*
X695280Y620547D02*
D03*
X720000Y545000D02*
D03*
X712500Y550000D02*
D03*
X742500Y552500D02*
D03*
X762500Y605587D02*
D03*
X756686Y602093D02*
D03*
X877209Y625629D02*
D03*
Y635000D02*
D03*
X867500Y545000D02*
D03*
X860000Y550000D02*
D03*
X814010Y544530D02*
D03*
X837500Y535000D02*
D03*
X827515Y577500D02*
D03*
X817485Y579247D02*
D03*
X805000Y577500D02*
D03*
X770000Y617500D02*
D03*
X765489Y655489D02*
D03*
X759308Y657500D02*
D03*
X757500Y635000D02*
D03*
X763999Y634900D02*
D03*
X760000Y651000D02*
D03*
X687500Y677500D02*
D03*
X692500Y665000D02*
D03*
X702500Y667500D02*
D03*
X682500Y665000D02*
D03*
X847500Y600000D02*
D03*
X868475Y560000D02*
D03*
X911251Y720475D02*
D03*
X920000Y585000D02*
D03*
X797500Y535000D02*
D03*
X882500Y552500D02*
D03*
X819377Y595207D02*
D03*
X812000Y570000D02*
D03*
X848063Y578530D02*
D03*
X767531Y584889D02*
D03*
X770000Y562500D02*
D03*
X705000Y727500D02*
D03*
X670000D02*
D03*
X660000D02*
D03*
Y782500D02*
D03*
X702500Y775000D02*
D03*
X680000Y782500D02*
D03*
X863949Y738551D02*
D03*
X842500Y732500D02*
D03*
X930000Y750000D02*
D03*
X830623Y765499D02*
D03*
X832500Y700000D02*
D03*
X760000Y726970D02*
D03*
X720000Y740000D02*
D03*
X735000Y735000D02*
D03*
X795000Y766982D02*
D03*
X760000Y717500D02*
D03*
X914829Y727674D02*
D03*
X612728Y678123D02*
D03*
X597239Y625000D02*
D03*
X682500Y587500D02*
D03*
X896630Y550870D02*
D03*
X840818Y771170D02*
D03*
Y760170D02*
D03*
X927682Y760330D02*
D03*
X927680Y770000D02*
D03*
X877500Y680000D02*
D03*
X875000Y672500D02*
D03*
X792500Y700000D02*
D03*
X800000Y722500D02*
D03*
X782500Y685000D02*
D03*
X866327Y661470D02*
D03*
X881176Y643429D02*
D03*
X768320Y673009D02*
D03*
X764456Y678235D02*
D03*
X800842Y705842D02*
D03*
X817500Y715000D02*
D03*
X813022Y698698D02*
D03*
X807680Y711488D02*
D03*
X826960Y625366D02*
D03*
X905000Y740000D02*
D03*
X935000Y732500D02*
D03*
D49*
X865000Y790000D02*
D03*
Y777500D02*
D03*
X952500Y790000D02*
D03*
Y777500D02*
D03*
X807500Y755000D02*
D03*
X795000D02*
D03*
X807500Y742500D02*
D03*
X795000D02*
D03*
X877500Y722500D02*
D03*
X782500Y770000D02*
D03*
Y760000D02*
D03*
Y750000D02*
D03*
Y740000D02*
D03*
X762500Y770000D02*
D03*
Y760000D02*
D03*
Y750000D02*
D03*
Y740000D02*
D03*
X772500Y770000D02*
D03*
Y760000D02*
D03*
Y750000D02*
D03*
Y740000D02*
D03*
X828949Y668354D02*
D03*
Y658353D02*
D03*
X838949Y668354D02*
D03*
X798949D02*
D03*
Y658353D02*
D03*
Y638353D02*
D03*
Y648353D02*
D03*
X808949Y658353D02*
D03*
Y638353D02*
D03*
Y648353D02*
D03*
X887500Y722500D02*
D03*
X828949Y638353D02*
D03*
X818949D02*
D03*
X865000Y765000D02*
D03*
Y752500D02*
D03*
X952500D02*
D03*
Y765000D02*
D03*
X828949Y648353D02*
D03*
X838949Y638353D02*
D03*
X818949Y648353D02*
D03*
Y668354D02*
D03*
X838949Y648353D02*
D03*
X808949Y668354D02*
D03*
X838949Y658353D02*
D03*
X818949D02*
D03*
D50*
X881256Y584470D02*
G03*
X876154Y585577I-4571J-8761D01*
G01*
X866548Y713452D02*
X866734Y713266D01*
X860947Y713452D02*
X866548D01*
X845500Y712020D02*
Y725500D01*
X850500Y712020D02*
X851000Y712520D01*
Y719500D02*
X851500Y720000D01*
X845500Y725500D02*
X850000Y730000D01*
X851000Y712520D02*
Y719500D01*
X660000Y760000D02*
X667791Y752209D01*
X675859D01*
X681220Y790637D02*
X792619D01*
X665583Y775000D02*
X681220Y790637D01*
X888165Y589335D02*
Y597627D01*
X887500Y598292D02*
X888165Y597627D01*
Y589335D02*
X891572Y585928D01*
X892465Y585035D01*
X881256Y584470D02*
X886970Y581788D01*
X892465Y585035D02*
X895000Y581500D01*
X884335Y565665D02*
Y568307D01*
X881289Y571353D02*
X884335Y568307D01*
X883997Y557262D02*
X895000Y568265D01*
X884335Y565665D02*
X885000Y565000D01*
X872500Y575000D02*
X876147Y571353D01*
X881289D01*
X895000Y568265D02*
Y575000D01*
X879762Y557262D02*
X883997D01*
X867500Y545000D02*
X879762Y557262D01*
X855500Y712020D02*
X859516D01*
X860947Y713452D01*
X850500Y703098D02*
Y706520D01*
Y703098D02*
X853473Y700124D01*
X859876D01*
X860000Y700000D01*
X856020Y706000D02*
X874223D01*
X855500Y706520D02*
X856020Y706000D01*
X874223D02*
X882985Y714762D01*
X756686Y576686D02*
Y602093D01*
X732500Y552500D02*
X756686Y576686D01*
X706048Y567753D02*
Y579240D01*
X750000Y547500D02*
X752970Y544530D01*
X706048Y567753D02*
X726301Y547500D01*
X750000D01*
X894208Y710000D02*
X906886D01*
X898313Y714762D02*
X902500Y718949D01*
Y727024D01*
X888655Y736592D02*
X897200Y728048D01*
X897500Y732024D02*
X902500Y727024D01*
X897200Y722800D02*
X897500Y722500D01*
X897200Y722800D02*
Y728048D01*
X863295Y623847D02*
Y627162D01*
X862222Y628235D02*
Y630657D01*
X863295Y623847D02*
X863960Y623182D01*
X862222Y628235D02*
X863295Y627162D01*
X869518Y602636D02*
Y603714D01*
X863707Y596826D02*
X869518Y602636D01*
Y603714D02*
X872500Y606697D01*
Y607500D01*
X692619Y624149D02*
X695280Y621488D01*
X692619Y624149D02*
Y664881D01*
X695280Y620547D02*
Y621488D01*
X700000Y547500D02*
X702500Y545000D01*
X720000D01*
X710000Y550000D02*
X712500D01*
X742500Y552500D02*
X762500Y572500D01*
Y605587D01*
X865246Y631908D02*
X866484Y630670D01*
Y630000D02*
Y630670D01*
X860674Y636482D02*
X865246Y631909D01*
Y631908D02*
Y631909D01*
X752970Y544530D02*
X814010D01*
X827515Y582515D02*
X831158Y586158D01*
X827515Y577500D02*
Y582515D01*
X777928Y652958D02*
X783222D01*
X776109Y648750D02*
X776124Y648735D01*
X783445D01*
X783222Y652958D02*
X783460Y652720D01*
X765489Y655489D02*
X766430D01*
X768908Y653012D01*
X777874D02*
X777928Y652958D01*
X768908Y653012D02*
X777874D01*
X783445Y648735D02*
X783460Y648720D01*
X703024Y556976D02*
X710000Y550000D01*
X703024Y556976D02*
Y577987D01*
X700138Y585150D02*
X706048Y579240D01*
X687500Y593511D02*
Y677500D01*
X700138Y585150D02*
Y657770D01*
X687500Y593511D02*
X703024Y577987D01*
X697114Y572411D02*
X700000Y569524D01*
Y547500D02*
Y569524D01*
X697114Y572411D02*
Y579620D01*
X682500Y594234D02*
X697114Y579620D01*
X682500Y594234D02*
Y665000D01*
X700138Y657770D02*
X702500Y660132D01*
X692500Y665000D02*
X692619Y664881D01*
X702500Y660132D02*
Y667500D01*
X859511Y581604D02*
X862342Y584436D01*
X862788Y584882D02*
X876154Y585577D01*
X862342Y584436D02*
X862788Y584882D01*
X863707Y590012D02*
Y596826D01*
X862175Y588480D02*
X863707Y590012D01*
X855361Y588480D02*
X862175D01*
X853830Y586949D02*
X855361Y588480D01*
X844466Y586949D02*
X853830D01*
X841403Y590012D02*
X844466Y586949D01*
X842722Y616982D02*
X842960Y617220D01*
X841403Y609666D02*
X842722Y610985D01*
X841403Y590012D02*
Y609666D01*
X842722Y610985D02*
Y616982D01*
X830960Y609581D02*
X831158Y609383D01*
Y586158D02*
Y609383D01*
X830960Y609581D02*
Y617220D01*
X906886Y710000D02*
X911251Y714365D01*
Y720475D01*
X848063Y578530D02*
X851137Y581604D01*
X882985Y714762D02*
X898313D01*
X851137Y581604D02*
X859511D01*
X919811Y789612D02*
X923362Y786061D01*
X914789Y789612D02*
X919811D01*
X904600Y779957D02*
Y781906D01*
X907407Y784713D01*
X913537Y792636D02*
X921064D01*
X907407Y784713D02*
X909890D01*
X910512Y789612D02*
X913537Y792636D01*
X909890Y784713D02*
X914789Y789612D01*
X921064Y792636D02*
X930000Y783699D01*
X889198Y780000D02*
X898810Y789612D01*
X910512D01*
X897500Y732024D02*
Y750077D01*
X923362Y775939D01*
X930000Y781000D02*
Y783699D01*
X923362Y775939D02*
Y786061D01*
X889198Y750000D02*
X917300Y778102D01*
X888655Y736592D02*
Y750000D01*
X917300Y778102D02*
Y781000D01*
X888655Y750000D02*
X889198D01*
X792619Y790637D02*
X798518Y784738D01*
X885073D01*
X886512Y783299D01*
Y781600D02*
Y783299D01*
Y781600D02*
X888112Y780000D01*
X888655D01*
X889198D01*
X868170Y645000D02*
X871265Y641905D01*
X871624D01*
X864399Y640482D02*
X867500Y643583D01*
X854698Y640482D02*
X864399D01*
X854460Y640720D02*
X854698Y640482D01*
X854460Y660720D02*
X864636D01*
X865386Y661470D02*
X866327D01*
X864636Y660720D02*
X865386Y661470D01*
X854698Y636482D02*
X860674D01*
X854698Y632482D02*
X860397D01*
X862222Y630657D01*
X854460Y632720D02*
X854698Y632482D01*
X854460Y636720D02*
X854698Y636482D01*
X826960Y617220D02*
Y625366D01*
D51*
X857500Y733911D02*
X860000Y731411D01*
Y720000D02*
Y731411D01*
X857500Y733911D02*
Y745000D01*
X865000Y752500D01*
X676595Y578232D02*
Y697782D01*
X934092Y601900D02*
X940000Y595992D01*
Y585000D02*
Y595992D01*
X933450Y601900D02*
X934092D01*
X676595Y578232D02*
X682462Y572365D01*
Y555188D02*
X683000Y554650D01*
X682462Y555188D02*
Y572365D01*
X676595Y697782D02*
X683000Y704187D01*
Y709650D01*
X690000Y762500D02*
X702500Y775000D01*
X690000Y740625D02*
Y762500D01*
X865593Y752500D02*
X868093Y750000D01*
X881345D01*
X865000Y752500D02*
X865593D01*
X881345Y765000D02*
Y780000D01*
Y750000D02*
Y765000D01*
X801000Y761350D02*
X804187D01*
X805392Y762555D01*
X812945D01*
X815000Y760000D02*
Y760500D01*
X812945Y762555D02*
X815000Y760500D01*
X809498Y753595D02*
X819095D01*
X808093Y755000D02*
X809498Y753595D01*
X807500Y755000D02*
X808093D01*
X819095Y753595D02*
X825000Y759500D01*
Y760000D01*
X807500Y742500D02*
X808093D01*
X809498Y743905D02*
X819095D01*
X825000Y737500D02*
Y738000D01*
X819095Y743905D02*
X825000Y738000D01*
X808093Y742500D02*
X809498Y743905D01*
X720000Y740000D02*
Y747500D01*
X730000Y748000D02*
X730650Y748650D01*
X730000Y747500D02*
Y748000D01*
X730650Y748650D02*
X744000D01*
X730000Y760000D02*
X731350Y761350D01*
X744000D01*
X729750Y760000D02*
X730000D01*
X812458Y774543D02*
X815757D01*
X811965Y774050D02*
X812458Y774543D01*
X801000Y774050D02*
X811965D01*
X815757Y774543D02*
X816214Y775000D01*
X795000Y766982D02*
X795228Y767210D01*
X798187Y774050D02*
X801000D01*
X795228Y771091D02*
X798187Y774050D01*
X795228Y767210D02*
Y771091D01*
X904057Y780457D02*
X904600Y781000D01*
X817500Y714678D02*
Y715000D01*
Y714678D02*
X818503Y713675D01*
Y711097D02*
X818960Y710639D01*
X818503Y711097D02*
Y713675D01*
X807127Y710935D02*
X807680Y711488D01*
X807127Y710721D02*
Y710935D01*
D52*
X836437Y712851D02*
Y716042D01*
X840395Y720000D02*
X840738D01*
X836437Y716042D02*
X840395Y720000D01*
X801332Y609033D02*
X802945Y610646D01*
X801332Y608500D02*
Y609033D01*
X802945Y610646D02*
Y617205D01*
X701549Y754049D02*
X702117Y754617D01*
X701549Y742174D02*
Y754049D01*
X700000Y740625D02*
X701549Y742174D01*
X846975Y692705D02*
Y698025D01*
X845985Y699015D02*
X846975Y698025D01*
X845985Y699015D02*
Y706035D01*
X845500Y706520D02*
X845985Y706035D01*
X839308Y711661D02*
X839811Y712165D01*
X837626Y711661D02*
X839308D01*
X836437Y712851D02*
X837626Y711661D01*
X806960Y607414D02*
Y612735D01*
Y607414D02*
X807143Y607230D01*
X790960Y603040D02*
X800000Y594000D01*
X790960Y603040D02*
Y612735D01*
X807099Y596347D02*
X810653D01*
X794960Y608486D02*
Y617220D01*
Y608486D02*
X807099Y596347D01*
X810975Y610364D02*
Y617205D01*
X812998Y607808D02*
Y608341D01*
X810975Y610364D02*
X812998Y608341D01*
X810960Y617220D02*
X810975Y617205D01*
X802945D02*
X802960Y617220D01*
X825432Y607755D02*
Y608559D01*
X860555Y649259D02*
X875192D01*
X875724Y649791D01*
X864976Y607321D02*
Y613045D01*
Y607321D02*
X865445Y606852D01*
X777500Y580000D02*
Y587500D01*
X858945Y619076D02*
X864976Y613045D01*
X858945Y619076D02*
Y628705D01*
X822500Y563000D02*
X825500Y560000D01*
X822500Y563000D02*
Y586000D01*
X770000Y617500D02*
X770804D01*
X771534Y618230D02*
X772500D01*
X770804Y617500D02*
X771534Y618230D01*
X772500D02*
X778990Y624720D01*
X783460D01*
X773690Y635400D02*
X774067Y635777D01*
X776460D01*
X848149Y611540D02*
X863507D01*
X846960Y612729D02*
Y617220D01*
Y612729D02*
X848149Y611540D01*
X680000Y728689D02*
X681189Y727500D01*
X705000D01*
X821278Y594639D02*
X821569Y594930D01*
X819945Y594639D02*
X821278D01*
X819377Y595207D02*
X819945Y594639D01*
X777500Y587500D02*
X784000Y594000D01*
X784500Y580500D02*
X790000Y586000D01*
X790125Y586125D01*
X784500Y560000D02*
Y580500D01*
X818963Y608425D02*
X818967Y608421D01*
X818963Y608425D02*
Y617217D01*
X818960Y617220D02*
X818963Y617217D01*
X823981Y610009D02*
X825432Y608559D01*
X823445Y610678D02*
X823981Y610142D01*
Y610009D02*
Y610142D01*
X823445Y610678D02*
Y611035D01*
X822975Y611505D02*
X823445Y611035D01*
X822975Y611505D02*
Y617205D01*
X776918Y636235D02*
X776954D01*
X777424Y636705D02*
X783445D01*
X776954Y636235D02*
X777424Y636705D01*
X776460Y635777D02*
X776918Y636235D01*
X784000Y594000D02*
X790000D01*
X860031Y648735D02*
X860555Y649259D01*
X862413Y644732D02*
X862425Y644744D01*
X854472Y644732D02*
X862413D01*
X854460Y644720D02*
X854472Y644732D01*
X854460Y648720D02*
X854475Y648735D01*
X860031D01*
X821569Y594930D02*
X822500Y594000D01*
X799875Y586125D02*
X800000Y586250D01*
X790125Y586125D02*
X799875D01*
X812500Y585714D02*
X812786Y586000D01*
X822500D01*
X812500Y594286D02*
Y594500D01*
X810653Y596347D02*
X812500Y594500D01*
X800000Y593750D02*
Y594000D01*
X680000Y728689D02*
Y740625D01*
X670000Y727500D02*
Y740625D01*
Y727500D02*
X670000Y727500D01*
X660000Y740625D02*
X660000Y740625D01*
Y727500D02*
Y740625D01*
X835639Y734090D02*
Y771643D01*
X822907Y748650D02*
X830015Y741542D01*
Y733458D02*
Y741542D01*
X901582Y777384D02*
X902027D01*
X904600Y779957D01*
X888655Y765000D02*
X889198D01*
X901582Y777384D01*
X832500Y730951D02*
X835639Y734090D01*
X827430Y730873D02*
X830015Y733458D01*
X827404Y779877D02*
X835639Y771643D01*
X830960Y688220D02*
Y700000D01*
X832500D02*
Y730951D01*
X816985Y735515D02*
X823837Y728663D01*
X822960Y698572D02*
X823837Y699449D01*
X827430Y698050D02*
Y730873D01*
X815000Y737435D02*
Y737500D01*
X823837Y699449D02*
Y728663D01*
X826960Y697580D02*
X827430Y698050D01*
X712500Y740000D02*
X722515Y729985D01*
X755923D01*
X757923Y731985D01*
X794035D01*
X798000Y735950D01*
X801000D01*
X712500Y740000D02*
Y752500D01*
X720000Y760000D01*
X720250D01*
X752827Y779877D02*
X827404D01*
X747000Y774050D02*
X752827Y779877D01*
X813515Y735950D02*
X815000Y737435D01*
X801000Y735950D02*
X813515D01*
X801000Y748650D02*
X822907D01*
X815000Y737000D02*
Y737500D01*
Y737000D02*
X816485Y735515D01*
X816985D01*
X872848Y679432D02*
X876932D01*
X866901Y673485D02*
X872848Y679432D01*
X876932D02*
X877500Y680000D01*
X792500Y699225D02*
Y700000D01*
Y714196D02*
X800000Y721696D01*
Y722500D01*
X782515Y680720D02*
X783460D01*
X782500Y680735D02*
X782515Y680720D01*
X782500Y680735D02*
Y685000D01*
X861350Y673485D02*
X866901D01*
X854475Y672735D02*
X860600D01*
X861350Y673485D01*
X783445Y636705D02*
X783460Y636720D01*
X792500Y699225D02*
X794960Y696765D01*
X800842Y705842D02*
X801646D01*
X807127Y703149D02*
Y703364D01*
X805779Y704711D02*
X807127Y703364D01*
X802777Y704711D02*
X805779D01*
X801646Y705842D02*
X802777Y704711D01*
X798960Y688220D02*
Y700632D01*
X792500Y707092D02*
X798960Y700632D01*
Y688220D02*
X802960D01*
X792500Y707092D02*
Y714196D01*
X794960Y688220D02*
Y696765D01*
X807690Y703712D02*
X818316D01*
X818960Y703068D01*
X807127Y703149D02*
X807690Y703712D01*
X822960Y688220D02*
Y698572D01*
X826960Y688220D02*
Y697580D01*
X744000Y774050D02*
X747000D01*
X814960Y688220D02*
Y696136D01*
X813022Y698074D02*
X814960Y696136D01*
X813022Y698074D02*
Y698698D01*
X810975Y679919D02*
X811009Y679885D01*
X810975Y679919D02*
Y688205D01*
X810960Y688220D02*
X810975Y688205D01*
X783460Y676720D02*
Y680720D01*
X854460Y672720D02*
X854475Y672735D01*
X858930Y628720D02*
X858945Y628705D01*
X854460Y628720D02*
X858930D01*
X822960Y617220D02*
X822975Y617205D01*
X818960Y688220D02*
Y703068D01*
X806960Y688220D02*
X806975Y688235D01*
Y702998D01*
X807127Y703149D01*
D53*
X742559Y651501D02*
X742860Y651200D01*
X716301Y651501D02*
X742559D01*
X716000Y651200D02*
X716301Y651501D01*
X742860Y651200D02*
X747085D01*
X760897Y643200D02*
X760996Y643100D01*
X778630Y641050D02*
X778960Y640720D01*
X760870Y643200D02*
X760897D01*
X756170Y647900D02*
X760870Y643200D01*
X778590Y644350D02*
X778960Y644720D01*
X776633Y632120D02*
X778360D01*
X760996Y643100D02*
X774323D01*
X754803Y644600D02*
X759503Y639900D01*
X778960Y640720D02*
X783460D01*
X776939Y641050D02*
X778630D01*
X783360Y628620D02*
X783460Y628720D01*
X775599Y631420D02*
X775933D01*
X772695Y628516D02*
X775599Y631420D01*
X777800Y628620D02*
X783360D01*
X775933Y631420D02*
X776633Y632120D01*
X775572Y644350D02*
X778590D01*
X759530Y639900D02*
X759630Y639800D01*
X763454Y628516D02*
X772695D01*
X777300Y628120D02*
X777800Y628620D01*
X775689Y639800D02*
X776939Y641050D01*
X762087Y625216D02*
X774062D01*
X774323Y643100D02*
X775572Y644350D01*
X776966Y628120D02*
X777300D01*
X774062Y625216D02*
X776966Y628120D01*
X759630Y639800D02*
X775689D01*
X759503Y639900D02*
X759530D01*
X762358Y632393D02*
X763999Y634034D01*
X757500Y634134D02*
X759058Y632576D01*
Y628245D02*
Y632576D01*
X762358Y629612D02*
X763454Y628516D01*
X759058Y628245D02*
X762087Y625216D01*
X762358Y629612D02*
Y632393D01*
X773470Y661154D02*
X774254Y660370D01*
X766775Y665800D02*
X771421Y661154D01*
X765408Y662500D02*
X770054Y657854D01*
X759134Y657500D02*
X759308D01*
X772887Y657070D02*
X778610D01*
X772103Y657854D02*
X772887Y657070D01*
X770054Y657854D02*
X772103D01*
X758867Y665800D02*
X766775D01*
X771421Y661154D02*
X773470D01*
X757500Y662500D02*
X765408D01*
X737506Y647900D02*
X756170D01*
X747527Y644600D02*
X754803D01*
X757500Y634134D02*
Y635000D01*
X745000Y675000D02*
X757500Y662500D01*
X746367Y678300D02*
X758867Y665800D01*
X759134Y651000D02*
X760000D01*
X763999Y634034D02*
Y634900D01*
X757534Y655900D02*
X759134Y657500D01*
X774254Y660370D02*
X778610D01*
X706600Y621906D02*
X712106Y616400D01*
X706600Y621906D02*
Y655094D01*
X703300Y620540D02*
X710740Y613100D01*
X703300Y620540D02*
Y656460D01*
X778960Y644720D02*
X783460D01*
X778360Y632120D02*
X778960Y632720D01*
X741427Y638500D02*
X747527Y644600D01*
X741400Y638500D02*
X741427D01*
X728746Y639139D02*
X737506Y647900D01*
X728746Y638546D02*
Y639139D01*
X716000Y625800D02*
X728746Y638546D01*
X778860Y668820D02*
X783360D01*
X778360Y669320D02*
X778860Y668820D01*
X764579Y678112D02*
X770078D01*
X783360Y668820D02*
X783460Y668720D01*
X764456Y678235D02*
X764579Y678112D01*
X772009Y669320D02*
X778360D01*
X768320Y673009D02*
X772009Y669320D01*
X731933Y678300D02*
X746367D01*
X747118Y655900D02*
X757534D01*
X745718Y654500D02*
X747118Y655900D01*
X733300Y675000D02*
X745000D01*
X757534Y652600D02*
X759134Y651000D01*
X748485Y652600D02*
X757534D01*
X747085Y651200D02*
X748485Y652600D01*
X772151Y678135D02*
X777466Y672820D01*
X770078Y678112D02*
X770101Y678135D01*
X772151D01*
X783360Y672820D02*
X783460Y672720D01*
X777466Y672820D02*
X783360D01*
X730800Y672500D02*
X733300Y675000D01*
X727500Y673867D02*
X731933Y678300D01*
X778960Y632720D02*
X783460D01*
X741400Y663900D02*
X743172Y662128D01*
Y655554D02*
Y662128D01*
X744227Y654500D02*
X745718D01*
X743172Y655554D02*
X744227Y654500D01*
X710740Y613100D02*
X722647D01*
X712106Y616400D02*
X724014D01*
X727314Y613100D01*
X722647D02*
X724928Y610819D01*
X727314Y613100D02*
X741400D01*
X716000Y600400D02*
X724928Y609328D01*
Y610819D01*
X778960Y656720D02*
X783460D01*
X778610Y657070D02*
X778960Y656720D01*
X778610Y660370D02*
X778960Y660720D01*
X783460D01*
X727500Y667500D02*
Y673867D01*
X730800Y666133D02*
Y672500D01*
X713206Y661700D02*
X726367D01*
X725000Y665000D02*
X727500Y667500D01*
X726367Y661700D02*
X730800Y666133D01*
X706600Y655094D02*
X713206Y661700D01*
X703300Y656460D02*
X711840Y665000D01*
X725000D01*
D54*
X851271Y575000D02*
X858627D01*
X858708Y575081D01*
X845392Y567500D02*
X850115D01*
X834185Y578707D02*
X845392Y567500D01*
X858708Y568066D02*
Y575000D01*
X850036Y573765D02*
X851271Y575000D01*
X842728Y562735D02*
X853377D01*
X858708Y568066D01*
X843735Y573765D02*
X850036D01*
X840000Y577500D02*
X843735Y573765D01*
X829968Y539765D02*
X839333Y549130D01*
X631335Y539765D02*
X829968D01*
X839333Y549130D02*
Y559340D01*
X842728Y562735D01*
X606800Y564300D02*
X631335Y539765D01*
X837755Y609200D02*
Y610299D01*
X838725Y611269D01*
X837215Y608660D02*
X837755Y609200D01*
X837215Y589302D02*
Y608660D01*
X838725Y611269D02*
Y616985D01*
X837215Y589302D02*
X840000Y586517D01*
Y577500D02*
Y586517D01*
X834725Y610753D02*
Y616985D01*
X834185Y610213D02*
X834725Y610753D01*
X834185Y578707D02*
Y610213D01*
X838725Y616985D02*
X838960Y617220D01*
X834725Y616985D02*
X834960Y617220D01*
D55*
X848370Y550870D02*
X849240Y550000D01*
X860000D01*
X920000Y585000D02*
X930000D01*
X930000Y740000D02*
Y750000D01*
X830335Y765788D02*
X830623Y765499D01*
X830335Y765788D02*
Y768665D01*
X824000Y775000D02*
X830335Y768665D01*
X823786Y775000D02*
X824000D01*
X735000Y735000D02*
X735409D01*
X736165Y735757D02*
X743807D01*
X735409Y735000D02*
X736165Y735757D01*
X743807D02*
X744000Y735950D01*
X914829Y727945D02*
X917300Y730415D01*
Y740000D01*
X914829Y727674D02*
Y727945D01*
D56*
X791735Y517680D02*
D03*
X810558D02*
D03*
X801146D02*
D03*
X764896D02*
D03*
X774308D02*
D03*
X746073D02*
D03*
X755485D02*
D03*
X736662D02*
D03*
X727250D02*
D03*
D57*
X801332Y608500D02*
D03*
X807143Y607230D02*
D03*
X812998Y607808D02*
D03*
X866484Y630000D02*
D03*
X773690Y635400D02*
D03*
X776109Y648750D02*
D03*
X862425Y644744D02*
D03*
X776077Y664770D02*
D03*
X840012Y679220D02*
D03*
X868208Y644292D02*
D03*
X811009Y679885D02*
D03*
D58*
X923500Y630250D02*
D03*
Y650375D02*
D03*
Y663792D02*
D03*
Y657083D02*
D03*
Y643667D02*
D03*
X932000Y650000D02*
D03*
Y669250D02*
D03*
X923500Y670500D02*
D03*
X932000Y656417D02*
D03*
Y662833D02*
D03*
D59*
X930750Y698500D02*
D03*
Y705250D02*
D03*
X923750D02*
D03*
Y698500D02*
D03*
Y692250D02*
D03*
M02*
