G04*
G04 #@! TF.GenerationSoftware,Altium Limited,Altium Designer,24.8.2 (39)*
G04*
G04 Layer_Physical_Order=3*
G04 Layer_Color=16440176*
%FSLAX44Y44*%
%MOMM*%
G71*
G04*
G04 #@! TF.SameCoordinates,B24E7647-DC98-4454-BF0C-B73D814473A7*
G04*
G04*
G04 #@! TF.FilePolarity,Positive*
G04*
G01*
G75*
%ADD41O,3.6600X1.6600*%
%ADD42C,1.2500*%
%ADD43C,1.6250*%
%ADD44C,2.4000*%
%ADD45C,1.5300*%
%ADD46C,1.4000*%
%ADD47R,1.4000X1.4000*%
%ADD48C,0.5000*%
%ADD49C,0.6000*%
%ADD50C,0.1524*%
%ADD51C,0.3810*%
%ADD52C,0.2030*%
%ADD54C,0.1530*%
%ADD55C,0.3490*%
%ADD57C,0.4000*%
%ADD58C,0.4800*%
%ADD59C,0.4500*%
G36*
X680796Y771000D02*
X681313Y770005D01*
X681460Y769747D01*
X681636Y769611D01*
X681722Y769405D01*
X682110Y769244D01*
X682443Y768987D01*
X682664Y769015D01*
X682870Y768930D01*
X758000D01*
X758062Y768956D01*
X758685Y767451D01*
X759951Y766185D01*
X761187Y765673D01*
Y764327D01*
X759951Y763815D01*
X758685Y762549D01*
X758000Y760895D01*
Y759105D01*
X758685Y757451D01*
X759951Y756185D01*
X761186Y755673D01*
Y754327D01*
X759951Y753815D01*
X758685Y752549D01*
X758000Y750895D01*
Y749105D01*
X758685Y747451D01*
X759951Y746185D01*
X761187Y745673D01*
Y744327D01*
X759951Y743815D01*
X758685Y742549D01*
X758000Y740895D01*
Y739105D01*
X758685Y737451D01*
X759951Y736185D01*
X761605Y735500D01*
X763395D01*
X765049Y736185D01*
X766315Y737451D01*
X766827Y738687D01*
X768173D01*
X768685Y737451D01*
X769951Y736185D01*
X771605Y735500D01*
X773395D01*
X775049Y736185D01*
X776315Y737451D01*
X776827Y738687D01*
X778173D01*
X778685Y737451D01*
X779951Y736185D01*
X781605Y735500D01*
X783395D01*
X785049Y736185D01*
X786315Y737451D01*
X787000Y739105D01*
Y740895D01*
X786315Y742549D01*
X785049Y743815D01*
X783813Y744327D01*
Y745673D01*
X785049Y746185D01*
X786315Y747451D01*
X787000Y749105D01*
Y750895D01*
X786315Y752549D01*
X785049Y753815D01*
X783814Y754327D01*
Y755673D01*
X785049Y756185D01*
X786315Y757451D01*
X787000Y759105D01*
Y760895D01*
X786315Y762549D01*
X785049Y763815D01*
X783813Y764327D01*
Y765673D01*
X785049Y766185D01*
X786315Y767451D01*
X786938Y768956D01*
X787000Y768930D01*
X793170D01*
X793468Y769053D01*
X793791D01*
X794527Y769358D01*
X795473D01*
X796209Y769053D01*
X796532D01*
X796830Y768930D01*
X826602D01*
X826999Y768196D01*
X827189Y767660D01*
X826624Y766294D01*
Y764703D01*
X827232Y763233D01*
X828358Y762108D01*
X829828Y761499D01*
X831419D01*
X832889Y762108D01*
X834015Y763233D01*
X834623Y764703D01*
Y766294D01*
X834058Y767660D01*
X834248Y768196D01*
X834645Y768930D01*
X836818D01*
X837329Y769141D01*
X837427Y768904D01*
X838552Y767779D01*
X840022Y767170D01*
X841614D01*
X843084Y767779D01*
X844209Y768904D01*
X844307Y769141D01*
X844818Y768930D01*
X849701D01*
Y744152D01*
X850176Y743004D01*
X850293Y742955D01*
X850116Y742528D01*
Y734000D01*
X849204D01*
X847734Y733391D01*
X847732Y733388D01*
X847535Y733374D01*
X846308Y733760D01*
X845891Y734766D01*
X844766Y735891D01*
X843296Y736500D01*
X841704D01*
X840234Y735891D01*
X839109Y734766D01*
X838500Y733296D01*
Y731704D01*
X839109Y730234D01*
X839235Y730108D01*
X838709Y728839D01*
X797500D01*
X796352Y728363D01*
X795876Y727215D01*
Y711624D01*
X796213Y710812D01*
X795876Y710000D01*
Y702500D01*
X796352Y701352D01*
X797500Y700876D01*
X811750D01*
X812048Y701000D01*
X812371D01*
X812550Y701074D01*
X813495D01*
X813673Y701000D01*
X813885D01*
X814034Y700851D01*
X814369Y700712D01*
X815037Y700044D01*
X815399Y699170D01*
Y698324D01*
X815874Y697176D01*
X826698Y686352D01*
X827846Y685876D01*
X855000D01*
Y680193D01*
X853827Y679707D01*
X852078Y681456D01*
X851640Y681637D01*
X851246Y681900D01*
X850458Y682057D01*
X849764Y682521D01*
X849300Y682613D01*
X848862Y682795D01*
X828145D01*
X827637Y682896D01*
X827206Y683183D01*
X824096Y686293D01*
X822948Y686769D01*
X802500D01*
X801352Y686293D01*
X800876Y685145D01*
Y673543D01*
X799844Y672853D01*
X798054D01*
X796400Y672168D01*
X795134Y670902D01*
X794449Y669249D01*
Y667615D01*
X785064D01*
Y672469D01*
X789328Y676733D01*
X789884Y677565D01*
X790079Y678546D01*
Y692485D01*
X789884Y693466D01*
X789328Y694298D01*
X785064Y698562D01*
Y711311D01*
X784869Y712292D01*
X784313Y713124D01*
X783124Y714313D01*
X782292Y714869D01*
X781311Y715064D01*
X770000D01*
X769019Y714869D01*
X768187Y714313D01*
X764028Y710154D01*
X763472Y709322D01*
X763277Y708341D01*
Y692724D01*
X763472Y691743D01*
X764028Y690911D01*
X770771Y684167D01*
Y677698D01*
X769510Y676855D01*
X768456Y677440D01*
Y679031D01*
X767847Y680501D01*
X766722Y681626D01*
X765252Y682235D01*
X763661D01*
X762191Y681626D01*
X761065Y680501D01*
X760456Y679031D01*
Y677440D01*
X761065Y675969D01*
X762191Y674844D01*
X763203Y674425D01*
X764321Y673804D01*
Y672213D01*
X764930Y670743D01*
X766055Y669618D01*
X766839Y669293D01*
X767538Y667924D01*
X767540Y667739D01*
X767485Y667615D01*
X765000D01*
X763852Y667139D01*
X763376Y665991D01*
Y660885D01*
X762106Y660359D01*
X761574Y660891D01*
X760104Y661500D01*
X758512D01*
X757042Y660891D01*
X755917Y659766D01*
X755308Y658296D01*
Y656704D01*
X755917Y655234D01*
X757042Y654109D01*
X757110Y653767D01*
X756609Y653266D01*
X756000Y651796D01*
Y650204D01*
X756609Y648734D01*
X757734Y647609D01*
X759204Y647000D01*
X760796D01*
X762266Y647609D01*
X763391Y648734D01*
X763942Y650065D01*
X765000Y649626D01*
X768376D01*
Y637851D01*
X767106Y637449D01*
X766265Y638291D01*
X764795Y638900D01*
X763203D01*
X761733Y638291D01*
X760799Y637357D01*
X759766Y638391D01*
X758296Y639000D01*
X756704D01*
X755234Y638391D01*
X754109Y637266D01*
X753500Y635796D01*
Y634204D01*
X754109Y632734D01*
X755234Y631609D01*
X756704Y631000D01*
X758296D01*
X759766Y631609D01*
X760699Y632543D01*
X761733Y631509D01*
X763203Y630900D01*
X764795D01*
X766265Y631509D01*
X767106Y632351D01*
X768376Y631949D01*
Y621500D01*
X768498Y621207D01*
X767734Y620891D01*
X766609Y619766D01*
X766000Y618296D01*
Y616704D01*
X766609Y615234D01*
X767734Y614109D01*
X769204Y613500D01*
X769817D01*
X769855Y613453D01*
X770108Y612183D01*
X770371Y611790D01*
X770552Y611352D01*
X770706Y611288D01*
X770798Y611150D01*
X771263Y611058D01*
X771700Y610876D01*
X797153D01*
X798001Y609606D01*
X797832Y609196D01*
Y607804D01*
X797884Y607678D01*
X797035Y606408D01*
X785287D01*
X784477Y607217D01*
X783729Y607717D01*
X782847Y607893D01*
X765851D01*
X764766Y608978D01*
X763296Y609587D01*
X761704D01*
X760234Y608978D01*
X759109Y607853D01*
X758735Y606949D01*
X757482Y606093D01*
X755891D01*
X755000Y605724D01*
X754420Y605484D01*
X753295Y604359D01*
X752686Y602889D01*
Y601297D01*
X753185Y600094D01*
D01*
X753295Y599827D01*
X754420Y598702D01*
X755000Y598462D01*
Y562500D01*
X702500D01*
Y598825D01*
X702025Y599972D01*
X700876Y600448D01*
X656500D01*
Y600796D01*
X655891Y602266D01*
X654766Y603391D01*
X653295Y604000D01*
X651704D01*
X650234Y603391D01*
X649109Y602266D01*
X648500Y600796D01*
Y600448D01*
X641500D01*
Y600796D01*
X640891Y602266D01*
X639766Y603391D01*
X638295Y604000D01*
X636704D01*
X635234Y603391D01*
X634109Y602266D01*
X633500Y600796D01*
Y600448D01*
X626500D01*
Y600796D01*
X625891Y602266D01*
X624766Y603391D01*
X623296Y604000D01*
X621704D01*
X620234Y603391D01*
X619109Y602266D01*
X618500Y600796D01*
Y600448D01*
X611500D01*
Y600796D01*
X610891Y602266D01*
X609766Y603391D01*
X608296Y604000D01*
X606704D01*
X605234Y603391D01*
X604109Y602266D01*
X603500Y600796D01*
Y600448D01*
X594722D01*
X594483Y600349D01*
X594226Y600371D01*
X594088Y600396D01*
X592514Y603236D01*
X592355Y603424D01*
X592236Y603640D01*
X589918Y606400D01*
X589727Y606553D01*
X589571Y606741D01*
X586770Y609010D01*
X586552Y609125D01*
X586362Y609281D01*
X585517Y609730D01*
X585775Y610906D01*
X585817Y611009D01*
X587266Y611609D01*
X588391Y612734D01*
X589000Y614204D01*
Y615796D01*
X588391Y617266D01*
X587266Y618391D01*
X585796Y619000D01*
X584204D01*
X582734Y618391D01*
X581609Y617266D01*
X581000Y615796D01*
Y614204D01*
X581564Y612841D01*
X581366Y612436D01*
X580803Y611744D01*
X579158Y612239D01*
X578903Y612264D01*
X578657Y612337D01*
X574868Y612686D01*
X574750Y612673D01*
X574634Y612696D01*
X429392Y612696D01*
X426015Y613056D01*
X423023Y614001D01*
X420315Y615485D01*
X417954Y617445D01*
X416007Y619818D01*
X414539Y622534D01*
X413612Y625532D01*
X413288Y628749D01*
X413630Y631913D01*
X414578Y634931D01*
X416093Y637709D01*
X418142Y640162D01*
X420633Y642166D01*
X423437Y643630D01*
X426473Y644522D01*
X429794Y644820D01*
X539720Y644820D01*
X539836Y644843D01*
X539953Y644831D01*
X543743Y645180D01*
X543988Y645253D01*
X544244Y645277D01*
X547779Y646342D01*
X548001Y646459D01*
X548241Y646532D01*
X550407Y647683D01*
X551406Y646776D01*
X551000Y645796D01*
Y644204D01*
X551609Y642734D01*
X552734Y641609D01*
X554204Y641000D01*
X555796D01*
X557266Y641609D01*
X558391Y642734D01*
X559000Y644204D01*
Y645796D01*
X558391Y647266D01*
X557266Y648391D01*
X555796Y649000D01*
X554482D01*
X553983Y649890D01*
X553913Y650173D01*
X554656Y650776D01*
X554813Y650964D01*
X555003Y651117D01*
X557322Y653877D01*
X557440Y654093D01*
X557600Y654280D01*
X559360Y657456D01*
X559437Y657695D01*
X559558Y657915D01*
X560685Y661431D01*
X560714Y661685D01*
X560791Y661928D01*
X561209Y665711D01*
X561185Y665988D01*
X561210Y666265D01*
X560812Y669943D01*
X560737Y670183D01*
X560710Y670433D01*
X559613Y673929D01*
X559493Y674148D01*
X559418Y674387D01*
X557663Y677604D01*
X557502Y677797D01*
X557381Y678017D01*
X555010Y680856D01*
X554813Y681015D01*
X554651Y681208D01*
X551769Y683528D01*
X551547Y683644D01*
X551351Y683801D01*
X549120Y684967D01*
X549182Y686367D01*
X549766Y686609D01*
X550891Y687734D01*
X551500Y689204D01*
Y690795D01*
X550891Y692266D01*
X549766Y693391D01*
X548296Y694000D01*
X546704D01*
X545234Y693391D01*
X544109Y692266D01*
X543500Y690795D01*
Y689204D01*
X543987Y688028D01*
X543897Y687719D01*
X543590Y687226D01*
X543205Y686849D01*
X539950Y687141D01*
X539835Y687129D01*
X539722Y687151D01*
X536967D01*
X536175Y688421D01*
X536500Y689204D01*
Y690795D01*
X535891Y692266D01*
X534766Y693391D01*
X533296Y694000D01*
X531704D01*
X530234Y693391D01*
X529109Y692266D01*
X528500Y690795D01*
Y689204D01*
X528824Y688421D01*
X528032Y687151D01*
X461968Y687151D01*
X461176Y688421D01*
X461500Y689204D01*
Y690795D01*
X460891Y692266D01*
X459766Y693391D01*
X458296Y694000D01*
X456704D01*
X455234Y693391D01*
X454109Y692266D01*
X453500Y690795D01*
Y689204D01*
X453824Y688421D01*
X453032Y687151D01*
X446968Y687151D01*
X446176Y688421D01*
X446500Y689204D01*
Y690795D01*
X445891Y692266D01*
X444766Y693391D01*
X443296Y694000D01*
X441704D01*
X440234Y693391D01*
X439109Y692266D01*
X438500Y690795D01*
Y689204D01*
X438824Y688421D01*
X438032Y687151D01*
X416968Y687151D01*
X416176Y688421D01*
X416500Y689204D01*
Y690795D01*
X415891Y692266D01*
X414766Y693391D01*
X413296Y694000D01*
X411704D01*
X410234Y693391D01*
X409109Y692266D01*
X408500Y690795D01*
Y689204D01*
X408824Y688421D01*
X408032Y687151D01*
X401968Y687151D01*
X401176Y688421D01*
X401500Y689204D01*
Y690795D01*
X400891Y692266D01*
X399766Y693391D01*
X398296Y694000D01*
X396704D01*
X395234Y693391D01*
X394109Y692266D01*
X393500Y690795D01*
Y689204D01*
X393701Y688719D01*
X392815Y687538D01*
X391870Y687642D01*
X387946Y689188D01*
X384561Y691702D01*
X381908Y695079D01*
X380244Y699039D01*
X379691Y703219D01*
X380244Y707399D01*
X381908Y711358D01*
X384561Y714736D01*
X387946Y717250D01*
X391870Y718796D01*
X396342Y719286D01*
X617968Y719286D01*
X618081Y719309D01*
X618195Y719296D01*
X621880Y719627D01*
X622121Y719698D01*
X622371Y719720D01*
X625887Y720753D01*
X626109Y720869D01*
X626348Y720940D01*
X629597Y722636D01*
X629793Y722793D01*
X630015Y722910D01*
X632897Y725229D01*
X633059Y725423D01*
X633256Y725581D01*
X635627Y728420D01*
X635747Y728641D01*
X635908Y728833D01*
X637664Y732050D01*
X637738Y732289D01*
X637858Y732508D01*
X638956Y736005D01*
X638983Y736254D01*
X639058Y736494D01*
X639456Y740172D01*
X639431Y740446D01*
X639456Y740720D01*
X639058Y744398D01*
X638983Y744638D01*
X638956Y744887D01*
X637859Y748384D01*
X637739Y748603D01*
X637664Y748842D01*
X635909Y752059D01*
X635748Y752252D01*
X635627Y752472D01*
X633256Y755311D01*
X633059Y755470D01*
X632898Y755663D01*
X630015Y757982D01*
X629793Y758099D01*
X629597Y758256D01*
X626349Y759953D01*
X626109Y760023D01*
X625888Y760139D01*
X622371Y761172D01*
X622121Y761195D01*
X621880Y761265D01*
X618196Y761596D01*
X618081Y761583D01*
X617968Y761606D01*
X515033Y761606D01*
X493280D01*
X490006Y761930D01*
X487010Y762841D01*
X484248Y764316D01*
X481802Y766322D01*
X480706Y767660D01*
X481308Y768930D01*
X626477D01*
X627003Y767660D01*
X626609Y767266D01*
X626000Y765795D01*
Y764204D01*
X626609Y762734D01*
X627734Y761609D01*
X629204Y761000D01*
X630796D01*
X632266Y761609D01*
X633391Y762734D01*
X634000Y764204D01*
Y765795D01*
X633391Y767266D01*
X632997Y767660D01*
X633523Y768930D01*
X641477D01*
X642003Y767660D01*
X641609Y767266D01*
X641000Y765795D01*
Y764204D01*
X641609Y762734D01*
X642734Y761609D01*
X644204Y761000D01*
X645796D01*
X647266Y761609D01*
X648391Y762734D01*
X649000Y764204D01*
Y765795D01*
X648391Y767266D01*
X647997Y767660D01*
X648523Y768930D01*
X662714D01*
X662919Y769015D01*
X663140Y768987D01*
X663473Y769244D01*
X663862Y769405D01*
X663947Y769611D01*
X664123Y769747D01*
X664271Y770006D01*
X664788Y771000D01*
X666379D01*
X666896Y770005D01*
X667044Y769747D01*
X667220Y769611D01*
X667305Y769405D01*
X667693Y769244D01*
X668026Y768987D01*
X668247Y769015D01*
X668453Y768930D01*
X677130D01*
X677336Y769015D01*
X677557Y768987D01*
X677890Y769244D01*
X678279Y769405D01*
X678364Y769611D01*
X678540Y769747D01*
X678688Y770006D01*
X679204Y771000D01*
X680796D01*
D02*
G37*
G36*
X920000Y729232D02*
X918793Y728810D01*
X918653Y728895D01*
X918220Y729939D01*
X917095Y731065D01*
X915625Y731674D01*
X914034D01*
X912564Y731065D01*
X911438Y729939D01*
X910829Y728469D01*
Y726878D01*
X911299Y725745D01*
X910848Y724770D01*
X910575Y724475D01*
X910456D01*
X908986Y723866D01*
X907860Y722741D01*
X907251Y721271D01*
Y719680D01*
X907860Y718210D01*
X908986Y717084D01*
X910456Y716475D01*
X912047D01*
X912575Y716694D01*
X913046Y716569D01*
X914058Y715966D01*
X914890Y713958D01*
X916461Y711911D01*
X918508Y710340D01*
X920000Y709722D01*
Y672241D01*
X919600Y671276D01*
Y669724D01*
X920000Y668758D01*
Y665533D01*
X919600Y664567D01*
Y663016D01*
X920000Y662050D01*
Y658825D01*
X919600Y657859D01*
Y656308D01*
X920000Y655342D01*
Y652116D01*
X919600Y651151D01*
Y649599D01*
X920000Y648634D01*
Y645408D01*
X919600Y644442D01*
Y642891D01*
X920000Y641925D01*
Y631991D01*
X919600Y631026D01*
Y629474D01*
X920000Y628509D01*
Y611078D01*
X918508Y610460D01*
X916461Y608889D01*
X914890Y606842D01*
X913902Y604458D01*
X913566Y601900D01*
X913631Y601403D01*
X912794Y600448D01*
X906917D01*
Y601169D01*
X906308Y602639D01*
X905182Y603764D01*
X903712Y604373D01*
X902121D01*
X900651Y603764D01*
X899944Y603058D01*
X898674Y603584D01*
Y705526D01*
X898601Y705702D01*
X898633Y705890D01*
X898371Y706257D01*
X898198Y706674D01*
X897676Y707921D01*
X898208Y709204D01*
Y710796D01*
X897599Y712266D01*
X896474Y713391D01*
X895004Y714000D01*
X893412D01*
X891942Y713391D01*
X890817Y712266D01*
X890501Y711502D01*
X890208Y711624D01*
X871300D01*
X870734Y712470D01*
Y714061D01*
X870126Y715531D01*
X869000Y716657D01*
X867530Y717265D01*
X865939D01*
X864469Y716657D01*
X863343Y715531D01*
X862734Y714061D01*
Y712470D01*
X862169Y711624D01*
X819780D01*
X820891Y712734D01*
X821500Y714204D01*
Y715796D01*
X820891Y717266D01*
X819766Y718391D01*
X818296Y719000D01*
X816704D01*
X815234Y718391D01*
X814109Y717266D01*
X813500Y715796D01*
Y714204D01*
X814109Y712734D01*
X815220Y711624D01*
X811680D01*
Y712284D01*
X811071Y713754D01*
X809945Y714879D01*
X808475Y715488D01*
X806884D01*
X805414Y714879D01*
X804289Y713754D01*
X803680Y712284D01*
Y711624D01*
X797500D01*
Y727215D01*
X847128D01*
X847734Y726609D01*
X849204Y726000D01*
X850796D01*
X851740Y726391D01*
D01*
X852266Y726609D01*
X852500Y726843D01*
X853391Y727734D01*
X854000Y729204D01*
Y730796D01*
X853391Y732266D01*
X852266Y733391D01*
X851740Y733609D01*
Y742528D01*
X860473D01*
X861000Y741258D01*
X860558Y740817D01*
X859949Y739346D01*
Y737755D01*
X860558Y736285D01*
X861683Y735160D01*
X863154Y734551D01*
X864745D01*
X866215Y735160D01*
X867340Y736285D01*
X867949Y737755D01*
Y739346D01*
X867340Y740817D01*
X866899Y741258D01*
X867425Y742528D01*
X875000D01*
X876148Y743004D01*
X876624Y744152D01*
Y770553D01*
X920000D01*
Y729232D01*
D02*
G37*
G36*
X890208Y709204D02*
X890817Y707734D01*
X891942Y706609D01*
X893412Y706000D01*
X895004D01*
X895780Y706322D01*
X897050Y705526D01*
Y586123D01*
X895994Y585418D01*
X895796Y585500D01*
X894204D01*
X892734Y584891D01*
X891783Y583940D01*
X890866Y583937D01*
X890361Y584054D01*
X889236Y585179D01*
X887765Y585788D01*
X886174D01*
X884704Y585179D01*
X883579Y584054D01*
X882970Y582584D01*
Y580993D01*
X883579Y579522D01*
X884331Y578770D01*
X883805Y577500D01*
X861946D01*
X860974Y578472D01*
X859504Y579081D01*
X857912D01*
X856442Y578472D01*
X855470Y577500D01*
X852219D01*
X852063Y577734D01*
Y579326D01*
X851454Y580796D01*
X850329Y581921D01*
X848858Y582530D01*
X847267D01*
X845797Y581921D01*
X844672Y580796D01*
X844063Y579326D01*
Y577734D01*
X843906Y577500D01*
X825000D01*
Y587500D01*
X887500D01*
Y594292D01*
X888296D01*
X889766Y594901D01*
X890891Y596026D01*
X891500Y597496D01*
Y599088D01*
X890891Y600558D01*
X889766Y601683D01*
X888296Y602292D01*
X887500D01*
Y655000D01*
X885601D01*
X884766Y655835D01*
X883296Y656444D01*
X881704D01*
X880234Y655835D01*
X879399Y655000D01*
X875000D01*
Y657038D01*
X875439Y657695D01*
X875703Y659024D01*
Y663916D01*
X875439Y665244D01*
X875000Y665901D01*
Y667230D01*
X875000Y667500D01*
X875652Y668500D01*
X875796D01*
X877266Y669109D01*
X878250Y670093D01*
X879234Y669109D01*
X880704Y668500D01*
X882296D01*
X883766Y669109D01*
X884891Y670234D01*
X885500Y671704D01*
Y673296D01*
X884891Y674766D01*
X883766Y675891D01*
X882296Y676500D01*
X881453D01*
X880891Y677734D01*
X881500Y679204D01*
Y680796D01*
X880891Y682266D01*
X879766Y683391D01*
X878296Y684000D01*
X876704D01*
X875234Y683391D01*
X874109Y682266D01*
X873500Y680796D01*
Y679204D01*
X874109Y677734D01*
X874112Y677732D01*
X874126Y677535D01*
X873740Y676308D01*
X872734Y675891D01*
X871609Y674766D01*
X871000Y673296D01*
Y671853D01*
X870615Y671549D01*
X869827Y671230D01*
X860000Y681057D01*
Y687500D01*
X827846D01*
X817022Y698324D01*
Y699493D01*
X816413Y700963D01*
X815288Y702088D01*
X814655Y702351D01*
Y702500D01*
X814295D01*
X813818Y702698D01*
X812227D01*
X811750Y702500D01*
X797500D01*
Y710000D01*
X803966D01*
X804289Y709222D01*
X805414Y708097D01*
X806884Y707488D01*
X808475D01*
X809945Y708097D01*
X811071Y709222D01*
X811393Y710000D01*
X864343D01*
X864469Y709874D01*
X865939Y709266D01*
X867530D01*
X869000Y709874D01*
X869126Y710000D01*
X890208D01*
Y709204D01*
D02*
G37*
G36*
X958217Y778125D02*
Y770982D01*
Y770553D01*
X958217Y511679D01*
X949879D01*
X937500Y511679D01*
D01*
X899599Y511679D01*
Y533122D01*
X899512Y533561D01*
X899443Y534003D01*
X898751Y535882D01*
X898738Y535902D01*
X898734Y535926D01*
X898479Y536325D01*
X898232Y536730D01*
X898212Y536744D01*
X898199Y536764D01*
X897811Y537036D01*
X897428Y537315D01*
X897404Y537321D01*
X897385Y537335D01*
X895552Y538140D01*
X895524Y538147D01*
X895501Y538162D01*
X895040Y538254D01*
X894581Y538355D01*
X894553Y538351D01*
X894526Y538356D01*
X851740D01*
D01*
X851740D01*
X850764Y538162D01*
X848955Y537412D01*
X848128Y536860D01*
X847575Y536033D01*
X846826Y534223D01*
Y534223D01*
X846826Y534223D01*
X846748Y533830D01*
X846632Y533248D01*
Y533248D01*
Y533248D01*
X846632Y517840D01*
X846481Y517475D01*
X846115Y517323D01*
X830928Y517323D01*
X830563Y517475D01*
X830411Y517840D01*
X830411Y530437D01*
X830361Y530687D01*
X830361Y530942D01*
X829942Y533014D01*
X829942Y533016D01*
Y533017D01*
X829751Y533473D01*
X829559Y533932D01*
X829558Y533933D01*
X829557Y533934D01*
X828416Y535627D01*
X828072Y535969D01*
X827728Y536315D01*
X826036Y537456D01*
X826034Y537457D01*
X826033Y537458D01*
X825569Y537652D01*
X825118Y537841D01*
X825117D01*
X825115Y537841D01*
X823043Y538260D01*
X823039D01*
X823036Y538261D01*
X822542D01*
X822049Y538263D01*
X822045Y538261D01*
X822041D01*
X820004Y537856D01*
X819085Y537476D01*
X817358Y536321D01*
X817358Y536321D01*
D01*
X816655Y535618D01*
X815500Y533891D01*
X815120Y532972D01*
X814715Y530935D01*
Y530684D01*
X814666Y530437D01*
X814666Y506953D01*
X814514Y506587D01*
X814148Y506435D01*
X788379Y506435D01*
X788006Y506588D01*
X787854Y506954D01*
X787854Y522474D01*
X787660Y523450D01*
X786884Y525324D01*
X786884Y525324D01*
Y525324D01*
X786661Y525658D01*
X786331Y526151D01*
X786331Y526151D01*
X786331Y526151D01*
X785508Y526701D01*
X785504Y526703D01*
D01*
X785504Y526704D01*
X783630Y527480D01*
X783140Y527577D01*
X782663Y527674D01*
X782659Y527673D01*
X782655Y527674D01*
X782170Y527577D01*
X781687Y527483D01*
X779806Y526711D01*
X779803Y526709D01*
X779800Y526708D01*
X779389Y526434D01*
X778977Y526161D01*
X778975Y526158D01*
X778973Y526157D01*
X778697Y525744D01*
X778422Y525336D01*
X778421Y525333D01*
X778419Y525330D01*
X777639Y523452D01*
X777639Y523451D01*
X777638Y523450D01*
X777541Y522960D01*
X777444Y522477D01*
X777444Y522476D01*
X777444Y522474D01*
X777444Y506912D01*
X777288Y506521D01*
X776921Y506367D01*
X724576D01*
X724211Y506518D01*
X724059Y506884D01*
X724059Y532985D01*
X723967Y533447D01*
X723886Y533909D01*
X723109Y535908D01*
X723078Y535956D01*
X723066Y536011D01*
X722812Y536373D01*
X722574Y536747D01*
X722528Y536779D01*
X722495Y536826D01*
X722122Y537064D01*
X721760Y537317D01*
X721704Y537330D01*
X721656Y537360D01*
X719657Y538137D01*
X719192Y538219D01*
X718730Y538310D01*
X665617Y538242D01*
D01*
X516438Y538242D01*
X514162Y538554D01*
X512039Y539389D01*
X507617Y542871D01*
X504323Y548124D01*
X503434Y551054D01*
X503108Y554281D01*
X503451Y557458D01*
X504399Y560477D01*
X505914Y563254D01*
X507963Y565707D01*
X510453Y567711D01*
X513258Y569175D01*
X516293Y570068D01*
X519614Y570365D01*
X574634Y570365D01*
X574750Y570388D01*
X574868Y570376D01*
X578656Y570725D01*
X578901Y570798D01*
X579156Y570822D01*
X582691Y571885D01*
X582912Y572003D01*
X583152Y572075D01*
X586358Y573778D01*
X586549Y573934D01*
X586766Y574049D01*
X589566Y576317D01*
X589723Y576505D01*
X589913Y576657D01*
X592232Y579416D01*
X592351Y579631D01*
X592510Y579819D01*
X594271Y582993D01*
X594347Y583232D01*
X594469Y583451D01*
X595597Y586966D01*
X595626Y587220D01*
X595703Y587464D01*
X596121Y591245D01*
X596097Y591525D01*
X596121Y591804D01*
X595705Y595586D01*
X595628Y595831D01*
X595599Y596085D01*
X594722Y598825D01*
X603657D01*
X604109Y597734D01*
X605234Y596609D01*
X606704Y596000D01*
X608296D01*
X609766Y596609D01*
X610891Y597734D01*
X611343Y598825D01*
X618657D01*
X619109Y597734D01*
X620234Y596609D01*
X621704Y596000D01*
X623296D01*
X624766Y596609D01*
X625891Y597734D01*
X626343Y598825D01*
X633657D01*
X634109Y597734D01*
X635234Y596609D01*
X636704Y596000D01*
X638295D01*
X639766Y596609D01*
X640891Y597734D01*
X641342Y598825D01*
X648657D01*
X649109Y597734D01*
X650234Y596609D01*
X651704Y596000D01*
X653295D01*
X654766Y596609D01*
X655891Y597734D01*
X656342Y598825D01*
X700876D01*
Y562500D01*
X701352Y561352D01*
X702500Y560876D01*
X755000D01*
X756148Y561352D01*
X756624Y562500D01*
Y598093D01*
X757482D01*
X758725Y598608D01*
X759175Y598518D01*
X808325D01*
X809207Y598694D01*
X809403Y598825D01*
X817657D01*
X817111Y598598D01*
X815985Y597473D01*
X815377Y596003D01*
Y594411D01*
X815985Y592941D01*
X817111Y591816D01*
X818581Y591207D01*
X820172D01*
X821642Y591816D01*
X822767Y592941D01*
X823376Y594411D01*
Y596003D01*
X822767Y597473D01*
X821642Y598598D01*
X821096Y598825D01*
X843657D01*
X844109Y597734D01*
X845234Y596609D01*
X846704Y596000D01*
X848296D01*
X849766Y596609D01*
X850891Y597734D01*
X851343Y598825D01*
X883500D01*
Y597496D01*
X884109Y596026D01*
X885234Y594901D01*
X885998Y594585D01*
X885876Y594292D01*
Y589124D01*
X825000D01*
X823852Y588648D01*
X823376Y587500D01*
Y577500D01*
X823515Y577165D01*
Y576704D01*
X824124Y575234D01*
X824790Y574568D01*
X818691D01*
X818012Y575247D01*
X818281D01*
X819751Y575856D01*
X820876Y576981D01*
X821485Y578452D01*
Y580043D01*
X820876Y581513D01*
X819751Y582638D01*
X818281Y583247D01*
X816689D01*
X815219Y582638D01*
X814094Y581513D01*
X813485Y580043D01*
Y579561D01*
X813380Y579631D01*
X812498Y579806D01*
X808351D01*
X807266Y580891D01*
X805796Y581500D01*
X804204D01*
X802734Y580891D01*
X801609Y579766D01*
X801000Y578296D01*
Y576704D01*
X801609Y575234D01*
X802734Y574109D01*
X804204Y573500D01*
X805796D01*
X807266Y574109D01*
X808351Y575194D01*
X811543D01*
X812736Y574000D01*
X811204D01*
X809734Y573391D01*
X808609Y572266D01*
X808000Y570796D01*
Y569204D01*
X808609Y567734D01*
X808799Y567544D01*
X795795D01*
X791707Y571633D01*
X790958Y572134D01*
X790074Y572309D01*
X773347D01*
X772266Y573391D01*
X770796Y574000D01*
X769204D01*
X767734Y573391D01*
X766609Y572266D01*
X766000Y570796D01*
Y569204D01*
X766609Y567734D01*
X767734Y566609D01*
X768601Y566250D01*
X767734Y565891D01*
X766609Y564766D01*
X766000Y563296D01*
Y561704D01*
X766609Y560234D01*
X767734Y559109D01*
X769204Y558500D01*
X770796D01*
X772266Y559109D01*
X773391Y560234D01*
X774000Y561704D01*
Y563296D01*
X773391Y564766D01*
X772266Y565891D01*
X771399Y566250D01*
X772266Y566609D01*
X773347Y567691D01*
X789117D01*
X793206Y563602D01*
X793955Y563101D01*
X794839Y562926D01*
X848200D01*
X849083Y563101D01*
X849833Y563602D01*
X849987Y563757D01*
X850608Y563500D01*
X852199D01*
X853669Y564109D01*
X854795Y565234D01*
X855404Y566704D01*
Y568296D01*
X855337Y568456D01*
X860662Y563131D01*
X861036Y562881D01*
X861410Y562631D01*
X862293Y562456D01*
X875999D01*
X879847Y558607D01*
X880595Y558107D01*
X881478Y557932D01*
X886973D01*
X887855Y558107D01*
X888603Y558607D01*
X904131Y574135D01*
X904631Y574883D01*
X904806Y575765D01*
Y581607D01*
X904631Y582490D01*
X904131Y583238D01*
X903238Y584131D01*
X902490Y584631D01*
X901607Y584806D01*
X899989D01*
X899106Y584631D01*
X898867Y584471D01*
X897685D01*
X897611Y584545D01*
X897952Y584773D01*
X898045Y584911D01*
X898198Y584975D01*
X898380Y585413D01*
X898643Y585807D01*
X898610Y585970D01*
X898674Y586123D01*
Y598825D01*
X899229D01*
X899526Y598107D01*
X900651Y596982D01*
X902121Y596373D01*
X903712D01*
X905182Y596982D01*
X906308Y598107D01*
X906605Y598825D01*
X914117D01*
X914890Y596958D01*
X916461Y594911D01*
X918409Y593415D01*
D01*
X918508Y593340D01*
X920892Y592352D01*
X923450Y592015D01*
X943450D01*
X946008Y592352D01*
X948392Y593340D01*
X950439Y594911D01*
X952010Y596958D01*
X952998Y599342D01*
X953335Y601900D01*
X952998Y604458D01*
X952010Y606842D01*
X950439Y608889D01*
X948392Y610460D01*
X946008Y611448D01*
X943450Y611785D01*
X923450D01*
X922578Y611670D01*
X921624Y612507D01*
Y625663D01*
X922680Y626368D01*
X922724Y626350D01*
X924276D01*
X925709Y626944D01*
X926806Y628041D01*
X927400Y629474D01*
Y631026D01*
X927281Y631313D01*
X928358Y632032D01*
X928691Y631698D01*
X930459Y630678D01*
X932430Y630150D01*
X934470D01*
X936441Y630678D01*
X938209Y631698D01*
X939651Y633141D01*
X940672Y634909D01*
X941200Y636880D01*
Y638920D01*
X940672Y640891D01*
X939651Y642659D01*
X938209Y644101D01*
X936441Y645122D01*
X934750Y645575D01*
X934537Y646015D01*
X934451Y646348D01*
X934435Y646920D01*
X935306Y647791D01*
X935900Y649224D01*
Y650776D01*
X935306Y652209D01*
X934307Y653208D01*
X935306Y654208D01*
X935900Y655641D01*
Y657192D01*
X935306Y658626D01*
X934307Y659625D01*
X935306Y660624D01*
X935900Y662057D01*
Y663609D01*
X935306Y665042D01*
X934307Y666042D01*
X935306Y667041D01*
X935900Y668474D01*
Y670026D01*
X935306Y671459D01*
X934209Y672556D01*
X932776Y673150D01*
X931224D01*
X929791Y672556D01*
X928694Y671459D01*
X928644Y671339D01*
X927994Y671306D01*
X927322Y671465D01*
X926806Y672709D01*
X925709Y673806D01*
X924276Y674400D01*
X922724D01*
X922680Y674381D01*
X921624Y675087D01*
Y708293D01*
X922578Y709130D01*
X923450Y709016D01*
X943450D01*
X946008Y709352D01*
X948392Y710340D01*
X950439Y711911D01*
X952010Y713958D01*
X952998Y716342D01*
X953335Y718900D01*
X952998Y721458D01*
X952010Y723842D01*
X950439Y725889D01*
X948392Y727460D01*
X946008Y728448D01*
X943450Y728784D01*
X938737D01*
X938211Y730054D01*
X938391Y730234D01*
X939000Y731704D01*
Y733296D01*
X938391Y734766D01*
X937266Y735891D01*
X935796Y736500D01*
X934204D01*
X932734Y735891D01*
X931609Y734766D01*
X931000Y733296D01*
Y731704D01*
X931609Y730234D01*
X931789Y730054D01*
X931263Y728784D01*
X923450D01*
X922776Y728696D01*
X922561Y728796D01*
X921624Y729825D01*
Y770553D01*
X921148Y771702D01*
X920000Y772177D01*
X876624D01*
X875475Y771702D01*
X875000Y770553D01*
Y744152D01*
X851324D01*
Y770553D01*
X844818D01*
Y771966D01*
X844209Y773436D01*
X843084Y774561D01*
X841614Y775170D01*
X840022D01*
X838552Y774561D01*
X837427Y773436D01*
X836818Y771966D01*
Y770553D01*
X796830D01*
X795796Y770982D01*
X794204D01*
X793170Y770553D01*
X787000D01*
Y770895D01*
X786315Y772549D01*
X785049Y773815D01*
X783395Y774500D01*
X781605D01*
X779951Y773815D01*
X778685Y772549D01*
X778173Y771313D01*
X776827D01*
X776315Y772549D01*
X775049Y773815D01*
X773395Y774500D01*
X771605D01*
X769951Y773815D01*
X768685Y772549D01*
X768173Y771313D01*
X766827D01*
X766315Y772549D01*
X765049Y773815D01*
X763395Y774500D01*
X761605D01*
X759951Y773815D01*
X758685Y772549D01*
X758000Y770895D01*
Y770553D01*
X682870D01*
X682722Y770812D01*
X682480Y771823D01*
X683391Y772734D01*
X684000Y774204D01*
Y775796D01*
X683391Y777266D01*
X682730Y777927D01*
X682407Y778750D01*
X682730Y779573D01*
X683391Y780234D01*
X684000Y781704D01*
Y783296D01*
X683391Y784766D01*
X682266Y785891D01*
X680796Y786500D01*
X679204D01*
X677734Y785891D01*
X676609Y784766D01*
X676000Y783296D01*
Y781704D01*
X676609Y780234D01*
X677270Y779573D01*
X677593Y778750D01*
X677270Y777927D01*
X676609Y777266D01*
X676000Y775796D01*
Y774204D01*
X676609Y772734D01*
X677520Y771823D01*
X677278Y770812D01*
X677130Y770553D01*
X668453D01*
X668305Y770812D01*
X668064Y771823D01*
X668974Y772734D01*
X669583Y774204D01*
Y775796D01*
X668974Y777266D01*
X667849Y778391D01*
X666379Y779000D01*
X664788D01*
X663317Y778391D01*
X662192Y777266D01*
X661583Y775796D01*
Y774204D01*
X662192Y772734D01*
X663103Y771823D01*
X662861Y770812D01*
X662714Y770553D01*
X478846D01*
X478324Y771533D01*
X477415Y774529D01*
X477105Y777679D01*
X477416Y780826D01*
X478326Y783821D01*
X479800Y786582D01*
X481806Y789028D01*
X484251Y791033D01*
X487012Y792507D01*
X490007Y793417D01*
X493280Y793741D01*
X958217D01*
X958217Y778125D01*
D02*
G37*
G36*
X826171Y681922D02*
X827003Y681366D01*
X827985Y681171D01*
X848862D01*
X849825Y680528D01*
X850930Y680308D01*
X857500Y673738D01*
Y669750D01*
X843241D01*
X842764Y670902D01*
X841498Y672168D01*
X839844Y672853D01*
X838054D01*
X836400Y672168D01*
X835134Y670902D01*
X834657Y669750D01*
X833241D01*
X832764Y670902D01*
X831498Y672168D01*
X829844Y672853D01*
X828054D01*
X826400Y672168D01*
X825134Y670902D01*
X824657Y669750D01*
X823241D01*
X822764Y670902D01*
X821498Y672168D01*
X819844Y672853D01*
X818054D01*
X816400Y672168D01*
X815134Y670902D01*
X814657Y669750D01*
X813241D01*
X812764Y670902D01*
X811498Y672168D01*
X809844Y672853D01*
X808054D01*
X806400Y672168D01*
X805134Y670902D01*
X804657Y669750D01*
X803241D01*
X802764Y670902D01*
X802500Y671166D01*
Y685145D01*
X822948D01*
X826171Y681922D01*
D02*
G37*
G36*
X868760Y662478D02*
Y660462D01*
X860006Y651708D01*
X859700Y651250D01*
X842416D01*
X841498Y652168D01*
X839844Y652853D01*
X838054D01*
X836400Y652168D01*
X835481Y651250D01*
X832416D01*
X831498Y652168D01*
X829844Y652853D01*
X828054D01*
X826400Y652168D01*
X825481Y651250D01*
X822416D01*
X821498Y652168D01*
X819844Y652853D01*
X818054D01*
X816400Y652168D01*
X815481Y651250D01*
X812416D01*
X811498Y652168D01*
X809844Y652853D01*
X808054D01*
X806400Y652168D01*
X805481Y651250D01*
X802416D01*
X801498Y652168D01*
X799844Y652853D01*
X798054D01*
X796400Y652168D01*
X795481Y651250D01*
X781492D01*
Y651251D01*
X781624Y651567D01*
Y664677D01*
X781560Y664831D01*
X781592Y664994D01*
X781559Y665160D01*
Y665991D01*
X795057D01*
X795134Y665804D01*
X796400Y664538D01*
X798054Y663854D01*
X799844D01*
X801498Y664538D01*
X802764Y665804D01*
X802841Y665991D01*
X805057D01*
X805134Y665804D01*
X806400Y664538D01*
X808054Y663854D01*
X809844D01*
X811498Y664538D01*
X812764Y665804D01*
X812841Y665991D01*
X815057D01*
X815134Y665804D01*
X816400Y664538D01*
X818054Y663854D01*
X819844D01*
X821498Y664538D01*
X822764Y665804D01*
X822841Y665991D01*
X825057D01*
X825134Y665804D01*
X826400Y664538D01*
X828054Y663854D01*
X829844D01*
X831498Y664538D01*
X832764Y665804D01*
X832841Y665991D01*
X835057D01*
X835134Y665804D01*
X836400Y664538D01*
X838054Y663854D01*
X839844D01*
X841498Y664538D01*
X842764Y665804D01*
X842841Y665991D01*
X865246D01*
X868760Y662478D01*
D02*
G37*
G36*
X772502Y661721D02*
X772401Y661214D01*
X772114Y660783D01*
X768852Y657522D01*
X768376Y656374D01*
Y651250D01*
X765000D01*
Y665991D01*
X772502D01*
Y661721D01*
D02*
G37*
G36*
X780871Y649751D02*
X781192Y649751D01*
X781492Y649626D01*
X794196D01*
X794449Y649249D01*
Y647458D01*
X795134Y645804D01*
X796400Y644538D01*
X797635Y644027D01*
Y642680D01*
X796400Y642168D01*
X795134Y640902D01*
X794449Y639249D01*
Y637458D01*
X795134Y635804D01*
X796400Y634538D01*
X798054Y633853D01*
X799844D01*
X801498Y634538D01*
X802764Y635804D01*
X803276Y637040D01*
X804622D01*
X805134Y635804D01*
X806400Y634538D01*
X808054Y633853D01*
X809844D01*
X811498Y634538D01*
X812764Y635804D01*
X813276Y637040D01*
X814622D01*
X815134Y635804D01*
X816400Y634538D01*
X818054Y633853D01*
X819844D01*
X821498Y634538D01*
X822438Y635479D01*
X822764Y635804D01*
X823276Y637040D01*
D01*
X823449Y637458D01*
Y639249D01*
X822764Y640902D01*
X822438Y641228D01*
Y645479D01*
X822764Y645804D01*
X823449Y647458D01*
Y648678D01*
X824449D01*
Y647458D01*
X825134Y645804D01*
X826400Y644538D01*
X828054Y643853D01*
X829844D01*
X831498Y644538D01*
X832764Y645804D01*
X833449Y647458D01*
Y648678D01*
X834449D01*
Y647458D01*
X835134Y645804D01*
X836400Y644538D01*
X838054Y643853D01*
X839844D01*
X841498Y644538D01*
X842764Y645804D01*
X843449Y647458D01*
Y649249D01*
X843701Y649626D01*
X855000D01*
Y648678D01*
X868656D01*
Y648554D01*
X867894Y647792D01*
X867512D01*
X866226Y647259D01*
X865241Y646274D01*
X864708Y644988D01*
Y643595D01*
X865241Y642309D01*
X866226Y641324D01*
X867512Y640791D01*
X868905D01*
X870191Y641324D01*
X870876Y642010D01*
Y637403D01*
X871058Y636965D01*
X871150Y636501D01*
X871288Y636409D01*
X871352Y636255D01*
X871789Y636074D01*
X872183Y635811D01*
X873209Y635607D01*
Y634393D01*
X872183Y634189D01*
X871789Y633926D01*
X871352Y633745D01*
X871288Y633591D01*
X871150Y633499D01*
X871058Y633035D01*
X870876Y632597D01*
Y628032D01*
X871058Y627595D01*
X871150Y627130D01*
X871288Y627038D01*
X871352Y626884D01*
X871789Y626703D01*
X872183Y626440D01*
X873209Y626236D01*
Y625023D01*
X872183Y624819D01*
X871789Y624556D01*
X871352Y624374D01*
X871288Y624221D01*
X871150Y624128D01*
X871058Y623664D01*
X870876Y623226D01*
Y622500D01*
X867960D01*
Y623978D01*
X867351Y625448D01*
X866299Y626500D01*
X867180D01*
X868467Y627033D01*
X869451Y628017D01*
X869984Y629304D01*
Y630696D01*
X869451Y631983D01*
X868467Y632967D01*
X867180Y633500D01*
X865788D01*
X864501Y632967D01*
X863517Y631983D01*
X862984Y630696D01*
Y629304D01*
X863517Y628017D01*
X864352Y627182D01*
X863164D01*
X861694Y626573D01*
X860569Y625448D01*
X859960Y623978D01*
Y622500D01*
X855000D01*
Y621624D01*
X781624D01*
Y645932D01*
X781492Y646249D01*
X781484Y646591D01*
X781264Y646800D01*
X781148Y647080D01*
X780832Y647211D01*
X780583Y647447D01*
X779727Y647777D01*
X779609Y648054D01*
Y649282D01*
X780096Y649610D01*
X780782Y649840D01*
X780871Y649751D01*
D02*
G37*
G36*
X779936Y697500D02*
X780000Y697177D01*
Y688157D01*
X779109Y687266D01*
X778500Y685796D01*
Y684204D01*
X779109Y682734D01*
X780000Y681843D01*
Y673854D01*
X779936Y673531D01*
Y665000D01*
X780000Y664677D01*
Y651567D01*
X778730Y651078D01*
X778091Y651717D01*
X776805Y652250D01*
X775413D01*
X774126Y651717D01*
X773141Y650732D01*
X772609Y649446D01*
Y648054D01*
X773141Y646767D01*
X774126Y645783D01*
X775413Y645250D01*
X776805D01*
X778091Y645783D01*
X778730Y646421D01*
X780000Y645932D01*
Y620000D01*
X861485D01*
X861694Y619791D01*
X863164Y619182D01*
X864756D01*
X866226Y619791D01*
X866435Y620000D01*
X872500D01*
Y623226D01*
X873770Y623479D01*
X873818Y623363D01*
X874943Y622238D01*
X876413Y621629D01*
X878005D01*
X879475Y622238D01*
X880600Y623363D01*
X881209Y624833D01*
Y626425D01*
X880600Y627895D01*
X879475Y629020D01*
X878005Y629629D01*
X876413D01*
X874943Y629020D01*
X873818Y627895D01*
X873770Y627780D01*
X872500Y628032D01*
Y632597D01*
X873770Y632850D01*
X873818Y632734D01*
X874943Y631609D01*
X876413Y631000D01*
X878005D01*
X879475Y631609D01*
X880600Y632734D01*
X881209Y634204D01*
Y635796D01*
X880600Y637266D01*
X879475Y638391D01*
X878005Y639000D01*
X876413D01*
X874943Y638391D01*
X873818Y637266D01*
X873770Y637150D01*
X872500Y637403D01*
Y645875D01*
X872593Y645968D01*
X873093Y646716D01*
X873269Y647599D01*
Y650808D01*
X874960Y652500D01*
X878500D01*
Y651648D01*
X879109Y650178D01*
X880234Y649053D01*
X881088Y648699D01*
X880836Y647429D01*
X880380D01*
X878910Y646820D01*
X877785Y645695D01*
X877176Y644225D01*
Y642633D01*
X877785Y641163D01*
X878910Y640038D01*
X880380Y639429D01*
X881971D01*
X883441Y640038D01*
X883730Y640327D01*
X885000Y639800D01*
Y612500D01*
X771700D01*
X771448Y613770D01*
X772266Y614109D01*
X773391Y615234D01*
X774000Y616704D01*
Y618296D01*
X773391Y619766D01*
X772266Y620891D01*
X770796Y621500D01*
X770000D01*
Y656374D01*
X773375Y659748D01*
X773931Y660580D01*
X774126Y661562D01*
Y666776D01*
X775149Y667799D01*
X775705Y668631D01*
X775900Y669613D01*
Y685229D01*
X775705Y686211D01*
X775149Y687043D01*
X770000Y692191D01*
Y708072D01*
X779936D01*
Y697500D01*
D02*
G37*
G36*
X885876Y610291D02*
Y602292D01*
X885998Y601999D01*
X885234Y601683D01*
X884109Y600558D01*
X883981Y600249D01*
X883500Y600448D01*
X851500D01*
Y600796D01*
X850891Y602266D01*
X849766Y603391D01*
X848296Y604000D01*
X846704D01*
X845234Y603391D01*
X844109Y602266D01*
X843500Y600796D01*
Y600448D01*
X821096D01*
X820797Y600325D01*
X820474D01*
X820246Y600096D01*
X819948Y599972D01*
X819824Y599674D01*
X819596Y599446D01*
Y599207D01*
X819157D01*
Y599446D01*
X818929Y599674D01*
X818805Y599972D01*
X818507Y600096D01*
X818279Y600325D01*
X817956D01*
X817657Y600448D01*
X814655D01*
Y604143D01*
X814777Y604756D01*
X814981Y604841D01*
X815936Y605796D01*
X816701Y605030D01*
X818171Y604421D01*
X819762D01*
X821232Y605030D01*
X822357Y606156D01*
X822967Y607626D01*
Y609217D01*
X822357Y610687D01*
X822168Y610876D01*
X868560D01*
X869043Y609606D01*
X868500Y608296D01*
Y606704D01*
X869109Y605234D01*
X870234Y604109D01*
X871704Y603500D01*
X873296D01*
X874766Y604109D01*
X875891Y605234D01*
X876500Y606704D01*
Y608296D01*
X875957Y609606D01*
X876440Y610876D01*
X885000D01*
X885876Y610291D01*
D02*
G37*
%LPC*%
G36*
X680381Y767680D02*
X678790D01*
X677320Y767071D01*
X676194Y765946D01*
X675585Y764476D01*
Y762885D01*
X676194Y761414D01*
X677320Y760289D01*
X678790Y759680D01*
X680381D01*
X681851Y760289D01*
X682976Y761414D01*
X683585Y762885D01*
Y764476D01*
X682976Y765946D01*
X681851Y767071D01*
X680381Y767680D01*
D02*
G37*
G36*
X841614Y764170D02*
X840022D01*
X838552Y763561D01*
X837427Y762436D01*
X836818Y760966D01*
Y759374D01*
X837427Y757904D01*
X838552Y756779D01*
X840022Y756170D01*
X841614D01*
X843084Y756779D01*
X844209Y757904D01*
X844818Y759374D01*
Y760966D01*
X844209Y762436D01*
X843084Y763561D01*
X841614Y764170D01*
D02*
G37*
G36*
X660796Y764000D02*
X659204D01*
X657734Y763391D01*
X656609Y762266D01*
X656000Y760796D01*
Y759204D01*
X656609Y757734D01*
X657734Y756609D01*
X659204Y756000D01*
X660796D01*
X662266Y756609D01*
X663391Y757734D01*
X664000Y759204D01*
Y760796D01*
X663391Y762266D01*
X662266Y763391D01*
X660796Y764000D01*
D02*
G37*
G36*
X702913Y758617D02*
X701322D01*
X699851Y758008D01*
X698726Y756883D01*
X698117Y755413D01*
Y753822D01*
X698726Y752351D01*
X699851Y751226D01*
X701322Y750617D01*
X702913D01*
X704383Y751226D01*
X705508Y752351D01*
X706117Y753822D01*
Y755413D01*
X705508Y756883D01*
X704383Y758008D01*
X702913Y758617D01*
D02*
G37*
G36*
X676655Y756209D02*
X675063D01*
X673593Y755600D01*
X672468Y754475D01*
X671859Y753004D01*
Y751413D01*
X672468Y749943D01*
X673593Y748818D01*
X675063Y748209D01*
X676655D01*
X678125Y748818D01*
X679250Y749943D01*
X679859Y751413D01*
Y753004D01*
X679250Y754475D01*
X678125Y755600D01*
X676655Y756209D01*
D02*
G37*
G36*
X653295Y754000D02*
X651704D01*
X650234Y753391D01*
X649109Y752266D01*
X648500Y750795D01*
Y749204D01*
X649109Y747734D01*
X650234Y746609D01*
X651704Y746000D01*
X653295D01*
X654766Y746609D01*
X655891Y747734D01*
X656500Y749204D01*
Y750795D01*
X655891Y752266D01*
X654766Y753391D01*
X653295Y754000D01*
D02*
G37*
G36*
X735796Y739000D02*
X734204D01*
X732734Y738391D01*
X731609Y737266D01*
X731000Y735796D01*
Y734204D01*
X731609Y732734D01*
X732734Y731609D01*
X734204Y731000D01*
X735796D01*
X737266Y731609D01*
X738391Y732734D01*
X739000Y734204D01*
Y735796D01*
X738391Y737266D01*
X737266Y738391D01*
X735796Y739000D01*
D02*
G37*
G36*
X645796Y739000D02*
X644204D01*
X642734Y738391D01*
X641609Y737266D01*
X641000Y735795D01*
Y734204D01*
X641609Y732734D01*
X642734Y731609D01*
X644204Y731000D01*
X645796D01*
X647266Y731609D01*
X648391Y732734D01*
X649000Y734204D01*
Y735795D01*
X648391Y737266D01*
X647266Y738391D01*
X645796Y739000D01*
D02*
G37*
G36*
X705796Y731500D02*
X704204D01*
X702734Y730891D01*
X701609Y729766D01*
X701000Y728296D01*
Y726704D01*
X701609Y725234D01*
X702734Y724109D01*
X704204Y723500D01*
X705796D01*
X707266Y724109D01*
X708391Y725234D01*
X709000Y726704D01*
Y728296D01*
X708391Y729766D01*
X707266Y730891D01*
X705796Y731500D01*
D02*
G37*
G36*
X670796D02*
X669204D01*
X667734Y730891D01*
X666609Y729766D01*
X666000Y728296D01*
Y726704D01*
X666609Y725234D01*
X667734Y724109D01*
X669204Y723500D01*
X670796D01*
X672266Y724109D01*
X673391Y725234D01*
X674000Y726704D01*
Y728296D01*
X673391Y729766D01*
X672266Y730891D01*
X670796Y731500D01*
D02*
G37*
G36*
X660796D02*
X659204D01*
X657734Y730891D01*
X656609Y729766D01*
X656000Y728296D01*
Y726704D01*
X656609Y725234D01*
X657734Y724109D01*
X659204Y723500D01*
X660796D01*
X662266Y724109D01*
X663391Y725234D01*
X664000Y726704D01*
Y728296D01*
X663391Y729766D01*
X662266Y730891D01*
X660796Y731500D01*
D02*
G37*
G36*
X760796Y730970D02*
X759204D01*
X757734Y730361D01*
X756609Y729236D01*
X756000Y727766D01*
Y726174D01*
X756609Y724704D01*
X757734Y723579D01*
X759204Y722970D01*
X760796D01*
X762266Y723579D01*
X763391Y724704D01*
X764000Y726174D01*
Y727766D01*
X763391Y729236D01*
X762266Y730361D01*
X760796Y730970D01*
D02*
G37*
G36*
X653295Y724000D02*
X651704D01*
X650234Y723391D01*
X649109Y722266D01*
X648500Y720795D01*
Y719204D01*
X649109Y717734D01*
X650234Y716609D01*
X651704Y716000D01*
X653295D01*
X654766Y716609D01*
X655891Y717734D01*
X656500Y719204D01*
Y720795D01*
X655891Y722266D01*
X654766Y723391D01*
X653295Y724000D01*
D02*
G37*
G36*
X638295D02*
X636704D01*
X635234Y723391D01*
X634109Y722266D01*
X633500Y720795D01*
Y719204D01*
X634109Y717734D01*
X635234Y716609D01*
X636704Y716000D01*
X638295D01*
X639766Y716609D01*
X640891Y717734D01*
X641500Y719204D01*
Y720795D01*
X640891Y722266D01*
X639766Y723391D01*
X638295Y724000D01*
D02*
G37*
G36*
X760796Y721500D02*
X759204D01*
X757734Y720891D01*
X756609Y719766D01*
X756000Y718296D01*
Y716704D01*
X756609Y715234D01*
X757734Y714109D01*
X759204Y713500D01*
X760796D01*
X762266Y714109D01*
X763391Y715234D01*
X764000Y716704D01*
Y718296D01*
X763391Y719766D01*
X762266Y720891D01*
X760796Y721500D01*
D02*
G37*
G36*
X585796Y709000D02*
X584204D01*
X582734Y708391D01*
X581609Y707266D01*
X581000Y705795D01*
Y704204D01*
X581609Y702734D01*
X582734Y701609D01*
X584204Y701000D01*
X585796D01*
X587266Y701609D01*
X588391Y702734D01*
X589000Y704204D01*
Y705795D01*
X588391Y707266D01*
X587266Y708391D01*
X585796Y709000D01*
D02*
G37*
G36*
X570796D02*
X569204D01*
X567734Y708391D01*
X566609Y707266D01*
X566000Y705795D01*
Y704204D01*
X566609Y702734D01*
X567734Y701609D01*
X569204Y701000D01*
X570796D01*
X572266Y701609D01*
X573391Y702734D01*
X574000Y704204D01*
Y705795D01*
X573391Y707266D01*
X572266Y708391D01*
X570796Y709000D01*
D02*
G37*
G36*
X555796D02*
X554204D01*
X552734Y708391D01*
X551609Y707266D01*
X551000Y705795D01*
Y704204D01*
X551609Y702734D01*
X552734Y701609D01*
X554204Y701000D01*
X555796D01*
X557266Y701609D01*
X558391Y702734D01*
X559000Y704204D01*
Y705795D01*
X558391Y707266D01*
X557266Y708391D01*
X555796Y709000D01*
D02*
G37*
G36*
X540796D02*
X539204D01*
X537734Y708391D01*
X536609Y707266D01*
X536000Y705795D01*
Y704204D01*
X536609Y702734D01*
X537734Y701609D01*
X539204Y701000D01*
X540796D01*
X542266Y701609D01*
X543391Y702734D01*
X544000Y704204D01*
Y705795D01*
X543391Y707266D01*
X542266Y708391D01*
X540796Y709000D01*
D02*
G37*
G36*
X525796D02*
X524204D01*
X522734Y708391D01*
X521609Y707266D01*
X521000Y705795D01*
Y704204D01*
X521609Y702734D01*
X522734Y701609D01*
X524204Y701000D01*
X525796D01*
X527266Y701609D01*
X528391Y702734D01*
X529000Y704204D01*
Y705795D01*
X528391Y707266D01*
X527266Y708391D01*
X525796Y709000D01*
D02*
G37*
G36*
X405796D02*
X404204D01*
X402734Y708391D01*
X401609Y707266D01*
X401000Y705795D01*
Y704204D01*
X401609Y702734D01*
X402734Y701609D01*
X404204Y701000D01*
X405796D01*
X407266Y701609D01*
X408391Y702734D01*
X409000Y704204D01*
Y705795D01*
X408391Y707266D01*
X407266Y708391D01*
X405796Y709000D01*
D02*
G37*
G36*
X390796D02*
X389204D01*
X387734Y708391D01*
X386609Y707266D01*
X386000Y705795D01*
Y704204D01*
X386609Y702734D01*
X387734Y701609D01*
X389204Y701000D01*
X390796D01*
X392266Y701609D01*
X393391Y702734D01*
X394000Y704204D01*
Y705795D01*
X393391Y707266D01*
X392266Y708391D01*
X390796Y709000D01*
D02*
G37*
G36*
X684777Y723150D02*
X681223D01*
X677789Y722230D01*
X674711Y720453D01*
X672197Y717939D01*
X670420Y714861D01*
X669500Y711427D01*
Y707873D01*
X670420Y704439D01*
X672197Y701361D01*
X674711Y698847D01*
X677789Y697070D01*
X681223Y696150D01*
X684777D01*
X688211Y697070D01*
X691289Y698847D01*
X693803Y701361D01*
X695580Y704439D01*
X696500Y707873D01*
Y711427D01*
X695580Y714861D01*
X693803Y717939D01*
X691289Y720453D01*
X688211Y722230D01*
X684777Y723150D01*
D02*
G37*
G36*
X608005Y709150D02*
X605595D01*
X603268Y708526D01*
X601182Y707322D01*
X599478Y705618D01*
X598274Y703532D01*
X597650Y701205D01*
Y698795D01*
X598274Y696468D01*
X599478Y694382D01*
X601182Y692678D01*
X603268Y691474D01*
X605595Y690850D01*
X608005D01*
X610332Y691474D01*
X612418Y692678D01*
X614122Y694382D01*
X615326Y696468D01*
X615950Y698795D01*
Y701205D01*
X615326Y703532D01*
X614122Y705618D01*
X612418Y707322D01*
X610332Y708526D01*
X608005Y709150D01*
D02*
G37*
G36*
X593296Y694000D02*
X591704D01*
X590234Y693391D01*
X589109Y692266D01*
X588500Y690795D01*
Y689204D01*
X589109Y687734D01*
X590234Y686609D01*
X591704Y686000D01*
X593296D01*
X594766Y686609D01*
X595891Y687734D01*
X596500Y689204D01*
Y690795D01*
X595891Y692266D01*
X594766Y693391D01*
X593296Y694000D01*
D02*
G37*
G36*
X578296D02*
X576704D01*
X575234Y693391D01*
X574109Y692266D01*
X573500Y690795D01*
Y689204D01*
X574109Y687734D01*
X575234Y686609D01*
X576704Y686000D01*
X578296D01*
X579766Y686609D01*
X580891Y687734D01*
X581500Y689204D01*
Y690795D01*
X580891Y692266D01*
X579766Y693391D01*
X578296Y694000D01*
D02*
G37*
G36*
X563296D02*
X561704D01*
X560234Y693391D01*
X559109Y692266D01*
X558500Y690795D01*
Y689204D01*
X559109Y687734D01*
X560234Y686609D01*
X561704Y686000D01*
X563296D01*
X564766Y686609D01*
X565891Y687734D01*
X566500Y689204D01*
Y690795D01*
X565891Y692266D01*
X564766Y693391D01*
X563296Y694000D01*
D02*
G37*
G36*
X742519Y697800D02*
X740281D01*
X738119Y697221D01*
X736181Y696102D01*
X734598Y694519D01*
X733479Y692581D01*
X732900Y690419D01*
Y688181D01*
X733479Y686019D01*
X734598Y684081D01*
X736181Y682498D01*
X738119Y681379D01*
X740281Y680800D01*
X742519D01*
X744681Y681379D01*
X746619Y682498D01*
X748202Y684081D01*
X749321Y686019D01*
X749900Y688181D01*
Y690419D01*
X749321Y692581D01*
X748202Y694519D01*
X746619Y696102D01*
X744681Y697221D01*
X742519Y697800D01*
D02*
G37*
G36*
X688296Y681500D02*
X686704D01*
X685234Y680891D01*
X684109Y679766D01*
X683500Y678296D01*
Y676704D01*
X684109Y675234D01*
X685234Y674109D01*
X686704Y673500D01*
X688296D01*
X689766Y674109D01*
X690891Y675234D01*
X691500Y676704D01*
Y678296D01*
X690891Y679766D01*
X689766Y680891D01*
X688296Y681500D01*
D02*
G37*
G36*
X628305Y709150D02*
X625895D01*
X623568Y708526D01*
X621482Y707322D01*
X619778Y705618D01*
X618574Y703532D01*
X617950Y701205D01*
Y698795D01*
X618574Y696468D01*
X619778Y694382D01*
X621482Y692678D01*
X623568Y691474D01*
X625895Y690850D01*
X628305D01*
X630632Y691474D01*
X632718Y692678D01*
X634043Y694003D01*
X635213Y693377D01*
X634750Y691048D01*
Y687552D01*
X635432Y684122D01*
X636770Y680892D01*
X638713Y677985D01*
X641185Y675513D01*
X644092Y673570D01*
X647322Y672232D01*
X650752Y671550D01*
X654248D01*
X657678Y672232D01*
X660908Y673570D01*
X663815Y675513D01*
X666287Y677985D01*
X668230Y680892D01*
X669568Y684122D01*
X670250Y687552D01*
Y691048D01*
X669568Y694477D01*
X668230Y697708D01*
X666287Y700615D01*
X663815Y703087D01*
X660908Y705030D01*
X657678Y706368D01*
X654248Y707050D01*
X650752D01*
X647322Y706368D01*
X644092Y705030D01*
X641185Y703087D01*
X638713Y700615D01*
X637520Y698830D01*
X636250Y699215D01*
Y701205D01*
X635626Y703532D01*
X634422Y705618D01*
X632718Y707322D01*
X630632Y708526D01*
X628305Y709150D01*
D02*
G37*
G36*
X630796Y679000D02*
X629204D01*
X627734Y678391D01*
X626609Y677266D01*
X626000Y675795D01*
Y674204D01*
X626609Y672734D01*
X627734Y671609D01*
X629204Y671000D01*
X630796D01*
X632266Y671609D01*
X633391Y672734D01*
X634000Y674204D01*
Y675795D01*
X633391Y677266D01*
X632266Y678391D01*
X630796Y679000D01*
D02*
G37*
G36*
X600796D02*
X599204D01*
X597734Y678391D01*
X596609Y677266D01*
X596000Y675795D01*
Y674204D01*
X596609Y672734D01*
X597734Y671609D01*
X599204Y671000D01*
X600796D01*
X602266Y671609D01*
X603391Y672734D01*
X604000Y674204D01*
Y675795D01*
X603391Y677266D01*
X602266Y678391D01*
X600796Y679000D01*
D02*
G37*
G36*
X585796D02*
X584204D01*
X582734Y678391D01*
X581609Y677266D01*
X581000Y675795D01*
Y674204D01*
X581609Y672734D01*
X582734Y671609D01*
X584204Y671000D01*
X585796D01*
X587266Y671609D01*
X588391Y672734D01*
X589000Y674204D01*
Y675795D01*
X588391Y677266D01*
X587266Y678391D01*
X585796Y679000D01*
D02*
G37*
G36*
X570796D02*
X569204D01*
X567734Y678391D01*
X566609Y677266D01*
X566000Y675795D01*
Y674204D01*
X566609Y672734D01*
X567734Y671609D01*
X569204Y671000D01*
X570796D01*
X572266Y671609D01*
X573391Y672734D01*
X574000Y674204D01*
Y675795D01*
X573391Y677266D01*
X572266Y678391D01*
X570796Y679000D01*
D02*
G37*
G36*
X717119Y685100D02*
X714881D01*
X712719Y684521D01*
X710781Y683402D01*
X709198Y681819D01*
X708079Y679881D01*
X707500Y677719D01*
Y675481D01*
X708079Y673319D01*
X709198Y671381D01*
X710781Y669798D01*
X712719Y668679D01*
X714881Y668100D01*
X717119D01*
X719281Y668679D01*
X721219Y669798D01*
X722802Y671381D01*
X723921Y673319D01*
X724500Y675481D01*
Y677719D01*
X723921Y679881D01*
X722802Y681819D01*
X721219Y683402D01*
X719281Y684521D01*
X717119Y685100D01*
D02*
G37*
G36*
X703296Y671500D02*
X701704D01*
X700234Y670891D01*
X699109Y669766D01*
X698500Y668296D01*
Y666704D01*
X699109Y665234D01*
X700234Y664109D01*
X701704Y663500D01*
X703296D01*
X704766Y664109D01*
X705891Y665234D01*
X706500Y666704D01*
Y668296D01*
X705891Y669766D01*
X704766Y670891D01*
X703296Y671500D01*
D02*
G37*
G36*
X693296Y669000D02*
X691704D01*
X690234Y668391D01*
X689109Y667266D01*
X688500Y665796D01*
Y664204D01*
X689109Y662734D01*
X690234Y661609D01*
X691704Y661000D01*
X693296D01*
X694766Y661609D01*
X695891Y662734D01*
X696500Y664204D01*
Y665796D01*
X695891Y667266D01*
X694766Y668391D01*
X693296Y669000D01*
D02*
G37*
G36*
X683296D02*
X681704D01*
X680234Y668391D01*
X679109Y667266D01*
X678500Y665796D01*
Y664204D01*
X679109Y662734D01*
X680234Y661609D01*
X681704Y661000D01*
X683296D01*
X684766Y661609D01*
X685891Y662734D01*
X686500Y664204D01*
Y665796D01*
X685891Y667266D01*
X684766Y668391D01*
X683296Y669000D01*
D02*
G37*
G36*
X623296Y664000D02*
X621704D01*
X620234Y663391D01*
X619109Y662266D01*
X618500Y660796D01*
Y659204D01*
X619109Y657734D01*
X620234Y656609D01*
X621704Y656000D01*
X623296D01*
X624766Y656609D01*
X625891Y657734D01*
X626500Y659204D01*
Y660796D01*
X625891Y662266D01*
X624766Y663391D01*
X623296Y664000D01*
D02*
G37*
G36*
X608296D02*
X606704D01*
X605234Y663391D01*
X604109Y662266D01*
X603500Y660796D01*
Y659204D01*
X604109Y657734D01*
X605234Y656609D01*
X606704Y656000D01*
X608296D01*
X609766Y656609D01*
X610891Y657734D01*
X611500Y659204D01*
Y660796D01*
X610891Y662266D01*
X609766Y663391D01*
X608296Y664000D01*
D02*
G37*
G36*
X593296D02*
X591704D01*
X590234Y663391D01*
X589109Y662266D01*
X588500Y660796D01*
Y659204D01*
X589109Y657734D01*
X590234Y656609D01*
X591704Y656000D01*
X593296D01*
X594766Y656609D01*
X595891Y657734D01*
X596500Y659204D01*
Y660796D01*
X595891Y662266D01*
X594766Y663391D01*
X593296Y664000D01*
D02*
G37*
G36*
X578296D02*
X576704D01*
X575234Y663391D01*
X574109Y662266D01*
X573500Y660796D01*
Y659204D01*
X574109Y657734D01*
X575234Y656609D01*
X576704Y656000D01*
X578296D01*
X579766Y656609D01*
X580891Y657734D01*
X581500Y659204D01*
Y660796D01*
X580891Y662266D01*
X579766Y663391D01*
X578296Y664000D01*
D02*
G37*
G36*
X742519Y672400D02*
X740281D01*
X738119Y671821D01*
X736181Y670702D01*
X734598Y669119D01*
X733479Y667181D01*
X732900Y665019D01*
Y662781D01*
X733479Y660619D01*
X734598Y658681D01*
X736181Y657098D01*
X738119Y655979D01*
X740281Y655400D01*
X742519D01*
X744681Y655979D01*
X746619Y657098D01*
X748202Y658681D01*
X749321Y660619D01*
X749900Y662781D01*
Y665019D01*
X749321Y667181D01*
X748202Y669119D01*
X746619Y670702D01*
X744681Y671821D01*
X742519Y672400D01*
D02*
G37*
G36*
X717119Y659700D02*
X714881D01*
X712719Y659121D01*
X710781Y658002D01*
X709198Y656419D01*
X708079Y654481D01*
X707500Y652319D01*
Y650081D01*
X708079Y647919D01*
X709198Y645981D01*
X710781Y644398D01*
X712719Y643279D01*
X714881Y642700D01*
X717119D01*
X719281Y643279D01*
X721219Y644398D01*
X722802Y645981D01*
X723921Y647919D01*
X724500Y650081D01*
Y652319D01*
X723921Y654481D01*
X722802Y656419D01*
X721219Y658002D01*
X719281Y659121D01*
X717119Y659700D01*
D02*
G37*
G36*
X630796Y649000D02*
X629204D01*
X627734Y648391D01*
X626609Y647266D01*
X626000Y645796D01*
Y644204D01*
X626609Y642734D01*
X627734Y641609D01*
X629204Y641000D01*
X630796D01*
X632266Y641609D01*
X633391Y642734D01*
X634000Y644204D01*
Y645796D01*
X633391Y647266D01*
X632266Y648391D01*
X630796Y649000D01*
D02*
G37*
G36*
X615796D02*
X614204D01*
X612734Y648391D01*
X611609Y647266D01*
X611000Y645796D01*
Y644204D01*
X611609Y642734D01*
X612734Y641609D01*
X614204Y641000D01*
X615796D01*
X617266Y641609D01*
X618391Y642734D01*
X619000Y644204D01*
Y645796D01*
X618391Y647266D01*
X617266Y648391D01*
X615796Y649000D01*
D02*
G37*
G36*
X600796D02*
X599204D01*
X597734Y648391D01*
X596609Y647266D01*
X596000Y645796D01*
Y644204D01*
X596609Y642734D01*
X597734Y641609D01*
X599204Y641000D01*
X600796D01*
X602266Y641609D01*
X603391Y642734D01*
X604000Y644204D01*
Y645796D01*
X603391Y647266D01*
X602266Y648391D01*
X600796Y649000D01*
D02*
G37*
G36*
X585796D02*
X584204D01*
X582734Y648391D01*
X581609Y647266D01*
X581000Y645796D01*
Y644204D01*
X581609Y642734D01*
X582734Y641609D01*
X584204Y641000D01*
X585796D01*
X587266Y641609D01*
X588391Y642734D01*
X589000Y644204D01*
Y645796D01*
X588391Y647266D01*
X587266Y648391D01*
X585796Y649000D01*
D02*
G37*
G36*
X570796D02*
X569204D01*
X567734Y648391D01*
X566609Y647266D01*
X566000Y645796D01*
Y644204D01*
X566609Y642734D01*
X567734Y641609D01*
X569204Y641000D01*
X570796D01*
X572266Y641609D01*
X573391Y642734D01*
X574000Y644204D01*
Y645796D01*
X573391Y647266D01*
X572266Y648391D01*
X570796Y649000D01*
D02*
G37*
G36*
X742519Y647000D02*
X740281D01*
X738119Y646421D01*
X736181Y645302D01*
X734598Y643719D01*
X733479Y641781D01*
X732900Y639619D01*
Y637381D01*
X733479Y635219D01*
X734598Y633281D01*
X736181Y631698D01*
X738119Y630579D01*
X740281Y630000D01*
X742519D01*
X744681Y630579D01*
X746619Y631698D01*
X748202Y633281D01*
X749321Y635219D01*
X749900Y637381D01*
Y639619D01*
X749321Y641781D01*
X748202Y643719D01*
X746619Y645302D01*
X744681Y646421D01*
X742519Y647000D01*
D02*
G37*
G36*
X593296Y634000D02*
X591704D01*
X590234Y633391D01*
X589109Y632266D01*
X588500Y630796D01*
Y629204D01*
X589109Y627734D01*
X590234Y626609D01*
X591704Y626000D01*
X593296D01*
X594766Y626609D01*
X595891Y627734D01*
X596500Y629204D01*
Y630796D01*
X595891Y632266D01*
X594766Y633391D01*
X593296Y634000D01*
D02*
G37*
G36*
X578296D02*
X576704D01*
X575234Y633391D01*
X574109Y632266D01*
X573500Y630796D01*
Y629204D01*
X574109Y627734D01*
X575234Y626609D01*
X576704Y626000D01*
X578296D01*
X579766Y626609D01*
X580891Y627734D01*
X581500Y629204D01*
Y630796D01*
X580891Y632266D01*
X579766Y633391D01*
X578296Y634000D01*
D02*
G37*
G36*
X563296D02*
X561704D01*
X560234Y633391D01*
X559109Y632266D01*
X558500Y630796D01*
Y629204D01*
X559109Y627734D01*
X560234Y626609D01*
X561704Y626000D01*
X563296D01*
X564766Y626609D01*
X565891Y627734D01*
X566500Y629204D01*
Y630796D01*
X565891Y632266D01*
X564766Y633391D01*
X563296Y634000D01*
D02*
G37*
G36*
X548296D02*
X546704D01*
X545234Y633391D01*
X544109Y632266D01*
X543500Y630796D01*
Y629204D01*
X544109Y627734D01*
X545234Y626609D01*
X546704Y626000D01*
X548296D01*
X549766Y626609D01*
X550891Y627734D01*
X551500Y629204D01*
Y630796D01*
X550891Y632266D01*
X549766Y633391D01*
X548296Y634000D01*
D02*
G37*
G36*
X533296D02*
X531704D01*
X530234Y633391D01*
X529109Y632266D01*
X528500Y630796D01*
Y629204D01*
X529109Y627734D01*
X530234Y626609D01*
X531704Y626000D01*
X533296D01*
X534766Y626609D01*
X535891Y627734D01*
X536500Y629204D01*
Y630796D01*
X535891Y632266D01*
X534766Y633391D01*
X533296Y634000D01*
D02*
G37*
G36*
X518296D02*
X516704D01*
X515234Y633391D01*
X514109Y632266D01*
X513500Y630796D01*
Y629204D01*
X514109Y627734D01*
X515234Y626609D01*
X516704Y626000D01*
X518296D01*
X519766Y626609D01*
X520891Y627734D01*
X521500Y629204D01*
Y630796D01*
X520891Y632266D01*
X519766Y633391D01*
X518296Y634000D01*
D02*
G37*
G36*
X503296D02*
X501704D01*
X500234Y633391D01*
X499109Y632266D01*
X498500Y630796D01*
Y629204D01*
X499109Y627734D01*
X500234Y626609D01*
X501704Y626000D01*
X503296D01*
X504766Y626609D01*
X505891Y627734D01*
X506500Y629204D01*
Y630796D01*
X505891Y632266D01*
X504766Y633391D01*
X503296Y634000D01*
D02*
G37*
G36*
X488296D02*
X486704D01*
X485234Y633391D01*
X484109Y632266D01*
X483500Y630796D01*
Y629204D01*
X484109Y627734D01*
X485234Y626609D01*
X486704Y626000D01*
X488296D01*
X489766Y626609D01*
X490891Y627734D01*
X491500Y629204D01*
Y630796D01*
X490891Y632266D01*
X489766Y633391D01*
X488296Y634000D01*
D02*
G37*
G36*
X473296D02*
X471704D01*
X470234Y633391D01*
X469109Y632266D01*
X468500Y630796D01*
Y629204D01*
X469109Y627734D01*
X470234Y626609D01*
X471704Y626000D01*
X473296D01*
X474766Y626609D01*
X475891Y627734D01*
X476500Y629204D01*
Y630796D01*
X475891Y632266D01*
X474766Y633391D01*
X473296Y634000D01*
D02*
G37*
G36*
X458296D02*
X456704D01*
X455234Y633391D01*
X454109Y632266D01*
X453500Y630796D01*
Y629204D01*
X454109Y627734D01*
X455234Y626609D01*
X456704Y626000D01*
X458296D01*
X459766Y626609D01*
X460891Y627734D01*
X461500Y629204D01*
Y630796D01*
X460891Y632266D01*
X459766Y633391D01*
X458296Y634000D01*
D02*
G37*
G36*
X443296D02*
X441704D01*
X440234Y633391D01*
X439109Y632266D01*
X438500Y630796D01*
Y629204D01*
X439109Y627734D01*
X440234Y626609D01*
X441704Y626000D01*
X443296D01*
X444766Y626609D01*
X445891Y627734D01*
X446500Y629204D01*
Y630796D01*
X445891Y632266D01*
X444766Y633391D01*
X443296Y634000D01*
D02*
G37*
G36*
X428296D02*
X426704D01*
X425234Y633391D01*
X424109Y632266D01*
X423500Y630796D01*
Y629204D01*
X424109Y627734D01*
X425234Y626609D01*
X426704Y626000D01*
X428296D01*
X429766Y626609D01*
X430891Y627734D01*
X431500Y629204D01*
Y630796D01*
X430891Y632266D01*
X429766Y633391D01*
X428296Y634000D01*
D02*
G37*
G36*
X717119Y634300D02*
X714881D01*
X712719Y633721D01*
X710781Y632602D01*
X709198Y631019D01*
X708079Y629081D01*
X707500Y626919D01*
Y624681D01*
X708079Y622519D01*
X709198Y620581D01*
X710781Y618998D01*
X712719Y617879D01*
X714881Y617300D01*
X717119D01*
X719281Y617879D01*
X721219Y618998D01*
X722802Y620581D01*
X723921Y622519D01*
X724500Y624681D01*
Y626919D01*
X723921Y629081D01*
X722802Y631019D01*
X721219Y632602D01*
X719281Y633721D01*
X717119Y634300D01*
D02*
G37*
G36*
X696076Y624547D02*
X694484D01*
X693014Y623938D01*
X691889Y622813D01*
X691280Y621343D01*
Y619752D01*
X691889Y618282D01*
X693014Y617156D01*
X694484Y616547D01*
X696076D01*
X697546Y617156D01*
X698671Y618282D01*
X699280Y619752D01*
Y621343D01*
X698671Y622813D01*
X697546Y623938D01*
X696076Y624547D01*
D02*
G37*
G36*
X742519Y621600D02*
X740281D01*
X738119Y621021D01*
X736181Y619902D01*
X734598Y618319D01*
X733479Y616381D01*
X732900Y614219D01*
Y612500D01*
Y611981D01*
X733479Y609819D01*
X734598Y607881D01*
X736181Y606298D01*
X738119Y605179D01*
X740281Y604600D01*
X742519D01*
X744681Y605179D01*
X746619Y606298D01*
X748202Y607881D01*
X749321Y609819D01*
X749900Y611981D01*
Y612500D01*
Y614219D01*
X749321Y616381D01*
X748202Y618319D01*
X746619Y619902D01*
X744681Y621021D01*
X742519Y621600D01*
D02*
G37*
G36*
X717119Y608900D02*
X714881D01*
X712719Y608321D01*
X710781Y607202D01*
X709198Y605619D01*
X708079Y603681D01*
X707500Y601519D01*
Y599281D01*
X708079Y597119D01*
X709198Y595181D01*
X710781Y593598D01*
X712719Y592479D01*
X714881Y591900D01*
X717119D01*
X719281Y592479D01*
X721219Y593598D01*
X722802Y595181D01*
X723921Y597119D01*
X724500Y599281D01*
Y599281D01*
Y601519D01*
X723921Y603681D01*
X722802Y605619D01*
X721219Y607202D01*
X719281Y608321D01*
X717119Y608900D01*
D02*
G37*
G36*
X742519Y596200D02*
X740281D01*
X738119Y595621D01*
X736181Y594502D01*
X734598Y592919D01*
X733479Y590981D01*
X732900Y588819D01*
Y586581D01*
X733479Y584419D01*
X734598Y582481D01*
X736181Y580898D01*
X738119Y579779D01*
X740281Y579200D01*
X742519D01*
X744681Y579779D01*
X746619Y580898D01*
X748202Y582481D01*
X749321Y584419D01*
X749900Y586581D01*
Y588819D01*
X749321Y590981D01*
X748202Y592919D01*
X746619Y594502D01*
X744681Y595621D01*
X742519Y596200D01*
D02*
G37*
G36*
X724500Y583500D02*
X707500D01*
Y566500D01*
X724500D01*
Y583500D01*
D02*
G37*
G36*
X905796Y744000D02*
X904204D01*
X902734Y743391D01*
X901609Y742266D01*
X901000Y740796D01*
Y739204D01*
X901609Y737734D01*
X902734Y736609D01*
X904204Y736000D01*
X905796D01*
X907266Y736609D01*
X908391Y737734D01*
X909000Y739204D01*
Y740796D01*
X908391Y742266D01*
X907266Y743391D01*
X905796Y744000D01*
D02*
G37*
G36*
X860796Y724000D02*
X859204D01*
X857734Y723391D01*
X856609Y722266D01*
X856437Y721851D01*
X855063D01*
X854891Y722266D01*
X853766Y723391D01*
X852500Y723915D01*
X852296Y724000D01*
X850704D01*
X849234Y723391D01*
X848109Y722266D01*
X847500Y720796D01*
Y719204D01*
X848109Y717734D01*
X849234Y716609D01*
X850704Y716000D01*
X852296D01*
X852500Y716085D01*
X853766Y716609D01*
X854891Y717734D01*
X855063Y718149D01*
X856437D01*
X856609Y717734D01*
X857734Y716609D01*
X859204Y716000D01*
X860796D01*
X862266Y716609D01*
X863391Y717734D01*
X864000Y719204D01*
Y720796D01*
X863391Y722266D01*
X862266Y723391D01*
X860796Y724000D01*
D02*
G37*
G36*
X898296Y726500D02*
X896704D01*
X895234Y725891D01*
X894109Y724766D01*
X893500Y723296D01*
Y721704D01*
X894109Y720234D01*
X895234Y719109D01*
X896704Y718500D01*
X898296D01*
X899766Y719109D01*
X900891Y720234D01*
X901500Y721704D01*
Y723296D01*
X900891Y724766D01*
X899766Y725891D01*
X898296Y726500D01*
D02*
G37*
G36*
X841534Y724000D02*
X839942D01*
X838472Y723391D01*
X837347Y722266D01*
X836738Y720796D01*
Y719204D01*
X837347Y717734D01*
X838472Y716609D01*
X839942Y716000D01*
X841534D01*
X843004Y716609D01*
X844129Y717734D01*
X844738Y719204D01*
Y720796D01*
X844129Y722266D01*
X843004Y723391D01*
X841534Y724000D01*
D02*
G37*
G36*
X833296Y704000D02*
X831704D01*
X830234Y703391D01*
X829109Y702266D01*
X828500Y700796D01*
Y699204D01*
X829109Y697734D01*
X830234Y696609D01*
X831704Y696000D01*
X833296D01*
X834766Y696609D01*
X835891Y697734D01*
X836500Y699204D01*
Y700796D01*
X835891Y702266D01*
X834766Y703391D01*
X833296Y704000D01*
D02*
G37*
G36*
X860796D02*
X859204D01*
X857734Y703391D01*
X856609Y702266D01*
X856000Y700796D01*
Y699362D01*
X854650D01*
X853180Y698753D01*
X852055Y697628D01*
X851446Y696158D01*
Y694567D01*
X852055Y693097D01*
X853180Y691971D01*
X854650Y691362D01*
X856241D01*
X857711Y691971D01*
X858837Y693097D01*
X859446Y694567D01*
Y696000D01*
X860796D01*
X862266Y696609D01*
X863391Y697734D01*
X864000Y699204D01*
Y700796D01*
X863391Y702266D01*
X862266Y703391D01*
X860796Y704000D01*
D02*
G37*
G36*
X884980Y666507D02*
X883388D01*
X881918Y665898D01*
X880793Y664772D01*
X880184Y663302D01*
Y661711D01*
X880793Y660241D01*
X881918Y659116D01*
X883388Y658506D01*
X884980D01*
X886450Y659116D01*
X887575Y660241D01*
X888184Y661711D01*
Y663302D01*
X887575Y664772D01*
X886450Y665898D01*
X884980Y666507D01*
D02*
G37*
G36*
X928476Y774000D02*
X926884D01*
X925414Y773391D01*
X924289Y772266D01*
X923680Y770796D01*
Y770553D01*
Y769204D01*
X924289Y767734D01*
X925414Y766609D01*
X926884Y766000D01*
X928476D01*
X929946Y766609D01*
X931071Y767734D01*
X931680Y769204D01*
Y770553D01*
Y770796D01*
X931071Y772266D01*
X929946Y773391D01*
X928476Y774000D01*
D02*
G37*
G36*
X928478Y764330D02*
X926886D01*
X925416Y763721D01*
X924291Y762596D01*
X923682Y761126D01*
Y759534D01*
X924291Y758064D01*
X925416Y756939D01*
X926886Y756330D01*
X928478D01*
X929948Y756939D01*
X931073Y758064D01*
X931682Y759534D01*
Y761126D01*
X931073Y762596D01*
X929948Y763721D01*
X928478Y764330D01*
D02*
G37*
G36*
X930796Y754000D02*
X929204D01*
X927734Y753391D01*
X926609Y752266D01*
X926000Y750796D01*
Y749204D01*
X926609Y747734D01*
X927734Y746609D01*
X929204Y746000D01*
X930796D01*
X932266Y746609D01*
X933391Y747734D01*
X934000Y749204D01*
Y750796D01*
X933391Y752266D01*
X932266Y753391D01*
X930796Y754000D01*
D02*
G37*
G36*
X934470Y690650D02*
X932430D01*
X930459Y690122D01*
X928691Y689101D01*
X927249Y687659D01*
X926228Y685891D01*
X925700Y683920D01*
Y681880D01*
X926228Y679909D01*
X927249Y678141D01*
X928691Y676699D01*
X930459Y675678D01*
X932430Y675150D01*
X934470D01*
X936441Y675678D01*
X938209Y676699D01*
X939651Y678141D01*
X940672Y679909D01*
X941200Y681880D01*
Y683920D01*
X940672Y685891D01*
X939651Y687659D01*
X938209Y689101D01*
X936441Y690122D01*
X934470Y690650D01*
D02*
G37*
G36*
X683296Y591500D02*
X681704D01*
X680234Y590891D01*
X679109Y589766D01*
X678500Y588296D01*
Y586704D01*
X679109Y585234D01*
X680234Y584109D01*
X681704Y583500D01*
X683296D01*
X684766Y584109D01*
X685891Y585234D01*
X686500Y586704D01*
Y588296D01*
X685891Y589766D01*
X684766Y590891D01*
X683296Y591500D01*
D02*
G37*
G36*
X920796Y589000D02*
X919204D01*
X917734Y588391D01*
X916609Y587266D01*
X916000Y585796D01*
Y584204D01*
X916609Y582734D01*
X917734Y581609D01*
X919204Y581000D01*
X920796D01*
X922266Y581609D01*
X923391Y582734D01*
X924000Y584204D01*
Y585796D01*
X923391Y587266D01*
X922266Y588391D01*
X920796Y589000D01*
D02*
G37*
G36*
X630796Y589000D02*
X629204D01*
X627734Y588391D01*
X626609Y587266D01*
X626000Y585796D01*
Y584204D01*
X626609Y582734D01*
X627734Y581609D01*
X629204Y581000D01*
X630796D01*
X632266Y581609D01*
X633391Y582734D01*
X634000Y584204D01*
Y585796D01*
X633391Y587266D01*
X632266Y588391D01*
X630796Y589000D01*
D02*
G37*
G36*
X600796D02*
X599204D01*
X597734Y588391D01*
X596609Y587266D01*
X596000Y585796D01*
Y584204D01*
X596609Y582734D01*
X597734Y581609D01*
X599204Y581000D01*
X600796D01*
X602266Y581609D01*
X603391Y582734D01*
X604000Y584204D01*
Y585796D01*
X603391Y587266D01*
X602266Y588391D01*
X600796Y589000D01*
D02*
G37*
G36*
X768327Y588889D02*
X766735D01*
X765265Y588280D01*
X764140Y587155D01*
X763531Y585685D01*
Y584093D01*
X764140Y582623D01*
X765265Y581498D01*
X766735Y580889D01*
X768327D01*
X769797Y581498D01*
X770922Y582623D01*
X771531Y584093D01*
Y585685D01*
X770922Y587155D01*
X769797Y588280D01*
X768327Y588889D01*
D02*
G37*
G36*
X778296Y581500D02*
X776704D01*
X775234Y580891D01*
X774109Y579766D01*
X773500Y578296D01*
Y576704D01*
X774109Y575234D01*
X775234Y574109D01*
X776704Y573500D01*
X778296D01*
X779766Y574109D01*
X780891Y575234D01*
X781500Y576704D01*
Y578296D01*
X780891Y579766D01*
X779766Y580891D01*
X778296Y581500D01*
D02*
G37*
G36*
X953295Y574000D02*
X951704D01*
X950234Y573391D01*
X949109Y572266D01*
X948500Y570796D01*
Y569204D01*
X949109Y567734D01*
X950234Y566609D01*
X951704Y566000D01*
X953295D01*
X954765Y566609D01*
X955891Y567734D01*
X956500Y569204D01*
Y570796D01*
X955891Y572266D01*
X954765Y573391D01*
X953295Y574000D01*
D02*
G37*
G36*
X938295D02*
X936704D01*
X935234Y573391D01*
X934109Y572266D01*
X933500Y570796D01*
Y569204D01*
X934109Y567734D01*
X935234Y566609D01*
X936704Y566000D01*
X938295D01*
X939765Y566609D01*
X940891Y567734D01*
X941500Y569204D01*
Y570796D01*
X940891Y572266D01*
X939765Y573391D01*
X938295Y574000D01*
D02*
G37*
G36*
X593296D02*
X591704D01*
X590234Y573391D01*
X589109Y572266D01*
X588500Y570796D01*
Y569204D01*
X589109Y567734D01*
X590234Y566609D01*
X591704Y566000D01*
X593296D01*
X594766Y566609D01*
X595891Y567734D01*
X596500Y569204D01*
Y570796D01*
X595891Y572266D01*
X594766Y573391D01*
X593296Y574000D01*
D02*
G37*
G36*
X628305Y573450D02*
X625895D01*
X623568Y572826D01*
X621482Y571622D01*
X619778Y569918D01*
X618574Y567832D01*
X617950Y565505D01*
Y563095D01*
X618574Y560768D01*
X619778Y558682D01*
X621482Y556978D01*
X623568Y555774D01*
X625895Y555150D01*
X628305D01*
X630632Y555774D01*
X632718Y556978D01*
X634422Y558682D01*
X635626Y560768D01*
X636250Y563095D01*
Y565505D01*
X635626Y567832D01*
X634422Y569918D01*
X632718Y571622D01*
X630632Y572826D01*
X628305Y573450D01*
D02*
G37*
G36*
X608005D02*
X605595D01*
X603268Y572826D01*
X601182Y571622D01*
X599478Y569918D01*
X598274Y567832D01*
X597650Y565505D01*
Y563095D01*
X598274Y560768D01*
X599478Y558682D01*
X601182Y556978D01*
X603268Y555774D01*
X605595Y555150D01*
X608005D01*
X610332Y555774D01*
X612418Y556978D01*
X614122Y558682D01*
X615326Y560768D01*
X615950Y563095D01*
Y565505D01*
X615326Y567832D01*
X614122Y569918D01*
X612418Y571622D01*
X610332Y572826D01*
X608005Y573450D01*
D02*
G37*
G36*
X945795Y559000D02*
X944204D01*
X942734Y558391D01*
X941609Y557266D01*
X941000Y555796D01*
Y554204D01*
X941609Y552734D01*
X942734Y551609D01*
X944204Y551000D01*
X945795D01*
X947265Y551609D01*
X948391Y552734D01*
X949000Y554204D01*
Y555796D01*
X948391Y557266D01*
X947265Y558391D01*
X945795Y559000D01*
D02*
G37*
G36*
X765795D02*
X764204D01*
X762734Y558391D01*
X761609Y557266D01*
X761000Y555796D01*
Y554204D01*
X761609Y552734D01*
X762734Y551609D01*
X764204Y551000D01*
X765795D01*
X767266Y551609D01*
X768391Y552734D01*
X769000Y554204D01*
Y555796D01*
X768391Y557266D01*
X767266Y558391D01*
X765795Y559000D01*
D02*
G37*
G36*
X654248Y592750D02*
X650752D01*
X647322Y592068D01*
X644092Y590730D01*
X641185Y588787D01*
X638713Y586315D01*
X636770Y583408D01*
X635432Y580177D01*
X634750Y576748D01*
Y573252D01*
X635432Y569823D01*
X636770Y566592D01*
X638713Y563685D01*
X641185Y561213D01*
X644092Y559270D01*
X644745Y559000D01*
X644204D01*
X642734Y558391D01*
X641609Y557266D01*
X641000Y555796D01*
Y554204D01*
X641609Y552734D01*
X642734Y551609D01*
X644204Y551000D01*
X645796D01*
X647266Y551609D01*
X648391Y552734D01*
X649000Y554204D01*
Y555796D01*
X648391Y557266D01*
X647824Y557832D01*
X650752Y557250D01*
X654248D01*
X657175Y557832D01*
X656609Y557266D01*
X656000Y555796D01*
Y554204D01*
X656609Y552734D01*
X657734Y551609D01*
X659204Y551000D01*
X660796D01*
X662266Y551609D01*
X663391Y552734D01*
X664000Y554204D01*
Y555796D01*
X663391Y557266D01*
X662266Y558391D01*
X660796Y559000D01*
X660255D01*
X660908Y559270D01*
X663815Y561213D01*
X666287Y563685D01*
X668230Y566592D01*
X669568Y569823D01*
X670250Y573252D01*
Y576748D01*
X669568Y580177D01*
X668230Y583408D01*
X666287Y586315D01*
X663815Y588787D01*
X660908Y590730D01*
X657678Y592068D01*
X654248Y592750D01*
D02*
G37*
G36*
X585796Y559000D02*
X584204D01*
X582734Y558391D01*
X581609Y557266D01*
X581000Y555796D01*
Y554204D01*
X581609Y552734D01*
X582734Y551609D01*
X584204Y551000D01*
X585796D01*
X587266Y551609D01*
X588391Y552734D01*
X589000Y554204D01*
Y555796D01*
X588391Y557266D01*
X587266Y558391D01*
X585796Y559000D01*
D02*
G37*
G36*
X570796D02*
X569204D01*
X567734Y558391D01*
X566609Y557266D01*
X566000Y555796D01*
Y554204D01*
X566609Y552734D01*
X567734Y551609D01*
X569204Y551000D01*
X570796D01*
X572266Y551609D01*
X573391Y552734D01*
X574000Y554204D01*
Y555796D01*
X573391Y557266D01*
X572266Y558391D01*
X570796Y559000D01*
D02*
G37*
G36*
X555796D02*
X554204D01*
X552734Y558391D01*
X551609Y557266D01*
X551000Y555796D01*
Y554204D01*
X551609Y552734D01*
X552734Y551609D01*
X554204Y551000D01*
X555796D01*
X557266Y551609D01*
X558391Y552734D01*
X559000Y554204D01*
Y555796D01*
X558391Y557266D01*
X557266Y558391D01*
X555796Y559000D01*
D02*
G37*
G36*
X540796D02*
X539204D01*
X537734Y558391D01*
X536609Y557266D01*
X536000Y555796D01*
Y554204D01*
X536609Y552734D01*
X537734Y551609D01*
X539204Y551000D01*
X540796D01*
X542266Y551609D01*
X543391Y552734D01*
X544000Y554204D01*
Y555796D01*
X543391Y557266D01*
X542266Y558391D01*
X540796Y559000D01*
D02*
G37*
G36*
X525796D02*
X524204D01*
X522734Y558391D01*
X521609Y557266D01*
X521000Y555796D01*
Y554204D01*
X521609Y552734D01*
X522734Y551609D01*
X524204Y551000D01*
X525796D01*
X527266Y551609D01*
X528391Y552734D01*
X529000Y554204D01*
Y555796D01*
X528391Y557266D01*
X527266Y558391D01*
X525796Y559000D01*
D02*
G37*
G36*
X510796D02*
X509204D01*
X507734Y558391D01*
X506609Y557266D01*
X506000Y555796D01*
Y554204D01*
X506609Y552734D01*
X507734Y551609D01*
X509204Y551000D01*
X510796D01*
X512266Y551609D01*
X513391Y552734D01*
X514000Y554204D01*
Y555796D01*
X513391Y557266D01*
X512266Y558391D01*
X510796Y559000D01*
D02*
G37*
G36*
X883296Y556500D02*
X881704D01*
X880234Y555891D01*
X879109Y554766D01*
X878500Y553296D01*
Y551704D01*
X879109Y550234D01*
X880234Y549109D01*
X881704Y548500D01*
X883296D01*
X884766Y549109D01*
X885891Y550234D01*
X886500Y551704D01*
Y553296D01*
X885891Y554766D01*
X884766Y555891D01*
X883296Y556500D01*
D02*
G37*
G36*
X743296D02*
X741704D01*
X740234Y555891D01*
X739109Y554766D01*
X738500Y553296D01*
Y551704D01*
X739109Y550234D01*
X740234Y549109D01*
X741704Y548500D01*
X743296D01*
X744766Y549109D01*
X745891Y550234D01*
X746500Y551704D01*
Y553296D01*
X745891Y554766D01*
X744766Y555891D01*
X743296Y556500D01*
D02*
G37*
G36*
X733296D02*
X731704D01*
X730234Y555891D01*
X729109Y554766D01*
X728500Y553296D01*
Y551704D01*
X729109Y550234D01*
X730234Y549109D01*
X731704Y548500D01*
X733296D01*
X734766Y549109D01*
X735891Y550234D01*
X736500Y551704D01*
Y553296D01*
X735891Y554766D01*
X734766Y555891D01*
X733296Y556500D01*
D02*
G37*
G36*
X860796Y554000D02*
X859204D01*
X857734Y553391D01*
X856609Y552266D01*
X856000Y550796D01*
Y549204D01*
X856609Y547734D01*
X857272Y547071D01*
X817126D01*
X816276Y547921D01*
X814806Y548530D01*
X813215D01*
X811745Y547921D01*
X810619Y546796D01*
X810010Y545326D01*
Y543734D01*
X810619Y542264D01*
X811745Y541139D01*
X813215Y540530D01*
X814806D01*
X816276Y541139D01*
X817401Y542264D01*
X817482Y542459D01*
X864385D01*
X865234Y541609D01*
X866704Y541000D01*
X868296D01*
X869766Y541609D01*
X870891Y542734D01*
X871500Y544204D01*
Y545796D01*
X870891Y547266D01*
X869766Y548391D01*
X868296Y549000D01*
X866704D01*
X865234Y548391D01*
X864109Y547266D01*
X864028Y547071D01*
X862728D01*
X863391Y547734D01*
X864000Y549204D01*
Y550796D01*
X863391Y552266D01*
X862266Y553391D01*
X860796Y554000D01*
D02*
G37*
G36*
X897426Y554870D02*
X895834D01*
X894364Y554261D01*
X893239Y553136D01*
X892630Y551666D01*
Y550074D01*
X893239Y548604D01*
X894364Y547479D01*
X895834Y546870D01*
X897426D01*
X898896Y547479D01*
X900021Y548604D01*
X900630Y550074D01*
Y551666D01*
X900021Y553136D01*
X898896Y554261D01*
X897426Y554870D01*
D02*
G37*
G36*
X713296Y554000D02*
X711704D01*
X710234Y553391D01*
X709109Y552266D01*
X708500Y550796D01*
Y549204D01*
X709109Y547734D01*
X710234Y546609D01*
X711704Y546000D01*
X713296D01*
X714766Y546609D01*
X715891Y547734D01*
X716500Y549204D01*
Y550796D01*
X715891Y552266D01*
X714766Y553391D01*
X713296Y554000D01*
D02*
G37*
G36*
X684777Y568150D02*
X681223D01*
X677789Y567230D01*
X674711Y565453D01*
X672197Y562939D01*
X670420Y559861D01*
X669500Y556427D01*
Y552873D01*
X670420Y549439D01*
X672197Y546361D01*
X674711Y543847D01*
X677789Y542070D01*
X681223Y541150D01*
X684777D01*
X688211Y542070D01*
X691289Y543847D01*
X693803Y546361D01*
X695580Y549439D01*
X696500Y552873D01*
Y556427D01*
X695580Y559861D01*
X693803Y562939D01*
X691289Y565453D01*
X688211Y567230D01*
X684777Y568150D01*
D02*
G37*
G36*
X720796Y549000D02*
X719204D01*
X717734Y548391D01*
X716609Y547266D01*
X716000Y545796D01*
Y544204D01*
X716609Y542734D01*
X717734Y541609D01*
X719204Y541000D01*
X720796D01*
X722266Y541609D01*
X723391Y542734D01*
X724000Y544204D01*
Y545796D01*
X723391Y547266D01*
X722266Y548391D01*
X720796Y549000D01*
D02*
G37*
G36*
X953295Y544000D02*
X951704D01*
X950234Y543391D01*
X949109Y542266D01*
X948500Y540796D01*
Y539204D01*
X949109Y537734D01*
X950234Y536609D01*
X951704Y536000D01*
X953295D01*
X954765Y536609D01*
X955891Y537734D01*
X956500Y539204D01*
Y540796D01*
X955891Y542266D01*
X954765Y543391D01*
X953295Y544000D01*
D02*
G37*
G36*
X839844Y662853D02*
X838054D01*
X836400Y662168D01*
X835134Y660902D01*
X834449Y659249D01*
Y657458D01*
X835134Y655804D01*
X836400Y654538D01*
X838054Y653854D01*
X839844D01*
X841498Y654538D01*
X842764Y655804D01*
X843449Y657458D01*
Y659249D01*
X842764Y660902D01*
X841498Y662168D01*
X839844Y662853D01*
D02*
G37*
G36*
X829844D02*
X828054D01*
X826400Y662168D01*
X825134Y660902D01*
X824449Y659249D01*
Y657458D01*
X825134Y655804D01*
X826400Y654538D01*
X828054Y653854D01*
X829844D01*
X831498Y654538D01*
X832764Y655804D01*
X833449Y657458D01*
Y659249D01*
X832764Y660902D01*
X831498Y662168D01*
X829844Y662853D01*
D02*
G37*
G36*
X819844D02*
X818054D01*
X816400Y662168D01*
X815134Y660902D01*
X814449Y659249D01*
Y657458D01*
X815134Y655804D01*
X816400Y654538D01*
X818054Y653854D01*
X819844D01*
X821498Y654538D01*
X822764Y655804D01*
X823449Y657458D01*
Y659249D01*
X822764Y660902D01*
X821498Y662168D01*
X819844Y662853D01*
D02*
G37*
G36*
X809844D02*
X808054D01*
X806400Y662168D01*
X805134Y660902D01*
X804449Y659249D01*
Y657458D01*
X805134Y655804D01*
X806400Y654538D01*
X808054Y653854D01*
X809844D01*
X811498Y654538D01*
X812764Y655804D01*
X813449Y657458D01*
Y659249D01*
X812764Y660902D01*
X811498Y662168D01*
X809844Y662853D01*
D02*
G37*
G36*
X799844D02*
X798054D01*
X796400Y662168D01*
X795134Y660902D01*
X794449Y659249D01*
Y657458D01*
X795134Y655804D01*
X796400Y654538D01*
X798054Y653854D01*
X799844D01*
X801498Y654538D01*
X802764Y655804D01*
X803449Y657458D01*
Y659249D01*
X802764Y660902D01*
X801498Y662168D01*
X799844Y662853D01*
D02*
G37*
G36*
X839844Y642853D02*
X838054D01*
X836400Y642168D01*
X835134Y640902D01*
X834449Y639249D01*
Y637458D01*
X835134Y635804D01*
X836400Y634538D01*
X838054Y633853D01*
X839844D01*
X841498Y634538D01*
X842764Y635804D01*
X843449Y637458D01*
Y639249D01*
X842764Y640902D01*
X841498Y642168D01*
X841159Y642309D01*
X839844Y642853D01*
D02*
G37*
G36*
X829844D02*
X828054D01*
X826400Y642168D01*
X825134Y640902D01*
X824449Y639249D01*
Y637458D01*
X825134Y635804D01*
X826400Y634538D01*
X828054Y633853D01*
X829844D01*
X831498Y634538D01*
X832764Y635804D01*
X833276Y637040D01*
D01*
X833449Y637458D01*
Y639249D01*
X832764Y640902D01*
X831498Y642168D01*
X829844Y642853D01*
D02*
G37*
%LPD*%
D41*
X933450Y601900D02*
D03*
Y718900D02*
D03*
D42*
Y637900D02*
D03*
Y682900D02*
D03*
D43*
X652500Y689300D02*
D03*
Y575000D02*
D03*
D44*
X683000Y709650D02*
D03*
Y554650D02*
D03*
D45*
X606800Y564300D02*
D03*
X627100D02*
D03*
X606800Y700000D02*
D03*
X627100D02*
D03*
D46*
X741400Y689300D02*
D03*
X716000Y676600D02*
D03*
X741400Y663900D02*
D03*
X716000Y651200D02*
D03*
X741400Y638500D02*
D03*
X716000Y625800D02*
D03*
X741400Y613100D02*
D03*
X716000Y600400D02*
D03*
X741400Y587700D02*
D03*
D47*
X716000Y575000D02*
D03*
D48*
X866734Y713266D02*
D03*
X860000Y720000D02*
D03*
X850000Y730000D02*
D03*
X851500Y720000D02*
D03*
X840738D02*
D03*
X660000Y760000D02*
D03*
X675859Y752209D02*
D03*
X679585Y763680D02*
D03*
X702117Y754617D02*
D03*
X665583Y775000D02*
D03*
X680000D02*
D03*
X880000Y595015D02*
D03*
X887500Y598292D02*
D03*
X886970Y581788D02*
D03*
X895000Y581500D02*
D03*
X888500Y575471D02*
D03*
X885000Y565000D02*
D03*
X895000Y575000D02*
D03*
X902917Y600373D02*
D03*
X855446Y695362D02*
D03*
X860000Y700000D02*
D03*
X818967Y608421D02*
D03*
X825432Y607755D02*
D03*
X952500Y570000D02*
D03*
X945000Y555000D02*
D03*
X952500Y540000D02*
D03*
X937500Y570000D02*
D03*
X765000Y555000D02*
D03*
X660000D02*
D03*
X645000Y765000D02*
D03*
X652500Y750000D02*
D03*
X645000Y735000D02*
D03*
X652500Y720000D02*
D03*
Y600000D02*
D03*
X645000Y555000D02*
D03*
X630000Y765000D02*
D03*
X637500Y720000D02*
D03*
X630000Y675000D02*
D03*
Y645000D02*
D03*
X637500Y600000D02*
D03*
X630000Y585000D02*
D03*
X622500Y660000D02*
D03*
X615000Y645000D02*
D03*
X622500Y600000D02*
D03*
X600000Y675000D02*
D03*
X607500Y660000D02*
D03*
X600000Y645000D02*
D03*
X607500Y600000D02*
D03*
X600000Y585000D02*
D03*
X585000Y705000D02*
D03*
X592500Y690000D02*
D03*
X585000Y675000D02*
D03*
X592500Y660000D02*
D03*
X585000Y645000D02*
D03*
X592500Y630000D02*
D03*
X585000Y615000D02*
D03*
X592500Y570000D02*
D03*
X585000Y555000D02*
D03*
X570000Y705000D02*
D03*
X577500Y690000D02*
D03*
X570000Y675000D02*
D03*
X577500Y660000D02*
D03*
X570000Y645000D02*
D03*
X577500Y630000D02*
D03*
X570000Y555000D02*
D03*
X555000Y705000D02*
D03*
X562500Y690000D02*
D03*
X555000Y645000D02*
D03*
X562500Y630000D02*
D03*
X555000Y555000D02*
D03*
X540000Y705000D02*
D03*
X547500Y690000D02*
D03*
Y630000D02*
D03*
X540000Y555000D02*
D03*
X525000Y705000D02*
D03*
X532500Y690000D02*
D03*
Y630000D02*
D03*
X525000Y555000D02*
D03*
X517500Y630000D02*
D03*
X510000Y555000D02*
D03*
X502500Y630000D02*
D03*
X487500D02*
D03*
X472500D02*
D03*
X457500Y690000D02*
D03*
Y630000D02*
D03*
X442500Y690000D02*
D03*
Y630000D02*
D03*
X427500D02*
D03*
X405000Y705000D02*
D03*
X412500Y690000D02*
D03*
X390000Y705000D02*
D03*
X397500Y690000D02*
D03*
X884184Y662506D02*
D03*
X881500Y672500D02*
D03*
X912262Y612400D02*
D03*
X732500Y552500D02*
D03*
X894208Y710000D02*
D03*
X897500Y722500D02*
D03*
X775000Y702500D02*
D03*
X858708Y575081D02*
D03*
X875724Y649791D02*
D03*
X882500Y652444D02*
D03*
X863960Y623182D02*
D03*
X872500Y607500D02*
D03*
X865445Y606852D02*
D03*
X851404Y567500D02*
D03*
X770000Y570000D02*
D03*
X777500Y577500D02*
D03*
X695280Y620547D02*
D03*
X720000Y545000D02*
D03*
X712500Y550000D02*
D03*
X742500Y552500D02*
D03*
X762500Y605587D02*
D03*
X756686Y602093D02*
D03*
X877209Y625629D02*
D03*
Y635000D02*
D03*
X867500Y545000D02*
D03*
X860000Y550000D02*
D03*
X814010Y544530D02*
D03*
X837500Y535000D02*
D03*
X827515Y577500D02*
D03*
X817485Y579247D02*
D03*
X805000Y577500D02*
D03*
X770000Y617500D02*
D03*
X765489Y655489D02*
D03*
X759308Y657500D02*
D03*
X757500Y635000D02*
D03*
X763999Y634900D02*
D03*
X760000Y651000D02*
D03*
X687500Y677500D02*
D03*
X692500Y665000D02*
D03*
X702500Y667500D02*
D03*
X682500Y665000D02*
D03*
X847500Y600000D02*
D03*
X868475Y560000D02*
D03*
X911251Y720475D02*
D03*
X920000Y585000D02*
D03*
X797500Y535000D02*
D03*
X882500Y552500D02*
D03*
X819377Y595207D02*
D03*
X812000Y570000D02*
D03*
X848063Y578530D02*
D03*
X767531Y584889D02*
D03*
X770000Y562500D02*
D03*
X705000Y727500D02*
D03*
X670000D02*
D03*
X660000D02*
D03*
Y782500D02*
D03*
X702500Y775000D02*
D03*
X680000Y782500D02*
D03*
X863949Y738551D02*
D03*
X842500Y732500D02*
D03*
X930000Y750000D02*
D03*
X830623Y765499D02*
D03*
X832500Y700000D02*
D03*
X760000Y726970D02*
D03*
X720000Y740000D02*
D03*
X735000Y735000D02*
D03*
X795000Y766982D02*
D03*
X760000Y717500D02*
D03*
X914829Y727674D02*
D03*
X612728Y678123D02*
D03*
X597239Y625000D02*
D03*
X682500Y587500D02*
D03*
X896630Y550870D02*
D03*
X840818Y771170D02*
D03*
Y760170D02*
D03*
X927682Y760330D02*
D03*
X927680Y770000D02*
D03*
X877500Y680000D02*
D03*
X875000Y672500D02*
D03*
X792500Y700000D02*
D03*
X800000Y722500D02*
D03*
X782500Y685000D02*
D03*
X866327Y661470D02*
D03*
X881176Y643429D02*
D03*
X768320Y673009D02*
D03*
X764456Y678235D02*
D03*
X800842Y705842D02*
D03*
X817500Y715000D02*
D03*
X813022Y698698D02*
D03*
X807680Y711488D02*
D03*
X826960Y625366D02*
D03*
X905000Y740000D02*
D03*
X935000Y732500D02*
D03*
D49*
X865000Y790000D02*
D03*
Y777500D02*
D03*
X952500Y790000D02*
D03*
Y777500D02*
D03*
X807500Y755000D02*
D03*
X795000D02*
D03*
X807500Y742500D02*
D03*
X795000D02*
D03*
X877500Y722500D02*
D03*
X782500Y770000D02*
D03*
Y760000D02*
D03*
Y750000D02*
D03*
Y740000D02*
D03*
X762500Y770000D02*
D03*
Y760000D02*
D03*
Y750000D02*
D03*
Y740000D02*
D03*
X772500Y770000D02*
D03*
Y760000D02*
D03*
Y750000D02*
D03*
Y740000D02*
D03*
X828949Y668354D02*
D03*
Y658353D02*
D03*
X838949Y668354D02*
D03*
X798949D02*
D03*
Y658353D02*
D03*
Y638353D02*
D03*
Y648353D02*
D03*
X808949Y658353D02*
D03*
Y638353D02*
D03*
Y648353D02*
D03*
X887500Y722500D02*
D03*
X828949Y638353D02*
D03*
X818949D02*
D03*
X865000Y765000D02*
D03*
Y752500D02*
D03*
X952500D02*
D03*
Y765000D02*
D03*
X828949Y648353D02*
D03*
X838949Y638353D02*
D03*
X818949Y648353D02*
D03*
Y668354D02*
D03*
X838949Y648353D02*
D03*
X808949Y668354D02*
D03*
X838949Y658353D02*
D03*
X818949D02*
D03*
D50*
X899654Y582165D02*
X899989Y582500D01*
X901607D01*
X895000Y581500D02*
X895665Y582165D01*
X899654D01*
X886973Y560238D02*
X902500Y575765D01*
X881478Y560238D02*
X886973D01*
X902500Y575765D02*
Y581607D01*
X876954Y564762D02*
X881478Y560238D01*
X784332Y604102D02*
X804014D01*
X807143Y607230D01*
X812524Y607334D02*
X812998Y607808D01*
X812524Y605024D02*
Y607334D01*
X808325Y600825D02*
X812524Y605024D01*
X782847Y605587D02*
X784332Y604102D01*
X763830Y605587D02*
X782847D01*
X763165Y604922D02*
X763830Y605587D01*
X901607Y582500D02*
X902500Y581607D01*
X817736Y572262D02*
X854793D01*
X862293Y564762D01*
X876954D01*
X805000Y577500D02*
X812498D01*
X817736Y572262D01*
X870963Y651764D02*
X876468Y657270D01*
X814245Y544765D02*
X867265D01*
X814010Y544530D02*
X814245Y544765D01*
X867265D02*
X867500Y545000D01*
X758572Y601428D02*
X759175Y600825D01*
X757351Y601428D02*
X758572D01*
X756686Y602093D02*
X757351Y601428D01*
X759175Y600825D02*
X808325D01*
X762500Y605587D02*
X763165Y604922D01*
X868208Y644845D02*
X870963Y647599D01*
X868208Y644292D02*
Y644845D01*
X870963Y647599D02*
Y651764D01*
D51*
X830054Y705905D02*
X874946D01*
X862461Y649253D02*
X872232Y659024D01*
X862461Y644780D02*
Y649253D01*
X851153Y683735D02*
X852412D01*
X872232Y663916D01*
Y659024D02*
Y663916D01*
X862425Y644744D02*
X862461Y644780D01*
X828752Y704603D02*
X830054Y705905D01*
X806214Y704603D02*
X828752D01*
X805202Y705615D02*
X806214Y704603D01*
X801070Y705615D02*
X805202D01*
X800842Y705842D02*
X801070Y705615D01*
D52*
X765841Y692724D02*
X773335Y685229D01*
Y669613D02*
Y685229D01*
X771562Y667839D02*
X773335Y669613D01*
X771562Y661562D02*
Y667839D01*
X765489Y655489D02*
X771562Y661562D01*
X765841Y708341D02*
X770000Y712500D01*
X765841Y692724D02*
Y708341D01*
X781311Y712500D02*
X782500Y711311D01*
Y697500D02*
Y711311D01*
X770000Y712500D02*
X781311D01*
X782500Y697500D02*
X787515Y692485D01*
Y678546D02*
Y692485D01*
X782500Y665000D02*
Y673531D01*
X787515Y678546D01*
X813022Y698698D02*
X827985Y683735D01*
X851153D01*
X847500Y645000D02*
X847756Y644744D01*
X862425D01*
D54*
X850465Y567500D02*
X851404D01*
X848200Y565235D02*
X850465Y567500D01*
X790074Y570000D02*
X794839Y565235D01*
X848200D01*
X770000Y570000D02*
X790074D01*
D55*
X865120Y584303D02*
X876885D01*
D57*
X801332Y608500D02*
D03*
X807143Y607230D02*
D03*
X812998Y607808D02*
D03*
X866484Y630000D02*
D03*
X773690Y635400D02*
D03*
X776109Y648750D02*
D03*
X862425Y644744D02*
D03*
X776077Y664770D02*
D03*
X840012Y679220D02*
D03*
X868208Y644292D02*
D03*
X811009Y679885D02*
D03*
D58*
X923500Y630250D02*
D03*
Y650375D02*
D03*
Y663792D02*
D03*
Y657083D02*
D03*
Y643667D02*
D03*
X932000Y650000D02*
D03*
Y669250D02*
D03*
X923500Y670500D02*
D03*
X932000Y656417D02*
D03*
Y662833D02*
D03*
D59*
X930750Y698500D02*
D03*
Y705250D02*
D03*
X923750D02*
D03*
Y698500D02*
D03*
Y692250D02*
D03*
M02*
