G04*
G04 #@! TF.GenerationSoftware,Altium Limited,Altium Designer,24.8.2 (39)*
G04*
G04 Layer_Physical_Order=2*
G04 Layer_Color=36540*
%FSLAX44Y44*%
%MOMM*%
G71*
G04*
G04 #@! TF.SameCoordinates,B24E7647-DC98-4454-BF0C-B73D814473A7*
G04*
G04*
G04 #@! TF.FilePolarity,Positive*
G04*
G01*
G75*
%ADD41O,3.6600X1.6600*%
%ADD42C,1.2500*%
%ADD43C,1.6250*%
%ADD44C,2.4000*%
%ADD45C,1.5300*%
%ADD46C,1.4000*%
%ADD47R,1.4000X1.4000*%
%ADD48C,0.5000*%
%ADD49C,0.6000*%
%ADD57C,0.4000*%
%ADD58C,0.4800*%
%ADD59C,0.4500*%
G36*
X948704Y792568D02*
X948685Y792549D01*
X948000Y790895D01*
Y789105D01*
X948685Y787451D01*
X949951Y786185D01*
X951605Y785500D01*
X953395D01*
X955049Y786185D01*
X956315Y787451D01*
X957000Y789105D01*
X958217Y788977D01*
X958217Y778523D01*
X957000Y778395D01*
X956315Y780049D01*
X955049Y781315D01*
X953395Y782000D01*
X951605D01*
X949951Y781315D01*
X948685Y780049D01*
X948000Y778395D01*
Y776605D01*
X948685Y774951D01*
X949951Y773685D01*
X951605Y773000D01*
X953395D01*
X955049Y773685D01*
X956315Y774951D01*
X957000Y776605D01*
X958217Y776477D01*
Y766023D01*
X957000Y765895D01*
X956315Y767549D01*
X955049Y768815D01*
X953395Y769500D01*
X951605D01*
X949951Y768815D01*
X948685Y767549D01*
X948000Y765895D01*
Y764105D01*
X948685Y762451D01*
X949951Y761185D01*
X951605Y760500D01*
X953395D01*
X955049Y761185D01*
X956315Y762451D01*
X957000Y764105D01*
X958217Y763977D01*
Y753523D01*
X957000Y753395D01*
X956315Y755049D01*
X955049Y756315D01*
X953395Y757000D01*
X951605D01*
X949951Y756315D01*
X948685Y755049D01*
X948000Y753395D01*
Y751605D01*
X948685Y749951D01*
X949951Y748685D01*
X951605Y748000D01*
X953395D01*
X955049Y748685D01*
X956315Y749951D01*
X957000Y751605D01*
X958217Y751477D01*
X958217Y511679D01*
X949879D01*
X899599Y511679D01*
Y533122D01*
X899512Y533561D01*
X899443Y534003D01*
X898751Y535882D01*
X898738Y535902D01*
X898734Y535926D01*
X898479Y536325D01*
X898232Y536730D01*
X898212Y536744D01*
X898199Y536764D01*
X897811Y537036D01*
X897428Y537315D01*
X897404Y537321D01*
X897385Y537335D01*
X895552Y538140D01*
X895524Y538147D01*
X895501Y538162D01*
X895040Y538254D01*
X894581Y538355D01*
X894553Y538351D01*
X894526Y538356D01*
X851740D01*
X850764Y538162D01*
X848955Y537412D01*
X848128Y536860D01*
X847575Y536033D01*
X846826Y534223D01*
X846632Y533248D01*
X846632Y518379D01*
X845576Y517323D01*
X830928Y517323D01*
X830563Y517475D01*
X830411Y517840D01*
X830411Y530437D01*
X830361Y530687D01*
X830361Y530942D01*
X829942Y533014D01*
X829942Y533016D01*
Y533017D01*
X829751Y533473D01*
X829559Y533932D01*
X829558Y533933D01*
X829557Y533934D01*
X828416Y535627D01*
X828072Y535969D01*
X827728Y536315D01*
X826036Y537456D01*
X826034Y537457D01*
X826033Y537458D01*
X825569Y537652D01*
X825118Y537841D01*
X825117D01*
X825115Y537841D01*
X823043Y538260D01*
X823039D01*
X823036Y538261D01*
X822542D01*
X822049Y538263D01*
X822045Y538261D01*
X822041D01*
X820004Y537856D01*
X819085Y537476D01*
X817358Y536321D01*
X816655Y535618D01*
X815500Y533891D01*
X815120Y532972D01*
X814715Y530935D01*
Y530684D01*
X814666Y530437D01*
X814666Y506953D01*
X814514Y506587D01*
X814148Y506435D01*
X788909Y506435D01*
X787854Y507488D01*
X787854Y522474D01*
X787660Y523450D01*
X786884Y525324D01*
X786331Y526151D01*
X786331Y526151D01*
X785504Y526704D01*
X783630Y527480D01*
X783140Y527577D01*
X782663Y527674D01*
X782659Y527673D01*
X782655Y527674D01*
X782170Y527577D01*
X781687Y527483D01*
X779806Y526711D01*
X779803Y526709D01*
X779800Y526708D01*
X779389Y526434D01*
X778977Y526161D01*
X778975Y526158D01*
X778973Y526157D01*
X778697Y525744D01*
X778422Y525336D01*
X778421Y525333D01*
X778419Y525330D01*
X777639Y523452D01*
X777639Y523451D01*
X777638Y523450D01*
X777541Y522960D01*
X777444Y522477D01*
X777444Y522476D01*
X777444Y522474D01*
X777444Y506912D01*
X777288Y506521D01*
X776921Y506367D01*
X724576D01*
X724211Y506518D01*
X724059Y506884D01*
X724059Y532985D01*
X723967Y533447D01*
X723886Y533909D01*
X723109Y535908D01*
X723078Y535956D01*
X723066Y536011D01*
X722812Y536373D01*
X722574Y536747D01*
X722528Y536779D01*
X722495Y536826D01*
X722122Y537064D01*
X721760Y537317D01*
X721704Y537330D01*
X721656Y537360D01*
X719657Y538137D01*
X719192Y538219D01*
X718730Y538310D01*
X665617Y538242D01*
X516438Y538242D01*
X514162Y538554D01*
X512039Y539389D01*
X507617Y542871D01*
X504323Y548124D01*
X503434Y551054D01*
X503108Y554281D01*
X503451Y557458D01*
X504399Y560477D01*
X505914Y563254D01*
X507963Y565707D01*
X510453Y567711D01*
X513258Y569175D01*
X516293Y570068D01*
X519614Y570365D01*
X574634Y570365D01*
X574750Y570388D01*
X574868Y570376D01*
X578656Y570725D01*
X578901Y570798D01*
X579156Y570822D01*
X582691Y571885D01*
X582912Y572003D01*
X583152Y572075D01*
X586358Y573778D01*
X586549Y573934D01*
X586766Y574049D01*
X589566Y576317D01*
X589723Y576505D01*
X589913Y576657D01*
X592232Y579416D01*
X592351Y579631D01*
X592510Y579819D01*
X594271Y582993D01*
X594347Y583232D01*
X594469Y583451D01*
X595597Y586966D01*
X595626Y587220D01*
X595703Y587464D01*
X596121Y591245D01*
X596097Y591525D01*
X596121Y591804D01*
X595705Y595586D01*
X595628Y595831D01*
X595599Y596085D01*
X594473Y599602D01*
X594351Y599821D01*
X594274Y600060D01*
X592514Y603236D01*
X592355Y603424D01*
X592236Y603640D01*
X589918Y606400D01*
X589727Y606553D01*
X589571Y606741D01*
X586770Y609010D01*
X586552Y609125D01*
X586362Y609281D01*
X583156Y610985D01*
X582915Y611057D01*
X582694Y611175D01*
X579158Y612239D01*
X578903Y612264D01*
X578657Y612337D01*
X574868Y612686D01*
X574750Y612673D01*
X574634Y612696D01*
X429392Y612696D01*
X426015Y613056D01*
X423023Y614001D01*
X420315Y615485D01*
X417954Y617445D01*
X416007Y619818D01*
X414539Y622534D01*
X413612Y625532D01*
X413288Y628749D01*
X413630Y631913D01*
X414578Y634931D01*
X416093Y637709D01*
X418142Y640162D01*
X420633Y642166D01*
X423437Y643630D01*
X426473Y644522D01*
X429794Y644820D01*
X539720Y644820D01*
X539836Y644843D01*
X539953Y644831D01*
X543743Y645180D01*
X543988Y645253D01*
X544244Y645277D01*
X547779Y646342D01*
X548001Y646459D01*
X548241Y646532D01*
X551447Y648236D01*
X551638Y648392D01*
X551856Y648506D01*
X554656Y650776D01*
X554813Y650964D01*
X555003Y651117D01*
X557322Y653877D01*
X557440Y654093D01*
X557600Y654280D01*
X559360Y657456D01*
X559437Y657695D01*
X559558Y657915D01*
X560685Y661431D01*
X560714Y661685D01*
X560791Y661928D01*
X561209Y665711D01*
X561185Y665988D01*
X561210Y666265D01*
X560812Y669943D01*
X560737Y670183D01*
X560710Y670433D01*
X559613Y673929D01*
X559493Y674148D01*
X559418Y674387D01*
X557663Y677604D01*
X557502Y677797D01*
X557381Y678017D01*
X555010Y680856D01*
X554813Y681015D01*
X554651Y681208D01*
X551769Y683528D01*
X551547Y683644D01*
X551351Y683801D01*
X548103Y685498D01*
X547863Y685568D01*
X547642Y685684D01*
X544126Y686717D01*
X543875Y686740D01*
X543634Y686810D01*
X539950Y687141D01*
X539835Y687129D01*
X539722Y687151D01*
X396342Y687151D01*
X391870Y687642D01*
X387946Y689188D01*
X384561Y691702D01*
X381908Y695079D01*
X380244Y699039D01*
X379691Y703219D01*
X380244Y707399D01*
X381908Y711358D01*
X384561Y714736D01*
X387946Y717250D01*
X391870Y718796D01*
X396342Y719286D01*
X617968Y719286D01*
X618081Y719309D01*
X618195Y719296D01*
X621880Y719627D01*
X622121Y719698D01*
X622371Y719720D01*
X625887Y720753D01*
X626109Y720869D01*
X626348Y720940D01*
X629597Y722636D01*
X629793Y722793D01*
X630015Y722910D01*
X632897Y725229D01*
X633059Y725423D01*
X633256Y725581D01*
X635627Y728420D01*
X635747Y728641D01*
X635908Y728833D01*
X637664Y732050D01*
X637738Y732289D01*
X637858Y732508D01*
X638956Y736005D01*
X638983Y736254D01*
X639058Y736494D01*
X639456Y740172D01*
X639431Y740446D01*
X639456Y740720D01*
X639058Y744398D01*
X638983Y744638D01*
X638956Y744887D01*
X637859Y748384D01*
X637739Y748603D01*
X637664Y748842D01*
X635909Y752059D01*
X635748Y752252D01*
X635627Y752472D01*
X633256Y755311D01*
X633059Y755470D01*
X632898Y755663D01*
X630015Y757982D01*
X629793Y758099D01*
X629597Y758256D01*
X626349Y759953D01*
X626109Y760023D01*
X625888Y760139D01*
X622371Y761172D01*
X622121Y761195D01*
X621880Y761265D01*
X618196Y761596D01*
X618081Y761583D01*
X617968Y761606D01*
X515033Y761606D01*
X493280D01*
X490006Y761930D01*
X487010Y762841D01*
X484248Y764316D01*
X481802Y766322D01*
X479797Y768769D01*
X478324Y771533D01*
X477415Y774529D01*
X477105Y777679D01*
X477416Y780826D01*
X478326Y783821D01*
X479800Y786582D01*
X481806Y789028D01*
X484251Y791033D01*
X487012Y792507D01*
X490007Y793417D01*
X493280Y793741D01*
X860718D01*
X861204Y792568D01*
X861185Y792549D01*
X860500Y790895D01*
Y789105D01*
X861185Y787451D01*
X862451Y786185D01*
X864105Y785500D01*
X865895D01*
X867549Y786185D01*
X868815Y787451D01*
X869500Y789105D01*
Y790895D01*
X868815Y792549D01*
X868796Y792568D01*
X869282Y793741D01*
X948218D01*
X948704Y792568D01*
D02*
G37*
%LPC*%
G36*
X865895Y782000D02*
X864105D01*
X862451Y781315D01*
X861185Y780049D01*
X860500Y778395D01*
Y776605D01*
X861185Y774951D01*
X862451Y773685D01*
X864105Y773000D01*
X865895D01*
X867549Y773685D01*
X868815Y774951D01*
X869500Y776605D01*
Y778395D01*
X868815Y780049D01*
X867549Y781315D01*
X865895Y782000D01*
D02*
G37*
G36*
X703296Y779000D02*
X701704D01*
X700234Y778391D01*
X699109Y777266D01*
X698500Y775796D01*
Y774204D01*
X699109Y772734D01*
X700234Y771609D01*
X701704Y771000D01*
X703296D01*
X704766Y771609D01*
X705891Y772734D01*
X706500Y774204D01*
Y775796D01*
X705891Y777266D01*
X704766Y778391D01*
X703296Y779000D01*
D02*
G37*
G36*
X660796Y786500D02*
X659204D01*
X657734Y785891D01*
X656609Y784766D01*
X656000Y783296D01*
Y781704D01*
X656609Y780234D01*
X657734Y779109D01*
X659204Y778500D01*
X660796D01*
X662266Y779109D01*
X663119Y778192D01*
X662192Y777266D01*
X661583Y775796D01*
Y774204D01*
X662192Y772734D01*
X663317Y771609D01*
X664788Y771000D01*
X666379D01*
X667849Y771609D01*
X668974Y772734D01*
X669583Y774204D01*
Y775796D01*
X668974Y777266D01*
X667849Y778391D01*
X666379Y779000D01*
X664788D01*
X663317Y778391D01*
X662465Y779308D01*
X663391Y780234D01*
X664000Y781704D01*
Y783296D01*
X663391Y784766D01*
X662266Y785891D01*
X660796Y786500D01*
D02*
G37*
G36*
X795796Y770982D02*
X794204D01*
X792734Y770373D01*
X791609Y769248D01*
X791000Y767778D01*
Y766186D01*
X791609Y764716D01*
X792734Y763591D01*
X794204Y762982D01*
X795796D01*
X797266Y763591D01*
X798391Y764716D01*
X799000Y766186D01*
Y767778D01*
X798391Y769248D01*
X797266Y770373D01*
X795796Y770982D01*
D02*
G37*
G36*
X865895Y769500D02*
X864105D01*
X862451Y768815D01*
X861185Y767549D01*
X860500Y765895D01*
Y764105D01*
X861185Y762451D01*
X862451Y761185D01*
X864105Y760500D01*
X865895D01*
X867549Y761185D01*
X868815Y762451D01*
X869500Y764105D01*
Y765895D01*
X868815Y767549D01*
X867549Y768815D01*
X865895Y769500D01*
D02*
G37*
G36*
X660796Y764000D02*
X659204D01*
X657734Y763391D01*
X656609Y762266D01*
X656000Y760796D01*
Y759204D01*
X656609Y757734D01*
X657734Y756609D01*
X659204Y756000D01*
X660796D01*
X662266Y756609D01*
X663391Y757734D01*
X664000Y759204D01*
Y760796D01*
X663391Y762266D01*
X662266Y763391D01*
X660796Y764000D01*
D02*
G37*
G36*
X808395Y759500D02*
X806605D01*
X804951Y758815D01*
X803685Y757549D01*
X803000Y755895D01*
Y754105D01*
X803685Y752451D01*
X804951Y751185D01*
X806605Y750500D01*
X808395D01*
X810049Y751185D01*
X811315Y752451D01*
X812000Y754105D01*
Y755895D01*
X811315Y757549D01*
X810049Y758815D01*
X808395Y759500D01*
D02*
G37*
G36*
X795895D02*
X794105D01*
X792451Y758815D01*
X791185Y757549D01*
X790500Y755895D01*
Y754105D01*
X791185Y752451D01*
X792451Y751185D01*
X794105Y750500D01*
X795895D01*
X797549Y751185D01*
X798815Y752451D01*
X799500Y754105D01*
Y755895D01*
X798815Y757549D01*
X797549Y758815D01*
X795895Y759500D01*
D02*
G37*
G36*
X676655Y756209D02*
X675063D01*
X673593Y755600D01*
X672468Y754475D01*
X671859Y753004D01*
Y751413D01*
X672468Y749943D01*
X673593Y748818D01*
X675063Y748209D01*
X676655D01*
X678125Y748818D01*
X679250Y749943D01*
X679859Y751413D01*
Y753004D01*
X679250Y754475D01*
X678125Y755600D01*
X676655Y756209D01*
D02*
G37*
G36*
X865895Y757000D02*
X864105D01*
X862451Y756315D01*
X861185Y755049D01*
X860500Y753395D01*
Y751605D01*
X861185Y749951D01*
X862451Y748685D01*
X864105Y748000D01*
X865895D01*
X867549Y748685D01*
X868815Y749951D01*
X869500Y751605D01*
Y753395D01*
X868815Y755049D01*
X867549Y756315D01*
X865895Y757000D01*
D02*
G37*
G36*
X808395Y747000D02*
X806605D01*
X804951Y746315D01*
X803685Y745049D01*
X803000Y743395D01*
Y741605D01*
X803685Y739951D01*
X804951Y738685D01*
X806605Y738000D01*
X808395D01*
X810049Y738685D01*
X811315Y739951D01*
X812000Y741605D01*
Y743395D01*
X811315Y745049D01*
X810049Y746315D01*
X808395Y747000D01*
D02*
G37*
G36*
X795895D02*
X794105D01*
X792451Y746315D01*
X791185Y745049D01*
X790500Y743395D01*
Y741605D01*
X791185Y739951D01*
X792451Y738685D01*
X794105Y738000D01*
X795895D01*
X797549Y738685D01*
X798815Y739951D01*
X799500Y741605D01*
Y743395D01*
X798815Y745049D01*
X797549Y746315D01*
X795895Y747000D01*
D02*
G37*
G36*
X720796Y744000D02*
X719204D01*
X717734Y743391D01*
X716609Y742266D01*
X716000Y740796D01*
Y739204D01*
X716609Y737734D01*
X717734Y736609D01*
X719204Y736000D01*
X720796D01*
X722266Y736609D01*
X723391Y737734D01*
X724000Y739204D01*
Y740796D01*
X723391Y742266D01*
X722266Y743391D01*
X720796Y744000D01*
D02*
G37*
G36*
X850796Y734000D02*
X849204D01*
X847734Y733391D01*
X846609Y732266D01*
X846000Y730796D01*
Y729204D01*
X846609Y727734D01*
X847734Y726609D01*
X849204Y726000D01*
X850796D01*
X852266Y726609D01*
X853391Y727734D01*
X854000Y729204D01*
Y730796D01*
X853391Y732266D01*
X852266Y733391D01*
X850796Y734000D01*
D02*
G37*
G36*
X888395Y727000D02*
X886605D01*
X884951Y726315D01*
X883685Y725049D01*
X883173Y723813D01*
X881827D01*
X881315Y725049D01*
X880049Y726315D01*
X878395Y727000D01*
X876605D01*
X874951Y726315D01*
X873685Y725049D01*
X873000Y723395D01*
Y721605D01*
X873685Y719951D01*
X874951Y718685D01*
X876605Y718000D01*
X878395D01*
X880049Y718685D01*
X881315Y719951D01*
X881827Y721187D01*
X883173D01*
X883685Y719951D01*
X884951Y718685D01*
X886605Y718000D01*
X888395D01*
X890049Y718685D01*
X891315Y719951D01*
X892000Y721605D01*
Y723395D01*
X891315Y725049D01*
X890049Y726315D01*
X888395Y727000D01*
D02*
G37*
G36*
X943450Y728784D02*
X923450D01*
X920892Y728448D01*
X918508Y727460D01*
X916461Y725889D01*
X915084Y724096D01*
X913647Y723737D01*
X913517Y723866D01*
X912047Y724475D01*
X910456D01*
X908986Y723866D01*
X907860Y722741D01*
X907251Y721271D01*
Y719680D01*
X907860Y718210D01*
X908986Y717084D01*
X910456Y716475D01*
X912047D01*
X912575Y716694D01*
X913046Y716569D01*
X914058Y715966D01*
X914890Y713958D01*
X916461Y711911D01*
X918508Y710340D01*
X920840Y709374D01*
X920945Y709139D01*
X921224Y708027D01*
X920571Y707374D01*
X920000Y705996D01*
Y704504D01*
X920571Y703126D01*
X920992Y702705D01*
X921505Y701875D01*
X920992Y701045D01*
X920571Y700624D01*
X920000Y699246D01*
Y697754D01*
X920571Y696376D01*
X921572Y695375D01*
X920571Y694374D01*
X920000Y692996D01*
Y691504D01*
X920571Y690126D01*
X921626Y689071D01*
X923004Y688500D01*
X924496D01*
X925874Y689071D01*
X926929Y690126D01*
X927500Y691504D01*
Y692996D01*
X926929Y694374D01*
X926605Y694698D01*
X926712Y695098D01*
X927849Y695737D01*
X928199Y695747D01*
X928626Y695321D01*
X930004Y694750D01*
X931496D01*
X932874Y695321D01*
X933929Y696376D01*
X934500Y697754D01*
Y699246D01*
X933929Y700624D01*
X933508Y701045D01*
X932995Y701875D01*
X933508Y702705D01*
X933929Y703126D01*
X934500Y704504D01*
Y705996D01*
X933929Y707374D01*
X933558Y707746D01*
X934084Y709016D01*
X943450D01*
X946008Y709352D01*
X948392Y710340D01*
X950439Y711911D01*
X952010Y713958D01*
X952998Y716342D01*
X953335Y718900D01*
X952998Y721458D01*
X952010Y723842D01*
X950439Y725889D01*
X948392Y727460D01*
X946008Y728448D01*
X943450Y728784D01*
D02*
G37*
G36*
X705796Y731500D02*
X704204D01*
X702734Y730891D01*
X701609Y729766D01*
X701000Y728296D01*
Y726704D01*
X701609Y725234D01*
X702734Y724109D01*
X704204Y723500D01*
X705796D01*
X707266Y724109D01*
X708391Y725234D01*
X709000Y726704D01*
Y728296D01*
X708391Y729766D01*
X707266Y730891D01*
X705796Y731500D01*
D02*
G37*
G36*
X670796D02*
X669204D01*
X667734Y730891D01*
X666609Y729766D01*
X666000Y728296D01*
Y726704D01*
X666609Y725234D01*
X667734Y724109D01*
X669204Y723500D01*
X670796D01*
X672266Y724109D01*
X673391Y725234D01*
X674000Y726704D01*
Y728296D01*
X673391Y729766D01*
X672266Y730891D01*
X670796Y731500D01*
D02*
G37*
G36*
X660796D02*
X659204D01*
X657734Y730891D01*
X656609Y729766D01*
X656000Y728296D01*
Y726704D01*
X656609Y725234D01*
X657734Y724109D01*
X659204Y723500D01*
X660796D01*
X662266Y724109D01*
X663391Y725234D01*
X664000Y726704D01*
Y728296D01*
X663391Y729766D01*
X662266Y730891D01*
X660796Y731500D01*
D02*
G37*
G36*
X898296Y726500D02*
X896704D01*
X895234Y725891D01*
X894109Y724766D01*
X893500Y723296D01*
Y721704D01*
X894109Y720234D01*
X895234Y719109D01*
X896704Y718500D01*
X898296D01*
X899766Y719109D01*
X900891Y720234D01*
X901500Y721704D01*
Y723296D01*
X900891Y724766D01*
X899766Y725891D01*
X898296Y726500D01*
D02*
G37*
G36*
X800796D02*
X799204D01*
X797734Y725891D01*
X796609Y724766D01*
X796000Y723296D01*
Y721704D01*
X796609Y720234D01*
X797734Y719109D01*
X799204Y718500D01*
X800796D01*
X802266Y719109D01*
X803391Y720234D01*
X804000Y721704D01*
Y723296D01*
X803391Y724766D01*
X802266Y725891D01*
X800796Y726500D01*
D02*
G37*
G36*
X860796Y724000D02*
X859204D01*
X857734Y723391D01*
X856609Y722266D01*
X856000Y720796D01*
Y719204D01*
X856609Y717734D01*
X857734Y716609D01*
X859204Y716000D01*
X860796D01*
X862266Y716609D01*
X863391Y717734D01*
X864000Y719204D01*
Y720796D01*
X863391Y722266D01*
X862266Y723391D01*
X860796Y724000D01*
D02*
G37*
G36*
X867530Y717265D02*
X865939D01*
X864469Y716657D01*
X863343Y715531D01*
X862734Y714061D01*
Y712470D01*
X863343Y711000D01*
X864469Y709874D01*
X865939Y709266D01*
X867530D01*
X869000Y709874D01*
X870126Y711000D01*
X870734Y712470D01*
Y714061D01*
X870126Y715531D01*
X869000Y716657D01*
X867530Y717265D01*
D02*
G37*
G36*
X895004Y714000D02*
X893412D01*
X891942Y713391D01*
X890817Y712266D01*
X890208Y710796D01*
Y709204D01*
X890817Y707734D01*
X891942Y706609D01*
X893412Y706000D01*
X895004D01*
X896474Y706609D01*
X897599Y707734D01*
X898208Y709204D01*
Y710796D01*
X897599Y712266D01*
X896474Y713391D01*
X895004Y714000D01*
D02*
G37*
G36*
X801638Y709842D02*
X800047D01*
X798576Y709233D01*
X797451Y708108D01*
X796842Y706638D01*
Y705047D01*
X797451Y703576D01*
X798576Y702451D01*
X800047Y701842D01*
X801638D01*
X803108Y702451D01*
X804233Y703576D01*
X804842Y705047D01*
Y706638D01*
X804233Y708108D01*
X803108Y709233D01*
X801638Y709842D01*
D02*
G37*
G36*
X775796Y706500D02*
X774204D01*
X772734Y705891D01*
X771609Y704766D01*
X771000Y703296D01*
Y701704D01*
X771609Y700234D01*
X772734Y699109D01*
X774204Y698500D01*
X775796D01*
X777266Y699109D01*
X778391Y700234D01*
X779000Y701704D01*
Y703296D01*
X778391Y704766D01*
X777266Y705891D01*
X775796Y706500D01*
D02*
G37*
G36*
X684777Y723150D02*
X681223D01*
X677789Y722230D01*
X674711Y720453D01*
X672197Y717939D01*
X670420Y714861D01*
X669500Y711427D01*
Y707873D01*
X670420Y704439D01*
X672197Y701361D01*
X674711Y698847D01*
X677789Y697070D01*
X681223Y696150D01*
X684777D01*
X688211Y697070D01*
X691289Y698847D01*
X693803Y701361D01*
X695580Y704439D01*
X696500Y707873D01*
Y711427D01*
X695580Y714861D01*
X693803Y717939D01*
X691289Y720453D01*
X688211Y722230D01*
X684777Y723150D01*
D02*
G37*
G36*
X860796Y704000D02*
X859204D01*
X857734Y703391D01*
X856609Y702266D01*
X856000Y700796D01*
Y699204D01*
X856609Y697734D01*
X857734Y696609D01*
X859204Y696000D01*
X860796D01*
X862266Y696609D01*
X863391Y697734D01*
X864000Y699204D01*
Y700796D01*
X863391Y702266D01*
X862266Y703391D01*
X860796Y704000D01*
D02*
G37*
G36*
X833296D02*
X831704D01*
X830234Y703391D01*
X829109Y702266D01*
X828500Y700796D01*
Y699204D01*
X829109Y697734D01*
X830234Y696609D01*
X831704Y696000D01*
X833296D01*
X834766Y696609D01*
X835891Y697734D01*
X836500Y699204D01*
Y700796D01*
X835891Y702266D01*
X834766Y703391D01*
X833296Y704000D01*
D02*
G37*
G36*
X793296D02*
X791704D01*
X790234Y703391D01*
X789109Y702266D01*
X788500Y700796D01*
Y699204D01*
X789109Y697734D01*
X790234Y696609D01*
X791704Y696000D01*
X793296D01*
X794766Y696609D01*
X795891Y697734D01*
X796500Y699204D01*
Y700796D01*
X795891Y702266D01*
X794766Y703391D01*
X793296Y704000D01*
D02*
G37*
G36*
X813818Y702698D02*
X812227D01*
X810757Y702088D01*
X809631Y700963D01*
X809022Y699493D01*
Y697902D01*
X809631Y696432D01*
X810757Y695306D01*
X812227Y694697D01*
X813818D01*
X815288Y695306D01*
X816413Y696432D01*
X817022Y697902D01*
Y699493D01*
X816413Y700963D01*
X815288Y702088D01*
X813818Y702698D01*
D02*
G37*
G36*
X608005Y709150D02*
X605595D01*
X603268Y708526D01*
X601182Y707322D01*
X599478Y705618D01*
X598274Y703532D01*
X597650Y701205D01*
Y698795D01*
X598274Y696468D01*
X599478Y694382D01*
X601182Y692678D01*
X603268Y691474D01*
X605595Y690850D01*
X608005D01*
X610332Y691474D01*
X612418Y692678D01*
X614122Y694382D01*
X615326Y696468D01*
X615950Y698795D01*
Y701205D01*
X615326Y703532D01*
X614122Y705618D01*
X612418Y707322D01*
X610332Y708526D01*
X608005Y709150D01*
D02*
G37*
G36*
X742670Y698836D02*
Y690570D01*
X750936D01*
X750290Y692982D01*
X749034Y695158D01*
X747258Y696934D01*
X745082Y698190D01*
X742670Y698836D01*
D02*
G37*
G36*
X740130D02*
X737718Y698190D01*
X735542Y696934D01*
X733766Y695158D01*
X732510Y692982D01*
X731864Y690570D01*
X740130D01*
Y698836D01*
D02*
G37*
G36*
Y688030D02*
X731864D01*
X732510Y685618D01*
X733766Y683442D01*
X735542Y681666D01*
X737718Y680410D01*
X740130Y679764D01*
Y688030D01*
D02*
G37*
G36*
X750936D02*
X742670D01*
Y679764D01*
X745082Y680410D01*
X747258Y681666D01*
X749034Y683442D01*
X750290Y685618D01*
X750936Y688030D01*
D02*
G37*
G36*
X811705Y683385D02*
X810313D01*
X809026Y682852D01*
X808042Y681868D01*
X807509Y680581D01*
Y679189D01*
X808042Y677902D01*
X809026Y676918D01*
X810313Y676385D01*
X811705D01*
X812991Y676918D01*
X813976Y677902D01*
X814509Y679189D01*
Y680581D01*
X813976Y681868D01*
X812991Y682852D01*
X811705Y683385D01*
D02*
G37*
G36*
X840708Y682720D02*
X839315D01*
X838029Y682187D01*
X837044Y681203D01*
X836512Y679916D01*
Y678524D01*
X837044Y677238D01*
X838029Y676253D01*
X839315Y675720D01*
X840708D01*
X841994Y676253D01*
X842979Y677238D01*
X843511Y678524D01*
Y679916D01*
X842979Y681203D01*
X841994Y682187D01*
X840708Y682720D01*
D02*
G37*
G36*
X934470Y690650D02*
X932430D01*
X930459Y690122D01*
X928691Y689101D01*
X927249Y687659D01*
X926228Y685891D01*
X925700Y683920D01*
Y681880D01*
X926228Y679909D01*
X927249Y678141D01*
X928691Y676699D01*
X930459Y675678D01*
X932430Y675150D01*
X934470D01*
X936441Y675678D01*
X938209Y676699D01*
X939651Y678141D01*
X940672Y679909D01*
X941200Y681880D01*
Y683920D01*
X940672Y685891D01*
X939651Y687659D01*
X938209Y689101D01*
X936441Y690122D01*
X934470Y690650D01*
D02*
G37*
G36*
X613523Y682123D02*
X611932D01*
X610462Y681514D01*
X609337Y680389D01*
X608728Y678919D01*
Y677328D01*
X609337Y675857D01*
X610462Y674732D01*
X611932Y674123D01*
X613523D01*
X614994Y674732D01*
X616119Y675857D01*
X616728Y677328D01*
Y678919D01*
X616119Y680389D01*
X614994Y681514D01*
X613523Y682123D01*
D02*
G37*
G36*
X688296Y681500D02*
X686704D01*
X685234Y680891D01*
X684109Y679766D01*
X683500Y678296D01*
Y676704D01*
X684109Y675234D01*
X685234Y674109D01*
X686704Y673500D01*
X688296D01*
X689766Y674109D01*
X690891Y675234D01*
X691500Y676704D01*
Y678296D01*
X690891Y679766D01*
X689766Y680891D01*
X688296Y681500D01*
D02*
G37*
G36*
X628305Y709150D02*
X625895D01*
X623568Y708526D01*
X621482Y707322D01*
X619778Y705618D01*
X618574Y703532D01*
X617950Y701205D01*
Y698795D01*
X618574Y696468D01*
X619778Y694382D01*
X621482Y692678D01*
X623568Y691474D01*
X625895Y690850D01*
X628305D01*
X630632Y691474D01*
X632718Y692678D01*
X634043Y694003D01*
X635213Y693377D01*
X634750Y691048D01*
Y687552D01*
X635432Y684122D01*
X636770Y680892D01*
X638713Y677985D01*
X641185Y675513D01*
X644092Y673570D01*
X647322Y672232D01*
X650752Y671550D01*
X654248D01*
X657678Y672232D01*
X660908Y673570D01*
X663815Y675513D01*
X666287Y677985D01*
X668230Y680892D01*
X669568Y684122D01*
X670250Y687552D01*
Y691048D01*
X669568Y694477D01*
X668230Y697708D01*
X666287Y700615D01*
X663815Y703087D01*
X660908Y705030D01*
X657678Y706368D01*
X654248Y707050D01*
X650752D01*
X647322Y706368D01*
X644092Y705030D01*
X641185Y703087D01*
X638713Y700615D01*
X637520Y698830D01*
X636250Y699215D01*
Y701205D01*
X635626Y703532D01*
X634422Y705618D01*
X632718Y707322D01*
X630632Y708526D01*
X628305Y709150D01*
D02*
G37*
G36*
X765252Y682235D02*
X763661D01*
X762191Y681626D01*
X761065Y680501D01*
X760456Y679031D01*
Y677440D01*
X761065Y675969D01*
X762191Y674844D01*
X763203Y674425D01*
X764321Y673804D01*
Y672213D01*
X764930Y670743D01*
X766055Y669618D01*
X767525Y669009D01*
X769116D01*
X770586Y669618D01*
X771712Y670743D01*
X772320Y672213D01*
Y673804D01*
X771712Y675274D01*
X770586Y676400D01*
X769574Y676819D01*
X768456Y677440D01*
Y679031D01*
X767847Y680501D01*
X766722Y681626D01*
X765252Y682235D01*
D02*
G37*
G36*
X878296Y684000D02*
X876704D01*
X875234Y683391D01*
X874109Y682266D01*
X873500Y680796D01*
Y679204D01*
X874109Y677734D01*
X874112Y677732D01*
X874126Y677535D01*
X873740Y676308D01*
X872734Y675891D01*
X871609Y674766D01*
X871000Y673296D01*
Y671704D01*
X871609Y670234D01*
X872734Y669109D01*
X874204Y668500D01*
X875796D01*
X877266Y669109D01*
X878250Y670093D01*
X879234Y669109D01*
X880704Y668500D01*
X882296D01*
X883766Y669109D01*
X884891Y670234D01*
X885500Y671704D01*
Y673296D01*
X884891Y674766D01*
X883766Y675891D01*
X882296Y676500D01*
X881453D01*
X880891Y677734D01*
X881500Y679204D01*
Y680796D01*
X880891Y682266D01*
X879766Y683391D01*
X878296Y684000D01*
D02*
G37*
G36*
X717119Y685100D02*
X714881D01*
X712719Y684521D01*
X710781Y683402D01*
X709198Y681819D01*
X708079Y679881D01*
X707500Y677719D01*
Y675481D01*
X708079Y673319D01*
X709198Y671381D01*
X710781Y669798D01*
X712719Y668679D01*
X714881Y668100D01*
X717119D01*
X719281Y668679D01*
X721219Y669798D01*
X722802Y671381D01*
X723921Y673319D01*
X724500Y675481D01*
Y677719D01*
X723921Y679881D01*
X722802Y681819D01*
X721219Y683402D01*
X719281Y684521D01*
X717119Y685100D01*
D02*
G37*
G36*
X703296Y671500D02*
X701704D01*
X700234Y670891D01*
X699109Y669766D01*
X698500Y668296D01*
Y666704D01*
X699109Y665234D01*
X700234Y664109D01*
X701704Y663500D01*
X703296D01*
X704766Y664109D01*
X705891Y665234D01*
X706500Y666704D01*
Y668296D01*
X705891Y669766D01*
X704766Y670891D01*
X703296Y671500D01*
D02*
G37*
G36*
X776773Y668270D02*
X775380D01*
X774094Y667737D01*
X773109Y666752D01*
X772577Y665466D01*
Y664074D01*
X773109Y662787D01*
X774094Y661803D01*
X775380Y661270D01*
X776773D01*
X778059Y661803D01*
X779044Y662787D01*
X779576Y664074D01*
Y665466D01*
X779044Y666752D01*
X778059Y667737D01*
X776773Y668270D01*
D02*
G37*
G36*
X693296Y669000D02*
X691704D01*
X690234Y668391D01*
X689109Y667266D01*
X688500Y665796D01*
Y664204D01*
X689109Y662734D01*
X690234Y661609D01*
X691704Y661000D01*
X693296D01*
X694766Y661609D01*
X695891Y662734D01*
X696500Y664204D01*
Y665796D01*
X695891Y667266D01*
X694766Y668391D01*
X693296Y669000D01*
D02*
G37*
G36*
X683296D02*
X681704D01*
X680234Y668391D01*
X679109Y667266D01*
X678500Y665796D01*
Y664204D01*
X679109Y662734D01*
X680234Y661609D01*
X681704Y661000D01*
X683296D01*
X684766Y661609D01*
X685891Y662734D01*
X686500Y664204D01*
Y665796D01*
X685891Y667266D01*
X684766Y668391D01*
X683296Y669000D01*
D02*
G37*
G36*
X884980Y666507D02*
X883388D01*
X881918Y665898D01*
X880793Y664772D01*
X880184Y663302D01*
Y661711D01*
X880793Y660241D01*
X881918Y659116D01*
X883388Y658506D01*
X884980D01*
X886450Y659116D01*
X887575Y660241D01*
X888184Y661711D01*
Y663302D01*
X887575Y664772D01*
X886450Y665898D01*
X884980Y666507D01*
D02*
G37*
G36*
X867122Y665470D02*
X865531D01*
X864061Y664861D01*
X862935Y663736D01*
X862327Y662266D01*
Y660674D01*
X862935Y659204D01*
X864061Y658079D01*
X865531Y657470D01*
X867122D01*
X868592Y658079D01*
X869718Y659204D01*
X870327Y660674D01*
Y662266D01*
X869718Y663736D01*
X868592Y664861D01*
X867122Y665470D01*
D02*
G37*
G36*
X742519Y672400D02*
X740281D01*
X738119Y671821D01*
X736181Y670702D01*
X734598Y669119D01*
X733479Y667181D01*
X732900Y665019D01*
Y662781D01*
X733479Y660619D01*
X734598Y658681D01*
X736181Y657098D01*
X738119Y655979D01*
X740281Y655400D01*
X742519D01*
X744681Y655979D01*
X746619Y657098D01*
X748202Y658681D01*
X749321Y660619D01*
X749900Y662781D01*
Y665019D01*
X749321Y667181D01*
X748202Y669119D01*
X746619Y670702D01*
X744681Y671821D01*
X742519Y672400D01*
D02*
G37*
G36*
X883296Y656444D02*
X881704D01*
X880234Y655835D01*
X879109Y654710D01*
X878854Y654095D01*
X878113Y653312D01*
X877321Y653460D01*
X876520Y653791D01*
X874929D01*
X873459Y653182D01*
X872333Y652057D01*
X871724Y650587D01*
Y648996D01*
X872333Y647526D01*
X873459Y646400D01*
X874929Y645791D01*
X876520D01*
X877990Y646400D01*
X879116Y647526D01*
X879370Y648141D01*
X880112Y648923D01*
X880903Y648776D01*
X881704Y648444D01*
X883296D01*
X884766Y649053D01*
X885891Y650178D01*
X886500Y651648D01*
Y653240D01*
X885891Y654710D01*
X884766Y655835D01*
X883296Y656444D01*
D02*
G37*
G36*
X760104Y661500D02*
X758512D01*
X757042Y660891D01*
X755917Y659766D01*
X755308Y658296D01*
Y656704D01*
X755917Y655234D01*
X757042Y654109D01*
X757110Y653767D01*
X756609Y653266D01*
X756000Y651796D01*
Y650204D01*
X756609Y648734D01*
X757734Y647609D01*
X759204Y647000D01*
X760796D01*
X762266Y647609D01*
X763391Y648734D01*
X764000Y650204D01*
Y651026D01*
X764694Y651489D01*
X766285D01*
X767755Y652098D01*
X768880Y653224D01*
X769489Y654694D01*
Y656285D01*
X768880Y657755D01*
X767755Y658880D01*
X766285Y659489D01*
X764694D01*
X764225Y659295D01*
X762699Y659766D01*
X761574Y660891D01*
X760104Y661500D01*
D02*
G37*
G36*
X776805Y652250D02*
X775413D01*
X774126Y651717D01*
X773141Y650732D01*
X772609Y649446D01*
Y648054D01*
X773141Y646767D01*
X774126Y645783D01*
X775413Y645250D01*
X776805D01*
X778091Y645783D01*
X779076Y646767D01*
X779609Y648054D01*
Y649446D01*
X779076Y650732D01*
X778091Y651717D01*
X776805Y652250D01*
D02*
G37*
G36*
X717119Y659700D02*
X714881D01*
X712719Y659121D01*
X710781Y658002D01*
X709198Y656419D01*
X708079Y654481D01*
X707500Y652319D01*
Y650081D01*
X708079Y647919D01*
X709198Y645981D01*
X710781Y644398D01*
X712719Y643279D01*
X714881Y642700D01*
X717119D01*
X719281Y643279D01*
X721219Y644398D01*
X722802Y645981D01*
X723921Y647919D01*
X724500Y650081D01*
Y652319D01*
X723921Y654481D01*
X722802Y656419D01*
X721219Y658002D01*
X719281Y659121D01*
X717119Y659700D01*
D02*
G37*
G36*
X863121Y648244D02*
X861729D01*
X860442Y647711D01*
X859457Y646727D01*
X858925Y645440D01*
Y644048D01*
X859457Y642761D01*
X860442Y641777D01*
X861729Y641244D01*
X863121D01*
X864407Y641777D01*
X864499Y641868D01*
X865241Y642309D01*
X866226Y641324D01*
X867512Y640791D01*
X868905D01*
X870191Y641324D01*
X871176Y642309D01*
X871709Y643595D01*
Y644988D01*
X871176Y646274D01*
X870191Y647259D01*
X868905Y647792D01*
X867512D01*
X866226Y647259D01*
X866135Y647167D01*
X865392Y646727D01*
X864407Y647711D01*
X863121Y648244D01*
D02*
G37*
G36*
X774387Y638900D02*
X772994D01*
X771708Y638367D01*
X770723Y637383D01*
X770190Y636096D01*
Y634704D01*
X770723Y633417D01*
X771708Y632433D01*
X772994Y631900D01*
X774387D01*
X775673Y632433D01*
X776657Y633417D01*
X777190Y634704D01*
Y636096D01*
X776657Y637383D01*
X775673Y638367D01*
X774387Y638900D01*
D02*
G37*
G36*
X878005Y639000D02*
X876413D01*
X874943Y638391D01*
X873818Y637266D01*
X873209Y635796D01*
Y634204D01*
X873818Y632734D01*
X874943Y631609D01*
X876413Y631000D01*
X878005D01*
X879475Y631609D01*
X880600Y632734D01*
X881209Y634204D01*
Y635796D01*
X880600Y637266D01*
X879475Y638391D01*
X878005Y639000D01*
D02*
G37*
G36*
X758296D02*
X756704D01*
X755234Y638391D01*
X754109Y637266D01*
X753500Y635796D01*
Y634204D01*
X754109Y632734D01*
X755234Y631609D01*
X756704Y631000D01*
X758296D01*
X759766Y631609D01*
X760699Y632543D01*
X761733Y631509D01*
X763203Y630900D01*
X764795D01*
X766265Y631509D01*
X767390Y632634D01*
X767999Y634104D01*
Y635696D01*
X767390Y637166D01*
X766265Y638291D01*
X764795Y638900D01*
X763203D01*
X761733Y638291D01*
X760799Y637357D01*
X759766Y638391D01*
X758296Y639000D01*
D02*
G37*
G36*
X934470Y645650D02*
X932430D01*
X930459Y645122D01*
X928691Y644101D01*
X927249Y642659D01*
X926228Y640891D01*
X925700Y638920D01*
Y636880D01*
X926228Y634909D01*
X927249Y633141D01*
X928691Y631698D01*
X930459Y630678D01*
X932430Y630150D01*
X934470D01*
X936441Y630678D01*
X938209Y631698D01*
X939651Y633141D01*
X940672Y634909D01*
X941200Y636880D01*
Y638920D01*
X940672Y640891D01*
X939651Y642659D01*
X938209Y644101D01*
X936441Y645122D01*
X934470Y645650D01*
D02*
G37*
G36*
X742519Y647000D02*
X740281D01*
X738119Y646421D01*
X736181Y645302D01*
X734598Y643719D01*
X733479Y641781D01*
X732900Y639619D01*
Y637381D01*
X733479Y635219D01*
X734598Y633281D01*
X736181Y631698D01*
X738119Y630579D01*
X740281Y630000D01*
X742519D01*
X744681Y630579D01*
X746619Y631698D01*
X748202Y633281D01*
X749321Y635219D01*
X749900Y637381D01*
Y639619D01*
X749321Y641781D01*
X748202Y643719D01*
X746619Y645302D01*
X744681Y646421D01*
X742519Y647000D01*
D02*
G37*
G36*
X878005Y629629D02*
X876413D01*
X874943Y629020D01*
X873818Y627895D01*
X873209Y626425D01*
Y624833D01*
X873818Y623363D01*
X874943Y622238D01*
X876413Y621629D01*
X878005D01*
X879475Y622238D01*
X880600Y623363D01*
X881209Y624833D01*
Y626425D01*
X880600Y627895D01*
X879475Y629020D01*
X878005Y629629D01*
D02*
G37*
G36*
X827756Y629366D02*
X826164D01*
X824694Y628757D01*
X823569Y627632D01*
X822960Y626161D01*
Y624570D01*
X823569Y623100D01*
X824694Y621975D01*
X826164Y621366D01*
X827756D01*
X829226Y621975D01*
X830351Y623100D01*
X830960Y624570D01*
Y626161D01*
X830351Y627632D01*
X829226Y628757D01*
X827756Y629366D01*
D02*
G37*
G36*
X598034Y629000D02*
X596443D01*
X594973Y628391D01*
X593848Y627266D01*
X593239Y625796D01*
Y624204D01*
X593848Y622734D01*
X594973Y621609D01*
X596443Y621000D01*
X598034D01*
X599504Y621609D01*
X600630Y622734D01*
X601239Y624204D01*
Y625796D01*
X600630Y627266D01*
X599504Y628391D01*
X598034Y629000D01*
D02*
G37*
G36*
X867180Y633500D02*
X865788D01*
X864501Y632967D01*
X863517Y631983D01*
X862984Y630696D01*
Y629304D01*
X863337Y628452D01*
X863227Y627642D01*
X862734Y627004D01*
X861694Y626573D01*
X860569Y625448D01*
X859960Y623978D01*
Y622387D01*
X860569Y620916D01*
X861694Y619791D01*
X863164Y619182D01*
X864756D01*
X866226Y619791D01*
X867351Y620916D01*
X867960Y622387D01*
Y623978D01*
X867403Y625322D01*
X867401Y625331D01*
X867418Y625634D01*
X867827Y626768D01*
X868467Y627033D01*
X869451Y628017D01*
X869984Y629304D01*
Y630696D01*
X869451Y631983D01*
X868467Y632967D01*
X867180Y633500D01*
D02*
G37*
G36*
X717119Y634300D02*
X714881D01*
X712719Y633721D01*
X710781Y632602D01*
X709198Y631019D01*
X708079Y629081D01*
X707500Y626919D01*
Y624681D01*
X708079Y622519D01*
X709198Y620581D01*
X710781Y618998D01*
X712719Y617879D01*
X714881Y617300D01*
X717119D01*
X719281Y617879D01*
X721219Y618998D01*
X722802Y620581D01*
X723921Y622519D01*
X724500Y624681D01*
Y626919D01*
X723921Y629081D01*
X722802Y631019D01*
X721219Y632602D01*
X719281Y633721D01*
X717119Y634300D01*
D02*
G37*
G36*
X696076Y624547D02*
X694484D01*
X693014Y623938D01*
X691889Y622813D01*
X691280Y621343D01*
Y619752D01*
X691889Y618282D01*
X693014Y617156D01*
X694484Y616547D01*
X696076D01*
X697546Y617156D01*
X698671Y618282D01*
X699280Y619752D01*
Y621343D01*
X698671Y622813D01*
X697546Y623938D01*
X696076Y624547D01*
D02*
G37*
G36*
X770796Y621500D02*
X769204D01*
X767734Y620891D01*
X766609Y619766D01*
X766000Y618296D01*
Y616704D01*
X766609Y615234D01*
X767734Y614109D01*
X769204Y613500D01*
X770796D01*
X772266Y614109D01*
X773391Y615234D01*
X774000Y616704D01*
Y618296D01*
X773391Y619766D01*
X772266Y620891D01*
X770796Y621500D01*
D02*
G37*
G36*
X819762Y612421D02*
X818171D01*
X816701Y611812D01*
X815575Y610687D01*
X815152Y610603D01*
X814981Y610775D01*
X813694Y611308D01*
X812302D01*
X811015Y610775D01*
X810031Y609790D01*
X809138Y610185D01*
X809126Y610198D01*
X807839Y610731D01*
X806447D01*
X805699Y610421D01*
X804299Y610482D01*
X803314Y611467D01*
X802028Y612000D01*
X800635D01*
X799349Y611467D01*
X798364Y610482D01*
X797832Y609196D01*
Y607804D01*
X798364Y606517D01*
X799349Y605533D01*
X800635Y605000D01*
X802028D01*
X802776Y605310D01*
X804176Y605248D01*
X805161Y604263D01*
X806447Y603731D01*
X807839D01*
X809126Y604263D01*
X810110Y605248D01*
X811003Y604853D01*
X811015Y604841D01*
X812302Y604308D01*
X813694D01*
X814981Y604841D01*
X815936Y605796D01*
X816701Y605030D01*
X818171Y604421D01*
X819762D01*
X821232Y605030D01*
X821299Y605097D01*
X822041Y605489D01*
X823166Y604364D01*
X824637Y603755D01*
X826228D01*
X827698Y604364D01*
X828823Y605489D01*
X829432Y606959D01*
Y608551D01*
X828823Y610021D01*
X827698Y611146D01*
X826228Y611755D01*
X824637D01*
X823166Y611146D01*
X823100Y611079D01*
X822357Y610687D01*
X821232Y611812D01*
X819762Y612421D01*
D02*
G37*
G36*
X873296Y611500D02*
X871704D01*
X870234Y610891D01*
X869478Y610135D01*
X869109Y609766D01*
X867867Y610086D01*
X867711Y610243D01*
X866240Y610852D01*
X864649D01*
X863179Y610243D01*
X862054Y609118D01*
X861445Y607648D01*
Y606056D01*
X862054Y604586D01*
X863179Y603461D01*
X864649Y602852D01*
X866240D01*
X867711Y603461D01*
X868467Y604217D01*
X868836Y604586D01*
X870078Y604266D01*
X870234Y604109D01*
X871704Y603500D01*
X873296D01*
X874766Y604109D01*
X875891Y605234D01*
X876500Y606704D01*
Y608296D01*
X875891Y609766D01*
X874766Y610891D01*
X873296Y611500D01*
D02*
G37*
G36*
X913058Y616400D02*
X911466D01*
X909996Y615791D01*
X908871Y614666D01*
X908262Y613196D01*
Y611604D01*
X908871Y610134D01*
X909996Y609009D01*
X911466Y608400D01*
X913058D01*
X914528Y609009D01*
X915653Y610134D01*
X916262Y611604D01*
Y613196D01*
X915653Y614666D01*
X914528Y615791D01*
X913058Y616400D01*
D02*
G37*
G36*
X742519Y621600D02*
X740281D01*
X738119Y621021D01*
X736181Y619902D01*
X734598Y618319D01*
X733479Y616381D01*
X732900Y614219D01*
Y611981D01*
X733479Y609819D01*
X734598Y607881D01*
X736181Y606298D01*
X738119Y605179D01*
X740281Y604600D01*
X742519D01*
X744681Y605179D01*
X746619Y606298D01*
X748202Y607881D01*
X749321Y609819D01*
X749900Y611981D01*
Y614219D01*
X749321Y616381D01*
X748202Y618319D01*
X746619Y619902D01*
X744681Y621021D01*
X742519Y621600D01*
D02*
G37*
G36*
X888296Y602292D02*
X886704D01*
X885234Y601683D01*
X884109Y600558D01*
X883500Y599088D01*
Y598968D01*
X882266Y598406D01*
X880796Y599015D01*
X879204D01*
X877734Y598406D01*
X876609Y597281D01*
X876000Y595811D01*
Y594219D01*
X876609Y592749D01*
X877734Y591624D01*
X879204Y591015D01*
X880796D01*
X882266Y591624D01*
X883391Y592749D01*
X884000Y594219D01*
Y594339D01*
X885234Y594901D01*
X886704Y594292D01*
X888296D01*
X889766Y594901D01*
X890891Y596026D01*
X891500Y597496D01*
Y599088D01*
X890891Y600558D01*
X889766Y601683D01*
X888296Y602292D01*
D02*
G37*
G36*
X763296Y609587D02*
X761704D01*
X760234Y608978D01*
X759109Y607853D01*
X758735Y606949D01*
X757482Y606093D01*
X755891D01*
X754420Y605484D01*
X753295Y604359D01*
X752686Y602889D01*
Y601297D01*
X753295Y599827D01*
X754420Y598702D01*
X755891Y598093D01*
X757482D01*
X758952Y598702D01*
X760077Y599827D01*
X760452Y600731D01*
X761704Y601587D01*
X763296D01*
X764766Y602196D01*
X765891Y603321D01*
X766500Y604791D01*
Y606382D01*
X765891Y607853D01*
X764766Y608978D01*
X763296Y609587D01*
D02*
G37*
G36*
X943450Y611785D02*
X923450D01*
X920892Y611448D01*
X918508Y610460D01*
X916461Y608889D01*
X914890Y606842D01*
X913902Y604458D01*
X913566Y601900D01*
X913902Y599342D01*
X914890Y596958D01*
X916461Y594911D01*
X918508Y593340D01*
X920892Y592352D01*
X923450Y592015D01*
X943450D01*
X946008Y592352D01*
X948392Y593340D01*
X950439Y594911D01*
X952010Y596958D01*
X952998Y599342D01*
X953335Y601900D01*
X952998Y604458D01*
X952010Y606842D01*
X950439Y608889D01*
X948392Y610460D01*
X946008Y611448D01*
X943450Y611785D01*
D02*
G37*
G36*
X717119Y608900D02*
X714881D01*
X712719Y608321D01*
X710781Y607202D01*
X709198Y605619D01*
X708079Y603681D01*
X707500Y601519D01*
Y599281D01*
X708079Y597119D01*
X709198Y595181D01*
X710781Y593598D01*
X712719Y592479D01*
X714881Y591900D01*
X717119D01*
X719281Y592479D01*
X721219Y593598D01*
X722802Y595181D01*
X723921Y597119D01*
X724500Y599281D01*
Y601519D01*
X723921Y603681D01*
X722802Y605619D01*
X721219Y607202D01*
X719281Y608321D01*
X717119Y608900D01*
D02*
G37*
G36*
X742519Y596200D02*
X740281D01*
X738119Y595621D01*
X736181Y594502D01*
X734598Y592919D01*
X733479Y590981D01*
X732900Y588819D01*
Y586581D01*
X733479Y584419D01*
X734598Y582481D01*
X736181Y580898D01*
X738119Y579779D01*
X740281Y579200D01*
X742519D01*
X744681Y579779D01*
X746619Y580898D01*
X748202Y582481D01*
X749321Y584419D01*
X749900Y586581D01*
Y588819D01*
X749321Y590981D01*
X748202Y592919D01*
X746619Y594502D01*
X744681Y595621D01*
X742519Y596200D01*
D02*
G37*
G36*
X848858Y582530D02*
X847267D01*
X845797Y581921D01*
X844672Y580796D01*
X844063Y579326D01*
Y577734D01*
X844672Y576264D01*
X845797Y575139D01*
X847267Y574530D01*
X848858D01*
X850329Y575139D01*
X851454Y576264D01*
X852063Y577734D01*
Y579326D01*
X851454Y580796D01*
X850329Y581921D01*
X848858Y582530D01*
D02*
G37*
G36*
X828311Y581500D02*
X826719D01*
X825249Y580891D01*
X824124Y579766D01*
X823515Y578296D01*
Y576704D01*
X824124Y575234D01*
X825249Y574109D01*
X826719Y573500D01*
X828311D01*
X829781Y574109D01*
X830906Y575234D01*
X831515Y576704D01*
Y578296D01*
X830906Y579766D01*
X829781Y580891D01*
X828311Y581500D01*
D02*
G37*
G36*
X805796D02*
X804204D01*
X802734Y580891D01*
X801609Y579766D01*
X801000Y578296D01*
Y576704D01*
X801609Y575234D01*
X802734Y574109D01*
X804204Y573500D01*
X805796D01*
X807266Y574109D01*
X808391Y575234D01*
X809000Y576704D01*
Y578296D01*
X808391Y579766D01*
X807266Y580891D01*
X805796Y581500D01*
D02*
G37*
G36*
X859504Y579081D02*
X857912D01*
X856442Y578472D01*
X855317Y577347D01*
X854708Y575877D01*
Y574285D01*
X855317Y572815D01*
X856442Y571690D01*
X857912Y571081D01*
X859504D01*
X860974Y571690D01*
X862099Y572815D01*
X862708Y574285D01*
Y575877D01*
X862099Y577347D01*
X860974Y578472D01*
X859504Y579081D01*
D02*
G37*
G36*
X887765Y585788D02*
X886174D01*
X884704Y585179D01*
X883579Y584054D01*
X882970Y582584D01*
Y580993D01*
X883579Y579522D01*
X884704Y578397D01*
X886174Y577788D01*
X887765D01*
X889236Y578397D01*
X890187Y579348D01*
X891104Y579351D01*
X891609Y579234D01*
X892593Y578250D01*
X891609Y577266D01*
X891000Y575796D01*
Y574204D01*
X891609Y572734D01*
X892734Y571609D01*
X894204Y571000D01*
X895796D01*
X897266Y571609D01*
X898391Y572734D01*
X899000Y574204D01*
Y575796D01*
X898391Y577266D01*
X897407Y578250D01*
X898391Y579234D01*
X899000Y580704D01*
Y582296D01*
X898391Y583766D01*
X897266Y584891D01*
X895796Y585500D01*
X894204D01*
X892734Y584891D01*
X891783Y583940D01*
X890866Y583937D01*
X890361Y584054D01*
X889236Y585179D01*
X887765Y585788D01*
D02*
G37*
G36*
X654248Y592750D02*
X650752D01*
X647322Y592068D01*
X644092Y590730D01*
X641185Y588787D01*
X638713Y586315D01*
X636770Y583408D01*
X635432Y580177D01*
X634750Y576748D01*
Y573252D01*
X635213Y570923D01*
X634043Y570297D01*
X632718Y571622D01*
X630632Y572826D01*
X628305Y573450D01*
X625895D01*
X623568Y572826D01*
X621482Y571622D01*
X619778Y569918D01*
X618574Y567832D01*
X617950Y565505D01*
Y563095D01*
X618574Y560768D01*
X619778Y558682D01*
X621482Y556978D01*
X623568Y555774D01*
X625895Y555150D01*
X628305D01*
X630632Y555774D01*
X632718Y556978D01*
X634422Y558682D01*
X635626Y560768D01*
X636250Y563095D01*
Y565085D01*
X637520Y565470D01*
X638713Y563685D01*
X641185Y561213D01*
X644092Y559270D01*
X647322Y557932D01*
X650752Y557250D01*
X654248D01*
X657678Y557932D01*
X660908Y559270D01*
X663815Y561213D01*
X666287Y563685D01*
X668230Y566592D01*
X669568Y569823D01*
X670250Y573252D01*
Y576748D01*
X669568Y580177D01*
X668230Y583408D01*
X666287Y586315D01*
X663815Y588787D01*
X660908Y590730D01*
X657678Y592068D01*
X654248Y592750D01*
D02*
G37*
G36*
X724500Y583500D02*
X707500D01*
Y566500D01*
X724500D01*
Y583500D01*
D02*
G37*
G36*
X770796Y574000D02*
X769204D01*
X767734Y573391D01*
X766609Y572266D01*
X766000Y570796D01*
Y569204D01*
X766609Y567734D01*
X767734Y566609D01*
X769204Y566000D01*
X770796D01*
X772266Y566609D01*
X773391Y567734D01*
X774000Y569204D01*
Y570796D01*
X773391Y572266D01*
X772266Y573391D01*
X770796Y574000D01*
D02*
G37*
G36*
X852199Y571500D02*
X850608D01*
X849138Y570891D01*
X848013Y569766D01*
X847404Y568296D01*
Y566704D01*
X848013Y565234D01*
X849138Y564109D01*
X850608Y563500D01*
X852199D01*
X853669Y564109D01*
X854795Y565234D01*
X855404Y566704D01*
Y568296D01*
X854795Y569766D01*
X853669Y570891D01*
X852199Y571500D01*
D02*
G37*
G36*
X885796Y569000D02*
X884204D01*
X882734Y568391D01*
X881609Y567266D01*
X881000Y565796D01*
Y564204D01*
X881609Y562734D01*
X882734Y561609D01*
X884204Y561000D01*
X885796D01*
X887266Y561609D01*
X888391Y562734D01*
X889000Y564204D01*
Y565796D01*
X888391Y567266D01*
X887266Y568391D01*
X885796Y569000D01*
D02*
G37*
G36*
X869270Y564000D02*
X867679D01*
X866209Y563391D01*
X865084Y562266D01*
X864475Y560796D01*
Y559204D01*
X865084Y557734D01*
X866209Y556609D01*
X867679Y556000D01*
X869270D01*
X870741Y556609D01*
X871866Y557734D01*
X872475Y559204D01*
Y560796D01*
X871866Y562266D01*
X870741Y563391D01*
X869270Y564000D01*
D02*
G37*
G36*
X608005Y573450D02*
X605595D01*
X603268Y572826D01*
X601182Y571622D01*
X599478Y569918D01*
X598274Y567832D01*
X597650Y565505D01*
Y563095D01*
X598274Y560768D01*
X599478Y558682D01*
X601182Y556978D01*
X603268Y555774D01*
X605595Y555150D01*
X608005D01*
X610332Y555774D01*
X612418Y556978D01*
X614122Y558682D01*
X615326Y560768D01*
X615950Y563095D01*
Y565505D01*
X615326Y567832D01*
X614122Y569918D01*
X612418Y571622D01*
X610332Y572826D01*
X608005Y573450D01*
D02*
G37*
G36*
X743296Y556500D02*
X741704D01*
X740234Y555891D01*
X739109Y554766D01*
X738500Y553296D01*
Y551704D01*
X739109Y550234D01*
X740234Y549109D01*
X741704Y548500D01*
X743296D01*
X744766Y549109D01*
X745891Y550234D01*
X746500Y551704D01*
Y553296D01*
X745891Y554766D01*
X744766Y555891D01*
X743296Y556500D01*
D02*
G37*
G36*
X733296D02*
X731704D01*
X730234Y555891D01*
X729109Y554766D01*
X728500Y553296D01*
Y551704D01*
X729109Y550234D01*
X730234Y549109D01*
X731704Y548500D01*
X733296D01*
X734766Y549109D01*
X735891Y550234D01*
X736500Y551704D01*
Y553296D01*
X735891Y554766D01*
X734766Y555891D01*
X733296Y556500D01*
D02*
G37*
G36*
X684777Y568150D02*
X681223D01*
X677789Y567230D01*
X674711Y565453D01*
X672197Y562939D01*
X670420Y559861D01*
X669500Y556427D01*
Y552873D01*
X670420Y549439D01*
X672197Y546361D01*
X674711Y543847D01*
X677789Y542070D01*
X681223Y541150D01*
X684777D01*
X688211Y542070D01*
X691289Y543847D01*
X693803Y546361D01*
X695580Y549439D01*
X696500Y552873D01*
Y556427D01*
X695580Y559861D01*
X693803Y562939D01*
X691289Y565453D01*
X688211Y567230D01*
X684777Y568150D01*
D02*
G37*
G36*
X868296Y549000D02*
X866704D01*
X865234Y548391D01*
X864109Y547266D01*
X863500Y545796D01*
Y544204D01*
X864109Y542734D01*
X865234Y541609D01*
X866704Y541000D01*
X868296D01*
X869766Y541609D01*
X870891Y542734D01*
X871500Y544204D01*
Y545796D01*
X870891Y547266D01*
X869766Y548391D01*
X868296Y549000D01*
D02*
G37*
G36*
X713296Y554000D02*
X711704D01*
X710234Y553391D01*
X709109Y552266D01*
X708500Y550796D01*
Y549204D01*
X709109Y547734D01*
X710234Y546609D01*
X711704Y546000D01*
X713296D01*
X714766Y546609D01*
X715101Y546944D01*
X716178Y546225D01*
X716000Y545796D01*
Y544204D01*
X716609Y542734D01*
X717734Y541609D01*
X719204Y541000D01*
X720796D01*
X722266Y541609D01*
X723391Y542734D01*
X724000Y544204D01*
Y545796D01*
X723391Y547266D01*
X722266Y548391D01*
X720796Y549000D01*
X719204D01*
X717734Y548391D01*
X717399Y548056D01*
X716322Y548775D01*
X716500Y549204D01*
Y550796D01*
X715891Y552266D01*
X714766Y553391D01*
X713296Y554000D01*
D02*
G37*
G36*
X814806Y548530D02*
X813215D01*
X811745Y547921D01*
X810619Y546796D01*
X810010Y545326D01*
Y543734D01*
X810619Y542264D01*
X811745Y541139D01*
X813215Y540530D01*
X814806D01*
X816276Y541139D01*
X817401Y542264D01*
X818010Y543734D01*
Y545326D01*
X817401Y546796D01*
X816276Y547921D01*
X814806Y548530D01*
D02*
G37*
G36*
X838296Y539000D02*
X836704D01*
X835234Y538391D01*
X834109Y537266D01*
X833500Y535796D01*
Y534204D01*
X834109Y532734D01*
X835234Y531609D01*
X836704Y531000D01*
X838296D01*
X839766Y531609D01*
X840891Y532734D01*
X841500Y534204D01*
Y535796D01*
X840891Y537266D01*
X839766Y538391D01*
X838296Y539000D01*
D02*
G37*
G36*
X798296D02*
X796704D01*
X795234Y538391D01*
X794109Y537266D01*
X793500Y535796D01*
Y534204D01*
X794109Y532734D01*
X795234Y531609D01*
X796704Y531000D01*
X798296D01*
X799766Y531609D01*
X800891Y532734D01*
X801500Y534204D01*
Y535796D01*
X800891Y537266D01*
X799766Y538391D01*
X798296Y539000D01*
D02*
G37*
%LPD*%
D41*
X933450Y601900D02*
D03*
Y718900D02*
D03*
D42*
Y637900D02*
D03*
Y682900D02*
D03*
D43*
X652500Y689300D02*
D03*
Y575000D02*
D03*
D44*
X683000Y709650D02*
D03*
Y554650D02*
D03*
D45*
X606800Y564300D02*
D03*
X627100D02*
D03*
X606800Y700000D02*
D03*
X627100D02*
D03*
D46*
X741400Y689300D02*
D03*
X716000Y676600D02*
D03*
X741400Y663900D02*
D03*
X716000Y651200D02*
D03*
X741400Y638500D02*
D03*
X716000Y625800D02*
D03*
X741400Y613100D02*
D03*
X716000Y600400D02*
D03*
X741400Y587700D02*
D03*
D47*
X716000Y575000D02*
D03*
D48*
X866734Y713266D02*
D03*
X860000Y720000D02*
D03*
X850000Y730000D02*
D03*
X851500Y720000D02*
D03*
X840738D02*
D03*
X660000Y760000D02*
D03*
X675859Y752209D02*
D03*
X679585Y763680D02*
D03*
X702117Y754617D02*
D03*
X665583Y775000D02*
D03*
X680000D02*
D03*
X880000Y595015D02*
D03*
X887500Y598292D02*
D03*
X886970Y581788D02*
D03*
X895000Y581500D02*
D03*
X888500Y575471D02*
D03*
X885000Y565000D02*
D03*
X895000Y575000D02*
D03*
X902917Y600373D02*
D03*
X855446Y695362D02*
D03*
X860000Y700000D02*
D03*
X818967Y608421D02*
D03*
X825432Y607755D02*
D03*
X952500Y570000D02*
D03*
X945000Y555000D02*
D03*
X952500Y540000D02*
D03*
X937500Y570000D02*
D03*
X765000Y555000D02*
D03*
X660000D02*
D03*
X645000Y765000D02*
D03*
X652500Y750000D02*
D03*
X645000Y735000D02*
D03*
X652500Y720000D02*
D03*
Y600000D02*
D03*
X645000Y555000D02*
D03*
X630000Y765000D02*
D03*
X637500Y720000D02*
D03*
X630000Y675000D02*
D03*
Y645000D02*
D03*
X637500Y600000D02*
D03*
X630000Y585000D02*
D03*
X622500Y660000D02*
D03*
X615000Y645000D02*
D03*
X622500Y600000D02*
D03*
X600000Y675000D02*
D03*
X607500Y660000D02*
D03*
X600000Y645000D02*
D03*
X607500Y600000D02*
D03*
X600000Y585000D02*
D03*
X585000Y705000D02*
D03*
X592500Y690000D02*
D03*
X585000Y675000D02*
D03*
X592500Y660000D02*
D03*
X585000Y645000D02*
D03*
X592500Y630000D02*
D03*
X585000Y615000D02*
D03*
X592500Y570000D02*
D03*
X585000Y555000D02*
D03*
X570000Y705000D02*
D03*
X577500Y690000D02*
D03*
X570000Y675000D02*
D03*
X577500Y660000D02*
D03*
X570000Y645000D02*
D03*
X577500Y630000D02*
D03*
X570000Y555000D02*
D03*
X555000Y705000D02*
D03*
X562500Y690000D02*
D03*
X555000Y645000D02*
D03*
X562500Y630000D02*
D03*
X555000Y555000D02*
D03*
X540000Y705000D02*
D03*
X547500Y690000D02*
D03*
Y630000D02*
D03*
X540000Y555000D02*
D03*
X525000Y705000D02*
D03*
X532500Y690000D02*
D03*
Y630000D02*
D03*
X525000Y555000D02*
D03*
X517500Y630000D02*
D03*
X510000Y555000D02*
D03*
X502500Y630000D02*
D03*
X487500D02*
D03*
X472500D02*
D03*
X457500Y690000D02*
D03*
Y630000D02*
D03*
X442500Y690000D02*
D03*
Y630000D02*
D03*
X427500D02*
D03*
X405000Y705000D02*
D03*
X412500Y690000D02*
D03*
X390000Y705000D02*
D03*
X397500Y690000D02*
D03*
X884184Y662506D02*
D03*
X881500Y672500D02*
D03*
X912262Y612400D02*
D03*
X732500Y552500D02*
D03*
X894208Y710000D02*
D03*
X897500Y722500D02*
D03*
X775000Y702500D02*
D03*
X858708Y575081D02*
D03*
X875724Y649791D02*
D03*
X882500Y652444D02*
D03*
X863960Y623182D02*
D03*
X872500Y607500D02*
D03*
X865445Y606852D02*
D03*
X851404Y567500D02*
D03*
X770000Y570000D02*
D03*
X777500Y577500D02*
D03*
X695280Y620547D02*
D03*
X720000Y545000D02*
D03*
X712500Y550000D02*
D03*
X742500Y552500D02*
D03*
X762500Y605587D02*
D03*
X756686Y602093D02*
D03*
X877209Y625629D02*
D03*
Y635000D02*
D03*
X867500Y545000D02*
D03*
X860000Y550000D02*
D03*
X814010Y544530D02*
D03*
X837500Y535000D02*
D03*
X827515Y577500D02*
D03*
X817485Y579247D02*
D03*
X805000Y577500D02*
D03*
X770000Y617500D02*
D03*
X765489Y655489D02*
D03*
X759308Y657500D02*
D03*
X757500Y635000D02*
D03*
X763999Y634900D02*
D03*
X760000Y651000D02*
D03*
X687500Y677500D02*
D03*
X692500Y665000D02*
D03*
X702500Y667500D02*
D03*
X682500Y665000D02*
D03*
X847500Y600000D02*
D03*
X868475Y560000D02*
D03*
X911251Y720475D02*
D03*
X920000Y585000D02*
D03*
X797500Y535000D02*
D03*
X882500Y552500D02*
D03*
X819377Y595207D02*
D03*
X812000Y570000D02*
D03*
X848063Y578530D02*
D03*
X767531Y584889D02*
D03*
X770000Y562500D02*
D03*
X705000Y727500D02*
D03*
X670000D02*
D03*
X660000D02*
D03*
Y782500D02*
D03*
X702500Y775000D02*
D03*
X680000Y782500D02*
D03*
X863949Y738551D02*
D03*
X842500Y732500D02*
D03*
X930000Y750000D02*
D03*
X830623Y765499D02*
D03*
X832500Y700000D02*
D03*
X760000Y726970D02*
D03*
X720000Y740000D02*
D03*
X735000Y735000D02*
D03*
X795000Y766982D02*
D03*
X760000Y717500D02*
D03*
X914829Y727674D02*
D03*
X612728Y678123D02*
D03*
X597239Y625000D02*
D03*
X682500Y587500D02*
D03*
X896630Y550870D02*
D03*
X840818Y771170D02*
D03*
Y760170D02*
D03*
X927682Y760330D02*
D03*
X927680Y770000D02*
D03*
X877500Y680000D02*
D03*
X875000Y672500D02*
D03*
X792500Y700000D02*
D03*
X800000Y722500D02*
D03*
X782500Y685000D02*
D03*
X866327Y661470D02*
D03*
X881176Y643429D02*
D03*
X768320Y673009D02*
D03*
X764456Y678235D02*
D03*
X800842Y705842D02*
D03*
X817500Y715000D02*
D03*
X813022Y698698D02*
D03*
X807680Y711488D02*
D03*
X826960Y625366D02*
D03*
X905000Y740000D02*
D03*
X935000Y732500D02*
D03*
D49*
X865000Y790000D02*
D03*
Y777500D02*
D03*
X952500Y790000D02*
D03*
Y777500D02*
D03*
X807500Y755000D02*
D03*
X795000D02*
D03*
X807500Y742500D02*
D03*
X795000D02*
D03*
X877500Y722500D02*
D03*
X782500Y770000D02*
D03*
Y760000D02*
D03*
Y750000D02*
D03*
Y740000D02*
D03*
X762500Y770000D02*
D03*
Y760000D02*
D03*
Y750000D02*
D03*
Y740000D02*
D03*
X772500Y770000D02*
D03*
Y760000D02*
D03*
Y750000D02*
D03*
Y740000D02*
D03*
X828949Y668354D02*
D03*
Y658353D02*
D03*
X838949Y668354D02*
D03*
X798949D02*
D03*
Y658353D02*
D03*
Y638353D02*
D03*
Y648353D02*
D03*
X808949Y658353D02*
D03*
Y638353D02*
D03*
Y648353D02*
D03*
X887500Y722500D02*
D03*
X828949Y638353D02*
D03*
X818949D02*
D03*
X865000Y765000D02*
D03*
Y752500D02*
D03*
X952500D02*
D03*
Y765000D02*
D03*
X828949Y648353D02*
D03*
X838949Y638353D02*
D03*
X818949Y648353D02*
D03*
Y668354D02*
D03*
X838949Y648353D02*
D03*
X808949Y668354D02*
D03*
X838949Y658353D02*
D03*
X818949D02*
D03*
D57*
X801332Y608500D02*
D03*
X807143Y607230D02*
D03*
X812998Y607808D02*
D03*
X866484Y630000D02*
D03*
X773690Y635400D02*
D03*
X776109Y648750D02*
D03*
X862425Y644744D02*
D03*
X776077Y664770D02*
D03*
X840012Y679220D02*
D03*
X868208Y644292D02*
D03*
X811009Y679885D02*
D03*
D58*
X923500Y630250D02*
D03*
Y650375D02*
D03*
Y663792D02*
D03*
Y657083D02*
D03*
Y643667D02*
D03*
X932000Y650000D02*
D03*
Y669250D02*
D03*
X923500Y670500D02*
D03*
X932000Y656417D02*
D03*
Y662833D02*
D03*
D59*
X930750Y698500D02*
D03*
Y705250D02*
D03*
X923750D02*
D03*
Y698500D02*
D03*
Y692250D02*
D03*
M02*
