M48
;Layer_Color=9474304
;FILE_FORMAT=4:4
METRIC,LZ
;TYPE=PLATED
T01F00S00C0.3000
T02F00S00C0.9000
T04F00S00C1.0200
T05F00S00C1.6000
;TYPE=NON_PLATED
T06F00S00C1.2500
T07F00S00C3.2500
%
T01
X007975Y00535
X0081401Y0054453
X00812Y0057
X00805Y005775
X00817485Y00579247
X00827515Y005775
X00848063Y0057853
X00858708Y00575081
X00851404Y005675
X00868475Y0056
X008675Y00545
X0086Y0055
X008825Y005525
X00885Y00565
X008885Y00575471
X00895Y00575
Y005815
X0088697Y00581788
X008875Y00598292
X0088Y00595015
X008725Y006075
X00865445Y00606852
X0086396Y00623182
X00866484Y0063
X00877209Y00625629
Y00635
X00881176Y00643429
X008825Y00652444
X00875724Y00649791
X00868208Y00644292
X00862425Y00644744
X00866327Y0066147
X00884184Y00662506
X008815Y006725
X00875
X008775Y0068
X00855446Y00695362
X0086Y007
X00866734Y00713266
X0086Y0072
X008515
X00840738
X008425Y007325
X0085Y0073
X00863949Y00738551
X00865Y007525
Y00765
Y007775
Y0079
X00840818Y0077117
Y0076017
X00830623Y00765499
X008075Y00755
X00795
Y00766982
Y007425
X008075
X008Y007225
X00800842Y00705842
X0080768Y00711488
X008175Y00715
X00813022Y00698698
X008325Y007
X00840012Y0067922
X00838949Y00668354
X00828949
Y00658353
Y00648353
Y00638353
X00818949
X00808949
X00798949
Y00648353
Y00658353
Y00668354
X00808949
X00818949
Y00658353
X00808949
Y00648353
X00818949
X00838949
Y00638353
Y00658353
X0082696Y00625366
X00825432Y00607755
X00818967Y00608421
X00812998Y00607808
X00807143Y0060723
X00801332Y006085
X00819377Y00595207
X008475Y006
X00902917Y00600373
X00912262Y006124
X009235Y0063025
Y00643667
Y00650375
Y00657083
Y00663792
Y006705
X00932Y0066925
Y00662833
Y00656417
Y0065
X0093075Y006985
Y0070525
X0092375
Y006985
Y0069225
X00911251Y00720475
X00914829Y00727674
X00905Y0074
X008975Y007225
X008875
X008775
X00894208Y0071
X00935Y007325
X0093Y0075
X00927682Y0076033
X0092768Y0077
X009525Y00765
Y007775
Y0079
Y007525
X009525Y0057
X009375
X00945Y00555
X009525Y0054
X0089663Y0055087
X0092Y00585
X008375Y00535
X00811009Y00679885
X007825Y00685
X00764456Y00678235
X0076832Y00673009
X00776077Y0066477
X00776109Y0064875
X0077369Y006354
X00763999Y006349
X007575Y00635
X0076Y00651
X00759308Y006575
X00765489Y00655489
X0077Y006175
X007625Y00605587
X00756686Y00602093
X00767531Y00584889
X007775Y005775
X0077Y0057
Y005625
X00765Y00555
X007425Y005525
X007325
X0072Y00545
X007125Y0055
X0066Y00555
X00645
X0063Y00585
X006375Y006
X006525
X006225
X006075
X006Y00585
X005925Y0057
X00585Y00555
X0057
X00555
X0054
X00525
X0051
X005175Y0063
X005325
X005475
X005625
X005775
X005925
X00597239Y00625
X00585Y00615
Y00645
X006
X00615
X0063
X006225Y0066
X006075
X005925
X005775
X0057Y00675
X00585
X006
X00612728Y00678123
X0063Y00675
X006375Y0072
X006525
X0066Y007275
X0067
X00675859Y00752209
X00679585Y0076368
X0068Y00775
Y007825
X0066
X00665583Y00775
X0066Y0076
X006525Y0075
X00645Y00765
X0063
X00645Y00735
X00705Y007275
X0072Y0074
X00735Y00735
X007625Y0074
Y0075
Y0076
Y0077
X007725
X007825
Y0076
Y0075
Y0074
X007725
Y0075
Y0076
X0076Y0072697
Y007175
X00775Y007025
X007925Y007
X007025Y006675
X006925Y00665
X006825
X006875Y006775
X0069528Y00620547
X006825Y005875
X0057Y00645
X00555
X005625Y0069
X005775
X005925
X00585Y00705
X0057
X00555
X0054
X00525
X005325Y0069
X005475
X004575
X004425
X004125
X003975
X00405Y00705
X004275Y0063
X004425
X004575
X004725
X004875
X005025
X00702117Y00754617
X007025Y00775
X0039Y00705
T02
X00716Y00575
Y006004
Y006258
Y006512
Y006766
X007414Y006893
Y006639
Y006385
Y006131
Y005877
T04
X006068Y005643
X006271
Y007
X006068
T05
X00683Y0055465
Y0070965
T06
X0093345Y006379
Y006829
T07
X006525Y00575
Y006893
M30
