M48
;Layer_Color=9474304
;FILE_FORMAT=4:4
METRIC,LZ
;TYPE=PLATED
T01F00S00C0.2000
T02F00S00C0.3000
T04F00S00C0.9000
T05F00S00C1.0000
T06F00S00C1.0200
T07F00S00C1.5900
T08F00S00C1.6000
;TYPE=NON_PLATED
T09F00S00C3.2000
T10F00S00C3.2500
%
T01
X01193884Y00631387
X01195Y0068
Y0072
X01175Y0074
X0114
X01121
X01104
X0108Y00745
X00993Y00761
X0095Y0074
X00923Y00748
X00915Y00761
X00898Y00748
X00889692Y0075625
X00889442Y00772
X00879Y00773
X00888442Y00787
X00841Y00784
X008325Y0079
X00815558Y0077075
Y00753
X00816658Y007385
X00816558Y00723
X00811558Y00714
X00807Y00694
X00806Y00686
X008Y00691
X0084Y00695
X00840558Y00716
X00865Y00738
X00869Y00754
X00863Y00684
X00891Y00692
X00902Y00702
X00912Y00712
X00929Y00674
X0094Y00684
X00952Y00694
Y0063
X009475Y00619
X00948Y00605
X009375Y005775
X00937Y00567
X00938Y00545
X009125Y005575
X00912Y00576
X00912Y00625
X00893Y00644
X00887Y00671
X00934Y00648
X00963Y00641
X00973Y00651
X01016Y0063
X01007Y00617
X00998Y00606
X00988Y00594
X01002Y00578
X01Y005575
X00972Y00557
X00973772Y005475
X00971Y00528
X00977Y00517
X0098Y004925
Y0048
X0096Y00505
X0094Y005
X00935Y0049
X0091Y0048
X00905Y005
X0091Y00518
X0086Y00535
X00848Y00543
X0083Y005225
X00825Y005175
Y005275
X008455Y00497
X00807Y00445
X00794Y00432
X008Y0041
X0091
X010075Y005025
X01025Y00505
X01028Y00518
X01041Y00512
Y00498
Y00526
Y0054
X01037Y00559
X01045
X01035Y00568
X01052Y00588
X01051Y00611
Y0063
X01079
X01078Y00611
X01079Y00588
X01096
X010925Y005795
Y005739
X01117Y00567
X0112525Y0059075
X01131992Y0059025
X01131992Y00584614
X0113925Y0058
X01152Y00579
X01169Y00583
X01173Y005777
X01172677Y00571773
X0117675Y0058765
Y0059325
X01177Y00604
X01174Y00613
X0116775Y006125
X01168Y00623
X01169Y00641
X0117Y00648
X01154Y0064
X01139Y00642
X0113325Y0063645
Y0062975
X01139Y00625
X01139579Y00616546
X01138Y00606
X01138Y00595
X01169Y00598
X0119012Y00627241
X01122Y00625
X01115Y00619
X01117257Y00611875
X01112Y00607
X01107Y00601
X01101Y00632
X01118Y00641
X01145Y00527
X01134Y00513
X0117Y00517
Y00505
X01185Y00525
Y00535
Y00545
Y0048
X01125
X01085Y0046
X0105Y00475
X00999Y00527
X00978Y00568
X00963Y00576
X00865Y00587
X0083Y00613
X00814649Y00613
X00799649
X00795Y00765
X00795Y0078
X00768Y00786
X00759
X00750558Y00787
X00740558Y00786
X00730558Y00787
X00720558Y00786
X00708558Y007815
X00700558Y007735
X00685Y0077
X006675Y0079
X00645Y0077
X00595
X0060879Y0075321
X0061275Y0074925
X00618Y00726
X00619Y00697
X00595Y00709
X0058875
X00575Y00694
X0057Y0067
X00532Y00674
X00528Y00693
X00552Y00707
X0055Y0073
Y00745
X0058
X00701558Y00749
X00700558Y00732
X00704591Y00708644
X00678Y00679
X00684558Y0067
X00692Y00659
X00693Y00626
X0071Y00627
X00723442Y00626
X00754942Y006275
X00761Y00673
X0077
X0078Y00671
X00792558Y00646
X00793Y00581
Y00551
X007775Y004975
X0076Y00485
X00749Y00484
X00748Y00462
X00761
X00772Y0046
X00793Y00461
X00772Y0043
X00735Y0041
X00734Y00452
X00719Y00484
X007125Y004975
X00688Y00482
X00686Y00513
X007025Y00535
X007175
Y00545
X0073Y0058
X00735Y00575
X007Y00595
X00705Y006075
X00673Y00599
X00654Y006
X00656Y0059
X00653Y0058
X00654Y0055
X00625
X006225Y005225
Y004975
X005925Y004925
X0058Y00486
X00585Y0048
X0058Y005
X00545Y00485
X00594Y00545
Y0059
Y00623
X00619Y00609
Y00641
X00659Y00499
X00668Y00466
X00655Y00422
X00656Y00413
X00637Y00413
X00675
X00675Y008
X00645Y0081
X00595
X00864442Y00802
X01008Y00794
T02
X01199Y00499
Y0052
Y00551
X01145Y0054
Y0049
X01165
X01103Y00504
Y00529
X01034Y00578
X01Y00568
X00963Y00548
X00936Y00527
X00911
X00889Y00538
X00873Y00543
X0087Y00535
X00857Y00543
X00859Y00562
X00871Y00581
X00891Y00585
X00857Y00514
X00855Y00497
X00871
X00846558Y00649
Y00664
X00839558Y00657
Y00673
Y00684
Y00709
X00840308Y00723
X00841408Y00739
X00840558Y0075425
X00841558Y0077175
X00864808Y0071675
X00863558Y00702
X00973Y00712
X00982Y00703
X00983Y00688
X00973Y00678
X00983Y00667
X01004Y00666
X00998Y00658
X01015
X01007502Y0069417
X00999502Y0070017
X01007002Y0070767
X01031502Y0070017
X01057002Y0072017
X01082Y00716
X01082002Y0072567
X01082002Y0070017
Y0068317
Y0067217
X01083Y00655
X01059502Y0067767
X01112002Y0067267
X01124502
Y0068517
X01122002Y0069517
X01102002
X01112002Y0071517
X01124502
Y0072767
X01042502Y0073817
X01019502Y0075517
X01009502Y0074517
X00992502Y0073817
X00981Y00723
X00963Y00765
X00953
Y00775
Y00785
X00963
Y00775
X00943
Y00785
Y00765
X01008Y00775
X00782558Y00749
Y00736
Y00722
Y00709
X00767558
X00767558Y00722
Y00736
Y00749
X00752558
Y00736
Y00722
Y00709
X00737558
Y00722
Y00736
Y00749
X00714Y00757
X007225Y007675
X00676Y00749
X00676Y00733
X00675558Y00709
X00675Y0069
X006625
X006475Y00685
Y0066
Y006375
Y006175
X00653058Y007085
X00648808Y0073225
X00719558Y00686
X00725558Y0067925
X00714808Y0066775
X00762558Y00646
X00772558
X00782558
X00780558Y00803
X0077Y008125
X0076
X0075
X0074
X0073
X0072
X007Y008
X006875
X00900442Y00814
X00943Y00795
X00953
X00963
X00992442Y00799
X01015Y0081
T04
X005246Y005529
Y005783
Y006037
Y006291
Y006545
X0055Y006672
Y006418
Y006164
Y00591
Y005656
T05
X00608Y00452
Y004774
Y005028
Y005282
Y005536
T06
X004154Y005422
X004357
Y006779
X004154
T07
X008196Y004196
Y004704
X008704
Y004196
X00845Y00445
X009446Y004704
X009954
Y004196
X009446
X0097Y00445
T08
X004916Y0053255
Y0068755
T09
X0105Y00435
Y00785
X0055
Y00435
T10
X004611Y005529
Y006672
M30
