G04*
G04 #@! TF.GenerationSoftware,Altium Limited,Altium Designer,24.4.1 (13)*
G04*
G04 Layer_Color=8421504*
%FSLAX44Y44*%
%MOMM*%
G71*
G04*
G04 #@! TF.SameCoordinates,F44D32EE-D624-4937-AF30-22848A2776C4*
G04*
G04*
G04 #@! TF.FilePolarity,Positive*
G04*
G01*
G75*
%ADD15R,1.7500X1.5000*%
%ADD16R,1.7500X1.5000*%
%ADD17R,0.6000X0.6400*%
%ADD18R,1.8500X0.6500*%
%ADD19R,0.9000X0.8000*%
%ADD20R,1.3000X1.8000*%
%ADD21R,0.5000X0.6000*%
G04:AMPARAMS|DCode=22|XSize=1.05mm|YSize=0.45mm|CornerRadius=0.225mm|HoleSize=0mm|Usage=FLASHONLY|Rotation=180.000|XOffset=0mm|YOffset=0mm|HoleType=Round|Shape=RoundedRectangle|*
%AMROUNDEDRECTD22*
21,1,1.0500,0.0000,0,0,180.0*
21,1,0.6000,0.4500,0,0,180.0*
1,1,0.4500,-0.3000,0.0000*
1,1,0.4500,0.3000,0.0000*
1,1,0.4500,0.3000,0.0000*
1,1,0.4500,-0.3000,0.0000*
%
%ADD22ROUNDEDRECTD22*%
%ADD23R,3.5000X4.1000*%
%ADD24R,0.6000X0.5000*%
%ADD25R,0.3000X0.8000*%
%ADD26R,1.8000X0.8000*%
%ADD27R,0.3500X0.6500*%
%ADD28R,0.6400X0.6000*%
%ADD29R,0.8000X0.9000*%
%ADD30R,0.9000X0.8000*%
%ADD31R,0.7000X1.8000*%
%ADD32R,0.8000X1.8000*%
%ADD33R,0.6000X1.1500*%
%ADD34R,1.1500X0.6000*%
%ADD35R,0.9144X0.2032*%
%ADD36R,0.9144X0.2540*%
%ADD37R,1.1000X0.2000*%
%ADD38O,0.7000X0.4000*%
%ADD39R,1.6500X2.4000*%
%ADD40O,0.9000X0.4000*%
%ADD41R,0.7000X0.3000*%
%ADD42R,0.7000X1.0000*%
G04:AMPARAMS|DCode=43|XSize=0.2mm|YSize=1.1mm|CornerRadius=0.05mm|HoleSize=0mm|Usage=FLASHONLY|Rotation=90.000|XOffset=0mm|YOffset=0mm|HoleType=Round|Shape=RoundedRectangle|*
%AMROUNDEDRECTD43*
21,1,0.2000,1.0000,0,0,90.0*
21,1,0.1000,1.1000,0,0,90.0*
1,1,0.1000,0.5000,0.0500*
1,1,0.1000,0.5000,-0.0500*
1,1,0.1000,-0.5000,-0.0500*
1,1,0.1000,-0.5000,0.0500*
%
%ADD43ROUNDEDRECTD43*%
G04:AMPARAMS|DCode=44|XSize=0.2mm|YSize=1.1mm|CornerRadius=0.05mm|HoleSize=0mm|Usage=FLASHONLY|Rotation=0.000|XOffset=0mm|YOffset=0mm|HoleType=Round|Shape=RoundedRectangle|*
%AMROUNDEDRECTD44*
21,1,0.2000,1.0000,0,0,0.0*
21,1,0.1000,1.1000,0,0,0.0*
1,1,0.1000,0.0500,-0.5000*
1,1,0.1000,-0.0500,-0.5000*
1,1,0.1000,-0.0500,0.5000*
1,1,0.1000,0.0500,0.5000*
%
%ADD44ROUNDEDRECTD44*%
%ADD45R,0.2000X1.1000*%
%ADD46R,0.9000X1.0000*%
%ADD47R,1.2000X1.4000*%
%ADD48R,1.2000X1.7500*%
D15*
X790159Y739000D02*
D03*
Y719000D02*
D03*
D16*
X817659Y739000D02*
D03*
Y719000D02*
D03*
D17*
X610600Y797500D02*
D03*
X619400D02*
D03*
X610600Y810000D02*
D03*
X619400D02*
D03*
X905400Y767000D02*
D03*
X896600D02*
D03*
X677600Y620000D02*
D03*
X686400D02*
D03*
Y650000D02*
D03*
X677600D02*
D03*
X686400Y679000D02*
D03*
X677600D02*
D03*
X686400Y709000D02*
D03*
X677600D02*
D03*
X866400Y783000D02*
D03*
X857600D02*
D03*
X766900Y527500D02*
D03*
X758100D02*
D03*
Y512500D02*
D03*
X766900D02*
D03*
X1078600Y600000D02*
D03*
X1087400D02*
D03*
X1078600Y610000D02*
D03*
X1087400D02*
D03*
X867258Y738500D02*
D03*
X876058D02*
D03*
X867158Y709000D02*
D03*
X875958D02*
D03*
X878600Y445000D02*
D03*
X887400D02*
D03*
X758100Y497500D02*
D03*
X766900D02*
D03*
X732600Y678000D02*
D03*
X741400D02*
D03*
X734600Y690000D02*
D03*
X743400D02*
D03*
X761400Y678000D02*
D03*
X752600D02*
D03*
X891158Y717000D02*
D03*
X899958D02*
D03*
X729158Y733000D02*
D03*
X737958D02*
D03*
X729158Y708000D02*
D03*
X737958D02*
D03*
X875958Y673000D02*
D03*
X867158D02*
D03*
X729158Y749000D02*
D03*
X737958D02*
D03*
X875958Y754000D02*
D03*
X867158D02*
D03*
X875400Y771000D02*
D03*
X866600D02*
D03*
X867158Y723000D02*
D03*
X875958D02*
D03*
Y684000D02*
D03*
X867158D02*
D03*
D18*
X567500Y620500D02*
D03*
Y630400D02*
D03*
Y640320D02*
D03*
Y650220D02*
D03*
Y660140D02*
D03*
Y670040D02*
D03*
Y679960D02*
D03*
Y689860D02*
D03*
Y699780D02*
D03*
Y709680D02*
D03*
Y719600D02*
D03*
Y729500D02*
D03*
X660500D02*
D03*
Y719600D02*
D03*
Y709680D02*
D03*
Y699780D02*
D03*
Y689860D02*
D03*
Y679960D02*
D03*
Y670040D02*
D03*
Y660140D02*
D03*
Y650220D02*
D03*
Y640320D02*
D03*
Y630400D02*
D03*
Y620500D02*
D03*
D19*
X532500Y709000D02*
D03*
X549500D02*
D03*
X532500Y679000D02*
D03*
X549500D02*
D03*
X531500Y650000D02*
D03*
X548500D02*
D03*
X532500Y621000D02*
D03*
X549500D02*
D03*
D20*
X529500Y555000D02*
D03*
X500500D02*
D03*
X600500Y765000D02*
D03*
X629500D02*
D03*
X1199500Y535000D02*
D03*
X1170500D02*
D03*
D21*
X520000Y537000D02*
D03*
X510000D02*
D03*
X671000Y500000D02*
D03*
X661000D02*
D03*
X559000Y493000D02*
D03*
X549000D02*
D03*
X625000Y500000D02*
D03*
X615000D02*
D03*
X620000Y785000D02*
D03*
X610000D02*
D03*
X900558Y702000D02*
D03*
X890558D02*
D03*
X906000Y780000D02*
D03*
X896000D02*
D03*
X895942Y807000D02*
D03*
X905942D02*
D03*
X1122000Y618000D02*
D03*
X1132000D02*
D03*
Y600000D02*
D03*
X1122000D02*
D03*
X1042500Y740000D02*
D03*
X1032500D02*
D03*
X1032500Y727500D02*
D03*
X1042500D02*
D03*
X559000Y508000D02*
D03*
X549000D02*
D03*
X1185000Y510000D02*
D03*
X1195000D02*
D03*
X896250Y794250D02*
D03*
X906250D02*
D03*
X876558Y695000D02*
D03*
X866558D02*
D03*
X890558Y684000D02*
D03*
X900558D02*
D03*
X718000Y547000D02*
D03*
X728000D02*
D03*
X657000Y773500D02*
D03*
X667000D02*
D03*
X884000Y807000D02*
D03*
X874000D02*
D03*
X719000Y724000D02*
D03*
X709000D02*
D03*
X549000Y597000D02*
D03*
X559000D02*
D03*
D22*
X981000Y765950D02*
D03*
Y778650D02*
D03*
Y791350D02*
D03*
Y804050D02*
D03*
X924000D02*
D03*
Y791350D02*
D03*
Y778650D02*
D03*
Y765950D02*
D03*
D23*
X952500Y785000D02*
D03*
D24*
X1001000Y802000D02*
D03*
Y792000D02*
D03*
X776000Y625000D02*
D03*
Y635000D02*
D03*
X789000D02*
D03*
Y625000D02*
D03*
X1025000Y557500D02*
D03*
Y547500D02*
D03*
X1010000D02*
D03*
Y557500D02*
D03*
X1045000Y515000D02*
D03*
Y525000D02*
D03*
Y537500D02*
D03*
Y547500D02*
D03*
X597500Y524500D02*
D03*
Y514500D02*
D03*
X643443Y524482D02*
D03*
Y514483D02*
D03*
X779000Y657500D02*
D03*
Y667500D02*
D03*
X769000D02*
D03*
Y657500D02*
D03*
X1001000Y778000D02*
D03*
Y768000D02*
D03*
X800000Y625000D02*
D03*
Y635000D02*
D03*
X866500Y625000D02*
D03*
Y635000D02*
D03*
X851500D02*
D03*
Y625000D02*
D03*
X819000Y635000D02*
D03*
Y625000D02*
D03*
X584000Y540000D02*
D03*
Y550000D02*
D03*
X839000Y635000D02*
D03*
Y625000D02*
D03*
D25*
X612500Y548000D02*
D03*
X617500D02*
D03*
X622500D02*
D03*
X627500D02*
D03*
Y516000D02*
D03*
X622500D02*
D03*
X617500D02*
D03*
X612500D02*
D03*
X658443Y515983D02*
D03*
X663443D02*
D03*
X668443D02*
D03*
X673443D02*
D03*
Y547982D02*
D03*
X668443D02*
D03*
X663443D02*
D03*
X658443D02*
D03*
D26*
X795000Y465000D02*
D03*
Y476000D02*
D03*
Y487000D02*
D03*
Y498000D02*
D03*
Y509000D02*
D03*
Y520000D02*
D03*
Y531000D02*
D03*
Y561000D02*
D03*
Y572000D02*
D03*
Y583000D02*
D03*
Y594000D02*
D03*
Y605000D02*
D03*
X915000D02*
D03*
Y594000D02*
D03*
Y583000D02*
D03*
Y572000D02*
D03*
Y561000D02*
D03*
Y531000D02*
D03*
Y520000D02*
D03*
Y509000D02*
D03*
Y498000D02*
D03*
Y487000D02*
D03*
Y476000D02*
D03*
Y465000D02*
D03*
D27*
X983500Y547500D02*
D03*
X975000D02*
D03*
D28*
X995000Y556900D02*
D03*
Y548100D02*
D03*
X597500Y548900D02*
D03*
Y540100D02*
D03*
X643443Y548883D02*
D03*
Y540083D02*
D03*
X695000Y517500D02*
D03*
Y508700D02*
D03*
X703000Y575600D02*
D03*
Y584400D02*
D03*
X826558Y663400D02*
D03*
Y654600D02*
D03*
X836558Y654600D02*
D03*
Y663400D02*
D03*
X1127002Y730770D02*
D03*
Y739570D02*
D03*
X975000Y585600D02*
D03*
Y594400D02*
D03*
X744558Y781600D02*
D03*
Y790400D02*
D03*
X1127002Y695170D02*
D03*
Y686370D02*
D03*
X816558Y663400D02*
D03*
Y654600D02*
D03*
X814558Y793600D02*
D03*
Y802400D02*
D03*
X757500Y625600D02*
D03*
Y634400D02*
D03*
Y657500D02*
D03*
Y648700D02*
D03*
X732058Y790400D02*
D03*
Y781600D02*
D03*
X804558Y793600D02*
D03*
Y802400D02*
D03*
X719558Y790400D02*
D03*
Y781600D02*
D03*
X794558Y802400D02*
D03*
Y793600D02*
D03*
X774558D02*
D03*
Y802400D02*
D03*
X784558D02*
D03*
Y793600D02*
D03*
X764558Y802400D02*
D03*
Y793600D02*
D03*
X806558Y654600D02*
D03*
Y663400D02*
D03*
D29*
X995000Y533500D02*
D03*
Y516500D02*
D03*
D30*
X1030000Y525000D02*
D03*
X1010000Y515500D02*
D03*
Y534500D02*
D03*
D31*
X811000Y582500D02*
D03*
X899000D02*
D03*
Y487500D02*
D03*
X811000D02*
D03*
D32*
X822000Y582500D02*
D03*
X833000D02*
D03*
X844000D02*
D03*
X855000D02*
D03*
X866000D02*
D03*
X877000D02*
D03*
X888000D02*
D03*
Y487500D02*
D03*
X877000D02*
D03*
X866000D02*
D03*
X855000D02*
D03*
X844000D02*
D03*
X833000D02*
D03*
X822000D02*
D03*
D33*
X670500Y567000D02*
D03*
X680000D02*
D03*
X689500D02*
D03*
Y593000D02*
D03*
X680000D02*
D03*
X670500D02*
D03*
D34*
X735500Y508000D02*
D03*
Y517500D02*
D03*
Y527000D02*
D03*
X709500D02*
D03*
Y517500D02*
D03*
Y508000D02*
D03*
D35*
X1065080Y585000D02*
D03*
Y605000D02*
D03*
Y625000D02*
D03*
D36*
X1054920Y581444D02*
D03*
Y588556D02*
D03*
Y601444D02*
D03*
Y608556D02*
D03*
Y621444D02*
D03*
Y628556D02*
D03*
D37*
X768409Y705000D02*
D03*
Y709000D02*
D03*
Y753000D02*
D03*
Y749000D02*
D03*
Y745000D02*
D03*
Y741000D02*
D03*
Y737000D02*
D03*
Y733000D02*
D03*
Y729000D02*
D03*
Y725000D02*
D03*
Y721000D02*
D03*
Y717000D02*
D03*
Y713000D02*
D03*
X839409Y705000D02*
D03*
Y709000D02*
D03*
Y713000D02*
D03*
Y717000D02*
D03*
Y721000D02*
D03*
Y725000D02*
D03*
Y729000D02*
D03*
Y733000D02*
D03*
Y737000D02*
D03*
Y741000D02*
D03*
Y745000D02*
D03*
Y749000D02*
D03*
Y753000D02*
D03*
D38*
X1082752Y668170D02*
D03*
Y677670D02*
D03*
Y687170D02*
D03*
X1111252Y668170D02*
D03*
Y687170D02*
D03*
Y677670D02*
D03*
D39*
X1097002D02*
D03*
X1097002Y720170D02*
D03*
D40*
X1081752Y710670D02*
D03*
Y720170D02*
D03*
Y729670D02*
D03*
X1112252Y710670D02*
D03*
Y729670D02*
D03*
Y720170D02*
D03*
D41*
X1160000Y607500D02*
D03*
Y587500D02*
D03*
Y592500D02*
D03*
Y597500D02*
D03*
Y602500D02*
D03*
Y612500D02*
D03*
Y617500D02*
D03*
Y622500D02*
D03*
Y627500D02*
D03*
Y632500D02*
D03*
X1147000Y615000D02*
D03*
Y640000D02*
D03*
Y635000D02*
D03*
Y630000D02*
D03*
Y625000D02*
D03*
Y620000D02*
D03*
Y580000D02*
D03*
Y605000D02*
D03*
Y600000D02*
D03*
Y595000D02*
D03*
Y590000D02*
D03*
Y585000D02*
D03*
D42*
X1160000Y579000D02*
D03*
X1160100Y641000D02*
D03*
D43*
X768409Y757000D02*
D03*
Y701000D02*
D03*
X839409D02*
D03*
Y757000D02*
D03*
D44*
X775909Y693500D02*
D03*
X831909D02*
D03*
Y764500D02*
D03*
X775909D02*
D03*
D45*
X779909Y693500D02*
D03*
X783909D02*
D03*
X787909D02*
D03*
X791909D02*
D03*
X795909D02*
D03*
X799909D02*
D03*
X803909D02*
D03*
X807909D02*
D03*
X811909D02*
D03*
X815909D02*
D03*
X819909D02*
D03*
X823909D02*
D03*
X827909D02*
D03*
Y764500D02*
D03*
X823909D02*
D03*
X819909D02*
D03*
X815909D02*
D03*
X811909D02*
D03*
X807909D02*
D03*
X803909D02*
D03*
X799909D02*
D03*
X795909D02*
D03*
X791909D02*
D03*
X787909D02*
D03*
X783909D02*
D03*
X779909D02*
D03*
D46*
X997752Y712670D02*
D03*
X1011252D02*
D03*
X997752Y677670D02*
D03*
X1011252D02*
D03*
D47*
X723220Y653500D02*
D03*
X739220D02*
D03*
X723220Y631500D02*
D03*
X739220D02*
D03*
D48*
X1034252Y675170D02*
D03*
X1059752D02*
D03*
Y707670D02*
D03*
X1034252D02*
D03*
M02*
