G04*
G04 #@! TF.GenerationSoftware,Altium Limited,Altium Designer,24.4.1 (13)*
G04*
G04 Layer_Color=8421504*
%FSLAX44Y44*%
%MOMM*%
G71*
G04*
G04 #@! TF.SameCoordinates,A1F2DE11-FB7D-42BF-9404-5D1B71094F70*
G04*
G04*
G04 #@! TF.FilePolarity,Positive*
G04*
G01*
G75*
%ADD10R,1.7500X1.5000*%
%ADD11R,1.7500X1.5000*%
%ADD12R,0.5000X0.6000*%
%ADD13R,0.6000X0.6400*%
%ADD14R,0.3000X0.8000*%
%ADD15R,1.8000X0.8000*%
%ADD16R,0.3500X0.6500*%
%ADD17R,0.6000X0.5000*%
%ADD18R,0.6400X0.6000*%
%ADD19R,0.8000X0.9000*%
%ADD20R,0.9000X0.8000*%
%ADD21R,0.7000X1.8000*%
%ADD22R,0.8000X1.8000*%
%ADD23R,0.6000X1.1500*%
%ADD24R,1.1500X0.6000*%
%ADD25R,0.9144X0.2032*%
%ADD26R,0.9144X0.2540*%
%ADD27R,1.1000X0.2000*%
%ADD28R,1.3000X1.8000*%
%ADD29O,0.7000X0.4000*%
%ADD30R,1.6500X2.4000*%
%ADD31O,0.9000X0.4000*%
%ADD32R,3.5000X4.1000*%
G04:AMPARAMS|DCode=33|XSize=1.05mm|YSize=0.45mm|CornerRadius=0.225mm|HoleSize=0mm|Usage=FLASHONLY|Rotation=180.000|XOffset=0mm|YOffset=0mm|HoleType=Round|Shape=RoundedRectangle|*
%AMROUNDEDRECTD33*
21,1,1.0500,0.0000,0,0,180.0*
21,1,0.6000,0.4500,0,0,180.0*
1,1,0.4500,-0.3000,0.0000*
1,1,0.4500,0.3000,0.0000*
1,1,0.4500,0.3000,0.0000*
1,1,0.4500,-0.3000,0.0000*
%
%ADD33ROUNDEDRECTD33*%
%ADD34R,0.7000X0.3000*%
%ADD35R,0.7000X1.0000*%
G04:AMPARAMS|DCode=36|XSize=0.2mm|YSize=1.1mm|CornerRadius=0.05mm|HoleSize=0mm|Usage=FLASHONLY|Rotation=90.000|XOffset=0mm|YOffset=0mm|HoleType=Round|Shape=RoundedRectangle|*
%AMROUNDEDRECTD36*
21,1,0.2000,1.0000,0,0,90.0*
21,1,0.1000,1.1000,0,0,90.0*
1,1,0.1000,0.5000,0.0500*
1,1,0.1000,0.5000,-0.0500*
1,1,0.1000,-0.5000,-0.0500*
1,1,0.1000,-0.5000,0.0500*
%
%ADD36ROUNDEDRECTD36*%
G04:AMPARAMS|DCode=37|XSize=0.2mm|YSize=1.1mm|CornerRadius=0.05mm|HoleSize=0mm|Usage=FLASHONLY|Rotation=0.000|XOffset=0mm|YOffset=0mm|HoleType=Round|Shape=RoundedRectangle|*
%AMROUNDEDRECTD37*
21,1,0.2000,1.0000,0,0,0.0*
21,1,0.1000,1.1000,0,0,0.0*
1,1,0.1000,0.0500,-0.5000*
1,1,0.1000,-0.0500,-0.5000*
1,1,0.1000,-0.0500,0.5000*
1,1,0.1000,0.0500,0.5000*
%
%ADD37ROUNDEDRECTD37*%
%ADD38R,0.2000X1.1000*%
%ADD39R,0.9000X1.0000*%
%ADD40R,1.2000X1.4000*%
%ADD41R,1.2000X1.7500*%
D10*
X746159Y739000D02*
D03*
Y719000D02*
D03*
D11*
X773659Y739000D02*
D03*
Y719000D02*
D03*
D12*
X671000Y500000D02*
D03*
X661000D02*
D03*
X565000Y517500D02*
D03*
X555000D02*
D03*
X625000Y500000D02*
D03*
X615000D02*
D03*
X512500Y552500D02*
D03*
X502500D02*
D03*
X1004500Y765000D02*
D03*
X994500D02*
D03*
X856558Y702000D02*
D03*
X846558D02*
D03*
X906442Y776500D02*
D03*
X896442D02*
D03*
X895942Y807000D02*
D03*
X905942D02*
D03*
X1122000Y618000D02*
D03*
X1132000D02*
D03*
Y600000D02*
D03*
X1122000D02*
D03*
X1042500Y740000D02*
D03*
X1032500D02*
D03*
X1032500Y727500D02*
D03*
X1042500D02*
D03*
X565000Y532500D02*
D03*
X555000D02*
D03*
X1185000Y510000D02*
D03*
X1195000D02*
D03*
X896442Y791500D02*
D03*
X906442D02*
D03*
X832558Y695000D02*
D03*
X822558D02*
D03*
X846558Y684000D02*
D03*
X856558D02*
D03*
X730000Y554000D02*
D03*
X740000D02*
D03*
X555000Y487500D02*
D03*
X565000D02*
D03*
X884000Y807000D02*
D03*
X874000D02*
D03*
X667558Y733000D02*
D03*
X657558D02*
D03*
X991942Y791500D02*
D03*
X1001942D02*
D03*
X555000Y502500D02*
D03*
X565000D02*
D03*
D13*
X823600Y784000D02*
D03*
X832400D02*
D03*
X766900Y527500D02*
D03*
X758100D02*
D03*
Y512500D02*
D03*
X766900D02*
D03*
X1078600Y600000D02*
D03*
X1087400D02*
D03*
X1078600Y610000D02*
D03*
X1087400D02*
D03*
X823258Y738500D02*
D03*
X832058D02*
D03*
X823158Y709000D02*
D03*
X831958D02*
D03*
X878600Y445000D02*
D03*
X887400D02*
D03*
X758100Y497500D02*
D03*
X766900D02*
D03*
X685600Y677500D02*
D03*
X694400D02*
D03*
X684658Y690500D02*
D03*
X693458D02*
D03*
X716900Y677500D02*
D03*
X708100D02*
D03*
X847158Y717000D02*
D03*
X855958D02*
D03*
X897042Y761500D02*
D03*
X905842D02*
D03*
X685158Y733000D02*
D03*
X693958D02*
D03*
X685158Y708000D02*
D03*
X693958D02*
D03*
X831958Y673000D02*
D03*
X823158D02*
D03*
X685158Y749000D02*
D03*
X693958D02*
D03*
X831958Y754000D02*
D03*
X823158D02*
D03*
X831958Y770750D02*
D03*
X823158D02*
D03*
Y723000D02*
D03*
X831958D02*
D03*
Y684000D02*
D03*
X823158D02*
D03*
D14*
X612500Y548000D02*
D03*
X617500D02*
D03*
X622500D02*
D03*
X627500D02*
D03*
Y516000D02*
D03*
X622500D02*
D03*
X617500D02*
D03*
X612500D02*
D03*
X658443Y515983D02*
D03*
X663443D02*
D03*
X668443D02*
D03*
X673443D02*
D03*
Y547982D02*
D03*
X668443D02*
D03*
X663443D02*
D03*
X658443D02*
D03*
D15*
X795000Y465000D02*
D03*
Y476000D02*
D03*
Y487000D02*
D03*
Y498000D02*
D03*
Y509000D02*
D03*
Y520000D02*
D03*
Y531000D02*
D03*
Y561000D02*
D03*
Y572000D02*
D03*
Y583000D02*
D03*
Y594000D02*
D03*
Y605000D02*
D03*
X915000D02*
D03*
Y594000D02*
D03*
Y583000D02*
D03*
Y572000D02*
D03*
Y561000D02*
D03*
Y531000D02*
D03*
Y520000D02*
D03*
Y509000D02*
D03*
Y498000D02*
D03*
Y487000D02*
D03*
Y476000D02*
D03*
Y465000D02*
D03*
D16*
X983500Y547500D02*
D03*
X975000D02*
D03*
D17*
X1025000Y557500D02*
D03*
Y547500D02*
D03*
X1010000D02*
D03*
Y557500D02*
D03*
X1045000Y515000D02*
D03*
Y525000D02*
D03*
Y537500D02*
D03*
Y547500D02*
D03*
X597500Y524500D02*
D03*
Y514500D02*
D03*
X643443Y524482D02*
D03*
Y514483D02*
D03*
X735000Y657500D02*
D03*
Y667500D02*
D03*
X725000D02*
D03*
Y657500D02*
D03*
X760000Y625000D02*
D03*
Y635000D02*
D03*
X822500Y625000D02*
D03*
Y635000D02*
D03*
X725000D02*
D03*
Y625000D02*
D03*
X807500Y635000D02*
D03*
Y625000D02*
D03*
X775000Y635000D02*
D03*
Y625000D02*
D03*
X745000D02*
D03*
Y635000D02*
D03*
X591000Y570000D02*
D03*
Y580000D02*
D03*
X795000Y635000D02*
D03*
Y625000D02*
D03*
D18*
X995000Y556900D02*
D03*
Y548100D02*
D03*
X597500Y548900D02*
D03*
Y540100D02*
D03*
X643443Y548883D02*
D03*
Y540083D02*
D03*
X695000Y517500D02*
D03*
Y508700D02*
D03*
X703000Y575600D02*
D03*
Y584400D02*
D03*
X782558Y663400D02*
D03*
Y654600D02*
D03*
X792558Y654600D02*
D03*
Y663400D02*
D03*
X1127002Y730770D02*
D03*
Y739570D02*
D03*
X975000Y585600D02*
D03*
Y594400D02*
D03*
X700558Y781600D02*
D03*
Y790400D02*
D03*
X1127002Y695170D02*
D03*
Y686370D02*
D03*
X772558Y663400D02*
D03*
Y654600D02*
D03*
X770558Y793600D02*
D03*
Y802400D02*
D03*
X707500Y625600D02*
D03*
Y634400D02*
D03*
Y657500D02*
D03*
Y648700D02*
D03*
X688058Y790400D02*
D03*
Y781600D02*
D03*
X760558Y793600D02*
D03*
Y802400D02*
D03*
X675558Y790400D02*
D03*
Y781600D02*
D03*
X750558Y802400D02*
D03*
Y793600D02*
D03*
X730558D02*
D03*
Y802400D02*
D03*
X740558D02*
D03*
Y793600D02*
D03*
X720558Y802400D02*
D03*
Y793600D02*
D03*
X762558Y654600D02*
D03*
Y663400D02*
D03*
D19*
X995000Y533500D02*
D03*
Y516500D02*
D03*
D20*
X1030000Y525000D02*
D03*
X1010000Y515500D02*
D03*
Y534500D02*
D03*
D21*
X811000Y582500D02*
D03*
X899000D02*
D03*
Y487500D02*
D03*
X811000D02*
D03*
D22*
X822000Y582500D02*
D03*
X833000D02*
D03*
X844000D02*
D03*
X855000D02*
D03*
X866000D02*
D03*
X877000D02*
D03*
X888000D02*
D03*
Y487500D02*
D03*
X877000D02*
D03*
X866000D02*
D03*
X855000D02*
D03*
X844000D02*
D03*
X833000D02*
D03*
X822000D02*
D03*
D23*
X670500Y567000D02*
D03*
X680000D02*
D03*
X689500D02*
D03*
Y593000D02*
D03*
X680000D02*
D03*
X670500D02*
D03*
D24*
X735500Y508000D02*
D03*
Y517500D02*
D03*
Y527000D02*
D03*
X709500D02*
D03*
Y517500D02*
D03*
Y508000D02*
D03*
D25*
X1065080Y585000D02*
D03*
Y605000D02*
D03*
Y625000D02*
D03*
D26*
X1054920Y581444D02*
D03*
Y588556D02*
D03*
Y601444D02*
D03*
Y608556D02*
D03*
Y621444D02*
D03*
Y628556D02*
D03*
D27*
X724409Y705000D02*
D03*
Y709000D02*
D03*
Y753000D02*
D03*
Y749000D02*
D03*
Y745000D02*
D03*
Y741000D02*
D03*
Y737000D02*
D03*
Y733000D02*
D03*
Y729000D02*
D03*
Y725000D02*
D03*
Y721000D02*
D03*
Y717000D02*
D03*
Y713000D02*
D03*
X795409Y705000D02*
D03*
Y709000D02*
D03*
Y713000D02*
D03*
Y717000D02*
D03*
Y721000D02*
D03*
Y725000D02*
D03*
Y729000D02*
D03*
Y733000D02*
D03*
Y737000D02*
D03*
Y741000D02*
D03*
Y745000D02*
D03*
Y749000D02*
D03*
Y753000D02*
D03*
D28*
X498000Y535000D02*
D03*
X527000D02*
D03*
X1199500Y535000D02*
D03*
X1170500D02*
D03*
D29*
X1082752Y668170D02*
D03*
Y677670D02*
D03*
Y687170D02*
D03*
X1111252Y668170D02*
D03*
Y687170D02*
D03*
Y677670D02*
D03*
D30*
X1097002D02*
D03*
X1097002Y720170D02*
D03*
D31*
X1081752Y710670D02*
D03*
Y720170D02*
D03*
Y729670D02*
D03*
X1112252Y710670D02*
D03*
Y729670D02*
D03*
Y720170D02*
D03*
D32*
X952500Y785000D02*
D03*
D33*
X924000Y765950D02*
D03*
Y778650D02*
D03*
Y791350D02*
D03*
Y804050D02*
D03*
X981000D02*
D03*
Y791350D02*
D03*
Y778650D02*
D03*
Y765950D02*
D03*
D34*
X1160000Y607500D02*
D03*
Y587500D02*
D03*
Y592500D02*
D03*
Y597500D02*
D03*
Y602500D02*
D03*
Y612500D02*
D03*
Y617500D02*
D03*
Y622500D02*
D03*
Y627500D02*
D03*
Y632500D02*
D03*
X1147000Y615000D02*
D03*
Y640000D02*
D03*
Y635000D02*
D03*
Y630000D02*
D03*
Y625000D02*
D03*
Y620000D02*
D03*
Y580000D02*
D03*
Y605000D02*
D03*
Y600000D02*
D03*
Y595000D02*
D03*
Y590000D02*
D03*
Y585000D02*
D03*
D35*
X1160000Y579000D02*
D03*
X1160100Y641000D02*
D03*
D36*
X724409Y757000D02*
D03*
Y701000D02*
D03*
X795409D02*
D03*
Y757000D02*
D03*
D37*
X731909Y693500D02*
D03*
X787909D02*
D03*
Y764500D02*
D03*
X731909D02*
D03*
D38*
X735909Y693500D02*
D03*
X739909D02*
D03*
X743909D02*
D03*
X747909D02*
D03*
X751909D02*
D03*
X755909D02*
D03*
X759909D02*
D03*
X763909D02*
D03*
X767909D02*
D03*
X771909D02*
D03*
X775909D02*
D03*
X779909D02*
D03*
X783909D02*
D03*
Y764500D02*
D03*
X779909D02*
D03*
X775909D02*
D03*
X771909D02*
D03*
X767909D02*
D03*
X763909D02*
D03*
X759909D02*
D03*
X755909D02*
D03*
X751909D02*
D03*
X747909D02*
D03*
X743909D02*
D03*
X739909D02*
D03*
X735909D02*
D03*
D39*
X997752Y712670D02*
D03*
X1011252D02*
D03*
X997752Y677670D02*
D03*
X1011252D02*
D03*
D40*
X673220Y653500D02*
D03*
X689220D02*
D03*
X673220Y631500D02*
D03*
X689220D02*
D03*
D41*
X1034252Y675170D02*
D03*
X1059752D02*
D03*
Y707670D02*
D03*
X1034252D02*
D03*
M02*
