G04*
G04 #@! TF.GenerationSoftware,Altium Limited,Altium Designer,24.1.2 (44)*
G04*
G04 Layer_Color=8421504*
%FSLAX44Y44*%
%MOMM*%
G71*
G04*
G04 #@! TF.SameCoordinates,BDBBCEB5-9933-478C-A866-C286992FDBA5*
G04*
G04*
G04 #@! TF.FilePolarity,Positive*
G04*
G01*
G75*
%ADD18R,0.7000X0.7000*%
%ADD19R,0.7000X0.7000*%
%ADD20R,0.7000X0.7000*%
%ADD21R,0.7000X0.7000*%
%ADD22R,0.4725X0.5153*%
%ADD23R,1.1938X0.8890*%
%ADD24R,1.4986X0.5588*%
%ADD25R,0.5588X1.4986*%
%ADD26R,0.5725X0.6153*%
%ADD27R,0.4725X0.5811*%
%ADD28R,0.3000X0.8500*%
%ADD29R,0.6000X0.5000*%
%ADD30R,0.8000X0.8000*%
%ADD31R,0.5000X0.6000*%
%ADD32R,0.5500X0.5000*%
%ADD33R,0.5153X0.4725*%
%ADD34C,1.0000*%
%ADD35R,0.5200X0.5200*%
%ADD36R,1.8000X1.2000*%
%ADD37R,2.7800X0.8000*%
%ADD38R,0.4000X0.5000*%
%ADD39R,0.6500X1.0500*%
%ADD40R,0.5621X0.5596*%
%ADD41R,1.0000X0.7000*%
%ADD42R,1.5549X2.3062*%
%ADD43O,0.4000X0.7000*%
%ADD44R,2.4000X1.6500*%
G36*
X797010Y644480D02*
X791010D01*
Y646480D01*
X797010D01*
Y644480D01*
D02*
G37*
G36*
Y648480D02*
X791010D01*
Y650480D01*
X797010D01*
Y648480D01*
D02*
G37*
G36*
Y652480D02*
X791010D01*
Y654480D01*
X797010D01*
Y652480D01*
D02*
G37*
G36*
Y656480D02*
X791010D01*
Y658480D01*
X797010D01*
Y656480D01*
D02*
G37*
G36*
Y660480D02*
X791010D01*
Y662480D01*
X797010D01*
Y660480D01*
D02*
G37*
G36*
X801010Y636480D02*
X799010D01*
Y642480D01*
X801010D01*
Y636480D01*
D02*
G37*
G36*
X805010D02*
X803010D01*
Y642480D01*
X805010D01*
Y636480D01*
D02*
G37*
G36*
X809010D02*
X807010D01*
Y642480D01*
X809010D01*
Y636480D01*
D02*
G37*
G36*
X813010D02*
X811010D01*
Y642480D01*
X813010D01*
Y636480D01*
D02*
G37*
G36*
X817010D02*
X815010D01*
Y642480D01*
X817010D01*
Y636480D01*
D02*
G37*
G36*
X797010Y664480D02*
X791010D01*
Y666480D01*
X797010D01*
Y664480D01*
D02*
G37*
G36*
Y668480D02*
X791010D01*
Y670480D01*
X797010D01*
Y668480D01*
D02*
G37*
G36*
Y672480D02*
X791010D01*
Y674480D01*
X797010D01*
Y672480D01*
D02*
G37*
G36*
Y680480D02*
X791010D01*
Y682480D01*
X797010D01*
Y680480D01*
D02*
G37*
G36*
Y676480D02*
X791010D01*
Y678480D01*
X797010D01*
Y676480D01*
D02*
G37*
G36*
X801010Y684480D02*
X799010D01*
Y690480D01*
X801010D01*
Y684480D01*
D02*
G37*
G36*
X805010D02*
X803010D01*
Y690480D01*
X805010D01*
Y684480D01*
D02*
G37*
G36*
X809010D02*
X807010D01*
Y690480D01*
X809010D01*
Y684480D01*
D02*
G37*
G36*
X813010D02*
X811010D01*
Y690480D01*
X813010D01*
Y684480D01*
D02*
G37*
G36*
X817010D02*
X815010D01*
Y690480D01*
X817010D01*
Y684480D01*
D02*
G37*
G36*
X821010Y636480D02*
X819010D01*
Y642480D01*
X821010D01*
Y636480D01*
D02*
G37*
G36*
X825010D02*
X823010D01*
Y642480D01*
X825010D01*
Y636480D01*
D02*
G37*
G36*
X829010D02*
X827010D01*
Y642480D01*
X829010D01*
Y636480D01*
D02*
G37*
G36*
X833010D02*
X831010D01*
Y642480D01*
X833010D01*
Y636480D01*
D02*
G37*
G36*
X837010D02*
X835010D01*
Y642480D01*
X837010D01*
Y636480D01*
D02*
G37*
G36*
X845010Y644480D02*
X839010D01*
Y646480D01*
X845010D01*
Y644480D01*
D02*
G37*
G36*
Y648480D02*
X839010D01*
Y650480D01*
X845010D01*
Y648480D01*
D02*
G37*
G36*
Y652480D02*
X839010D01*
Y654480D01*
X845010D01*
Y652480D01*
D02*
G37*
G36*
Y656480D02*
X839010D01*
Y658480D01*
X845010D01*
Y656480D01*
D02*
G37*
G36*
Y660480D02*
X839010D01*
Y662480D01*
X845010D01*
Y660480D01*
D02*
G37*
G36*
X821010Y684480D02*
X819010D01*
Y690480D01*
X821010D01*
Y684480D01*
D02*
G37*
G36*
X825010D02*
X823010D01*
Y690480D01*
X825010D01*
Y684480D01*
D02*
G37*
G36*
X829010D02*
X827010D01*
Y690480D01*
X829010D01*
Y684480D01*
D02*
G37*
G36*
X833010D02*
X831010D01*
Y690480D01*
X833010D01*
Y684480D01*
D02*
G37*
G36*
X837010D02*
X835010D01*
Y690480D01*
X837010D01*
Y684480D01*
D02*
G37*
G36*
X845010Y664480D02*
X839010D01*
Y666480D01*
X845010D01*
Y664480D01*
D02*
G37*
G36*
Y668480D02*
X839010D01*
Y670480D01*
X845010D01*
Y668480D01*
D02*
G37*
G36*
Y672480D02*
X839010D01*
Y674480D01*
X845010D01*
Y672480D01*
D02*
G37*
G36*
Y680480D02*
X839010D01*
Y682480D01*
X845010D01*
Y680480D01*
D02*
G37*
G36*
Y676480D02*
X839010D01*
Y678480D01*
X845010D01*
Y676480D01*
D02*
G37*
D18*
X827010Y672480D02*
D03*
X809010D02*
D03*
Y654480D02*
D03*
X827010D02*
D03*
D19*
Y663480D02*
D03*
X809010D02*
D03*
D20*
X818010Y672480D02*
D03*
Y654480D02*
D03*
D21*
Y663480D02*
D03*
D22*
X641750Y775036D02*
D03*
Y767464D02*
D03*
X951250Y545464D02*
D03*
Y553036D02*
D03*
X796290Y711176D02*
D03*
Y703604D02*
D03*
X810260Y711176D02*
D03*
Y703604D02*
D03*
X824230Y711176D02*
D03*
Y703604D02*
D03*
X951230Y787351D02*
D03*
Y779780D02*
D03*
D23*
X660000Y777500D02*
D03*
X698500D02*
D03*
Y754500D02*
D03*
X660000D02*
D03*
D24*
X657660Y766000D02*
D03*
X700840D02*
D03*
D25*
X673250Y778573D02*
D03*
X685250D02*
D03*
Y753427D02*
D03*
X673250D02*
D03*
D26*
X718000Y771214D02*
D03*
Y779786D02*
D03*
X718250Y759786D02*
D03*
Y751214D02*
D03*
X901000Y546464D02*
D03*
Y555036D02*
D03*
D27*
X903750Y600155D02*
D03*
Y592845D02*
D03*
X951230Y741525D02*
D03*
Y734215D02*
D03*
D28*
X927500Y534000D02*
D03*
X922500D02*
D03*
X917500D02*
D03*
X912500D02*
D03*
Y565500D02*
D03*
X917500D02*
D03*
X922500D02*
D03*
X927500D02*
D03*
D29*
X939000Y541500D02*
D03*
Y551500D02*
D03*
D30*
X926250Y518250D02*
D03*
X909750D02*
D03*
D31*
X941500Y518500D02*
D03*
X951500D02*
D03*
X925750Y580390D02*
D03*
X915750D02*
D03*
D32*
X753050Y718820D02*
D03*
X745550D02*
D03*
D33*
X830536Y746250D02*
D03*
X822964D02*
D03*
X822984Y759460D02*
D03*
X830556D02*
D03*
X867386Y680720D02*
D03*
X859814D02*
D03*
X867386Y666750D02*
D03*
X859814D02*
D03*
X871244Y637540D02*
D03*
X878816D02*
D03*
X871244Y623570D02*
D03*
X878816D02*
D03*
D34*
X731520Y779780D02*
D03*
X756500Y780500D02*
D03*
D35*
X721360Y730060D02*
D03*
Y738060D02*
D03*
X798830Y760920D02*
D03*
Y752920D02*
D03*
D36*
X780730Y757490D02*
D03*
X740730D02*
D03*
Y733490D02*
D03*
X780730D02*
D03*
D37*
X905050Y700400D02*
D03*
Y620400D02*
D03*
Y690400D02*
D03*
Y680400D02*
D03*
Y670400D02*
D03*
Y660400D02*
D03*
Y650400D02*
D03*
Y640400D02*
D03*
Y630400D02*
D03*
D38*
X826770Y778700D02*
D03*
X818770D02*
D03*
D39*
X882260Y783590D02*
D03*
X865260D02*
D03*
D40*
X890270Y726643D02*
D03*
Y718617D02*
D03*
D41*
X938170Y749980D02*
D03*
X893170D02*
D03*
X938170Y771480D02*
D03*
X893170D02*
D03*
D42*
X847263Y759460D02*
D03*
X869777D02*
D03*
D43*
X873100Y735610D02*
D03*
X863600D02*
D03*
X854100D02*
D03*
Y707110D02*
D03*
X863600D02*
D03*
X873100D02*
D03*
D44*
X863600Y721360D02*
D03*
M02*
