G04*
G04 #@! TF.GenerationSoftware,Altium Limited,Altium Designer,24.1.2 (44)*
G04*
G04 Layer_Color=32896*
%FSLAX44Y44*%
%MOMM*%
G71*
G04*
G04 #@! TF.SameCoordinates,BDBBCEB5-9933-478C-A866-C286992FDBA5*
G04*
G04*
G04 #@! TF.FilePolarity,Positive*
G04*
G01*
G75*
%ADD10C,0.2000*%
%ADD12C,0.1524*%
%ADD13C,0.2540*%
%ADD14C,0.1000*%
%ADD17C,0.1520*%
%ADD104C,0.4000*%
G36*
X947202Y762453D02*
X945038D01*
X946137Y765364D01*
X947202Y762453D01*
D02*
G37*
G36*
X950000Y778605D02*
Y769051D01*
Y768903D01*
D01*
D01*
Y759349D01*
D01*
X946964Y767188D01*
X942138D01*
X945287D01*
X942138Y759349D01*
X943849D01*
X944528Y761127D01*
X947678D01*
X948323Y759349D01*
X950000D01*
Y759202D01*
Y749647D01*
Y757486D01*
X948414D01*
Y754405D01*
X945321D01*
Y757486D01*
X943735D01*
Y749647D01*
X950000D01*
Y749500D01*
X897357D01*
Y749511D01*
Y749500D01*
X893505D01*
X893585Y749511D01*
X893698D01*
X893822Y749523D01*
X893958Y749545D01*
X894117Y749568D01*
X894445Y749625D01*
X894808Y749715D01*
X895182Y749840D01*
X895352Y749919D01*
X895533Y750010D01*
X895544Y750021D01*
X895567Y750032D01*
X895624Y750066D01*
X895680Y750112D01*
X895760Y750157D01*
X895839Y750225D01*
X895941Y750304D01*
X896043Y750395D01*
X896269Y750599D01*
X896496Y750859D01*
X896711Y751154D01*
X896904Y751494D01*
Y751505D01*
X896926Y751539D01*
X896949Y751596D01*
X896972Y751664D01*
X897006Y751754D01*
X897051Y751856D01*
X897085Y751981D01*
X897130Y752117D01*
X897176Y752264D01*
X897210Y752434D01*
X897289Y752785D01*
X897334Y753170D01*
X897357Y753590D01*
Y753714D01*
X897346Y753793D01*
Y753907D01*
X897334Y754031D01*
X897312Y754167D01*
X897289Y754326D01*
X897232Y754654D01*
X897142Y755028D01*
X897017Y755402D01*
X896938Y755583D01*
X896847Y755765D01*
X896836Y755776D01*
X896824Y755810D01*
X896790Y755855D01*
X896757Y755923D01*
X896700Y756003D01*
X896632Y756093D01*
X896553Y756195D01*
X896473Y756308D01*
X896371Y756422D01*
X896258Y756546D01*
X896133Y756671D01*
X895997Y756796D01*
X895850Y756909D01*
X895703Y757033D01*
X895352Y757237D01*
X895340D01*
X895318Y757260D01*
X895273Y757271D01*
X895216Y757305D01*
X895137Y757328D01*
X895057Y757362D01*
X894944Y757396D01*
X894831Y757441D01*
X894706Y757475D01*
X894559Y757509D01*
X894400Y757543D01*
X894242Y757577D01*
X893879Y757623D01*
X893471Y757634D01*
X893335D01*
X893233Y757623D01*
X893109Y757611D01*
X892962Y757600D01*
X892803Y757589D01*
X892633Y757554D01*
X892271Y757486D01*
X891897Y757373D01*
X891704Y757305D01*
X891523Y757226D01*
X891353Y757135D01*
X891194Y757022D01*
X891183Y757011D01*
X891160Y756999D01*
X891115Y756954D01*
X891058Y756909D01*
X890990Y756852D01*
X890922Y756773D01*
X890843Y756682D01*
X890752Y756580D01*
X890662Y756467D01*
X890571Y756342D01*
X890481Y756206D01*
X890401Y756048D01*
X890311Y755889D01*
X890243Y755719D01*
X890175Y755527D01*
X890129Y755334D01*
X891704Y755040D01*
Y755051D01*
X891715Y755062D01*
X891738Y755130D01*
X891783Y755232D01*
X891851Y755368D01*
X891931Y755515D01*
X892044Y755663D01*
X892180Y755810D01*
X892338Y755946D01*
X892361Y755957D01*
X892418Y756003D01*
X892520Y756059D01*
X892644Y756116D01*
X892814Y756184D01*
X893007Y756229D01*
X893222Y756274D01*
X893471Y756286D01*
X893573D01*
X893641Y756274D01*
X893732Y756263D01*
X893834Y756252D01*
X893947Y756229D01*
X894072Y756206D01*
X894332Y756127D01*
X894468Y756070D01*
X894604Y756003D01*
X894740Y755923D01*
X894876Y755844D01*
X895001Y755731D01*
X895125Y755617D01*
X895137Y755606D01*
X895148Y755583D01*
X895182Y755549D01*
X895216Y755493D01*
X895261Y755425D01*
X895318Y755346D01*
X895375Y755244D01*
X895420Y755130D01*
X895476Y754994D01*
X895533Y754847D01*
X895590Y754688D01*
X895635Y754519D01*
X895669Y754326D01*
X895703Y754111D01*
X895714Y753895D01*
X895726Y753658D01*
Y753646D01*
Y753601D01*
Y753522D01*
X895714Y753431D01*
X895703Y753306D01*
X895692Y753182D01*
X895669Y753023D01*
X895646Y752865D01*
X895578Y752525D01*
X895465Y752173D01*
X895397Y752004D01*
X895318Y751845D01*
X895216Y751686D01*
X895114Y751550D01*
X895103Y751539D01*
X895080Y751516D01*
X895046Y751482D01*
X895001Y751437D01*
X894933Y751392D01*
X894865Y751324D01*
X894774Y751267D01*
X894672Y751199D01*
X894559Y751131D01*
X894445Y751075D01*
X894162Y750961D01*
X894004Y750916D01*
X893845Y750882D01*
X893664Y750859D01*
X893483Y750848D01*
X893392D01*
X893301Y750859D01*
X893165Y750871D01*
X893018Y750893D01*
X892848Y750927D01*
X892667Y750973D01*
X892486Y751041D01*
X892474D01*
X892463Y751052D01*
X892406Y751075D01*
X892305Y751120D01*
X892191Y751177D01*
X892055Y751245D01*
X891908Y751324D01*
X891761Y751414D01*
X891625Y751516D01*
Y752525D01*
X893437D01*
Y753850D01*
X890027D01*
Y750701D01*
X890050Y750678D01*
X890084Y750656D01*
X890118Y750621D01*
X890175Y750576D01*
X890231Y750531D01*
X890390Y750418D01*
X890605Y750293D01*
X890854Y750146D01*
X891138Y749998D01*
X891478Y749863D01*
X891489D01*
X891523Y749851D01*
X891568Y749828D01*
X891636Y749806D01*
X891727Y749783D01*
X891829Y749749D01*
X891942Y749715D01*
X892067Y749681D01*
X892350Y749613D01*
X892678Y749557D01*
X893018Y749511D01*
X893381Y749500D01*
X890027D01*
D01*
X837000D01*
Y759202D01*
Y768903D01*
Y778605D01*
Y786739D01*
X950000D01*
Y778605D01*
D02*
G37*
G36*
X948414Y749647D02*
X945321D01*
Y753080D01*
X948414D01*
Y749647D01*
D02*
G37*
%LPC*%
G36*
X908436Y786591D02*
X905310D01*
X905219Y786580D01*
X905004Y786569D01*
X904766Y786557D01*
X904517Y786523D01*
X904279Y786489D01*
X904063Y786433D01*
X904052D01*
X904029Y786422D01*
X903995Y786410D01*
X903950Y786399D01*
X903814Y786342D01*
X903655Y786263D01*
X903474Y786161D01*
X903270Y786036D01*
X903078Y785889D01*
X902885Y785708D01*
X902874D01*
X902862Y785685D01*
X902806Y785617D01*
X902715Y785504D01*
X902613Y785357D01*
X902489Y785175D01*
X902364Y784960D01*
X902240Y784711D01*
X902138Y784439D01*
Y784428D01*
X902126Y784405D01*
X902115Y784360D01*
X902092Y784303D01*
X902081Y784235D01*
X902058Y784145D01*
X902036Y784043D01*
X902002Y783929D01*
X901979Y783805D01*
X901956Y783657D01*
X901934Y783510D01*
X901922Y783340D01*
X901888Y782989D01*
X901877Y782592D01*
Y782615D01*
Y782592D01*
Y782434D01*
X901888Y782343D01*
Y782253D01*
X901900Y782139D01*
X901911Y782015D01*
X901934Y781754D01*
X901979Y781482D01*
X902047Y781199D01*
X902126Y780927D01*
Y780916D01*
X902138Y780893D01*
X902160Y780848D01*
X902183Y780780D01*
X902206Y780712D01*
X902251Y780633D01*
X902341Y780429D01*
X902455Y780213D01*
X902602Y779976D01*
X902772Y779749D01*
X902964Y779534D01*
X902987Y779511D01*
X903044Y779466D01*
X903134Y779398D01*
X903259Y779307D01*
X903418Y779205D01*
X903599Y779103D01*
X903825Y779001D01*
X904075Y778911D01*
X904086D01*
X904097Y778899D01*
X904131D01*
X904165Y778888D01*
X904290Y778865D01*
X904448Y778831D01*
X904641Y778798D01*
X904879Y778775D01*
X905162Y778764D01*
X905468Y778752D01*
X908436D01*
Y786591D01*
D02*
G37*
G36*
X916343D02*
X914814D01*
X911574Y781312D01*
Y786591D01*
X910113D01*
Y778752D01*
X916343D01*
Y786591D01*
D02*
G37*
G36*
X878608D02*
X877079Y786591D01*
X873839Y781312D01*
Y786591D01*
X872378D01*
Y778752D01*
X878608Y778752D01*
Y786591D01*
D02*
G37*
G36*
X933404D02*
X931036D01*
X929632Y781233D01*
X928238Y786591D01*
X925859D01*
Y778752D01*
X933404D01*
Y786591D01*
D02*
G37*
G36*
X856099Y786591D02*
X850287D01*
Y785266D01*
X854513D01*
Y783533D01*
X850582D01*
Y782207D01*
X854513D01*
Y780078D01*
X850140D01*
D01*
Y778752D01*
X856099D01*
Y786591D01*
D02*
G37*
G36*
X897074Y786739D02*
X896994D01*
X896904Y786727D01*
X896790D01*
X896643Y786705D01*
X896473Y786682D01*
X896281Y786648D01*
X896077Y786603D01*
X895862Y786546D01*
X895635Y786478D01*
X895408Y786387D01*
X895171Y786285D01*
X894944Y786161D01*
X894717Y786014D01*
X894502Y785844D01*
X894298Y785651D01*
X894287Y785640D01*
X894253Y785606D01*
X894196Y785538D01*
X894140Y785459D01*
X894060Y785345D01*
X893970Y785209D01*
X893879Y785051D01*
X893777Y784870D01*
X893675Y784677D01*
X893585Y784450D01*
X893494Y784201D01*
X893415Y783941D01*
X893347Y783646D01*
X893301Y783340D01*
X893267Y783012D01*
X893256Y782661D01*
Y782581D01*
X893267Y782479D01*
Y782343D01*
X893290Y782185D01*
X893313Y782003D01*
X893347Y781788D01*
X893381Y781573D01*
X893437Y781335D01*
X893505Y781086D01*
X893596Y780837D01*
X893698Y780587D01*
X893811Y780350D01*
X893958Y780112D01*
X894117Y779885D01*
X894298Y779670D01*
X894310Y779658D01*
X894344Y779624D01*
X894400Y779568D01*
X894491Y779500D01*
X894593Y779420D01*
X894717Y779330D01*
X894865Y779239D01*
X895023Y779137D01*
X895216Y779035D01*
X895420Y778945D01*
X895646Y778854D01*
X895896Y778775D01*
X896156Y778707D01*
X896439Y778650D01*
X896734Y778616D01*
X897051Y778605D01*
X897130D01*
X897221Y778616D01*
X897334Y778628D01*
X897482Y778639D01*
X897652Y778661D01*
X897844Y778696D01*
X898048Y778741D01*
X898275Y778798D01*
X898490Y778865D01*
X898728Y778956D01*
X898954Y779058D01*
X899192Y779171D01*
X899407Y779319D01*
X899623Y779477D01*
X899827Y779670D01*
X899838Y779681D01*
X899872Y779715D01*
X899917Y779783D01*
X899985Y779862D01*
X900064Y779976D01*
X900155Y780112D01*
X900246Y780259D01*
X900336Y780440D01*
X900438Y780633D01*
X900529Y780859D01*
X900620Y781097D01*
X900699Y781358D01*
X900767Y781641D01*
X900812Y781947D01*
X900846Y782275D01*
X900857Y782615D01*
Y779681D01*
Y782751D01*
Y782728D01*
X900846Y782819D01*
Y782921D01*
X900835Y783034D01*
X900823Y783170D01*
X900812Y783317D01*
X900767Y783635D01*
X900710Y783975D01*
X900620Y784314D01*
X900506Y784632D01*
Y784643D01*
X900495Y784654D01*
X900472Y784688D01*
X900461Y784734D01*
X900393Y784847D01*
X900314Y784994D01*
X900212Y785164D01*
X900087Y785334D01*
X899940Y785527D01*
X899781Y785708D01*
X899770Y785719D01*
X899759Y785731D01*
X899702Y785787D01*
X899600Y785878D01*
X899475Y785980D01*
X899328Y786093D01*
X899158Y786218D01*
X898966Y786331D01*
X898762Y786422D01*
X898750D01*
X898728Y786433D01*
X898682Y786456D01*
X898626Y786467D01*
X898558Y786501D01*
X898478Y786523D01*
X898376Y786546D01*
X898275Y786580D01*
X898025Y786637D01*
X897742Y786693D01*
X897414Y786727D01*
X897074Y786739D01*
D02*
G37*
G36*
X946964Y786591D02*
X942138D01*
X945287D01*
X942138Y778752D01*
X943849D01*
X944528Y780531D01*
X947678D01*
X948323Y778752D01*
X950000D01*
X946964Y786591D01*
D02*
G37*
G36*
X941289D02*
X937754D01*
X937652Y786580D01*
X937527D01*
X937403Y786569D01*
X937256D01*
X936961Y786535D01*
X936655Y786501D01*
X936372Y786444D01*
X936247Y786410D01*
X936134Y786376D01*
X936123D01*
X936111Y786365D01*
X936043Y786331D01*
X935941Y786274D01*
X935806Y786206D01*
X935658Y786093D01*
X935511Y785968D01*
X935364Y785810D01*
X935228Y785617D01*
Y785606D01*
X935216Y785594D01*
X935194Y785561D01*
X935171Y785527D01*
X935115Y785413D01*
X935046Y785266D01*
X934990Y785085D01*
X934933Y784881D01*
X934888Y784643D01*
X934877Y784394D01*
Y784382D01*
Y784360D01*
Y784303D01*
X934888Y784246D01*
Y784167D01*
X934899Y784088D01*
X934945Y783884D01*
X935001Y783646D01*
X935092Y783408D01*
X935228Y783159D01*
X935307Y783046D01*
X935398Y782932D01*
X935409Y782921D01*
X935420Y782910D01*
X935454Y782876D01*
X935500Y782842D01*
X935545Y782796D01*
X935613Y782740D01*
X935692Y782683D01*
X935783Y782626D01*
X935885Y782559D01*
X936009Y782502D01*
X936134Y782445D01*
X936270Y782389D01*
X936429Y782332D01*
X936587Y782287D01*
X936757Y782241D01*
X936950Y782207D01*
X936938D01*
X936927Y782196D01*
X936859Y782151D01*
X936768Y782094D01*
X936655Y782015D01*
X936519Y781913D01*
X936383Y781811D01*
X936236Y781686D01*
X936111Y781550D01*
X936100Y781539D01*
X936043Y781482D01*
X935975Y781392D01*
X935873Y781256D01*
X935738Y781086D01*
X935670Y780973D01*
X935590Y780859D01*
X935500Y780735D01*
X935409Y780599D01*
X935307Y780440D01*
X935205Y780282D01*
X934242Y778752D01*
X936145D01*
X937278Y780451D01*
X937290Y780463D01*
X937301Y780497D01*
X937335Y780542D01*
X937380Y780599D01*
X937426Y780667D01*
X937482Y780757D01*
X937607Y780938D01*
X937754Y781143D01*
X937890Y781324D01*
X938015Y781494D01*
X938071Y781550D01*
X938117Y781607D01*
X938128Y781618D01*
X938150Y781641D01*
X938196Y781686D01*
X938252Y781743D01*
X938332Y781788D01*
X938411Y781845D01*
X938502Y781890D01*
X938592Y781935D01*
X938604D01*
X938638Y781947D01*
X938694Y781969D01*
X938785Y781981D01*
X938898Y782003D01*
X939034Y782015D01*
X939193Y782026D01*
X939703D01*
Y778752D01*
X938086D01*
X941289D01*
Y786591D01*
D02*
G37*
G36*
X922019D02*
X920342D01*
X917193Y778752D01*
D01*
X922306D01*
X918904D01*
X919583Y780531D01*
X922732D01*
X923378Y778752D01*
X925055D01*
X922019Y786591D01*
D02*
G37*
G36*
X888963D02*
X886074D01*
X885949Y786580D01*
X885655D01*
X885338Y786557D01*
X885020Y786535D01*
X884884Y786523D01*
X884748Y786512D01*
X884635Y786489D01*
X884545Y786467D01*
X884533D01*
X884510Y786456D01*
X884476Y786444D01*
X884431Y786433D01*
X884307Y786376D01*
X884148Y786308D01*
X883978Y786206D01*
X883785Y786070D01*
X883604Y785900D01*
X883423Y785696D01*
Y785685D01*
X883400Y785674D01*
X883378Y785640D01*
X883355Y785594D01*
X883310Y785527D01*
X883276Y785459D01*
X883230Y785379D01*
X883185Y785289D01*
X883106Y785062D01*
X883027Y784813D01*
X882981Y784507D01*
X882959Y784178D01*
Y784054D01*
X882970Y783997D01*
Y783918D01*
X882992Y783759D01*
X883027Y783567D01*
X883072Y783352D01*
X883140Y783148D01*
X883230Y782955D01*
X883242Y782932D01*
X883276Y782876D01*
X883332Y782785D01*
X883412Y782672D01*
X883502Y782559D01*
X883627Y782423D01*
X883752Y782298D01*
X883899Y782185D01*
X883921Y782173D01*
X883967Y782139D01*
X884046Y782094D01*
X884148Y782037D01*
X884273Y781969D01*
X884409Y781913D01*
X884556Y781856D01*
X884714Y781811D01*
X884737D01*
X884771Y781799D01*
X884816D01*
X884873Y781788D01*
X884952Y781777D01*
X885032Y781766D01*
X885134D01*
X885236Y781754D01*
X885360Y781743D01*
X885496Y781731D01*
X885643Y781720D01*
X885802D01*
X885972Y781709D01*
X887377D01*
Y778752D01*
X882959D01*
X888963D01*
Y786591D01*
D02*
G37*
G36*
X881712D02*
X880126D01*
Y778752D01*
X881712D01*
Y786591D01*
D02*
G37*
G36*
X868469Y786591D02*
X866793D01*
X863644Y778752D01*
D01*
X871506D01*
D01*
X868469Y786591D01*
D02*
G37*
G36*
X862760Y786535D02*
X861174D01*
Y780078D01*
X857232D01*
Y778752D01*
X862760D01*
Y786535D01*
D02*
G37*
G36*
X846062Y786739D02*
X845926D01*
X845824Y786727D01*
X845699Y786716D01*
X845552Y786705D01*
X845405Y786682D01*
X845235Y786659D01*
X844873Y786580D01*
X844691Y786523D01*
X844510Y786467D01*
X844329Y786387D01*
X844159Y786297D01*
X844000Y786195D01*
X843853Y786082D01*
X843842Y786070D01*
X843819Y786048D01*
X843785Y786014D01*
X843740Y785968D01*
X843683Y785900D01*
X843615Y785821D01*
X843547Y785730D01*
X843468Y785629D01*
X843400Y785504D01*
X843332Y785379D01*
X843264Y785232D01*
X843207Y785073D01*
X843150Y784915D01*
X843105Y784734D01*
X843071Y784552D01*
X843060Y784348D01*
X844646Y784292D01*
Y784303D01*
Y784314D01*
X844669Y784394D01*
X844691Y784496D01*
X844736Y784620D01*
X844793Y784768D01*
X844873Y784903D01*
X844974Y785039D01*
X845088Y785153D01*
X845099Y785164D01*
X845144Y785198D01*
X845224Y785243D01*
X845337Y785289D01*
X845473Y785334D01*
X845643Y785379D01*
X845847Y785413D01*
X846085Y785425D01*
X846198D01*
X846322Y785413D01*
X846470Y785391D01*
X846640Y785357D01*
X846821Y785300D01*
X846991Y785232D01*
X847150Y785130D01*
X847161Y785119D01*
X847183Y785096D01*
X847229Y785062D01*
X847274Y785005D01*
X847319Y784937D01*
X847365Y784847D01*
X847387Y784756D01*
X847399Y784643D01*
Y784632D01*
Y784598D01*
X847387Y784541D01*
X847365Y784484D01*
X847342Y784405D01*
X847308Y784326D01*
X847251Y784246D01*
X847172Y784167D01*
X847161Y784156D01*
X847104Y784122D01*
X847070Y784099D01*
X847013Y784077D01*
X846957Y784043D01*
X846878Y784008D01*
X846787Y783975D01*
X846685Y783929D01*
X846560Y783884D01*
X846436Y783839D01*
X846277Y783793D01*
X846107Y783748D01*
X845926Y783703D01*
X845722Y783646D01*
X845711D01*
X845665Y783635D01*
X845609Y783623D01*
X845529Y783601D01*
X845439Y783578D01*
X845326Y783544D01*
X845201Y783510D01*
X845076Y783476D01*
X844805Y783385D01*
X844521Y783295D01*
X844249Y783193D01*
X844136Y783136D01*
X844023Y783080D01*
X844012D01*
X844000Y783068D01*
X843932Y783023D01*
X843830Y782955D01*
X843706Y782864D01*
X843570Y782751D01*
X843422Y782615D01*
X843275Y782457D01*
X843150Y782275D01*
X843139Y782253D01*
X843105Y782185D01*
X843049Y782083D01*
X842992Y781935D01*
X842935Y781754D01*
X842879Y781539D01*
X842845Y781301D01*
X842833Y781029D01*
Y778639D01*
Y780916D01*
X842845Y780859D01*
X842856Y780780D01*
X842879Y780621D01*
X842924Y780417D01*
X842992Y780202D01*
X843094Y779987D01*
X843219Y779760D01*
Y779749D01*
X843241Y779738D01*
X843287Y779670D01*
X843377Y779557D01*
X843490Y779432D01*
X843638Y779285D01*
X843830Y779149D01*
X844034Y779013D01*
X844283Y778888D01*
X844295D01*
X844317Y778877D01*
X844351Y778865D01*
X844408Y778843D01*
X844476Y778820D01*
X844555Y778798D01*
X844646Y778775D01*
X844748Y778752D01*
X844873Y778718D01*
X844997Y778696D01*
X845292Y778650D01*
X845620Y778616D01*
X845982Y778605D01*
X846130D01*
X846232Y778616D01*
X846357Y778627D01*
X846492Y778639D01*
X846651Y778661D01*
X846821Y778696D01*
X847195Y778775D01*
X847387Y778831D01*
X847569Y778888D01*
X847761Y778967D01*
X847942Y779058D01*
X848112Y779160D01*
X848271Y779285D01*
X848282Y779296D01*
X848305Y779319D01*
X848350Y779352D01*
X848396Y779409D01*
X848464Y779489D01*
X848531Y779579D01*
X848611Y779681D01*
X848690Y779794D01*
X848769Y779930D01*
X848849Y780078D01*
X848928Y780247D01*
X849007Y780429D01*
X849064Y780621D01*
X849132Y780837D01*
X849177Y781063D01*
X849211Y781301D01*
X847671Y781448D01*
Y781437D01*
X847659Y781414D01*
Y781369D01*
X847648Y781324D01*
X847603Y781188D01*
X847546Y781018D01*
X847478Y780825D01*
X847376Y780633D01*
X847263Y780463D01*
X847115Y780304D01*
X847093Y780293D01*
X847036Y780247D01*
X846946Y780191D01*
X846810Y780123D01*
X846640Y780055D01*
X846447Y779998D01*
X846220Y779953D01*
X845960Y779942D01*
X845835D01*
X845699Y779964D01*
X845529Y779987D01*
X845348Y780021D01*
X845156Y780078D01*
X844974Y780157D01*
X844816Y780259D01*
X844793Y780270D01*
X844748Y780315D01*
X844691Y780383D01*
X844612Y780474D01*
X844544Y780587D01*
X844476Y780723D01*
X844431Y780859D01*
X844419Y781018D01*
Y781029D01*
Y781063D01*
X844431Y781120D01*
X844442Y781188D01*
X844465Y781256D01*
X844487Y781335D01*
X844533Y781414D01*
X844589Y781494D01*
X844601Y781505D01*
X844623Y781528D01*
X844657Y781562D01*
X844714Y781607D01*
X844793Y781664D01*
X844895Y781720D01*
X845008Y781777D01*
X845156Y781833D01*
X845167D01*
X845212Y781856D01*
X845292Y781879D01*
X845348Y781901D01*
X845416Y781913D01*
X845496Y781935D01*
X845586Y781969D01*
X845688Y781992D01*
X845801Y782026D01*
X845937Y782060D01*
X846085Y782094D01*
X846243Y782139D01*
X846424Y782185D01*
X846436D01*
X846481Y782196D01*
X846549Y782219D01*
X846628Y782241D01*
X846730Y782275D01*
X846855Y782309D01*
X846980Y782355D01*
X847127Y782400D01*
X847421Y782513D01*
X847705Y782649D01*
X847852Y782717D01*
X847976Y782796D01*
X848101Y782876D01*
X848203Y782955D01*
X848214Y782966D01*
X848237Y782989D01*
X848271Y783023D01*
X848316Y783068D01*
X848373Y783136D01*
X848430Y783215D01*
X848497Y783295D01*
X848554Y783397D01*
X848690Y783635D01*
X848803Y783907D01*
X848849Y784054D01*
X848883Y784201D01*
X848905Y784371D01*
X848917Y784541D01*
Y784552D01*
Y784564D01*
Y784598D01*
Y784643D01*
X848894Y784756D01*
X848871Y784903D01*
X848837Y785073D01*
X848781Y785266D01*
X848701Y785470D01*
X848588Y785663D01*
Y785674D01*
X848577Y785685D01*
X848520Y785753D01*
X848452Y785844D01*
X848339Y785957D01*
X848203Y786082D01*
X848033Y786218D01*
X847840Y786342D01*
X847614Y786456D01*
X847603D01*
X847580Y786467D01*
X847546Y786478D01*
X847501Y786501D01*
X847433Y786523D01*
X847365Y786546D01*
X847274Y786569D01*
X847172Y786603D01*
X846946Y786648D01*
X846685Y786693D01*
X846391Y786727D01*
X846062Y786739D01*
D02*
G37*
G36*
X917737Y776890D02*
X916207D01*
X912968Y771611D01*
Y776890D01*
X911506D01*
Y769051D01*
X917737D01*
Y776890D01*
D02*
G37*
G36*
X875754Y776890D02*
X873386D01*
X871981Y771531D01*
X870588Y776890D01*
X868209D01*
Y769051D01*
X874056D01*
X872752D01*
X874292Y775213D01*
Y769051D01*
X875754D01*
Y776890D01*
D02*
G37*
G36*
X943316Y776890D02*
X941730D01*
Y772630D01*
Y772619D01*
Y772585D01*
Y772540D01*
Y772472D01*
Y772381D01*
Y772290D01*
X941719Y772086D01*
Y771860D01*
X941708Y771645D01*
X941696Y771543D01*
Y771452D01*
X941685Y771384D01*
X941674Y771316D01*
Y771294D01*
X941651Y771237D01*
X941617Y771146D01*
X941572Y771033D01*
X941515Y770908D01*
X941424Y770784D01*
X941322Y770648D01*
X941198Y770535D01*
X941175Y770523D01*
X941130Y770489D01*
X941039Y770444D01*
X940926Y770399D01*
X940767Y770342D01*
X940586Y770297D01*
X940382Y770263D01*
X940144Y770251D01*
X940031D01*
X939918Y770263D01*
X939771Y770285D01*
X939601Y770319D01*
X939442Y770365D01*
X939272Y770433D01*
X939136Y770523D01*
X939125Y770535D01*
X939079Y770568D01*
X939023Y770625D01*
X938955Y770704D01*
X938887Y770806D01*
X938819Y770920D01*
X938762Y771044D01*
X938728Y771192D01*
Y771214D01*
X938717Y771271D01*
X938706Y771373D01*
X938683Y771509D01*
Y771599D01*
X938672Y771701D01*
Y771815D01*
X938660Y771928D01*
Y772064D01*
X938649Y772211D01*
Y772370D01*
Y772540D01*
Y776890D01*
X937063D01*
Y772415D01*
X937074Y772279D01*
Y772132D01*
Y771985D01*
X937097Y771656D01*
X937120Y771316D01*
X937131Y771169D01*
X937154Y771022D01*
X937176Y770886D01*
X937199Y770761D01*
Y770750D01*
X937210Y770739D01*
Y770704D01*
X937222Y770670D01*
X937256Y770557D01*
X937301Y770421D01*
X937369Y770263D01*
X937448Y770104D01*
X937550Y769934D01*
X937675Y769775D01*
X937686Y769753D01*
X937731Y769708D01*
X937811Y769640D01*
X937913Y769549D01*
X938048Y769447D01*
X938207Y769345D01*
X938388Y769232D01*
X938592Y769141D01*
X938604D01*
X938615Y769130D01*
X938649Y769118D01*
X938694Y769107D01*
X938751Y769084D01*
X938819Y769062D01*
X938910Y769039D01*
X939000Y769028D01*
X939215Y768983D01*
X939476Y768937D01*
X939771Y768915D01*
X940099Y768903D01*
X940280D01*
X940382Y768915D01*
X940484D01*
X940609Y768926D01*
X940733Y768937D01*
X941005Y768960D01*
X941289Y769005D01*
X941572Y769073D01*
X941696Y769107D01*
X941810Y769153D01*
X941821D01*
X941832Y769164D01*
X941900Y769198D01*
X942013Y769254D01*
X942138Y769334D01*
X942285Y769436D01*
X942444Y769549D01*
X942591Y769685D01*
X942727Y769832D01*
X942738Y769855D01*
X942784Y769900D01*
X942840Y769991D01*
X942908Y770104D01*
X942976Y770229D01*
X943056Y770376D01*
X943112Y770535D01*
X943169Y770704D01*
Y770716D01*
X943180Y770739D01*
Y770772D01*
X943192Y770829D01*
X943203Y770897D01*
X943214Y770988D01*
X943226Y771090D01*
X943237Y771203D01*
X943260Y771339D01*
X943271Y771486D01*
X943282Y771645D01*
X943294Y771826D01*
X943305Y772019D01*
Y772234D01*
X943316Y772460D01*
Y768903D01*
Y776890D01*
D02*
G37*
G36*
X900030D02*
X893811D01*
Y775564D01*
X896122D01*
Y769051D01*
X893811D01*
X897708D01*
Y775564D01*
X900030D01*
Y769311D01*
Y776890D01*
D02*
G37*
G36*
X935352Y776833D02*
X929824D01*
X933766D01*
Y770376D01*
X929824D01*
Y769051D01*
X935352D01*
Y776833D01*
D02*
G37*
G36*
X928748Y776890D02*
X927162D01*
Y769051D01*
X928748D01*
Y776890D01*
D02*
G37*
G36*
X923412D02*
X918586D01*
X921736D01*
X918586Y769051D01*
X920297D01*
X920977Y770829D01*
X924126D01*
X924772Y769051D01*
X926448D01*
X923412Y776890D01*
D02*
G37*
G36*
X881406D02*
X879730D01*
X876581Y769051D01*
D01*
X884443Y769051D01*
D01*
X881406Y776890D01*
D02*
G37*
G36*
X866600Y776890D02*
X860789D01*
Y775564D01*
X865014D01*
Y773831D01*
X861083D01*
Y772506D01*
X865014D01*
Y770376D01*
X860642D01*
Y769051D01*
X866600D01*
Y776890D01*
D02*
G37*
G36*
X946568Y776890D02*
X944982D01*
Y771679D01*
X944993Y771577D01*
X945004Y771361D01*
X945027Y771124D01*
X945061Y770874D01*
X945106Y770625D01*
X945163Y770410D01*
Y770399D01*
X945174Y770376D01*
X945185Y770342D01*
X945208Y770297D01*
X945265Y770172D01*
X945355Y770013D01*
X945469Y769844D01*
X945616Y769662D01*
X945786Y769481D01*
X946001Y769311D01*
X946012D01*
X946024Y769288D01*
X946058Y769277D01*
X946114Y769243D01*
X946171Y769221D01*
X946239Y769186D01*
X946330Y769141D01*
X946420Y769107D01*
X946534Y769073D01*
X946647Y769028D01*
X946919Y768971D01*
X947236Y768926D01*
X947587Y768903D01*
X947700D01*
X947780Y768915D01*
X947882Y768926D01*
X947983Y768937D01*
X948108Y768960D01*
X948244Y768983D01*
X948539Y769062D01*
X948686Y769118D01*
X948833Y769175D01*
X948980Y769254D01*
X949116Y769334D01*
X949252Y769436D01*
X949377Y769549D01*
X949388Y769560D01*
X949400Y769583D01*
X949434Y769617D01*
X949479Y769674D01*
X949524Y769742D01*
X949569Y769821D01*
X949626Y769923D01*
X949683Y770025D01*
X949751Y770161D01*
X949807Y770297D01*
X949853Y770455D01*
X949898Y770625D01*
X949943Y770806D01*
X949977Y771010D01*
X949989Y771226D01*
X950000Y771452D01*
X948493Y771622D01*
Y771611D01*
Y771588D01*
Y771554D01*
X948482Y771509D01*
Y771395D01*
X948459Y771248D01*
X948437Y771090D01*
X948403Y770931D01*
X948357Y770795D01*
X948301Y770670D01*
X948289Y770648D01*
X948255Y770602D01*
X948199Y770535D01*
X948108Y770467D01*
X948006Y770387D01*
X947870Y770319D01*
X947712Y770274D01*
X947530Y770251D01*
X947440D01*
X947349Y770263D01*
X947247Y770285D01*
X947123Y770319D01*
X946998Y770376D01*
X946885Y770444D01*
X946794Y770546D01*
X946783Y770557D01*
X946760Y770614D01*
X946726Y770693D01*
X946681Y770818D01*
X946658Y770897D01*
X946636Y770988D01*
X946624Y771090D01*
X946601Y771203D01*
X946590Y771339D01*
X946579Y771475D01*
X946568Y771633D01*
Y771803D01*
Y776890D01*
D02*
G37*
G36*
X907201Y777037D02*
X900823D01*
X903916D01*
X903814Y777026D01*
X903689Y777014D01*
X903542Y777003D01*
X903395Y776980D01*
X903225Y776958D01*
X902862Y776879D01*
X902681Y776822D01*
X902500Y776765D01*
X902319Y776686D01*
X902149Y776595D01*
X901990Y776493D01*
X901843Y776380D01*
X901832Y776369D01*
X901809Y776346D01*
X901775Y776312D01*
X901730Y776267D01*
X901673Y776199D01*
X901605Y776120D01*
X901537Y776029D01*
X901458Y775927D01*
X901390Y775802D01*
X901322Y775678D01*
X901254Y775530D01*
X901197Y775372D01*
X901141Y775213D01*
X901095Y775032D01*
X901061Y774851D01*
X901050Y774647D01*
X902636Y774590D01*
Y774601D01*
Y774613D01*
X902659Y774692D01*
X902681Y774794D01*
X902727Y774919D01*
X902783Y775066D01*
X902862Y775202D01*
X902964Y775338D01*
X903078Y775451D01*
X903089Y775462D01*
X903134Y775496D01*
X903214Y775542D01*
X903327Y775587D01*
X903463Y775632D01*
X903633Y775678D01*
X903837Y775712D01*
X904075Y775723D01*
X904188D01*
X904313Y775712D01*
X904460Y775689D01*
X904630Y775655D01*
X904811Y775598D01*
X904981Y775530D01*
X905139Y775428D01*
X905151Y775417D01*
X905173Y775394D01*
X905219Y775360D01*
X905264Y775304D01*
X905310Y775236D01*
X905355Y775145D01*
X905377Y775055D01*
X905389Y774941D01*
Y774930D01*
Y774896D01*
X905377Y774839D01*
X905355Y774783D01*
X905332Y774703D01*
X905298Y774624D01*
X905241Y774545D01*
X905162Y774465D01*
X905151Y774454D01*
X905094Y774420D01*
X905060Y774398D01*
X905004Y774375D01*
X904947Y774341D01*
X904868Y774307D01*
X904777Y774273D01*
X904675Y774228D01*
X904550Y774182D01*
X904426Y774137D01*
X904267Y774092D01*
X904097Y774046D01*
X903916Y774001D01*
X903712Y773944D01*
X903701D01*
X903655Y773933D01*
X903599Y773922D01*
X903520Y773899D01*
X903429Y773876D01*
X903316Y773842D01*
X903191Y773809D01*
X903066Y773774D01*
X902795Y773684D01*
X902511Y773593D01*
X902240Y773491D01*
X902126Y773435D01*
X902013Y773378D01*
X902002D01*
X901990Y773367D01*
X901922Y773321D01*
X901820Y773253D01*
X901696Y773163D01*
X901560Y773049D01*
X901413Y772914D01*
X901265Y772755D01*
X901141Y772574D01*
X901129Y772551D01*
X901095Y772483D01*
X901039Y772381D01*
X900982Y772234D01*
X900925Y772053D01*
X900869Y771837D01*
X900835Y771599D01*
X900823Y771328D01*
Y771214D01*
X900835Y771158D01*
X900846Y771078D01*
X900869Y770920D01*
X900914Y770716D01*
X900982Y770501D01*
X901084Y770285D01*
X901209Y770059D01*
Y770047D01*
X901231Y770036D01*
X901277Y769968D01*
X901367Y769855D01*
X901480Y769730D01*
X901628Y769583D01*
X901820Y769447D01*
X902024Y769311D01*
X902273Y769186D01*
X902285D01*
X902307Y769175D01*
X902341Y769164D01*
X902398Y769141D01*
X902466Y769118D01*
X902545Y769096D01*
X902636Y769073D01*
X902738Y769051D01*
X902862Y769016D01*
X902987Y768994D01*
X903282Y768949D01*
X903610Y768915D01*
X903972Y768903D01*
X904120D01*
X904222Y768915D01*
X904347Y768926D01*
X904482Y768937D01*
X904641Y768960D01*
X904811Y768994D01*
X905185Y769073D01*
X905377Y769130D01*
X905559Y769186D01*
X905751Y769266D01*
X905932Y769356D01*
X906103Y769458D01*
X906261Y769583D01*
X906272Y769594D01*
X906295Y769617D01*
X906340Y769651D01*
X906386Y769708D01*
X906454Y769787D01*
X906522Y769877D01*
X906601Y769979D01*
X906680Y770093D01*
X906759Y770229D01*
X906839Y770376D01*
X906918Y770546D01*
X906997Y770727D01*
X907054Y770920D01*
X907122Y771135D01*
X907167Y771361D01*
X907201Y771599D01*
X905661Y771747D01*
Y771735D01*
X905649Y771713D01*
Y771667D01*
X905638Y771622D01*
X905593Y771486D01*
X905536Y771316D01*
X905468Y771124D01*
X905366Y770931D01*
X905253Y770761D01*
X905106Y770602D01*
X905083Y770591D01*
X905026Y770546D01*
X904936Y770489D01*
X904800Y770421D01*
X904630Y770353D01*
X904437Y770297D01*
X904211Y770251D01*
X903950Y770240D01*
X903825D01*
X903689Y770263D01*
X903520Y770285D01*
X903338Y770319D01*
X903146Y770376D01*
X902964Y770455D01*
X902806Y770557D01*
X902783Y770568D01*
X902738Y770614D01*
X902681Y770682D01*
X902602Y770772D01*
X902534Y770886D01*
X902466Y771022D01*
X902421Y771158D01*
X902409Y771316D01*
Y771328D01*
Y771361D01*
X902421Y771418D01*
X902432Y771486D01*
X902455Y771554D01*
X902477Y771633D01*
X902523Y771713D01*
X902579Y771792D01*
X902591Y771803D01*
X902613Y771826D01*
X902647Y771860D01*
X902704Y771905D01*
X902783Y771962D01*
X902885Y772019D01*
X902999Y772075D01*
X903146Y772132D01*
X903157D01*
X903202Y772154D01*
X903282Y772177D01*
X903338Y772200D01*
X903406Y772211D01*
X903486Y772234D01*
X903576Y772268D01*
X903678Y772290D01*
X903792Y772324D01*
X903927Y772358D01*
X904075Y772392D01*
X904233Y772438D01*
X904415Y772483D01*
X904426D01*
X904471Y772494D01*
X904539Y772517D01*
X904618Y772540D01*
X904720Y772574D01*
X904845Y772608D01*
X904970Y772653D01*
X905117Y772698D01*
X905411Y772812D01*
X905695Y772947D01*
X905842Y773016D01*
X905966Y773095D01*
X906091Y773174D01*
X906193Y773253D01*
X906204Y773265D01*
X906227Y773287D01*
X906261Y773321D01*
X906306Y773367D01*
X906363Y773435D01*
X906420Y773514D01*
X906488Y773593D01*
X906544Y773695D01*
X906680Y773933D01*
X906794Y774205D01*
X906839Y774352D01*
X906873Y774500D01*
X906895Y774669D01*
X906907Y774839D01*
Y774851D01*
Y774862D01*
Y774896D01*
Y774941D01*
X906884Y775055D01*
X906861Y775202D01*
X906827Y775372D01*
X906771Y775564D01*
X906692Y775768D01*
X906578Y775961D01*
Y775972D01*
X906567Y775984D01*
X906510Y776051D01*
X906442Y776142D01*
X906329Y776255D01*
X906193Y776380D01*
X906023Y776516D01*
X905831Y776641D01*
X905604Y776754D01*
X905593D01*
X905570Y776765D01*
X905536Y776777D01*
X905491Y776799D01*
X905423Y776822D01*
X905355Y776844D01*
X905264Y776867D01*
X905162Y776901D01*
X904936Y776946D01*
X904675Y776992D01*
X904380Y777026D01*
X904052Y777037D01*
X907201D01*
D02*
G37*
G36*
X886912Y776890D02*
X885326D01*
Y768903D01*
D01*
Y771679D01*
X885338Y771577D01*
X885349Y771361D01*
X885371Y771124D01*
X885406Y770874D01*
X885451Y770625D01*
X885507Y770410D01*
Y770399D01*
X885519Y770376D01*
X885530Y770342D01*
X885553Y770297D01*
X885609Y770172D01*
X885700Y770013D01*
X885813Y769844D01*
X885961Y769662D01*
X886131Y769481D01*
X886346Y769311D01*
X886357D01*
X886368Y769288D01*
X886402Y769277D01*
X886459Y769243D01*
X886516Y769221D01*
X886584Y769186D01*
X886674Y769141D01*
X886765Y769107D01*
X886878Y769073D01*
X886991Y769028D01*
X887263Y768971D01*
X887580Y768926D01*
X887932Y768903D01*
X888045D01*
X888124Y768915D01*
X888226Y768926D01*
X888328Y768937D01*
X888453Y768960D01*
X888589Y768983D01*
X888883Y769062D01*
X889031Y769118D01*
X889178Y769175D01*
X889325Y769254D01*
X889461Y769334D01*
X889597Y769436D01*
X889722Y769549D01*
X889733Y769560D01*
X889744Y769583D01*
X889778Y769617D01*
X889824Y769674D01*
X889869Y769742D01*
X889914Y769821D01*
X889971Y769923D01*
X890027Y770025D01*
X890095Y770161D01*
X890152Y770297D01*
X890197Y770455D01*
X890243Y770625D01*
X890288Y770806D01*
X890322Y771010D01*
X890333Y771226D01*
X890345Y771452D01*
X888838Y771622D01*
Y771611D01*
Y771588D01*
Y771554D01*
X888827Y771509D01*
Y771395D01*
X888804Y771248D01*
X888781Y771090D01*
X888747Y770931D01*
X888702Y770795D01*
X888645Y770670D01*
X888634Y770648D01*
X888600Y770602D01*
X888543Y770535D01*
X888453Y770467D01*
X888351Y770387D01*
X888215Y770319D01*
X888056Y770274D01*
X887875Y770251D01*
X887784D01*
X887694Y770263D01*
X887592Y770285D01*
X887467Y770319D01*
X887343Y770376D01*
X887229Y770444D01*
X887139Y770546D01*
X887127Y770557D01*
X887105Y770614D01*
X887071Y770693D01*
X887025Y770818D01*
X887003Y770897D01*
X886980Y770988D01*
X886969Y771090D01*
X886946Y771203D01*
X886935Y771339D01*
X886924Y771475D01*
X886912Y771633D01*
Y771803D01*
Y776890D01*
D02*
G37*
G36*
X856563Y777037D02*
X856427D01*
X856326Y777026D01*
X856201Y777014D01*
X856054Y777003D01*
X855906Y776980D01*
X855736Y776958D01*
X855374Y776878D01*
X855193Y776822D01*
X855011Y776765D01*
X854830Y776686D01*
X854660Y776595D01*
X854502Y776493D01*
X854354Y776380D01*
X854343Y776369D01*
X854320Y776346D01*
X854286Y776312D01*
X854241Y776267D01*
X854184Y776199D01*
X854116Y776119D01*
X854048Y776029D01*
X853969Y775927D01*
X853901Y775802D01*
X853833Y775678D01*
X853765Y775530D01*
X853709Y775372D01*
X853652Y775213D01*
X853607Y775032D01*
X853573Y774851D01*
X853561Y774647D01*
X855147Y774590D01*
Y774601D01*
Y774613D01*
X855170Y774692D01*
X855193Y774794D01*
X855238Y774919D01*
X855295Y775066D01*
X855374Y775202D01*
X855476Y775338D01*
X855589Y775451D01*
X855600Y775462D01*
X855646Y775496D01*
X855725Y775542D01*
X855838Y775587D01*
X855974Y775632D01*
X856144Y775678D01*
X856348Y775712D01*
X856586Y775723D01*
X856699D01*
X856824Y775712D01*
X856971Y775689D01*
X857141Y775655D01*
X857322Y775598D01*
X857492Y775530D01*
X857651Y775428D01*
X857662Y775417D01*
X857685Y775394D01*
X857730Y775360D01*
X857775Y775304D01*
X857821Y775236D01*
X857866Y775145D01*
X857889Y775055D01*
X857900Y774941D01*
Y774930D01*
Y774896D01*
X857889Y774839D01*
X857866Y774783D01*
X857843Y774703D01*
X857810Y774624D01*
X857753Y774545D01*
X857673Y774465D01*
X857662Y774454D01*
X857606Y774420D01*
X857572Y774398D01*
X857515Y774375D01*
X857458Y774341D01*
X857379Y774307D01*
X857288Y774273D01*
X857186Y774228D01*
X857062Y774182D01*
X856937Y774137D01*
X856779Y774092D01*
X856609Y774046D01*
X856427Y774001D01*
X856224Y773944D01*
X856212D01*
X856167Y773933D01*
X856110Y773922D01*
X856031Y773899D01*
X855940Y773876D01*
X855827Y773842D01*
X855702Y773808D01*
X855578Y773774D01*
X855306Y773684D01*
X855023Y773593D01*
X854751Y773491D01*
X854638Y773435D01*
X854524Y773378D01*
X854513D01*
X854502Y773367D01*
X854434Y773321D01*
X854332Y773253D01*
X854207Y773163D01*
X854071Y773049D01*
X853924Y772914D01*
X853777Y772755D01*
X853652Y772574D01*
X853641Y772551D01*
X853607Y772483D01*
X853550Y772381D01*
X853493Y772234D01*
X853437Y772053D01*
X853380Y771837D01*
X853346Y771599D01*
X853335Y771328D01*
Y771214D01*
X853346Y771158D01*
X853357Y771078D01*
X853380Y770920D01*
X853425Y770716D01*
X853493Y770500D01*
X853595Y770285D01*
X853720Y770059D01*
Y770047D01*
X853743Y770036D01*
X853788Y769968D01*
X853878Y769855D01*
X853992Y769730D01*
X854139Y769583D01*
X854332Y769447D01*
X854536Y769311D01*
X854785Y769186D01*
X854796D01*
X854819Y769175D01*
X854853Y769164D01*
X854909Y769141D01*
X854977Y769118D01*
X855057Y769096D01*
X855147Y769073D01*
X855249Y769051D01*
X855374Y769016D01*
X855499Y768994D01*
X855793Y768949D01*
X856122Y768915D01*
X856484Y768903D01*
X856631D01*
X856733Y768915D01*
X856858Y768926D01*
X856994Y768937D01*
X857152Y768960D01*
X857322Y768994D01*
X857696Y769073D01*
X857889Y769130D01*
X858070Y769186D01*
X858263Y769266D01*
X858444Y769356D01*
X858614Y769458D01*
X858772Y769583D01*
X858784Y769594D01*
X858806Y769617D01*
X858852Y769651D01*
X858897Y769708D01*
X858965Y769787D01*
X859033Y769877D01*
X859112Y769979D01*
X859192Y770093D01*
X859271Y770229D01*
X859350Y770376D01*
X859429Y770546D01*
X859509Y770727D01*
X859565Y770920D01*
X859633Y771135D01*
X859679Y771361D01*
X859713Y771599D01*
X858172Y771747D01*
Y771735D01*
X858161Y771713D01*
Y771667D01*
X858149Y771622D01*
X858104Y771486D01*
X858047Y771316D01*
X857979Y771124D01*
X857878Y770931D01*
X857764Y770761D01*
X857617Y770602D01*
X857594Y770591D01*
X857538Y770546D01*
X857447Y770489D01*
X857311Y770421D01*
X857141Y770353D01*
X856948Y770297D01*
X856722Y770251D01*
X856461Y770240D01*
X856337D01*
X856201Y770263D01*
X856031Y770285D01*
X855850Y770319D01*
X855657Y770376D01*
X855476Y770455D01*
X855317Y770557D01*
X855295Y770568D01*
X855249Y770614D01*
X855193Y770682D01*
X855113Y770772D01*
X855045Y770886D01*
X854977Y771022D01*
X854932Y771158D01*
X854921Y771316D01*
Y771328D01*
Y771361D01*
X854932Y771418D01*
X854943Y771486D01*
X854966Y771554D01*
X854989Y771633D01*
X855034Y771713D01*
X855091Y771792D01*
X855102Y771803D01*
X855125Y771826D01*
X855159Y771860D01*
X855215Y771905D01*
X855295Y771962D01*
X855396Y772019D01*
X855510Y772075D01*
X855657Y772132D01*
X855668D01*
X855714Y772154D01*
X855793Y772177D01*
X855850Y772200D01*
X855918Y772211D01*
X855997Y772234D01*
X856088Y772268D01*
X856189Y772290D01*
X856303Y772324D01*
X856439Y772358D01*
X856586Y772392D01*
X856745Y772438D01*
X856926Y772483D01*
X856937D01*
X856982Y772494D01*
X857050Y772517D01*
X857130Y772540D01*
X857232Y772574D01*
X857356Y772608D01*
X857481Y772653D01*
X857628Y772698D01*
X857923Y772812D01*
X858206Y772947D01*
X858353Y773015D01*
X858478Y773095D01*
X858603Y773174D01*
X858704Y773253D01*
X858716Y773265D01*
X858738Y773287D01*
X858772Y773321D01*
X858818Y773367D01*
X858874Y773435D01*
X858931Y773514D01*
X858999Y773593D01*
X859056Y773695D01*
X859192Y773933D01*
X859305Y774205D01*
X859350Y774352D01*
X859384Y774500D01*
X859407Y774669D01*
X859418Y774839D01*
Y774851D01*
Y774862D01*
Y774896D01*
Y774941D01*
X859396Y775055D01*
X859373Y775202D01*
X859339Y775372D01*
X859282Y775564D01*
X859203Y775768D01*
X859090Y775961D01*
Y775972D01*
X859078Y775984D01*
X859022Y776051D01*
X858954Y776142D01*
X858840Y776255D01*
X858704Y776380D01*
X858534Y776516D01*
X858342Y776640D01*
X858115Y776754D01*
X858104D01*
X858081Y776765D01*
X858047Y776777D01*
X858002Y776799D01*
X857934Y776822D01*
X857866Y776844D01*
X857775Y776867D01*
X857673Y776901D01*
X857447Y776946D01*
X857186Y776992D01*
X856892Y777026D01*
X856563Y777037D01*
D02*
G37*
G36*
X941289Y767188D02*
X939703D01*
Y764107D01*
X936610D01*
Y767188D01*
X938156D01*
X935024D01*
Y759349D01*
X936610D01*
Y762781D01*
X939703D01*
Y759349D01*
X938156D01*
X941289D01*
Y767188D01*
D02*
G37*
G36*
X898297D02*
X896451D01*
X894604Y764084D01*
X892803Y767188D01*
X895582D01*
X890979D01*
X893845Y762634D01*
Y759349D01*
X890979D01*
X887943Y767188D01*
X886266D01*
X883117Y759349D01*
D01*
X895431D01*
Y762645D01*
X898297Y767188D01*
D02*
G37*
G36*
X870293Y767335D02*
X870214D01*
X870124Y767324D01*
X870010D01*
X869863Y767301D01*
X869693Y767279D01*
X869500Y767245D01*
X869296Y767199D01*
X869081Y767143D01*
X868855Y767075D01*
X868628Y766984D01*
X868390Y766882D01*
X868164Y766758D01*
X867937Y766610D01*
X867722Y766441D01*
X867518Y766248D01*
X867507Y766236D01*
X867473Y766203D01*
X867416Y766135D01*
X867359Y766055D01*
X867280Y765942D01*
X867189Y765806D01*
X867099Y765648D01*
X866997Y765466D01*
X866895Y765274D01*
X866804Y765047D01*
X866714Y764798D01*
X866634Y764537D01*
X866566Y764243D01*
X866521Y763937D01*
X866487Y763608D01*
X866476Y763257D01*
Y763269D01*
Y763178D01*
X866487Y763076D01*
Y762940D01*
X866510Y762781D01*
X866532Y762600D01*
X866566Y762385D01*
X866600Y762170D01*
X866657Y761932D01*
X866725Y761683D01*
X866816Y761433D01*
X866917Y761184D01*
X867031Y760946D01*
X867178Y760708D01*
X867337Y760482D01*
X867518Y760266D01*
X867529Y760255D01*
X867563Y760221D01*
X867620Y760164D01*
X867710Y760097D01*
X867812Y760017D01*
X867937Y759927D01*
X868084Y759836D01*
X868243Y759734D01*
X868436Y759632D01*
X868639Y759541D01*
X868866Y759451D01*
X869115Y759371D01*
X869376Y759304D01*
X869659Y759247D01*
X869954Y759213D01*
X870270Y759202D01*
X870350D01*
X870441Y759213D01*
X870554Y759224D01*
X870701Y759236D01*
X870871Y759258D01*
X871064Y759292D01*
X871268Y759337D01*
X871494Y759394D01*
X871709Y759462D01*
X871947Y759553D01*
X872174Y759655D01*
X872412Y759768D01*
X872627Y759915D01*
X872842Y760074D01*
X873046Y760266D01*
X873057Y760278D01*
X873092Y760312D01*
X873137Y760380D01*
X873205Y760459D01*
X873284Y760572D01*
X873375Y760708D01*
X873465Y760856D01*
X873556Y761037D01*
X873658Y761229D01*
X873748Y761456D01*
X873839Y761694D01*
X873919Y761954D01*
X873986Y762238D01*
X874032Y762543D01*
X874066Y762872D01*
X874077Y763212D01*
Y759202D01*
Y763325D01*
X874066Y763416D01*
Y763518D01*
X874054Y763631D01*
X874043Y763767D01*
X874032Y763914D01*
X873986Y764231D01*
X873930Y764571D01*
X873839Y764911D01*
X873726Y765228D01*
Y765240D01*
X873715Y765251D01*
X873692Y765285D01*
X873681Y765330D01*
X873613Y765444D01*
X873533Y765591D01*
X873431Y765761D01*
X873307Y765931D01*
X873159Y766123D01*
X873001Y766304D01*
X872990Y766316D01*
X872978Y766327D01*
X872922Y766384D01*
X872820Y766474D01*
X872695Y766576D01*
X872548Y766690D01*
X872378Y766814D01*
X872185Y766928D01*
X871981Y767018D01*
X871970D01*
X871947Y767029D01*
X871902Y767052D01*
X871845Y767064D01*
X871777Y767097D01*
X871698Y767120D01*
X871596Y767143D01*
X871494Y767177D01*
X871245Y767233D01*
X870962Y767290D01*
X870633Y767324D01*
X870293Y767335D01*
D02*
G37*
G36*
X916343Y767188D02*
X913217D01*
X913126Y767177D01*
X912911Y767166D01*
X912673Y767154D01*
X912424Y767120D01*
X912186Y767086D01*
X911971Y767030D01*
X911959D01*
X911937Y767018D01*
X911903Y767007D01*
X911857Y766996D01*
X911721Y766939D01*
X911563Y766860D01*
X911382Y766758D01*
X911178Y766633D01*
X910985Y766486D01*
X910792Y766304D01*
X910781D01*
X910770Y766282D01*
X910713Y766214D01*
X910622Y766101D01*
X910520Y765953D01*
X910396Y765772D01*
X910271Y765557D01*
X910147Y765308D01*
X910045Y765036D01*
Y765024D01*
X910033Y765002D01*
X910022Y764957D01*
X909999Y764900D01*
X909988Y764832D01*
X909965Y764741D01*
X909943Y764639D01*
X909909Y764526D01*
X909886Y764401D01*
X909864Y764254D01*
X909841Y764107D01*
X909829Y763937D01*
X909796Y763586D01*
X909784Y763189D01*
Y763223D01*
Y763189D01*
Y763031D01*
X909796Y762940D01*
Y762849D01*
X909807Y762736D01*
X909818Y762611D01*
X909841Y762351D01*
X909886Y762079D01*
X909954Y761796D01*
X910033Y761524D01*
Y761513D01*
X910045Y761490D01*
X910067Y761445D01*
X910090Y761377D01*
X910113Y761309D01*
X910158Y761229D01*
X910249Y761025D01*
X910362Y760810D01*
X910509Y760572D01*
X910679Y760346D01*
X910872Y760131D01*
X910894Y760108D01*
X910951Y760063D01*
X911042Y759995D01*
X911166Y759904D01*
X911325Y759802D01*
X911506Y759700D01*
X911733Y759598D01*
X911982Y759508D01*
X911993D01*
X912005Y759496D01*
X912038D01*
X912073Y759485D01*
X912197Y759462D01*
X912356Y759428D01*
X912548Y759394D01*
X912786Y759372D01*
X913069Y759360D01*
X913375Y759349D01*
X916343D01*
Y767188D01*
D02*
G37*
G36*
X933404D02*
X931036D01*
X929632Y761830D01*
X928238Y767188D01*
X925859D01*
Y759349D01*
X933404D01*
Y767188D01*
D02*
G37*
G36*
X866000Y767188D02*
X864380D01*
X863202Y761796D01*
X861774Y767188D01*
X859871D01*
X858512Y761705D01*
X857311Y767188D01*
X855714D01*
X857606Y759349D01*
X855714D01*
D01*
X866000D01*
X864142D01*
X866000Y767188D01*
D02*
G37*
G36*
X878665Y767335D02*
X877948D01*
X878529D01*
X878427Y767324D01*
X878303Y767313D01*
X878155Y767301D01*
X877997Y767290D01*
X877827Y767256D01*
X877464Y767188D01*
X877090Y767075D01*
X876898Y767007D01*
X876717Y766928D01*
X876547Y766837D01*
X876388Y766724D01*
X876377Y766712D01*
X876354Y766701D01*
X876309Y766656D01*
X876252Y766610D01*
X876184Y766554D01*
X876116Y766474D01*
X876037Y766384D01*
X875946Y766282D01*
X875856Y766169D01*
X875765Y766044D01*
X875674Y765908D01*
X875595Y765749D01*
X875504Y765591D01*
X875436Y765421D01*
X875368Y765228D01*
X875323Y765036D01*
X876898Y764741D01*
Y764753D01*
X876909Y764764D01*
X876932Y764832D01*
X876977Y764934D01*
X877045Y765070D01*
X877124Y765217D01*
X877238Y765364D01*
X877374Y765511D01*
X877532Y765648D01*
X877555Y765659D01*
X877611Y765704D01*
X877713Y765761D01*
X877838Y765817D01*
X878008Y765885D01*
X878201Y765931D01*
X878416Y765976D01*
X878665Y765987D01*
X878767D01*
X878835Y765976D01*
X878926Y765965D01*
X879028Y765953D01*
X879141Y765931D01*
X879266Y765908D01*
X879526Y765829D01*
X879662Y765772D01*
X879798Y765704D01*
X879934Y765625D01*
X880070Y765546D01*
X880194Y765432D01*
X880319Y765319D01*
X880330Y765308D01*
X880342Y765285D01*
X880376Y765251D01*
X880410Y765194D01*
X880455Y765126D01*
X880512Y765047D01*
X880568Y764945D01*
X880614Y764832D01*
X880670Y764696D01*
X880727Y764549D01*
X880783Y764390D01*
X880829Y764220D01*
X880863Y764027D01*
X880897Y763812D01*
X880908Y763597D01*
X880919Y763359D01*
Y763348D01*
Y763303D01*
Y763223D01*
X880908Y763133D01*
X880897Y763008D01*
X880885Y762883D01*
X880863Y762725D01*
X880840Y762566D01*
X880772Y762226D01*
X880659Y761875D01*
X880591Y761705D01*
X880512Y761547D01*
X880410Y761388D01*
X880308Y761252D01*
X880296Y761241D01*
X880274Y761218D01*
X880240Y761184D01*
X880194Y761139D01*
X880126Y761094D01*
X880059Y761025D01*
X879968Y760969D01*
X879866Y760901D01*
X879753Y760833D01*
X879639Y760776D01*
X879356Y760663D01*
X879197Y760618D01*
X879039Y760584D01*
X878858Y760561D01*
X878676Y760550D01*
X878586D01*
X878495Y760561D01*
X878359Y760572D01*
X878212Y760595D01*
X878042Y760629D01*
X877861Y760674D01*
X877680Y760742D01*
X877668D01*
X877657Y760754D01*
X877600Y760776D01*
X877498Y760822D01*
X877385Y760878D01*
X877249Y760946D01*
X877102Y761025D01*
X876954Y761116D01*
X876818Y761218D01*
Y762226D01*
X878631Y762226D01*
Y763552D01*
X875221Y763552D01*
Y760402D01*
X875244Y760380D01*
X875278Y760357D01*
X875312Y760323D01*
X875368Y760278D01*
X875425Y760232D01*
X875584Y760119D01*
X875799Y759995D01*
X876048Y759847D01*
X876331Y759700D01*
X876671Y759564D01*
X876683D01*
X876717Y759553D01*
X876762Y759530D01*
X876830Y759508D01*
X876920Y759485D01*
X877022Y759451D01*
X877136Y759417D01*
X877260Y759383D01*
X877544Y759315D01*
X877872Y759258D01*
X878212Y759213D01*
X878574Y759202D01*
X878699D01*
X878778Y759213D01*
X878892D01*
X879016Y759224D01*
X879152Y759247D01*
X879311Y759270D01*
X879639Y759326D01*
X880002Y759417D01*
X880376Y759541D01*
X880546Y759621D01*
X880727Y759711D01*
X880738Y759723D01*
X880761Y759734D01*
X880817Y759768D01*
X880874Y759813D01*
X880953Y759859D01*
X881033Y759927D01*
X881135Y760006D01*
X881237Y760097D01*
X881463Y760301D01*
X881690Y760561D01*
X881905Y760856D01*
X882098Y761195D01*
Y761207D01*
X882120Y761241D01*
X882143Y761297D01*
X882166Y761365D01*
X882199Y761456D01*
X882245Y761558D01*
X882279Y761683D01*
X882324Y761818D01*
X882370Y761966D01*
X882403Y762136D01*
X882483Y762487D01*
X882528Y762872D01*
X882551Y763291D01*
Y762940D01*
Y763416D01*
X882539Y763495D01*
Y763608D01*
X882528Y763733D01*
X882505Y763869D01*
X882483Y764027D01*
X882426Y764356D01*
X882336Y764730D01*
X882211Y765104D01*
X882132Y765285D01*
X882041Y765466D01*
X882030Y765478D01*
X882018Y765511D01*
X881984Y765557D01*
X881950Y765625D01*
X881894Y765704D01*
X881826Y765795D01*
X881746Y765897D01*
X881667Y766010D01*
X881565Y766123D01*
X881452Y766248D01*
X881327Y766373D01*
X881191Y766497D01*
X881044Y766610D01*
X880897Y766735D01*
X880546Y766939D01*
X880534D01*
X880512Y766962D01*
X880466Y766973D01*
X880410Y767007D01*
X880330Y767030D01*
X880251Y767064D01*
X880138Y767097D01*
X880024Y767143D01*
X879900Y767177D01*
X879753Y767211D01*
X879594Y767245D01*
X879435Y767279D01*
X879073Y767324D01*
X878665Y767335D01*
D02*
G37*
G36*
X922019Y767188D02*
X920342D01*
X917193Y759349D01*
D01*
X922306D01*
X918904D01*
X919583Y761127D01*
X922732D01*
X923378Y759349D01*
X925055D01*
X922019Y767188D01*
D02*
G37*
G36*
X905389D02*
X901945D01*
X901741Y767177D01*
X901515Y767166D01*
X901288Y767154D01*
X901073Y767132D01*
X900880Y767109D01*
X900857D01*
X900801Y767097D01*
X900722Y767075D01*
X900608Y767041D01*
X900484Y766996D01*
X900348Y766939D01*
X900200Y766871D01*
X900064Y766780D01*
X900053Y766769D01*
X900008Y766735D01*
X899940Y766678D01*
X899849Y766610D01*
X899759Y766508D01*
X899657Y766395D01*
X899555Y766271D01*
X899464Y766123D01*
X899453Y766101D01*
X899430Y766055D01*
X899385Y765965D01*
X899339Y765851D01*
X899294Y765715D01*
X899249Y765568D01*
X899226Y765387D01*
X899215Y765206D01*
Y765194D01*
Y765183D01*
Y765115D01*
X899226Y765013D01*
X899249Y764877D01*
X899294Y764719D01*
X899339Y764549D01*
X899419Y764379D01*
X899521Y764197D01*
X899532Y764175D01*
X899577Y764118D01*
X899645Y764039D01*
X899725Y763937D01*
X899838Y763835D01*
X899974Y763710D01*
X900132Y763608D01*
X900314Y763506D01*
X900302D01*
X900280Y763495D01*
X900246Y763484D01*
X900200Y763472D01*
X900064Y763416D01*
X899906Y763336D01*
X899736Y763246D01*
X899543Y763121D01*
X899373Y762974D01*
X899215Y762793D01*
X899203Y762770D01*
X899158Y762702D01*
X899090Y762600D01*
X899022Y762464D01*
X898954Y762283D01*
X898886Y762090D01*
X898841Y761864D01*
X898830Y761615D01*
Y759349D01*
Y761524D01*
X898841Y761422D01*
X898864Y761286D01*
X898886Y761127D01*
X898932Y760946D01*
X898999Y760765D01*
X899079Y760572D01*
X899090Y760550D01*
X899124Y760493D01*
X899181Y760402D01*
X899260Y760289D01*
X899351Y760153D01*
X899475Y760029D01*
X899600Y759893D01*
X899759Y759768D01*
X899781Y759757D01*
X899838Y759723D01*
X899929Y759666D01*
X900053Y759610D01*
X900212Y759541D01*
X900393Y759485D01*
X900597Y759428D01*
X900823Y759394D01*
X900869D01*
X900914Y759383D01*
X901027D01*
X901107Y759372D01*
X901322D01*
X901458Y759360D01*
X901798D01*
X901990Y759349D01*
X905389D01*
Y767188D01*
D02*
G37*
G36*
X854943Y767188D02*
X853357D01*
Y759349D01*
X854943D01*
Y767188D01*
D02*
G37*
G36*
X866476Y761852D02*
Y759202D01*
D01*
Y761852D01*
D02*
G37*
G36*
X934186Y757486D02*
X932656D01*
X929416Y752207D01*
Y757486D01*
X927955D01*
Y749647D01*
X934186D01*
Y757486D01*
D02*
G37*
G36*
X904981D02*
X903452D01*
X900212Y752207D01*
Y757486D01*
X898750D01*
Y749647D01*
X904981D01*
Y757486D01*
D02*
G37*
G36*
X924001D02*
X922381D01*
X921203Y752094D01*
X919776Y757486D01*
X917845D01*
X917873D01*
X916513Y752004D01*
X915312Y757486D01*
X913715D01*
X915607Y749647D01*
X913715D01*
X917318D01*
X918858Y755504D01*
X920422Y749647D01*
X917991D01*
X922143D01*
D01*
X924001D01*
X922143D01*
X924001Y757486D01*
D02*
G37*
G36*
X939861D02*
X935035D01*
X938185D01*
X935035Y749647D01*
X936746D01*
X937426Y751426D01*
X940575D01*
X941220Y749647D01*
X942897D01*
X939861Y757486D01*
D02*
G37*
G36*
X910657D02*
X908980D01*
X905831Y749647D01*
D01*
X913692D01*
D01*
X910657Y757486D01*
D02*
G37*
%LPD*%
G36*
X906850Y780078D02*
X905457D01*
X905310Y780089D01*
X905151D01*
X904992Y780112D01*
X904845Y780123D01*
X904720Y780146D01*
X904698D01*
X904652Y780168D01*
X904584Y780191D01*
X904494Y780225D01*
X904392Y780270D01*
X904290Y780327D01*
X904188Y780395D01*
X904086Y780474D01*
X904075Y780485D01*
X904041Y780519D01*
X903995Y780576D01*
X903939Y780655D01*
X903882Y780757D01*
X903803Y780882D01*
X903746Y781040D01*
X903678Y781222D01*
Y781233D01*
X903667Y781244D01*
Y781278D01*
X903655Y781324D01*
X903633Y781369D01*
X903622Y781437D01*
X903588Y781607D01*
X903565Y781811D01*
X903531Y782049D01*
X903520Y782343D01*
X903508Y782661D01*
Y782672D01*
Y782706D01*
Y782751D01*
Y782808D01*
Y782887D01*
X903520Y782978D01*
X903531Y783170D01*
X903554Y783397D01*
X903576Y783635D01*
X903622Y783850D01*
X903678Y784054D01*
Y784065D01*
X903689Y784077D01*
X903712Y784133D01*
X903746Y784224D01*
X903792Y784337D01*
X903859Y784450D01*
X903939Y784575D01*
X904029Y784700D01*
X904131Y784813D01*
X904143Y784824D01*
X904177Y784858D01*
X904245Y784903D01*
X904324Y784960D01*
X904437Y785028D01*
X904562Y785085D01*
X904698Y785141D01*
X904856Y785187D01*
X904868D01*
X904924Y785198D01*
X905015Y785209D01*
X905139Y785232D01*
X905219D01*
X905321Y785243D01*
X905423D01*
X905536Y785255D01*
X905672D01*
X905819Y785266D01*
X906850D01*
Y780078D01*
D02*
G37*
G36*
X914882Y778752D02*
X911699D01*
X914882Y783918D01*
Y778752D01*
D02*
G37*
G36*
X877147Y778752D02*
X873964D01*
X877147Y783918D01*
Y778752D01*
D02*
G37*
G36*
X931943Y778752D02*
X930402D01*
X931943Y784915D01*
Y778752D01*
D02*
G37*
G36*
X928873D02*
X927320D01*
X927332Y784915D01*
X928873Y778752D01*
D02*
G37*
G36*
X897210Y785379D02*
X897300Y785368D01*
X897391Y785357D01*
X897617Y785311D01*
X897867Y785221D01*
X898003Y785175D01*
X898139Y785107D01*
X898263Y785028D01*
X898399Y784938D01*
X898524Y784836D01*
X898637Y784711D01*
X898648Y784700D01*
X898660Y784677D01*
X898694Y784643D01*
X898728Y784586D01*
X898773Y784507D01*
X898818Y784428D01*
X898875Y784326D01*
X898932Y784201D01*
X898988Y784065D01*
X899045Y783918D01*
X899090Y783748D01*
X899136Y783567D01*
X899169Y783363D01*
X899203Y783148D01*
X899215Y782921D01*
X899226Y782672D01*
Y782661D01*
Y782615D01*
Y782547D01*
X899215Y782457D01*
X899203Y782343D01*
X899192Y782207D01*
X899169Y782071D01*
X899147Y781913D01*
X899079Y781584D01*
X898966Y781256D01*
X898898Y781086D01*
X898818Y780927D01*
X898716Y780780D01*
X898614Y780644D01*
X898603Y780633D01*
X898580Y780610D01*
X898546Y780576D01*
X898501Y780542D01*
X898445Y780485D01*
X898365Y780429D01*
X898286Y780361D01*
X898184Y780304D01*
X897969Y780168D01*
X897697Y780066D01*
X897550Y780021D01*
X897391Y779987D01*
X897221Y779964D01*
X897051Y779953D01*
X896960D01*
X896892Y779964D01*
X896813Y779976D01*
X896722Y779987D01*
X896507Y780044D01*
X896258Y780123D01*
X896133Y780180D01*
X895997Y780236D01*
X895873Y780315D01*
X895737Y780406D01*
X895612Y780508D01*
X895499Y780633D01*
X895488Y780644D01*
X895476Y780667D01*
X895442Y780701D01*
X895408Y780757D01*
X895352Y780837D01*
X895306Y780927D01*
X895250Y781029D01*
X895193Y781154D01*
X895137Y781290D01*
X895080Y781437D01*
X895023Y781607D01*
X894978Y781799D01*
X894944Y781992D01*
X894910Y782207D01*
X894899Y782445D01*
X894887Y782694D01*
Y782706D01*
Y782751D01*
Y782819D01*
X894899Y782921D01*
X894910Y783034D01*
X894921Y783159D01*
X894933Y783306D01*
X894967Y783453D01*
X895035Y783782D01*
X895137Y784122D01*
X895204Y784292D01*
X895284Y784439D01*
X895386Y784586D01*
X895488Y784722D01*
X895499Y784734D01*
X895510Y784756D01*
X895544Y784779D01*
X895590Y784824D01*
X895658Y784881D01*
X895726Y784938D01*
X895805Y784994D01*
X895907Y785062D01*
X896009Y785119D01*
X896133Y785175D01*
X896394Y785289D01*
X896541Y785334D01*
X896700Y785357D01*
X896870Y785379D01*
X897051Y785391D01*
X897142D01*
X897210Y785379D01*
D02*
G37*
G36*
X947202Y781856D02*
X945038D01*
X946137Y784768D01*
X947202Y781856D01*
D02*
G37*
G36*
X939703Y783272D02*
X938162D01*
X937935Y783283D01*
X937697Y783295D01*
X937459Y783306D01*
X937357Y783317D01*
X937267Y783329D01*
X937176Y783352D01*
X937120Y783363D01*
X937108D01*
X937074Y783385D01*
X937018Y783408D01*
X936961Y783442D01*
X936814Y783544D01*
X936746Y783612D01*
X936678Y783691D01*
X936666Y783703D01*
X936655Y783737D01*
X936621Y783782D01*
X936587Y783850D01*
X936564Y783941D01*
X936531Y784043D01*
X936519Y784156D01*
X936508Y784280D01*
Y784303D01*
Y784348D01*
X936519Y784416D01*
X936531Y784507D01*
X936564Y784609D01*
X936599Y784711D01*
X936655Y784824D01*
X936723Y784915D01*
X936734Y784926D01*
X936757Y784960D01*
X936814Y784994D01*
X936882Y785051D01*
X936961Y785107D01*
X937063Y785153D01*
X937188Y785198D01*
X937324Y785232D01*
X937335D01*
X937369Y785243D01*
X937437D01*
X937539Y785255D01*
X937788D01*
X937890Y785266D01*
X939703D01*
Y783272D01*
D02*
G37*
G36*
X922257Y781856D02*
X920093D01*
X921192Y784768D01*
X922257Y781856D01*
D02*
G37*
G36*
X887377Y783034D02*
X886289D01*
X886210Y783046D01*
X886006D01*
X885802Y783057D01*
X885598Y783080D01*
X885417Y783114D01*
X885338Y783125D01*
X885269Y783148D01*
X885258Y783159D01*
X885213Y783170D01*
X885156Y783204D01*
X885088Y783238D01*
X885009Y783295D01*
X884930Y783363D01*
X884839Y783442D01*
X884771Y783533D01*
X884760Y783544D01*
X884737Y783578D01*
X884714Y783635D01*
X884680Y783714D01*
X884647Y783805D01*
X884613Y783907D01*
X884601Y784020D01*
X884590Y784145D01*
Y784167D01*
Y784212D01*
X884601Y784292D01*
X884624Y784394D01*
X884658Y784507D01*
X884703Y784632D01*
X884760Y784745D01*
X884850Y784858D01*
X884862Y784870D01*
X884896Y784903D01*
X884952Y784949D01*
X885020Y785005D01*
X885111Y785073D01*
X885224Y785130D01*
X885349Y785175D01*
X885485Y785209D01*
X885496D01*
X885541Y785221D01*
X885621Y785232D01*
X885734Y785243D01*
X885881D01*
X885983Y785255D01*
X886085D01*
X886199Y785266D01*
X887377D01*
Y783034D01*
D02*
G37*
G36*
X868707Y781856D02*
X866544D01*
X867643Y784768D01*
X868707Y781856D01*
D02*
G37*
G36*
X869829Y778752D02*
X865354D01*
X866034Y780531D01*
X869183D01*
X869829Y778752D01*
D02*
G37*
G36*
X916275Y769051D02*
X913092D01*
X916275Y774216D01*
Y769051D01*
D02*
G37*
G36*
X871222Y769051D02*
X869670D01*
X869682Y775213D01*
X871222Y769051D01*
D02*
G37*
G36*
X923650Y772154D02*
X921486D01*
X922585Y775066D01*
X923650Y772154D01*
D02*
G37*
G36*
X881644D02*
X879481D01*
X880580Y775066D01*
X881644Y772154D01*
D02*
G37*
G36*
X882766Y769051D02*
X878291D01*
X878971Y770829D01*
X882120D01*
X882766Y769051D01*
D02*
G37*
G36*
X888181Y762453D02*
X886017D01*
X887116Y765364D01*
X888181Y762453D01*
D02*
G37*
G36*
X889302Y759349D02*
X884828D01*
X885507Y761127D01*
X888657D01*
X889302Y759349D01*
D02*
G37*
G36*
X870429Y765976D02*
X870520Y765965D01*
X870611Y765953D01*
X870837Y765908D01*
X871086Y765817D01*
X871222Y765772D01*
X871358Y765704D01*
X871483Y765625D01*
X871619Y765534D01*
X871743Y765432D01*
X871857Y765308D01*
X871868Y765296D01*
X871879Y765274D01*
X871913Y765240D01*
X871947Y765183D01*
X871993Y765104D01*
X872038Y765024D01*
X872095Y764922D01*
X872151Y764798D01*
X872208Y764662D01*
X872264Y764515D01*
X872310Y764345D01*
X872355Y764163D01*
X872389Y763960D01*
X872423Y763744D01*
X872434Y763518D01*
X872446Y763269D01*
Y763257D01*
Y763212D01*
Y763144D01*
X872434Y763053D01*
X872423Y762940D01*
X872412Y762804D01*
X872389Y762668D01*
X872366Y762510D01*
X872299Y762181D01*
X872185Y761852D01*
X872117Y761683D01*
X872038Y761524D01*
X871936Y761377D01*
X871834Y761241D01*
X871823Y761229D01*
X871800Y761207D01*
X871766Y761173D01*
X871721Y761139D01*
X871664Y761082D01*
X871585Y761025D01*
X871506Y760957D01*
X871404Y760901D01*
X871188Y760765D01*
X870916Y760663D01*
X870769Y760618D01*
X870611Y760584D01*
X870441Y760561D01*
X870271Y760550D01*
X870180D01*
X870112Y760561D01*
X870033Y760572D01*
X869942Y760584D01*
X869727Y760640D01*
X869478Y760720D01*
X869353Y760776D01*
X869217Y760833D01*
X869093Y760912D01*
X868957Y761003D01*
X868832Y761105D01*
X868719Y761229D01*
X868707Y761241D01*
X868696Y761263D01*
X868662Y761297D01*
X868628Y761354D01*
X868571Y761433D01*
X868526Y761524D01*
X868469Y761626D01*
X868413Y761750D01*
X868356Y761886D01*
X868300Y762034D01*
X868243Y762204D01*
X868198Y762396D01*
X868164Y762589D01*
X868130Y762804D01*
X868118Y763042D01*
X868107Y763291D01*
Y763303D01*
Y763348D01*
Y763416D01*
X868118Y763518D01*
X868130Y763631D01*
X868141Y763756D01*
X868152Y763903D01*
X868186Y764050D01*
X868254Y764379D01*
X868356Y764718D01*
X868424Y764889D01*
X868503Y765036D01*
X868605Y765183D01*
X868707Y765319D01*
X868719Y765330D01*
X868730Y765353D01*
X868764Y765376D01*
X868809Y765421D01*
X868877Y765478D01*
X868945Y765534D01*
X869025Y765591D01*
X869127Y765659D01*
X869229Y765715D01*
X869353Y765772D01*
X869614Y765885D01*
X869761Y765931D01*
X869920Y765953D01*
X870089Y765976D01*
X870271Y765987D01*
X870361D01*
X870429Y765976D01*
D02*
G37*
G36*
X914757Y760674D02*
X913364D01*
X913217Y760686D01*
X913058D01*
X912899Y760708D01*
X912752Y760720D01*
X912628Y760742D01*
X912605D01*
X912560Y760765D01*
X912492Y760788D01*
X912401Y760822D01*
X912299Y760867D01*
X912197Y760923D01*
X912095Y760992D01*
X911993Y761071D01*
X911982Y761082D01*
X911948Y761116D01*
X911903Y761173D01*
X911846Y761252D01*
X911789Y761354D01*
X911710Y761479D01*
X911653Y761637D01*
X911585Y761818D01*
Y761830D01*
X911574Y761841D01*
Y761875D01*
X911563Y761920D01*
X911540Y761966D01*
X911529Y762034D01*
X911495Y762204D01*
X911472Y762408D01*
X911438Y762645D01*
X911427Y762940D01*
X911415Y763257D01*
Y763269D01*
Y763303D01*
Y763348D01*
Y763404D01*
Y763484D01*
X911427Y763574D01*
X911438Y763767D01*
X911461Y763994D01*
X911483Y764231D01*
X911529Y764447D01*
X911585Y764651D01*
Y764662D01*
X911597Y764673D01*
X911619Y764730D01*
X911653Y764820D01*
X911699Y764934D01*
X911767Y765047D01*
X911846Y765172D01*
X911937Y765296D01*
X912038Y765410D01*
X912050Y765421D01*
X912084Y765455D01*
X912152Y765500D01*
X912231Y765557D01*
X912344Y765625D01*
X912469Y765682D01*
X912605Y765738D01*
X912764Y765783D01*
X912775D01*
X912831Y765795D01*
X912922Y765806D01*
X913047Y765829D01*
X913126D01*
X913228Y765840D01*
X913330D01*
X913443Y765851D01*
X913579D01*
X913727Y765863D01*
X914757D01*
Y760674D01*
D02*
G37*
G36*
X931943Y759349D02*
X930402D01*
X931943Y765511D01*
Y759349D01*
D02*
G37*
G36*
X928873D02*
X927320D01*
X927332Y765511D01*
X928873Y759349D01*
D02*
G37*
G36*
X862420Y759349D02*
X859316D01*
X860857Y765206D01*
X862420Y759349D01*
D02*
G37*
G36*
X922257Y762453D02*
X920093D01*
X921192Y765364D01*
X922257Y762453D01*
D02*
G37*
G36*
X903803Y764073D02*
X902285D01*
X902092Y764084D01*
X901741D01*
X901673Y764096D01*
X901605D01*
X901560Y764107D01*
X901492Y764118D01*
X901390Y764152D01*
X901288Y764186D01*
X901186Y764231D01*
X901084Y764288D01*
X900993Y764367D01*
X900982Y764379D01*
X900959Y764413D01*
X900914Y764458D01*
X900869Y764537D01*
X900835Y764628D01*
X900789Y764730D01*
X900767Y764855D01*
X900755Y764990D01*
Y765002D01*
Y765047D01*
X900767Y765115D01*
X900778Y765206D01*
X900801Y765296D01*
X900846Y765387D01*
X900891Y765489D01*
X900959Y765580D01*
X900971Y765591D01*
X900993Y765613D01*
X901050Y765659D01*
X901107Y765704D01*
X901197Y765749D01*
X901299Y765795D01*
X901424Y765829D01*
X901560Y765851D01*
X901571D01*
X901616Y765863D01*
X901741D01*
X901809Y765874D01*
X902104D01*
X902228Y765885D01*
X903803D01*
Y764073D01*
D02*
G37*
G36*
Y760674D02*
X902058D01*
X901888Y760686D01*
X901707D01*
X901526Y760697D01*
X901378Y760708D01*
X901311D01*
X901265Y760720D01*
X901254D01*
X901209Y760731D01*
X901141Y760754D01*
X901061Y760776D01*
X900971Y760822D01*
X900869Y760878D01*
X900778Y760946D01*
X900687Y761025D01*
X900676Y761037D01*
X900654Y761071D01*
X900620Y761127D01*
X900574Y761207D01*
X900529Y761297D01*
X900495Y761411D01*
X900472Y761547D01*
X900461Y761694D01*
Y761705D01*
Y761750D01*
X900472Y761818D01*
X900484Y761898D01*
X900506Y762000D01*
X900540Y762090D01*
X900585Y762192D01*
X900642Y762294D01*
X900654Y762306D01*
X900676Y762340D01*
X900710Y762385D01*
X900767Y762430D01*
X900835Y762498D01*
X900925Y762555D01*
X901027Y762611D01*
X901141Y762657D01*
X901152D01*
X901209Y762679D01*
X901299Y762691D01*
X901356Y762702D01*
X901435Y762713D01*
X901515Y762725D01*
X901616Y762736D01*
X901730Y762747D01*
X901866D01*
X902002Y762759D01*
X902160Y762770D01*
X903803D01*
Y760674D01*
D02*
G37*
G36*
X932724Y749647D02*
X929541D01*
X932724Y754813D01*
Y749647D01*
D02*
G37*
G36*
X903520D02*
X900336D01*
X903520Y754813D01*
Y749647D01*
D02*
G37*
G36*
X940099Y752751D02*
X937935D01*
X939034Y755663D01*
X940099Y752751D01*
D02*
G37*
G36*
X910894D02*
X908731D01*
X909829Y755663D01*
X910894Y752751D01*
D02*
G37*
G36*
X912016Y749647D02*
X907541D01*
X908221Y751426D01*
X911370D01*
X912016Y749647D01*
D02*
G37*
D10*
X687750Y786500D02*
X698250D01*
X770138Y788862D02*
X784862D01*
X770138Y775138D02*
X784862D01*
X792000Y726689D02*
Y739811D01*
X805500Y726689D02*
Y739811D01*
X791888Y766750D02*
X804612D01*
X791888Y753250D02*
X804612D01*
X685939Y751750D02*
X699061D01*
X685939Y765250D02*
X699061D01*
X715500Y741000D02*
Y753000D01*
Y772000D02*
X730500D01*
X715500Y767000D02*
Y772000D01*
Y722000D02*
X730500D01*
X715500D02*
Y727000D01*
X770500Y722000D02*
X785500D01*
Y727000D01*
Y741000D02*
Y753000D01*
X770500Y772000D02*
X785500D01*
Y767000D02*
Y772000D01*
X647388Y724138D02*
X662112D01*
X647388Y737862D02*
X662112D01*
X649500Y734890D02*
X659500D01*
X649500Y749000D02*
X659500D01*
X715500Y547750D02*
X726500D01*
X715500Y561750D02*
X726500D01*
X606500Y589860D02*
X616500D01*
X606500Y575750D02*
X616500D01*
X585888Y543888D02*
Y558612D01*
X599612Y543888D02*
Y558612D01*
X840390Y687250D02*
Y697250D01*
X854500Y687250D02*
Y697250D01*
X803290Y702390D02*
Y712390D01*
X789180Y702390D02*
Y712390D01*
X845200Y702390D02*
Y712390D01*
X831090Y702390D02*
Y712390D01*
X774688Y717950D02*
X787412D01*
X774688Y704450D02*
X787412D01*
X772923Y703000D02*
X785648D01*
X772923Y689500D02*
X785648D01*
X774239Y690510D02*
X787861D01*
X774239Y676010D02*
X787861D01*
X874111Y648949D02*
Y682011D01*
X850549Y648949D02*
Y682011D01*
X830568Y677780D02*
X843292D01*
X830568Y691280D02*
X843292D01*
X830930Y678080D02*
X842930D01*
X830930Y665580D02*
X842930D01*
X774688Y676040D02*
X787412D01*
X774688Y662540D02*
X787412D01*
X774688Y662070D02*
X787412D01*
X774688Y648570D02*
X787412D01*
X846500Y633000D02*
Y645000D01*
X859000Y633000D02*
Y645000D01*
X828440Y643878D02*
Y656602D01*
X814940Y643878D02*
Y656602D01*
X859000Y636750D02*
Y647250D01*
X871500Y636750D02*
Y647250D01*
X830980Y701028D02*
Y713752D01*
X817480Y701028D02*
Y713752D01*
X817010Y701028D02*
Y713752D01*
X803510Y701028D02*
Y713752D01*
X830930Y665380D02*
X842930D01*
X830930Y652880D02*
X842930D01*
X830568Y653180D02*
X843292D01*
X830568Y639680D02*
X843292D01*
D12*
X767370Y708750D02*
G03*
X767370Y708750I-7620J0D01*
G01*
X745870D02*
G03*
X745870Y708750I-7620J0D01*
G01*
D13*
X960416Y509131D02*
X960416Y777541D01*
X513163Y535487D02*
X515915Y535109D01*
X510407Y536571D02*
X513163Y535487D01*
X505343Y540559D02*
X510407Y536571D01*
X515915Y535109D02*
X665271Y535109D01*
X500595Y557398D02*
X501692Y560895D01*
X500197Y553720D02*
X500595Y557398D01*
X500194Y553720D02*
X500197Y553720D01*
X501634Y546474D02*
X505343Y540559D01*
X500573Y549968D02*
X501634Y546474D01*
X500194Y553720D02*
X500573Y549968D01*
X816115Y504053D02*
X816865Y505862D01*
X814306Y503303D02*
X816115Y504053D01*
X784956Y505862D02*
X784956Y521891D01*
X779643Y505839D02*
X779644Y521891D01*
X787526Y503303D02*
X814306Y503303D01*
X784956Y505862D02*
X785710Y504048D01*
X778910Y504000D02*
X779643Y505839D01*
X785710Y504048D02*
X787526Y503303D01*
X777084Y503234D02*
X778910Y504000D01*
X960416Y777541D02*
X960990Y780422D01*
X817271Y531891D02*
X818425Y533619D01*
X816865Y529854D02*
X817271Y531891D01*
X818425Y533619D02*
X820152Y534773D01*
X721161Y505793D02*
X721910Y503984D01*
X721161Y532402D02*
X721161Y505793D01*
X721910Y503984D02*
X723720Y503234D01*
X777084D01*
X822189Y535178D02*
X822189Y535178D01*
X822189Y535178D02*
X824261Y534759D01*
X720383Y534401D02*
X721161Y532402D01*
X820152Y534773D02*
X822189Y535178D01*
X824261Y534759D02*
X825954Y533618D01*
X718384Y535178D02*
X720383Y534401D01*
X827513Y516750D02*
X828263Y514940D01*
X827513Y529854D02*
X827513Y516750D01*
X828263Y514940D02*
X830072Y514191D01*
X825954Y533618D02*
X827094Y531926D01*
X827513Y529854D01*
X782305Y524542D02*
X782306Y524541D01*
X780424Y523769D02*
X782306Y524541D01*
X782305Y524542D02*
X784180Y523765D01*
X784956Y521891D01*
X779644Y521891D02*
X780424Y523769D01*
X816865Y505862D02*
X816865Y529854D01*
X665271Y535109D02*
X718384Y535178D01*
X848831Y532664D02*
X849581Y534474D01*
X894176Y535224D02*
X896009Y534418D01*
X849581Y534474D02*
X851391Y535224D01*
X894176D01*
X848082Y514940D02*
X848832Y516750D01*
X846273Y514191D02*
X848082Y514940D01*
X830072Y514191D02*
X846273Y514191D01*
X848831Y532664D02*
X848832Y516750D01*
X896701Y508547D02*
Y532539D01*
X896009Y534418D02*
X896701Y532539D01*
Y508547D02*
X939147Y508547D01*
X939144Y508593D02*
X939147Y508547D01*
D14*
X790500Y734300D02*
G03*
X789500Y734300I-500J0D01*
G01*
D02*
G03*
X790500Y734300I500J0D01*
G01*
D17*
X680272Y766691D02*
Y774309D01*
X676463D01*
X675193Y773039D01*
Y770500D01*
X676463Y769230D01*
X680272D01*
X677733D02*
X675193Y766691D01*
X672654D02*
X670115D01*
X671385D01*
Y774309D01*
X672654Y773039D01*
X666306D02*
X665037Y774309D01*
X662498D01*
X661228Y773039D01*
Y771770D01*
X662498Y770500D01*
X661228Y769230D01*
Y767961D01*
X662498Y766691D01*
X665037D01*
X666306Y767961D01*
Y769230D01*
X665037Y770500D01*
X666306Y771770D01*
Y773039D01*
X665037Y770500D02*
X662498D01*
X680272Y754441D02*
Y762059D01*
X676463D01*
X675193Y760789D01*
Y758250D01*
X676463Y756980D01*
X680272D01*
X677733D02*
X675193Y754441D01*
X672654D02*
X670115D01*
X671385D01*
Y762059D01*
X672654Y760789D01*
X666306Y762059D02*
X661228D01*
Y760789D01*
X666306Y755711D01*
Y754441D01*
X819270Y763039D02*
X820539Y764309D01*
X823078D01*
X824348Y763039D01*
Y757961D01*
X823078Y756691D01*
X820539D01*
X819270Y757961D01*
X812922Y756691D02*
Y764309D01*
X816730Y760500D01*
X811652D01*
X717989Y711375D02*
X714398Y707784D01*
X716193Y709580D01*
X721580Y704193D01*
X717989Y700602D02*
X712602Y705989D01*
X709909Y703295D01*
X709909Y701500D01*
X711704Y699705D01*
X713500D01*
X716193Y702398D01*
X709909Y692523D02*
X704523Y697909D01*
X709909Y697909D01*
X706318Y694318D01*
X725239Y702875D02*
X721648Y699284D01*
X723443Y701080D01*
X728830Y695693D01*
X725239Y692102D02*
X719852Y697489D01*
X717159Y694796D01*
X717159Y693000D01*
X718954Y691205D01*
X720750D01*
X723443Y693898D01*
X715364Y691205D02*
X713568D01*
X711773Y689409D01*
Y687614D01*
X712670Y686716D01*
X714466D01*
X715364Y687614D01*
X714466Y686716D01*
X714466Y684920D01*
X715364Y684023D01*
X717159Y684023D01*
X718954Y685818D01*
Y687614D01*
X762522Y549691D02*
Y557309D01*
X758713D01*
X757443Y556039D01*
Y553500D01*
X758713Y552230D01*
X762522D01*
X759983D02*
X757443Y549691D01*
X754904D02*
X752365D01*
X753635D01*
Y557309D01*
X754904Y556039D01*
X748556D02*
X747287Y557309D01*
X744748D01*
X743478Y556039D01*
Y550961D01*
X744748Y549691D01*
X747287D01*
X748556Y550961D01*
Y556039D01*
X654098Y756191D02*
Y763809D01*
X650289D01*
X649020Y762539D01*
Y760000D01*
X650289Y758730D01*
X654098D01*
X651559D02*
X649020Y756191D01*
X646480Y757461D02*
X645211Y756191D01*
X642672D01*
X641402Y757461D01*
Y762539D01*
X642672Y763809D01*
X645211D01*
X646480Y762539D01*
Y761270D01*
X645211Y760000D01*
X641402D01*
X580098Y546941D02*
Y554559D01*
X576289D01*
X575020Y553289D01*
Y550750D01*
X576289Y549480D01*
X580098D01*
X577559D02*
X575020Y546941D01*
X572480Y554559D02*
X567402D01*
Y553289D01*
X572480Y548211D01*
Y546941D01*
X836441Y722402D02*
X844059D01*
Y726211D01*
X842789Y727480D01*
X840250D01*
X838980Y726211D01*
Y722402D01*
Y724941D02*
X836441Y727480D01*
X844059Y735098D02*
Y730020D01*
X840250D01*
X841520Y732559D01*
Y733828D01*
X840250Y735098D01*
X837711D01*
X836441Y733828D01*
Y731289D01*
X837711Y730020D01*
X654348Y768191D02*
Y775809D01*
X650539D01*
X649270Y774539D01*
Y772000D01*
X650539Y770730D01*
X654348D01*
X651809D02*
X649270Y768191D01*
X646730Y774539D02*
X645461Y775809D01*
X642922D01*
X641652Y774539D01*
Y773270D01*
X642922Y772000D01*
X644191D01*
X642922D01*
X641652Y770730D01*
Y769461D01*
X642922Y768191D01*
X645461D01*
X646730Y769461D01*
X640098Y577941D02*
Y585559D01*
X636289D01*
X635020Y584289D01*
Y581750D01*
X636289Y580480D01*
X640098D01*
X637559D02*
X635020Y577941D01*
X627402D02*
X632480D01*
X627402Y583020D01*
Y584289D01*
X628672Y585559D01*
X631211D01*
X632480Y584289D01*
X858941Y705172D02*
X866559D01*
Y708980D01*
X865289Y710250D01*
X862750D01*
X861480Y708980D01*
Y705172D01*
Y707711D02*
X858941Y710250D01*
Y712789D02*
Y715328D01*
Y714059D01*
X866559D01*
X865289Y712789D01*
X888309Y667902D02*
X880691D01*
Y672980D01*
Y680598D02*
Y675520D01*
X885770Y680598D01*
X887039D01*
X888309Y679328D01*
Y676789D01*
X887039Y675520D01*
X892809Y644059D02*
X897887D01*
Y640250D01*
X895348D01*
X897887D01*
Y636441D01*
X890270Y644059D02*
Y636441D01*
X886461D01*
X885191Y637711D01*
Y638980D01*
X886461Y640250D01*
X890270D01*
X886461D01*
X885191Y641520D01*
Y642789D01*
X886461Y644059D01*
X890270D01*
X882652Y636441D02*
X880113D01*
X881383D01*
Y644059D01*
X882652Y642789D01*
X785318Y628330D02*
X786588Y629600D01*
X789127D01*
X790397Y628330D01*
Y623252D01*
X789127Y621982D01*
X786588D01*
X785318Y623252D01*
X777701Y621982D02*
X782779D01*
X777701Y627061D01*
Y628330D01*
X778970Y629600D01*
X781510D01*
X782779Y628330D01*
X770083Y629600D02*
X775162D01*
Y625791D01*
X772622Y627061D01*
X771353D01*
X770083Y625791D01*
Y623252D01*
X771353Y621982D01*
X773892D01*
X775162Y623252D01*
X785318Y639864D02*
X786588Y641134D01*
X789127D01*
X790397Y639864D01*
Y634786D01*
X789127Y633516D01*
X786588D01*
X785318Y634786D01*
X777701Y633516D02*
X782779D01*
X777701Y638595D01*
Y639864D01*
X778970Y641134D01*
X781510D01*
X782779Y639864D01*
X775162D02*
X773892Y641134D01*
X771353D01*
X770083Y639864D01*
Y638595D01*
X771353Y637325D01*
X772622D01*
X771353D01*
X770083Y636055D01*
Y634786D01*
X771353Y633516D01*
X773892D01*
X775162Y634786D01*
X819078Y688539D02*
X820348Y689809D01*
X822887D01*
X824157Y688539D01*
Y683461D01*
X822887Y682191D01*
X820348D01*
X819078Y683461D01*
X811461Y682191D02*
X816539D01*
X811461Y687270D01*
Y688539D01*
X812730Y689809D01*
X815270D01*
X816539Y688539D01*
X808922D02*
X807652Y689809D01*
X805113D01*
X803843Y688539D01*
Y683461D01*
X805113Y682191D01*
X807652D01*
X808922Y683461D01*
Y688539D01*
X818444Y674289D02*
X819713Y675559D01*
X822252D01*
X823522Y674289D01*
Y669211D01*
X822252Y667941D01*
X819713D01*
X818444Y669211D01*
X815904Y667941D02*
X813365D01*
X814635D01*
Y675559D01*
X815904Y674289D01*
X809556Y669211D02*
X808287Y667941D01*
X805748D01*
X804478Y669211D01*
Y674289D01*
X805748Y675559D01*
X808287D01*
X809556Y674289D01*
Y673020D01*
X808287Y671750D01*
X804478D01*
X785318Y616797D02*
X786588Y618066D01*
X789127D01*
X790397Y616797D01*
Y611718D01*
X789127Y610449D01*
X786588D01*
X785318Y611718D01*
X782779Y610449D02*
X780240D01*
X781510D01*
Y618066D01*
X782779Y616797D01*
X776431D02*
X775162Y618066D01*
X772622D01*
X771353Y616797D01*
Y615527D01*
X772622Y614258D01*
X771353Y612988D01*
Y611718D01*
X772622Y610449D01*
X775162D01*
X776431Y611718D01*
Y612988D01*
X775162Y614258D01*
X776431Y615527D01*
Y616797D01*
X775162Y614258D02*
X772622D01*
X816289Y726556D02*
X817559Y725287D01*
Y722748D01*
X816289Y721478D01*
X811211D01*
X809941Y722748D01*
Y725287D01*
X811211Y726556D01*
X809941Y729096D02*
Y731635D01*
Y730365D01*
X817559D01*
X816289Y729096D01*
X817559Y740522D02*
Y735444D01*
X813750D01*
X815020Y737983D01*
Y739252D01*
X813750Y740522D01*
X811211D01*
X809941Y739252D01*
Y736713D01*
X811211Y735444D01*
X828789Y727306D02*
X830059Y726037D01*
Y723498D01*
X828789Y722228D01*
X823711D01*
X822441Y723498D01*
Y726037D01*
X823711Y727306D01*
X822441Y729846D02*
Y732385D01*
Y731115D01*
X830059D01*
X828789Y729846D01*
X822441Y740002D02*
X830059D01*
X826250Y736194D01*
Y741272D01*
X785318Y605263D02*
X786588Y606533D01*
X789127D01*
X790397Y605263D01*
Y600185D01*
X789127Y598915D01*
X786588D01*
X785318Y600185D01*
X782779Y598915D02*
X780240D01*
X781510D01*
Y606533D01*
X782779Y605263D01*
X776431D02*
X775162Y606533D01*
X772622D01*
X771353Y605263D01*
Y603993D01*
X772622Y602724D01*
X773892D01*
X772622D01*
X771353Y601454D01*
Y600185D01*
X772622Y598915D01*
X775162D01*
X776431Y600185D01*
X785318Y593729D02*
X786588Y594999D01*
X789127D01*
X790397Y593729D01*
Y588651D01*
X789127Y587381D01*
X786588D01*
X785318Y588651D01*
X782779Y587381D02*
X780240D01*
X781510D01*
Y594999D01*
X782779Y593729D01*
X771353Y587381D02*
X776431D01*
X771353Y592460D01*
Y593729D01*
X772622Y594999D01*
X775162D01*
X776431Y593729D01*
X807789Y647076D02*
X809059Y645806D01*
Y643267D01*
X807789Y641998D01*
X802711D01*
X801441Y643267D01*
Y645806D01*
X802711Y647076D01*
X801441Y649615D02*
Y652154D01*
Y650885D01*
X809059D01*
X807789Y649615D01*
X801441Y655963D02*
Y658502D01*
Y657233D01*
X809059D01*
X807789Y655963D01*
X875444Y624289D02*
X876713Y625559D01*
X879252D01*
X880522Y624289D01*
Y619211D01*
X879252Y617941D01*
X876713D01*
X875444Y619211D01*
X872904Y617941D02*
X870365D01*
X871635D01*
Y625559D01*
X872904Y624289D01*
X866556D02*
X865287Y625559D01*
X862748D01*
X861478Y624289D01*
Y619211D01*
X862748Y617941D01*
X865287D01*
X866556Y619211D01*
Y624289D01*
X823020Y620289D02*
X824289Y621559D01*
X826828D01*
X828098Y620289D01*
Y615211D01*
X826828Y613941D01*
X824289D01*
X823020Y615211D01*
X820480D02*
X819211Y613941D01*
X816672D01*
X815402Y615211D01*
Y620289D01*
X816672Y621559D01*
X819211D01*
X820480Y620289D01*
Y619020D01*
X819211Y617750D01*
X815402D01*
X823520Y633039D02*
X824789Y634309D01*
X827328D01*
X828598Y633039D01*
Y627961D01*
X827328Y626691D01*
X824789D01*
X823520Y627961D01*
X820980Y633039D02*
X819711Y634309D01*
X817172D01*
X815902Y633039D01*
Y631770D01*
X817172Y630500D01*
X815902Y629230D01*
Y627961D01*
X817172Y626691D01*
X819711D01*
X820980Y627961D01*
Y629230D01*
X819711Y630500D01*
X820980Y631770D01*
Y633039D01*
X819711Y630500D02*
X817172D01*
D104*
X578752Y795706D02*
X960766D01*
X960766Y509126D02*
X960766Y795706D01*
X949879Y509131D02*
X960416D01*
X386348Y686357D02*
X390903Y684562D01*
X391252Y685145D02*
X396202Y684602D01*
X412221Y635933D02*
X413976Y639150D01*
X416348Y641990D01*
X539720Y647369D02*
X543509Y647718D01*
X547045Y648782D01*
X550251Y650487D01*
X553052Y652756D01*
X555370Y655516D01*
X557131Y658692D01*
X558257Y662209D01*
X558675Y665991D01*
X558278Y669669D02*
X558675Y665991D01*
X557180Y673166D02*
X558278Y669669D01*
X555425Y676383D02*
X557180Y673166D01*
X553053Y679222D02*
X555425Y676383D01*
X550171Y681542D02*
X553053Y679222D01*
X546923Y683238D02*
X550171Y681542D01*
X543407Y684272D02*
X546923Y683238D01*
X539722Y684602D02*
X543407Y684272D01*
X396202Y684602D02*
X539722Y684602D01*
X386698Y686940D02*
X391252Y685145D01*
X382767Y689859D02*
X386698Y686940D01*
X379692Y693775D02*
X382767Y689859D01*
X377762Y698366D02*
X379692Y693775D01*
X377119Y703219D02*
X377762Y698366D01*
X377119Y703219D02*
X377762Y708072D01*
X379692Y712663D01*
X382767Y716579D01*
X386698Y719498D01*
X391252Y721292D01*
X396202Y721835D01*
X617968Y721835D01*
X621652Y722166D01*
X625168Y723199D01*
X628417Y724895D01*
X631299Y727215D01*
X633671Y730054D01*
X635426Y733271D01*
X493154Y759057D02*
X515033D01*
X489505Y759418D02*
X493154Y759057D01*
X486030Y760474D02*
X489505Y759418D01*
X482826Y762186D02*
X486030Y760474D01*
X479991Y764512D02*
X482826Y762186D01*
X477667Y767348D02*
X479991Y764512D01*
X475957Y770553D02*
X477667Y767348D01*
X474903Y774030D02*
X475957Y770553D01*
X474543Y777679D02*
X474903Y774030D01*
X474543Y777679D02*
X474904Y781327D01*
X475960Y784801D01*
X477670Y788005D01*
X479994Y790839D01*
X482829Y793163D01*
X486032Y794873D01*
X489506Y795929D01*
X897050Y509130D02*
X949879Y509131D01*
X897050Y509130D02*
Y533122D01*
X896359Y535001D02*
X897050Y533122D01*
X894526Y535807D02*
X896359Y535001D01*
X851740Y535807D02*
X894526D01*
X849930Y535057D02*
X851740Y535807D01*
X849181Y533248D02*
X849930Y535057D01*
X849181Y533248D02*
X849181Y517333D01*
X848431Y515524D02*
X849181Y517333D01*
X846622Y514774D02*
X848431Y515524D01*
X830422Y514774D02*
X846622Y514774D01*
X828612Y515524D02*
X830422Y514774D01*
X827862Y517333D02*
X828612Y515524D01*
X827862Y530437D02*
X827862Y517333D01*
X827444Y532509D02*
X827862Y530437D01*
X826303Y534202D02*
X827444Y532509D01*
X824611Y535343D02*
X826303Y534202D01*
X822539Y535761D02*
X824611Y535343D01*
X820501Y535356D02*
X822539Y535761D01*
X818774Y534202D02*
X820501Y535356D01*
X817620Y532475D02*
X818774Y534202D01*
X817215Y530437D02*
X817620Y532475D01*
X817215Y506446D02*
X817215Y530437D01*
X816465Y504636D02*
X817215Y506446D01*
X814655Y503886D02*
X816465Y504636D01*
X787876Y503886D02*
X814655Y503886D01*
X786059Y504632D02*
X787876Y503886D01*
X785305Y506446D02*
X786059Y504632D01*
X785305Y506446D02*
X785305Y522474D01*
X784529Y524349D02*
X785305Y522474D01*
X782655Y525125D02*
X784529Y524349D01*
X780773Y524352D02*
X782655Y525125D01*
X779993Y522474D02*
X780773Y524352D01*
X779993Y506423D02*
X779993Y522474D01*
X779260Y504583D02*
X779993Y506423D01*
X777434Y503818D02*
X779260Y504583D01*
X724069Y503818D02*
X777434D01*
X722260Y504567D02*
X724069Y503818D01*
X721510Y506377D02*
X722260Y504567D01*
X721510Y532985D02*
X721510Y506377D01*
X720733Y534984D02*
X721510Y532985D01*
X718734Y535761D02*
X720733Y534984D01*
X665620Y535693D02*
X718734Y535761D01*
X516264Y535693D02*
X665620Y535693D01*
X513512Y536071D02*
X516264Y535693D01*
X510757Y537155D02*
X513512Y536071D01*
X505692Y541142D02*
X510757Y537155D01*
X501983Y547058D02*
X505692Y541142D01*
X500923Y550552D02*
X501983Y547058D01*
X500544Y554304D02*
X500923Y550552D01*
X500544Y554304D02*
X500547Y554304D01*
X500944Y557982D01*
X502042Y561478D01*
X503797Y564695D01*
X506169Y567535D01*
X509051Y569854D01*
X512299Y571551D01*
X515816Y572584D01*
X519500Y572915D01*
X574634Y572914D01*
X578422Y573263D01*
X581956Y574326D01*
X585162Y576029D01*
X587962Y578297D01*
X590281Y581056D01*
X592042Y584230D01*
X587613Y577714D02*
X589931Y580472D01*
X591693Y583646D01*
X591696Y598241D02*
X592822Y594724D01*
X591693Y583646D02*
X592820Y587161D01*
X593238Y590942D01*
X593238Y590942D02*
X593238Y590942D01*
X592822Y594724D02*
X593238Y590942D01*
X584813Y575446D02*
X587613Y577714D01*
X478746Y612624D02*
X481994Y610928D01*
X485510Y609894D01*
X489195Y609564D01*
X428875Y609567D02*
X432612Y609920D01*
X436100Y610975D02*
X439263Y612659D01*
X432612Y609920D02*
X436100Y610975D01*
X425142Y609965D02*
X428875Y609567D01*
X489195Y609564D02*
X574285D01*
X421668Y611062D02*
X425142Y609965D01*
X581607Y573743D02*
X584813Y575446D01*
X578072Y572680D02*
X581607Y573743D01*
X574285Y572331D02*
X578072Y572680D01*
X515466Y572001D02*
X519151Y572331D01*
X508701Y569271D02*
X511950Y570967D01*
X515466Y572001D01*
X505819Y566951D02*
X508701Y569271D01*
X501692Y560895D02*
X503448Y564112D01*
X505819Y566951D01*
X519151Y572331D02*
X574285Y572331D01*
X617618Y721252D02*
X621303Y721582D01*
X624819Y722616D01*
X395853Y721252D02*
X617618Y721252D01*
X386348Y718914D02*
X390903Y720709D01*
X395853Y721252D01*
X410376Y628175D02*
X410752Y624440D01*
X410774Y631853D02*
X411871Y635350D01*
X415789Y615057D02*
X418525Y612784D01*
X413532Y617806D02*
X415789Y615057D01*
X411828Y620959D02*
X413532Y617806D01*
X410376Y628175D02*
X410774Y631853D01*
X410752Y624440D02*
X411828Y620959D01*
X418525Y612784D02*
X421668Y611062D01*
X425645Y646455D02*
X429330Y646786D01*
X418881Y643726D02*
X422129Y645422D01*
X415998Y641406D02*
X418881Y643726D01*
X413627Y638567D02*
X415998Y641406D01*
X436518Y645202D02*
X439639Y643441D01*
X433057Y646342D02*
X436518Y645202D01*
X429330Y646786D02*
X433057Y646342D01*
X411871Y635350D02*
X413627Y638567D01*
X429330Y646786D02*
X429330D01*
X442026Y614899D02*
X444316Y617621D01*
X446058Y620753D02*
X447176Y624220D01*
X446234Y635184D02*
X447267Y631690D01*
X442347Y641135D02*
X444570Y638357D01*
X447176Y624220D02*
X447597Y627951D01*
X444570Y638357D02*
X446234Y635184D01*
X439263Y612659D02*
X442026Y614899D01*
X447267Y631690D02*
X447597Y627951D01*
X439639Y643441D02*
X442347Y641135D01*
X390903Y684562D02*
X395853Y684019D01*
X539373Y684019D01*
X549902Y649903D02*
X552702Y652173D01*
X485508Y646455D02*
X489193Y646785D01*
X481992Y645422D02*
X485508Y646455D01*
X422129Y645422D02*
X425645Y646455D01*
X539370Y646786D02*
X543159Y647135D01*
X546695Y648199D01*
X549902Y649903D01*
X489193Y646785D02*
X539370Y646786D01*
X556781Y658109D02*
X557908Y661625D01*
X546573Y682655D02*
X549822Y680958D01*
X555021Y654933D02*
X556781Y658109D01*
X552702Y652173D02*
X555021Y654933D01*
X557908Y661625D02*
X558324Y665408D01*
X543057Y683688D02*
X546573Y682655D01*
X557928Y669086D02*
X558326Y665408D01*
X556831Y672583D02*
X557928Y669086D01*
X555076Y675800D02*
X556831Y672583D01*
X552704Y678639D02*
X555076Y675800D01*
X549822Y680958D02*
X552704Y678639D01*
X539373Y684019D02*
X543057Y683688D01*
X558324Y665408D02*
X558326D01*
X587617Y604177D02*
X589935Y601417D01*
X591696Y598241D01*
X578074Y609215D02*
X581610Y608151D01*
X584816Y606446D01*
X587617Y604177D01*
X574285Y609564D02*
X578074Y609215D01*
X624819Y722616D02*
X628068Y724312D01*
X630950Y726631D01*
X473492Y617783D02*
X475863Y614944D01*
X473489Y638566D02*
X475861Y641406D01*
X471734Y635349D02*
X473489Y638566D01*
X470241Y628175D02*
X470639Y624497D01*
X471736Y621000D01*
X470637Y631853D02*
X471734Y635349D01*
X470239Y628175D02*
X470637Y631853D01*
X470239Y628175D02*
X470241Y628175D01*
X475861Y641406D02*
X478743Y643725D01*
X471736Y621000D02*
X473492Y617783D01*
X475863Y614944D02*
X478746Y612624D01*
X478743Y643725D02*
X481992Y645422D01*
X479641Y763928D02*
X482476Y761602D01*
X444316Y617621D02*
X446058Y620753D01*
X477317Y766765D02*
X479641Y763928D01*
X521928Y794244D02*
X525089Y792528D01*
X492805Y795706D02*
X514684D01*
X518435Y795328D01*
X485683Y794290D02*
X489157Y795346D01*
X482480Y792580D02*
X485683Y794290D01*
X518435Y795328D02*
X521928Y794244D01*
X489157Y795346D02*
X492805Y795706D01*
X574966Y795356D02*
X578752Y795706D01*
X571434Y794291D02*
X574966Y795356D01*
X565435Y790319D02*
X568232Y792587D01*
X561361Y784388D02*
X563119Y787561D01*
X475611Y784218D02*
X477321Y787421D01*
X578774Y758473D02*
X617619Y758474D01*
X636174Y736184D02*
X636572Y739863D01*
X630950Y753094D02*
X633322Y750255D01*
X635077Y747037D01*
X636175Y743541D02*
X636572Y739863D01*
X628068Y755413D02*
X630950Y753094D01*
X624819Y757110D02*
X628068Y755413D01*
X621303Y758143D02*
X624819Y757110D01*
X635077Y747037D02*
X636175Y743541D01*
X635077Y732688D02*
X636174Y736184D01*
X617619Y758474D02*
X621303Y758143D01*
X575088Y758804D02*
X578774Y758473D01*
X571571Y759838D02*
X575088Y758804D01*
X568322Y761536D02*
X571571Y759838D01*
X563067Y766698D02*
X565439Y763857D01*
X474194Y777096D02*
X474555Y780743D01*
X474194Y777096D02*
X474194Y777095D01*
X475608Y769970D02*
X477317Y766765D01*
X474553Y773446D02*
X475608Y769970D01*
X474194Y777095D02*
X474553Y773446D01*
X482476Y761602D02*
X485680Y759891D01*
X492805Y758473D02*
X514684D01*
X489156Y758835D02*
X492805Y758473D01*
X485680Y759891D02*
X489156Y758835D01*
X474555Y780743D02*
X475611Y784218D01*
X563119Y787561D02*
X565435Y790319D01*
X560236Y780874D02*
X561361Y784388D01*
X560217Y773416D02*
X561313Y769917D01*
X563067Y766698D01*
X559821Y777095D02*
X560236Y780874D01*
X565439Y763857D02*
X568322Y761536D01*
X568232Y792587D02*
X571434Y794291D01*
X559821Y777095D02*
X560217Y773416D01*
X633321Y729471D02*
X635077Y732688D01*
X630950Y726631D02*
X633321Y729471D01*
X636572Y739863D02*
X636572Y739863D01*
X477321Y787421D02*
X479645Y790256D01*
X482480Y792580D01*
X525089Y792528D02*
X527844Y790255D01*
X514684Y758473D02*
X518435Y758854D01*
X521929Y759940D01*
X527845Y763932D02*
X530117Y766687D01*
X531832Y769850D01*
X532917Y773344D01*
X525090Y761658D02*
X527845Y763932D01*
X531832Y784340D02*
X532917Y780846D01*
X527844Y790255D02*
X530116Y787501D01*
X532917Y780846D02*
X533295Y777095D01*
X530116Y787501D02*
X531832Y784340D01*
X521929Y759940D02*
X525090Y761658D01*
X532917Y773344D02*
X533295Y777095D01*
M02*
