G04*
G04 #@! TF.GenerationSoftware,Altium Limited,Altium Designer,24.1.2 (44)*
G04*
G04 Layer_Color=8388736*
%FSLAX44Y44*%
%MOMM*%
G71*
G04*
G04 #@! TF.SameCoordinates,BDBBCEB5-9933-478C-A866-C286992FDBA5*
G04*
G04*
G04 #@! TF.FilePolarity,Negative*
G04*
G01*
G75*
%ADD22R,0.4725X0.5153*%
%ADD23R,1.1938X0.8890*%
%ADD24R,1.4986X0.5588*%
%ADD25R,0.5588X1.4986*%
%ADD26R,0.5725X0.6153*%
%ADD27R,0.4725X0.5811*%
%ADD29R,0.6000X0.5000*%
%ADD30R,0.8000X0.8000*%
%ADD31R,0.5000X0.6000*%
%ADD33R,0.5153X0.4725*%
%ADD34C,1.0000*%
%ADD35R,0.5200X0.5200*%
%ADD36R,1.8000X1.2000*%
%ADD38R,0.4000X0.5000*%
%ADD40R,0.5621X0.5596*%
%ADD42R,1.5549X2.3062*%
%ADD45R,15.8500X2.8250*%
%ADD46R,0.3760X0.9260*%
%ADD47R,0.6260X0.5760*%
%ADD48R,2.8560X0.8760*%
%ADD49R,0.2760X0.6760*%
%ADD50R,0.6760X0.2760*%
%ADD51R,2.8760X2.8760*%
%ADD52R,0.7260X1.1260*%
%ADD53R,1.0760X0.7760*%
%ADD54O,0.4760X0.7760*%
%ADD55R,2.4760X1.7260*%
%ADD56R,0.6700X2.2450*%
%ADD57C,3.3260*%
%ADD58R,1.5540X1.5540*%
%ADD59C,1.5540*%
%ADD60C,1.7260*%
%ADD61C,2.5510*%
%ADD62C,2.6018*%
%ADD63R,2.4248X2.4248*%
%ADD64O,3.7360X1.7360*%
%ADD65C,1.3260*%
%ADD66C,0.5760*%
G36*
X571867Y786727D02*
X572052D01*
X572307Y786704D01*
X572561Y786681D01*
X572862Y786657D01*
X573209Y786611D01*
X573556Y786542D01*
X573950Y786496D01*
X574343Y786403D01*
X575222Y786218D01*
X576148Y785940D01*
X575292Y783464D01*
X575268Y783487D01*
X575176Y783511D01*
X575037Y783557D01*
X574875Y783626D01*
X574644Y783696D01*
X574389Y783788D01*
X574088Y783881D01*
X573764Y783973D01*
X573070Y784158D01*
X572307Y784320D01*
X571543Y784436D01*
X571150Y784482D01*
X570664D01*
X570502Y784459D01*
X570317D01*
X570085Y784436D01*
X569808Y784390D01*
X569229Y784251D01*
X568928Y784135D01*
X568604Y784019D01*
X568303Y783858D01*
X568026Y783672D01*
X567771Y783464D01*
X567540Y783210D01*
X567332Y782909D01*
X567193Y782585D01*
Y782562D01*
X567170Y782446D01*
X567123Y782307D01*
Y782122D01*
X567100Y781937D01*
X567146Y781706D01*
X567193Y781497D01*
X567309Y781312D01*
X567332Y781289D01*
X567378Y781243D01*
X567494Y781127D01*
X567679Y781011D01*
X567910Y780873D01*
X568211Y780687D01*
X568604Y780502D01*
X568812Y780387D01*
X569067Y780294D01*
X570525Y779716D01*
X571774Y779230D01*
X571797Y779206D01*
X571890Y779183D01*
X572052Y779091D01*
X572214Y778998D01*
X572422Y778859D01*
X572654Y778698D01*
X572885Y778512D01*
X573140Y778281D01*
X573348Y778003D01*
X573556Y777702D01*
X573718Y777378D01*
X573834Y776985D01*
X573926Y776592D01*
Y776129D01*
X573857Y775643D01*
X573811Y775388D01*
X573718Y775111D01*
Y775088D01*
X573672Y775018D01*
X573625Y774903D01*
X573556Y774741D01*
X573464Y774556D01*
X573348Y774324D01*
X573209Y774070D01*
X573047Y773815D01*
X572862Y773537D01*
X572654Y773237D01*
X572399Y772936D01*
X572122Y772635D01*
X571821Y772334D01*
X571474Y772033D01*
X571103Y771756D01*
X570710Y771501D01*
X570687Y771478D01*
X570617Y771455D01*
X570479Y771385D01*
X570317Y771293D01*
X570108Y771200D01*
X569854Y771085D01*
X569553Y770969D01*
X569229Y770853D01*
X568859Y770714D01*
X568465Y770599D01*
X568026Y770483D01*
X567586Y770390D01*
X567100Y770298D01*
X566591Y770229D01*
X566059Y770205D01*
X565527Y770182D01*
X565318D01*
X565157Y770205D01*
X564971D01*
X564717Y770229D01*
X564439Y770252D01*
X564138Y770298D01*
X563768Y770344D01*
X563398Y770414D01*
X562981Y770483D01*
X562519Y770552D01*
X562033Y770668D01*
X561524Y770784D01*
X560991Y770923D01*
X560436Y771085D01*
X561385Y773885D01*
X561408Y773861D01*
X561524Y773815D01*
X561662Y773746D01*
X561871Y773653D01*
X562125Y773560D01*
X562426Y773422D01*
X562750Y773306D01*
X563120Y773167D01*
X563514Y773028D01*
X563907Y772913D01*
X564740Y772681D01*
X565157Y772589D01*
X565573Y772519D01*
X565989Y772473D01*
X566383Y772450D01*
X566661D01*
X566799Y772473D01*
X566961D01*
X567355Y772519D01*
X567794Y772612D01*
X568280Y772704D01*
X568743Y772866D01*
X569206Y773075D01*
X569229D01*
X569252Y773098D01*
X569391Y773190D01*
X569599Y773329D01*
X569831Y773514D01*
X570108Y773746D01*
X570340Y774046D01*
X570571Y774370D01*
X570733Y774741D01*
Y774764D01*
X570756Y774856D01*
X570802Y774995D01*
Y775180D01*
Y775365D01*
X570779Y775551D01*
X570710Y775759D01*
X570594Y775944D01*
X570571Y775967D01*
X570502Y776036D01*
X570386Y776129D01*
X570201Y776268D01*
X569923Y776430D01*
X569761Y776522D01*
X569576Y776638D01*
X569368Y776731D01*
X569113Y776846D01*
X568859Y776985D01*
X568558Y777101D01*
X567031Y777749D01*
X567008D01*
X566938Y777795D01*
X566846Y777841D01*
X566707Y777888D01*
X566545Y777980D01*
X566360Y778073D01*
X565966Y778281D01*
X565504Y778559D01*
X565087Y778859D01*
X564694Y779206D01*
X564532Y779369D01*
X564393Y779554D01*
X564370Y779600D01*
X564300Y779739D01*
X564231Y779947D01*
X564161Y780248D01*
X564092Y780618D01*
Y781058D01*
X564161Y781590D01*
X564231Y781868D01*
X564324Y782168D01*
Y782191D01*
X564370Y782261D01*
X564416Y782377D01*
X564462Y782539D01*
X564555Y782701D01*
X564647Y782932D01*
X564786Y783163D01*
X564925Y783418D01*
X565110Y783672D01*
X565295Y783950D01*
X565504Y784228D01*
X565758Y784505D01*
X566013Y784783D01*
X566314Y785061D01*
X566614Y785315D01*
X566961Y785547D01*
X566984Y785570D01*
X567054Y785593D01*
X567146Y785662D01*
X567309Y785732D01*
X567494Y785824D01*
X567702Y785917D01*
X567956Y786033D01*
X568234Y786148D01*
X568558Y786264D01*
X568905Y786380D01*
X569275Y786472D01*
X569669Y786565D01*
X570108Y786634D01*
X570548Y786704D01*
X571011Y786727D01*
X571497Y786750D01*
X571705D01*
X571867Y786727D01*
D02*
G37*
G36*
X619141D02*
X619372Y786704D01*
X619627Y786681D01*
X619904Y786657D01*
X620228Y786611D01*
X620552Y786565D01*
X621293Y786426D01*
X622103Y786218D01*
X622936Y785963D01*
X622056Y783372D01*
X622033Y783395D01*
X621964Y783418D01*
X621825Y783464D01*
X621663Y783557D01*
X621455Y783626D01*
X621223Y783719D01*
X620946Y783834D01*
X620645Y783927D01*
X620321Y784043D01*
X619997Y784135D01*
X619256Y784320D01*
X618516Y784436D01*
X618123Y784459D01*
X617752Y784482D01*
X617521D01*
X617359Y784459D01*
X617174Y784436D01*
X616919Y784390D01*
X616665Y784343D01*
X616364Y784274D01*
X616040Y784182D01*
X615716Y784066D01*
X615346Y783927D01*
X614976Y783765D01*
X614605Y783580D01*
X614212Y783348D01*
X613842Y783094D01*
X613448Y782793D01*
X613425Y782770D01*
X613356Y782724D01*
X613263Y782631D01*
X613125Y782492D01*
X612939Y782330D01*
X612754Y782122D01*
X612546Y781891D01*
X612315Y781636D01*
X612083Y781335D01*
X611852Y781011D01*
X611597Y780664D01*
X611366Y780294D01*
X611134Y779901D01*
X610903Y779461D01*
X610718Y779021D01*
X610533Y778536D01*
Y778512D01*
X610487Y778420D01*
X610463Y778281D01*
X610417Y778096D01*
X610348Y777865D01*
X610302Y777610D01*
X610255Y777332D01*
X610209Y777008D01*
X610186Y776337D01*
Y775967D01*
X610232Y775597D01*
X610302Y775250D01*
X610394Y774903D01*
X610533Y774556D01*
X610718Y774232D01*
X610741Y774208D01*
X610764Y774162D01*
X610834Y774070D01*
X610926Y773977D01*
X611065Y773861D01*
X611204Y773723D01*
X611389Y773560D01*
X611597Y773422D01*
X611852Y773260D01*
X612106Y773098D01*
X612430Y772959D01*
X612754Y772843D01*
X613125Y772751D01*
X613541Y772658D01*
X613981Y772612D01*
X614443Y772589D01*
X614605D01*
X614744Y772612D01*
X614906D01*
X615115Y772635D01*
X615346Y772658D01*
X615600Y772704D01*
X615901Y772751D01*
X616248Y772797D01*
X616595Y772866D01*
X617012Y772959D01*
X617428Y773052D01*
X617891Y773167D01*
X618377Y773306D01*
X618886Y773468D01*
X618099Y771085D01*
X618076D01*
X617961Y771038D01*
X617822Y770992D01*
X617613Y770946D01*
X617359Y770876D01*
X617081Y770807D01*
X616734Y770714D01*
X616387Y770645D01*
X615994Y770552D01*
X615600Y770460D01*
X614744Y770321D01*
X613888Y770229D01*
X613055Y770182D01*
X612893D01*
X612708Y770205D01*
X612453Y770229D01*
X612130Y770252D01*
X611782Y770298D01*
X611389Y770367D01*
X610973Y770460D01*
X610533Y770575D01*
X610093Y770738D01*
X609654Y770923D01*
X609214Y771131D01*
X608797Y771385D01*
X608404Y771686D01*
X608057Y772033D01*
X607733Y772427D01*
X607710Y772450D01*
X607664Y772542D01*
X607594Y772658D01*
X607525Y772843D01*
X607409Y773075D01*
X607317Y773329D01*
X607224Y773653D01*
X607131Y774023D01*
X607039Y774440D01*
X606992Y774880D01*
X606969Y775365D01*
Y775898D01*
X607016Y776476D01*
X607108Y777078D01*
X607247Y777726D01*
X607455Y778397D01*
X607478Y778443D01*
X607525Y778559D01*
X607594Y778744D01*
X607710Y779021D01*
X607849Y779322D01*
X608011Y779693D01*
X608219Y780086D01*
X608474Y780549D01*
X608751Y781011D01*
X609052Y781497D01*
X609422Y781983D01*
X609815Y782492D01*
X610232Y783001D01*
X610718Y783487D01*
X611227Y783973D01*
X611782Y784413D01*
X611829Y784436D01*
X611921Y784505D01*
X612083Y784621D01*
X612315Y784783D01*
X612615Y784945D01*
X612962Y785153D01*
X613356Y785362D01*
X613796Y785593D01*
X614281Y785801D01*
X614814Y786010D01*
X615369Y786218D01*
X615971Y786380D01*
X616572Y786542D01*
X617220Y786657D01*
X617891Y786727D01*
X618585Y786750D01*
X618956D01*
X619141Y786727D01*
D02*
G37*
G36*
X628998Y778906D02*
X633533Y770552D01*
X630340D01*
X626198Y778350D01*
X623560Y770552D01*
X620691D01*
X626059Y786380D01*
X628929D01*
X626383Y778859D01*
X634968Y786380D01*
X637722D01*
X628998Y778906D01*
D02*
G37*
G36*
X527185Y770552D02*
X524755D01*
X528816Y782504D01*
X522811Y773792D01*
X520451D01*
X520309Y782271D01*
X516332Y770552D01*
X514180D01*
X519549Y786380D01*
X522835D01*
X522988Y777409D01*
X529152Y786380D01*
X532553D01*
X527185Y770552D01*
D02*
G37*
G36*
X606252Y784112D02*
X602133D01*
X598292Y772820D01*
X602411D01*
X601647Y770552D01*
X590540D01*
X591304Y772820D01*
X595423D01*
X599264Y784112D01*
X595145D01*
X595909Y786380D01*
X607016D01*
X606252Y784112D01*
D02*
G37*
G36*
X592970D02*
X587070D01*
X582465Y770552D01*
X579595D01*
X584200Y784112D01*
X578300D01*
X579063Y786380D01*
X593734D01*
X592970Y784112D01*
D02*
G37*
G36*
X546205D02*
X538199D01*
X536788Y779970D01*
X543567D01*
X542804Y777702D01*
X536024D01*
X534358Y772820D01*
X542920D01*
X542156Y770552D01*
X530725D01*
X536093Y786380D01*
X546969D01*
X546205Y784112D01*
D02*
G37*
G36*
X515731D02*
X511612D01*
X507771Y772820D01*
X511890D01*
X511126Y770552D01*
X500019D01*
X500783Y772820D01*
X504902D01*
X508743Y784112D01*
X504624D01*
X505387Y786380D01*
X516494D01*
X515731Y784112D01*
D02*
G37*
G36*
X502449D02*
X496548D01*
X491943Y770552D01*
X489074D01*
X493679Y784112D01*
X487778D01*
X488542Y786380D01*
X503212D01*
X502449Y784112D01*
D02*
G37*
D22*
X641750Y775036D02*
D03*
Y767464D02*
D03*
X951250Y545464D02*
D03*
Y553036D02*
D03*
X796290Y711176D02*
D03*
Y703604D02*
D03*
X810260Y711176D02*
D03*
Y703604D02*
D03*
X824230Y711176D02*
D03*
Y703604D02*
D03*
X951230Y787351D02*
D03*
Y779780D02*
D03*
D23*
X660000Y777500D02*
D03*
X698500D02*
D03*
Y754500D02*
D03*
X660000D02*
D03*
D24*
X657660Y766000D02*
D03*
X700840D02*
D03*
D25*
X673250Y778573D02*
D03*
X685250D02*
D03*
Y753427D02*
D03*
X673250D02*
D03*
D26*
X718000Y771214D02*
D03*
Y779786D02*
D03*
X718250Y759786D02*
D03*
Y751214D02*
D03*
X901000Y546464D02*
D03*
Y555036D02*
D03*
D27*
X903750Y600155D02*
D03*
Y592845D02*
D03*
X951230Y741525D02*
D03*
Y734215D02*
D03*
D29*
X939000Y541500D02*
D03*
Y551500D02*
D03*
D30*
X926250Y518250D02*
D03*
X909750D02*
D03*
D31*
X941500Y518500D02*
D03*
X951500D02*
D03*
X925750Y580390D02*
D03*
X915750D02*
D03*
D33*
X830536Y746250D02*
D03*
X822964D02*
D03*
X822984Y759460D02*
D03*
X830556D02*
D03*
X867386Y680720D02*
D03*
X859814D02*
D03*
X867386Y666750D02*
D03*
X859814D02*
D03*
X871244Y637540D02*
D03*
X878816D02*
D03*
X871244Y623570D02*
D03*
X878816D02*
D03*
D34*
X731520Y779780D02*
D03*
X756500Y780500D02*
D03*
D35*
X721360Y730060D02*
D03*
Y738060D02*
D03*
X798830Y760920D02*
D03*
Y752920D02*
D03*
D36*
X780730Y757490D02*
D03*
X740730D02*
D03*
Y733490D02*
D03*
X780730D02*
D03*
D38*
X826770Y778700D02*
D03*
X818770D02*
D03*
D40*
X890270Y726643D02*
D03*
Y718617D02*
D03*
D42*
X847263Y759460D02*
D03*
X869777D02*
D03*
D45*
X790750Y514625D02*
D03*
D46*
X927500Y534000D02*
D03*
X922500D02*
D03*
X917500D02*
D03*
X912500D02*
D03*
Y565500D02*
D03*
X917500D02*
D03*
X922500D02*
D03*
X927500D02*
D03*
D47*
X753050Y718820D02*
D03*
X745550D02*
D03*
D48*
X905050Y700400D02*
D03*
Y620400D02*
D03*
Y690400D02*
D03*
Y680400D02*
D03*
Y670400D02*
D03*
Y660400D02*
D03*
Y650400D02*
D03*
Y640400D02*
D03*
Y630400D02*
D03*
D49*
X800010Y639480D02*
D03*
X804010D02*
D03*
X808010D02*
D03*
X812010D02*
D03*
X816010D02*
D03*
X820010D02*
D03*
X824010D02*
D03*
X828010D02*
D03*
X832010D02*
D03*
X836010D02*
D03*
Y687480D02*
D03*
X832010D02*
D03*
X828010D02*
D03*
X824010D02*
D03*
X820010D02*
D03*
X816010D02*
D03*
X812010D02*
D03*
X808010D02*
D03*
X804010D02*
D03*
X800010D02*
D03*
D50*
X842010Y645480D02*
D03*
Y649480D02*
D03*
Y653480D02*
D03*
Y657480D02*
D03*
Y661480D02*
D03*
Y665480D02*
D03*
Y669480D02*
D03*
Y673480D02*
D03*
Y677480D02*
D03*
Y681480D02*
D03*
X794010D02*
D03*
Y677480D02*
D03*
Y673480D02*
D03*
Y669480D02*
D03*
Y665480D02*
D03*
Y661480D02*
D03*
Y657480D02*
D03*
Y653480D02*
D03*
Y649480D02*
D03*
Y645480D02*
D03*
D51*
X818010Y663480D02*
D03*
D52*
X882260Y783590D02*
D03*
X865260D02*
D03*
D53*
X938170Y749980D02*
D03*
X893170D02*
D03*
X938170Y771480D02*
D03*
X893170D02*
D03*
D54*
X873100Y735610D02*
D03*
X863600D02*
D03*
X854100D02*
D03*
Y707110D02*
D03*
X863600D02*
D03*
X873100D02*
D03*
D55*
X863600Y721360D02*
D03*
D56*
X791735Y517680D02*
D03*
X810558D02*
D03*
X801146D02*
D03*
X764896D02*
D03*
X774308D02*
D03*
X746073D02*
D03*
X755485D02*
D03*
X736662D02*
D03*
X727250D02*
D03*
D57*
X662940Y689610D02*
D03*
Y575310D02*
D03*
D58*
X751840Y689610D02*
D03*
D59*
X726440Y676910D02*
D03*
X751840Y664210D02*
D03*
X726440Y651510D02*
D03*
X751840Y638810D02*
D03*
X726440Y626110D02*
D03*
X751840Y613410D02*
D03*
X726440Y600710D02*
D03*
X751840Y588010D02*
D03*
X726440Y575310D02*
D03*
D60*
X637540Y700260D02*
D03*
X617240D02*
D03*
X637540Y564660D02*
D03*
X617240D02*
D03*
D61*
X693440Y709910D02*
D03*
Y555010D02*
D03*
D62*
X821350Y605900D02*
D03*
X872150D02*
D03*
X821350Y555100D02*
D03*
X872150D02*
D03*
D63*
X846750Y580500D02*
D03*
D64*
X933450Y601900D02*
D03*
Y718900D02*
D03*
D65*
Y637900D02*
D03*
Y682900D02*
D03*
D66*
X869100Y721360D02*
D03*
X858100D02*
D03*
M02*
