G04*
G04 #@! TF.GenerationSoftware,Altium Limited,Altium Designer,24.1.2 (44)*
G04*
G04 Layer_Color=16711935*
%FSLAX44Y44*%
%MOMM*%
G71*
G04*
G04 #@! TF.SameCoordinates,BDBBCEB5-9933-478C-A866-C286992FDBA5*
G04*
G04*
G04 #@! TF.FilePolarity,Positive*
G04*
G01*
G75*
%ADD10C,0.2000*%
D10*
X429224Y610148D02*
Y610151D01*
X425491Y610548D02*
X429224Y610151D01*
X422017Y611645D02*
X425491Y610548D01*
X418875Y613367D02*
X422017Y611645D01*
X429224Y610148D02*
X574634Y610148D01*
X585162Y576029D02*
X587962Y578297D01*
X590281Y581056D01*
X592042Y584230D01*
X593170Y587744D01*
X590285Y602000D02*
X592045Y598825D01*
X587966Y604760D02*
X590285Y602000D01*
X585165Y607030D02*
X587966Y604760D01*
X581959Y608734D02*
X585165Y607030D01*
X578423Y609798D02*
X581959Y608734D01*
X574634Y610148D02*
X578423Y609798D01*
X625168Y723199D02*
X628417Y724895D01*
X553052Y652756D02*
X555370Y655516D01*
X557180Y673166D02*
X558278Y669669D01*
X555425Y676383D02*
X557180Y673166D01*
X553053Y679222D02*
X555425Y676383D01*
X550171Y681542D02*
X553053Y679222D01*
X546923Y683238D02*
X550171Y681542D01*
X543407Y684272D02*
X546923Y683238D01*
X539722Y684602D02*
X543407Y684272D01*
X493154Y759057D02*
X515033D01*
X489505Y759418D02*
X493154Y759057D01*
X486030Y760474D02*
X489505Y759418D01*
X482826Y762186D02*
X486030Y760474D01*
X479991Y764512D02*
X482826Y762186D01*
X477667Y767348D02*
X479991Y764512D01*
X396202Y684602D02*
X539722Y684602D01*
X391252Y685145D02*
X396202Y684602D01*
X386698Y686940D02*
X391252Y685145D01*
X382767Y689859D02*
X386698Y686940D01*
X379692Y693775D02*
X382767Y689859D01*
X377762Y698366D02*
X379692Y693775D01*
X377119Y703219D02*
X377762Y698366D01*
X377119Y703219D02*
X377762Y708072D01*
X379692Y712663D01*
X382767Y716579D01*
X386698Y719498D01*
X391252Y721292D02*
X396202Y721835D01*
X617968Y721835D01*
X628417Y724895D02*
X631299Y727215D01*
X386698Y719498D02*
X391252Y721292D01*
X617968Y721835D02*
X621652Y722166D01*
X625168Y723199D01*
X578422Y573263D02*
X581956Y574326D01*
X585162Y576029D01*
X574634Y572914D02*
X578422Y573263D01*
X515033Y759057D02*
X617968Y759057D01*
X475957Y770553D02*
X477667Y767348D01*
X474903Y774030D02*
X475957Y770553D01*
X474543Y777679D02*
X474904Y781327D01*
X475960Y784801D01*
X477670Y788005D01*
X479994Y790839D01*
X482829Y793163D01*
X486032Y794873D01*
X489506Y795929D01*
X493154Y796290D01*
X960766D01*
X474543Y777679D02*
X474903Y774030D01*
X558278Y669669D02*
X558675Y665991D01*
X592045Y598825D02*
X593172Y595308D01*
X593170Y587744D02*
X593587Y591525D01*
X593172Y595308D02*
X593587Y591525D01*
X960766Y778125D02*
X960766Y796290D01*
X960766Y509131D02*
X960766Y778125D01*
X949879Y509131D02*
X960766D01*
X897050Y509130D02*
X949879Y509131D01*
X897050Y509130D02*
Y533122D01*
X896359Y535001D02*
X897050Y533122D01*
X894526Y535807D02*
X896359Y535001D01*
X849930Y535057D02*
X851740Y535807D01*
X849181Y533248D02*
X849930Y535057D01*
X849181Y533248D02*
X849181Y517333D01*
X848431Y515524D02*
X849181Y517333D01*
X846622Y514774D02*
X848431Y515524D01*
X830422Y514774D02*
X846622Y514774D01*
X721510Y506377D02*
X722260Y504567D01*
X721510Y532985D02*
X721510Y506377D01*
X722260Y504567D02*
X724069Y503818D01*
X851740Y535807D02*
X894526D01*
X828612Y515524D02*
X830422Y514774D01*
X827862Y517333D02*
X828612Y515524D01*
X827862Y530437D02*
X827862Y517333D01*
X827444Y532509D02*
X827862Y530437D01*
X826303Y534202D02*
X827444Y532509D01*
X824611Y535343D02*
X826303Y534202D01*
X822539Y535761D02*
X824611Y535343D01*
X818774Y534202D02*
X820501Y535356D01*
X817620Y532475D02*
X818774Y534202D01*
X817215Y530437D02*
X817620Y532475D01*
X817215Y506446D02*
X817215Y530437D01*
X814655Y503886D02*
X816465Y504636D01*
X820501Y535356D02*
X822539Y535761D01*
X720733Y534984D02*
X721510Y532985D01*
X718734Y535761D02*
X720733Y534984D01*
X665620Y535693D02*
X718734Y535761D01*
X513512Y536071D02*
X516264Y535693D01*
X510757Y537155D02*
X513512Y536071D01*
X516264Y535693D02*
X665620Y535693D01*
X505692Y541142D02*
X510757Y537155D01*
X787876Y503886D02*
X814655Y503886D01*
X786059Y504632D02*
X787876Y503886D01*
X785305Y506446D02*
X786059Y504632D01*
X785305Y506446D02*
X785305Y522474D01*
X784529Y524349D02*
X785305Y522474D01*
X780773Y524352D02*
X782655Y525125D01*
X779993Y522474D02*
X780773Y524352D01*
X779993Y506423D02*
X779993Y522474D01*
X779260Y504583D02*
X779993Y506423D01*
X777434Y503818D02*
X779260Y504583D01*
X724069Y503818D02*
X777434D01*
X782655Y525125D02*
X784529Y524349D01*
X816465Y504636D02*
X817215Y506446D01*
X501983Y547058D02*
X505692Y541142D01*
X500544Y554304D02*
X500923Y550552D01*
X500544Y554304D02*
X500547Y554304D01*
X500944Y557982D01*
X502042Y561478D01*
X503797Y564695D01*
X506169Y567535D01*
X509051Y569854D01*
X512299Y571551D01*
X515816Y572584D01*
X519500Y572915D01*
X500923Y550552D02*
X501983Y547058D01*
X519500Y572915D02*
X574634Y572914D01*
X416138Y615640D02*
X418875Y613367D01*
X413881Y618390D02*
X416138Y615640D01*
X412178Y621542D02*
X413881Y618390D01*
X411101Y625023D02*
X412178Y621542D01*
X410726Y628758D02*
X411101Y625023D01*
X410726Y628758D02*
X411123Y632436D01*
X412221Y635933D01*
X413976Y639150D01*
X416348Y641990D01*
X419230Y644309D01*
X422479Y646005D01*
X425995Y647039D01*
X429680Y647369D01*
X539720Y647369D01*
X543509Y647718D01*
X547045Y648782D01*
X550251Y650487D01*
X553052Y652756D01*
X555370Y655516D02*
X557131Y658692D01*
X558257Y662209D01*
X558675Y665991D01*
X631299Y727215D02*
X633671Y730054D01*
X635426Y733271D01*
X636524Y736768D01*
X636922Y740446D01*
X636524Y744124D02*
X636922Y740446D01*
X635426Y747621D02*
X636524Y744124D01*
X633671Y750838D02*
X635426Y747621D01*
X631300Y753677D02*
X633671Y750838D01*
X628417Y755997D02*
X631300Y753677D01*
X625169Y757693D02*
X628417Y755997D01*
X621653Y758727D02*
X625169Y757693D01*
X617968Y759057D02*
X621653Y758727D01*
M02*
