G04*
G04 #@! TF.GenerationSoftware,Altium Limited,Altium Designer,24.1.2 (44)*
G04*
G04 Layer_Physical_Order=1*
G04 Layer_Color=255*
%FSLAX44Y44*%
%MOMM*%
G71*
G04*
G04 #@! TF.SameCoordinates,BDBBCEB5-9933-478C-A866-C286992FDBA5*
G04*
G04*
G04 #@! TF.FilePolarity,Positive*
G04*
G01*
G75*
%ADD22R,0.4725X0.5153*%
%ADD23R,1.1938X0.8890*%
%ADD24R,1.4986X0.5588*%
%ADD25R,0.5588X1.4986*%
%ADD26R,0.5725X0.6153*%
%ADD27R,0.4725X0.5811*%
%ADD28R,0.3000X0.8500*%
%ADD29R,0.6000X0.5000*%
%ADD30R,0.8000X0.8000*%
%ADD31R,0.5000X0.6000*%
%ADD32R,0.5500X0.5000*%
%ADD33R,0.5153X0.4725*%
%ADD34C,1.0000*%
%ADD35R,0.5200X0.5200*%
%ADD36R,1.8000X1.2000*%
%ADD37R,2.7800X0.8000*%
%ADD38R,0.4000X0.5000*%
%ADD39R,0.6500X1.0500*%
%ADD40R,0.5621X0.5596*%
%ADD41R,1.0000X0.7000*%
%ADD42R,1.5549X2.3062*%
%ADD43O,0.4000X0.7000*%
%ADD44R,2.4000X1.6500*%
%ADD62C,2.6018*%
%ADD63R,2.4248X2.4248*%
%ADD67R,0.2000X0.6000*%
%ADD68R,0.6000X0.2000*%
%ADD69R,2.8000X2.8000*%
%ADD70C,0.1530*%
%ADD71C,0.3810*%
%ADD72C,0.2030*%
%ADD73C,0.3493*%
%ADD74C,0.1704*%
%ADD75C,0.1161*%
%ADD76R,0.6500X2.2250*%
%ADD77C,3.2500*%
%ADD78R,1.4780X1.4780*%
%ADD79C,1.4780*%
%ADD80C,1.6500*%
%ADD81C,2.4750*%
%ADD82O,3.6600X1.6600*%
%ADD83C,1.2500*%
%ADD84C,0.4800*%
%ADD85C,0.3000*%
%ADD86C,0.4500*%
%ADD87C,0.5000*%
G36*
X821000Y780925D02*
Y774500D01*
X825750D01*
X833500Y766750D01*
Y743500D01*
X827750D01*
X827500Y743750D01*
Y766750D01*
X813750D01*
X809500Y771000D01*
Y781500D01*
X820425D01*
X821000Y780925D01*
D02*
G37*
G36*
X873760Y777240D02*
X878840Y772160D01*
Y746760D01*
X875030Y742950D01*
Y731520D01*
X868680D01*
Y739140D01*
X861060Y746760D01*
Y789940D01*
X873760D01*
Y777240D01*
D02*
G37*
G36*
X857250Y731520D02*
X850900D01*
Y734060D01*
X838200Y746760D01*
Y772160D01*
X857250D01*
Y731520D01*
D02*
G37*
G36*
X876500Y703238D02*
X869762Y696500D01*
X849761D01*
X849250Y697011D01*
Y712000D01*
X876500D01*
Y703238D01*
D02*
G37*
G36*
X921048Y709937D02*
X923450Y709621D01*
X934250D01*
Y690050D01*
X932509D01*
X930690Y689563D01*
X929060Y688621D01*
X927729Y687290D01*
X927128Y686250D01*
X917750D01*
Y695500D01*
X919850D01*
Y705300D01*
X917750D01*
Y710265D01*
X919020Y710777D01*
X921048Y709937D01*
D02*
G37*
G36*
X855000Y664000D02*
X839000D01*
Y667000D01*
X855000D01*
Y664000D01*
D02*
G37*
G36*
X854000Y656074D02*
X853676Y655750D01*
X839000D01*
Y662750D01*
X854000D01*
Y656074D01*
D02*
G37*
G36*
X938000Y670750D02*
Y644996D01*
X936730Y644262D01*
X936210Y644563D01*
X934391Y645050D01*
X932509D01*
X930690Y644563D01*
X929060Y643621D01*
X927729Y642290D01*
X926787Y640660D01*
X926300Y638841D01*
Y636959D01*
X926787Y635140D01*
X927729Y633510D01*
X929060Y632179D01*
X929898Y631694D01*
X930128Y630128D01*
X926500Y626500D01*
X909750D01*
Y634250D01*
X909748Y634599D01*
X910643Y635500D01*
X919850D01*
Y644230D01*
X919850Y645300D01*
X919850D01*
Y645500D01*
X919850D01*
Y655300D01*
X909619D01*
X909561Y664599D01*
X910457Y665500D01*
X919850D01*
Y674500D01*
X934250D01*
X938000Y670750D01*
D02*
G37*
G36*
X571834Y786825D02*
X572020D01*
X572274Y786802D01*
X572529Y786779D01*
X572830Y786755D01*
X573177Y786709D01*
X573524Y786640D01*
X573917Y786593D01*
X574310Y786501D01*
X575190Y786316D01*
X576115Y786038D01*
X575259Y783562D01*
X575236Y783585D01*
X575143Y783608D01*
X575005Y783655D01*
X574843Y783724D01*
X574611Y783794D01*
X574357Y783886D01*
X574056Y783979D01*
X573732Y784071D01*
X573038Y784256D01*
X572274Y784418D01*
X571511Y784534D01*
X571117Y784580D01*
X570631D01*
X570469Y784557D01*
X570284D01*
X570053Y784534D01*
X569775Y784488D01*
X569197Y784349D01*
X568896Y784233D01*
X568572Y784118D01*
X568271Y783956D01*
X567993Y783770D01*
X567739Y783562D01*
X567507Y783308D01*
X567299Y783007D01*
X567160Y782683D01*
Y782660D01*
X567137Y782544D01*
X567091Y782405D01*
Y782220D01*
X567068Y782035D01*
X567114Y781804D01*
X567160Y781595D01*
X567276Y781410D01*
X567299Y781387D01*
X567345Y781341D01*
X567461Y781225D01*
X567646Y781109D01*
X567878Y780971D01*
X568178Y780786D01*
X568572Y780600D01*
X568780Y780485D01*
X569035Y780392D01*
X570492Y779814D01*
X571742Y779328D01*
X571765Y779305D01*
X571858Y779281D01*
X572020Y779189D01*
X572182Y779096D01*
X572390Y778957D01*
X572621Y778795D01*
X572853Y778610D01*
X573107Y778379D01*
X573315Y778101D01*
X573524Y777801D01*
X573686Y777477D01*
X573801Y777083D01*
X573894Y776690D01*
Y776227D01*
X573825Y775741D01*
X573778Y775487D01*
X573686Y775209D01*
Y775186D01*
X573639Y775116D01*
X573593Y775001D01*
X573524Y774839D01*
X573431Y774653D01*
X573315Y774422D01*
X573177Y774168D01*
X573015Y773913D01*
X572830Y773635D01*
X572621Y773335D01*
X572367Y773034D01*
X572089Y772733D01*
X571788Y772432D01*
X571441Y772131D01*
X571071Y771854D01*
X570677Y771599D01*
X570654Y771576D01*
X570585Y771553D01*
X570446Y771483D01*
X570284Y771391D01*
X570076Y771298D01*
X569821Y771183D01*
X569521Y771067D01*
X569197Y770951D01*
X568826Y770812D01*
X568433Y770697D01*
X567993Y770581D01*
X567554Y770488D01*
X567068Y770396D01*
X566559Y770327D01*
X566026Y770303D01*
X565494Y770280D01*
X565286D01*
X565124Y770303D01*
X564939D01*
X564684Y770327D01*
X564407Y770350D01*
X564106Y770396D01*
X563736Y770442D01*
X563366Y770512D01*
X562949Y770581D01*
X562486Y770650D01*
X562000Y770766D01*
X561491Y770882D01*
X560959Y771021D01*
X560404Y771183D01*
X561352Y773982D01*
X561376Y773959D01*
X561491Y773913D01*
X561630Y773844D01*
X561838Y773751D01*
X562093Y773659D01*
X562394Y773520D01*
X562718Y773404D01*
X563088Y773265D01*
X563481Y773126D01*
X563875Y773011D01*
X564708Y772779D01*
X565124Y772687D01*
X565541Y772617D01*
X565957Y772571D01*
X566351Y772548D01*
X566628D01*
X566767Y772571D01*
X566929D01*
X567322Y772617D01*
X567762Y772710D01*
X568248Y772802D01*
X568711Y772964D01*
X569174Y773173D01*
X569197D01*
X569220Y773196D01*
X569359Y773288D01*
X569567Y773427D01*
X569798Y773612D01*
X570076Y773844D01*
X570307Y774145D01*
X570539Y774468D01*
X570701Y774839D01*
Y774862D01*
X570724Y774954D01*
X570770Y775093D01*
Y775278D01*
Y775463D01*
X570747Y775648D01*
X570677Y775857D01*
X570562Y776042D01*
X570539Y776065D01*
X570469Y776134D01*
X570354Y776227D01*
X570168Y776366D01*
X569891Y776528D01*
X569729Y776620D01*
X569544Y776736D01*
X569335Y776829D01*
X569081Y776944D01*
X568826Y777083D01*
X568526Y777199D01*
X566998Y777847D01*
X566975D01*
X566906Y777893D01*
X566813Y777939D01*
X566674Y777986D01*
X566512Y778078D01*
X566327Y778171D01*
X565934Y778379D01*
X565471Y778657D01*
X565055Y778957D01*
X564661Y779305D01*
X564499Y779466D01*
X564361Y779652D01*
X564337Y779698D01*
X564268Y779837D01*
X564198Y780045D01*
X564129Y780346D01*
X564060Y780716D01*
Y781156D01*
X564129Y781688D01*
X564198Y781966D01*
X564291Y782266D01*
Y782290D01*
X564337Y782359D01*
X564384Y782475D01*
X564430Y782637D01*
X564522Y782799D01*
X564615Y783030D01*
X564754Y783261D01*
X564893Y783516D01*
X565078Y783770D01*
X565263Y784048D01*
X565471Y784326D01*
X565726Y784604D01*
X565980Y784881D01*
X566281Y785159D01*
X566582Y785413D01*
X566929Y785645D01*
X566952Y785668D01*
X567021Y785691D01*
X567114Y785760D01*
X567276Y785830D01*
X567461Y785922D01*
X567669Y786015D01*
X567924Y786131D01*
X568202Y786246D01*
X568526Y786362D01*
X568873Y786478D01*
X569243Y786570D01*
X569636Y786663D01*
X570076Y786732D01*
X570516Y786802D01*
X570978Y786825D01*
X571464Y786848D01*
X571673D01*
X571834Y786825D01*
D02*
G37*
G36*
X619108D02*
X619340Y786802D01*
X619594Y786779D01*
X619872Y786755D01*
X620196Y786709D01*
X620520Y786663D01*
X621260Y786524D01*
X622070Y786316D01*
X622903Y786061D01*
X622024Y783470D01*
X622001Y783493D01*
X621931Y783516D01*
X621792Y783562D01*
X621631Y783655D01*
X621422Y783724D01*
X621191Y783817D01*
X620913Y783932D01*
X620612Y784025D01*
X620288Y784141D01*
X619964Y784233D01*
X619224Y784418D01*
X618484Y784534D01*
X618090Y784557D01*
X617720Y784580D01*
X617489D01*
X617327Y784557D01*
X617141Y784534D01*
X616887Y784488D01*
X616632Y784442D01*
X616332Y784372D01*
X616008Y784279D01*
X615684Y784164D01*
X615313Y784025D01*
X614943Y783863D01*
X614573Y783678D01*
X614180Y783447D01*
X613809Y783192D01*
X613416Y782891D01*
X613393Y782868D01*
X613323Y782822D01*
X613231Y782729D01*
X613092Y782590D01*
X612907Y782428D01*
X612722Y782220D01*
X612514Y781989D01*
X612282Y781734D01*
X612051Y781433D01*
X611819Y781109D01*
X611565Y780762D01*
X611333Y780392D01*
X611102Y779999D01*
X610871Y779559D01*
X610686Y779119D01*
X610500Y778633D01*
Y778610D01*
X610454Y778518D01*
X610431Y778379D01*
X610385Y778194D01*
X610315Y777962D01*
X610269Y777708D01*
X610223Y777430D01*
X610177Y777106D01*
X610153Y776435D01*
Y776065D01*
X610200Y775695D01*
X610269Y775348D01*
X610362Y775001D01*
X610500Y774653D01*
X610686Y774330D01*
X610709Y774306D01*
X610732Y774260D01*
X610801Y774168D01*
X610894Y774075D01*
X611033Y773959D01*
X611171Y773820D01*
X611357Y773659D01*
X611565Y773520D01*
X611819Y773358D01*
X612074Y773196D01*
X612398Y773057D01*
X612722Y772941D01*
X613092Y772849D01*
X613509Y772756D01*
X613948Y772710D01*
X614411Y772687D01*
X614573D01*
X614712Y772710D01*
X614874D01*
X615082Y772733D01*
X615313Y772756D01*
X615568Y772802D01*
X615869Y772849D01*
X616216Y772895D01*
X616563Y772964D01*
X616979Y773057D01*
X617396Y773149D01*
X617859Y773265D01*
X618345Y773404D01*
X618854Y773566D01*
X618067Y771183D01*
X618044D01*
X617928Y771136D01*
X617789Y771090D01*
X617581Y771044D01*
X617327Y770974D01*
X617049Y770905D01*
X616702Y770812D01*
X616355Y770743D01*
X615961Y770650D01*
X615568Y770558D01*
X614712Y770419D01*
X613856Y770327D01*
X613023Y770280D01*
X612861D01*
X612676Y770303D01*
X612421Y770327D01*
X612097Y770350D01*
X611750Y770396D01*
X611357Y770465D01*
X610940Y770558D01*
X610500Y770674D01*
X610061Y770835D01*
X609621Y771021D01*
X609182Y771229D01*
X608765Y771483D01*
X608372Y771784D01*
X608024Y772131D01*
X607701Y772525D01*
X607677Y772548D01*
X607631Y772640D01*
X607562Y772756D01*
X607492Y772941D01*
X607377Y773173D01*
X607284Y773427D01*
X607192Y773751D01*
X607099Y774121D01*
X607006Y774538D01*
X606960Y774977D01*
X606937Y775463D01*
Y775996D01*
X606983Y776574D01*
X607076Y777176D01*
X607215Y777824D01*
X607423Y778495D01*
X607446Y778541D01*
X607492Y778657D01*
X607562Y778842D01*
X607677Y779119D01*
X607816Y779420D01*
X607978Y779790D01*
X608186Y780184D01*
X608441Y780647D01*
X608719Y781109D01*
X609020Y781595D01*
X609390Y782081D01*
X609783Y782590D01*
X610200Y783099D01*
X610686Y783585D01*
X611195Y784071D01*
X611750Y784511D01*
X611796Y784534D01*
X611889Y784604D01*
X612051Y784719D01*
X612282Y784881D01*
X612583Y785043D01*
X612930Y785251D01*
X613323Y785460D01*
X613763Y785691D01*
X614249Y785899D01*
X614781Y786107D01*
X615337Y786316D01*
X615938Y786478D01*
X616540Y786640D01*
X617188Y786755D01*
X617859Y786825D01*
X618553Y786848D01*
X618923D01*
X619108Y786825D01*
D02*
G37*
G36*
X628966Y779004D02*
X633501Y770650D01*
X630308D01*
X626166Y778448D01*
X623528Y770650D01*
X620659D01*
X626027Y786478D01*
X628896D01*
X626351Y778957D01*
X634936Y786478D01*
X637689D01*
X628966Y779004D01*
D02*
G37*
G36*
X527152Y770650D02*
X524723D01*
X528784Y782602D01*
X522779Y773890D01*
X520419D01*
X520276Y782369D01*
X516300Y770650D01*
X514148D01*
X519516Y786478D01*
X522802D01*
X522956Y777507D01*
X529119Y786478D01*
X532521D01*
X527152Y770650D01*
D02*
G37*
G36*
X606220Y784210D02*
X602101D01*
X598260Y772918D01*
X602379D01*
X601615Y770650D01*
X590508D01*
X591272Y772918D01*
X595390D01*
X599231Y784210D01*
X595113D01*
X595876Y786478D01*
X606983D01*
X606220Y784210D01*
D02*
G37*
G36*
X592938D02*
X587037D01*
X582432Y770650D01*
X579563D01*
X584168Y784210D01*
X578267D01*
X579031Y786478D01*
X593701D01*
X592938Y784210D01*
D02*
G37*
G36*
X546173D02*
X538167D01*
X536755Y780068D01*
X543535D01*
X542771Y777801D01*
X535992D01*
X534325Y772918D01*
X542887D01*
X542123Y770650D01*
X530693D01*
X536061Y786478D01*
X546936D01*
X546173Y784210D01*
D02*
G37*
G36*
X515698D02*
X511580D01*
X507738Y772918D01*
X511857D01*
X511094Y770650D01*
X499987D01*
X500750Y772918D01*
X504869D01*
X508710Y784210D01*
X504591D01*
X505355Y786478D01*
X516462D01*
X515698Y784210D01*
D02*
G37*
G36*
X502416D02*
X496516D01*
X491911Y770650D01*
X489042D01*
X493647Y784210D01*
X487746D01*
X488509Y786478D01*
X503180D01*
X502416Y784210D01*
D02*
G37*
D22*
X641750Y775036D02*
D03*
Y767464D02*
D03*
X951250Y545464D02*
D03*
Y553036D02*
D03*
X796290Y711176D02*
D03*
Y703604D02*
D03*
X810260Y711176D02*
D03*
Y703604D02*
D03*
X824230Y711176D02*
D03*
Y703604D02*
D03*
X951230Y787351D02*
D03*
Y779780D02*
D03*
D23*
X660000Y777500D02*
D03*
X698500D02*
D03*
Y754500D02*
D03*
X660000D02*
D03*
D24*
X657660Y766000D02*
D03*
X700840D02*
D03*
D25*
X673250Y778573D02*
D03*
X685250D02*
D03*
Y753427D02*
D03*
X673250D02*
D03*
D26*
X718000Y771214D02*
D03*
Y779786D02*
D03*
X718250Y759786D02*
D03*
Y751214D02*
D03*
X901000Y546464D02*
D03*
Y555036D02*
D03*
D27*
X903750Y600155D02*
D03*
Y592845D02*
D03*
X951230Y741525D02*
D03*
Y734215D02*
D03*
D28*
X927500Y534000D02*
D03*
X922500D02*
D03*
X917500D02*
D03*
X912500D02*
D03*
Y565500D02*
D03*
X917500D02*
D03*
X922500D02*
D03*
X927500D02*
D03*
D29*
X939000Y541500D02*
D03*
Y551500D02*
D03*
D30*
X926250Y518250D02*
D03*
X909750D02*
D03*
D31*
X941500Y518500D02*
D03*
X951500D02*
D03*
X925750Y580390D02*
D03*
X915750D02*
D03*
D32*
X753050Y718820D02*
D03*
X745550D02*
D03*
D33*
X830536Y746250D02*
D03*
X822964D02*
D03*
X822984Y759460D02*
D03*
X830556D02*
D03*
X867386Y680720D02*
D03*
X859814D02*
D03*
X867386Y666750D02*
D03*
X859814D02*
D03*
X871244Y637540D02*
D03*
X878816D02*
D03*
X871244Y623570D02*
D03*
X878816D02*
D03*
D34*
X731520Y779780D02*
D03*
X756500Y780500D02*
D03*
D35*
X721360Y730060D02*
D03*
Y738060D02*
D03*
X798830Y760920D02*
D03*
Y752920D02*
D03*
D36*
X780730Y757490D02*
D03*
X740730D02*
D03*
Y733490D02*
D03*
X780730D02*
D03*
D37*
X905050Y700400D02*
D03*
Y620400D02*
D03*
Y690400D02*
D03*
Y680400D02*
D03*
Y670400D02*
D03*
Y660400D02*
D03*
Y650400D02*
D03*
Y640400D02*
D03*
Y630400D02*
D03*
D38*
X826770Y778700D02*
D03*
X818770D02*
D03*
D39*
X882260Y783590D02*
D03*
X865260D02*
D03*
D40*
X890270Y726643D02*
D03*
Y718617D02*
D03*
D41*
X938170Y749980D02*
D03*
X893170D02*
D03*
X938170Y771480D02*
D03*
X893170D02*
D03*
D42*
X847263Y759460D02*
D03*
X869777D02*
D03*
D43*
X873100Y735610D02*
D03*
X863600D02*
D03*
X854100D02*
D03*
Y707110D02*
D03*
X863600D02*
D03*
X873100D02*
D03*
D44*
X863600Y721360D02*
D03*
D62*
X821350Y605900D02*
D03*
X872150D02*
D03*
X821350Y555100D02*
D03*
X872150D02*
D03*
D63*
X846750Y580500D02*
D03*
D67*
X800010Y639480D02*
D03*
X804010D02*
D03*
X808010D02*
D03*
X812010D02*
D03*
X816010D02*
D03*
X820010D02*
D03*
X824010D02*
D03*
X828010D02*
D03*
X832010D02*
D03*
X836010D02*
D03*
Y687480D02*
D03*
X832010D02*
D03*
X828010D02*
D03*
X824010D02*
D03*
X820010D02*
D03*
X816010D02*
D03*
X812010D02*
D03*
X808010D02*
D03*
X804010D02*
D03*
X800010D02*
D03*
D68*
X842010Y645480D02*
D03*
Y649480D02*
D03*
Y653480D02*
D03*
Y657480D02*
D03*
Y661480D02*
D03*
Y665480D02*
D03*
Y669480D02*
D03*
Y673480D02*
D03*
Y677480D02*
D03*
Y681480D02*
D03*
X794010D02*
D03*
Y677480D02*
D03*
Y673480D02*
D03*
Y669480D02*
D03*
Y665480D02*
D03*
Y661480D02*
D03*
Y657480D02*
D03*
Y653480D02*
D03*
Y649480D02*
D03*
Y645480D02*
D03*
D69*
X818010Y663480D02*
D03*
D70*
X813430Y747115D02*
Y763455D01*
Y747115D02*
X842290Y718255D01*
X811000Y744399D02*
X832315Y723084D01*
X811000Y744399D02*
Y761696D01*
X792196Y780500D02*
X811000Y761696D01*
X787635Y789250D02*
X813430Y763455D01*
X756500Y780500D02*
X792196D01*
X749750Y789250D02*
X787635D01*
X740280Y779780D02*
X749750Y789250D01*
X731520Y779780D02*
X740280D01*
X833000Y697500D02*
X836010Y694490D01*
X842290Y714791D02*
Y718255D01*
X833280Y705781D02*
X842290Y714791D01*
X829500Y705500D02*
X829781Y705781D01*
X833280D01*
X832315Y710565D02*
Y723084D01*
X832250Y710500D02*
X832315Y710565D01*
X828005Y687485D02*
Y694495D01*
Y687485D02*
X828010Y687480D01*
X828000Y694500D02*
X828005Y694495D01*
X836010Y687480D02*
Y694490D01*
X896544Y708794D02*
X909500Y721750D01*
Y728500D01*
X891038Y711224D02*
X894984D01*
X849665Y690758D02*
X870572D01*
X891038Y711224D01*
X892044Y708794D02*
X896544D01*
X864250Y688250D02*
X871500D01*
X892044Y708794D01*
X904750Y720990D02*
Y728250D01*
X894984Y711224D02*
X904750Y720990D01*
X845682Y678797D02*
X846675Y679790D01*
X842010Y677480D02*
X844010D01*
X849500Y690750D02*
X849657D01*
X851939Y688328D02*
X864172D01*
X864250Y688250D01*
X853250Y685163D02*
X853531Y684882D01*
X854799D01*
X854933Y684747D01*
X849657Y690750D02*
X849665Y690758D01*
X846675Y679790D02*
Y683064D01*
X851939Y688328D01*
X844010Y677480D02*
X845327Y678797D01*
X845682D01*
X844103Y681715D02*
Y685353D01*
X843868Y681480D02*
X844103Y681715D01*
Y685353D02*
X849500Y690750D01*
X854933Y684747D02*
X870652D01*
X871627Y683772D01*
X842010Y645480D02*
X853409D01*
X871627Y663698D01*
Y683772D01*
D71*
X818000Y763250D02*
X818189Y763061D01*
X819169D02*
X822750Y759480D01*
X818189Y763061D02*
X819169D01*
X822750Y759413D02*
Y759480D01*
X781996Y758756D02*
X784160Y760920D01*
X798830D01*
X709232Y777500D02*
X711482Y779750D01*
X698500Y777500D02*
X709232D01*
X711482Y779750D02*
X711750D01*
X641750Y775250D02*
X644000Y777500D01*
X641750Y767250D02*
Y767464D01*
X638439Y761189D02*
Y763939D01*
X641750Y767250D01*
X638250Y761000D02*
X638439Y761189D01*
X647750Y777500D02*
X660000D01*
X644000D02*
X647750D01*
X647362Y777112D02*
X647750Y777500D01*
X647362Y750638D02*
Y777112D01*
Y750638D02*
X667000Y731000D01*
X704311Y738439D02*
X711061D01*
X698500Y744250D02*
X704311Y738439D01*
X711061D02*
X711345Y738155D01*
X698500Y744250D02*
Y754500D01*
X717293Y752386D02*
X718250Y751429D01*
Y751214D02*
Y751429D01*
X711864Y752386D02*
X717293D01*
X711768Y779768D02*
X717982D01*
X718000Y779786D01*
X711750Y779750D02*
X711768Y779768D01*
X685250Y741500D02*
X690061Y736689D01*
X693811D02*
X694000Y736500D01*
X690061Y736689D02*
X693811D01*
X685250Y741500D02*
Y753427D01*
X641750Y775036D02*
Y775250D01*
X799750Y785500D02*
X820470D01*
X826770Y778700D02*
Y779200D01*
X820470Y785500D02*
X826770Y779200D01*
X747825Y753395D02*
Y753500D01*
Y753395D02*
X752625D01*
X752750Y753270D01*
X711345Y738155D02*
X721318D01*
X740892Y760433D02*
X747825Y753500D01*
X849500Y650500D02*
X852470D01*
X865196Y663226D01*
X903750Y600155D02*
Y606750D01*
X906750Y565500D02*
X912500D01*
X933345Y536345D02*
X938500Y541500D01*
X927905Y536345D02*
X933345D01*
X927500Y535940D02*
X927905Y536345D01*
X927500Y534000D02*
Y535940D01*
X938500Y541500D02*
X939000D01*
X947500D02*
X951250Y545250D01*
X939000Y541500D02*
X947500D01*
X951250Y545250D02*
Y545464D01*
Y518750D02*
X951375Y518625D01*
X909250Y580500D02*
X909360Y580390D01*
X915750D01*
X951250Y518750D02*
Y545250D01*
X951000Y560500D02*
X951125Y560375D01*
Y553161D02*
X951250Y553036D01*
X951125Y553161D02*
Y560375D01*
X601000Y547250D02*
X662500D01*
X681995Y566745D01*
X863600Y721360D02*
Y735610D01*
X681995Y566745D02*
Y697503D01*
X667000Y712498D02*
X681995Y697503D01*
X667000Y712498D02*
Y731000D01*
X867171Y666750D02*
X867386D01*
X865196Y664775D02*
X867171Y666750D01*
X865196Y663226D02*
Y664775D01*
X867386Y666750D02*
Y680720D01*
X798790Y743540D02*
Y752952D01*
X798750Y743500D02*
X798790Y743540D01*
Y752952D02*
X798857Y753020D01*
X785213Y733108D02*
X785730D01*
X781500Y729395D02*
X785213Y733108D01*
X781500Y724250D02*
Y729395D01*
X822964Y746250D02*
X822982Y746268D01*
Y753232D02*
X823000Y753250D01*
X822982Y746268D02*
Y753232D01*
X945250Y787500D02*
X950413D01*
X950770Y787142D01*
X883480Y783795D02*
Y783857D01*
Y783795D02*
X883605Y783670D01*
X890920D01*
X891000Y783750D01*
X938250Y772588D02*
Y777750D01*
X937893Y772230D02*
X938250Y772588D01*
X896338Y771500D02*
X901500D01*
X895980Y771858D02*
X896338Y771500D01*
X889912Y727000D02*
X890270Y726643D01*
X884750Y727000D02*
X889912D01*
X939092Y718900D02*
X945000Y712992D01*
X933450Y718900D02*
X939092D01*
X945000Y636644D02*
Y712992D01*
X933450Y625094D02*
X945000Y636644D01*
X933450Y601900D02*
Y625094D01*
X925750Y580390D02*
Y595992D01*
X931658Y601900D01*
X933450D01*
X690757Y555010D02*
X693440D01*
Y709910D01*
X801000Y718982D02*
Y719250D01*
Y718982D02*
X801457Y718525D01*
X796290Y703819D02*
X798265Y705794D01*
X799814D02*
X801457Y707437D01*
X798265Y705794D02*
X799814D01*
X801457Y707437D02*
Y718525D01*
X796290Y703604D02*
Y703819D01*
X818352Y703604D02*
X824230D01*
X873100Y708163D02*
X873188Y708250D01*
X876750D02*
X886224Y717724D01*
X889377D02*
X890270Y718617D01*
X886224Y717724D02*
X889377D01*
X873188Y708250D02*
X876750D01*
X873100Y707110D02*
Y708163D01*
X863600Y707110D02*
X873100D01*
X883285Y734215D02*
X951230D01*
X810260Y703604D02*
X818352D01*
X872500Y745000D02*
X883285Y734215D01*
X826770Y778700D02*
X862370D01*
X865260Y781590D01*
Y783590D01*
D72*
X791750Y776750D02*
X807500Y761000D01*
Y738141D02*
Y761000D01*
X786500Y717141D02*
X807500Y738141D01*
X780730Y757490D02*
X781996Y758756D01*
Y771354D01*
X773000Y772250D02*
X777500Y776750D01*
X791750D01*
X719036Y772250D02*
X773000D01*
X718000Y771214D02*
X719036Y772250D01*
X718125Y759911D02*
Y771089D01*
X718000Y771214D02*
X718125Y771089D01*
Y759911D02*
X718250Y759786D01*
X836750Y667975D02*
X838254Y669480D01*
X836750Y654985D02*
X838254Y653480D01*
X836750Y654985D02*
Y667975D01*
X838254Y653480D02*
X842010D01*
X838254Y669480D02*
X856870D01*
X801699Y695500D02*
X806698D01*
X812720Y714720D02*
X813250Y715250D01*
X812720Y713850D02*
Y714720D01*
X810260Y711390D02*
X812720Y713850D01*
X922500Y534000D02*
Y543250D01*
X930750Y551500D01*
X938500D01*
X927500Y565500D02*
X927985Y565015D01*
X938500Y551500D02*
X939000D01*
X927985Y562015D02*
X938500Y551500D01*
X927985Y562015D02*
Y565015D01*
X951375Y518625D02*
X951500Y518500D01*
X926250Y518250D02*
X926500Y518500D01*
X941500D01*
X909750Y518250D02*
X917500Y526000D01*
Y534000D01*
X824010Y637510D02*
X825095Y636425D01*
X824010Y637510D02*
Y639480D01*
X825095Y635687D02*
Y636425D01*
X825814Y631601D02*
X826000Y631416D01*
X836008Y639478D02*
X836010Y639480D01*
X836008Y636229D02*
Y639478D01*
X825095Y635687D02*
X825814Y634967D01*
Y631601D02*
Y634967D01*
X836005Y636227D02*
X836008Y636229D01*
X640980Y724000D02*
X650250D01*
X617240Y700260D02*
X640980Y724000D01*
X800010Y676772D02*
Y687480D01*
X796733Y673495D02*
X800010Y676772D01*
X794025Y673495D02*
X796733D01*
X794010Y673480D02*
X794025Y673495D01*
X776762Y674750D02*
X778033Y673480D01*
X776500Y674750D02*
X776762D01*
X778033Y673480D02*
X794010D01*
X806698Y695500D02*
X810925Y691273D01*
Y690535D02*
Y691273D01*
Y690535D02*
X811995Y689465D01*
X794943Y712523D02*
X796290Y711176D01*
X794250Y717251D02*
X794943Y716558D01*
X794250Y717251D02*
Y718000D01*
X794943Y712523D02*
Y716558D01*
X818250Y730000D02*
X824230Y724020D01*
Y711176D02*
Y724020D01*
X810260Y711176D02*
Y711390D01*
X786500Y703631D02*
X794869Y695263D01*
X786500Y703631D02*
Y717141D01*
X798284Y690669D02*
X799488Y689465D01*
X799995Y687495D02*
X800010Y687480D01*
X799995Y687495D02*
Y689465D01*
X799488D02*
X799995D01*
X798284Y690669D02*
Y696414D01*
X796183Y698515D02*
X798284Y696414D01*
X796183Y698515D02*
Y703497D01*
X832025Y684224D02*
Y685495D01*
Y684224D02*
X834565Y681684D01*
Y680935D02*
Y681684D01*
X823596Y699113D02*
X827386D01*
X829773Y701500D02*
X842000D01*
X820000Y695517D02*
X823596Y699113D01*
X842000Y701500D02*
X849750Y693750D01*
X827386Y699113D02*
X829773Y701500D01*
X849750Y693750D02*
X869773D01*
X889928Y713904D01*
X893874D01*
X899250Y719280D02*
Y728500D01*
X893874Y713904D02*
X899250Y719280D01*
X820000Y692750D02*
Y695517D01*
X851249Y679500D02*
X851779Y680030D01*
X859124D02*
X859814Y680720D01*
X851779Y680030D02*
X859124D01*
X800010Y641450D02*
Y670188D01*
Y641450D02*
X801095Y642535D01*
X800010Y639480D02*
Y641450D01*
X801095Y642535D02*
Y643273D01*
X802217Y644395D01*
X809803D01*
X810925Y642535D02*
Y643273D01*
Y642535D02*
X812010Y641450D01*
X809803Y644395D02*
X810925Y643273D01*
X812010Y639480D02*
Y641450D01*
X794869Y695000D02*
Y695263D01*
X824010Y681510D02*
Y687480D01*
X824000Y681500D02*
X824010Y681510D01*
X894670Y749980D02*
X938170D01*
X897155Y745995D02*
Y747495D01*
Y745995D02*
X899000Y744150D01*
X893170Y749980D02*
X894670D01*
X897155Y747495D01*
X899000Y739250D02*
Y744150D01*
X820010Y687480D02*
Y692740D01*
X820000Y692750D02*
X820010Y692740D01*
X796733Y673465D02*
X800010Y670188D01*
X826450Y673480D02*
X842010D01*
X826235Y673265D02*
X826450Y673480D01*
X951230Y742068D02*
Y779780D01*
X945803Y747495D02*
X951230Y742068D01*
Y741525D02*
Y742068D01*
X940655Y747495D02*
X945803D01*
X938170Y749980D02*
X940655Y747495D01*
X721360Y730060D02*
X737300D01*
X740730Y733490D01*
X745550Y718820D02*
Y728670D01*
X740730Y733490D02*
X745550Y728670D01*
X753050Y718820D02*
X753085Y718785D01*
X759334D01*
X759369Y718750D01*
X805500Y681263D02*
X807995Y683758D01*
Y685495D01*
X805500Y681000D02*
Y681263D01*
X859814Y666750D02*
Y680720D01*
X856870Y669480D02*
X859600Y666750D01*
X859814D01*
X810260Y703390D02*
Y703604D01*
X816010Y687480D02*
Y697640D01*
X810260Y703390D02*
X816010Y697640D01*
X788215Y653465D02*
X793995D01*
X785000Y650250D02*
X788215Y653465D01*
X793995D02*
X794010Y653480D01*
D73*
X917500Y561008D02*
Y565500D01*
X911528Y555036D02*
X917500Y561008D01*
X901000Y555036D02*
X911528D01*
X836715Y649480D02*
X842010D01*
X834723Y651472D02*
X836715Y649480D01*
X903750Y592845D02*
Y593388D01*
Y578863D02*
Y592845D01*
X890750Y605750D02*
X891000Y605500D01*
Y603895D02*
X900892Y594004D01*
X891000Y603895D02*
Y605500D01*
X900892Y594004D02*
X903134D01*
X903750Y593388D01*
Y578863D02*
X910217Y572396D01*
X920096D01*
X922254Y570239D01*
Y565746D02*
X922500Y565500D01*
X922254Y565746D02*
Y570239D01*
X912500Y536258D02*
Y543250D01*
Y534000D02*
Y536258D01*
Y543250D02*
X922500Y553250D01*
Y565500D01*
X903624Y545134D02*
X912500Y536258D01*
X902116Y545134D02*
X903624D01*
X901000Y546250D02*
X902116Y545134D01*
X846750Y580500D02*
X875750D01*
X901000Y555250D01*
Y555036D02*
Y555250D01*
D74*
X895150Y620400D02*
X905050D01*
X890424Y624648D02*
X890902D01*
X889398Y625674D02*
Y628252D01*
X890902Y624648D02*
X895150Y620400D01*
X889398Y625674D02*
X890424Y624648D01*
X885467Y629250D02*
X888400D01*
X889398Y628252D01*
X885467Y629250D02*
X885467Y629250D01*
X879814Y629250D02*
X885467D01*
X832010Y637480D02*
Y639480D01*
X831312Y634386D02*
X832723Y632975D01*
X831312Y634386D02*
Y636782D01*
X843713Y633091D02*
X844580D01*
X828010Y637480D02*
X828708Y636782D01*
X844580Y633091D02*
X874144Y662655D01*
X815862Y637332D02*
Y639332D01*
X845706Y630371D02*
X876864Y661529D01*
X831312Y636782D02*
X832010Y637480D01*
X814979Y632511D02*
Y636449D01*
X819885Y633424D02*
X819947Y633486D01*
X831644Y630371D02*
X845706D01*
X814387Y631919D02*
X814979Y632511D01*
X819947Y639417D02*
X820010Y639480D01*
X828708Y633307D02*
X831644Y630371D01*
X828010Y637480D02*
Y639480D01*
X814979Y636449D02*
X815862Y637332D01*
X828708Y633307D02*
Y636782D01*
X804650Y627638D02*
X807242Y625047D01*
X815862Y639332D02*
X816010Y639480D01*
X843597Y632975D02*
X843713Y633091D01*
X807242Y625047D02*
X848698D01*
X882691Y659040D01*
X807370Y628765D02*
X808368Y627767D01*
X847571D02*
X881564Y661760D01*
X808368Y627767D02*
X847571D01*
X832723Y632975D02*
X843597D01*
X819947Y633486D02*
Y639417D01*
X807370Y628765D02*
Y636840D01*
X804650Y627638D02*
Y636840D01*
X879814Y631970D02*
X884340D01*
X884340Y631970D02*
X888400D01*
X878816Y632968D02*
Y637540D01*
X889398Y632968D02*
Y635126D01*
X878816Y632968D02*
X879814Y631970D01*
X888400Y631970D02*
X889398Y632968D01*
X884340Y631970D02*
X884340Y631970D01*
X878816Y628252D02*
X879814Y629250D01*
X878816Y623570D02*
Y628252D01*
X870326Y624488D02*
X871244Y623570D01*
X861805Y628995D02*
X862485D01*
X865949Y625080D02*
X866541Y624488D01*
X870326D01*
X862485Y628995D02*
X871030Y637540D01*
X876864Y661529D02*
Y678684D01*
X874144Y662655D02*
Y680043D01*
X885862Y691760D01*
X882691Y659040D02*
X888400D01*
X876748Y678800D02*
X886988Y689040D01*
X876748Y678800D02*
X876864Y678684D01*
X881564Y661760D02*
X888400D01*
Y691760D02*
X889398Y692758D01*
Y685674D02*
Y688042D01*
X888400Y689040D02*
X889398Y688042D01*
X886988Y689040D02*
X888400D01*
X889398Y692758D02*
Y695126D01*
X885862Y691760D02*
X888400D01*
X890424Y696152D02*
X890902D01*
X889398Y695126D02*
X890424Y696152D01*
X890902Y636152D02*
X895150Y640400D01*
X889398Y635126D02*
X890424Y636152D01*
X895150Y640400D02*
X905050D01*
X890424Y636152D02*
X890902D01*
X871030Y637540D02*
X871244D01*
X808010Y637480D02*
Y639480D01*
X807370Y636840D02*
X808010Y637480D01*
X804010D02*
Y639480D01*
Y637480D02*
X804650Y636840D01*
X889398Y662758D02*
Y665126D01*
X888400Y661760D02*
X889398Y662758D01*
X890424Y666152D02*
X890902D01*
X889398Y665126D02*
X890424Y666152D01*
X890902D02*
X895150Y670400D01*
X905050D01*
X889398Y655674D02*
X890424Y654648D01*
X889398Y655674D02*
Y658042D01*
X888400Y659040D02*
X889398Y658042D01*
X890424Y654648D02*
X890902D01*
X895150Y650400D02*
X905050D01*
X890902Y654648D02*
X895150Y650400D01*
Y680400D02*
X905050D01*
X890902Y684648D02*
X895150Y680400D01*
Y700400D02*
X905050D01*
X889398Y685674D02*
X890424Y684648D01*
X890902D01*
X890902Y696152D02*
X895150Y700400D01*
D75*
X782810Y658391D02*
X782810Y658391D01*
X781908Y660568D02*
X791099D01*
X781908Y660568D02*
X781908Y660568D01*
X767040Y658391D02*
X782810D01*
X767040Y660568D02*
X781908D01*
X761631Y670557D02*
X783059D01*
X785048Y668568D01*
X782157Y668381D02*
X784146Y666392D01*
X760729Y668381D02*
X782157D01*
X756931Y675257D02*
X761631Y670557D01*
X756029Y673081D02*
X760729Y668381D01*
X782810Y658391D02*
X791099D01*
X779723Y678391D02*
X791099D01*
X765810Y676630D02*
X766548D01*
Y682330D02*
X768310Y680568D01*
X765810Y682330D02*
X766548D01*
X778822Y680568D02*
X778822Y680568D01*
X791099D01*
X768310Y680568D02*
X778822D01*
X766548Y676630D02*
X768310Y678391D01*
X779723D02*
X779723Y678391D01*
X768310Y678391D02*
X779723D01*
X766571Y627017D02*
X788123Y648569D01*
X789025Y646392D02*
X791099D01*
X746392Y627017D02*
X766571D01*
X788123Y648569D02*
X791099D01*
X767473Y624840D02*
X789025Y646392D01*
X745490Y624840D02*
X767473D01*
X744596Y673081D02*
X756029D01*
X792010Y665480D02*
X794010D01*
X791099Y666392D02*
X792010Y665480D01*
X784146Y666392D02*
X791099D01*
X723381Y668039D02*
X736476D01*
X743694Y675257D02*
X756931D01*
X792010Y669480D02*
X794010D01*
X785048Y668568D02*
X791099D01*
X792010Y669480D01*
X736476Y668039D02*
X743694Y675257D01*
X736869Y598439D02*
X751840Y613410D01*
X736869Y593359D02*
X737026Y593203D01*
X736869Y593359D02*
Y598439D01*
X737026Y590437D02*
Y593203D01*
X715373Y660032D02*
X723381Y668039D01*
X733692Y587103D02*
X737026Y590437D01*
X722998Y587103D02*
X733692D01*
X715373Y594728D02*
Y660032D01*
Y594728D02*
X722998Y587103D01*
X737378Y665863D02*
X744596Y673081D01*
X724283Y665863D02*
X737378D01*
X717550Y595630D02*
Y659130D01*
X724283Y665863D01*
X726440Y600710D02*
X734849Y592301D01*
Y591339D02*
Y592301D01*
X732790Y589280D02*
X734849Y591339D01*
X717550Y595630D02*
X723900Y589280D01*
X732790D01*
X737870Y632460D02*
X745490Y624840D01*
X740047Y652417D02*
X751840Y664210D01*
X740047Y642476D02*
X740047Y642476D01*
X737870Y632460D02*
Y643378D01*
X740047Y633362D02*
Y642476D01*
X727049Y652119D02*
X737190D01*
X737870Y643378D02*
X737870Y643378D01*
X740047Y642476D02*
Y652417D01*
X737870Y643378D02*
Y651439D01*
X737190Y652119D02*
X737870Y651439D01*
X740047Y633362D02*
X746392Y627017D01*
X791099Y646392D02*
X792010Y645480D01*
X794010D01*
X791099Y648569D02*
X792010Y649480D01*
X794010D01*
X726440Y651510D02*
X727049Y652119D01*
X791099Y660568D02*
X792010Y661480D01*
X794010D01*
X764540Y662330D02*
X765278D01*
X767040Y660568D01*
X792010Y657480D02*
X794010D01*
X791099Y658391D02*
X792010Y657480D01*
X765278Y656630D02*
X767040Y658391D01*
X764540Y656630D02*
X765278D01*
X791099Y680568D02*
X792010Y681480D01*
X794010D01*
X792010Y677480D02*
X794010D01*
X791099Y678391D02*
X792010Y677480D01*
D76*
X791735Y517680D02*
D03*
X810558D02*
D03*
X801146D02*
D03*
X764896D02*
D03*
X774308D02*
D03*
X746073D02*
D03*
X755485D02*
D03*
X736662D02*
D03*
X727250D02*
D03*
D77*
X662940Y689610D02*
D03*
Y575310D02*
D03*
D78*
X751840Y689610D02*
D03*
D79*
X726440Y676910D02*
D03*
X751840Y664210D02*
D03*
X726440Y651510D02*
D03*
X751840Y638810D02*
D03*
X726440Y626110D02*
D03*
X751840Y613410D02*
D03*
X726440Y600710D02*
D03*
X751840Y588010D02*
D03*
X726440Y575310D02*
D03*
D80*
X637540Y700260D02*
D03*
X617240D02*
D03*
X637540Y564660D02*
D03*
X617240D02*
D03*
D81*
X693440Y709910D02*
D03*
Y555010D02*
D03*
D82*
X933450Y601900D02*
D03*
Y718900D02*
D03*
D83*
Y637900D02*
D03*
Y682900D02*
D03*
D84*
X818000Y763250D02*
D03*
X781996Y771354D02*
D03*
X773000Y772250D02*
D03*
X638250Y761000D02*
D03*
X710748Y753537D02*
D03*
X711750Y779750D02*
D03*
X694000Y736500D02*
D03*
X799750Y785500D02*
D03*
X812250Y778800D02*
D03*
X689345Y765354D02*
D03*
X721750Y716500D02*
D03*
X752750Y753270D02*
D03*
X711250Y738250D02*
D03*
X890750Y605750D02*
D03*
X796750Y630500D02*
D03*
X808485Y655515D02*
D03*
X817360D02*
D03*
X826235D02*
D03*
X813250Y715250D02*
D03*
X849500Y650500D02*
D03*
X903625Y606875D02*
D03*
X906625Y565625D02*
D03*
X951125Y532125D02*
D03*
X909360Y580390D02*
D03*
X951000Y560500D02*
D03*
X819885Y633424D02*
D03*
X814387Y631919D02*
D03*
X601000Y547250D02*
D03*
X667000Y731000D02*
D03*
X650250Y724000D02*
D03*
X842500Y731500D02*
D03*
X732750Y554500D02*
D03*
X923500Y663792D02*
D03*
Y657083D02*
D03*
Y650375D02*
D03*
Y643667D02*
D03*
Y630250D02*
D03*
X932000Y650000D02*
D03*
Y669250D02*
D03*
X923500Y670500D02*
D03*
X932000Y656417D02*
D03*
Y662833D02*
D03*
X777000Y664500D02*
D03*
X777464Y649806D02*
D03*
X772250Y687250D02*
D03*
X769986Y696050D02*
D03*
X771750Y711000D02*
D03*
X798750Y743500D02*
D03*
X781500Y724250D02*
D03*
X823000Y753250D02*
D03*
X945250Y787500D02*
D03*
X891000Y783750D02*
D03*
X938250Y777750D02*
D03*
X901500Y771500D02*
D03*
X884750Y727000D02*
D03*
X865949Y625080D02*
D03*
X861805Y628995D02*
D03*
X794250Y718000D02*
D03*
X818250Y730000D02*
D03*
X828250Y715250D02*
D03*
X838225Y716475D02*
D03*
X801000Y719250D02*
D03*
X834565Y680935D02*
D03*
X842600Y694798D02*
D03*
X818352Y703604D02*
D03*
X851249Y679500D02*
D03*
X808235Y663745D02*
D03*
X826485D02*
D03*
X826235Y673265D02*
D03*
X817360Y663745D02*
D03*
X817360Y673265D02*
D03*
X808485D02*
D03*
X818250Y772750D02*
D03*
X812250D02*
D03*
X764540Y662330D02*
D03*
Y656630D02*
D03*
X765810Y682330D02*
D03*
Y676630D02*
D03*
D85*
X834410Y651680D02*
D03*
X842250Y636227D02*
D03*
X841500Y640500D02*
D03*
X801699Y695500D02*
D03*
X851750Y657500D02*
D03*
X847500Y665500D02*
D03*
X836005Y636227D02*
D03*
X851980Y665618D02*
D03*
X841750Y688750D02*
D03*
X833000Y697500D02*
D03*
X776500Y674750D02*
D03*
X832250Y710500D02*
D03*
X829500Y705500D02*
D03*
X794869Y695000D02*
D03*
X803987Y691119D02*
D03*
X828000Y694500D02*
D03*
X909500Y728500D02*
D03*
X904625Y728375D02*
D03*
X853250Y685163D02*
D03*
X826000Y631416D02*
D03*
X824010Y681510D02*
D03*
X899000Y739250D02*
D03*
X899250Y728500D02*
D03*
X759369Y718750D02*
D03*
X805500Y681000D02*
D03*
X867250Y745000D02*
D03*
X872500D02*
D03*
X785000Y650250D02*
D03*
D86*
X868250Y700000D02*
D03*
X930750Y705250D02*
D03*
Y698500D02*
D03*
X854750Y700000D02*
D03*
X871250Y775000D02*
D03*
X864750D02*
D03*
X861500Y700000D02*
D03*
X923750Y705250D02*
D03*
Y698500D02*
D03*
Y692250D02*
D03*
D87*
X869100Y721360D02*
D03*
X858100D02*
D03*
M02*
