G04*
G04 #@! TF.GenerationSoftware,Altium Limited,Altium Designer,24.1.2 (44)*
G04*
G04 Layer_Color=16711935*
%FSLAX44Y44*%
%MOMM*%
G71*
G04*
G04 #@! TF.SameCoordinates,BDBBCEB5-9933-478C-A866-C286992FDBA5*
G04*
G04*
G04 #@! TF.FilePolarity,Negative*
G04*
G01*
G75*
%ADD22R,0.4725X0.5153*%
%ADD26R,0.5725X0.6153*%
%ADD27R,0.4725X0.5811*%
%ADD29R,0.6000X0.5000*%
%ADD31R,0.5000X0.6000*%
%ADD33R,0.5153X0.4725*%
%ADD34C,1.0000*%
%ADD45R,15.8500X2.8250*%
%ADD56R,0.6700X2.2450*%
%ADD57C,3.3260*%
%ADD58R,1.5540X1.5540*%
%ADD59C,1.5540*%
%ADD60C,1.7260*%
%ADD61C,2.5510*%
%ADD62C,2.6018*%
%ADD63R,2.4248X2.4248*%
%ADD64O,3.7360X1.7360*%
%ADD65C,1.3260*%
%ADD66C,0.5760*%
%ADD89R,0.5200X0.5200*%
%ADD90R,0.6153X0.5725*%
%ADD91R,0.5811X0.4725*%
%ADD94R,0.5596X0.5621*%
%ADD95R,1.5562X1.5544*%
%ADD96R,0.4500X0.6750*%
%ADD97R,0.6750X0.4500*%
%ADD98R,0.5000X0.4000*%
%ADD100R,1.3260X0.9260*%
%ADD101R,0.7260X1.3260*%
%ADD102C,0.0327*%
%ADD103C,0.2200*%
D22*
X821690Y654026D02*
D03*
Y646454D02*
D03*
X824230Y711176D02*
D03*
Y703604D02*
D03*
X810260Y711176D02*
D03*
Y703604D02*
D03*
D26*
X592750Y546964D02*
D03*
Y555536D02*
D03*
D27*
X798750Y729595D02*
D03*
Y736905D02*
D03*
D29*
X847500Y697250D02*
D03*
Y687250D02*
D03*
X796290Y702390D02*
D03*
Y712390D02*
D03*
X838200Y702390D02*
D03*
Y712390D02*
D03*
D31*
X649500Y742000D02*
D03*
X659500D02*
D03*
X716000Y554750D02*
D03*
X726000D02*
D03*
X616500Y582750D02*
D03*
X606500D02*
D03*
D33*
X794464Y760000D02*
D03*
X802036D02*
D03*
X777264Y711200D02*
D03*
X784836D02*
D03*
X775500Y696250D02*
D03*
X783071D02*
D03*
X840716Y684530D02*
D03*
X833144D02*
D03*
X777264Y669290D02*
D03*
X784836D02*
D03*
X777264Y655320D02*
D03*
X784836D02*
D03*
X833144Y646430D02*
D03*
X840716D02*
D03*
D34*
X759750Y708750D02*
D03*
X738250D02*
D03*
D45*
X781750Y514625D02*
D03*
D56*
X764896Y517930D02*
D03*
X727250D02*
D03*
X736662D02*
D03*
X755485D02*
D03*
X746073D02*
D03*
X774308D02*
D03*
X801146D02*
D03*
X810558D02*
D03*
X791735D02*
D03*
D57*
X662940Y689610D02*
D03*
Y575310D02*
D03*
D58*
X751840Y689610D02*
D03*
D59*
X726440Y676910D02*
D03*
X751840Y664210D02*
D03*
X726440Y651510D02*
D03*
X751840Y638810D02*
D03*
X726440Y626110D02*
D03*
X751840Y613410D02*
D03*
X726440Y600710D02*
D03*
X751840Y588010D02*
D03*
X726440Y575310D02*
D03*
D60*
X637540Y700260D02*
D03*
X617240D02*
D03*
X637540Y564660D02*
D03*
X617240D02*
D03*
D61*
X693440Y709910D02*
D03*
Y555010D02*
D03*
D62*
X821350Y605900D02*
D03*
X872150D02*
D03*
X821350Y555100D02*
D03*
X872150D02*
D03*
D63*
X846750Y580500D02*
D03*
D64*
X933450Y601900D02*
D03*
Y718900D02*
D03*
D65*
Y637900D02*
D03*
Y682900D02*
D03*
D66*
X869100Y721360D02*
D03*
X858100D02*
D03*
D89*
X689000Y779750D02*
D03*
X697000D02*
D03*
D90*
X773214Y782000D02*
D03*
X781786D02*
D03*
X659036Y731000D02*
D03*
X650464D02*
D03*
D91*
X687155Y733750D02*
D03*
X679845D02*
D03*
X696655Y771750D02*
D03*
X689345D02*
D03*
X696155Y758500D02*
D03*
X688845D02*
D03*
D94*
X777038Y683260D02*
D03*
X785062D02*
D03*
D95*
X862330Y674239D02*
D03*
Y656721D02*
D03*
D96*
X832305Y671830D02*
D03*
X841555D02*
D03*
X832305Y659130D02*
D03*
X841555D02*
D03*
D97*
X852750Y634375D02*
D03*
Y643625D02*
D03*
D98*
X865250Y646000D02*
D03*
Y638000D02*
D03*
D100*
X779250Y759700D02*
D03*
X721750D02*
D03*
Y734300D02*
D03*
X779250D02*
D03*
D101*
X763200Y765750D02*
D03*
X750500D02*
D03*
X737800D02*
D03*
Y728250D02*
D03*
X750500D02*
D03*
X763200D02*
D03*
D102*
X571686Y630881D02*
X571735Y630964D01*
X571649Y630212D02*
X571686Y630881D01*
X571649Y630212D02*
X571670Y629455D01*
X571344Y628811D02*
X571739Y628733D01*
X577653Y627703D02*
X577779Y627575D01*
X577526Y627542D02*
X577653Y627703D01*
X586550Y629254D02*
X586608Y629203D01*
X586420Y629092D02*
X586550Y629254D01*
X586269Y628936D02*
X586420Y629092D01*
X585996Y628834D02*
X586269Y628936D01*
X584857Y628743D02*
X585996Y628834D01*
X585624Y628642D02*
X586190Y628730D01*
X586511Y628915D01*
X586608Y629203D01*
X584793Y628645D02*
X585624Y628642D01*
X582945Y631108D02*
X583167Y631033D01*
X582754Y631097D02*
X582945Y631108D01*
X582694Y631009D02*
X582754Y631097D01*
X582694Y631009D02*
X582978Y630279D01*
X583656Y631198D02*
X584919Y631250D01*
X583656Y631198D02*
X583665Y630526D01*
X583477Y628707D02*
X584857Y628743D01*
X583477Y628707D02*
X584793Y628645D01*
X583167Y631033D02*
X583317Y630854D01*
X582978Y630279D02*
X583286Y629585D01*
X583317Y630854D02*
X583350Y630093D01*
X583665Y630526D02*
X583674Y629854D01*
X583710Y630492D01*
X583746Y631132D01*
X583286Y629585D02*
X583350Y630093D01*
X583746Y631132D02*
X585088Y631092D01*
X582980Y631392D02*
X583194Y631122D01*
X583488Y630899D01*
X583571Y630919D01*
X583633Y631023D01*
X583746Y631134D01*
X583989Y631223D01*
X582980Y631392D02*
X583003Y631449D01*
X583989Y631223D02*
X584857Y631333D01*
X583567Y631466D02*
X584776Y631432D01*
X586703Y631217D02*
X587918Y631252D01*
X586703Y631217D02*
X587912Y631154D01*
X585846Y631250D02*
X586305Y631177D01*
X584919Y631250D02*
X585846Y631250D01*
X585088Y631092D02*
X585998Y631101D01*
X584857Y631333D02*
X585986Y631397D01*
X585998Y631101D02*
X586305Y631177D01*
X584776Y631432D02*
X585986Y631397D01*
X586364Y632821D02*
X586372Y632206D01*
X586453Y631902D01*
X586542Y632358D01*
X583502Y633169D02*
X583534Y632318D01*
X586542Y632358D02*
X586568Y633569D01*
X583322Y631670D02*
X583435Y632318D01*
X583229Y631516D02*
X583322Y631670D01*
X583109Y631466D02*
X583229Y631516D01*
X583003Y631449D02*
X583109Y631466D01*
X583534Y632318D02*
X583567Y631466D01*
X582170Y632475D02*
X582548Y631655D01*
X582719Y631517D01*
X582422Y631683D02*
X582481Y631556D01*
X582267Y631736D02*
X582422Y631683D01*
X582105Y631890D02*
X582267Y631736D01*
X582481Y631556D02*
X582595Y631395D01*
X582037Y632272D02*
X582105Y631890D01*
X583435Y632318D02*
X583502Y633169D01*
X582158Y633776D02*
X582618Y633792D01*
X581884Y633649D02*
X582158Y633776D01*
X581884Y633649D02*
X581930Y633243D01*
X582170Y632475D01*
X581500Y634155D02*
X582444D01*
X581956Y632690D02*
X582037Y632272D01*
X581723Y632867D02*
X581956Y632690D01*
X581549Y632930D02*
X581723Y632867D01*
X581443Y633076D02*
X581549Y632930D01*
X581345Y633854D02*
X581443Y633076D01*
X582444Y634155D02*
X583387D01*
X581297Y634052D02*
X581345Y633854D01*
X571735Y630964D02*
X571803Y630882D01*
X571670Y629455D02*
X571803Y629897D01*
X571868Y630464D01*
X571803Y630882D02*
X571868Y630464D01*
X572421Y630526D02*
X572528Y631013D01*
X572448Y631091D02*
X572528Y631013D01*
X572090Y631078D02*
X572267Y631108D01*
X571983Y630967D02*
X572090Y631078D01*
X571918Y630355D02*
X571983Y630967D01*
X571918Y630355D02*
X571953Y629904D01*
X572054Y629784D01*
X572212Y629992D02*
X572421Y630526D01*
X572054Y629784D02*
X572212Y629992D01*
X572267Y631108D02*
X572448Y631091D01*
X589584Y635559D02*
X589647Y634871D01*
X589422Y636036D02*
X589451Y635200D01*
X589317Y635068D02*
X589422Y636036D01*
X588492Y636606D02*
X588764Y636475D01*
X589520Y635166D02*
X589584Y635559D01*
X586782Y641544D02*
X587240Y641219D01*
X587890Y639391D02*
X589033Y639340D01*
X587957Y640323D02*
X589033Y639340D01*
X588979Y639486D02*
X589051Y639655D01*
X586434Y641678D02*
X586782Y641544D01*
X586290Y641640D02*
X586434Y641678D01*
X586344Y641544D02*
X586475Y641359D01*
X586538Y641099D01*
X586558Y640956D01*
X586583Y641054D01*
X586639Y641246D01*
X586766Y641308D01*
X587335Y641041D01*
X587549Y640932D01*
X587240Y641219D02*
X587549Y640932D01*
X586792Y641315D02*
X587957Y640323D01*
X586290Y641640D02*
X586344Y641544D01*
X589051Y639655D02*
X589138Y639621D01*
X588905Y639333D02*
X588979Y639486D01*
X589119Y639163D02*
X589232Y639338D01*
X589094Y638928D02*
X589152Y637887D01*
X589138Y639621D02*
X589232Y639338D01*
X588736Y639230D02*
X588905Y639333D01*
X587989Y639132D02*
X588736Y639230D01*
X587350Y639094D02*
X587989Y639132D01*
X587350Y639094D02*
X588136Y639068D01*
X588765Y639080D01*
X589119Y639163D01*
X586748Y639441D02*
X587890Y639391D01*
X587944Y638916D02*
X589094Y638928D01*
X587132Y638868D02*
X587944Y638916D01*
X586726Y639028D02*
X586792Y639121D01*
X586524Y634626D02*
X586568Y633569D01*
X586488Y634808D02*
X586524Y634626D01*
X586446Y634710D02*
X586488Y634808D01*
X586279Y634229D02*
X586446Y634710D01*
X585995Y633978D02*
X586279Y634229D01*
X585749Y633859D02*
X585995Y633978D01*
X586224Y633676D02*
X586333Y633527D01*
X586269Y636231D02*
X586283Y635155D01*
X586333Y633527D02*
X586364Y632821D01*
X585749Y633859D02*
X586027Y633757D01*
X586224Y633676D01*
X586168Y636540D02*
X586294Y636457D01*
X585888Y636603D02*
X586168Y636540D01*
X585144Y636290D02*
X586058Y636308D01*
X586255Y636366D01*
X586294Y636457D01*
X584955Y634070D02*
X586255Y634076D01*
X584984Y634115D02*
X586255Y634076D01*
X584970Y636305D02*
X586269Y636231D01*
X586222Y634155D02*
X586283Y635155D01*
X584983Y634155D02*
X586222D01*
X585078Y636663D02*
X585888Y636603D01*
X582926Y636638D02*
X583271Y636527D01*
X582295Y636661D02*
X582926Y636638D01*
X582386Y636338D02*
X583046Y636415D01*
X583271Y636527D01*
X584283Y636630D02*
X585078Y636663D01*
X584023Y636576D02*
X584283Y636630D01*
X583925Y636496D02*
X584023Y636576D01*
X583925Y636496D02*
X584283Y636367D01*
X585144Y636290D01*
X583656Y634065D02*
X584955Y634070D01*
X583713Y634155D02*
X584984Y634115D01*
X583713Y634155D02*
X583750Y635364D01*
X583746Y636305D02*
X584970D01*
X583746Y635230D02*
Y636305D01*
Y634155D02*
X584983D01*
X583746D02*
Y635230D01*
X584133Y641951D02*
X584463Y641919D01*
X585115Y641924D01*
X583265Y641837D02*
X583482Y641904D01*
X581996Y641861D02*
X583265Y641837D01*
X582043Y641592D02*
X583298D01*
X582043Y641950D02*
X583134Y642013D01*
X582034Y641502D02*
X583387D01*
Y640419D02*
Y641502D01*
X583705Y637942D02*
X583728Y637694D01*
X583685Y637787D02*
X583705Y637942D01*
X583663Y636440D02*
X583685Y637787D01*
X583656Y634065D02*
X583663Y636440D01*
X583728Y637694D02*
X583750Y635364D01*
X583570Y637694D02*
X583586Y634903D01*
X587883Y636661D02*
X588492Y636606D01*
X587249Y636632D02*
X587883Y636661D01*
X586901Y636515D02*
X587249Y636632D01*
X586901Y636515D02*
X587123Y636398D01*
X587786Y636326D01*
X588496Y636349D01*
X588694Y636401D01*
X587927Y636305D02*
X589137Y636231D01*
X586792Y636305D02*
X587927D01*
X586792Y635230D02*
Y636305D01*
Y636664D02*
X587763D01*
X588592Y636686D01*
X586792Y636664D02*
Y637649D01*
X588694Y636401D02*
X588764Y636475D01*
X589089Y634155D02*
X589150Y635155D01*
X589137Y636231D02*
X589150Y635155D01*
X588592Y636686D02*
X589019Y636826D01*
X589119Y636974D01*
X589165Y637191D01*
X589137Y633722D02*
X589151Y632549D01*
X589152Y637887D02*
X589165Y637191D01*
X574947Y640634D02*
X574984Y641326D01*
X574920Y641565D02*
X574984Y641326D01*
X574833Y641232D02*
X574920Y641565D01*
X574812Y640551D02*
X574833Y641232D01*
X574812Y640551D02*
X574838Y639621D01*
X574947Y640634D01*
X574569Y640472D02*
X574622Y641681D01*
X574610Y639058D02*
X574640Y639159D01*
X574627Y639251D02*
X574640Y639159D01*
X574627Y639251D02*
X574675Y639280D01*
X574821Y640411D02*
X574931Y639439D01*
X574821Y640411D02*
X574836Y641320D01*
X574898Y641573D01*
X574864Y642190D02*
X574940Y641950D01*
X574964Y640414D02*
Y641502D01*
X574933Y643652D02*
X575003Y643855D01*
X575007Y643544D02*
X575148Y643893D01*
X574940Y641950D02*
X575025Y641858D01*
X575623Y643982D02*
X576432Y644011D01*
X575183Y643836D02*
X575623Y643982D01*
X575000Y643483D02*
X575183Y643836D01*
X574964Y642834D02*
X575000Y643483D01*
X574964Y641874D02*
Y642834D01*
Y641874D02*
X575790Y641890D01*
X576242Y641915D01*
X576522Y641994D01*
X576701Y642168D01*
X575025Y641858D02*
X575122Y641819D01*
X574327Y636575D02*
X574343Y636494D01*
X574160Y636627D02*
X574327Y636575D01*
X573376Y636644D02*
X574160Y636627D01*
X572637Y636573D02*
X573376Y636644D01*
X572384Y636455D02*
X572637Y636573D01*
X572384Y636455D02*
X572727Y636338D01*
X573362Y636309D02*
X573998Y636363D01*
X574343Y636494D01*
X572727Y636338D02*
X573362Y636309D01*
X574979Y638321D02*
X575007Y638710D01*
X574979Y638321D02*
X574993Y637649D01*
X575230Y638187D02*
X575373Y638606D01*
X574993Y637649D02*
X575230Y638187D01*
X579948Y638988D02*
X580221Y638874D01*
X579803Y638835D02*
X579844Y638944D01*
X579803Y638835D02*
X580065Y638073D01*
X579815Y639113D02*
X579973Y639140D01*
X579815Y639113D02*
X580027Y639096D01*
X579844Y638944D02*
X579948Y638988D01*
X571868Y636917D02*
X571982Y636754D01*
X571754Y636868D02*
X571868Y636917D01*
X571473Y636344D02*
X571678Y636408D01*
X571741Y636517D01*
X571782Y636640D01*
X571918Y636484D01*
X572036Y636335D01*
X571746Y638635D02*
X571855Y637933D01*
X571629Y637924D02*
X571746Y638635D01*
X571564Y640414D02*
X571623Y641185D01*
X571559Y640427D02*
Y641502D01*
Y639352D02*
Y640427D01*
X571498Y637873D02*
X571526Y638993D01*
X571470Y636753D02*
X571498Y637873D01*
X572036Y636335D02*
X572088Y636339D01*
X575230Y639006D02*
X575384Y638859D01*
X575097Y638947D02*
X575230Y639006D01*
X575007Y638710D02*
X575097Y638947D01*
X575373Y638606D02*
X575384Y638859D01*
X575022Y639503D02*
X575136Y639381D01*
X575342Y639384D01*
X575533Y639461D01*
X574990Y639141D02*
X575544Y638725D01*
X575639Y638683D02*
X575678Y638846D01*
X575568Y639079D02*
X575678Y638846D01*
X575278Y639205D02*
X575568Y639079D01*
X575060Y639269D02*
X575278Y639205D01*
X574931Y639439D02*
X575060Y639269D01*
X575544Y638725D02*
X575639Y638683D01*
X574675Y639280D02*
X574990Y639141D01*
X575533Y639461D02*
X575710Y639638D01*
X576188Y641463D02*
X576398Y641368D01*
X575681Y641502D02*
X576188Y641463D01*
X574964Y640414D02*
X575022Y639503D01*
X575710Y639638D02*
X576059Y640337D01*
X576398Y641368D01*
X574964Y641502D02*
X575681D01*
X574586Y642970D02*
X574631Y641861D01*
X571881Y642646D02*
X571893Y641945D01*
X571881Y642646D02*
X571947Y643000D01*
X572107Y643223D01*
X572461Y643395D01*
X573111Y643593D01*
X572119Y643432D02*
X572994Y643721D01*
X571447Y643151D02*
X572119Y643432D01*
X572325Y643245D02*
X572929Y643472D01*
X572064Y642971D02*
X572325Y643245D01*
X572007Y642570D02*
X572064Y642971D01*
X572007Y641950D02*
Y642570D01*
Y641950D02*
X573262D01*
X574516D02*
X574549Y642903D01*
X573262Y641950D02*
X574516D01*
X571623Y641185D02*
X571774Y641646D01*
X571889Y640592D02*
X571950Y641681D01*
X573286D01*
X574622D01*
X571665Y641898D02*
X571761Y641861D01*
X571489Y642936D02*
X571559Y642491D01*
X571466Y642131D02*
X571559Y642491D01*
X571310Y643060D02*
X571372Y643026D01*
X571488Y642993D01*
X571559Y642889D02*
X571582Y642443D01*
X571603Y642010D01*
X571488Y642993D02*
X571559Y642889D01*
X571310Y643060D02*
X571447Y643151D01*
X575148Y643893D02*
X575211Y643944D01*
X575103Y643938D02*
X575211Y643944D01*
X575003Y643855D02*
X575103Y643938D01*
X577920Y643976D02*
X578059Y643841D01*
X576432Y644011D02*
X576946Y644003D01*
X574881Y642876D02*
X574933Y643652D01*
X574881Y642876D02*
X574888Y641861D01*
X574926Y642831D01*
X575007Y643544D01*
X574898Y641573D02*
X575000Y641707D01*
X575122Y641819D01*
X574757Y642928D02*
X574864Y642190D01*
X574736Y643688D02*
X574757Y642928D01*
X577212Y643528D02*
X577265Y643805D01*
X577200Y643948D02*
X577265Y643805D01*
X576946Y644003D02*
X577200Y643948D01*
X576701Y642168D02*
X576853Y642476D01*
X577212Y643528D01*
X578059Y643841D02*
X578143Y643458D01*
X578242Y642923D01*
X578416Y642424D01*
X579176Y644014D02*
X580251Y643922D01*
X577835Y643968D02*
X577920Y643976D01*
X571564Y640414D02*
X571602Y639663D01*
X571741Y639260D01*
X571835Y639124D01*
X571918Y641502D02*
X573272D01*
X574586Y642970D02*
X574605Y643818D01*
X573111Y643593D02*
X573796Y643820D01*
X573841Y643871D01*
X572994Y643721D02*
X573676Y643874D01*
X574549Y642903D02*
X574581Y643855D01*
X574015Y643731D02*
X574581Y643855D01*
X572929Y643472D02*
X574015Y643731D01*
X573676Y643874D02*
X573841Y643871D01*
X580330Y641356D02*
X580392Y641571D01*
X580330Y641356D02*
X580363Y640660D01*
X580463Y639621D01*
X580392Y641571D02*
X580474Y641213D01*
X580268Y639248D02*
X580484Y639461D01*
X580341Y640427D02*
Y641502D01*
X579541Y639501D02*
X579703Y639384D01*
X579921Y639352D01*
X580153Y639378D01*
X580278Y639511D01*
X580341Y640427D01*
X579973Y639140D02*
X580268Y639248D01*
X580065Y638073D02*
X580327Y637470D01*
X580334Y638112D01*
X580303Y638601D02*
X580334Y638112D01*
X580221Y638874D02*
X580303Y638601D01*
X580027Y639096D02*
X580350Y639034D01*
X580562Y638904D01*
X580661Y638814D01*
X580696Y638904D01*
X580782Y638582D02*
X580870Y638819D01*
X580731Y637453D02*
X580782Y638582D01*
X580870Y638819D02*
X581047Y638943D01*
X583377Y640696D02*
X583455Y639800D01*
X583556Y640696D01*
X583374Y637918D02*
X583388Y639262D01*
X583374Y637918D02*
X583385Y635382D01*
X583535Y638993D02*
X583570Y637694D01*
X583387Y639336D02*
Y640419D01*
X583325Y638718D02*
X583353Y637626D01*
X583298Y636753D02*
X583353Y637626D01*
X583535Y638993D02*
X584940Y639014D01*
X586568Y639007D01*
X586726Y639028D01*
X586794Y638769D02*
X587132Y638868D01*
X586792Y637649D02*
X586794Y638769D01*
X586255Y638014D02*
Y639006D01*
X584992Y638974D02*
X586255Y639006D01*
X583730Y638942D02*
X584992Y638974D01*
X583730Y638942D02*
X583783Y637848D01*
X583835Y636753D01*
X585045D02*
X585899Y636793D01*
X586255Y636888D01*
Y638014D01*
X583835Y636753D02*
X585045D01*
X580520Y642112D02*
X580609Y642042D01*
X580364Y641978D02*
X580511Y642140D01*
X580232Y641757D02*
X580364Y641978D01*
X580232Y641757D02*
X580319Y641681D01*
X580403Y641613D01*
X579612Y641502D02*
X580341D01*
X579447Y641950D02*
X580251D01*
X580511Y642140D02*
X580520Y642112D01*
X579823Y638511D02*
X579968Y638226D01*
X579620Y638635D02*
X579823Y638511D01*
X579485Y638717D02*
X579620Y638635D01*
X579323Y638940D02*
X579485Y638717D01*
X579968Y638226D02*
X580013Y637912D01*
X586292Y639222D02*
X586792Y639121D01*
X583388Y639262D02*
X585090Y639263D01*
X586725Y640382D02*
X586792Y641315D01*
X586725Y640382D02*
X586748Y639441D01*
X583746Y639352D02*
X585045D01*
X586344D01*
Y640427D01*
X583746Y641502D02*
X585045D01*
X583856Y642172D02*
X583943Y642025D01*
X584133Y641951D01*
X585115Y641924D02*
X585377Y642021D01*
X585250Y642209D02*
X585377Y642021D01*
X583736Y641490D02*
X583960Y641623D01*
X584373Y641701D01*
X585090Y641810D01*
X584428Y641835D02*
X585090Y641810D01*
X585090Y639263D02*
X586292Y639222D01*
X586344Y640427D02*
Y641502D01*
X585045D02*
X586344D01*
X583746Y639352D02*
Y640427D01*
X583919Y641918D02*
X584428Y641835D01*
X580731Y637453D02*
X580789Y636753D01*
X580538Y637291D02*
X580670Y635511D01*
X580476Y637827D02*
X580538Y637291D01*
X580324Y637574D02*
X580476Y637827D01*
X580141Y637275D02*
X580324Y637574D01*
X579934Y637357D02*
X580047Y637272D01*
X579812Y637554D02*
X579934Y637357D01*
X579916Y637701D02*
X580013Y637912D01*
X580047Y637272D02*
X580141Y637275D01*
X579812Y637554D02*
X579916Y637701D01*
X580696Y638904D02*
X581046Y639032D01*
X581908Y639086D01*
X583119Y639089D01*
X581993Y639131D02*
X583119Y639089D01*
X581090Y639227D02*
X581993Y639131D01*
X580866Y639323D02*
X581090Y639227D01*
X580756Y639461D02*
X580866Y639323D01*
X580789Y639441D02*
X582088Y639389D01*
X583387Y639336D01*
X582948Y638887D02*
X583325Y638718D01*
X582066Y638974D02*
X582948Y638887D01*
X581047Y638943D02*
X582066Y638974D01*
X581688Y636603D02*
X582295Y636661D01*
X581416Y636474D02*
X581688Y636603D01*
X581416Y636474D02*
X581484Y636399D01*
X581678Y636350D01*
X582386Y636338D01*
X583348Y634496D02*
X583385Y635382D01*
X582791Y636277D02*
X583268Y636186D01*
X581909Y636302D02*
X582791Y636277D01*
X581072Y636266D02*
X581909Y636302D01*
X580732Y636171D02*
X581072Y636266D01*
X580732Y636171D02*
X581147Y635095D01*
X581500Y634155D01*
X583352Y635821D02*
X583387Y635110D01*
X583268Y636186D02*
X583352Y635821D01*
X580789Y636753D02*
X582043D01*
X583298D01*
X580463Y639621D02*
X580492Y640531D01*
X580474Y641213D02*
X580492Y640531D01*
X580638Y639660D02*
X580756Y639461D01*
X580484D02*
X580638Y639660D01*
X580917Y641972D02*
X581996Y641861D01*
X580609Y642042D02*
X580917Y641972D01*
X580472Y641421D02*
X580548Y640741D01*
X580576Y639800D01*
X580682Y640696D01*
X580789Y641592D01*
X582043D01*
X580789Y641950D02*
X582043D01*
X580681Y641502D02*
X580735Y640472D01*
X580789Y639441D01*
X580681Y641502D02*
X582034D01*
X580403Y641613D02*
X580472Y641421D01*
X579036Y641444D02*
X579612Y641502D01*
X578955Y641348D02*
X579036Y641444D01*
X578955Y641348D02*
X578973Y641189D01*
X579282Y640113D01*
X579541Y639501D01*
X578562Y642178D02*
X578745Y642034D01*
X579447Y641950D01*
X578972Y639680D02*
X579323Y638940D01*
X578671Y640591D02*
X578972Y639680D01*
X578524Y641408D02*
X578671Y640591D01*
X578442Y642027D02*
X578524Y641408D01*
X578308Y642347D02*
X578442Y642027D01*
X578280Y642219D02*
X578336Y642076D01*
X578218Y642112D02*
X578336Y642076D01*
X578223Y642359D02*
X578280Y642219D01*
X583520Y642191D02*
X583520Y642036D01*
X583482Y641904D02*
X583520Y642036D01*
X583298Y641592D02*
X583377Y640696D01*
X583556D02*
X583626Y641211D01*
X583736Y641490D01*
X583622Y642081D02*
X583919Y641918D01*
X583134Y642013D02*
X583296Y642152D01*
X583746Y640427D02*
Y641502D01*
X583520Y642191D02*
X583622Y642081D01*
X589512Y634592D02*
X589520Y635166D01*
X589512Y634592D02*
X589583Y634180D01*
X589627Y634144D01*
X589654Y634262D01*
X589647Y634871D02*
X589654Y634262D01*
X589523Y633906D02*
X589594Y633987D01*
X589579Y634107D02*
X589594Y633987D01*
X589451Y635200D02*
X589579Y634107D01*
X589660Y634155D02*
Y635230D01*
Y632623D02*
Y633796D01*
X590741D01*
X589660Y634155D02*
X590735D01*
X588887Y631224D02*
X589123Y631151D01*
X587918Y631252D02*
X588887Y631224D01*
X587912Y631154D02*
X589122Y631092D01*
X589706Y631157D02*
X589959Y631235D01*
X590919Y631252D01*
X589539Y631242D02*
X589966Y631408D01*
X589660Y631108D02*
X590814D01*
X589660Y631450D02*
X590869Y631503D01*
X589966Y631408D02*
X590925Y631466D01*
X589440Y629223D02*
X589542Y629055D01*
X589343Y629238D02*
X589440Y629223D01*
X589340Y629097D02*
X589343Y629238D01*
X589633Y628437D02*
X589863Y628533D01*
X590744Y628599D01*
X589683Y628936D02*
X589972Y628847D01*
X589660Y628599D02*
X590635D01*
X589734Y628943D02*
X590878Y628927D01*
X589972Y628847D02*
X590794Y628764D01*
X590744Y628599D02*
X591436Y628573D01*
X591637Y628521D01*
X591753Y628425D01*
X591763Y628044D01*
X591534Y627324D02*
X591763Y628044D01*
X591875Y627784D02*
X592078Y628478D01*
X591907Y628889D02*
X592050Y629002D01*
X591618Y628813D02*
X591907Y628889D01*
X590794Y628764D02*
X591618Y628813D01*
X591353Y628551D02*
X591710Y628437D01*
X590635Y628599D02*
X591353Y628551D01*
X591669Y628027D02*
X591710Y628437D01*
X590878Y628927D02*
X591947Y628987D01*
X592065Y629874D01*
X589123Y631151D02*
X589231Y631033D01*
X589122Y631092D02*
X589149Y630428D01*
X589185Y629976D01*
X589252Y630272D01*
X589231Y631033D02*
X589252Y630272D01*
X589284Y631466D02*
X589354Y632497D01*
X589234Y631025D02*
X589359Y630829D01*
X589551Y631023D02*
X589706Y631157D01*
X589485Y631254D02*
X589539Y631242D01*
X589443Y631453D02*
X589485Y631254D01*
X589410Y632273D02*
X589443Y631453D01*
X589660Y630063D02*
Y631108D01*
Y631450D02*
Y632623D01*
X589359Y630829D02*
X589551Y631023D01*
X589125Y631165D02*
X589234Y631025D01*
X592169Y631257D02*
X592205Y631146D01*
X592169Y631257D02*
X592213Y631405D01*
X592318Y631466D01*
X592389Y631723D01*
X592391Y632298D01*
X592338Y632902D02*
X592391Y632298D01*
X592243Y633244D02*
X592338Y632902D01*
X592169Y632392D02*
X592190Y633024D01*
X592169Y631466D02*
Y632392D01*
X592049Y632419D02*
X592079Y631556D01*
X591920Y633539D02*
X592049Y632419D01*
X592342Y633047D02*
X592421Y631293D01*
X592190Y633024D02*
X592243Y633244D01*
X589158Y634275D02*
X589317Y635068D01*
X589031Y634076D02*
X589158Y634275D01*
X588853Y633966D02*
X589031Y634076D01*
X588696Y633863D02*
X589086Y633842D01*
X589523Y633906D01*
X588696Y633863D02*
X588853Y633966D01*
X590919Y631252D02*
X592079Y631198D01*
X590925Y631466D02*
X592169D01*
X591661Y631057D02*
X592075Y630935D01*
X590814Y631108D02*
X591661Y631057D01*
X591815Y633657D02*
X591920Y633539D01*
X591594Y633736D02*
X591815Y633657D01*
X590741Y633796D02*
X591594Y633736D01*
X590869Y631503D02*
X592079Y631556D01*
X590735Y634155D02*
X591810Y634228D01*
X592078Y628478D02*
X592155Y628945D01*
X592121Y629098D02*
X592155Y628945D01*
X592050Y629002D02*
X592121Y629098D01*
X592079Y631198D02*
X592177Y630212D01*
X592274Y629226D01*
X592344Y630260D01*
X592357Y630953D01*
X592291Y631171D02*
X592357Y630953D01*
X592205Y631146D02*
X592291Y631171D01*
X592075Y630935D02*
X592117Y630552D01*
X592065Y629874D02*
X592117Y630552D01*
X565686Y631948D02*
X565771Y631645D01*
X565846Y631948D01*
X565914Y631407D02*
X567303Y631437D01*
X565914Y631407D02*
X567303Y631302D01*
X566093Y631217D02*
X567309Y631252D01*
X566093Y631217D02*
X567303Y631154D01*
X564366Y631108D02*
X565645D01*
X566155Y632454D02*
X566216Y631466D01*
X565454Y631667D02*
X565576Y631829D01*
X565645Y632622D01*
X566183Y631108D02*
X567348D01*
X564896Y634107D02*
X565669Y634176D01*
X564122Y634038D02*
X564896Y634107D01*
X563109Y631096D02*
X563213Y631259D01*
X567303Y631154D02*
X568513Y631092D01*
X568558Y631749D02*
X568599Y631571D01*
X568664Y631539D01*
X568814Y631534D01*
X568998Y631748D02*
X569050Y631564D01*
X568871Y631825D02*
X568998Y631748D01*
X566216Y631466D02*
X567081D01*
X567876Y631496D01*
X568305Y631651D01*
X569029Y631959D02*
X569146Y631575D01*
X569506Y631473D01*
X570260Y631503D01*
X571470Y631556D01*
X568936Y631376D02*
X569047Y631248D01*
X569289Y631171D01*
X570344Y631144D01*
X569329Y631346D02*
X570350Y631241D01*
X569114Y631436D02*
X569329Y631346D01*
X569050Y631564D02*
X569114Y631436D01*
X570023Y631412D02*
X570341Y631429D01*
X570023Y631412D02*
X570046Y631394D01*
X569050Y634155D02*
X570305D01*
X569413Y631054D02*
X570320Y631108D01*
X569650Y633765D02*
X570414Y633796D01*
X569221Y633629D02*
X569650Y633765D01*
X569036Y633322D02*
X569221Y633629D01*
X569006Y632779D02*
X569036Y633322D01*
X569006Y632779D02*
X569029Y631959D01*
X569017Y630917D02*
X569413Y631054D01*
X567303Y631437D02*
X568284Y631418D01*
X567303Y631302D02*
X568284Y631268D01*
X568272Y631224D02*
X568510Y631153D01*
X567309Y631252D02*
X568272Y631224D01*
X567348Y631108D02*
X568513D01*
X563213Y631259D02*
X563405Y631300D01*
X571022Y631364D02*
X572194Y631378D01*
X572428Y631408D01*
X572369Y631448D02*
X572428Y631408D01*
X572071Y631529D02*
X572369Y631448D01*
X571915Y631667D02*
X572071Y631529D01*
X571862Y631943D02*
X571915Y631667D01*
X571862Y631943D02*
X571869Y632438D01*
X571954Y632699D02*
X571972Y631860D01*
X572061Y631671D01*
X572218Y631568D01*
X572489Y631575D02*
X572744Y631735D01*
X572218Y631568D02*
X572489Y631575D01*
X571542Y631466D02*
X571596Y632587D01*
X570344Y631144D02*
X571649Y631179D01*
X570350Y631241D02*
X571649Y631179D01*
X571670Y633320D02*
X571722Y633499D01*
X571596Y632587D02*
X571670Y633320D01*
X570341Y631429D02*
X571542Y631466D01*
X570046Y631394D02*
X571022Y631364D01*
X570305Y634155D02*
X571559D01*
X571523Y632676D02*
X571576Y633796D01*
X570414D02*
X571576D01*
X571470Y631556D02*
X571523Y632676D01*
X570320Y631108D02*
X571559D01*
X564122Y634038D02*
X564973Y634007D01*
X565825Y633975D01*
X563255Y633505D02*
X563277Y633718D01*
X563171Y633728D02*
X563277Y633718D01*
X563069Y633563D02*
X563171Y633728D01*
X562983Y633228D02*
X563069Y633563D01*
X562866Y632214D02*
X562983Y633228D01*
X563106Y632379D02*
X563255Y633505D01*
X563811Y634194D02*
X564570Y634155D01*
X565645D01*
X566183D02*
X567348D01*
X568513D01*
X563495Y634289D02*
X563811Y634194D01*
X563495Y631534D02*
X564031Y631475D01*
X564666Y631488D01*
X565242Y631579D02*
X565454Y631667D01*
X564666Y631488D02*
X565242Y631579D01*
X563218Y631659D02*
X563495Y631534D01*
X571722Y633499D02*
X571776Y633512D01*
X571856Y633116D02*
X571869Y632438D01*
X571776Y633512D02*
X571856Y633116D01*
X573155Y633752D02*
X573419Y633653D01*
X572663Y633761D02*
X573155Y633752D01*
X572007Y633707D02*
X572663Y633761D01*
X571954Y632699D02*
X572007Y633707D01*
X572865Y632318D02*
X572943Y632362D01*
X573121Y632535D01*
X573304Y632931D01*
X573426Y633365D01*
X573419Y633653D02*
X573426Y633365D01*
X571918Y634155D02*
X572679Y634157D01*
X573275Y634198D01*
X563405Y631300D02*
X563672Y631329D01*
X563410Y631451D02*
X563672Y631329D01*
X563234Y631552D02*
X563410Y631451D01*
X563134Y631715D02*
X563234Y631552D01*
X563087Y631108D02*
X564366D01*
X563169Y632081D02*
X563220Y632824D01*
X563169Y632081D02*
X563218Y631659D01*
X563106Y632379D02*
X563134Y631715D01*
X562841Y631010D02*
X562866Y632214D01*
X568620Y633252D02*
X568658Y632676D01*
X568559Y632480D02*
X568620Y633252D01*
X568513Y632740D02*
Y633796D01*
X567363D02*
X568513D01*
X566533Y633744D02*
X567363Y633796D01*
X566153Y633619D02*
X566533Y633744D01*
X566153Y633619D02*
X566155Y632454D01*
X565138Y633761D02*
X565526Y633677D01*
X564374Y633796D02*
X565138Y633761D01*
X563341Y633796D02*
X564374D01*
X563220Y632824D02*
X563341Y633796D01*
X565610Y633318D02*
X565645Y632622D01*
X565526Y633677D02*
X565610Y633318D01*
X549242Y632949D02*
X549333Y633254D01*
X549606Y633357D01*
X549174Y632602D02*
X549242Y632949D01*
X572744Y631735D02*
X572903Y631972D01*
X572887Y632210D02*
X572903Y631972D01*
X572865Y632318D02*
X572887Y632210D01*
X573449Y632223D02*
X573546Y632299D01*
X577528Y623440D02*
X577832Y623519D01*
X577429Y623339D02*
X577528Y623440D01*
X577429Y623339D02*
X577473Y622147D01*
X577786Y622213D02*
X577849Y623038D01*
X577814Y623223D02*
X577868Y622192D01*
X577785Y621162D02*
X577786Y622213D01*
X576800Y626236D02*
X577170Y626154D01*
X576070Y626269D02*
X576800Y626236D01*
X575405Y626237D02*
X576070Y626269D01*
X575192Y626161D02*
X575405Y626237D01*
X575192Y626161D02*
X575560Y626082D01*
X576293Y626045D01*
X576960Y626075D01*
X577170Y626154D01*
X577588Y626383D02*
X577766Y626396D01*
X577459Y626236D02*
X577588Y626383D01*
X577433Y625981D02*
X577459Y626236D01*
X577793Y625869D02*
X577873Y625955D01*
X574948Y625864D02*
X576110Y625890D01*
X577750Y625680D02*
X577793Y625869D01*
X577473Y621072D02*
Y622147D01*
X577355Y622192D02*
X577384Y623223D01*
X576174D02*
X577384D01*
X576146Y621109D02*
X577327Y621162D01*
X577355Y622192D01*
X576219Y623699D02*
X577384Y623728D01*
X576219Y621072D02*
X577473D01*
X574948Y622175D02*
X574983Y622993D01*
X574920Y623285D02*
X574983Y622993D01*
X574833Y622900D02*
X574920Y623285D01*
X574813Y622092D02*
X574833Y622900D01*
X574964Y622139D02*
Y623223D01*
Y621056D02*
Y622139D01*
Y621056D02*
X576146Y621109D01*
X574964Y623223D02*
X576174D01*
X573531Y625628D02*
X574056Y625999D01*
X574146Y625966D01*
X574173Y625802D01*
X574234Y625660D01*
X574404Y625985D01*
X574618Y626350D01*
X574718Y626372D01*
X574829Y626297D01*
X574929Y626222D01*
X574995Y626239D01*
X575046Y626582D01*
X575140Y626981D01*
X572443Y624566D02*
X573531Y625628D01*
X573307Y623698D02*
X574516Y623726D01*
X574576Y624729D01*
X575001Y624767D02*
X575054Y623671D01*
X571589Y623693D02*
X571604Y623629D01*
X571691Y623433D01*
X572026Y623305D01*
X572590Y623248D01*
X572179Y623455D02*
X573157Y623369D01*
X572027Y623564D02*
X572179Y623455D01*
X572004Y623751D02*
X572027Y623564D01*
X572004Y623751D02*
X572129Y624112D01*
X572443Y624566D01*
X571495Y623537D02*
X571589Y623693D01*
X577368Y628117D02*
X577389Y627389D01*
X576716Y627927D02*
X577291Y628420D01*
X575574Y626843D02*
X576716Y627927D01*
X576130Y626305D02*
X577372Y626359D01*
X577389Y627389D01*
X575457Y627133D02*
X575754Y627263D01*
X575860Y627524D01*
X576028Y627845D01*
X575140Y626981D02*
X575457Y627133D01*
X577291Y628420D02*
X577368Y628117D01*
X574042Y623188D02*
X574486Y623103D01*
X573142Y623223D02*
X574042Y623188D01*
X574486Y623103D02*
X574571Y622738D01*
X571918Y623223D02*
X573142D01*
X577779Y627575D02*
X577832Y627266D01*
X577473Y627155D02*
X577526Y627542D01*
X577473Y627155D02*
X577524Y626792D01*
X577580Y626713D01*
X577653Y626717D01*
X577779Y626924D01*
X577433Y625981D02*
X577485Y624880D01*
X577542Y624337D01*
X577684Y624119D01*
X577764Y624174D01*
X577806Y624340D01*
X577777Y625003D02*
X577806Y624340D01*
X577384Y623728D02*
X577394Y624685D01*
X577868Y624791D02*
X577921Y623705D01*
X577750Y625680D02*
X577777Y625003D01*
X577779Y626924D02*
X577832Y627266D01*
X568787Y623857D02*
X568926Y623825D01*
X568810Y623461D02*
X569003Y623614D01*
X569511Y623183D02*
X569574Y623088D01*
X569339Y623223D02*
X569511Y623183D01*
X569155Y623057D02*
X569339Y623223D01*
X569865Y623786D02*
X569938Y624008D01*
X569865Y623786D02*
X569879Y623444D01*
X569917Y623073D01*
X569700Y623312D02*
X569917Y623073D01*
X569439Y623561D02*
X569700Y623312D01*
X569197Y623420D02*
X569439Y623561D01*
X568926Y623825D02*
X569003Y623614D01*
X569938Y624008D02*
X570061Y624061D01*
X570177Y624562D02*
X570211Y624208D01*
X570248Y623895D01*
X570201Y623896D02*
X570235Y623851D01*
X570061Y624061D02*
X570201Y623896D01*
X570177Y624562D02*
X570290Y624482D01*
X570235Y623851D02*
X570248Y623895D01*
X568623Y623763D02*
X568787Y623857D01*
X568281Y623628D02*
X568623Y623763D01*
X567715Y623557D02*
X568281Y623628D01*
X566990Y623533D02*
X567848Y623414D01*
X568405Y623386D01*
X568810Y623461D01*
X566990Y623533D02*
X567715Y623557D01*
X568807Y629224D02*
X568844Y628778D01*
X569032Y628908D02*
X569261Y628817D01*
X568916Y629078D02*
X569032Y628908D01*
X569158Y629213D02*
X569274Y628952D01*
X570484Y628957D01*
X568844Y628778D02*
X569310Y628655D01*
X570303Y628601D01*
X571291Y628624D01*
X570395Y628809D02*
X571344Y628811D01*
X569261Y628817D02*
X570395Y628809D01*
X570484Y628957D02*
X571559D01*
Y630033D02*
Y631108D01*
X570861Y626596D02*
X570997Y626395D01*
X571112Y626231D01*
X570818Y625924D02*
X571127Y626116D01*
X570587Y625801D02*
X570818Y625924D01*
X570570Y625761D02*
X570587Y625801D01*
X570570Y625761D02*
X570627Y625743D01*
X570728Y625702D01*
X570779Y625582D01*
X570542Y624336D02*
X570737Y625060D01*
X570290Y624482D02*
X570434Y624314D01*
X570737Y625060D02*
X570779Y625582D01*
X570434Y624314D02*
X570542Y624336D01*
X571112Y626231D02*
X571127Y626116D01*
X568843Y629225D02*
X568916Y629078D01*
X568807Y629224D02*
X568843Y629225D01*
X568513Y631092D02*
X568545Y630069D01*
X568577Y629047D01*
X568645Y629920D01*
X568619Y631040D02*
X568645Y629920D01*
X568513Y630033D02*
Y631108D01*
X568992Y630477D02*
X569052Y629815D01*
X569158Y629213D01*
X568513Y628957D02*
Y630033D01*
X568992Y630477D02*
X569017Y630917D01*
X568773Y626226D02*
X568824Y626431D01*
X568667Y626314D02*
X568824Y626431D01*
X568645Y626062D02*
X568773Y626226D01*
X570205Y628599D02*
X571050Y628550D01*
X569222Y628538D02*
X570205Y628599D01*
X569070Y628417D02*
X569222Y628538D01*
X569028Y628196D02*
X569070Y628417D01*
X569028Y628196D02*
X569036Y626404D01*
X569286Y626309D02*
X569867Y626269D01*
X570683D01*
X571124Y627267D01*
X569036Y626404D02*
X569286Y626309D01*
X569533Y623032D02*
X569547Y623312D01*
X569516Y622757D02*
X569533Y623032D01*
X569516Y622757D02*
X569735Y622771D01*
X569930Y622817D01*
X569817Y622664D02*
X569930Y622817D01*
X570354Y622637D02*
X570359Y622781D01*
X570537Y622764D01*
X570770Y622783D01*
X570929Y623033D01*
X571056Y623270D01*
X571195Y623316D01*
X571344Y623343D01*
X571495Y623537D01*
X569012Y622671D02*
X569155Y623057D01*
X568952Y622226D02*
X569012Y622671D01*
X568952Y622226D02*
X569014Y621888D01*
X569132Y621957D01*
X569310Y622279D01*
X569574Y623088D01*
X569198Y621162D02*
X570378Y622204D01*
X568513Y621192D02*
Y622207D01*
X568020Y621671D02*
X568513Y621192D01*
X569198Y621162D02*
X570378Y621109D01*
X571559Y621056D01*
X570294Y621072D02*
X571559D01*
X569430Y621119D02*
X570294Y621072D01*
X569189Y621169D02*
X569430Y621119D01*
X569128Y621231D02*
X569189Y621169D01*
X569118Y621408D02*
X569128Y621231D01*
X567911Y621473D02*
X568228Y621202D01*
X568698Y621113D02*
X568753Y621226D01*
X568922Y621072D01*
X568174Y626150D02*
X568667Y626314D01*
X567352Y626093D02*
X568174Y626150D01*
X566530Y626145D02*
X567352Y626093D01*
X566657Y625947D02*
X568334Y625972D01*
X568645Y626062D01*
X566183Y630033D02*
Y631108D01*
Y628957D02*
Y630033D01*
Y628957D02*
X567348D01*
X568513Y624854D02*
Y625911D01*
X567348D02*
X568513D01*
X566183Y627434D02*
Y628599D01*
Y626269D02*
Y627434D01*
Y626269D02*
X567348D01*
X566183Y628599D02*
X567348D01*
Y628957D02*
X568513D01*
X568878Y639117D02*
X568961Y639174D01*
X568878Y639117D02*
X568961Y639089D01*
X569588Y639122D02*
X570648Y639287D01*
X568565Y639113D02*
X568950Y639249D01*
X568991Y639330D01*
X568914Y639415D02*
X568991Y639330D01*
X568742Y639447D02*
X568914Y639415D01*
X568604Y639355D02*
X568742Y639447D01*
X568492Y640329D02*
X568531Y639352D01*
X569022Y640501D02*
X569035Y639426D01*
X570335Y639352D01*
X570288Y638993D02*
X571526D01*
X569050D02*
X570288D01*
X570335Y639352D02*
X571559D01*
X569050Y637857D02*
Y638993D01*
X566938Y639011D02*
X567860Y639027D01*
X568565Y639113D01*
X567393Y638959D02*
X568513Y639015D01*
Y637839D02*
Y639015D01*
X565590Y638185D02*
X565691Y637556D01*
X565762Y636753D01*
X565793Y637694D01*
X565764Y638375D02*
X565793Y637694D01*
X565710Y638567D02*
X565764Y638375D01*
X565635Y638635D02*
X565710Y638567D01*
X565538Y638696D02*
X565635Y638635D01*
X565538Y638696D02*
X565573Y638842D01*
X569050Y636721D02*
Y637857D01*
X568153Y639226D02*
X568604Y639355D01*
X569767Y641994D02*
X570384Y641891D01*
X571156Y641965D01*
X567009Y640013D02*
X567586Y640581D01*
X566861Y639797D02*
X567009Y640013D01*
X566838Y639666D02*
X566861Y639797D01*
X566838Y639666D02*
X566865Y639565D01*
X566761Y639596D02*
X566865Y639565D01*
X566590Y639627D02*
X566761Y639596D01*
X566454Y639534D02*
X566590Y639627D01*
X566454Y639534D02*
X566479Y639456D01*
X566657Y639399D01*
X567436Y639352D01*
X568531D01*
X571761Y641861D02*
X571897Y641816D01*
X571774Y641646D02*
X571897Y641816D01*
X570634Y639327D02*
X570648Y639287D01*
X570498Y639346D02*
X570634Y639327D01*
X569991Y639335D02*
X570498Y639346D01*
X568961Y639174D02*
X569991Y639335D01*
X568961Y639089D02*
X569588Y639122D01*
X570322Y641502D02*
X571559D01*
X569022Y640501D02*
X569084Y641502D01*
X570322D01*
X571855Y637933D02*
X571885Y636216D01*
X571577D02*
X571629Y637924D01*
X573304Y641861D02*
X574631D01*
X571893Y641945D02*
X573304Y641861D01*
X571603Y642010D02*
X571665Y641898D01*
X573546Y632299D02*
X573611Y632900D01*
X571804Y638953D02*
X571835Y639124D01*
X571774Y638848D02*
X571804Y638953D01*
X571774Y638848D02*
X571892Y638888D01*
X572001Y639050D01*
X571965Y639260D02*
X572001Y639050D01*
X571886Y639752D02*
X571965Y639260D01*
X571886Y639752D02*
X571889Y640592D01*
X571918Y640419D02*
Y641502D01*
Y636664D02*
Y637806D01*
X574516Y639262D02*
X574569Y640472D01*
X573352Y639165D02*
X574516Y639262D01*
X572187Y639069D02*
X573352Y639165D01*
X572187Y639069D02*
X573450Y639003D01*
X574419Y639001D01*
X574610Y639058D01*
X574572Y640472D02*
X574627Y641502D01*
X573272D02*
X574627D01*
X573217Y639389D02*
X574516Y639441D01*
X574572Y640472D01*
X573172Y638974D02*
X574447Y638951D01*
X574465Y637133D02*
X574520Y637790D01*
X574517Y638490D02*
X574520Y637790D01*
X574447Y638951D02*
X574517Y638490D01*
X568513Y636664D02*
Y637839D01*
X566195Y639486D02*
X566257Y639613D01*
X566025Y639423D02*
X566257Y639613D01*
X565619Y639046D02*
X566025Y639423D01*
X567226Y639173D02*
X568153Y639226D01*
X566188Y639220D02*
X567226Y639173D01*
X566099Y639314D02*
X566188Y639220D01*
X566099Y639314D02*
X566195Y639486D01*
X565645Y636652D02*
Y637589D01*
X568452Y641306D02*
X568492Y640329D01*
X567586Y640581D02*
X568452Y641306D01*
X549851Y633432D02*
X549897Y633625D01*
X549822Y634110D02*
X549897Y633625D01*
X565573Y638842D02*
X565611Y638959D01*
X565485Y638915D02*
X565611Y638959D01*
X565367Y638763D02*
X565485Y638915D01*
X565367Y638763D02*
X565445Y638571D01*
X565590Y638185D01*
X565619Y639046D02*
X566938Y639011D01*
X565645Y637589D02*
Y638525D01*
X565204Y637908D02*
X565645Y638525D01*
X564576Y637074D02*
X565204Y637908D01*
X566273Y638904D02*
X567393Y638959D01*
X566182Y637859D02*
X566273Y638904D01*
X566167Y636739D02*
X566182Y637859D01*
X564213Y636947D02*
X564851Y637983D01*
X564435Y636889D02*
X564576Y637074D01*
X571918Y638948D02*
X573172Y638974D01*
X573237Y632258D02*
X573449Y632223D01*
X573268Y631837D02*
X573271Y631939D01*
X572814Y630916D02*
X572853Y631552D01*
X571982Y636754D02*
X572088Y636339D01*
X574453Y636210D02*
X574456Y636148D01*
X574245Y636259D02*
X574453Y636210D01*
X574948Y625864D02*
X575001Y624767D01*
X571559Y621056D02*
Y622151D01*
Y621072D02*
X571582Y622058D01*
X574737Y621232D02*
X574777Y621519D01*
X574606Y621057D02*
X574638Y622185D01*
X573225Y621109D02*
X574606Y621057D01*
X571843Y621162D02*
X573225Y621109D01*
X571843Y621162D02*
X571894Y622099D01*
X571918Y622147D02*
Y623223D01*
Y621072D02*
Y622147D01*
Y621072D02*
X573262D01*
X574571Y622738D02*
X574606Y622028D01*
Y621072D02*
Y622028D01*
X573262Y621072D02*
X574606D01*
X571291Y628624D02*
X571739Y628733D01*
X571050Y628550D02*
X571462Y628432D01*
X572587Y629811D02*
X572754Y630275D01*
X572334Y629560D02*
X572587Y629811D01*
X572754Y630275D02*
X572814Y630916D01*
X573307Y636302D02*
X574245Y636259D01*
X571918Y636305D02*
X573307Y636302D01*
X571918Y635230D02*
Y636305D01*
X573275Y634198D02*
X573639Y634292D01*
X573830Y634581D01*
X574055Y635104D01*
X574228Y635630D01*
X574261Y635927D01*
X574456Y636148D01*
X571918Y636664D02*
X573038Y636666D01*
X573890Y636707D01*
X574365Y636801D01*
X571918Y634155D02*
Y635230D01*
X589660Y637380D02*
X589672Y636983D01*
X589738Y636768D01*
X589899Y636680D01*
X590197Y636664D01*
X590561Y636683D01*
X590700Y636785D01*
X590630Y637034D02*
X590700Y636785D01*
X590362Y637494D02*
X590630Y637034D01*
X591196Y635872D02*
X591427Y635303D01*
X591002Y636171D02*
X591196Y635872D01*
X590752Y636286D02*
X591002Y636171D01*
X590352Y636305D02*
X590752Y636286D01*
X589660Y636305D02*
X590352D01*
X589660Y635230D02*
Y636305D01*
X592110Y634458D02*
X592342Y633047D01*
X570631Y642577D02*
X571489Y642936D01*
X569947Y642196D02*
X570631Y642577D01*
X569931Y642164D02*
X569947Y642196D01*
X569767Y642131D02*
X569931Y642164D01*
X569588Y642086D02*
X569767Y642131D01*
X569588Y642086D02*
X569767Y641994D01*
X571156Y641965D02*
X571466Y642131D01*
X567721Y641146D02*
X568738Y641846D01*
X569057Y642053D01*
X569136Y642193D02*
X569137Y642269D01*
X569271Y642321D01*
X570663Y642934D01*
X571986Y643471D01*
X573531Y643951D01*
X580853Y643820D02*
X581941Y643547D01*
X580779Y643552D02*
X580853Y643820D01*
X580763Y642891D02*
X580779Y643552D01*
X583124Y643080D02*
X583330Y642794D01*
X582680Y643316D02*
X583124Y643080D01*
X581941Y643547D02*
X582680Y643316D01*
X580331Y644287D02*
X582793Y643669D01*
X583807Y643337D01*
X584283Y643107D01*
X584758Y642864D01*
X585462Y642521D01*
X578008Y643172D02*
X578163Y642950D01*
X577976Y643120D02*
X578008Y643172D01*
X577967Y642967D02*
X577976Y643120D01*
X577760Y643101D02*
X577967Y642967D01*
X577616Y643197D02*
X577760Y643101D01*
X577515Y643192D02*
X577616Y643197D01*
X577362Y642817D02*
X577515Y643192D01*
X578223Y642359D02*
X578308Y642347D01*
X578208Y642656D02*
X578267Y642640D01*
X578278Y642690D01*
X578163Y642950D02*
X578278Y642690D01*
X578072Y642282D02*
X578218Y642112D01*
X577171Y642367D02*
X577362Y642817D01*
X576644Y641409D02*
X576664Y641699D01*
X576644Y641409D02*
X576671Y641236D01*
X576575Y641235D02*
X576671Y641236D01*
X576450Y641256D02*
X576575Y641235D01*
X576398Y641154D02*
X576450Y641256D01*
X576398Y641154D02*
X576462Y641020D01*
X576617Y640965D01*
X576667Y640940D01*
X576642Y640873D02*
X576667Y640940D01*
X576393Y640652D02*
X576642Y640873D01*
X576145Y640427D02*
X576393Y640652D01*
X576135Y640362D02*
X576145Y640427D01*
X576135Y640362D02*
X576206Y640339D01*
X576349Y640276D01*
X576158Y640033D02*
X576349Y640276D01*
X575957Y639750D02*
X576158Y640033D01*
X575902Y639496D02*
X575957Y639750D01*
X575861Y639347D02*
X575902Y639496D01*
X575696Y639317D02*
X575861Y639347D01*
X575538Y639309D02*
X575696Y639317D01*
X575538Y639309D02*
X575644Y639127D01*
X575751Y638727D01*
X575655Y638205D02*
X575751Y638727D01*
X575421Y637753D02*
X575655Y638205D01*
X575272Y637612D02*
X575421Y637753D01*
X575113Y637560D02*
X575272Y637612D01*
X574365Y636801D02*
X574465Y637133D01*
X574863Y637455D02*
X575113Y637560D01*
X574785Y637121D02*
X574863Y637455D01*
X574693Y636751D02*
X574785Y637121D01*
X574472Y636480D02*
X574693Y636751D01*
X574259Y636326D02*
X574472Y636480D01*
X574259Y636326D02*
X574497Y636385D01*
X574732Y636423D01*
X574611Y636222D02*
X574732Y636423D01*
X574482Y635955D02*
X574611Y636222D01*
X574482Y635955D02*
X574486Y635693D01*
X574504Y635299D01*
X574393Y634743D02*
X574504Y635299D01*
X574197Y634189D02*
X574393Y634743D01*
X576886Y642000D02*
X577171Y642367D01*
X576664Y641699D02*
X576886Y642000D01*
X578011Y642509D02*
X578072Y642282D01*
X578011Y642509D02*
X578068Y642664D01*
X578208Y642656D01*
X571918Y639336D02*
Y640419D01*
Y639336D02*
X573217Y639389D01*
X571918Y637806D02*
Y638948D01*
X565607Y638993D02*
X566485Y639979D01*
X567721Y641146D01*
X564851Y637983D02*
X565607Y638993D01*
X574834Y644088D02*
X574869Y644129D01*
X574757Y644121D02*
X574869Y644129D01*
X574664Y644035D02*
X574757Y644121D01*
X577921Y644020D02*
X579176Y644014D01*
X577835Y643968D02*
X577921Y644020D01*
X575236Y644286D02*
X577037Y644459D01*
X578785Y644462D02*
X580331Y644287D01*
X573531Y643951D02*
X575236Y644286D01*
X577037Y644459D02*
X578785Y644462D01*
X573963Y633803D02*
X574197Y634189D01*
X573770Y633656D02*
X573963Y633803D01*
X573718Y633733D02*
X573770Y633656D01*
X573718Y633733D02*
X574020Y634339D01*
X574330Y634782D01*
X573867Y634418D02*
X574330Y634782D01*
X573536Y634057D02*
X573867Y634418D01*
X573497Y633885D02*
X573536Y634057D01*
X573497Y633885D02*
X573532Y633701D01*
X573608Y633320D01*
X573611Y632900D01*
X563010Y633657D02*
X563294Y634786D01*
X562841Y632491D02*
X563010Y633657D01*
X586429Y641900D02*
X587461Y641139D01*
X588359Y640373D01*
X589675Y638983D01*
X585462Y642521D02*
X586429Y641900D01*
X573039Y632299D02*
X573237Y632258D01*
X573039Y632299D02*
X573169Y632098D01*
X573271Y631939D01*
X572948Y631804D02*
X573268Y631837D01*
X572853Y631552D02*
X572948Y631804D01*
X562787Y631287D02*
X562841Y632491D01*
X583835Y642888D02*
X584731Y642486D01*
X583835Y642419D02*
Y642888D01*
Y642419D02*
X583856Y642172D01*
X584731Y642486D02*
X585250Y642209D01*
X574605Y643818D02*
X574664Y644035D01*
X574736Y643688D02*
X574834Y644088D01*
X580763Y642891D02*
X580789Y641950D01*
X583296Y642152D02*
X583352Y642414D01*
X583330Y642794D02*
X583352Y642414D01*
X578416Y642424D02*
X578562Y642178D01*
X580251Y641950D02*
Y642936D01*
Y643922D01*
X590045Y637935D02*
X590362Y637494D01*
X589826Y638064D02*
X590045Y637935D01*
X589700Y637879D02*
X589826Y638064D01*
X589660Y637380D02*
X589700Y637879D01*
X589675Y638983D02*
X590736Y637540D01*
X591546Y636034D01*
X592110Y634458D01*
X586792Y629913D02*
X586882Y628868D01*
X588002D01*
X589123D01*
X589122Y627434D02*
Y628599D01*
X587957D02*
X589122D01*
X586792D02*
X587957D01*
X589122Y629988D02*
X589123Y628868D01*
X582719Y631517D02*
X582923Y631502D01*
X583115Y631564D01*
X583238Y631710D01*
X583353Y632429D01*
X585100Y628599D02*
X586255D01*
X584383Y628567D02*
X585100Y628599D01*
X586255Y630033D02*
Y631108D01*
X585000D02*
X586255D01*
X585000Y628957D02*
X586255D01*
X583728Y631450D02*
X583782Y632578D01*
X583728Y631450D02*
X584947Y631503D01*
X582574Y631062D02*
X582873Y631126D01*
X583298Y631144D01*
X582574Y631062D02*
X582652Y630862D01*
X583951Y628465D02*
X584383Y628567D01*
X583784Y628285D02*
X583951Y628465D01*
X583784Y628285D02*
X583865Y628017D01*
X584025Y627613D01*
X583561Y627649D02*
X583768Y627294D01*
X589409Y633139D02*
X589410Y632273D01*
X589354Y632497D02*
X589409Y633139D01*
X587829Y631466D02*
X589284D01*
X586836Y631432D02*
X587829Y631466D01*
X586945Y631277D02*
X587867Y631270D01*
X588896Y631246D01*
X589125Y631165D01*
X589122Y631108D02*
X589122Y629988D01*
X587987Y631108D02*
X589122D01*
X586777Y631033D02*
X587987Y631108D01*
X587919Y633796D02*
X589137Y633722D01*
X586775Y633796D02*
X587919D01*
X586882Y631556D02*
X587986Y631503D01*
X589089Y631450D01*
X589151Y632549D01*
X586828Y632676D02*
X586882Y631556D01*
X589340Y629097D02*
X589464Y628888D01*
X589579Y628665D01*
X589489Y628515D02*
X589579Y628665D01*
X589358Y628370D02*
X589489Y628515D01*
X589307Y628185D02*
X589364Y628127D01*
X589495Y628285D01*
X589633Y628437D01*
X589542Y629055D02*
X589683Y628936D01*
X589660Y630063D02*
X589734Y628943D01*
X589660Y627434D02*
Y628599D01*
X589307Y628185D02*
X589358Y628370D01*
X586493Y631348D02*
X586836Y631432D01*
X586493Y631348D02*
X586945Y631277D01*
X586792Y634155D02*
Y635230D01*
Y634155D02*
X587940D01*
X589089D01*
X586255Y628957D02*
Y630033D01*
Y627434D02*
Y628599D01*
X586777Y631033D02*
X586792Y629913D01*
X586775Y633796D02*
X586828Y632676D01*
X586792Y627434D02*
Y628599D01*
X586165Y631556D02*
X586221Y632429D01*
X586176Y633564D02*
X586221Y632429D01*
X583218Y634071D02*
X583348Y634496D01*
X583141Y633915D02*
X583218Y634071D01*
X583141Y633915D02*
X583296Y633682D01*
X583441Y633585D01*
X583525Y633704D01*
X583586Y634903D01*
X583314Y633549D02*
X583353Y632429D01*
X583782Y632578D02*
X583835Y633707D01*
X583387Y634155D02*
Y635110D01*
X583069Y633713D02*
X583314Y633549D01*
X582618Y633792D02*
X583069Y633713D01*
X586073Y633686D02*
X586176Y633564D01*
X585858Y633756D02*
X586073Y633686D01*
X583835Y633707D02*
X584956Y633766D01*
X584947Y631503D02*
X586165Y631556D01*
X584956Y633766D02*
X585858Y633756D01*
X583466Y628021D02*
X583527Y628307D01*
X583624Y628608D01*
X583651Y629047D01*
X583626Y629358D02*
X583651Y629047D01*
X583611Y629399D02*
X583626Y629358D01*
X583597Y629350D02*
X583611Y629399D01*
X583522Y629217D02*
X583597Y629350D01*
X583291Y629365D02*
X583384Y629228D01*
X583522Y629217D01*
X583291Y629365D02*
X583322Y629535D01*
X583466Y628021D02*
X583561Y627649D01*
X568196Y636611D02*
X568513Y636484D01*
X567538Y636305D02*
X568226Y636358D01*
X568513Y636484D01*
X570354Y636647D02*
X571296Y636728D01*
X569347Y636560D02*
X570354Y636647D01*
X569088Y636475D02*
X569347Y636560D01*
X568972Y636358D02*
X569088Y636475D01*
X568956Y636205D02*
X568972Y636358D01*
X568956Y636205D02*
X569096Y636244D01*
X569608Y636325D01*
X570528Y636331D01*
X571473Y636344D01*
X567427Y636664D02*
X568196Y636611D01*
X566659Y636616D02*
X567427Y636664D01*
X566167Y636739D02*
X567378Y636664D01*
X568513D01*
X566480Y636560D02*
X566659Y636616D01*
X571577Y636216D02*
X571616Y634507D01*
X571716Y633796D01*
X571825Y634507D01*
X568513Y634155D02*
Y635230D01*
X571559D02*
Y636305D01*
X570305D02*
X571559D01*
X569050D02*
X570305D01*
X569050Y635230D02*
Y636305D01*
Y634155D02*
Y635230D01*
X571559Y634155D02*
Y635230D01*
X569050Y636721D02*
X570260Y636737D01*
X571470Y636753D01*
X571825Y634507D02*
X571885Y636216D01*
X566452Y636484D02*
X566480Y636560D01*
X566452Y636484D02*
X566816Y636358D01*
X567538Y636305D01*
X566183Y635230D02*
Y636305D01*
X568513Y622207D02*
Y623223D01*
X567405D02*
X568513D01*
X566912Y622686D02*
X568020Y621671D01*
X568743Y621731D02*
X568959Y621611D01*
X568692Y621523D02*
X568743Y621731D01*
X568619Y621313D02*
X568692Y621523D01*
X567911Y621473D02*
X568378Y621335D01*
X566928Y622218D02*
X567924Y621290D01*
X568378Y621335D02*
X568619Y621313D01*
X568959Y621611D02*
X569118Y621408D01*
X565950Y629089D02*
X566004Y628979D01*
X565940Y627976D02*
X565993Y628070D01*
X565941Y628837D02*
X566004Y628979D01*
X566298Y623223D02*
X567405D01*
X566298D02*
X566912Y622686D01*
X566216Y624156D02*
X566280Y623938D01*
X566394Y623794D01*
X566837Y623680D01*
X567662Y623723D01*
X565937Y623242D02*
X566928Y622218D01*
X566183Y624856D02*
X566216Y624156D01*
X570448Y625760D02*
X570484Y625629D01*
X570329Y625842D02*
X570448Y625760D01*
X569767Y625880D02*
X570329Y625842D01*
X569050Y625852D02*
X569767Y625880D01*
X569108Y624050D02*
X569247Y623660D01*
X569451Y623651D01*
X569689Y623794D01*
X569897Y624034D02*
X570012Y624316D01*
X570269Y624958D01*
X570484Y625629D01*
X569689Y623794D02*
X569897Y624034D01*
X574576Y624729D02*
X574585Y625437D01*
X574523Y625732D02*
X574585Y625437D01*
X574149Y625513D02*
X574523Y625732D01*
X573115Y624612D02*
X574149Y625513D01*
X572232Y623940D02*
X573115Y624612D01*
X572137Y623900D02*
X572232Y623940D01*
X572097Y623805D02*
X572137Y623900D01*
X572097Y623805D02*
X572452Y623718D01*
X573307Y623698D01*
X572590Y623248D02*
X573361Y623269D01*
X574337Y623336D01*
X573157Y623369D02*
X574337Y623336D01*
X574739Y622428D02*
X574777Y621519D01*
X571559Y622151D02*
Y623246D01*
X570378Y622204D02*
X571559Y623246D01*
X571697Y623389D02*
X571799Y623263D01*
X571637Y623293D02*
X571697Y623389D01*
X574676Y623019D02*
X574739Y622428D01*
X574638Y622185D02*
X574676Y623019D01*
X571887Y622827D02*
X571894Y622099D01*
X571582Y622058D02*
X571637Y623293D01*
X571799Y623263D02*
X571887Y622827D01*
X574888Y626251D02*
X575574Y626843D01*
X575054Y623671D02*
X576219Y623699D01*
X574888Y626251D02*
X576130Y626305D01*
X566040Y626305D02*
X566530Y626145D01*
X569050Y624817D02*
Y625852D01*
Y624817D02*
X569108Y624050D01*
X566183Y624856D02*
Y625911D01*
X567348D01*
X571124Y627267D02*
X571406Y628021D01*
X571462Y628432D01*
X571559Y628957D02*
Y630033D01*
X572015Y629557D02*
X572334Y629560D01*
X571828Y629463D02*
X571895Y629566D01*
X571828Y629463D02*
X571828Y628813D01*
X571781Y628006D02*
X571828Y628813D01*
X571573Y627226D02*
X571781Y628006D01*
X571127Y626551D02*
X571281Y626676D01*
X570861Y626596D02*
X570981Y626559D01*
X571281Y626676D02*
X571573Y627226D01*
X570981Y626559D02*
X571127Y626551D01*
X571895Y629566D02*
X572015Y629557D01*
X568513Y635230D02*
Y636305D01*
X567348D02*
X568513D01*
X566183D02*
X567348D01*
X566183Y634155D02*
Y635230D01*
X580566Y621365D02*
X580567Y622089D01*
X580566Y621365D02*
X580636Y621123D01*
X581943Y621072D02*
X582854Y621020D01*
X580667Y622013D02*
X580699Y621072D01*
X579131Y621109D02*
X580341Y621056D01*
Y622139D01*
X580789Y621162D02*
Y622147D01*
Y621162D02*
X581673Y621106D01*
X582582Y621084D01*
X583100Y621204D01*
X580699Y621072D02*
X581943D01*
X580872Y625732D02*
X582024Y624726D01*
X580607Y625556D02*
X580640Y625722D01*
X580854Y625898D01*
X581177Y625980D01*
X581442Y625784D01*
X581586Y625558D01*
X581346Y625613D02*
X581586Y625558D01*
X581108Y625667D02*
X581346Y625613D01*
X581108Y625667D02*
X581240Y625458D01*
X581454Y625284D01*
X581612Y625400D02*
X581720Y625463D01*
X581454Y625284D02*
X581612Y625400D01*
X580607Y625556D02*
X580628Y625414D01*
X581720Y625463D02*
X581905Y625407D01*
X584784Y625826D02*
X585419Y625881D01*
X584704Y625736D02*
X584784Y625826D01*
X584451Y626532D02*
X584633Y626357D01*
X584289Y625771D02*
X584348Y626138D01*
X584443Y626180D01*
X584597Y626146D01*
X584678Y626140D01*
X584663Y626208D02*
X584678Y626140D01*
X584373Y626519D02*
X584663Y626208D01*
X584289Y625771D02*
X584368Y625392D01*
X584704Y625736D02*
X584737Y625582D01*
X584293Y626852D02*
X584451Y626532D01*
X584072Y626846D02*
X584373Y626519D01*
X584042Y626934D02*
X584104Y626951D01*
X584199Y626960D01*
X584045Y627057D02*
X584199Y626960D01*
X584042Y626934D02*
X584072Y626846D01*
X583768Y627294D02*
X584045Y627057D01*
X580635Y622954D02*
X580667Y622013D01*
X580567Y622089D02*
X580635Y622954D01*
X582826Y623185D02*
X583260Y623111D01*
X580789Y623133D02*
X581961Y623185D01*
X580789Y622147D02*
Y623133D01*
X583100Y621204D02*
X583246Y621337D01*
X583333Y621529D01*
X583387Y622121D01*
X581961Y623185D02*
X582826Y623185D01*
X584106Y621023D02*
X584970Y621069D01*
X583729Y621072D02*
X583782Y622159D01*
X583729Y621072D02*
X584908D01*
X584283Y622784D02*
X585409Y621697D01*
X584535Y622954D02*
X584843Y622632D01*
X585118Y622527D02*
X585353Y622639D01*
X584843Y622632D02*
X585118Y622527D01*
X585353Y622639D02*
X585544Y622969D01*
X580796Y625431D02*
X580872Y625732D01*
X580341Y624760D02*
Y625850D01*
X579078Y625864D02*
X580341Y625850D01*
X577815Y625877D02*
X579078Y625864D01*
X580773Y624710D02*
X580796Y625431D01*
X580773Y624710D02*
X580789Y623687D01*
X581925Y623704D01*
X583062Y623721D01*
X582024Y624726D02*
X583062Y623721D01*
X579131Y623688D02*
X580341Y623671D01*
X580341Y624760D02*
X580341Y623671D01*
X580435Y625354D02*
X580539Y625295D01*
X580628Y625414D01*
X581905Y625407D02*
X582560Y624915D01*
X583204Y624247D01*
X584368Y625392D02*
X584542Y624971D01*
X583835Y623245D02*
X584283Y622784D01*
X584737Y625582D02*
X585119Y624540D01*
X583932Y623351D02*
X584041Y623392D01*
X584176Y623337D01*
X584535Y622954D01*
X584831Y624239D02*
X584930Y623918D01*
X584831Y624578D02*
X584831Y624239D01*
X584831Y624578D02*
X584842Y624667D01*
X584727Y624674D02*
X584799Y624624D01*
X584542Y624971D02*
X584727Y624674D01*
X584799Y624624D02*
X584842Y624667D01*
X583780Y622976D02*
X583932Y623351D01*
X584930Y623918D02*
X585089Y623693D01*
X585119Y624540D02*
X585350Y624071D01*
X585633Y623767D01*
X585544Y622969D02*
X585639Y623321D01*
X585496Y623675D02*
X585621Y623562D01*
X585271Y623647D02*
X585496Y623675D01*
X585089Y623693D02*
X585271Y623647D01*
X585621Y623562D02*
X585639Y623321D01*
X583782Y622159D02*
X583835Y623245D01*
X583350Y622767D02*
X583387Y622121D01*
X583260Y623111D02*
X583350Y622767D01*
X583292Y623707D02*
X583300Y623989D01*
X583284Y623373D02*
X583323Y623305D01*
X583390Y623314D01*
X583466Y623274D01*
X583528Y623064D01*
X583602Y622203D01*
X583637Y620983D01*
X583699Y622192D01*
X583780Y622976D01*
X583284Y623373D02*
X583292Y623707D01*
X583204Y624247D02*
X583300Y623989D01*
X584025Y627613D02*
X584293Y626852D01*
X584633Y626357D02*
X584922Y626284D01*
X585398Y626269D01*
X583746Y628957D02*
Y630033D01*
Y628957D02*
X585000D01*
X583746Y631108D02*
X585000D01*
X583746Y630033D02*
Y631108D01*
X583322Y629535D02*
X583354Y629640D01*
X583256Y629614D02*
X583354Y629640D01*
X583045Y629606D02*
X583256Y629614D01*
X582849Y629775D02*
X583045Y629606D01*
X582729Y630041D02*
X582743Y630322D01*
X582763Y630602D01*
X582652Y630862D02*
X582763Y630602D01*
X582884Y631260D02*
X583298Y631144D01*
X582729Y630041D02*
X582849Y629775D01*
X582595Y631395D02*
X582884Y631260D01*
X577873Y625955D02*
X577975Y626067D01*
X577937Y626245D02*
X577975Y626067D01*
X578252Y628143D02*
X578750Y627713D01*
X577967Y628285D02*
X578252Y628143D01*
X577880Y627951D02*
X577967Y628285D01*
X577856Y627239D02*
X577880Y627951D01*
X577856Y627239D02*
X577879Y626257D01*
X579154Y626290D01*
X580428Y626322D01*
X579913Y626699D02*
X580428Y626322D01*
X578750Y627713D02*
X579913Y626699D01*
X578420Y628737D02*
X578524Y628585D01*
X578582Y628285D01*
X578697Y627929D01*
X578237Y628761D02*
X578420Y628737D01*
X578879Y623239D02*
X580072Y623345D01*
X578962Y623374D02*
X580072Y623345D01*
X578154Y623354D02*
X578962Y623374D01*
X578061Y623204D02*
X578879Y623239D01*
X578033Y623423D02*
X578114Y623529D01*
X577832Y623519D02*
X578114Y623529D01*
X577849Y623038D02*
X578033Y623423D01*
X580341Y622139D02*
Y623223D01*
X579077D02*
X580341D01*
X577921Y621162D02*
X579131Y621109D01*
X577868Y622192D02*
X577921Y621162D01*
X588596Y626235D02*
X588983Y626170D01*
X587878Y626244D02*
X588596Y626235D01*
X588038Y626048D02*
X588755Y626084D01*
X588983Y626170D01*
X590429Y625856D02*
X590615Y625774D01*
X590091Y625868D02*
X590429Y625856D01*
X590221Y624925D02*
X590531Y625470D01*
X589660Y626269D02*
Y627434D01*
Y626269D02*
X590352D01*
X589086Y624826D02*
X589140Y625937D01*
X590531Y625470D02*
X590615Y625774D01*
X586703Y623334D02*
X587723Y623368D01*
X586703Y623334D02*
X587752Y623269D01*
X586134Y623409D02*
X587446Y623396D01*
X586914Y623176D02*
X587671Y623209D01*
X586725Y623149D02*
X586914Y623176D01*
X586704Y623119D02*
X586725Y623149D01*
X586704Y623119D02*
X586813Y622828D01*
X586820Y622237D01*
X586820Y621669D02*
X586820Y622237D01*
X586909Y621436D02*
X587547Y621898D01*
X586820Y621669D02*
X586909Y621436D01*
X589348Y624880D02*
X589351Y624181D01*
X589400Y624001D01*
X589482Y623940D01*
X589584Y623875D01*
X589546Y623716D02*
X589584Y623875D01*
X589715Y623737D02*
X589930Y623955D01*
X590009Y624127D01*
X589749Y624184D02*
X589950Y624215D01*
X589616Y624171D02*
X589749Y624184D01*
X589528Y624277D02*
X589616Y624171D01*
X589447Y624951D02*
X589528Y624277D01*
X589696Y625020D02*
X589749Y624208D01*
X590221Y624925D01*
X589033Y623714D02*
X589086Y624826D01*
X589950Y624215D02*
X590009Y624127D01*
X586351Y624749D02*
X586396Y624283D01*
X586500Y623993D01*
X586580Y624132D01*
X586613Y624626D01*
X586283Y624165D02*
X586284Y624901D01*
X586789Y624738D02*
X586882Y623714D01*
X587957Y623714D02*
X589033Y623714D01*
X586882Y623714D02*
X587957Y623714D01*
X586195Y623772D02*
X586283Y624165D01*
X586461Y625373D02*
X586568Y625154D01*
X586371Y625182D02*
X586461Y625373D01*
X586351Y624749D02*
X586371Y625182D01*
X589414Y625821D02*
X589447Y624951D01*
X589348Y624880D02*
X589414Y625821D01*
X589696Y625020D02*
X589720Y625713D01*
X586223Y625881D02*
X586284Y624901D01*
X586751Y625475D02*
X586789Y625810D01*
X586751Y625475D02*
X586789Y624738D01*
Y625810D02*
X588011Y625898D01*
X585848Y621043D02*
X586326Y620941D01*
X584970Y621069D02*
X585848Y621043D01*
X585994Y620839D02*
X586263Y620888D01*
X585409Y621697D02*
X586087Y621072D01*
X584908D02*
X586087D01*
X586263Y620888D02*
X586326Y620941D01*
X585012Y620779D02*
X585994Y620839D01*
X585956Y623504D02*
X586165Y623646D01*
X585956Y623504D02*
X586134Y623409D01*
X586168Y623050D02*
X586290Y622584D01*
X585966Y623223D02*
X586168Y623050D01*
X585795Y623190D02*
X585966Y623223D01*
X585731Y623064D02*
X585795Y623190D01*
X585731Y623064D02*
X585914Y622354D01*
X586093Y621968D01*
X586233Y621888D01*
X586307Y622099D01*
X586290Y622584D02*
X586307Y622099D01*
X585929Y623657D02*
X586195Y623772D01*
X585633Y623767D02*
X585929Y623657D01*
X588471Y623346D02*
X588838Y623247D01*
X587723Y623368D02*
X588471Y623346D01*
X587752Y623269D02*
X588802Y623204D01*
X588469Y622810D02*
X588802Y623204D01*
X588136Y622416D02*
X588469Y622810D01*
X588136Y622416D02*
X588535Y622754D01*
X588789Y623038D01*
X588838Y623247D01*
X587446Y623396D02*
X588674Y623479D01*
X588478Y622832D02*
X588819Y623223D01*
X587671Y623209D02*
X588819Y623223D01*
X587547Y621898D02*
X588478Y622832D01*
X587599Y623590D02*
X588674Y623479D01*
X583667Y620911D02*
X584106Y621023D01*
X583667Y620911D02*
X583738Y620849D01*
X584011Y620804D01*
X585012Y620779D01*
X580769Y620949D02*
X581270Y620759D01*
X582165Y620714D01*
X583051Y620761D01*
X583260Y620817D01*
X583298Y620893D01*
X582854Y621020D02*
X583298Y620893D01*
X580636Y621123D02*
X580769Y620949D01*
X586792Y626269D02*
Y627434D01*
Y626269D02*
X587957D01*
X589122D01*
Y627434D01*
X590352Y626269D02*
X590752Y626288D01*
X586568Y625154D02*
X586613Y624626D01*
X589519Y623607D02*
X589546Y623716D01*
X589519Y623607D02*
X589715Y623737D01*
X586493Y623730D02*
X587599Y623590D01*
X586165Y623646D02*
X586493Y623730D01*
X589847Y625827D02*
X590091Y625868D01*
X589720Y625713D02*
X589847Y625827D01*
X588011Y625898D02*
X589140Y625937D01*
X587197Y626204D02*
X587878Y626244D01*
X586927Y626124D02*
X587197Y626204D01*
X586927Y626124D02*
X588038Y626048D01*
X585398Y626269D02*
X586255D01*
Y627434D01*
X585419Y625881D02*
X586223D01*
X591427Y635303D02*
X591810Y634228D01*
X581064Y634177D02*
X581210Y634066D01*
X580878Y634604D02*
X581064Y634177D01*
X580670Y635511D02*
X580878Y634604D01*
X581210Y634066D02*
X581297Y634052D01*
X578907Y627788D02*
X579401Y627635D01*
X579563Y627484D01*
X579624Y627312D01*
X579538Y627240D02*
X579624Y627312D01*
X579310Y627364D02*
X579538Y627240D01*
X579151Y627457D02*
X579355Y627200D01*
X579594Y626971D01*
X579655Y626947D02*
X579664Y626993D01*
X579718Y627117D01*
X579916Y627135D01*
X579151Y627457D02*
X579310Y627364D01*
X579594Y626971D02*
X579655Y626947D01*
X578697Y627929D02*
X578907Y627788D01*
X578766Y620740D02*
X579470D01*
X580023Y620835D01*
X580145Y620909D01*
X580045Y620970D02*
X580145Y620909D01*
X579108Y621072D02*
X580045Y620970D01*
X579916Y627135D02*
X580140Y626991D01*
X580260Y626729D01*
X580256Y626444D02*
X580260Y626729D01*
X580107Y626232D02*
X580256Y626444D01*
X580013Y626128D02*
X580107Y626232D01*
X580182Y626093D02*
X580390Y625984D01*
X580421Y625641D01*
X580013Y626128D02*
X580182Y626093D01*
X580421Y625641D02*
X580435Y625354D01*
X591387Y626824D02*
X591534Y627324D01*
X591379Y626712D02*
X591387Y626824D01*
X591379Y626712D02*
X591421Y626719D01*
X591628Y627115D01*
X591875Y627784D01*
X590752Y626288D02*
X591002Y626404D01*
X591196Y626703D01*
X591427Y627272D01*
X591669Y628027D01*
X592345Y629545D02*
X592421Y631293D01*
X592116Y628151D02*
X592345Y629545D01*
X591577Y626664D02*
X592116Y628151D01*
X590813Y625178D02*
X591577Y626664D01*
X557457Y622083D02*
X557470Y621963D01*
X557407Y621881D02*
X557470Y621963D01*
X557308Y621706D02*
X557407Y621881D01*
X557308Y621706D02*
X557417Y621498D01*
X557671Y621323D01*
X558006Y621249D01*
X557954Y620929D02*
X558119Y621072D01*
X556769Y621202D02*
X556996Y621452D01*
X556532Y620996D02*
X556769Y621202D01*
X557954Y620929D02*
X558163Y620896D01*
X558006Y621249D02*
X558262Y621213D01*
X558119Y621072D02*
X558262Y621213D01*
X558163Y620896D02*
X558385Y620946D01*
X558477Y621072D01*
X558605Y621199D01*
X558914Y621251D01*
X559229Y621296D01*
X559049Y622293D02*
X559169Y622252D01*
X559049Y622293D02*
X559087Y622175D01*
X559145Y621995D01*
X558995Y621998D02*
X559145Y621995D01*
X558157Y622519D02*
X558995Y621998D01*
X559169Y622252D02*
X559289Y622115D01*
X559229Y621296D02*
X559433Y621407D01*
X559492Y621553D01*
X559373Y621699D02*
X559492Y621553D01*
X559270Y621825D02*
X559373Y621699D01*
X559270Y621825D02*
X559283Y621968D01*
X559289Y622115D01*
X560430Y621422D02*
X561344Y620893D01*
X560634Y620825D02*
X561344Y620893D01*
X558925Y620791D02*
X560634Y620825D01*
X544247Y623612D02*
X544413Y623843D01*
X545157Y622327D02*
X545255Y622572D01*
X545076Y622201D02*
X545157Y622327D01*
X545255Y622572D02*
X545268Y623161D01*
X546828Y621061D02*
X546912Y621131D01*
X546747Y621025D02*
X546828Y621061D01*
X546747Y621025D02*
X546930Y620986D01*
X547978Y620818D01*
X547097Y621215D02*
X547693Y621074D01*
X546155Y620979D02*
X547859Y620779D01*
X547097Y621215D02*
X547714Y621233D01*
X545105Y621898D02*
X545105Y621530D01*
X545076Y622201D02*
X545105Y621898D01*
X547757Y621755D02*
X547989Y621501D01*
X545251Y621954D02*
X545335Y622208D01*
X545215Y621511D02*
X545251Y621954D01*
X547757Y621755D02*
X547874Y622023D01*
X557305Y623237D02*
X557657Y623671D01*
X557225Y623272D02*
X557657Y623671D01*
X556793Y622873D02*
X557225Y623272D01*
X556793Y622873D02*
X557201Y622439D01*
X557457Y622083D01*
X557553Y622879D02*
X558157Y622519D01*
X557181Y622936D02*
X557553Y622879D01*
X557121Y622918D02*
X557181Y622936D01*
X557121Y622918D02*
X557124Y622969D01*
X557305Y623237D01*
X577770Y623268D02*
X578154Y623354D01*
X577770Y623268D02*
X578061Y623204D01*
X577766Y626396D02*
X577937Y626245D01*
X574640Y621034D02*
X574737Y621232D01*
X575323Y621021D02*
X576219Y621072D01*
X564800Y628630D02*
X565524Y628528D01*
X564534Y626288D02*
X564941Y626269D01*
X565645D02*
Y627434D01*
X564941Y626269D02*
X565645D01*
X565874Y626423D02*
X566040Y626305D01*
X565825Y626316D02*
X565874Y626423D01*
X565653Y626153D02*
X565825Y626316D01*
X565242Y626047D02*
X565653Y626153D01*
X565174Y626019D02*
X565242Y626047D01*
X565174Y626019D02*
X565418Y625991D01*
X566657Y625947D01*
X565610Y624963D02*
X565664Y625898D01*
X565117Y625860D02*
X565664Y625898D01*
X564571Y625764D02*
X565117Y625860D01*
X564571Y625764D02*
X565063Y624868D01*
X565556Y624029D01*
X565610Y624963D01*
X564375Y625351D02*
X565087Y624284D01*
X565937Y623242D01*
X565776Y628992D02*
X565950Y629089D01*
X565380Y628838D02*
X565776Y628992D01*
X564746Y628732D02*
X565380Y628838D01*
X565524Y628528D02*
X565703Y628400D01*
X565819Y628196D01*
X565940Y627976D01*
X565937Y628330D02*
X565993Y628070D01*
X565789Y628563D02*
X565937Y628330D01*
X565663Y628733D02*
X565789Y628563D01*
X565663Y628733D02*
X565789Y628778D01*
X565941Y628837D01*
X565645Y627434D02*
Y628599D01*
X564570D02*
X565645D01*
X564615Y628918D02*
X565645Y628991D01*
Y630049D01*
Y631108D01*
X563943Y628662D02*
X564746Y628732D01*
X563943Y628662D02*
X564800Y628630D01*
X563811Y628548D02*
X564570Y628599D01*
X563866Y627262D02*
X564091Y626696D01*
X564282Y626401D01*
X563457Y628949D02*
X563850Y628898D01*
X564615Y628918D01*
X563798Y626450D02*
X564375Y625351D01*
X563354Y627587D02*
X563798Y626450D01*
X564282Y626401D02*
X564534Y626288D01*
X562841Y631010D02*
X562929Y629943D01*
X563111Y628868D01*
X563079Y630078D02*
X563111Y628868D01*
X563079Y630078D02*
X563109Y631096D01*
X563087Y631108D02*
X563208Y630080D01*
X563331Y629324D01*
X563457Y628949D01*
X563039Y628768D02*
X563354Y627587D01*
X562851Y629999D02*
X563039Y628768D01*
X562787Y631287D02*
X562851Y629999D01*
X568669Y621026D02*
X568698Y621113D01*
X567662Y623723D02*
X568513Y623796D01*
Y624854D01*
Y627434D02*
Y628599D01*
X567348D02*
X568513D01*
X567348Y626269D02*
X568513D01*
Y627434D01*
X567924Y621290D02*
X568441Y621020D01*
X565633Y636110D02*
X565705Y636365D01*
X565628Y635330D02*
X565633Y636110D01*
X565628Y635330D02*
X565669Y634176D01*
X565825Y633975D02*
Y635110D01*
X565789Y635947D02*
X565825Y635110D01*
X565705Y636365D02*
X565789Y635947D01*
X571296Y636728D02*
X571754Y636868D01*
X565018Y636694D02*
X565645Y636652D01*
Y635240D02*
Y636326D01*
X564910Y636270D02*
X565645Y636326D01*
X564491Y636220D02*
X564910Y636270D01*
X565645Y634155D02*
Y635240D01*
X564437Y636784D02*
X565018Y636694D01*
X576949Y625867D02*
X577337Y625778D01*
X576110Y625890D02*
X576949Y625867D01*
X577337Y625778D02*
X577394Y624685D01*
X577815Y625877D02*
X577868Y624791D01*
X576028Y627845D02*
X576411Y628241D01*
X576833Y628555D01*
X577115Y628630D01*
X577549Y628273D01*
X577824Y628063D01*
X577784Y628270D02*
X577824Y628063D01*
X577780Y628516D02*
X577784Y628270D01*
X577780Y628516D02*
X577947Y628674D01*
X578237Y628761D01*
X564435Y636889D02*
X564437Y636784D01*
X564230Y636096D02*
X564491Y636220D01*
X564040Y635822D02*
X564230Y636096D01*
X563834Y635319D02*
X564040Y635822D01*
X563495Y634289D02*
X563834Y635319D01*
X563495Y628427D02*
X563811Y628548D01*
X563495Y628427D02*
X563866Y627262D01*
X563294Y634786D02*
X563695Y635882D01*
X564213Y636947D01*
X551739Y634233D02*
X551765Y634168D01*
X551591Y634286D02*
X551739Y634233D01*
X551020Y634334D02*
X551591Y634286D01*
X550447Y634309D02*
X551020Y634334D01*
X550257Y634250D02*
X550447Y634309D01*
X550257Y634250D02*
X550552Y634142D01*
X551730Y634366D02*
X551993Y634266D01*
X551754Y634021D02*
X551993Y634143D01*
X551302Y633926D02*
X551754Y634021D01*
X550637Y633733D02*
X551302Y633926D01*
X550010Y633379D02*
X550637Y633733D01*
X549988Y634321D02*
X551730Y634366D01*
X551993Y634143D02*
X551993Y634266D01*
X565737Y633707D02*
X565826Y632676D01*
X565682Y632676D02*
X565737Y633707D01*
X565682Y632676D02*
X565686Y631948D01*
X565826Y632676D02*
X565846Y631948D01*
X568284Y631418D02*
X568692Y631332D01*
X568284Y631268D02*
X568692Y631332D01*
X568510Y631153D02*
X568619Y631040D01*
X568558Y631749D02*
X568559Y632480D01*
X568735Y632075D02*
X568871Y631825D01*
X568658Y632676D02*
X568735Y632075D01*
X568305Y631651D02*
X568479Y632033D01*
X568513Y632740D01*
X568814Y631534D02*
X568936Y631376D01*
X549645Y634270D02*
X549822Y634110D01*
X549173Y634321D02*
X549645Y634270D01*
X548726Y634281D02*
X549173Y634321D01*
X547848Y634173D02*
X549988Y634321D01*
X548726Y634281D02*
X548889Y634155D01*
X549911Y630769D02*
X549917Y631003D01*
X550091Y630955D01*
X549475Y631728D02*
X550150Y631065D01*
X549100Y632004D02*
X549475Y631728D01*
X549100Y632004D02*
X549111Y631900D01*
X549362Y631651D01*
X549599Y631401D01*
X549623Y631323D01*
X549574Y631293D02*
X549623Y631323D01*
X549356Y631368D02*
X549574Y631293D01*
X549101Y631556D02*
X549356Y631368D01*
X548888Y631784D02*
X549101Y631556D01*
X547804Y633348D02*
X547808Y633984D01*
X547777Y634110D02*
X547808Y633984D01*
X547646Y632058D02*
X547804Y633348D01*
X548800Y631981D02*
X549018Y632330D01*
X549174Y632602D01*
X549606Y633357D02*
X549851Y633432D01*
X549527Y632942D02*
X550010Y633379D01*
X548800Y631981D02*
X548888Y631784D01*
X574964Y620893D02*
X575323Y621021D01*
X574964Y620893D02*
X575070Y620805D01*
X574471Y620909D02*
X574640Y621034D01*
X577534Y620938D02*
X577639Y621061D01*
X575070Y620805D02*
X575350Y620746D01*
X577086Y620777D02*
X577392Y620846D01*
X570268Y620799D02*
X571116Y620818D01*
X571421Y620873D01*
X571584Y620961D01*
X571736Y621028D01*
X571942Y620968D01*
X572471Y620859D01*
X573403Y620811D01*
X574218Y620841D01*
X574471Y620909D01*
X571986Y620718D02*
X577609Y620714D01*
X569412Y620889D02*
X570268Y620799D01*
X577785Y621162D02*
X579108Y621072D01*
X577814Y623223D02*
X579077D01*
X588869Y622645D02*
X589889Y623801D01*
X590813Y625178D01*
X574813Y622092D02*
X574842Y620983D01*
X574948Y622175D01*
X577392Y620846D02*
X577534Y620938D01*
X569067Y623238D02*
X569296Y623289D01*
X569547Y623312D01*
X569067Y623238D02*
X569197Y623420D01*
X568228Y621202D02*
X568585Y621012D01*
X568669Y621026D01*
X568922Y621072D02*
X569412Y620889D01*
X569728Y622485D02*
X569817Y622664D01*
X569728Y622485D02*
X570020Y622425D01*
X570312Y622470D01*
X570354Y622637D01*
X558645Y622643D02*
X559155Y622327D01*
X559308Y622257D01*
X559425Y622091D01*
X559757Y621797D01*
X560430Y621422D01*
X569183Y620850D02*
X570312Y620756D01*
X568441Y621020D02*
X569183Y620850D01*
X570312Y620756D02*
X571986Y620718D01*
X575350Y620746D02*
X576208Y620710D01*
X577086Y620777D01*
X556761Y620869D02*
X558925Y620791D01*
X556583Y620924D02*
X556761Y620869D01*
X556532Y620996D02*
X556583Y620924D01*
X577639Y621061D02*
X577773Y620972D01*
X578128Y620822D01*
X577921Y623705D02*
X579131Y623688D01*
X588409Y622160D02*
X588869Y622645D01*
X588286Y621946D02*
X588409Y622160D01*
X588286Y621946D02*
X588319Y621923D01*
X588232Y621901D02*
X588319Y621923D01*
X587739Y621610D02*
X588232Y621901D01*
X587373Y621301D02*
X587739Y621610D01*
X587023Y621073D02*
X587373Y621301D01*
X586552Y620913D02*
X587023Y621073D01*
X585824Y620809D02*
X586552Y620913D01*
X583050Y620721D02*
X585824Y620809D01*
X577609Y620714D02*
X583050Y620721D01*
X578128Y620822D02*
X578766Y620740D01*
X551383Y629810D02*
X551822Y629406D01*
X550709Y629978D02*
X551006Y630002D01*
X550514Y629732D02*
X550709Y629978D01*
X550514Y629732D02*
X550516Y629540D01*
X549799Y630282D02*
X549870Y630359D01*
X549911Y630769D02*
X550049Y630229D01*
X550091Y630955D02*
X550457Y630651D01*
X550613Y630521D01*
X550607Y630556D02*
X550613Y630521D01*
X550150Y631065D02*
X550607Y630556D01*
X549784Y631624D02*
X551851Y629406D01*
X551006Y630002D02*
X551383Y629810D01*
X552439Y627524D02*
X552578Y627630D01*
X552535Y628599D02*
X552735Y628501D01*
X552441Y628543D02*
X552535Y628599D01*
X552429Y628406D02*
X552441Y628543D01*
X552388Y628353D02*
X552429Y628406D01*
X552228Y628496D02*
X552388Y628353D01*
X552094Y628708D02*
X552228Y628496D01*
X552094Y628708D02*
X552187Y628778D01*
X552222Y628828D01*
X552164Y628963D02*
X552222Y628828D01*
X550356Y627383D02*
X552294Y627434D01*
X550781Y629006D02*
X552294Y627434D01*
X552578Y627630D02*
X552691Y627886D01*
X552807Y628150D01*
X553027Y627931D01*
X553199Y627755D01*
X553190Y627996D02*
X553274Y627778D01*
X552982Y628268D02*
X553190Y627996D01*
X552735Y628501D02*
X552982Y628268D01*
X553199Y627755D02*
X553274Y627778D01*
X550516Y629540D02*
X550649Y629276D01*
X551340Y628477D01*
X552052Y627804D01*
X552439Y627524D01*
X551822Y629406D02*
X552164Y628963D01*
X549657Y630097D02*
X550781Y629006D01*
X548541Y628190D02*
X548845Y630033D01*
X548417Y627332D02*
X548541Y628190D01*
X548372Y627914D02*
X548482Y627362D01*
X548417Y627332D02*
X550356Y627383D01*
X546236Y633711D02*
X546412Y633509D01*
X545996Y633644D02*
X546236Y633711D01*
X545731Y633336D02*
X545996Y633644D01*
X545476Y632814D02*
X545731Y633336D01*
X545383Y631668D02*
X545494Y631162D01*
X545493Y630435D02*
X545494Y631162D01*
X546522Y632165D02*
X546575Y632482D01*
X546726Y633348D01*
X546691Y633467D02*
X546788Y633563D01*
X546532Y633330D02*
X546691Y633467D01*
X546412Y633509D02*
X546532Y633330D01*
X546407Y630122D02*
X546727Y632497D01*
X546185Y634155D02*
X546944D01*
X546726Y633348D02*
X546788Y633563D01*
X546047Y629087D02*
X546114Y629109D01*
X546161Y629257D01*
X546189Y629861D01*
X546209Y630457D01*
X546298Y630656D01*
X546371Y630844D01*
X546355Y631414D02*
X546371Y630844D01*
X546341Y631968D02*
X546355Y631414D01*
X546341Y631968D02*
X546369Y632104D01*
X546418Y632116D02*
X546474Y632101D01*
X546522Y632165D01*
X546112Y627882D02*
X546407Y630122D01*
X546369Y632104D02*
X546418Y632116D01*
X547636Y631227D02*
X547654Y630726D01*
X547664Y630125D01*
X547510Y629828D02*
X547664Y630125D01*
X547385Y629715D02*
X547510Y629828D01*
X547385Y629715D02*
X547487Y629677D01*
X547622Y629523D01*
X547619Y629092D02*
X547622Y629523D01*
X547514Y627919D02*
X547619Y629092D01*
X547436Y627491D02*
X547514Y627919D01*
X547356Y627413D02*
X547436Y627491D01*
X547247Y627421D02*
X547356Y627413D01*
X547086Y628061D02*
X547646Y632058D01*
X547007Y627249D02*
X547077Y627409D01*
X549081Y630515D02*
X549657Y630097D01*
X548959Y630390D02*
X549081Y630515D01*
X548845Y630033D02*
X548959Y630390D01*
X548267Y628895D02*
X548372Y627914D01*
X548267Y628895D02*
X548303Y629195D01*
X548396Y629295D01*
X548464D01*
X548607Y629569D01*
X548720Y629788D01*
X548629Y629938D02*
X548720Y629788D01*
X548486Y630133D02*
X548629Y629938D01*
X548447Y630406D02*
X548486Y630133D01*
X548447Y630406D02*
X548508Y630655D01*
X548665Y630777D01*
X549329Y630823D01*
X549298Y632497D02*
X549527Y632942D01*
X548889Y634155D02*
X549157Y634018D01*
X548887Y633988D02*
X549157Y634018D01*
X548567Y633868D02*
X548887Y633988D01*
X548286Y633582D02*
X548567Y633868D01*
X548097Y633204D02*
X548286Y633582D01*
X548054Y632811D02*
X548097Y633204D01*
X548054Y632581D02*
X548054Y632811D01*
X547931Y632700D02*
X548054Y632581D01*
X547860Y632758D02*
X547931Y632700D01*
X547818Y632681D02*
X547860Y632758D01*
X547818Y632681D02*
X547819Y632116D01*
X547813Y631557D02*
X547819Y632116D01*
X547719Y631380D02*
X547813Y631557D01*
X547636Y631227D02*
X547719Y631380D01*
X546727Y632497D02*
X546944Y634155D01*
X547777Y634110D02*
X547848Y634173D01*
X549616Y630335D02*
X549799Y630282D01*
X549549Y630358D02*
X549616Y630335D01*
X549560Y630312D02*
X549790Y630051D01*
X550049Y630229D02*
X550224Y629621D01*
X549790Y630051D02*
X550224Y629621D01*
X549549Y630358D02*
X549560Y630312D01*
X549329Y630823D02*
X549651Y630694D01*
X549822Y630514D01*
X549870Y630359D01*
X549386Y632177D02*
X549784Y631624D01*
X549298Y632497D02*
X549386Y632177D01*
X550552Y634142D02*
X551039Y634085D01*
X551512Y634090D01*
X551765Y634168D01*
X545398Y633864D02*
X545515Y634064D01*
X545752Y634142D01*
X546185Y634155D01*
X545328Y633483D02*
X545398Y633864D01*
X545285Y632126D02*
X545476Y632814D01*
X545285Y632126D02*
X545383Y631668D01*
X545395Y629701D02*
X545493Y630435D01*
X545213Y629177D02*
X545395Y629701D01*
X545120Y631646D02*
X545328Y633483D01*
X545136Y629294D02*
X545177Y629586D01*
X498107Y633798D02*
X498123Y633937D01*
X498107Y633798D02*
X498245Y633662D01*
X498538Y633522D01*
X498740Y633893D02*
X499077Y633939D01*
X498378Y633856D02*
X498740Y633893D01*
X499248Y633375D02*
X499690Y633047D01*
X499999Y632906D01*
X515780Y621239D02*
X516066Y621305D01*
X516172Y621446D01*
X516093Y621608D02*
X516172Y621446D01*
X502093Y623059D02*
X502126Y622810D01*
X502038Y622438D02*
X502126Y622810D01*
X501229Y621142D02*
X501360Y620955D01*
X501722Y620896D01*
X501971Y620932D01*
X501874Y621051D02*
X501971Y620932D01*
X501786Y621129D02*
X501874Y621051D01*
X502488Y620932D02*
X502707Y621085D01*
X502228Y620891D02*
X502488Y620932D01*
X500816Y620777D02*
X502228Y620891D01*
X499929Y620785D02*
X500096Y620740D01*
X499875Y620874D02*
X499967Y621056D01*
X500188Y621200D01*
X500728Y621556D01*
X499875Y620874D02*
X499929Y620785D01*
X500096Y620740D02*
X500816Y620777D01*
X533638Y621916D02*
X533656Y621789D01*
X533679Y621657D01*
X534291Y620765D02*
X535682Y620664D01*
X537761Y620724D01*
X533873Y621904D02*
X533882Y621749D01*
X533750Y621968D02*
X533873Y621904D01*
X533554Y621617D02*
X533679Y621657D01*
X533002Y621804D02*
X533554Y621617D01*
X532736Y621910D02*
X533002Y621804D01*
X532565Y621899D02*
X532736Y621910D01*
X532498Y621777D02*
X532565Y621899D01*
X532498Y621777D02*
X532545Y621548D01*
X532788Y621400D01*
X533215Y621402D01*
X533641Y621528D01*
X533882Y621749D01*
X534178Y621378D02*
X534418Y621444D01*
X534208Y621128D02*
X534463Y621072D01*
X533638Y621916D02*
X533750Y621968D01*
X513511Y621080D02*
X513658Y621294D01*
X513511Y621080D02*
X513670Y621202D01*
X513901Y621318D01*
X514109Y621264D01*
X514508Y621120D01*
X515197Y620998D01*
X515793Y620956D01*
X515483Y621204D02*
X515735Y621058D01*
X513136Y620839D02*
X515825Y620781D01*
X515483Y621204D02*
X515780Y621239D01*
X515793Y620956D02*
X515844Y620989D01*
X515735Y621058D02*
X515844Y620989D01*
X515825Y621737D02*
X516093Y621608D01*
X516372Y621906D02*
X517258Y621497D01*
X515825Y620781D02*
X518512Y620893D01*
X515572Y621879D02*
X515825Y621737D01*
X517258Y621497D02*
X518512Y620893D01*
X515466Y622089D02*
X515572Y621879D01*
X515409Y622237D02*
X515466Y622089D01*
X515060Y622253D02*
X515273Y622228D01*
X514820Y622479D02*
X515060Y622253D01*
X514556Y622717D02*
X514820Y622479D01*
X514286Y622744D02*
X514556Y622717D01*
X514057Y622760D02*
X514286Y622744D01*
X513915Y623008D02*
X514057Y622760D01*
X515273Y622228D02*
X515409Y622237D01*
X513533Y622274D02*
X514012Y621842D01*
X514212Y621569D01*
X514165Y621485D02*
X514212Y621569D01*
X514053Y621508D02*
X514165Y621485D01*
X513871Y621485D02*
X514053Y621508D01*
X513658Y621294D02*
X513871Y621485D01*
X513411Y621194D02*
X513577Y621487D01*
X513578Y621808D01*
X513136Y620839D02*
X513411Y621194D01*
X531176Y622770D02*
X531237Y622924D01*
X531013Y622793D02*
X531176Y622770D01*
X530959Y622806D02*
X530979Y622748D01*
X531211Y622458D01*
X531567Y622170D01*
X531868Y622095D01*
X532045Y622224D01*
X532029Y622550D02*
X532045Y622224D01*
X531993Y622800D02*
X532029Y622550D01*
X531993Y622800D02*
X532159Y622766D01*
X532233Y622776D01*
X532071Y623001D02*
X532233Y622776D01*
X530959Y622806D02*
X531013Y622793D01*
X544199Y624014D02*
X544319Y624413D01*
X544160Y623802D02*
X544199Y624014D01*
X544160Y623802D02*
X544334Y623851D01*
X544062Y623333D02*
X544247Y623612D01*
X544058Y623252D02*
X544062Y623333D01*
X544058Y623252D02*
X544116Y623223D01*
X544200Y623185D01*
X544240Y623079D01*
X543826Y622946D02*
X544221Y624477D01*
X544202Y622723D02*
X544240Y623079D01*
X544636Y624918D02*
X544654Y625284D01*
X544502Y625015D02*
X544636Y624918D01*
X544372Y625152D02*
X544502Y625015D01*
X544322Y625070D02*
X544372Y625152D01*
X544322Y625070D02*
X544373Y624887D01*
X544498Y624746D02*
X544625Y624615D01*
X544678Y624456D01*
X544625Y624362D02*
X544678Y624456D01*
X544498Y624388D02*
X544625Y624362D01*
X544319Y624413D02*
X544498Y624388D01*
X544334Y623851D02*
X544413Y623843D01*
X544373Y624887D02*
X544498Y624746D01*
X544031Y622263D02*
X544202Y622723D01*
X543461Y622371D02*
X543480Y622466D01*
X543579Y622506D01*
X543691Y622609D01*
X543826Y622946D01*
X543411Y622132D02*
X543461Y622371D01*
X543754Y621810D02*
X544031Y622263D01*
X543437Y621249D02*
X543754Y621810D01*
X542772Y621431D02*
X542983Y621547D01*
X543224Y621819D01*
X543411Y622132D01*
X542607Y621346D02*
X542772Y621431D01*
X543437Y621249D02*
X543504Y621156D01*
X543721Y621198D01*
X543914Y621232D01*
X542385Y620925D02*
X542420Y620761D01*
X542385Y620925D02*
X542463Y621149D01*
X542607Y621346D01*
X542420Y620761D02*
X543858Y620808D01*
X543890Y621103D02*
X543914Y621232D01*
X543873Y620951D02*
X544040Y620893D01*
X544237Y620945D01*
X544319Y621069D01*
X544450Y621226D01*
X544766Y621357D02*
X545105Y621530D01*
X545215Y620935D02*
Y621511D01*
X543858Y620808D02*
X545215Y620935D01*
X544450Y621226D02*
X544766Y621357D01*
X543873Y620951D02*
X543890Y621103D01*
X548548Y621019D02*
X548744Y621077D01*
X548773Y621255D02*
X548969Y621110D01*
X548525Y621330D02*
X548773Y621255D01*
X548383Y621180D02*
X548525Y621330D01*
X548308Y621072D02*
X548383Y621180D01*
X548177Y621019D02*
X548308Y621072D01*
X547714Y621233D02*
X548185Y621287D01*
X548764Y621295D02*
X549076Y621176D01*
X549387Y621032D01*
X549516Y620840D01*
X547859Y620779D02*
X549174Y620695D01*
X549440Y620738D01*
X549516Y620840D01*
X547978Y620818D02*
X548461Y620769D01*
X548549Y620805D01*
X548538Y620882D02*
X548549Y620805D01*
X548538Y620882D02*
X548548Y621019D01*
X547693Y621074D02*
X548177Y621019D01*
X546381Y621836D02*
X546567Y622775D01*
X546361Y621481D02*
X546381Y621836D01*
X546361Y621481D02*
X546673Y621264D01*
X546912Y621131D01*
X547874Y622023D02*
X547998Y622256D01*
X546923Y623755D02*
X547007Y624722D01*
X547729Y623041D02*
X547771Y623433D01*
X547904Y623671D01*
X548026Y623838D01*
X548070Y624085D01*
X547920Y624036D02*
X548033Y624261D01*
X547783Y623832D02*
X547920Y624036D01*
X547649Y624213D02*
X547783Y623832D01*
X547617Y624687D02*
X547649Y624213D01*
X547617Y624687D02*
X547710Y624845D01*
X547889Y624990D01*
X548149Y625277D01*
X548033Y624261D02*
X548070Y624085D01*
X545268Y623161D02*
X545269Y623715D01*
X545340Y623875D01*
X545433Y623882D01*
X545488Y624071D01*
X545634Y625015D01*
X545495Y625138D02*
X545579Y625284D01*
X545512Y622999D02*
X545744Y625015D01*
X545448Y625141D02*
X545495Y625138D01*
X546820Y623216D02*
X546923Y623755D01*
X546698Y623084D02*
X546820Y623216D01*
X546638Y623133D02*
X546698Y623084D01*
X546610Y623102D02*
X546638Y623133D01*
X546567Y622775D02*
X546610Y623102D01*
X547912Y622411D02*
X547998Y622256D01*
X547776Y622649D02*
X547912Y622411D01*
X545335Y622208D02*
X545512Y622999D01*
X547729Y623041D02*
X547776Y622649D01*
X548744Y621077D02*
X548969Y621110D01*
X548160Y621364D02*
X548185Y621287D01*
X548509Y621484D02*
X548764Y621295D01*
X547989Y621501D02*
X548160Y621364D01*
X526535Y633907D02*
X526891Y634038D01*
X526398Y633971D02*
X526535Y633907D01*
X525960Y633557D02*
X526180Y633974D01*
X525906Y633162D02*
X525960Y633557D01*
X525906Y633162D02*
X525928Y632880D01*
X525865Y632808D02*
X525928Y632880D01*
X525791Y632745D02*
X525865Y632808D01*
X525787Y632489D02*
X525822Y632248D01*
X525846Y632224D01*
X525979Y632269D01*
X526278Y632195D01*
X526507Y632130D01*
X526663Y632165D02*
X526917Y632647D01*
X525787Y632489D02*
X525791Y632745D01*
X526507Y632130D02*
X526663Y632165D01*
X526917Y632647D02*
X527171Y633109D01*
X527323Y633222D01*
X527496Y633259D01*
X527723Y633204D01*
X527728Y633057D01*
X527707Y632944D02*
X527942Y633051D01*
X528128Y633192D01*
X527707Y632944D02*
X527728Y633057D01*
X528101Y633256D02*
X528128Y633192D01*
X528051Y633310D02*
X528101Y633256D01*
X528051Y633310D02*
X528184Y633430D01*
X528447Y633499D01*
X528711Y633383D01*
X528894Y633260D01*
X528829Y633412D02*
X528894Y633260D01*
X528788Y633528D02*
X528829Y633412D01*
X528788Y633528D02*
X528862Y633583D01*
X529449Y633527D01*
X531219Y633347D01*
X530829Y634015D02*
X531142Y633975D01*
X530699Y634111D02*
X530829Y634015D01*
X531142Y633975D02*
X531464Y633913D01*
X526398Y633971D02*
X526460Y634100D01*
X526607Y634155D01*
X526719Y634190D01*
X526695Y634276D02*
X526719Y634190D01*
X526461Y634264D02*
X526590Y634314D01*
X526180Y633974D02*
X526461Y634264D01*
X526590Y634314D02*
X526695Y634276D01*
X534000Y632842D02*
X534104Y632667D01*
X533762Y632894D02*
X534000Y632842D01*
X533501Y632827D02*
X533762Y632894D01*
X533671Y632124D02*
X533894Y632223D01*
X534042Y632441D01*
X534104Y632667D01*
X531989Y634121D02*
X532118Y634074D01*
X531989Y634121D02*
X532020Y634012D01*
X531992Y633811D02*
X532020Y634012D01*
X531464Y633913D02*
X531473Y633686D01*
X532118Y634074D02*
X532245Y633909D01*
X532245Y633700D02*
X532245Y633909D01*
X530265Y634191D02*
X530699Y634111D01*
X529221Y634191D02*
X530265Y634191D01*
X528119Y634191D02*
X529221Y634191D01*
X527957Y634243D02*
X528119Y634191D01*
X527957Y634243D02*
X528011Y634336D01*
X544775Y627634D02*
X544804Y627160D01*
X544694Y626907D02*
X544804Y627160D01*
X544560Y626732D02*
X544694Y626907D01*
X544511Y626483D02*
X544560Y626732D01*
X544511Y626483D02*
X544553Y626306D01*
X544693Y626538D01*
X544802Y626707D01*
X544745Y626359D02*
X544802Y626707D01*
X544221Y624477D02*
X544652Y627592D01*
X544654Y625284D02*
X544745Y626359D01*
X529117Y627900D02*
X530069Y628239D01*
X528968Y627930D02*
X529117Y627900D01*
X528968Y627930D02*
X529014Y628089D01*
X529052Y628206D01*
X528932Y628166D02*
X529052Y628206D01*
X528815Y628023D02*
X528932Y628166D01*
X528815Y628023D02*
X528830Y627862D01*
X528849Y627643D01*
X528701Y627415D02*
X528849Y627643D01*
X544742Y628089D02*
X544785Y628203D01*
X534911Y628106D02*
X535412Y628358D01*
X535787Y628636D01*
X533477Y627624D02*
X534911Y628106D01*
X545077Y629005D02*
X545213Y629177D01*
X545077Y629005D02*
X545136Y629294D01*
X545050Y629593D02*
X545177Y629586D01*
X544931Y629338D02*
X545050Y629593D01*
X544961Y628854D02*
X544996Y628393D01*
X544953Y628279D02*
X544996Y628393D01*
X544869Y628241D02*
X544953Y628279D01*
X544742Y628089D02*
X544775Y627634D01*
X544652Y627592D02*
X545120Y631646D01*
X544785Y628203D02*
X544869Y628241D01*
X544931Y629338D02*
X544961Y628854D01*
X534638Y631876D02*
X534757Y631785D01*
X534523Y631878D02*
X534638Y631876D01*
X534385Y631801D02*
X534523Y631878D01*
X534301Y631662D02*
X534385Y631801D01*
X534221Y630974D02*
X534301Y631662D01*
X534112Y630681D02*
X534221Y630974D01*
X533873Y630417D02*
X534112Y630681D01*
X533667Y630165D02*
X533873Y630417D01*
X534108Y628966D02*
X534405Y629245D01*
X534821Y629902D01*
X533791Y628795D02*
X534108Y628966D01*
X533648Y629899D02*
X533667Y630165D01*
X533648Y629899D02*
X533683Y629718D01*
X533477Y629854D02*
X533683Y629718D01*
X533271Y629992D02*
X533477Y629854D01*
X533271Y629992D02*
X533294Y629834D01*
X533220Y629599D02*
X533294Y629834D01*
X532943Y629380D02*
X533220Y629599D01*
X532615Y629262D02*
X532943Y629380D01*
X532431Y628690D02*
X532818Y628784D01*
X533119Y628782D01*
X533460Y628733D01*
X532467Y629649D02*
X533542Y630178D01*
X533460Y628733D02*
X533791Y628795D01*
X536242Y629039D02*
X536416Y629569D01*
X536220Y629320D02*
X536306Y629753D01*
X536250Y631063D02*
X536324Y630264D01*
X536306Y629753D02*
X536324Y630264D01*
X536052Y628952D02*
X536220Y629320D01*
X535450Y630625D02*
X535493Y630324D01*
X536007Y628661D02*
X536242Y629039D01*
X535787Y628636D02*
X536052Y628952D01*
X535727Y628475D02*
X536007Y628661D01*
X536277Y627702D02*
X536322Y627658D01*
X536314Y627563D02*
X536322Y627658D01*
X536472Y627524D02*
X536714Y627600D01*
X536962Y627793D02*
X537160Y628048D01*
X537255Y628310D01*
X537281Y628424D01*
X537316Y628420D02*
X537363Y628449D01*
X537418Y628645D01*
X537351Y628448D02*
X537504Y629141D01*
X537151Y627968D02*
X537351Y628448D01*
X536637Y627575D02*
X537151Y627968D01*
X536714Y627600D02*
X536962Y627793D01*
X537418Y628645D02*
X537418Y628841D01*
X535510Y628344D02*
X535727Y628475D01*
X535471Y628157D02*
X535510Y628344D01*
X535451Y627956D02*
X535471Y628157D01*
X535282Y627828D02*
X535451Y627956D01*
X535058Y627810D02*
X535282Y627828D01*
X534874Y627935D02*
X535058Y627810D01*
X534768Y628040D02*
X534874Y627935D01*
X534734Y627885D02*
X534768Y628040D01*
X534639Y627678D02*
X534734Y627885D01*
X534413Y627557D02*
X534639Y627678D01*
X534107Y627644D02*
X534192Y627557D01*
X534079Y627651D02*
X534107Y627644D01*
X535993Y627618D02*
X536277Y627702D01*
X533996Y627458D02*
X534079Y627651D01*
X536940Y629849D02*
X537073Y629407D01*
X536784Y630033D02*
X536940Y629849D01*
X536655Y630151D02*
X536784Y630033D01*
X537179Y630566D02*
X537346Y630189D01*
X537487Y630033D01*
X536584Y630436D02*
X536655Y630151D01*
X536866Y631163D02*
X537179Y630566D01*
X534757Y631785D02*
X534982Y631360D01*
X534821Y629902D02*
X534920Y629998D01*
X535157Y629987D01*
X535422Y630007D01*
X535493Y630324D01*
X535348Y630750D02*
X535450Y630625D01*
X535181Y630929D02*
X535348Y630750D01*
X534982Y631360D02*
X535181Y630929D01*
X535896Y631861D02*
X535940Y631980D01*
X536059Y631977D02*
X536437Y631689D01*
X536100Y631513D02*
X536250Y631063D01*
X535896Y631861D02*
X536100Y631513D01*
X535940Y631980D02*
X536059Y631977D01*
X536550Y630536D02*
X536584Y630436D01*
X536510Y630212D02*
X536550Y630536D01*
X536416Y629569D02*
X536510Y630212D01*
X537334Y628870D02*
X537418Y628841D01*
X537198Y628991D02*
X537334Y628870D01*
X537073Y629407D02*
X537198Y628991D01*
X536437Y631689D02*
X536866Y631163D01*
X537281Y628424D02*
X537316Y628420D01*
X537487Y630033D02*
X537546Y629959D01*
X537504Y629141D02*
X537565Y629763D01*
X537546Y629959D02*
X537565Y629763D01*
X533327Y632644D02*
X533501Y632827D01*
X533319Y632386D02*
X533327Y632644D01*
X533319Y632386D02*
X533457Y632195D01*
X532402Y632906D02*
X532449Y632957D01*
X533457Y632195D02*
X533671Y632124D01*
X532312Y633079D02*
X532449Y632957D01*
X532148Y633222D02*
X532312Y633079D01*
X532148Y633222D02*
X532357Y633256D01*
X532578Y633205D01*
X532671Y633079D01*
X532749Y632953D02*
X532939Y632900D01*
X533176Y632953D01*
X533193Y633078D01*
X533018Y633226D02*
X533193Y633078D01*
X532681Y633346D02*
X533018Y633226D01*
X532314Y633494D02*
X532681Y633346D01*
X533260Y633587D02*
X533691Y633339D01*
X532477Y633900D02*
X533260Y633587D01*
X531849Y633305D02*
X531979Y633287D01*
X531954Y633275D02*
X531979Y633287D01*
X531774Y633228D02*
X531954Y633275D01*
X531774Y633228D02*
X531954Y633079D01*
X532402Y632906D01*
X532671Y633079D02*
X532749Y632953D01*
X532391Y629333D02*
X532615Y629262D01*
X531914Y628294D02*
X531954Y628400D01*
X531819Y628262D02*
X531914Y628294D01*
X530386Y627844D02*
X530784Y627921D01*
X530923Y627894D01*
X530957Y627822D01*
X531102Y627793D02*
X531247Y627858D01*
X531282Y628017D01*
X531298Y628148D01*
X531400Y628236D01*
X531954Y628400D02*
X532096Y628547D01*
X531400Y628236D02*
X531819Y628262D01*
X530957Y627822D02*
X531102Y627793D01*
X532258Y629443D02*
X532391Y629333D01*
X532077Y629481D02*
X532258Y629443D01*
X531966Y629449D02*
X532077Y629481D01*
X531966Y629449D02*
X532089Y629376D01*
X532217Y629261D01*
X532208Y629113D02*
X532217Y629261D01*
X532067Y629037D02*
X532208Y629113D01*
X531867Y629134D02*
X532067Y629037D01*
X531631Y629229D02*
X531867Y629134D01*
X531389Y629084D02*
X531631Y629229D01*
X531143Y628935D02*
X531389Y629084D01*
X532096Y628547D02*
X532431Y628690D01*
X531277Y629095D02*
X532467Y629649D01*
X531088Y628990D02*
X531277Y629095D01*
X530897Y628921D02*
X531143Y628935D01*
X530751Y628926D02*
X530897Y628921D01*
X530751Y628926D02*
X530775Y628800D01*
X530772Y628690D02*
X530775Y628800D01*
X530648Y628556D02*
X530772Y628690D01*
X530560Y628923D02*
X530954Y629001D01*
X529783Y628570D02*
X530560Y628923D01*
X530954Y629001D02*
X531088Y628990D01*
X531219Y633347D02*
X531849Y633305D01*
X532241Y633591D02*
X532314Y633494D01*
X532241Y633591D02*
X532245Y633700D01*
X531452Y633486D02*
X531752Y633605D01*
X531992Y633811D01*
X531452Y633486D02*
X531473Y633686D01*
X530069Y628239D02*
X530648Y628556D01*
X529803Y627524D02*
X529974Y627688D01*
X530386Y627844D01*
X530117Y627464D02*
X530304Y627500D01*
X534111Y621251D02*
X534178Y621378D01*
X532846Y622446D02*
X533387Y622117D01*
X534209Y621884D01*
X532392Y621416D02*
X533304Y621051D01*
X534291Y620765D01*
X534111Y621251D02*
X534208Y621128D01*
X521101Y624293D02*
X521198Y623653D01*
X521204Y622956D01*
X521271Y622936D01*
X521380Y623133D01*
X521453Y623251D01*
X521502Y623201D01*
X521547Y622556D01*
X521505Y621831D02*
X521547Y622556D01*
X521149Y622764D02*
X521180Y622302D01*
X520747Y624142D02*
X521149Y622764D01*
X521106Y621946D02*
X521180Y622302D01*
X521428Y621713D02*
X521505Y621831D01*
X521304Y621719D02*
X521428Y621713D01*
X521128Y621711D02*
X521304Y621719D01*
X521128Y621711D02*
X521146Y621443D01*
X521972Y621375D02*
X522266Y621431D01*
X522524Y621536D01*
X520665Y621406D02*
X520933Y621659D01*
X521106Y621946D01*
X522524Y621536D02*
X522687Y621789D01*
X522313Y620951D02*
X522355Y621021D01*
X522131Y621058D02*
X522355Y621021D01*
X522687Y621789D02*
X522705Y622022D01*
X522755Y620886D02*
X523320Y620987D01*
X522948Y621996D02*
X523320Y620987D01*
X522590Y622030D02*
X522705Y622022D01*
X522475Y622043D02*
X522590Y622030D01*
X522475Y622043D02*
X522500Y622299D01*
X522524Y622572D01*
X522439Y622685D02*
X522524Y622572D01*
X522337Y622734D02*
X522439Y622685D01*
X522321Y622851D02*
X522337Y622734D01*
X522267Y623039D02*
X522321Y622851D01*
X522075Y623255D02*
X522267Y623039D01*
X521847Y623594D02*
X522075Y623255D01*
X521677Y624076D02*
X521847Y623594D01*
X521744Y624836D02*
X522290Y623581D01*
X522948Y621996D01*
X523287Y623707D02*
X523292Y624143D01*
X531237Y622924D02*
X531318Y623175D01*
X530455Y623792D02*
X530499Y623751D01*
X530735Y623617D01*
X530945Y623449D01*
X531090Y623413D01*
X531151Y623503D01*
X531064Y623937D02*
X531108Y623716D01*
X531064Y623937D02*
X531338Y623760D01*
X530878Y622800D02*
X531016Y622528D01*
X530827Y622972D02*
X530878Y622800D01*
X530704Y623044D02*
X530827Y622972D01*
X531016Y622528D02*
X531346Y622217D01*
X531108Y623716D02*
X531151Y623503D01*
X530076Y624175D02*
X530200Y623953D01*
X530248Y624208D01*
X530337Y624298D02*
X530455Y623792D01*
X530165Y623785D02*
X530414Y623251D01*
X530000Y624513D02*
X530165Y623785D01*
X528372Y624079D02*
X528862Y623353D01*
X523287Y623707D02*
X523388Y623381D01*
X523507Y623250D01*
X523464Y623447D02*
X523507Y623250D01*
X523447Y623668D02*
X523464Y623447D01*
X523447Y623668D02*
X523550Y623760D01*
X523666Y623613D02*
X523684Y623257D01*
X523747Y622774D01*
X524559Y623001D02*
X524611Y623120D01*
X524711Y623271D01*
X524615Y623335D02*
X524711Y623271D01*
X524224Y623380D02*
X524615Y623335D01*
X524101Y623559D02*
X524224Y623380D01*
X524560Y623760D02*
X525066Y622913D01*
X523158Y623716D02*
X523605Y622614D01*
X524559Y623001D02*
X524612Y622839D01*
X523550Y623760D02*
X523666Y623613D01*
X524101Y623559D02*
X524123Y624029D01*
X524147Y624518D01*
X524087Y624624D02*
X524147Y624518D01*
X523973Y624656D02*
X524087Y624624D01*
X523816Y624734D02*
X523973Y624656D01*
X523816Y624734D02*
X523836Y624955D01*
X523870Y625152D01*
X523548Y625074D02*
X523712Y625106D01*
X523870Y625152D01*
X521146Y621443D02*
X521312Y621181D01*
X521612Y620991D01*
X521970Y620904D01*
X522313Y620951D01*
X521881Y621123D02*
X522131Y621058D01*
X521836Y621250D02*
X521881Y621123D01*
X521836Y621250D02*
X521972Y621375D01*
X521665Y620809D02*
X522755Y620886D01*
X520127Y620832D02*
X520604Y620782D01*
X520286Y621063D02*
X520665Y621406D01*
X520604Y620782D02*
X521665Y620809D01*
X520127Y620832D02*
X520286Y621063D01*
X520126Y626512D02*
X520166Y626340D01*
X520263Y626269D01*
X520513Y625938D01*
X520832Y625167D01*
X521101Y624293D01*
X521622Y624475D02*
X521677Y624076D01*
X521622Y624475D02*
X521655Y624573D01*
X521555Y624922D02*
X521689Y624905D01*
X521442Y624961D02*
X521555Y624922D01*
X521286Y625157D02*
X521442Y624961D01*
X520910Y625866D02*
X521286Y625157D01*
X521385Y625708D02*
X521744Y624836D01*
X519855Y626359D02*
X520747Y624142D01*
X521196Y626538D02*
X521385Y625708D01*
X526145Y621583D02*
X526208Y621412D01*
X525950Y621789D02*
X526145Y621583D01*
X525760Y621912D02*
X525950Y621789D01*
X525728Y622087D02*
X526355Y621493D01*
X525681Y621896D02*
X525760Y621912D01*
X523747Y622774D02*
X524029Y622327D01*
X524310Y621957D01*
X524427Y621665D01*
X524499Y621500D01*
X524674Y621431D01*
X524914Y621352D01*
X525144Y621162D01*
X525496Y621983D02*
X525681Y621896D01*
X525050Y622354D02*
X525496Y621983D01*
X524612Y622839D02*
X525050Y622354D01*
X525066Y622913D02*
X525728Y622087D01*
X524250Y621115D02*
X524469Y620990D01*
X524144Y621295D02*
X524250Y621115D01*
X523605Y622614D02*
X524144Y621295D01*
X531793Y623219D02*
X532071Y623001D01*
X531522Y623275D02*
X531793Y623219D01*
X531318Y623175D02*
X531522Y623275D01*
X531338Y623760D02*
X531593Y623581D01*
X531465Y623774D02*
X531593Y623581D01*
X531318Y624169D02*
X531465Y623774D01*
X531336Y624493D02*
X531432Y624941D01*
X531336Y624493D02*
X531419Y624021D01*
X531727Y623529D01*
X532247Y622961D01*
X532846Y622446D01*
X532057Y621648D02*
X532392Y621416D01*
X531346Y622217D02*
X532057Y621648D01*
X530557Y623098D02*
X530704Y623044D01*
X530414Y623251D02*
X530557Y623098D01*
X528988Y625181D02*
X529077Y624549D01*
X529238Y624019D01*
X529492Y623548D01*
X529856Y623089D01*
X530076Y622773D01*
X530097Y622578D01*
X529162Y623049D02*
X529656Y622746D01*
X528862Y623353D02*
X529162Y623049D01*
X529656Y622746D02*
X529947Y622552D01*
X530097Y622578D01*
X525939Y621251D02*
X526139Y621295D01*
X526208Y621412D01*
X526355Y621493D02*
X526595Y621348D01*
X526756Y621340D01*
X526883Y621363D01*
X526936Y621262D01*
X527041Y621128D01*
X527294Y621072D01*
X527547Y621020D01*
X527547Y620773D02*
X527653Y620893D01*
X525461Y620830D02*
X527188Y620724D01*
X527547Y620773D01*
X527547Y621020D02*
X527653Y620893D01*
X503997Y629786D02*
X504089Y629539D01*
X504249Y629624D02*
X504261Y629846D01*
X504187Y630033D02*
X504287Y629978D01*
X504053Y630129D02*
X504187Y630033D01*
X504261Y629846D02*
X504287Y629978D01*
X504089Y629539D02*
X504310Y629293D01*
X504384Y629353D02*
X504534Y629137D01*
X504249Y629624D02*
X504384Y629353D01*
X504310Y629293D02*
X504534Y629137D01*
X505664Y629781D02*
X506132Y630090D01*
X505417Y629735D02*
X505664Y629781D01*
X505193Y629796D02*
X505417Y629735D01*
X505098Y629815D02*
X505193Y629796D01*
X505098Y629815D02*
X505214Y629636D01*
X505341Y629404D01*
X505249Y629285D02*
X505341Y629404D01*
X505113Y629172D02*
X505249Y629285D01*
X505011Y628935D02*
X505113Y629172D01*
X504907Y628096D02*
X505011Y628935D01*
X504843Y627822D02*
X504907Y628096D01*
X504686Y627810D02*
X504843Y627822D01*
X505738Y627658D02*
X505816Y627503D01*
X509888Y625398D02*
X510187Y625069D01*
X510351Y625244D02*
X510405Y625313D01*
X510550Y625434D01*
X510331Y625689D02*
X510514Y625573D01*
X510550Y625434D01*
X511058Y624820D02*
X511603Y624561D01*
X510876Y624801D02*
X511058Y624820D01*
X510807Y624675D02*
X510876Y624801D01*
X510807Y624675D02*
X510882Y624538D01*
X511077Y624417D01*
X511662Y624298D01*
X511829Y624348D01*
X511603Y624561D02*
X511829Y624348D01*
X510187Y625069D02*
X510404Y624761D01*
X510466Y624726D02*
X510502Y624883D01*
X510657Y625037D02*
X510765Y625159D01*
X510404Y624761D02*
X510466Y624726D01*
X509582Y626496D02*
X509708Y626314D01*
X509530Y626493D02*
X509582Y626496D01*
X509421Y626358D02*
X509530Y626493D01*
X509158Y626221D02*
X509421Y626358D01*
X508883Y626054D02*
X509158Y626221D01*
X509096Y625740D02*
X509382Y625523D01*
X510034Y625744D02*
X510331Y625689D01*
X509746Y625776D02*
X510034Y625744D01*
X509746Y625776D02*
X510000Y625911D01*
X510214Y626023D01*
X510224Y626077D01*
X509863Y626106D02*
X509988Y626045D01*
X510224Y626077D01*
X509708Y626314D02*
X509863Y626106D01*
X508883Y626054D02*
X509096Y625740D01*
X509382Y625523D02*
X509632Y625484D01*
X509888Y625398D01*
X510502Y624883D02*
X510657Y625037D01*
X510538Y625205D02*
X510765Y625159D01*
X510351Y625244D02*
X510538Y625205D01*
X503677Y625463D02*
X503854Y625594D01*
X512946Y623997D02*
X513092Y623891D01*
X512946Y623997D02*
X513014Y623838D01*
X513072Y623657D01*
X513007Y623581D02*
X513072Y623657D01*
X512886Y623545D02*
X513007Y623581D01*
X512828Y623446D02*
X512886Y623545D01*
X512828Y623446D02*
X512885Y623112D01*
X513776Y623250D02*
X513915Y623008D01*
X513567Y623281D02*
X513776Y623250D01*
X513388Y623285D02*
X513567Y623281D01*
X513316Y623437D02*
X513388Y623285D01*
X513250Y623674D02*
X513316Y623437D01*
X502748Y623843D02*
X502871Y623646D01*
X502649Y623697D02*
X502871Y623646D01*
X502435Y623741D02*
X502649Y623697D01*
X513092Y623891D02*
X513250Y623674D01*
X503782Y630843D02*
X503862Y630814D01*
X503779Y630736D02*
X503782Y630843D01*
X503756Y630521D02*
X503779Y630736D01*
X503629Y630291D02*
X503756Y630521D01*
X503529Y630056D02*
X503629Y630291D01*
X503578Y629832D02*
X503682Y629716D01*
X503683Y629825D01*
X503704Y629972D01*
X503817Y630033D01*
X503944Y629960D01*
X503997Y629786D01*
Y630361D02*
X504053Y630129D01*
X503957Y630630D02*
X503997Y630361D01*
X503862Y630814D02*
X503957Y630630D01*
X503529Y630056D02*
X503578Y629832D01*
X506237Y631018D02*
X506521Y631084D01*
X506171Y630976D02*
X506237Y631018D01*
X506171Y630976D02*
X506265Y630881D01*
X506394Y630724D01*
X506132Y630090D02*
X506398Y630523D01*
X506326Y628396D02*
X506550Y628810D01*
X507294Y630114D01*
X506394Y630724D02*
X506398Y630523D01*
X503441Y625383D02*
X503677Y625463D01*
X503279Y625186D02*
X503441Y625383D01*
X503225Y624940D02*
X503279Y625186D01*
X503225Y624940D02*
X503310Y624710D01*
X503374Y624593D01*
X503350Y624492D02*
X503374Y624593D01*
X503011Y624298D02*
X503350Y624492D01*
X502656Y624097D02*
X503011Y624298D01*
X503732Y623934D02*
X503951Y624471D01*
X502519Y623940D02*
X502921Y624656D01*
X503546Y625756D01*
X503951Y624471D02*
X504253Y624919D01*
X502653Y623988D02*
X502656Y624097D01*
X502435Y623741D02*
X502455Y623612D01*
X502504Y623398D01*
X502442Y623178D02*
X502504Y623398D01*
X502330Y623062D02*
X502442Y623178D01*
X502156Y623284D02*
X502258Y623376D01*
X503350Y623157D02*
X503521Y623169D01*
X503686Y623193D01*
X503685Y623475D02*
X503686Y623193D01*
X503685Y623475D02*
X503732Y623934D01*
X503862Y623013D02*
X503997Y623269D01*
X501991Y623040D02*
X502519Y623940D01*
X503280Y622995D02*
X503350Y623157D01*
X502093Y623059D02*
X502156Y623284D01*
X535389Y631123D02*
X535478Y630671D01*
X535484Y630247D01*
X535401Y629872D02*
X535484Y630247D01*
X535223Y629568D02*
X535401Y629872D01*
X534722Y629227D02*
X535223Y629568D01*
X533856Y628786D02*
X534722Y629227D01*
X532966Y628404D02*
X533856Y628786D01*
X532393Y628241D02*
X532966Y628404D01*
X531811Y628066D02*
X532393Y628241D01*
X530083Y627123D02*
X530948Y627643D01*
X528913Y628089D02*
X529783Y628570D01*
X530948Y627643D02*
X531811Y628066D01*
X528238Y627626D02*
X528913Y628089D01*
X530790Y626216D02*
X530886Y626538D01*
X530679Y625892D02*
X530790Y626216D01*
X530503Y625632D02*
X530679Y625892D01*
X530304Y625482D02*
X530503Y625632D01*
X530123Y625486D02*
X530304Y625482D01*
X530047Y625469D02*
X530123Y625486D01*
X529963Y625302D02*
X530039Y625617D01*
X530230Y625933D01*
X530936Y626550D01*
X530892Y626382D02*
X530966Y626312D01*
X530047Y625469D02*
X530135Y625243D01*
X534192Y627557D02*
X534413Y627557D01*
X533902Y627293D02*
X533996Y627458D01*
X533747Y627205D02*
X533902Y627293D01*
X533663Y626735D02*
X534516Y627042D01*
X535208Y627165D01*
X535441Y627206D01*
X535538Y627305D01*
X535672Y627454D01*
X535993Y627618D01*
X535707Y627084D02*
X536637Y627575D01*
X534604Y626609D02*
X535707Y627084D01*
X536314Y627563D02*
X536472Y627524D01*
X528443Y627237D02*
X528701Y627415D01*
X528879Y626254D02*
X529066Y626648D01*
X529272Y627030D01*
X529384Y627113D01*
X529495Y627116D01*
X529763Y627133D01*
X530079Y627299D01*
X530304Y627500D01*
X529895Y627437D02*
X530117Y627464D01*
X529189Y626301D02*
X529495Y626659D01*
X530083Y627123D01*
X529803Y627524D02*
X529895Y627437D01*
X530135Y625243D02*
X530234Y624928D01*
X530129Y624696D02*
X530234Y624928D01*
X530030Y624464D02*
X530129Y624696D01*
X530030Y624464D02*
X530076Y624175D01*
X530248Y624208D02*
X530287Y624395D01*
X530337Y624298D01*
X531272Y624698D02*
X531318Y624169D01*
X529963Y625302D02*
X530000Y624513D01*
X531272Y624698D02*
X531325Y625133D01*
X531696Y625801D02*
X531880Y625806D01*
X531960Y625681D01*
X531994Y625635D01*
X532082Y625670D01*
X532366Y625951D01*
X532872Y626339D01*
X533663Y626735D01*
X533567Y626264D02*
X534604Y626609D01*
X532671Y625933D02*
X533567Y626264D01*
X532085Y625596D02*
X532671Y625933D01*
X531687Y625323D02*
X532085Y625596D01*
X531432Y624941D02*
X531687Y625323D01*
X531475Y625247D02*
X531575Y625246D01*
X522170Y626673D02*
X522199Y626729D01*
X522255Y626716D01*
X522417Y626505D01*
X522627Y625928D01*
X522589Y625798D02*
X522627Y625928D01*
X522454Y625822D02*
X522589Y625798D01*
X523292Y626336D02*
X523428Y626055D01*
X523292Y626336D02*
X523308Y626524D01*
X523130Y626531D02*
X523306Y626577D01*
X522981Y626503D02*
X523130Y626531D01*
X522867Y626553D02*
X522981Y626503D01*
X522702Y626925D02*
X522867Y626553D01*
X523306Y626577D02*
X523308Y626524D01*
X528344Y625399D02*
X528480Y625297D01*
X528614Y625464D01*
X528666Y625724D01*
X528628Y625927D02*
X528666Y625724D01*
X528608Y626042D02*
X528628Y625927D01*
X528608Y626042D02*
X528700Y626090D01*
X528879Y626254D01*
X530886Y626538D02*
X530892Y626382D01*
X529024Y625998D02*
X529189Y626301D01*
X528968Y625656D02*
X529024Y625998D01*
X528968Y625656D02*
X528988Y625181D01*
X528133Y627165D02*
X528443Y627237D01*
X527883Y627121D02*
X528133Y627165D01*
X527883Y627121D02*
X527975Y626950D01*
X528128Y626638D01*
X528193Y626189D01*
X528237Y625715D01*
X528344Y625399D01*
X527866Y625104D02*
X528372Y624079D01*
X527757Y625579D02*
X527866Y625104D01*
X527712Y626129D02*
X527757Y625579D01*
X527707Y626701D02*
X527712Y626129D01*
X527707Y626701D02*
X527767Y627069D01*
X527932Y627341D01*
X528238Y627626D01*
X531185Y626363D02*
X532088Y626698D01*
X530966Y626312D02*
X531185Y626363D01*
X531325Y625133D02*
X531388Y625244D01*
X531475Y625247D01*
X531547Y625419D02*
X531575Y625246D01*
X531543Y625649D02*
X531547Y625419D01*
X531543Y625649D02*
X531696Y625801D01*
X530936Y626550D02*
X532034Y627124D01*
X521655Y624573D02*
X521739Y624566D01*
X521833Y624570D01*
X521808Y624736D02*
X521833Y624570D01*
X521689Y624905D02*
X521808Y624736D01*
X521721Y627625D02*
X521860Y627591D01*
X521759Y627321D02*
X522024Y626762D01*
X522108Y626534D01*
X522170Y626673D01*
X521644Y627594D02*
X521759Y627321D01*
X533089Y627213D02*
X533747Y627205D01*
X532496Y627223D02*
X533089Y627213D01*
X532190Y627113D02*
X532496Y627223D01*
X532185Y627006D02*
X532372Y627040D01*
X532583Y627082D01*
X532671Y627024D01*
X532499Y626875D02*
X532671Y627024D01*
X532088Y626698D02*
X532499Y626875D01*
X532034Y627124D02*
X533477Y627624D01*
X532185Y627006D02*
X532190Y627113D01*
X521335Y628315D02*
X521485Y628659D01*
X521508Y628696D01*
X521560Y628644D01*
X521708Y628362D01*
X521915Y629002D02*
X522162Y628327D01*
X521901Y629371D02*
X521915Y629002D01*
X521878Y629609D02*
X521901Y629371D01*
X521608Y629968D02*
X521878Y629609D01*
X521812Y630322D02*
X522585Y628330D01*
X521279Y630432D02*
X521608Y629968D01*
X520566Y626742D02*
X520910Y625866D01*
X521708Y628362D02*
X521918Y627681D01*
X521860Y627591D02*
X521918Y627681D01*
X521658Y627643D02*
X521721Y627625D01*
X521644Y627594D02*
X521658Y627643D01*
X522162Y628327D02*
X522702Y626925D01*
X521339Y628158D02*
X522296Y625732D01*
X522585Y628330D02*
X523479Y626161D01*
X520857Y627255D02*
X521196Y626538D01*
X521242Y630947D02*
X521253Y631353D01*
X521168Y631576D02*
X521253Y631353D01*
X521245Y633247D02*
X521405Y633627D01*
X521174Y632778D02*
X521245Y633247D01*
X521174Y632778D02*
X521193Y632126D01*
X521281Y631531D01*
X521415Y631097D01*
X521242Y630947D02*
X521279Y630432D01*
X521574Y630929D02*
X521682Y630889D01*
X521710Y630794D01*
X521812Y630322D01*
X521415Y631097D02*
X521574Y630929D01*
X520741Y633346D02*
X520774Y633876D01*
X521091Y631691D02*
X521168Y631576D01*
X521091Y631691D02*
X521118Y631835D01*
X521108Y631920D02*
X521118Y631835D01*
X520942Y631893D02*
X521108Y631920D01*
X520745Y631876D02*
X520942Y631893D01*
X520663Y631985D02*
X520745Y631876D01*
X520663Y631985D02*
X520723Y632125D01*
X520864Y632183D01*
X520964Y632247D01*
X520844Y632450D02*
X520964Y632247D01*
X520712Y632812D02*
X520844Y632450D01*
X520712Y632812D02*
X520741Y633346D01*
X521405Y633627D02*
X521632Y633882D01*
X520525Y630387D02*
X520704Y630327D01*
X520812Y630302D01*
X520836Y630097D01*
X520839Y629489D01*
X520913Y629386D01*
X521036Y629414D01*
X521167Y629409D01*
X521195Y629201D01*
X521190Y628481D02*
X521195Y629201D01*
X521190Y628481D02*
X521247Y628311D01*
X520476Y630083D02*
X521339Y628158D01*
X521247Y628311D02*
X521335Y628315D01*
X539413Y623716D02*
X539449Y623895D01*
X539359Y623816D02*
X539449Y623895D01*
X539706Y622624D02*
X539806Y622646D01*
X539540Y622630D02*
X539706Y622624D01*
X539404Y622806D02*
X539540Y622630D01*
X539390Y623060D02*
X539404Y622806D01*
X539390Y623060D02*
X539519Y623251D01*
X539650Y623365D01*
X539531Y623399D02*
X539650Y623365D01*
X539403Y623490D02*
X539531Y623399D01*
X539403Y623490D02*
X539413Y623716D01*
X539261Y624164D02*
X539962Y622366D01*
X539738Y622489D02*
X539806Y622646D01*
X538326Y622273D02*
X538378Y622465D01*
X538405Y621183D02*
X538446Y621291D01*
X538566Y621368D01*
X539045Y621431D01*
X539566Y621500D01*
X539639Y621622D01*
X539633Y621834D02*
X539639Y621622D01*
X539633Y621834D02*
X539642Y622192D01*
X539738Y622489D01*
X539962Y622366D02*
X540221Y621504D01*
X539627Y621034D02*
X540278Y621093D01*
X540221Y621504D02*
X540278Y621093D01*
X534463Y621072D02*
X534716Y621026D01*
X534821Y620916D01*
X535045Y620845D01*
X535583Y620895D01*
X537330Y621151D01*
X538106Y621211D01*
X538125Y621145D01*
X537957Y621002D02*
X538125Y621145D01*
X537699Y620781D02*
X537957Y621002D01*
X538002Y620833D02*
X538287Y620978D01*
X538405Y621183D01*
X538881Y620944D02*
X539627Y621034D01*
X538474Y620817D02*
X538881Y620944D01*
X537761Y620724D02*
X538474Y620817D01*
X537699Y620781D02*
X538002Y620833D01*
X538516Y623319D02*
X538744Y623428D01*
X538386Y623188D02*
X538516Y623319D01*
X538360Y622736D02*
X538386Y623188D01*
X538360Y622736D02*
X538378Y622465D01*
X538164Y623025D02*
X538464Y623799D01*
X538506Y624224D01*
X537591Y622379D02*
X538164Y623025D01*
X539115Y623615D02*
X539359Y623816D01*
X538744Y623428D02*
X539115Y623615D01*
X538472Y624669D02*
X538506Y624224D01*
X538425Y625115D02*
X538472Y624669D01*
X538618Y625323D02*
X538879Y625104D01*
X539035Y624915D01*
X539034Y624836D02*
X539035Y624915D01*
X539034Y624836D02*
X539054Y624638D01*
X539261Y624164D01*
X538470Y625330D02*
X538618Y625323D01*
X538425Y625115D02*
X538470Y625330D01*
X538184Y622126D02*
X538326Y622273D01*
X537932Y621990D02*
X538184Y622126D01*
X537534Y621862D02*
X537932Y621990D01*
X537364Y621955D02*
X537534Y621862D01*
X537273Y622064D02*
X537364Y621955D01*
X537143Y622053D02*
X537273Y622064D01*
X537064Y621904D02*
X537143Y622053D01*
X537064Y621904D02*
X537093Y621681D01*
X537101Y621540D01*
X536954Y621460D02*
X537101Y621540D01*
X535965Y621431D02*
X536954Y621460D01*
X534418Y621444D02*
X535965Y621431D01*
X535174Y621761D02*
X536090Y621759D01*
X536766Y621893D01*
X537591Y622379D01*
X534209Y621884D02*
X535174Y621761D01*
X498538Y633522D02*
X498819Y633442D01*
X498874Y633450D01*
X498838Y633648D02*
X498984Y633820D01*
X499077Y633939D01*
X499101Y634096D02*
X499283Y634060D01*
X499024Y634096D02*
X499101Y634096D01*
X499024Y634096D02*
X499138Y633916D01*
X499290Y633679D01*
X499049Y633723D02*
X499290Y633679D01*
X498938Y633742D02*
X499049Y633723D01*
X498935Y633689D02*
X499248Y633375D01*
X498935Y633689D02*
X498938Y633742D01*
X499283Y634060D02*
X499425Y634152D01*
X498857Y633492D02*
X498874Y633450D01*
X498838Y633648D02*
X498857Y633492D01*
X499425Y634152D02*
X499634Y634284D01*
X499964Y634329D01*
X500293Y634286D02*
X500502Y634155D01*
X499964Y634329D02*
X500293Y634286D01*
X499999Y632906D02*
X500224Y632797D01*
X500463Y632543D01*
X500677Y632327D01*
X500839Y632311D01*
X500956Y632291D01*
X501229Y632477D02*
X501523Y632205D01*
X501072Y632928D02*
X501229Y632477D01*
X501072Y632928D02*
X501077Y633404D01*
X501270Y633751D01*
X501085Y633975D02*
X501425Y633936D01*
X500719Y634028D02*
X501085Y633975D01*
X500502Y634155D02*
X500719Y634028D01*
X501270Y633751D02*
X501425Y633936D01*
X500956Y632291D02*
X501061Y632066D01*
X501226Y631802D01*
X501504Y631716D01*
X501761Y631780D02*
X501851Y631908D01*
X501772Y632063D02*
X501851Y631908D01*
X501523Y632205D02*
X501772Y632063D01*
X501504Y631716D02*
X501761Y631780D01*
X501665Y621903D02*
X502038Y622438D01*
X501331Y621457D02*
X501665Y621903D01*
X501229Y621142D02*
X501331Y621457D01*
X501793Y621196D02*
X502106Y621323D01*
X500728Y621556D02*
X501361Y622207D01*
X501991Y623040D01*
X501786Y621129D02*
X501793Y621196D01*
X512885Y623112D02*
X513134Y622686D01*
X513533Y622274D01*
X502481Y621381D02*
X502718Y621356D01*
X502795Y621440D01*
X502784Y621764D02*
X502795Y621440D01*
X502784Y621764D02*
X502807Y622188D01*
X502996Y622493D01*
X503196Y622738D01*
X502707Y621085D02*
X503214Y621923D01*
X503862Y623013D01*
X503196Y622738D02*
X503280Y622995D01*
X502106Y621323D02*
X502481Y621381D01*
X507108Y632268D02*
X507216Y632452D01*
X507056Y632328D02*
X507108Y632268D01*
X507003Y632467D02*
X507056Y632328D01*
X506894Y632471D02*
X507003Y632467D01*
X506811Y632251D02*
X506894Y632471D01*
X506811Y632251D02*
X506822Y631854D01*
X506822Y631515D01*
X506719Y631254D02*
X506822Y631515D01*
X506521Y631084D02*
X506719Y631254D01*
X506455Y629427D02*
X507136Y630665D01*
X507760Y625638D02*
X507984Y625988D01*
X507252Y624479D02*
X507760Y625638D01*
X507984Y625988D02*
X508117Y626102D01*
X509754Y630692D02*
X509767Y630342D01*
X509748Y629552D02*
X509915Y629983D01*
X509703Y629271D02*
X509748Y629552D01*
X509754Y630692D02*
X509826Y630732D01*
X508425Y629924D02*
X508689Y630093D01*
X508406Y629568D02*
X508425Y629924D01*
X508406Y629568D02*
X508415Y629263D01*
X508328Y629137D02*
X508415Y629263D01*
X508124Y628927D02*
X508328Y629137D01*
X509670Y629176D02*
X509703Y629271D01*
X509552Y629137D02*
X509670Y629176D01*
X509426Y629035D02*
X509552Y629137D01*
X509373Y628789D02*
X509426Y629035D01*
X509317Y628509D02*
X509373Y628789D01*
X509183Y628323D02*
X509317Y628509D01*
X508998Y628107D02*
X509183Y628323D01*
X508820Y627751D02*
X508998Y628107D01*
X507178Y627635D02*
X509771Y632693D01*
X507852Y628425D02*
X508124Y628927D01*
X508973Y628908D02*
X509357Y629697D01*
X509591Y630028D01*
X509653Y629939D01*
X509619Y629719D02*
X509653Y629939D01*
X509579Y629529D02*
X509619Y629719D01*
X509579Y629529D02*
X509688Y629641D01*
X509781Y629944D01*
X509767Y630342D02*
X509781Y629944D01*
X508749Y627496D02*
X508820Y627751D01*
X507585Y627947D02*
X507852Y628425D01*
X507393Y627798D02*
X507585Y627947D01*
X507324Y627753D02*
X507393Y627798D01*
X508353Y627412D02*
X508973Y628908D01*
X507324Y627753D02*
X507349Y627526D01*
X504570Y627849D02*
X504686Y627810D01*
X504570Y627849D02*
X504597Y627747D01*
X504650Y627521D01*
X504602Y627276D02*
X504650Y627521D01*
X504488Y627100D02*
X504602Y627276D01*
X504342Y627084D02*
X504488Y627100D01*
X503957Y625911D02*
X504128Y626855D01*
X503854Y625594D02*
X503957Y625911D01*
X502653Y623988D02*
X502748Y623843D01*
X502294Y623223D02*
X502330Y623062D01*
X502258Y623376D02*
X502294Y623223D01*
X503546Y625756D02*
X503997Y626865D01*
X504235Y627378D02*
X504729Y628151D01*
X505738Y627658D02*
X505804Y627986D01*
X506455Y629427D01*
X505162Y625841D02*
X506326Y628396D01*
X504729Y628151D02*
X504861Y628462D01*
X504871Y628680D01*
X504733Y628891D02*
X504871Y628680D01*
X504423Y629180D02*
X504733Y628891D01*
X503723Y629674D02*
X504423Y629180D01*
X504744Y630106D02*
X505106Y629904D01*
X505284Y629919D01*
X505464Y630015D01*
X505840Y630455D01*
X503209Y630046D02*
X503723Y629674D01*
X507793Y631332D02*
X507814Y631427D01*
X507657Y630903D02*
X507793Y631332D01*
X507294Y630114D02*
X507657Y630903D01*
X507814Y631427D02*
X507911Y631466D01*
X498364Y633996D02*
X498407Y634120D01*
X498290Y634082D02*
X498407Y634120D01*
X498331Y633903D02*
X498378Y633856D01*
X498331Y633903D02*
X498364Y633996D01*
X498123Y633937D02*
X498290Y634082D01*
X517543Y633824D02*
X517729Y633509D01*
X517391Y633978D02*
X517543Y633824D01*
X517220Y633997D02*
X517391Y633978D01*
X516982Y633907D02*
X517220Y633997D01*
X516680Y633667D02*
X516982Y633907D01*
X516626Y633348D02*
X516680Y633667D01*
X516626Y633348D02*
X516726Y632998D01*
X516753Y632985D01*
X516742Y633124D02*
X516753Y632985D01*
X516742Y633124D02*
X516758Y633236D01*
X516849Y633245D01*
X517211Y632973D01*
X517386Y632721D01*
X517279Y632554D02*
X517386Y632721D01*
X517964Y631661D02*
X518156Y631361D01*
X518283Y630956D01*
X517180Y632394D02*
X517374Y632168D01*
X517602Y632005D01*
X517534Y632166D02*
X517602Y632005D01*
X517470Y632326D02*
X517534Y632166D01*
X517470Y632326D02*
X517601Y632282D01*
X517727Y632110D01*
X517721Y631887D02*
X517727Y632110D01*
X517694Y631731D02*
X517721Y631887D01*
X517694Y631731D02*
X517771Y631720D01*
X517864Y631729D01*
X517964Y631661D01*
X517159Y632394D02*
X517975Y630771D01*
X517180Y632394D02*
X517279Y632554D01*
X519884Y632361D02*
X519957Y631746D01*
X519995Y631683D01*
X520025Y631825D01*
X520096Y631935D01*
X520267Y631702D01*
X519917Y631466D02*
X520064Y631363D01*
X519798Y631495D02*
X519917Y631466D01*
X520064Y631363D02*
X520126Y631114D01*
X519013Y628728D02*
X519348Y628249D01*
X519644Y627906D01*
X519767Y627592D01*
X519720Y627405D02*
X519767Y627592D01*
X519543Y627508D02*
X519720Y627405D01*
X519488Y627551D02*
X519543Y627508D01*
X519488Y627551D02*
X519504Y627514D01*
X519723Y627236D01*
X520007Y626825D01*
X519857Y628957D02*
X519913Y628813D01*
X519783Y628858D02*
X519913Y628813D01*
X518827Y628913D02*
X519855Y626359D01*
X520007Y626825D02*
X520126Y626512D01*
X520394Y627480D02*
X520566Y626742D01*
X520355Y627911D02*
X520394Y627480D01*
X520326Y628006D02*
X520355Y627911D01*
X520256Y627938D02*
X520326Y628006D01*
X520117Y627977D02*
X520256Y627938D01*
X520033Y628136D02*
X520117Y627977D01*
X520033Y628136D02*
X520162Y628381D01*
X520304Y628586D01*
X520140Y628514D02*
X520304Y628586D01*
X519966Y628459D02*
X520140Y628514D01*
X519966Y628459D02*
X519998Y628653D01*
X520019Y628896D01*
X519911Y629069D02*
X520019Y628896D01*
X520124Y628868D02*
X520857Y627255D01*
X519838Y633780D02*
X520097Y633922D01*
X519697Y633579D02*
X519838Y633780D01*
X519697Y633579D02*
X519704Y633344D01*
X519697Y633139D02*
X519704Y633344D01*
X519556Y632966D02*
X519697Y633139D01*
X519422Y632846D02*
X519556Y632966D01*
X520267Y631702D02*
X520477Y631125D01*
X520330Y630677D02*
X520525Y630387D01*
X520439Y630995D02*
X520477Y631125D01*
X520663Y633958D02*
X520774Y633876D01*
X520438Y633975D02*
X520663Y633958D01*
X521632Y633882D02*
X521905Y633975D01*
X520097Y633922D02*
X520438Y633975D01*
X518941Y630712D02*
X518952Y630284D01*
X519118Y630839D02*
X519324Y630630D01*
X519146Y631108D02*
X519324Y630630D01*
X519246Y630089D02*
X519509Y630106D01*
X520246Y631031D02*
X520303Y631019D01*
X520232Y630972D02*
X520246Y631031D01*
X520232Y630972D02*
X520330Y630677D01*
X519229Y631018D02*
X519582Y630122D01*
X520126Y631114D02*
X520229Y630665D01*
X520476Y630083D01*
X520303Y631019D02*
X520439Y630995D01*
X518883Y631083D02*
X518941Y630712D01*
X518883Y631083D02*
X519118Y630839D01*
X518960Y631500D02*
X519146Y631108D01*
X518878Y631561D02*
X518960Y631500D01*
X518791Y631555D02*
X518878Y631561D01*
X518591Y631786D02*
X518791Y631555D01*
X519588Y632812D02*
X519790Y632685D01*
X519884Y632361D01*
X519798Y631495D02*
X519806Y631565D01*
X519727Y631988D02*
X519806Y631565D01*
X519398Y632865D02*
X519727Y631988D01*
X518685Y632366D02*
X519229Y631018D01*
X519422Y632846D02*
X519588Y632812D01*
X518672Y630022D02*
X518952Y630284D01*
X519509Y630106D02*
X519521Y629936D01*
X519072Y629990D02*
X519246Y630089D01*
X518953Y629812D02*
X519072Y629990D01*
X518879Y629304D02*
X518953Y629812D01*
X518879Y629304D02*
X519013Y628728D01*
X519800Y629100D02*
X519911Y629069D01*
X519800Y629100D02*
X519857Y628957D01*
X519656Y629026D02*
X519783Y628858D01*
X519656Y629026D02*
X519658Y629239D01*
X519676Y629441D01*
X519588Y629585D02*
X519676Y629441D01*
X519501Y629729D02*
X519588Y629585D01*
X519582Y630122D02*
X520124Y628868D01*
X518654Y629324D02*
X518827Y628913D01*
X519501Y629729D02*
X519521Y629936D01*
X518403Y632160D02*
X518591Y631786D01*
X518343Y632498D02*
X518403Y632160D01*
X518343Y632498D02*
X518345Y633127D01*
X518285Y633215D02*
X518345Y633127D01*
X518189Y633130D02*
X518285Y633215D01*
X518108Y633069D02*
X518189Y633130D01*
X518006Y633112D02*
X518108Y633069D01*
X517729Y633509D02*
X518006Y633112D01*
X518306Y633352D02*
X518685Y632366D01*
X518133Y633805D02*
X518306Y633352D01*
X517962Y633961D02*
X518133Y633805D01*
X518283Y630956D02*
X518285Y630582D01*
X518267Y630321D02*
X518285Y630582D01*
X518267Y630321D02*
X518361Y630212D01*
X518447Y630154D01*
X518412Y630015D02*
X518447Y630154D01*
X518410Y629913D02*
X518412Y630015D01*
X518410Y629913D02*
X518672Y630022D01*
X518427Y629561D02*
X518513Y629495D01*
X518388Y629719D02*
X518427Y629561D01*
X517975Y630771D02*
X518388Y629719D01*
X518513Y629495D02*
X518654Y629324D01*
X522893Y624574D02*
X523013Y624375D01*
X523138Y624332D01*
X523100Y624449D02*
X523138Y624332D01*
X523068Y624596D02*
X523100Y624449D01*
X523068Y624596D02*
X523172Y624656D01*
X523296Y624515D01*
X522898Y624298D02*
X523158Y623716D01*
X523292Y624143D02*
X523296Y624515D01*
X522397Y625834D02*
X522454Y625822D01*
X522382Y625775D02*
X522480Y625480D01*
X522677Y625191D01*
X522859Y625132D01*
X522951Y625107D01*
X522915Y624873D02*
X522951Y625107D01*
X522893Y624574D02*
X522915Y624873D01*
X522296Y625732D02*
X522898Y624298D01*
X522382Y625775D02*
X522397Y625834D01*
X523548Y625074D02*
X523572Y625334D01*
X523570Y625700D02*
X523572Y625334D01*
X523479Y626161D02*
X524560Y623760D01*
X523428Y626055D02*
X523570Y625700D01*
X525144Y621162D02*
X525370Y620982D01*
X525616Y620898D01*
X525782Y620924D01*
X525771Y621072D02*
X525782Y620924D01*
X525771Y621072D02*
X525775Y621199D01*
X525939Y621251D01*
X524469Y620990D02*
X525461Y620830D01*
X545579Y625284D02*
X545688Y625426D01*
X545445Y625642D02*
X545448Y625141D01*
X545532Y626162D02*
X545610Y626286D01*
X545708Y626314D01*
X545866Y626335D01*
X545445Y625642D02*
X545532Y626162D01*
X545634Y625015D02*
X545688Y625426D01*
X545866Y626335D02*
X545932Y626449D01*
X545879Y626575D02*
X545932Y626449D01*
X545751Y626628D02*
X545879Y626575D01*
X545668Y626697D02*
X545751Y626628D01*
X545618Y626883D02*
X545668Y626697D01*
X545608Y627468D02*
X545618Y626883D01*
X545608Y627468D02*
X545703Y628106D01*
X545884Y628525D01*
X546023Y628763D01*
X546006Y628984D02*
X546023Y628763D01*
X545965Y629100D02*
X546006Y628984D01*
X545744Y625015D02*
X546112Y627882D01*
X545965Y629100D02*
X546047Y629087D01*
X547077Y627409D02*
X547247Y627421D01*
X547007Y627249D02*
X547060Y627063D01*
X547187Y626986D01*
X547309Y626868D01*
X547353Y626583D01*
X547321Y626288D02*
X547353Y626583D01*
X547187Y626538D02*
X547321Y626288D01*
X547052Y626782D02*
X547187Y626538D01*
X546993Y626583D02*
X547052Y626782D01*
X546955Y626097D02*
X546993Y626583D01*
X546955Y626097D02*
X546994Y625956D01*
X547041Y625620D01*
X546694Y624625D02*
X547086Y628061D01*
X547007Y624722D02*
X547041Y625620D01*
X548149Y625277D02*
X548249Y625619D01*
X548218Y625901D02*
X548249Y625619D01*
X548083Y625642D02*
X548218Y625901D01*
X547951Y625410D02*
X548083Y625642D01*
X547916Y625733D02*
X547951Y625410D01*
X547916Y625733D02*
X547938Y626005D01*
X548032Y626223D01*
X548423Y626021D02*
X548750Y626134D01*
X548337Y625821D02*
X548423Y626021D01*
X548126Y624215D02*
X548337Y625821D01*
X548041Y622982D02*
X548126Y624215D01*
X548041Y622982D02*
X548166Y622079D01*
X548310Y621744D01*
X546364Y622433D02*
X546694Y624625D01*
X546155Y620979D02*
X546364Y622433D01*
X548310Y621744D02*
X548509Y621484D01*
X554178Y625903D02*
X554350Y625631D01*
X554178Y625903D02*
X554380Y625868D01*
X554590Y625856D01*
X554583Y626104D02*
X554590Y625856D01*
X554486Y626348D02*
X554583Y626104D01*
X554379Y626453D02*
X554486Y626348D01*
X553565Y627087D02*
X554379Y626453D01*
X552988Y627522D02*
X553565Y627087D01*
X552803Y627578D02*
X552988Y627522D01*
X551851Y629406D02*
X557431Y623760D01*
X553478Y626279D02*
X555040Y624706D01*
X550929Y626230D02*
X553478Y626279D01*
X554350Y625631D02*
X554422Y625483D01*
X548032Y626223D02*
X548217Y626393D01*
X548513Y626519D01*
X549510Y626666D01*
X551174Y626709D01*
X548750Y626134D02*
X550929Y626230D01*
X548482Y627362D02*
X550568Y627344D01*
X551174Y626709D02*
X553203Y626666D01*
X553552Y626582D01*
X553638Y626435D01*
X553781Y626108D01*
X554126Y625718D01*
X554422Y625483D01*
X552572Y627335D02*
X552678Y627531D01*
X550568Y627344D02*
X552572Y627335D01*
X552678Y627531D02*
X552803Y627578D01*
X557431Y623760D02*
X558645Y622643D01*
X557060Y622266D02*
X557095Y621831D01*
X555040Y624706D02*
X556886Y622685D01*
X557060Y622266D01*
X556996Y621452D02*
X557095Y621831D01*
X512327Y634330D02*
X513142Y634298D01*
X513495Y634191D01*
X512878Y633824D02*
X513314Y634024D01*
X512272Y633439D02*
X512878Y633824D01*
X511588Y632782D02*
X512272Y633439D01*
X511008Y632053D02*
X511588Y632782D01*
X510714Y631452D02*
X511008Y632053D01*
X510584Y631089D02*
X510714Y631452D01*
X509771Y632693D02*
X510421Y633788D01*
X510774Y634174D01*
X510377Y630770D02*
X510584Y631089D01*
X513314Y634024D02*
X513495Y634191D01*
X528011Y634336D02*
X528134Y634471D01*
X527832Y634412D02*
X528134Y634471D01*
X526891Y634038D02*
X527832Y634412D01*
X519284Y634181D02*
X519995Y634285D01*
X522041Y634028D02*
X522097Y634155D01*
X518890Y634065D02*
X519284Y634181D01*
X527070Y634317D02*
X529577Y634564D01*
X530111Y634547D01*
X530610Y634453D01*
X525144Y633943D02*
X525709Y634118D01*
X527070Y634317D01*
X521905Y633975D02*
X522041Y634028D01*
X530610Y634453D02*
X532477Y633900D01*
X508358Y634281D02*
X508581Y634093D01*
X507895Y634311D02*
X508358Y634281D01*
X507312Y634235D02*
X507895Y634311D01*
X507076Y633925D02*
X507312Y634235D01*
X508581Y634093D02*
X508599Y633801D01*
X511960Y633773D02*
X512487Y634334D01*
X511832D02*
X512487D01*
X511335Y634278D02*
X511832Y634334D01*
X506147Y634252D02*
X507258Y634308D01*
X510774Y634174D02*
X511416Y634288D01*
X512327Y634330D01*
X506147Y634252D02*
X506606Y633712D01*
X511260Y634195D02*
X511335Y634278D01*
X511260Y634195D02*
X511279Y634065D01*
X511280Y633867D01*
X514646Y634178D02*
X514857Y634279D01*
X515500Y634304D01*
X516881Y634229D01*
X517708Y634080D01*
X517962Y633961D01*
X514865Y634037D02*
X515258Y633918D01*
X514646Y634178D02*
X514865Y634037D01*
X507258Y634308D02*
X508791Y634207D01*
X509048Y634121D01*
X509175Y633996D01*
X518890Y634065D02*
X519398Y632865D01*
X506934Y633616D02*
X507076Y633925D01*
X506934Y633616D02*
X507102Y633226D01*
X507259Y632825D01*
X507216Y632452D02*
X507259Y632825D01*
X506606Y633712D02*
X506893Y633369D01*
X569057Y642053D02*
X569136Y642193D01*
X519995Y634285D02*
X520932Y634313D01*
X521748Y634269D01*
X522097Y634155D01*
X500106Y632360D02*
X501577Y631299D01*
X499780Y632542D02*
X500106Y632360D01*
X498902Y633070D02*
X499780Y632542D01*
X498115Y633505D02*
X498902Y633070D01*
X497302Y633808D02*
X498115Y633505D01*
X497259Y634253D02*
X499158Y634298D01*
X501057Y634263D01*
X501846Y634169D01*
X501716Y634013D02*
X501846Y634169D01*
X510833Y625668D02*
X512249Y624550D01*
X513136Y623924D01*
X512894Y622753D02*
X513332Y622224D01*
X512436Y623209D02*
X512894Y622753D01*
X512128Y623402D02*
X512436Y623209D01*
X511946Y623512D02*
X512128Y623402D01*
X511733Y623778D02*
X511946Y623512D01*
X511539Y624015D02*
X511733Y623778D01*
X511403Y624057D02*
X511539Y624015D01*
X511301Y624034D02*
X511403Y624057D01*
X511119Y624129D02*
X511301Y624034D01*
X513136Y623924D02*
X514466Y623039D01*
X507582Y625643D02*
X507641Y625656D01*
X507459Y625633D02*
X507582Y625643D01*
X507410Y625763D02*
X507459Y625633D01*
X507410Y625763D02*
X507543Y626215D01*
X507693Y626344D01*
X507909Y626383D01*
X508171Y626332D01*
X508460Y626192D01*
X508620Y626123D01*
X508576Y626254D02*
X508620Y626123D01*
X508258Y626138D02*
X508701Y625976D01*
X508117Y626102D02*
X508258Y626138D01*
X508701Y625976D02*
X509049Y625746D01*
X509731Y625164D02*
X509763Y625048D01*
X509652Y625312D02*
X509731Y625164D01*
X509463Y625373D02*
X509652Y625312D01*
X509273Y625424D02*
X509463Y625373D01*
X509049Y625746D02*
X509194Y625548D01*
X509273Y625424D01*
X509763Y625048D02*
X509840Y625064D01*
X509689Y626420D02*
X510005Y626269D01*
X510335Y626093D01*
X510833Y625668D01*
X510040Y625025D02*
X510369Y624780D01*
X509840Y625064D02*
X510040Y625025D01*
X510369Y624780D02*
X511119Y624129D01*
X514466Y623039D02*
X515799Y622327D01*
X515944Y622280D01*
X516004Y622169D01*
X513332Y622224D02*
X513578Y621808D01*
X516004Y622169D02*
X516372Y621906D01*
X508573Y626487D02*
X508576Y626254D01*
X508573Y626487D02*
X508773Y626743D01*
X508941Y626900D01*
X508880Y626899D02*
X508941Y626900D01*
X508718Y626897D02*
X508880Y626899D01*
X508656Y627076D02*
X508718Y626897D01*
X508599Y627251D02*
X508656Y627076D01*
X508447Y627236D02*
X508599Y627251D01*
X508326Y627207D02*
X508447Y627236D01*
X508326Y627207D02*
X508353Y627412D01*
X508778Y627285D02*
X509221Y626782D01*
X509689Y626420D01*
X508749Y627496D02*
X508778Y627285D01*
X504230Y627062D02*
X504342Y627084D01*
X504128Y626855D02*
X504230Y627062D01*
X504253Y624919D02*
X504550Y625108D01*
X506078Y622755D02*
X506091Y622585D01*
X504714Y625202D02*
X504750Y625424D01*
X504796Y625752D01*
X504972Y626120D01*
X506091Y622585D02*
X506187Y622477D01*
X505196Y626397D02*
X505389Y626455D01*
X505416Y626437D01*
X505295Y626511D02*
X505416Y626437D01*
X505164Y626696D02*
X505295Y626511D01*
X505164Y626696D02*
X505256Y626995D01*
X505425Y627234D01*
X506368Y622083D02*
X506383Y622564D01*
X507185Y621090D02*
X507365Y620935D01*
X506771Y620749D02*
X507371Y620802D01*
X505619Y620815D02*
X506771Y620749D01*
X504500Y620948D02*
X505619Y620815D01*
X503997Y621097D02*
X504500Y620948D01*
X507365Y620935D02*
X507371Y620802D01*
X509204Y630929D02*
X509334Y631048D01*
X509088Y630876D02*
X509204Y630929D01*
X509088Y630876D02*
X509104Y630750D01*
X509124Y630623D01*
X509015Y630570D02*
X509124Y630623D01*
X508908Y630514D02*
X509015Y630570D01*
X508908Y630514D02*
X508933Y630379D01*
X508910Y630216D02*
X508933Y630379D01*
X508689Y630093D02*
X508910Y630216D01*
X509332Y631361D02*
X509334Y631048D01*
X510405Y633171D02*
X510775Y633613D01*
X510061Y632729D02*
X510405Y633171D01*
X509801Y632544D02*
X510061Y632729D01*
X515258Y633918D02*
X515763Y633722D01*
X509682Y632410D02*
X509693Y632064D01*
X509710Y631708D01*
X509517Y631689D02*
X509642Y631662D01*
X509325Y631677D02*
X509517Y631689D01*
X509325Y631677D02*
X509332Y631361D01*
X509642Y631662D02*
X509710Y631708D01*
X507136Y630665D02*
X507391Y631032D01*
X507541Y631155D01*
X507660Y631193D01*
X507659Y631344D02*
X507676Y631720D01*
X507853Y632240D01*
X508100Y632701D01*
X508298Y632183D02*
X508512Y632690D01*
X508087Y631677D02*
X508298Y632183D01*
X507911Y631466D02*
X508087Y631677D01*
X507659Y631344D02*
X507660Y631193D01*
X510714Y632051D02*
X510849Y632243D01*
X516301Y633360D02*
X516792Y632897D01*
X515763Y633722D02*
X516301Y633360D01*
X516792Y632897D02*
X517159Y632394D01*
X532803Y632623D02*
X533457Y632149D01*
X531959Y632969D02*
X532803Y632623D01*
X530942Y633181D02*
X531959Y632969D01*
X529767Y633256D02*
X530942Y633181D01*
X527829Y632910D02*
X528737Y633162D01*
X527182Y632556D02*
X527829Y632910D01*
X527000Y632357D02*
X527182Y632556D01*
X526936Y632153D02*
X527000Y632357D01*
X526878Y631921D02*
X526936Y632153D01*
X526741Y631825D02*
X526878Y631921D01*
X526664Y631776D02*
X526741Y631825D01*
X526624Y631631D02*
X526664Y631776D01*
X526624Y631631D02*
X526659Y631063D01*
X526714Y630469D01*
X526645Y630478D02*
X526714Y630469D01*
X526495Y630650D02*
X526645Y630478D01*
X525317Y633342D02*
X525718Y632304D01*
X526495Y630650D01*
X528737Y633162D02*
X529767Y633256D01*
X525144Y633943D02*
X525317Y633342D01*
X511096Y633796D02*
X511280Y633867D01*
X510775Y633613D02*
X511096Y633796D01*
X509682Y632410D02*
X509801Y632544D01*
X510849Y632243D02*
X510988Y632272D01*
X511060Y632323D01*
X511030Y632572D02*
X511060Y632323D01*
X511009Y632856D02*
X511030Y632572D01*
X511009Y632856D02*
X511207Y632854D01*
X511525Y632901D01*
X511908Y633206D01*
X512330Y633666D01*
X511882Y633439D02*
X512330Y633666D01*
X511570Y633322D02*
X511882Y633439D01*
X511570Y633322D02*
X511960Y633773D01*
X509166Y633852D02*
X509175Y633996D01*
X509826Y630732D02*
X509959Y630701D01*
X510189Y630699D01*
X510342Y630860D01*
X510364Y631018D01*
X510269Y631018D02*
X510364Y631018D01*
X510175Y631021D02*
X510269Y631018D01*
X510175Y631021D02*
X510200Y631187D01*
X510326Y631352D01*
X510479Y631358D01*
X510589Y631354D01*
X510611Y631493D01*
X510622Y631774D01*
X509915Y629983D02*
X510377Y630770D01*
X510622Y631774D02*
X510714Y632051D01*
X508100Y632701D02*
X508330Y632900D01*
X508443Y632933D01*
X508424Y633013D02*
X508443Y632933D01*
X508399Y633196D02*
X508424Y633013D01*
X508399Y633196D02*
X508497Y633475D01*
X508599Y633801D01*
X508913Y633576D02*
X509012Y633705D01*
X508913Y633576D02*
X508933Y633425D01*
X508947Y633307D01*
X508835Y633259D02*
X508947Y633307D01*
X508726Y633206D02*
X508835Y633259D01*
X508726Y633206D02*
X508746Y633079D01*
X508777Y632953D01*
X508695Y632900D02*
X508777Y632953D01*
X508512Y632690D02*
X508695Y632900D01*
X509012Y633705D02*
X509166Y633852D01*
X501577Y631299D02*
X503209Y630046D01*
X501402Y633830D02*
X501716Y634013D01*
X501087Y633601D02*
X501402Y633830D01*
X501070Y633309D02*
X501087Y633601D01*
X501070Y633309D02*
X501307Y632927D01*
X501720Y632438D01*
X502149Y632014D01*
X502434Y631831D01*
X503455Y631147D01*
X504744Y630106D01*
X505840Y630455D02*
X506256Y631241D01*
X506748Y632346D01*
X506950Y632985D01*
X506893Y633369D02*
X506950Y632985D01*
X533691Y633339D02*
X534328Y632780D01*
X534688Y632431D01*
X534988Y632024D01*
X533542Y630178D02*
X533869Y630457D01*
X534058Y630752D01*
X534026Y631399D02*
X534109Y631064D01*
X533808Y631759D02*
X534026Y631399D01*
X534058Y630752D02*
X534109Y631064D01*
X534988Y632024D02*
X535389Y631123D01*
X533457Y632149D02*
X533808Y631759D01*
X507342Y627234D02*
X507349Y627526D01*
X507153Y627059D02*
X507342Y627234D01*
X506806Y626015D02*
X506864Y626410D01*
X506726Y625954D02*
X506806Y626015D01*
X506604Y625972D02*
X506726Y625954D01*
X506864Y626410D02*
X506942Y626833D01*
X506432Y625980D02*
X506604Y625972D01*
X506432Y625980D02*
X506456Y625783D01*
X506312Y625639D02*
X506485Y625591D01*
X506456Y625783D02*
X506485Y625591D01*
X506154Y625707D02*
X506312Y625639D01*
X506154Y625707D02*
X506265Y625559D01*
X506380Y625240D01*
X506187Y622477D02*
X506294Y622364D01*
X506038Y624414D02*
X506293Y624830D01*
X505650Y624073D02*
X506038Y624414D01*
X505371Y623857D02*
X505650Y624073D01*
X506102Y622329D02*
X506294Y622364D01*
X505337Y623791D02*
X505386Y623765D01*
X505544Y623703D01*
X505610Y623562D01*
X506368Y622083D02*
X506483Y621703D01*
X505350Y623463D02*
X505533Y623451D01*
X505176Y623469D02*
X505350Y623463D01*
X505176Y623469D02*
X505199Y623258D01*
X504643Y621525D02*
X504741Y622004D01*
X505157Y623092D02*
X505232Y623084D01*
X505039Y623096D02*
X505157Y623092D01*
X504967Y622912D02*
X505039Y623096D01*
X504741Y622004D02*
X504967Y622912D01*
X506483Y621703D02*
X506748Y621385D01*
X504643Y621525D02*
X504677Y621400D01*
X504768Y621331D01*
X505630Y621187D01*
X506420Y621267D01*
X506664Y621387D01*
X506377Y621418D02*
X506664Y621387D01*
X506099Y621492D02*
X506377Y621418D01*
X506082Y621699D02*
X506099Y621492D01*
X506082Y621699D02*
X506097Y621889D01*
X505987Y621968D02*
X506097Y621889D01*
X505847Y622021D02*
X505987Y621968D01*
X505789Y622147D02*
X505847Y622021D01*
X505789Y622147D02*
X505881Y622275D01*
X506102Y622329D01*
X506748Y621385D02*
X507185Y621090D01*
X506574Y623897D02*
X506655Y623981D01*
X506687Y623940D01*
X506752Y623808D01*
X506960Y624029D01*
X507094Y624269D01*
X507044Y624343D02*
X507094Y624269D01*
X506917Y624422D02*
X507044Y624343D01*
X506864Y624675D02*
X506917Y624422D01*
X506629Y623383D02*
X507252Y624479D01*
X506495Y623097D02*
X506629Y623383D01*
X506383Y622564D02*
X506495Y623097D01*
X506864Y624675D02*
X506927Y624933D01*
X507111Y624958D01*
X507345Y625014D01*
X507560Y625309D01*
X507657Y625601D01*
X507641Y625656D02*
X507657Y625601D01*
X504550Y625108D02*
X504714Y625202D01*
X504972Y626120D02*
X505196Y626397D01*
X506293Y624830D02*
X506380Y625240D01*
X505337Y623791D02*
X505371Y623857D01*
X505533Y623451D02*
X505610Y623562D01*
X505199Y623258D02*
X505232Y623084D01*
X506078Y622755D02*
X506317Y623416D01*
X506574Y623897D01*
X503997Y623269D02*
X505162Y625841D01*
X503997Y621097D02*
X507178Y627635D01*
X504067Y627129D02*
X504235Y627378D01*
X503997Y626865D02*
X504067Y627129D01*
X505425Y627234D02*
X505570Y627322D01*
X505901Y627342D01*
X505917Y627409D01*
X505816Y627503D02*
X505917Y627409D01*
X506942Y626833D02*
X507153Y627059D01*
D103*
X687189Y628790D02*
X687250Y628226D01*
X687000Y629319D02*
X687189Y628790D01*
X684121Y632197D02*
X687000Y629319D01*
X683669Y632371D02*
X684121Y632197D01*
X683306Y632452D02*
X683669Y632371D01*
X671105Y632452D02*
X683306Y632452D01*
X674891Y634335D02*
X679210Y634335D01*
X682895D02*
X687214Y634335D01*
X695310Y634339D02*
X699694Y634339D01*
X687214Y634335D02*
X687659Y634483D01*
X610678Y610810D02*
X611226Y610621D01*
X607799Y613689D02*
X610678Y610810D01*
X607625Y614222D02*
X607799Y613689D01*
X607549Y614786D02*
X607625Y614222D01*
X613085Y615839D02*
X620436D01*
X613085D02*
Y627129D01*
X620436Y615839D02*
Y627129D01*
X607549Y628242D02*
X607549Y614786D01*
X613085Y627129D02*
X617746D01*
X617746Y627129D01*
X620436Y627129D01*
X607549Y628242D02*
X607625Y628806D01*
X607795Y629319D01*
X610690Y632181D01*
X625784Y632268D02*
X625960Y631855D01*
X610690Y632181D02*
X611238Y632355D01*
X625367Y632435D02*
X625784Y632268D01*
X611238Y632355D02*
X611815Y632435D01*
X625367D01*
X634077Y610685D02*
X634452Y611044D01*
X628254Y610686D02*
X628287Y611044D01*
X641867Y611137D02*
X642017Y610691D01*
X647227Y610693D02*
X647375Y611137D01*
X625812Y610709D02*
X625960Y611153D01*
X634452Y611044D02*
X637956Y616992D01*
X641867Y616960D02*
X641867Y611137D01*
X628287Y611044D02*
X632165Y617520D01*
X641829Y617079D02*
X641867Y616960D01*
X637956Y616992D02*
X638173Y617117D01*
X641710D02*
X641829Y617079D01*
X638173Y617117D02*
X641710D01*
X629286Y620464D02*
X632165Y617520D01*
X629069Y620947D02*
X629286Y620464D01*
X628976Y621403D02*
X629069Y620947D01*
X647375Y631855D02*
X647375Y611137D01*
X625960Y631855D02*
X625960Y611153D01*
X634512Y622028D02*
X642085D01*
Y627347D01*
X634512Y622028D02*
Y627347D01*
X628976Y628226D02*
X628976Y621403D01*
X634512Y627347D02*
X642085D01*
X634512D02*
X634512D01*
X628976Y628226D02*
X629053Y628790D01*
X629226Y629319D01*
X632105Y632197D01*
X647203Y632276D02*
X647375Y631855D01*
X632105Y632197D02*
X632653Y632371D01*
X646782Y632452D02*
X647203Y632276D01*
X632653Y632371D02*
X633230Y632452D01*
X646782Y632452D01*
X638109Y634339D02*
X650016Y634339D01*
X654548Y610581D02*
X654955Y610738D01*
X683589Y610609D02*
X684121Y610798D01*
X670540Y611141D02*
X670713Y610718D01*
X649605Y611141D02*
X649774Y610738D01*
X667798Y610738D02*
X667972Y611141D01*
X662480Y611145D02*
X662638Y610738D01*
X654955Y610738D02*
X655113Y611145D01*
X684121Y610798D02*
X687000Y613677D01*
X670540Y611141D02*
X670540Y615274D01*
X687000Y613677D02*
X687190Y614210D01*
X662480Y611145D02*
X662480Y616790D01*
X655113Y616790D02*
X655113Y611145D01*
X687190Y614210D02*
X687250Y614774D01*
X667972Y611141D02*
Y618802D01*
X670540Y615274D02*
X670714Y615677D01*
X671137Y615831D01*
X681181Y615831D01*
X681585Y616004D01*
X681754Y616427D01*
X672754Y619355D02*
X673016Y619863D01*
X681754Y626568D02*
X681754Y616427D01*
X687250Y628226D02*
X687250Y614774D01*
X673016Y619863D02*
Y623936D01*
X672762Y624431D02*
X673016Y623936D01*
X672420Y624887D02*
X672762Y624431D01*
X681585Y626972D02*
X681754Y626568D01*
X681161Y627129D02*
X681585Y626972D01*
X671105Y627129D02*
X681161Y627129D01*
X662307Y617193D02*
X662480Y616790D01*
X655113Y616790D02*
X655282Y617194D01*
X661903Y617351D02*
X662307Y617193D01*
X655282Y617194D02*
X655706Y617351D01*
X661903Y617351D01*
X671512Y618004D02*
X672399Y618887D01*
X672754Y619355D01*
X649605Y611141D02*
X649605Y628226D01*
X662464Y624262D02*
X667972Y618802D01*
X655101Y622032D02*
X662464D01*
Y624262D01*
X655101Y622032D02*
Y627573D01*
X657593Y631758D02*
X671512Y618004D01*
X671290Y626012D02*
X672420Y624887D01*
X670682Y627303D02*
X671105Y627129D01*
X670508Y627726D02*
X670682Y627303D01*
X655101Y627573D02*
X659722Y627573D01*
X649605Y628226D02*
X649669Y628806D01*
X649843Y629355D01*
X670508Y627726D02*
X670508Y631855D01*
X654762Y632484D02*
X659722Y627573D01*
X662186Y634988D02*
X671290Y626012D01*
X649843Y629355D02*
X652722Y632234D01*
X670508Y631855D02*
X670682Y632278D01*
X656916Y632770D02*
X657593Y631758D01*
X652722Y632234D02*
X653270Y632407D01*
X670682Y632278D02*
X671105Y632452D01*
X653270Y632407D02*
X653847Y632484D01*
X654762D01*
X656678Y633964D02*
X656916Y632770D01*
X666254Y634335D02*
X670198Y634335D01*
X650016Y634339D02*
X650581Y634399D01*
X670790Y650919D02*
X674294D01*
X662186Y634988D02*
Y668322D01*
X663895Y656226D02*
X663899Y650919D01*
X660931Y668322D02*
X662186D01*
X637516Y634931D02*
X637687Y634510D01*
X637516Y638843D02*
X637516Y634931D01*
X637516Y638843D02*
X637690Y639266D01*
X638093Y639439D01*
X637677Y651298D02*
X638081Y651141D01*
X637504Y651702D02*
X637677Y651298D01*
X637504Y651702D02*
X637504Y655645D01*
X637675Y656067D01*
X638097Y656238D01*
X637687Y634510D02*
X638109Y634339D01*
X650581Y634399D02*
X651113Y634589D01*
X653996Y637464D01*
X654186Y637996D01*
X654246Y638556D01*
X638093Y639439D02*
X648577Y639439D01*
X648734Y639593D01*
X648734Y642976D02*
X648734Y639593D01*
X648694Y643092D02*
X648734Y642976D01*
X648577Y643129D02*
X648694Y643092D01*
X639669Y643129D02*
X648577Y643129D01*
X639225Y643280D02*
X639669Y643129D01*
X639077Y643726D02*
X639225Y643280D01*
X654246Y652016D02*
X654246Y638556D01*
X639077Y643726D02*
Y646851D01*
X639242Y647271D01*
X639657Y647448D01*
X648577Y647447D01*
X648734Y647577D01*
X656678Y633964D02*
Y664117D01*
X648734Y647577D02*
Y650984D01*
X648692Y651109D02*
X648734Y650984D01*
X648565Y651141D02*
X648692Y651109D01*
X638081Y651141D02*
X648565Y651141D01*
X654186Y652577D02*
X654246Y652016D01*
X653996Y653109D02*
X654186Y652577D01*
X651117Y655988D02*
X653996Y653109D01*
X650585Y656161D02*
X651117Y655988D01*
X650020Y656238D02*
X650585Y656161D01*
X638097Y656238D02*
X650020Y656238D01*
X656678Y664117D02*
X656754Y664693D01*
X656927Y665226D01*
X674446Y634483D02*
X674891Y634335D01*
X682451Y634483D02*
X682895Y634335D01*
X679210D02*
X679654Y634483D01*
X665851Y634504D02*
X666254Y634335D01*
X670198Y634335D02*
X670619Y634506D01*
X674294Y634927D02*
X674446Y634483D01*
X679654Y634483D02*
X679802Y634927D01*
X682302D02*
X682451Y634483D01*
X665694Y634927D02*
X665851Y634504D01*
X670619Y634506D02*
X670790Y634927D01*
X665694Y650919D02*
X665694Y634927D01*
X674294Y650919D02*
X674294Y634927D01*
X670790Y634927D02*
Y650919D01*
X682302Y655633D02*
X682302Y634927D01*
X679802D02*
Y655645D01*
X663899Y650919D02*
X665694D01*
X660355Y668278D02*
X660931Y668322D01*
X679631Y656057D02*
X679802Y655645D01*
X682302Y655633D02*
X682451Y656077D01*
X687654Y656081D02*
X687811Y655645D01*
X679218Y656226D02*
X679631Y656057D01*
X682451Y656077D02*
X682895Y656226D01*
X687214D02*
X687654Y656081D01*
X682895Y656226D02*
X687214D01*
X663895D02*
X679218D01*
X656927Y665226D02*
X659807Y668105D01*
X660355Y668278D01*
X694907Y634508D02*
X695310Y634339D01*
X699694Y634339D02*
X700097Y634508D01*
X687659Y634483D02*
X687810Y634927D01*
X694754Y634931D02*
X694907Y634508D01*
X700097Y634508D02*
X700270Y634931D01*
X700826Y650915D02*
X705262Y650915D01*
X700270Y650355D02*
X700270Y634931D01*
X694754Y634931D02*
X694754Y650359D01*
X687810Y634927D02*
X687811Y655645D01*
X700270Y650355D02*
X700423Y650758D01*
X694581Y650762D02*
X694754Y650359D01*
X700423Y650758D02*
X700826Y650915D01*
X694177Y650919D02*
X694581Y650762D01*
X689742Y650919D02*
X694177Y650919D01*
X705262Y650915D02*
X705684Y651087D01*
X689320Y651090D02*
X689742Y650919D01*
X705684Y651087D02*
X705859Y651508D01*
X689149Y651512D02*
X689320Y651090D01*
X689149Y651512D02*
X689149Y655633D01*
X705859Y655645D02*
X705859Y651508D01*
X689149Y655633D02*
X689319Y656056D01*
X705714Y656069D02*
X705859Y655645D01*
X689319Y656056D02*
X689742Y656226D01*
X705294D02*
X705714Y656069D01*
X689742Y656226D02*
X705294D01*
X628597Y610544D02*
X633573Y610544D01*
X642464Y610544D02*
X646782Y610544D01*
X611803Y610560D02*
X625367Y610560D01*
X611226Y610621D02*
X611803Y610560D01*
X633573Y610544D02*
X634077Y610685D01*
X628254Y610686D02*
X628597Y610544D01*
X642017Y610691D02*
X642464Y610544D01*
X646782Y610544D02*
X647227Y610693D01*
X625367Y610560D02*
X625812Y610709D01*
X667395Y610581D02*
X667798Y610738D01*
X662638Y610738D02*
X663044Y610581D01*
X671137Y610548D02*
X683028Y610548D01*
X683589Y610609D01*
X663044Y610581D02*
X667395Y610581D01*
X650198Y610581D02*
X654548Y610581D01*
X670713Y610718D02*
X671137Y610548D01*
X649774Y610738D02*
X650198Y610581D01*
M02*
