G04*
G04 #@! TF.GenerationSoftware,Altium Limited,Altium Designer,24.4.1 (13)*
G04*
G04 Layer_Color=16711935*
%FSLAX44Y44*%
%MOMM*%
G71*
G04*
G04 #@! TF.SameCoordinates,BB8F2AFE-483E-42EE-87DF-432BFCC133BD*
G04*
G04*
G04 #@! TF.FilePolarity,Negative*
G04*
G01*
G75*
%ADD60C,1.5000*%
%ADD71O,2.7000X1.2000*%
%ADD72O,2.2000X1.2000*%
%ADD73C,2.4850*%
%ADD74C,1.6000*%
%ADD75R,1.6000X1.6000*%
%ADD76C,0.1000*%
%ADD77C,1.7250*%
%ADD78C,2.5000*%
%ADD79C,1.6300*%
%ADD80R,1.5000X1.5000*%
%ADD81C,0.7000*%
%ADD82C,0.6000*%
D60*
X550000Y667200D02*
D03*
X524600Y654500D02*
D03*
X550000Y641800D02*
D03*
X524600Y629100D02*
D03*
X550000Y616400D02*
D03*
X524600Y603700D02*
D03*
X550000Y591000D02*
D03*
X524600Y578300D02*
D03*
X550000Y565600D02*
D03*
D71*
X1204600Y566600D02*
D03*
Y653000D02*
D03*
D72*
X1151100Y566800D02*
D03*
Y653200D02*
D03*
D73*
X870400Y470400D02*
D03*
X819600D02*
D03*
Y419600D02*
D03*
X870400D02*
D03*
X845000Y445000D02*
D03*
X995400Y470400D02*
D03*
X944600D02*
D03*
Y419600D02*
D03*
X995400D02*
D03*
X970000Y445000D02*
D03*
D74*
X608000Y528200D02*
D03*
Y553600D02*
D03*
Y502800D02*
D03*
Y477400D02*
D03*
D75*
Y452000D02*
D03*
D76*
X550000Y435000D02*
D03*
Y785000D02*
D03*
X1050000D02*
D03*
Y435000D02*
D03*
D77*
X461100Y667200D02*
D03*
Y552900D02*
D03*
D78*
X491600Y687550D02*
D03*
Y532550D02*
D03*
D79*
X415400Y542200D02*
D03*
X435700D02*
D03*
X415400Y677900D02*
D03*
X435700D02*
D03*
D80*
X524600Y552900D02*
D03*
D81*
X1082002Y672170D02*
D03*
Y683170D02*
D03*
X1082000Y716000D02*
D03*
X1082002Y725670D02*
D03*
D82*
X953000Y795000D02*
D03*
Y785000D02*
D03*
Y775000D02*
D03*
Y765000D02*
D03*
X963000Y795000D02*
D03*
Y785000D02*
D03*
Y775000D02*
D03*
Y765000D02*
D03*
X943000Y795000D02*
D03*
Y785000D02*
D03*
Y775000D02*
D03*
Y765000D02*
D03*
M02*
