G04*
G04 #@! TF.GenerationSoftware,Altium Limited,Altium Designer,24.4.1 (13)*
G04*
G04 Layer_Physical_Order=4*
G04 Layer_Color=16711680*
%FSLAX44Y44*%
%MOMM*%
G71*
G04*
G04 #@! TF.SameCoordinates,BB8F2AFE-483E-42EE-87DF-432BFCC133BD*
G04*
G04*
G04 #@! TF.FilePolarity,Positive*
G04*
G01*
G75*
%ADD12C,0.2000*%
%ADD15C,0.3000*%
%ADD60C,1.5000*%
%ADD82C,0.6000*%
%ADD83C,0.2861*%
%ADD84C,0.2000*%
%ADD85C,0.2030*%
%ADD86C,0.4000*%
%ADD88C,1.4000*%
%ADD89C,1.0000*%
%ADD90C,0.5000*%
%ADD92O,2.6000X1.1000*%
%ADD93O,2.1000X1.1000*%
%ADD94C,2.3850*%
%ADD95R,1.5000X1.5000*%
%ADD96C,1.6250*%
%ADD97C,2.4000*%
%ADD98C,1.5300*%
%ADD99R,1.4000X1.4000*%
%ADD100C,0.5000*%
%ADD101C,0.4200*%
%ADD102C,0.7000*%
G36*
X608814Y751110D02*
X608168Y750085D01*
X606502Y751190D01*
X607042Y752046D01*
X608814Y751110D01*
D02*
G37*
G36*
X611592Y747498D02*
X611579Y747496D01*
X611549Y747482D01*
X611503Y747457D01*
X611156Y747241D01*
X610725Y746958D01*
X609620Y748625D01*
X610650Y749282D01*
X611592Y747498D01*
D02*
G37*
G36*
X435624Y670250D02*
X434578Y670240D01*
X432689Y670097D01*
X431847Y669962D01*
X431071Y669787D01*
X430364Y669570D01*
X429724Y669312D01*
X429152Y669013D01*
X428647Y668672D01*
X428211Y668289D01*
X426089Y670411D01*
X426472Y670847D01*
X426813Y671352D01*
X427112Y671924D01*
X427370Y672564D01*
X427587Y673271D01*
X427762Y674046D01*
X427896Y674889D01*
X427989Y675800D01*
X428050Y677823D01*
X435624Y670250D01*
D02*
G37*
G36*
X1025251Y809749D02*
X1023629Y808126D01*
X1020836Y804486D01*
X1018542Y800513D01*
X1016786Y796274D01*
X1015599Y791843D01*
X1015000Y787294D01*
Y785000D01*
X1015000Y782706D01*
X1015598Y778157D01*
X1016786Y773725D01*
X1018541Y769486D01*
X1020835Y765513D01*
X1023628Y761873D01*
X1026873Y758629D01*
X1030513Y755836D01*
X1034486Y753542D01*
X1038725Y751786D01*
X1043157Y750599D01*
X1047706Y750000D01*
X1050000Y750000D01*
X1052294Y750000D01*
X1056842Y750598D01*
X1061274Y751786D01*
X1065513Y753541D01*
X1069487Y755835D01*
X1073127Y758629D01*
X1074749Y760251D01*
X1085000Y750000D01*
X1097451D01*
X1097645Y749025D01*
X1098198Y748198D01*
X1099025Y747645D01*
X1100000Y747451D01*
X1200000D01*
Y665386D01*
X1198827Y664900D01*
X1195734Y667992D01*
X1194272Y669115D01*
X1192569Y669820D01*
X1190742Y670060D01*
X1162458D01*
X1160630Y669820D01*
X1158928Y669115D01*
X1157465Y667992D01*
X1156791Y667318D01*
X1153094Y663779D01*
X1150915Y661923D01*
X1150094Y661308D01*
X1149456Y660893D01*
X1149205Y660765D01*
X1146100D01*
X1144142Y660507D01*
X1142318Y659751D01*
X1140751Y658549D01*
X1139549Y656982D01*
X1138793Y655158D01*
X1138535Y653200D01*
X1138793Y651242D01*
X1139549Y649418D01*
X1140751Y647851D01*
X1142318Y646649D01*
X1144142Y645893D01*
X1146100Y645635D01*
X1156100D01*
X1158058Y645893D01*
X1159882Y646649D01*
X1161449Y647851D01*
X1162651Y649418D01*
X1163407Y651242D01*
X1163665Y653200D01*
X1163657Y653260D01*
X1163657Y653311D01*
X1163668Y653357D01*
X1163763Y653587D01*
X1163964Y653957D01*
X1164276Y654435D01*
X1164675Y654974D01*
X1165523Y655940D01*
X1187818D01*
X1189677Y654080D01*
X1189535Y653000D01*
X1189793Y651042D01*
X1190549Y649218D01*
X1191751Y647651D01*
X1193318Y646449D01*
X1195142Y645693D01*
X1197100Y645435D01*
X1199940D01*
Y630750D01*
X1198670Y630057D01*
X1198084Y630434D01*
X1198046Y630627D01*
X1197984Y630719D01*
Y632203D01*
X1197360Y633710D01*
X1196207Y634863D01*
X1194700Y635487D01*
X1193069D01*
X1191562Y634863D01*
X1190408Y633710D01*
X1189784Y632203D01*
Y631341D01*
X1189304D01*
X1187797Y630717D01*
X1186644Y629564D01*
X1186020Y628057D01*
Y627698D01*
X1184750Y627172D01*
X1177451Y634471D01*
X1176563Y635373D01*
X1176563Y635373D01*
X1176563Y635373D01*
X1174857Y636681D01*
X1172850Y637513D01*
X1170697Y637796D01*
X1170696Y637784D01*
X1137568D01*
X1137065Y638999D01*
X1135799Y640265D01*
X1134145Y640950D01*
X1132355D01*
X1130701Y640265D01*
X1129435Y638999D01*
X1128750Y637345D01*
Y635555D01*
X1129435Y633901D01*
X1130236Y633100D01*
X1129435Y632299D01*
X1128750Y630645D01*
Y628855D01*
X1129435Y627201D01*
X1130701Y625935D01*
X1132355Y625250D01*
X1134145D01*
X1134500Y625013D01*
Y624105D01*
X1135185Y622451D01*
X1136323Y621313D01*
X1136452Y621140D01*
X1136471Y619802D01*
X1135764Y619095D01*
X1135079Y617441D01*
Y615651D01*
X1135764Y613997D01*
X1137030Y612731D01*
X1138684Y612046D01*
X1140474D01*
X1142128Y612731D01*
X1142308Y612911D01*
X1142346Y612932D01*
X1142406Y612961D01*
X1142474Y612989D01*
X1142552Y613014D01*
X1142642Y613037D01*
X1142717Y613051D01*
X1142863Y613066D01*
X1163650D01*
Y611684D01*
X1163711Y611537D01*
X1161233Y609059D01*
X1141535D01*
X1141484Y609067D01*
X1141419Y609083D01*
X1141370Y609099D01*
X1141334Y609114D01*
X1141307Y609128D01*
X1141285Y609142D01*
X1141265Y609159D01*
X1141178Y609239D01*
X1141037Y609327D01*
X1140549Y609815D01*
X1138895Y610500D01*
X1137105D01*
X1135451Y609815D01*
X1134185Y608549D01*
X1133500Y606895D01*
Y605105D01*
X1134185Y603451D01*
X1135451Y602185D01*
X1137105Y601500D01*
X1138895D01*
X1140549Y602185D01*
X1141037Y602673D01*
X1141178Y602761D01*
X1141265Y602841D01*
X1141285Y602858D01*
X1141307Y602872D01*
X1141334Y602886D01*
X1141370Y602901D01*
X1141419Y602917D01*
X1141483Y602933D01*
X1141535Y602941D01*
X1162500D01*
X1162500Y602941D01*
X1163671Y603174D01*
X1164663Y603837D01*
X1169320Y608495D01*
X1169612Y608778D01*
X1169730Y608882D01*
X1170072Y609024D01*
X1171125Y610077D01*
X1171677Y609524D01*
X1173184Y608900D01*
X1174816D01*
X1176322Y609524D01*
X1177476Y610677D01*
X1178100Y612184D01*
Y613815D01*
X1177476Y615322D01*
X1176322Y616476D01*
X1174816Y617100D01*
X1174242D01*
X1174239Y617102D01*
X1174217Y617117D01*
X1174169Y617156D01*
X1172163Y619163D01*
X1171926Y619321D01*
X1171815Y620451D01*
X1172500Y622105D01*
Y623895D01*
X1172158Y624720D01*
X1173235Y625439D01*
X1181941Y616733D01*
Y596809D01*
X1181328Y595977D01*
X1180111Y595687D01*
X1179072Y596726D01*
X1177566Y597350D01*
X1175934D01*
X1174673Y596828D01*
X1174606Y596843D01*
X1173858Y597258D01*
X1173500Y597594D01*
Y598895D01*
X1172815Y600549D01*
X1171549Y601815D01*
X1169895Y602500D01*
X1168105D01*
X1166451Y601815D01*
X1165185Y600549D01*
X1164500Y598895D01*
Y597105D01*
X1165185Y595451D01*
X1166451Y594185D01*
X1168105Y593500D01*
X1169895D01*
X1171405Y594125D01*
X1172058Y593864D01*
X1172650Y593490D01*
Y592434D01*
X1173274Y590928D01*
X1173752Y590450D01*
X1173274Y589972D01*
X1172650Y588465D01*
Y586834D01*
X1173274Y585327D01*
X1174427Y584174D01*
X1175934Y583550D01*
X1177566D01*
X1179072Y584174D01*
X1179841Y584943D01*
X1181316Y585236D01*
X1181562Y585400D01*
X1181613Y585414D01*
X1184813Y587001D01*
X1184911Y587077D01*
X1185481Y587313D01*
X1186935Y588428D01*
X1187895Y589165D01*
X1187908Y589182D01*
X1188768Y590096D01*
X1190413Y591741D01*
X1190671Y592128D01*
X1191941Y591742D01*
Y590267D01*
X1180855Y579181D01*
X1176824D01*
X1176476Y580022D01*
X1175322Y581176D01*
X1173816Y581800D01*
X1172184D01*
X1170677Y581176D01*
X1169524Y580022D01*
X1168678Y579980D01*
X1167575Y580382D01*
X1167575Y580382D01*
X1167540Y580382D01*
X1158286Y589636D01*
X1158286Y589636D01*
X1158284Y589648D01*
X1158285Y589649D01*
X1156582Y590956D01*
X1154575Y591788D01*
X1152421Y592071D01*
X1152421Y592059D01*
X1143027D01*
X1142178Y593329D01*
X1142500Y594105D01*
Y595895D01*
X1141815Y597549D01*
X1140549Y598815D01*
X1138895Y599500D01*
X1137105D01*
X1135451Y598815D01*
X1134185Y597549D01*
X1133500Y595895D01*
Y595438D01*
X1132807Y594350D01*
X1132327Y594350D01*
X1131176D01*
X1129669Y593726D01*
X1128516Y592572D01*
X1127892Y591065D01*
Y589434D01*
X1128516Y587928D01*
X1129011Y587432D01*
X1128516Y586937D01*
X1127892Y585430D01*
Y583799D01*
X1128516Y582292D01*
X1129669Y581139D01*
X1131176Y580514D01*
X1132807D01*
X1134314Y581139D01*
X1135468Y582292D01*
X1135633Y582691D01*
X1151075D01*
X1151983Y582691D01*
X1159995Y574679D01*
X1159276Y573602D01*
X1158058Y574107D01*
X1156100Y574365D01*
X1146100D01*
X1144142Y574107D01*
X1142318Y573351D01*
X1140751Y572149D01*
X1139549Y570582D01*
X1138793Y568758D01*
X1138535Y566800D01*
X1138793Y564842D01*
X1139549Y563018D01*
X1140751Y561451D01*
X1142318Y560249D01*
X1144142Y559493D01*
X1146100Y559235D01*
X1149205D01*
X1149456Y559107D01*
X1150028Y558735D01*
X1155827Y553646D01*
X1157465Y552008D01*
X1158928Y550886D01*
X1160630Y550180D01*
X1162458Y549940D01*
X1181000D01*
X1182827Y550180D01*
X1184530Y550886D01*
X1185992Y552008D01*
X1190766Y556781D01*
X1191940Y556295D01*
Y551000D01*
Y520000D01*
Y499000D01*
X1192180Y497173D01*
X1192886Y495470D01*
X1194007Y494007D01*
X1195470Y492886D01*
X1197173Y492180D01*
X1199000Y491940D01*
X1199045Y491945D01*
X1200000Y491108D01*
Y472549D01*
X1100000D01*
X1099025Y472355D01*
X1098198Y471802D01*
X1097645Y470975D01*
X1097451Y470000D01*
X1085000D01*
X1074749Y459749D01*
X1073126Y461371D01*
X1069486Y464164D01*
X1065513Y466458D01*
X1061274Y468214D01*
X1056842Y469401D01*
X1052293Y470000D01*
X1049999Y470000D01*
X1047705D01*
X1043157Y469401D01*
X1038725Y468213D01*
X1034486Y466458D01*
X1030513Y464164D01*
X1026873Y461371D01*
X1023629Y458126D01*
X1020836Y454486D01*
X1018542Y450513D01*
X1016786Y446274D01*
X1015599Y441843D01*
X1015000Y437294D01*
Y435000D01*
X1015000Y432706D01*
X1015598Y428157D01*
X1016786Y423725D01*
X1018541Y419486D01*
X1020835Y415513D01*
X1023628Y411873D01*
X1025251Y410251D01*
X1017549Y402549D01*
X590000Y402549D01*
Y480842D01*
X590326Y481329D01*
X590559Y482500D01*
Y487301D01*
X591605Y488000D01*
X593395D01*
X595049Y488685D01*
X596315Y489951D01*
X597000Y491605D01*
Y493395D01*
X596315Y495049D01*
X595827Y495537D01*
X595739Y495678D01*
X595658Y495765D01*
X595642Y495785D01*
X595628Y495807D01*
X595614Y495834D01*
X595599Y495870D01*
X595583Y495919D01*
X595567Y495983D01*
X595559Y496035D01*
Y506233D01*
X598378Y509052D01*
X599212Y508950D01*
X599842Y507669D01*
X599147Y506467D01*
X598500Y504051D01*
Y501549D01*
X599147Y499133D01*
X600398Y496967D01*
X602167Y495198D01*
X604333Y493947D01*
X606749Y493300D01*
X607155D01*
X607237Y493241D01*
X607268Y493234D01*
X607295Y493216D01*
X607654Y493145D01*
X608012Y493062D01*
X609908Y493004D01*
X610665Y492925D01*
X611363Y492813D01*
X611981Y492671D01*
X612515Y492506D01*
X612967Y492322D01*
X613338Y492126D01*
X613617Y491936D01*
X620023Y485530D01*
X619497Y484260D01*
X616457D01*
X614765Y484300D01*
X614516Y484319D01*
X613833Y485002D01*
X611667Y486253D01*
X609251Y486900D01*
X606749D01*
X604333Y486253D01*
X602167Y485002D01*
X600398Y483233D01*
X599147Y481067D01*
X598500Y478651D01*
Y476149D01*
X599147Y473733D01*
X600398Y471567D01*
X602167Y469798D01*
X604333Y468547D01*
X606749Y467900D01*
X609251D01*
X611667Y468547D01*
X613833Y469798D01*
X613976Y469941D01*
X617743Y470140D01*
X669700D01*
X671527Y470380D01*
X673230Y471086D01*
X674692Y472207D01*
X717924Y515440D01*
X818277D01*
X818885Y513970D01*
X820007Y512508D01*
X821470Y511385D01*
X823173Y510680D01*
X825000Y510440D01*
X826827Y510680D01*
X828530Y511385D01*
X829992Y512508D01*
X834992Y517508D01*
X836114Y518970D01*
X836820Y520673D01*
X837060Y522500D01*
X836820Y524327D01*
X836114Y526030D01*
X834992Y527492D01*
X829992Y532492D01*
X828530Y533615D01*
X826827Y534320D01*
X825000Y534560D01*
X823173Y534320D01*
X821470Y533615D01*
X820007Y532492D01*
X817075Y529560D01*
X719445D01*
X719193Y530830D01*
X720049Y531185D01*
X721315Y532451D01*
X722000Y534105D01*
Y535895D01*
X721315Y537549D01*
X720049Y538815D01*
X718813Y539327D01*
Y540673D01*
X720049Y541185D01*
X721315Y542451D01*
X722000Y544105D01*
Y545895D01*
X721315Y547549D01*
X720049Y548815D01*
X718395Y549500D01*
X716605D01*
X714951Y548815D01*
X714712Y548576D01*
X714607Y548568D01*
X697054D01*
X696568Y549742D01*
X718767Y571941D01*
X731465D01*
X731516Y571933D01*
X731581Y571917D01*
X731630Y571901D01*
X731666Y571886D01*
X731693Y571872D01*
X731715Y571858D01*
X731735Y571841D01*
X731822Y571761D01*
X731963Y571673D01*
X732451Y571185D01*
X734105Y570500D01*
X735895D01*
X737549Y571185D01*
X738815Y572451D01*
X739500Y574105D01*
Y575895D01*
X738815Y577549D01*
X737549Y578815D01*
X735895Y579500D01*
X734500D01*
Y580895D01*
X733815Y582549D01*
X732549Y583815D01*
X730895Y584500D01*
X729105D01*
X727451Y583815D01*
X726963Y583327D01*
X726822Y583239D01*
X726735Y583158D01*
X726715Y583142D01*
X726693Y583128D01*
X726666Y583114D01*
X726630Y583099D01*
X726581Y583083D01*
X726517Y583067D01*
X726465Y583059D01*
X715000D01*
X713829Y582826D01*
X712837Y582163D01*
X712837Y582163D01*
X651233Y520559D01*
X627699D01*
X627000Y521605D01*
Y523395D01*
X626315Y525049D01*
X626006Y525358D01*
X625998Y525479D01*
Y538900D01*
X625731Y540238D01*
X624973Y541373D01*
X618641Y547705D01*
X618456Y547981D01*
X618265Y548349D01*
X618085Y548802D01*
X617922Y549342D01*
X617783Y549968D01*
X617676Y550655D01*
X617547Y552374D01*
X617539Y553343D01*
X617500Y553529D01*
Y554851D01*
X616853Y557267D01*
X615602Y559433D01*
X613833Y561202D01*
X611667Y562453D01*
X609251Y563100D01*
X606749D01*
X604333Y562453D01*
X602167Y561202D01*
X600398Y559433D01*
X599147Y557267D01*
X598500Y554851D01*
Y552349D01*
X599147Y549933D01*
X600398Y547767D01*
X602167Y545998D01*
X604333Y544747D01*
X606749Y544100D01*
X607155D01*
X607240Y544040D01*
X607269Y544033D01*
X607295Y544016D01*
X607656Y543945D01*
X608015Y543862D01*
X609947Y543805D01*
X610720Y543728D01*
X611432Y543617D01*
X612058Y543478D01*
X612598Y543315D01*
X613051Y543135D01*
X613419Y542944D01*
X613694Y542759D01*
X619002Y537451D01*
Y525427D01*
X618997Y525361D01*
X618685Y525049D01*
X618000Y523395D01*
Y521605D01*
X617301Y520559D01*
X615590D01*
X615064Y521829D01*
X615602Y522367D01*
X616853Y524533D01*
X617500Y526949D01*
Y529451D01*
X616853Y531867D01*
X615602Y534033D01*
X613833Y535802D01*
X611667Y537053D01*
X609251Y537700D01*
X606749D01*
X604333Y537053D01*
X602167Y535802D01*
X600398Y534033D01*
X599147Y531867D01*
X598500Y529451D01*
Y526949D01*
X599147Y524533D01*
X600398Y522367D01*
X600936Y521829D01*
X600410Y520559D01*
X595000D01*
X593829Y520326D01*
X592837Y519663D01*
X592837Y519663D01*
X591173Y517999D01*
X590000Y518485D01*
Y595424D01*
X608220Y613644D01*
X609126Y614524D01*
X609126Y614524D01*
X610559Y616392D01*
X611460Y618567D01*
X611764Y620879D01*
X611755Y620879D01*
X611749Y620886D01*
X611749Y736370D01*
Y743977D01*
X611934Y745150D01*
X613565D01*
X615072Y745774D01*
X616226Y746927D01*
X616850Y748434D01*
Y750066D01*
X616226Y751572D01*
X615072Y752726D01*
X613565Y753350D01*
X612890D01*
Y754025D01*
X612266Y755532D01*
X611113Y756686D01*
X609606Y757310D01*
X607975D01*
X606468Y756686D01*
X605314Y755532D01*
X604690Y754025D01*
Y753002D01*
X604300Y751894D01*
Y751894D01*
X602881Y750044D01*
X601980Y747869D01*
X601673Y745535D01*
X601691D01*
Y738343D01*
X601691Y736370D01*
X601691Y667096D01*
X600552Y666535D01*
X599821Y667096D01*
X597524Y668047D01*
X595060Y668372D01*
Y668372D01*
X594371Y668599D01*
X594042Y669924D01*
X594138Y669998D01*
X595651Y671970D01*
X596602Y674266D01*
X596926Y676730D01*
X596904D01*
Y686000D01*
Y705351D01*
X597322Y705524D01*
X598476Y706677D01*
X599100Y708184D01*
Y709816D01*
X598476Y711322D01*
X597322Y712476D01*
X595816Y713100D01*
X594184D01*
X592677Y712476D01*
X591875Y711673D01*
X591072Y712476D01*
X589566Y713100D01*
X587934D01*
X586427Y712476D01*
X585274Y711322D01*
X584650Y709816D01*
Y708184D01*
X585274Y706677D01*
X586427Y705524D01*
X586846Y705351D01*
Y686000D01*
Y677282D01*
X584610Y676987D01*
X582314Y676036D01*
X580342Y674523D01*
X578829Y672551D01*
X577878Y670255D01*
X577553Y667790D01*
X577878Y665326D01*
X578829Y663029D01*
X580179Y661270D01*
X579827Y660000D01*
X557187D01*
X556701Y661173D01*
X557202Y661674D01*
X558387Y663726D01*
X558782Y665200D01*
X550000D01*
X541218D01*
X541613Y663726D01*
X542798Y661674D01*
X543299Y661173D01*
X542813Y660000D01*
X535000D01*
X520000Y675000D01*
Y747500D01*
X585000D01*
X590000Y752500D01*
Y817451D01*
X1017549Y817451D01*
X1025251Y809749D01*
D02*
G37*
G36*
X1165993Y659464D02*
X1165122Y658575D01*
X1163087Y656256D01*
X1162601Y655600D01*
X1162212Y655003D01*
X1161918Y654464D01*
X1161721Y653984D01*
X1161621Y653563D01*
X1161617Y653200D01*
X1148963Y658686D01*
X1149328Y658650D01*
X1149833Y658796D01*
X1150478Y659125D01*
X1151263Y659636D01*
X1152189Y660330D01*
X1154461Y662264D01*
X1158922Y666535D01*
X1165993Y659464D01*
D02*
G37*
G36*
X601691Y650604D02*
Y621339D01*
X600847Y620495D01*
X591173Y610821D01*
X590000Y611307D01*
Y626852D01*
X594278Y631130D01*
X594295Y631125D01*
X595714Y632975D01*
X596615Y635150D01*
X596922Y637483D01*
X596904D01*
Y640970D01*
X596926D01*
X596602Y643435D01*
X595651Y645731D01*
X594138Y647703D01*
X594042Y647776D01*
X594371Y649101D01*
X595060Y649329D01*
Y649329D01*
X597524Y649653D01*
X599821Y650604D01*
X600552Y651166D01*
X601691Y650604D01*
D02*
G37*
G36*
X1166251Y627146D02*
X1165451Y626815D01*
X1164185Y625549D01*
X1163500Y623895D01*
Y622105D01*
X1164045Y620789D01*
X1164185Y620451D01*
X1163819Y619374D01*
X1163656Y619184D01*
X1143305D01*
X1142256Y620233D01*
X1142127Y620406D01*
X1142108Y621744D01*
X1142815Y622451D01*
X1143500Y624105D01*
Y625895D01*
X1142982Y627146D01*
X1143607Y628416D01*
X1165998D01*
X1166251Y627146D01*
D02*
G37*
G36*
X1141758Y617810D02*
X1141896Y617666D01*
X1142049Y617539D01*
X1142215Y617429D01*
X1142396Y617336D01*
X1142591Y617260D01*
X1142800Y617201D01*
X1143023Y617159D01*
X1143260Y617133D01*
X1143511Y617125D01*
X1143136Y615125D01*
X1142889Y615119D01*
X1142420Y615070D01*
X1142198Y615028D01*
X1141985Y614974D01*
X1141780Y614907D01*
X1141584Y614829D01*
X1141395Y614738D01*
X1141216Y614635D01*
X1141044Y614520D01*
X1141634Y617970D01*
X1141758Y617810D01*
D02*
G37*
G36*
X1172671Y615750D02*
X1172983Y615491D01*
X1173134Y615386D01*
X1173283Y615298D01*
X1173428Y615225D01*
X1173570Y615169D01*
X1173710Y615130D01*
X1173846Y615107D01*
X1173979Y615100D01*
X1171900Y613021D01*
X1171893Y613154D01*
X1171870Y613290D01*
X1171831Y613430D01*
X1171775Y613572D01*
X1171702Y613717D01*
X1171614Y613866D01*
X1171509Y614017D01*
X1171388Y614171D01*
X1171250Y614329D01*
X1171096Y614490D01*
X1172510Y615904D01*
X1172671Y615750D01*
D02*
G37*
G36*
X1168592Y610576D02*
X1168542Y610546D01*
X1168464Y610485D01*
X1168226Y610275D01*
X1166844Y608930D01*
X1165294Y610209D01*
X1165449Y610371D01*
X1165581Y610529D01*
X1165692Y610681D01*
X1165781Y610828D01*
X1165848Y610969D01*
X1165893Y611105D01*
X1165916Y611236D01*
X1165917Y611362D01*
X1165897Y611482D01*
X1165854Y611597D01*
X1168592Y610576D01*
D02*
G37*
G36*
X1139938Y607607D02*
X1140101Y607480D01*
X1140275Y607368D01*
X1140459Y607270D01*
X1140654Y607188D01*
X1140860Y607120D01*
X1141077Y607067D01*
X1141304Y607030D01*
X1141543Y607007D01*
X1141791Y607000D01*
Y605000D01*
X1141543Y604992D01*
X1141304Y604970D01*
X1141077Y604933D01*
X1140860Y604880D01*
X1140654Y604813D01*
X1140459Y604730D01*
X1140275Y604632D01*
X1140101Y604520D01*
X1139938Y604393D01*
X1139785Y604250D01*
Y607750D01*
X1139938Y607607D01*
D02*
G37*
G36*
X1178859Y593305D02*
X1178891Y593256D01*
X1178941Y593214D01*
X1179009Y593178D01*
X1179097Y593149D01*
X1179203Y593127D01*
X1179328Y593111D01*
X1179472Y593102D01*
X1179815Y593103D01*
X1178683Y591175D01*
X1177725Y591390D01*
X1178847Y593360D01*
X1178859Y593305D01*
D02*
G37*
G36*
X545001Y586100D02*
X544252Y586841D01*
X542844Y588089D01*
X542185Y588596D01*
X541557Y589025D01*
X540960Y589376D01*
X540392Y589649D01*
X539855Y589844D01*
X539348Y589961D01*
X538872Y590000D01*
Y592000D01*
X539348Y592039D01*
X539855Y592156D01*
X540392Y592351D01*
X540960Y592624D01*
X541557Y592975D01*
X542185Y593404D01*
X542844Y593911D01*
X544252Y595159D01*
X545001Y595900D01*
Y586100D01*
D02*
G37*
G36*
X533176Y585462D02*
X532867Y585097D01*
X532591Y584656D01*
X532349Y584138D01*
X532141Y583544D01*
X531966Y582873D01*
X531826Y582126D01*
X531718Y581302D01*
X531605Y579424D01*
X531600Y578370D01*
X524670Y585300D01*
X525724Y585306D01*
X527602Y585419D01*
X528426Y585526D01*
X529173Y585666D01*
X529844Y585841D01*
X530438Y586049D01*
X530956Y586291D01*
X531397Y586567D01*
X531762Y586876D01*
X533176Y585462D01*
D02*
G37*
G36*
X728215Y578250D02*
X728062Y578392D01*
X727899Y578520D01*
X727725Y578633D01*
X727541Y578730D01*
X727346Y578812D01*
X727140Y578880D01*
X726923Y578932D01*
X726696Y578970D01*
X726458Y578993D01*
X726209Y579000D01*
Y581000D01*
X726458Y581007D01*
X726696Y581030D01*
X726923Y581068D01*
X727140Y581120D01*
X727346Y581188D01*
X727541Y581270D01*
X727725Y581367D01*
X727899Y581480D01*
X728062Y581608D01*
X728215Y581750D01*
Y578250D01*
D02*
G37*
G36*
X733215Y573250D02*
X733062Y573392D01*
X732899Y573520D01*
X732725Y573633D01*
X732541Y573730D01*
X732346Y573812D01*
X732140Y573880D01*
X731923Y573932D01*
X731696Y573970D01*
X731458Y573993D01*
X731209Y574000D01*
Y576000D01*
X731458Y576007D01*
X731696Y576030D01*
X731923Y576068D01*
X732140Y576120D01*
X732346Y576188D01*
X732541Y576270D01*
X732725Y576367D01*
X732899Y576480D01*
X733062Y576608D01*
X733215Y576750D01*
Y573250D01*
D02*
G37*
G36*
X545838Y559972D02*
X545212Y560415D01*
X543988Y561161D01*
X543390Y561464D01*
X542802Y561721D01*
X542222Y561931D01*
X541653Y562094D01*
X541092Y562211D01*
X540541Y562281D01*
X540000Y562304D01*
Y564304D01*
X540463Y564335D01*
X540896Y564429D01*
X541297Y564586D01*
X541668Y564805D01*
X542008Y565087D01*
X542317Y565432D01*
X542595Y565840D01*
X542843Y566310D01*
X543060Y566842D01*
X543246Y567438D01*
X545838Y559972D01*
D02*
G37*
G36*
X532984Y557570D02*
X532711Y557283D01*
X532466Y556997D01*
X532250Y556712D01*
X532063Y556427D01*
X531904Y556144D01*
X531774Y555862D01*
X531673Y555580D01*
X531599Y555300D01*
X531555Y555020D01*
X531539Y554741D01*
X531570Y559869D01*
X531741Y559873D01*
X532049Y559898D01*
X532187Y559920D01*
X532312Y559948D01*
X532427Y559983D01*
X532529Y560023D01*
X532621Y560071D01*
X532701Y560124D01*
X532770Y560184D01*
X532984Y557570D01*
D02*
G37*
G36*
X1161621Y566437D02*
X1161721Y566016D01*
X1161918Y565536D01*
X1162212Y564997D01*
X1162601Y564400D01*
X1163087Y563744D01*
X1164348Y562257D01*
X1165993Y560536D01*
X1158922Y553465D01*
X1157295Y555071D01*
X1151263Y560364D01*
X1150478Y560875D01*
X1149833Y561204D01*
X1149328Y561350D01*
X1148963Y561314D01*
X1161617Y566800D01*
X1161621Y566437D01*
D02*
G37*
G36*
X615509Y552289D02*
X615648Y550421D01*
X615778Y549590D01*
X615948Y548825D01*
X616158Y548129D01*
X616408Y547501D01*
X616698Y546940D01*
X617029Y546448D01*
X617399Y546023D01*
X615377Y544001D01*
X614952Y544371D01*
X614459Y544702D01*
X613899Y544992D01*
X613271Y545242D01*
X612575Y545452D01*
X611810Y545622D01*
X610978Y545752D01*
X610079Y545841D01*
X608075Y545900D01*
X615500Y553325D01*
X615509Y552289D01*
D02*
G37*
G36*
X715715Y543250D02*
X715653Y543298D01*
X715568Y543340D01*
X715457Y543377D01*
X715323Y543410D01*
X715163Y543438D01*
X714771Y543478D01*
X714282Y543498D01*
X714000Y543500D01*
Y546500D01*
X714282Y546502D01*
X715163Y546562D01*
X715323Y546590D01*
X715457Y546623D01*
X715568Y546660D01*
X715653Y546702D01*
X715715Y546750D01*
Y543250D01*
D02*
G37*
G36*
X714951Y541185D02*
X716187Y540673D01*
Y539327D01*
X714951Y538815D01*
X714712Y538576D01*
X714607Y538568D01*
X705295D01*
X705049Y538815D01*
X703395Y539500D01*
X701605D01*
X699951Y538815D01*
X698685Y537549D01*
X698000Y535895D01*
Y534105D01*
X698685Y532451D01*
X699951Y531185D01*
X701605Y530500D01*
X703395D01*
X705049Y531185D01*
X705288Y531424D01*
X705393Y531431D01*
X714705D01*
X714951Y531185D01*
X715807Y530830D01*
X715555Y529560D01*
X715000D01*
X713173Y529320D01*
X711470Y528614D01*
X710007Y527492D01*
X666776Y484260D01*
X663562D01*
X663036Y485530D01*
X686005Y508500D01*
X686895D01*
X688549Y509185D01*
X689815Y510451D01*
X690500Y512105D01*
Y513895D01*
X689815Y515549D01*
X688549Y516815D01*
X686895Y517500D01*
X685105D01*
X683451Y516815D01*
X682185Y515549D01*
X681653Y514265D01*
X681468Y514056D01*
X658481Y491069D01*
X624723D01*
X623866Y492044D01*
X624136Y493307D01*
X625049Y493685D01*
X625288Y493924D01*
X625393Y493931D01*
X647500D01*
X648866Y494203D01*
X650023Y494977D01*
X696478Y541431D01*
X714705D01*
X714951Y541185D01*
D02*
G37*
G36*
X715715Y533250D02*
X715653Y533298D01*
X715568Y533340D01*
X715457Y533377D01*
X715323Y533410D01*
X715163Y533438D01*
X714771Y533478D01*
X714282Y533498D01*
X714000Y533500D01*
Y536500D01*
X714282Y536502D01*
X715163Y536562D01*
X715323Y536590D01*
X715457Y536623D01*
X715568Y536660D01*
X715653Y536702D01*
X715715Y536750D01*
Y533250D01*
D02*
G37*
G36*
X704347Y536702D02*
X704432Y536660D01*
X704543Y536623D01*
X704677Y536590D01*
X704837Y536562D01*
X705228Y536522D01*
X705718Y536502D01*
X706000Y536500D01*
Y533500D01*
X705718Y533498D01*
X704837Y533438D01*
X704677Y533410D01*
X704543Y533377D01*
X704432Y533340D01*
X704347Y533298D01*
X704285Y533250D01*
Y536750D01*
X704347Y536702D01*
D02*
G37*
G36*
X623933Y525771D02*
X623981Y525071D01*
X624010Y524883D01*
X624045Y524718D01*
X624087Y524576D01*
X624135Y524456D01*
X624189Y524359D01*
X624250Y524285D01*
X620750D01*
X620811Y524359D01*
X620865Y524456D01*
X620913Y524576D01*
X620955Y524718D01*
X620990Y524883D01*
X621018Y525071D01*
X621057Y525515D01*
X621070Y526050D01*
X623930D01*
X623933Y525771D01*
D02*
G37*
G36*
X685593Y510533D02*
X685504Y510536D01*
X685403Y510517D01*
X685290Y510475D01*
X685164Y510411D01*
X685026Y510326D01*
X684875Y510218D01*
X684537Y509937D01*
X684348Y509763D01*
X684148Y509568D01*
X682445Y512108D01*
X682645Y512309D01*
X683473Y513244D01*
X683510Y513310D01*
X683526Y513358D01*
X685593Y510533D01*
D02*
G37*
G36*
X652600Y509443D02*
X653126Y508172D01*
X646022Y501068D01*
X625295D01*
X625049Y501315D01*
X623395Y502000D01*
X621605D01*
X619951Y501315D01*
X618923Y500287D01*
X617854Y500515D01*
X617622Y500645D01*
X617548Y501596D01*
X617539Y502545D01*
X617500Y502730D01*
Y504051D01*
X616853Y506467D01*
X615845Y508213D01*
X616423Y509482D01*
X652600Y509443D01*
D02*
G37*
G36*
X624347Y499202D02*
X624432Y499160D01*
X624543Y499123D01*
X624677Y499090D01*
X624837Y499062D01*
X625228Y499022D01*
X625718Y499002D01*
X626000Y499000D01*
Y496000D01*
X625718Y495998D01*
X624837Y495938D01*
X624677Y495910D01*
X624543Y495877D01*
X624432Y495840D01*
X624347Y495798D01*
X624285Y495750D01*
Y499250D01*
X624347Y499202D01*
D02*
G37*
G36*
X593507Y496043D02*
X593530Y495804D01*
X593567Y495577D01*
X593620Y495360D01*
X593688Y495154D01*
X593770Y494959D01*
X593867Y494775D01*
X593980Y494601D01*
X594107Y494438D01*
X594250Y494285D01*
X590750D01*
X590892Y494438D01*
X591020Y494601D01*
X591133Y494775D01*
X591230Y494959D01*
X591312Y495154D01*
X591380Y495360D01*
X591432Y495577D01*
X591470Y495804D01*
X591493Y496043D01*
X591500Y496291D01*
X593500D01*
X593507Y496043D01*
D02*
G37*
G36*
X615509Y501507D02*
X615652Y499668D01*
X615785Y498846D01*
X615958Y498089D01*
X616172Y497397D01*
X616428Y496771D01*
X616724Y496209D01*
X617061Y495713D01*
X617439Y495283D01*
X615317Y493161D01*
X614887Y493539D01*
X614390Y493876D01*
X613829Y494172D01*
X613203Y494427D01*
X612511Y494642D01*
X611754Y494815D01*
X610932Y494948D01*
X610045Y495040D01*
X608075Y495100D01*
X615500Y502525D01*
X615509Y501507D01*
D02*
G37*
G36*
X543215Y483250D02*
X543153Y483298D01*
X543068Y483340D01*
X542957Y483377D01*
X542823Y483410D01*
X542663Y483438D01*
X542271Y483478D01*
X541782Y483498D01*
X541500Y483500D01*
Y486500D01*
X541782Y486502D01*
X542663Y486562D01*
X542823Y486590D01*
X542957Y486623D01*
X543068Y486660D01*
X543153Y486702D01*
X543215Y486750D01*
Y483250D01*
D02*
G37*
G36*
X588207Y481793D02*
X588042Y481625D01*
X587570Y481082D01*
X587499Y480979D01*
X587447Y480888D01*
X587413Y480810D01*
X587398Y480745D01*
X587402Y480693D01*
X585693Y482402D01*
X585745Y482398D01*
X585810Y482413D01*
X585888Y482447D01*
X585979Y482499D01*
X586082Y482570D01*
X586199Y482660D01*
X586470Y482896D01*
X586793Y483207D01*
X588207Y481793D01*
D02*
G37*
G36*
X613447Y482402D02*
X613624Y482360D01*
X613885Y482323D01*
X614662Y482262D01*
X617235Y482202D01*
X618090Y482200D01*
Y472200D01*
X613356Y471950D01*
Y482450D01*
X613447Y482402D01*
D02*
G37*
%LPC*%
G36*
X865337Y806500D02*
X863547D01*
X861893Y805815D01*
X860627Y804549D01*
X859942Y802895D01*
Y801105D01*
X860627Y799451D01*
X861893Y798185D01*
X863547Y797500D01*
X865337D01*
X866991Y798185D01*
X868257Y799451D01*
X868942Y801105D01*
Y802895D01*
X868257Y804549D01*
X866991Y805815D01*
X865337Y806500D01*
D02*
G37*
G36*
X675895Y804500D02*
X674105D01*
X672451Y803815D01*
X671185Y802549D01*
X670500Y800895D01*
Y799105D01*
X671185Y797451D01*
X672451Y796185D01*
X674105Y795500D01*
X675895D01*
X677549Y796185D01*
X678815Y797451D01*
X679500Y799105D01*
Y800895D01*
X678815Y802549D01*
X677549Y803815D01*
X675895Y804500D01*
D02*
G37*
G36*
X779558Y797588D02*
X756558D01*
X754802Y797239D01*
X753314Y796244D01*
X750384Y793315D01*
X748852Y793442D01*
X748190Y793884D01*
X747410Y794039D01*
X736000D01*
X735220Y793884D01*
X734558Y793442D01*
X732519Y791403D01*
X732519Y791403D01*
X732339Y791133D01*
X731453Y791500D01*
X729663D01*
X728009Y790815D01*
X726743Y789549D01*
X726058Y787895D01*
Y787800D01*
X724788Y787547D01*
X724373Y788549D01*
X723107Y789815D01*
X721453Y790500D01*
X719663D01*
X718009Y789815D01*
X716743Y788549D01*
X716058Y786895D01*
Y785105D01*
X716743Y783451D01*
X718009Y782185D01*
X719663Y781500D01*
X721453D01*
X723107Y782185D01*
X724373Y783451D01*
X725058Y785105D01*
Y785200D01*
X726328Y785453D01*
X726743Y784451D01*
X728009Y783185D01*
X729014Y782769D01*
X728961Y782500D01*
Y767000D01*
X728961Y767000D01*
X729116Y766220D01*
X729558Y765558D01*
X734558Y760558D01*
X735220Y760116D01*
X736000Y759961D01*
X780155D01*
X788961Y751155D01*
Y717845D01*
X784873Y713756D01*
X784431Y713095D01*
X784275Y712315D01*
X784431Y711534D01*
X784873Y710873D01*
X785068Y710677D01*
X785519Y709589D01*
Y708411D01*
X785068Y707323D01*
X784235Y706490D01*
X783147Y706039D01*
X781969D01*
X780881Y706490D01*
X780685Y706685D01*
X780024Y707128D01*
X779243Y707283D01*
X778463Y707128D01*
X777802Y706685D01*
X777802Y706685D01*
X769558Y698442D01*
X769116Y697780D01*
X768961Y697000D01*
Y677457D01*
X768964Y677441D01*
X767451Y676815D01*
X766185Y675549D01*
X764815D01*
X763549Y676815D01*
X761895Y677500D01*
X760105D01*
X758451Y676815D01*
X757185Y675549D01*
X756500Y673895D01*
Y672105D01*
X757185Y670451D01*
X758451Y669185D01*
X760105Y668500D01*
X761895D01*
X763549Y669185D01*
X764815Y670451D01*
X766185D01*
X767451Y669185D01*
X769105Y668500D01*
X770895D01*
X771492Y668747D01*
X771740Y668376D01*
X773961Y666155D01*
Y664588D01*
X735973D01*
X709180Y691382D01*
Y706743D01*
X711802Y709366D01*
X712797Y710855D01*
X713146Y712610D01*
Y742000D01*
X712797Y743756D01*
X711802Y745244D01*
X705146Y751900D01*
Y772599D01*
X709613Y777066D01*
X709871Y777173D01*
X710314Y777261D01*
X710690Y777512D01*
X711107Y777685D01*
X711427Y778005D01*
X711802Y778256D01*
X712054Y778632D01*
X712373Y778951D01*
X712546Y779368D01*
X712797Y779744D01*
X712885Y780187D01*
X713058Y780605D01*
Y781057D01*
X713146Y781500D01*
X713058Y781943D01*
Y782395D01*
X712885Y782813D01*
X712797Y783256D01*
X712546Y783632D01*
X712373Y784049D01*
X712054Y784369D01*
X711802Y784744D01*
X711427Y784995D01*
X711107Y785315D01*
X710690Y785488D01*
X710314Y785739D01*
X709871Y785827D01*
X709453Y786000D01*
X709001D01*
X708558Y786088D01*
X707558D01*
X705802Y785739D01*
X704314Y784744D01*
X697314Y777744D01*
X696319Y776256D01*
X695970Y774500D01*
X696058Y774057D01*
Y773943D01*
X695970Y773500D01*
Y750000D01*
X696319Y748244D01*
X697314Y746756D01*
X703970Y740099D01*
Y736611D01*
X702700Y735984D01*
X701453Y736500D01*
X699663D01*
X698009Y735815D01*
X696743Y734549D01*
X696156Y733132D01*
X692924Y729364D01*
X692055Y728438D01*
X692053Y728433D01*
X692058Y728356D01*
X691403Y727645D01*
X691074Y727287D01*
X690993Y727286D01*
X690992Y727285D01*
X690990Y727280D01*
X690133Y726342D01*
X684846Y721055D01*
X684767Y720938D01*
X683570Y719378D01*
X682764Y717432D01*
X682507Y715482D01*
X682480Y715343D01*
X682480Y690913D01*
X682449Y689726D01*
X682421Y689657D01*
X682428Y689638D01*
X675714Y682924D01*
X675451Y682815D01*
X674185Y681549D01*
X673500Y679895D01*
Y678105D01*
X674113Y676625D01*
Y676367D01*
X674113Y676367D01*
X674423Y674806D01*
X675307Y673483D01*
X680322Y668469D01*
X680743Y667451D01*
X682009Y666185D01*
X683663Y665500D01*
X685453D01*
X686471Y665922D01*
X697311D01*
X713116Y650116D01*
X713116Y650116D01*
X714439Y649232D01*
X716000Y648922D01*
X784182D01*
X788100Y645004D01*
X788743Y643451D01*
X790009Y642185D01*
X791663Y641500D01*
X793453D01*
X795107Y642185D01*
X796373Y643451D01*
X797058Y645105D01*
Y645732D01*
X827829Y676503D01*
X829003Y676017D01*
Y620000D01*
X829247Y618770D01*
X829224Y618565D01*
X828645Y617309D01*
X827451Y616815D01*
X826185Y615549D01*
X825500Y613895D01*
Y612105D01*
X826185Y610451D01*
X827451Y609185D01*
X829105Y608500D01*
X830895D01*
X832549Y609185D01*
X833815Y610451D01*
X834252Y611506D01*
X835673Y611880D01*
X852207Y595347D01*
X853342Y594588D01*
X854680Y594322D01*
X958232D01*
X995457Y557096D01*
X995500Y557046D01*
Y556605D01*
X996185Y554951D01*
X997451Y553685D01*
X999105Y553000D01*
X1000895D01*
X1002549Y553685D01*
X1003815Y554951D01*
X1004500Y556605D01*
Y558395D01*
X1003815Y560049D01*
X1002549Y561315D01*
X1000895Y562000D01*
X1000458D01*
X1000367Y562079D01*
X962153Y600293D01*
X961019Y601051D01*
X959680Y601317D01*
X952340D01*
X951871Y602587D01*
X952500Y604105D01*
Y605895D01*
X951815Y607549D01*
X950549Y608815D01*
X948895Y609500D01*
X947105D01*
X945451Y608815D01*
X944185Y607549D01*
X943500Y605895D01*
Y604105D01*
X944129Y602587D01*
X943660Y601317D01*
X856129D01*
X835997Y621449D01*
Y651830D01*
X837268Y652537D01*
X838564Y652000D01*
X840553D01*
X841110Y652231D01*
X842082Y651259D01*
X841558Y649995D01*
Y648006D01*
X842319Y646168D01*
X843726Y644761D01*
X845564Y644000D01*
X847553D01*
X849390Y644761D01*
X850797Y646168D01*
X851558Y648006D01*
Y649995D01*
X850797Y651832D01*
X849390Y653239D01*
X847553Y654000D01*
X845564D01*
X845006Y653769D01*
X844035Y654741D01*
X844558Y656005D01*
Y657995D01*
X844482Y658178D01*
X845380Y659076D01*
X845564Y659000D01*
X847553D01*
X849390Y659761D01*
X850797Y661168D01*
X851558Y663006D01*
Y664995D01*
X850797Y666832D01*
X849390Y668239D01*
X847553Y669000D01*
X845564D01*
X843726Y668239D01*
X842319Y666832D01*
X841558Y664995D01*
Y663006D01*
X841634Y662822D01*
X840736Y661924D01*
X840553Y662000D01*
X838564D01*
X837268Y661463D01*
X835997Y662170D01*
Y690843D01*
X837268Y691368D01*
X837451Y691185D01*
X839105Y690500D01*
X840895D01*
X842549Y691185D01*
X843815Y692451D01*
X844500Y694105D01*
Y695895D01*
X843815Y697549D01*
X842549Y698815D01*
X840895Y699500D01*
X839105D01*
X837451Y698815D01*
X837268Y698631D01*
X835997Y699157D01*
Y712401D01*
X837268Y712927D01*
X838009Y712185D01*
X839663Y711500D01*
X841453D01*
X843107Y712185D01*
X844373Y713451D01*
X845058Y715105D01*
Y716895D01*
X844373Y718549D01*
X843107Y719815D01*
X841453Y720500D01*
X839663D01*
X838009Y719815D01*
X837268Y719073D01*
X835997Y719599D01*
Y762500D01*
X835731Y763838D01*
X834973Y764973D01*
X817473Y782473D01*
X816338Y783231D01*
X815000Y783497D01*
X797927D01*
X797861Y783503D01*
X797549Y783815D01*
X796760Y784142D01*
X797012Y785412D01*
X833100D01*
X837756Y780756D01*
X838131Y780505D01*
X838451Y780185D01*
X838868Y780012D01*
X839244Y779761D01*
X839687Y779673D01*
X840105Y779500D01*
X840557D01*
X841000Y779412D01*
X841443Y779500D01*
X841895D01*
X842312Y779673D01*
X842756Y779761D01*
X843132Y780012D01*
X843549Y780185D01*
X843868Y780505D01*
X844244Y780756D01*
X844495Y781131D01*
X844815Y781451D01*
X844988Y781868D01*
X845239Y782244D01*
X845327Y782687D01*
X845500Y783105D01*
Y783557D01*
X845588Y784000D01*
X845500Y784443D01*
Y784895D01*
X845327Y785312D01*
X845239Y785756D01*
X844988Y786132D01*
X844815Y786549D01*
X844495Y786869D01*
X844244Y787244D01*
X838244Y793244D01*
X836756Y794239D01*
X835000Y794588D01*
X784459D01*
X782802Y796244D01*
X781314Y797239D01*
X779558Y797588D01*
D02*
G37*
G36*
X1008895Y798500D02*
X1007105D01*
X1005451Y797815D01*
X1004185Y796549D01*
X1003500Y794895D01*
Y793105D01*
X1004185Y791451D01*
X1005451Y790185D01*
X1007105Y789500D01*
X1008895D01*
X1010549Y790185D01*
X1011815Y791451D01*
X1012500Y793105D01*
Y794895D01*
X1011815Y796549D01*
X1010549Y797815D01*
X1008895Y798500D01*
D02*
G37*
G36*
X668395Y794500D02*
X666605D01*
X664951Y793815D01*
X663685Y792549D01*
X663000Y790895D01*
Y789105D01*
X663685Y787451D01*
X664951Y786185D01*
X666605Y785500D01*
X668395D01*
X670049Y786185D01*
X671315Y787451D01*
X672000Y789105D01*
Y790895D01*
X671315Y792549D01*
X670049Y793815D01*
X668395Y794500D01*
D02*
G37*
G36*
X915895Y765500D02*
X914105D01*
X912451Y764815D01*
X911185Y763549D01*
X910500Y761895D01*
Y760105D01*
X911185Y758451D01*
X912451Y757185D01*
X914105Y756500D01*
X915895D01*
X917549Y757185D01*
X918815Y758451D01*
X919500Y760105D01*
Y761895D01*
X918815Y763549D01*
X917549Y764815D01*
X915895Y765500D01*
D02*
G37*
G36*
X889337Y791500D02*
X887547D01*
X885893Y790815D01*
X884627Y789549D01*
X883942Y787895D01*
Y786105D01*
X884627Y784451D01*
X884760Y784318D01*
X884339Y782943D01*
X883824Y782840D01*
X882826Y782174D01*
X882826Y782174D01*
X878184Y777532D01*
X878163Y777500D01*
X878105D01*
X876451Y776815D01*
X875185Y775549D01*
X874500Y773895D01*
Y772105D01*
X875185Y770451D01*
X876451Y769185D01*
X878105Y768500D01*
X879895D01*
X881549Y769185D01*
X882815Y770451D01*
X883500Y772105D01*
Y773895D01*
X883425Y774077D01*
X884683Y775335D01*
X885627Y774549D01*
X884942Y772895D01*
Y771105D01*
X885627Y769451D01*
X886893Y768185D01*
X888547Y767500D01*
X890337D01*
X891991Y768185D01*
X893257Y769451D01*
X893942Y771105D01*
Y772895D01*
X893257Y774549D01*
X892150Y775656D01*
X892282Y776406D01*
X892539Y776926D01*
X911727D01*
X932826Y755826D01*
X932826Y755826D01*
X933824Y755160D01*
X935000Y754926D01*
X989413D01*
X989413Y754926D01*
X990589Y755160D01*
X991587Y755826D01*
X992260Y756500D01*
X993895D01*
X995549Y757185D01*
X996815Y758451D01*
X997500Y760105D01*
Y761895D01*
X996815Y763549D01*
X995549Y764815D01*
X993895Y765500D01*
X992105D01*
X990451Y764815D01*
X989185Y763549D01*
X988500Y761895D01*
Y761639D01*
X988491Y761606D01*
X988470Y761547D01*
X988443Y761484D01*
X988406Y761413D01*
X988359Y761334D01*
X988315Y761270D01*
X988223Y761158D01*
X988139Y761074D01*
X936273D01*
X915174Y782174D01*
X914176Y782840D01*
X913000Y783074D01*
X913000Y783074D01*
X892676D01*
X892150Y784344D01*
X892257Y784451D01*
X892942Y786105D01*
Y787895D01*
X892257Y789549D01*
X890991Y790815D01*
X889337Y791500D01*
D02*
G37*
G36*
X1125496Y732670D02*
X1123507D01*
X1121670Y731909D01*
X1120263Y730502D01*
X1119502Y728664D01*
Y726675D01*
X1120263Y724838D01*
X1121670Y723431D01*
X1123507Y722670D01*
X1125496D01*
X1127334Y723431D01*
X1128741Y724838D01*
X1129502Y726675D01*
Y728664D01*
X1128741Y730502D01*
X1127334Y731909D01*
X1125496Y732670D01*
D02*
G37*
G36*
Y720170D02*
X1123507D01*
X1121670Y719409D01*
X1120263Y718002D01*
X1119502Y716164D01*
Y714175D01*
X1120263Y712338D01*
X1121670Y710931D01*
X1123507Y710170D01*
X1125496D01*
X1127334Y710931D01*
X1128741Y712338D01*
X1129502Y714175D01*
Y716164D01*
X1128741Y718002D01*
X1127334Y719409D01*
X1125496Y720170D01*
D02*
G37*
G36*
X1112996D02*
X1111007D01*
X1109170Y719409D01*
X1107763Y718002D01*
X1107002Y716164D01*
Y714175D01*
X1107763Y712338D01*
X1109170Y710931D01*
X1111007Y710170D01*
X1112996D01*
X1114834Y710931D01*
X1116241Y712338D01*
X1117002Y714175D01*
Y716164D01*
X1116241Y718002D01*
X1114834Y719409D01*
X1112996Y720170D01*
D02*
G37*
G36*
X1008096Y713170D02*
X1005908D01*
X1003886Y712333D01*
X1002339Y710785D01*
X1001502Y708764D01*
Y706576D01*
X1001507Y706562D01*
X1000610Y705664D01*
X1000596Y705670D01*
X998408D01*
X996386Y704833D01*
X994839Y703285D01*
X994002Y701264D01*
Y699076D01*
X994839Y697055D01*
X996386Y695507D01*
X998408Y694670D01*
X1000596D01*
X1000946Y694815D01*
X1002002Y694109D01*
Y693076D01*
X1002839Y691055D01*
X1004386Y689507D01*
X1006408Y688670D01*
X1008596D01*
X1010617Y689507D01*
X1012165Y691055D01*
X1013002Y693076D01*
Y695264D01*
X1012165Y697285D01*
X1010617Y698833D01*
X1008596Y699670D01*
X1006408D01*
X1006283Y699618D01*
X1005191Y700318D01*
X1005133Y701221D01*
X1006052Y702170D01*
X1008096D01*
X1010117Y703007D01*
X1011665Y704555D01*
X1012502Y706576D01*
Y708764D01*
X1011665Y710785D01*
X1010117Y712333D01*
X1008096Y713170D01*
D02*
G37*
G36*
X1125496Y690170D02*
X1123507D01*
X1121670Y689409D01*
X1120263Y688002D01*
X1119502Y686164D01*
Y684175D01*
X1120263Y682338D01*
X1121670Y680931D01*
X1123507Y680170D01*
X1125496D01*
X1127334Y680931D01*
X1128741Y682338D01*
X1129502Y684175D01*
Y686164D01*
X1128741Y688002D01*
X1127334Y689409D01*
X1125496Y690170D01*
D02*
G37*
G36*
X552000Y675982D02*
Y669200D01*
X558782D01*
X558387Y670674D01*
X557202Y672726D01*
X555526Y674402D01*
X553474Y675587D01*
X552000Y675982D01*
D02*
G37*
G36*
X548000D02*
X546526Y675587D01*
X544474Y674402D01*
X542798Y672726D01*
X541613Y670674D01*
X541218Y669200D01*
X548000D01*
Y675982D01*
D02*
G37*
G36*
X1125496Y677670D02*
X1123507D01*
X1121670Y676909D01*
X1120263Y675502D01*
X1119502Y673664D01*
Y671675D01*
X1120263Y669838D01*
X1121670Y668431D01*
X1123507Y667670D01*
X1125496D01*
X1127334Y668431D01*
X1128741Y669838D01*
X1129502Y671675D01*
Y673664D01*
X1128741Y675502D01*
X1127334Y676909D01*
X1125496Y677670D01*
D02*
G37*
G36*
X1112996D02*
X1111007D01*
X1109170Y676909D01*
X1107763Y675502D01*
X1107002Y673664D01*
Y671675D01*
X1107763Y669838D01*
X1109170Y668431D01*
X1111007Y667670D01*
X1112996D01*
X1114834Y668431D01*
X1116241Y669838D01*
X1117002Y671675D01*
Y673664D01*
X1116241Y675502D01*
X1114834Y676909D01*
X1112996Y677670D01*
D02*
G37*
G36*
X1016094Y663500D02*
X1013906D01*
X1011885Y662663D01*
X1010337Y661115D01*
X1009500Y659094D01*
Y656906D01*
X1010337Y654884D01*
X1011885Y653337D01*
X1013906Y652500D01*
X1016094D01*
X1018115Y653337D01*
X1019663Y654884D01*
X1020500Y656906D01*
Y659094D01*
X1019663Y661115D01*
X1018115Y662663D01*
X1016094Y663500D01*
D02*
G37*
G36*
X1005094Y671500D02*
X1002906D01*
X1000884Y670663D01*
X999337Y669116D01*
X998500Y667094D01*
Y664906D01*
X998645Y664556D01*
X997939Y663500D01*
X996906D01*
X994884Y662663D01*
X993337Y661115D01*
X992500Y659094D01*
Y656906D01*
X993337Y654884D01*
X994884Y653337D01*
X996906Y652500D01*
X999094D01*
X1001115Y653337D01*
X1002663Y654884D01*
X1003500Y656906D01*
Y659094D01*
X1003355Y659444D01*
X1004061Y660500D01*
X1005094D01*
X1007115Y661337D01*
X1008663Y662885D01*
X1009500Y664906D01*
Y667094D01*
X1008663Y669116D01*
X1007115Y670663D01*
X1005094Y671500D01*
D02*
G37*
G36*
X755837Y632000D02*
X754047D01*
X752393Y631315D01*
X751127Y630049D01*
X750442Y628395D01*
Y626605D01*
X751127Y624951D01*
X752393Y623685D01*
X754047Y623000D01*
X755837D01*
X757491Y623685D01*
X758757Y624951D01*
X759442Y626605D01*
Y628395D01*
X758757Y630049D01*
X757491Y631315D01*
X755837Y632000D01*
D02*
G37*
G36*
X724337Y630500D02*
X722547D01*
X720893Y629815D01*
X719627Y628549D01*
X718942Y626895D01*
Y625105D01*
X719627Y623451D01*
X720893Y622185D01*
X722547Y621500D01*
X724337D01*
X725991Y622185D01*
X727257Y623451D01*
X727942Y625105D01*
Y626895D01*
X727257Y628549D01*
X725991Y629815D01*
X724337Y630500D01*
D02*
G37*
G36*
X863000Y688588D02*
X862557Y688500D01*
X862105D01*
X861687Y688327D01*
X861244Y688239D01*
X860868Y687988D01*
X860451Y687815D01*
X860131Y687495D01*
X859756Y687244D01*
X859505Y686869D01*
X859185Y686549D01*
X859012Y686132D01*
X858761Y685756D01*
X858673Y685312D01*
X858500Y684895D01*
Y684443D01*
X858412Y684000D01*
X858500Y683557D01*
Y683105D01*
X858673Y682687D01*
X858761Y682244D01*
X859012Y681868D01*
X859185Y681451D01*
X859505Y681131D01*
X859756Y680756D01*
X926564Y613947D01*
X928053Y612952D01*
X929809Y612603D01*
X935030D01*
X935122Y612621D01*
X935961Y612732D01*
X936448Y612708D01*
X948178Y614462D01*
X948283Y614500D01*
X948395D01*
X949122Y614801D01*
X949863Y615067D01*
X949946Y615142D01*
X950049Y615185D01*
X950605Y615742D01*
X951188Y616271D01*
X951236Y616372D01*
X951315Y616451D01*
X951616Y617178D01*
X951952Y617890D01*
X951957Y618002D01*
X952000Y618105D01*
Y618892D01*
X952038Y619678D01*
X952000Y619784D01*
Y619895D01*
X951699Y620622D01*
X951433Y621363D01*
X951358Y621446D01*
X951315Y621549D01*
X950759Y622105D01*
X950229Y622688D01*
X950128Y622736D01*
X950049Y622815D01*
X949322Y623116D01*
X948610Y623452D01*
X948498Y623457D01*
X948395Y623500D01*
X947608D01*
X946822Y623538D01*
X935091Y621784D01*
X935087Y621811D01*
X935030Y621787D01*
X933763Y621779D01*
X931709D01*
X866244Y687244D01*
X865869Y687495D01*
X865549Y687815D01*
X865132Y687988D01*
X864756Y688239D01*
X864313Y688327D01*
X863895Y688500D01*
X863443D01*
X863000Y688588D01*
D02*
G37*
G36*
X815544Y617500D02*
X813754D01*
X812100Y616815D01*
X810834Y615549D01*
X810149Y613895D01*
Y612105D01*
X810834Y610451D01*
X812100Y609185D01*
X813754Y608500D01*
X815544D01*
X817198Y609185D01*
X818464Y610451D01*
X819149Y612105D01*
Y613895D01*
X818464Y615549D01*
X817198Y616815D01*
X815544Y617500D01*
D02*
G37*
G36*
X800544D02*
X798754D01*
X797100Y616815D01*
X795834Y615549D01*
X795149Y613895D01*
Y612105D01*
X795834Y610451D01*
X797100Y609185D01*
X798754Y608500D01*
X800544D01*
X802198Y609185D01*
X803464Y610451D01*
X804149Y612105D01*
Y613895D01*
X803464Y615549D01*
X802198Y616815D01*
X800544Y617500D01*
D02*
G37*
G36*
X705895Y612000D02*
X704105D01*
X702451Y611315D01*
X701185Y610049D01*
X700500Y608395D01*
Y608057D01*
X700431Y607978D01*
X695219Y602766D01*
X694446Y601608D01*
X694174Y600243D01*
Y597757D01*
X694446Y596392D01*
X695219Y595234D01*
X695500Y594953D01*
Y594105D01*
X696185Y592451D01*
X697451Y591185D01*
X699105Y590500D01*
X700895D01*
X702549Y591185D01*
X703815Y592451D01*
X704500Y594105D01*
Y595895D01*
X703815Y597549D01*
X702549Y598815D01*
X702352Y599805D01*
X705547Y603000D01*
X705895D01*
X707549Y603685D01*
X708815Y604951D01*
X709500Y606605D01*
Y608395D01*
X708815Y610049D01*
X707549Y611315D01*
X705895Y612000D01*
D02*
G37*
G36*
X656895Y594500D02*
X655105D01*
X653451Y593815D01*
X652185Y592549D01*
X651500Y590895D01*
Y589105D01*
X652185Y587451D01*
X653451Y586185D01*
X655105Y585500D01*
X656895D01*
X658549Y586185D01*
X659815Y587451D01*
X660500Y589105D01*
Y590895D01*
X659815Y592549D01*
X658549Y593815D01*
X656895Y594500D01*
D02*
G37*
G36*
X1118073Y615975D02*
X1116441D01*
X1114934Y615351D01*
X1113781Y614197D01*
X1113157Y612691D01*
Y612273D01*
X1112815Y611100D01*
X1111184D01*
X1109678Y610476D01*
X1108524Y609323D01*
X1107900Y607816D01*
Y606673D01*
X1107898Y606183D01*
X1106809Y605500D01*
X1106105D01*
X1104451Y604815D01*
X1103185Y603549D01*
X1102500Y601895D01*
Y600105D01*
X1103185Y598451D01*
X1104451Y597185D01*
X1106105Y596500D01*
X1107895D01*
X1109549Y597185D01*
X1110815Y598451D01*
X1111500Y600105D01*
Y601895D01*
X1112458Y602900D01*
X1112816D01*
X1113518Y603191D01*
X1114699Y602312D01*
Y599375D01*
X1114698Y599375D01*
X1114699Y599375D01*
Y595774D01*
X1100141Y581217D01*
X1096309D01*
X1096209Y581258D01*
X1095976Y581822D01*
X1094822Y582976D01*
X1093316Y583600D01*
X1091684D01*
X1090178Y582976D01*
X1089024Y581822D01*
X1088400Y580316D01*
Y578684D01*
X1089024Y577178D01*
X1089502Y576700D01*
X1089024Y576222D01*
X1088400Y574715D01*
Y573084D01*
X1089024Y571577D01*
X1090178Y570424D01*
X1091684Y569800D01*
X1093316D01*
X1094822Y570424D01*
X1095976Y571577D01*
X1096023Y571691D01*
X1099992D01*
X1100872Y571691D01*
X1101367Y571790D01*
X1101866Y571857D01*
X1102741Y572124D01*
Y572124D01*
X1104740Y572952D01*
X1106439Y574255D01*
X1106439Y574255D01*
Y574255D01*
X1107327Y575155D01*
X1107480Y575308D01*
X1107480Y575308D01*
X1120739Y588567D01*
X1121645Y589456D01*
X1121645Y589456D01*
X1122964Y591175D01*
X1123795Y593182D01*
X1124079Y595336D01*
X1124066D01*
Y603414D01*
X1124079D01*
X1123795Y605568D01*
X1122964Y607575D01*
X1121650Y609286D01*
X1121650Y609286D01*
X1121045Y610306D01*
X1121357Y611059D01*
Y612691D01*
X1120733Y614197D01*
X1119579Y615351D01*
X1118073Y615975D01*
D02*
G37*
G36*
X963895Y580500D02*
X962105D01*
X960451Y579815D01*
X959185Y578549D01*
X958500Y576895D01*
Y575105D01*
X959185Y573451D01*
X960451Y572185D01*
X962105Y571500D01*
X963895D01*
X965549Y572185D01*
X966815Y573451D01*
X967500Y575105D01*
Y576895D01*
X966815Y578549D01*
X965549Y579815D01*
X963895Y580500D01*
D02*
G37*
G36*
X1035895Y572500D02*
X1034105D01*
X1032451Y571815D01*
X1031185Y570549D01*
X1030500Y568895D01*
Y567105D01*
X1031185Y565451D01*
X1032451Y564185D01*
X1034105Y563500D01*
X1035895D01*
X1037549Y564185D01*
X1038815Y565451D01*
X1039500Y567105D01*
Y568895D01*
X1038815Y570549D01*
X1037549Y571815D01*
X1035895Y572500D01*
D02*
G37*
G36*
X1002895Y582500D02*
X1001105D01*
X999451Y581815D01*
X998185Y580549D01*
X997500Y578895D01*
Y577105D01*
X998185Y575451D01*
X999451Y574185D01*
X1001105Y573500D01*
X1001362D01*
X1001425Y573443D01*
X1022417Y551537D01*
X1022456Y551510D01*
X1022482Y551471D01*
X1024477Y549477D01*
X1024477Y549477D01*
X1025634Y548703D01*
X1027000Y548431D01*
X1038000D01*
X1039366Y548703D01*
X1040523Y549477D01*
X1045547Y554500D01*
X1045895D01*
X1047549Y555185D01*
X1048815Y556451D01*
X1049500Y558105D01*
Y559895D01*
X1048815Y561549D01*
X1047549Y562815D01*
X1045895Y563500D01*
X1044105D01*
X1042451Y562815D01*
X1041185Y561549D01*
X1040500Y559895D01*
Y559557D01*
X1040431Y559478D01*
X1036522Y555569D01*
X1028541D01*
X1028078Y556034D01*
X1027628Y556569D01*
X1027627Y556572D01*
X1026697Y557387D01*
X1006500Y578462D01*
Y578895D01*
X1005815Y580549D01*
X1004549Y581815D01*
X1002895Y582500D01*
D02*
G37*
G36*
X938395Y582000D02*
X936605D01*
X934951Y581315D01*
X933685Y580049D01*
X933000Y578395D01*
Y576605D01*
X933685Y574951D01*
X934951Y573685D01*
X936605Y573000D01*
X938395D01*
X940049Y573685D01*
X940288Y573924D01*
X940393Y573931D01*
X941022D01*
X969747Y545206D01*
X969891Y545110D01*
X969957Y544951D01*
X971223Y543685D01*
X972877Y543000D01*
X974667D01*
X976321Y543685D01*
X977587Y544951D01*
X978272Y546605D01*
Y548395D01*
X977587Y550049D01*
X976321Y551315D01*
X974667Y552000D01*
X973047D01*
X945023Y580023D01*
X943866Y580797D01*
X942500Y581069D01*
X940295D01*
X940049Y581315D01*
X938395Y582000D01*
D02*
G37*
G36*
X848895Y547500D02*
X847105D01*
X845451Y546815D01*
X844185Y545549D01*
X843500Y543895D01*
Y542105D01*
X844185Y540451D01*
X845451Y539185D01*
X847105Y538500D01*
X848895D01*
X850549Y539185D01*
X851815Y540451D01*
X852500Y542105D01*
Y543895D01*
X851815Y545549D01*
X850549Y546815D01*
X848895Y547500D01*
D02*
G37*
G36*
X1041895Y544500D02*
X1040105D01*
X1038451Y543815D01*
X1037185Y542549D01*
X1036500Y540895D01*
Y539105D01*
X1037185Y537451D01*
X1038451Y536185D01*
X1040105Y535500D01*
X1041895D01*
X1043549Y536185D01*
X1044815Y537451D01*
X1045500Y539105D01*
Y540895D01*
X1044815Y542549D01*
X1043549Y543815D01*
X1041895Y544500D01*
D02*
G37*
G36*
X865895Y591500D02*
X864105D01*
X862451Y590815D01*
X861185Y589549D01*
X860500Y587895D01*
Y586105D01*
X861185Y584451D01*
X861494Y584142D01*
X861502Y584021D01*
Y541449D01*
X859597Y539543D01*
X859546Y539500D01*
X859105D01*
X857451Y538815D01*
X856185Y537549D01*
X855500Y535895D01*
Y534105D01*
X856185Y532451D01*
X857451Y531185D01*
X859105Y530500D01*
X860895D01*
X862549Y531185D01*
X863815Y532451D01*
X864500Y534105D01*
Y534542D01*
X864579Y534633D01*
X867473Y537527D01*
X868231Y538661D01*
X868497Y540000D01*
Y584073D01*
X868503Y584139D01*
X868815Y584451D01*
X869500Y586105D01*
Y587895D01*
X868815Y589549D01*
X867549Y590815D01*
X865895Y591500D01*
D02*
G37*
G36*
X1041895Y530500D02*
X1040105D01*
X1038451Y529815D01*
X1037185Y528549D01*
X1036500Y526895D01*
Y525105D01*
X1037185Y523451D01*
X1038451Y522185D01*
X1040105Y521500D01*
X1041895D01*
X1043549Y522185D01*
X1044815Y523451D01*
X1045500Y525105D01*
Y526895D01*
X1044815Y528549D01*
X1043549Y529815D01*
X1041895Y530500D01*
D02*
G37*
G36*
X1028895Y522500D02*
X1027105D01*
X1025451Y521815D01*
X1024185Y520549D01*
X1023500Y518895D01*
Y517105D01*
X1024185Y515451D01*
X1025451Y514185D01*
X1027105Y513500D01*
X1028895D01*
X1030549Y514185D01*
X1031815Y515451D01*
X1032500Y517105D01*
Y518895D01*
X1031815Y520549D01*
X1030549Y521815D01*
X1028895Y522500D01*
D02*
G37*
G36*
X912895Y580500D02*
X911105D01*
X909451Y579815D01*
X908185Y578549D01*
X907500Y576895D01*
Y576458D01*
X907421Y576367D01*
X898527Y567473D01*
X897769Y566338D01*
X897502Y565000D01*
Y524000D01*
X897769Y522662D01*
X898527Y521527D01*
X904118Y515936D01*
X905252Y515178D01*
X906591Y514912D01*
X906724D01*
X907451Y514185D01*
X909105Y513500D01*
X910895D01*
X912549Y514185D01*
X913815Y515451D01*
X914500Y517105D01*
Y518895D01*
X913815Y520549D01*
X912549Y521815D01*
X910895Y522500D01*
X909105D01*
X907932Y522014D01*
X904498Y525449D01*
Y563551D01*
X912403Y571457D01*
X912454Y571500D01*
X912895D01*
X914549Y572185D01*
X915815Y573451D01*
X916500Y575105D01*
Y576895D01*
X915815Y578549D01*
X914549Y579815D01*
X912895Y580500D01*
D02*
G37*
G36*
X913395Y562000D02*
X911605D01*
X909951Y561315D01*
X908685Y560049D01*
X908000Y558395D01*
Y556605D01*
X908685Y554951D01*
X909002Y554633D01*
Y538685D01*
X908946D01*
X909435Y536230D01*
X910814Y534167D01*
X910844Y534197D01*
X910858Y534196D01*
X929695Y515358D01*
X929697Y515344D01*
X929667Y515314D01*
X931730Y513935D01*
X934185Y513447D01*
Y513503D01*
X974134D01*
X974451Y513185D01*
X976105Y512500D01*
X977895D01*
X979549Y513185D01*
X980815Y514451D01*
X981500Y516105D01*
Y517895D01*
X980815Y519549D01*
X979549Y520815D01*
X977895Y521500D01*
X976105D01*
X974451Y520815D01*
X974134Y520498D01*
X934468D01*
X934435Y520511D01*
X916011Y538935D01*
X915997Y538968D01*
Y554633D01*
X916315Y554951D01*
X917000Y556605D01*
Y558395D01*
X916315Y560049D01*
X915049Y561315D01*
X913395Y562000D01*
D02*
G37*
G36*
X1041895Y516500D02*
X1040105D01*
X1038451Y515815D01*
X1037185Y514549D01*
X1036500Y512895D01*
Y511105D01*
X1037185Y509451D01*
X1038451Y508185D01*
X1040105Y507500D01*
X1041895D01*
X1043549Y508185D01*
X1044815Y509451D01*
X1045500Y511105D01*
Y512895D01*
X1044815Y514549D01*
X1043549Y515815D01*
X1041895Y516500D01*
D02*
G37*
G36*
X778395Y502000D02*
X776605D01*
X774951Y501315D01*
X774642Y501006D01*
X774521Y500998D01*
X715427D01*
X715361Y501003D01*
X715049Y501315D01*
X713395Y502000D01*
X711605D01*
X709951Y501315D01*
X708685Y500049D01*
X708000Y498395D01*
Y496605D01*
X708685Y494951D01*
X709951Y493685D01*
X711605Y493000D01*
X713395D01*
X715049Y493685D01*
X715358Y493994D01*
X715479Y494002D01*
X774573D01*
X774639Y493997D01*
X774951Y493685D01*
X776605Y493000D01*
X778395D01*
X780049Y493685D01*
X781315Y494951D01*
X782000Y496605D01*
Y498395D01*
X781315Y500049D01*
X780049Y501315D01*
X778395Y502000D01*
D02*
G37*
G36*
X938895Y549500D02*
X937105D01*
X935451Y548815D01*
X934185Y547549D01*
X933500Y545895D01*
Y544105D01*
X934185Y542451D01*
X935451Y541185D01*
X937105Y540500D01*
X937453D01*
X942714Y535239D01*
X943596Y534357D01*
X943596Y534357D01*
X943599Y534354D01*
X943603Y534351D01*
X943604Y534349D01*
X943613Y534343D01*
X943614Y534344D01*
X943765Y534243D01*
X944965Y533322D01*
X946546Y532667D01*
X948057Y532468D01*
X948243Y532431D01*
X967271D01*
X967797Y531161D01*
X967185Y530549D01*
X966500Y528895D01*
Y527105D01*
X967185Y525451D01*
X968451Y524185D01*
X970105Y523500D01*
X971895D01*
X973549Y524185D01*
X974815Y525451D01*
X975500Y527105D01*
Y528657D01*
X976168Y529114D01*
X976673Y529280D01*
X987554Y518399D01*
X988359Y517450D01*
X988367Y517430D01*
X989296Y516606D01*
X1003000Y502071D01*
Y501605D01*
X1003685Y499951D01*
X1004951Y498685D01*
X1006605Y498000D01*
X1008395D01*
X1010049Y498685D01*
X1011315Y499951D01*
X1012000Y501605D01*
Y503395D01*
X1011315Y505049D01*
X1010049Y506315D01*
X1008395Y507000D01*
X1008169D01*
X1008112Y507053D01*
X993626Y522416D01*
X993546Y522473D01*
X993492Y522555D01*
X978402Y537645D01*
X978244Y537750D01*
X977035Y538678D01*
X975454Y539333D01*
X973943Y539532D01*
X973757Y539569D01*
X948508D01*
X948457Y539590D01*
X942500Y545547D01*
Y545895D01*
X941815Y547549D01*
X940549Y548815D01*
X938895Y549500D01*
D02*
G37*
G36*
X1041895Y502500D02*
X1040105D01*
X1038451Y501815D01*
X1037185Y500549D01*
X1036500Y498895D01*
Y497105D01*
X1037185Y495451D01*
X1038451Y494185D01*
X1040105Y493500D01*
X1041895D01*
X1043549Y494185D01*
X1044815Y495451D01*
X1045500Y497105D01*
Y498895D01*
X1044815Y500549D01*
X1043549Y501815D01*
X1041895Y502500D01*
D02*
G37*
G36*
X980895Y497000D02*
X979105D01*
X977451Y496315D01*
X976185Y495049D01*
X975611Y493663D01*
X975466Y493498D01*
X937927D01*
X937861Y493503D01*
X937549Y493815D01*
X935895Y494500D01*
X934105D01*
X932451Y493815D01*
X931185Y492549D01*
X930500Y490895D01*
Y489105D01*
X931185Y487451D01*
X932451Y486185D01*
X934105Y485500D01*
X935895D01*
X937549Y486185D01*
X937858Y486494D01*
X937979Y486502D01*
X976921D01*
X978260Y486769D01*
X979394Y487527D01*
X979867Y488000D01*
X980895D01*
X982549Y488685D01*
X983815Y489951D01*
X984500Y491605D01*
Y493395D01*
X983815Y495049D01*
X982549Y496315D01*
X980895Y497000D01*
D02*
G37*
G36*
X846395Y501500D02*
X844605D01*
X842951Y500815D01*
X841685Y499549D01*
X841000Y497895D01*
Y496105D01*
X841685Y494451D01*
X842951Y493185D01*
X844605Y492500D01*
X846395D01*
X848049Y493185D01*
X849315Y494451D01*
X850000Y496105D01*
Y497895D01*
X849315Y499549D01*
X848049Y500815D01*
X846395Y501500D01*
D02*
G37*
G36*
X997400Y484280D02*
Y472400D01*
X1009280D01*
X1008376Y475775D01*
X1006543Y478950D01*
X1003950Y481543D01*
X1000775Y483376D01*
X997400Y484280D01*
D02*
G37*
G36*
X946600D02*
Y472400D01*
X958480D01*
X957576Y475775D01*
X955743Y478950D01*
X953150Y481543D01*
X949975Y483376D01*
X946600Y484280D01*
D02*
G37*
G36*
X993400D02*
X990025Y483376D01*
X986850Y481543D01*
X984257Y478950D01*
X982424Y475775D01*
X981520Y472400D01*
X993400D01*
Y484280D01*
D02*
G37*
G36*
X942600D02*
X939225Y483376D01*
X936050Y481543D01*
X933457Y478950D01*
X931624Y475775D01*
X930720Y472400D01*
X942600D01*
Y484280D01*
D02*
G37*
G36*
X872400D02*
Y472400D01*
X884280D01*
X883376Y475775D01*
X881543Y478950D01*
X878950Y481543D01*
X875775Y483376D01*
X872400Y484280D01*
D02*
G37*
G36*
X821600D02*
Y472400D01*
X833480D01*
X832576Y475775D01*
X830743Y478950D01*
X828150Y481543D01*
X824975Y483376D01*
X821600Y484280D01*
D02*
G37*
G36*
X868400D02*
X865025Y483376D01*
X861850Y481543D01*
X859257Y478950D01*
X857424Y475775D01*
X856520Y472400D01*
X868400D01*
Y484280D01*
D02*
G37*
G36*
X817600D02*
X814225Y483376D01*
X811050Y481543D01*
X808457Y478950D01*
X806624Y475775D01*
X805720Y472400D01*
X817600D01*
Y484280D01*
D02*
G37*
G36*
X760000Y489588D02*
X759557Y489500D01*
X759105D01*
X758688Y489327D01*
X758244Y489239D01*
X757868Y488988D01*
X757451Y488815D01*
X757132Y488495D01*
X756756Y488244D01*
X756505Y487868D01*
X756185Y487549D01*
X756012Y487132D01*
X755761Y486756D01*
X755673Y486312D01*
X755500Y485895D01*
Y485443D01*
X755412Y485000D01*
X755500Y484557D01*
Y484105D01*
X755673Y483688D01*
X755761Y483244D01*
X756012Y482868D01*
X756185Y482451D01*
X756412Y482224D01*
Y462000D01*
X756500Y461557D01*
Y461105D01*
X756673Y460687D01*
X756761Y460244D01*
X757012Y459868D01*
X757185Y459451D01*
X757505Y459131D01*
X757756Y458756D01*
X758131Y458505D01*
X758451Y458185D01*
X758868Y458012D01*
X759244Y457761D01*
X759687Y457673D01*
X760105Y457500D01*
X760557D01*
X761000Y457412D01*
X761443Y457500D01*
X761895D01*
X762312Y457673D01*
X762756Y457761D01*
X763131Y458012D01*
X763549Y458185D01*
X763868Y458505D01*
X764244Y458756D01*
X764495Y459131D01*
X764815Y459451D01*
X764988Y459868D01*
X765239Y460244D01*
X765327Y460687D01*
X765500Y461105D01*
Y461557D01*
X765588Y462000D01*
Y484000D01*
X765239Y485756D01*
X764244Y487244D01*
X763244Y488244D01*
X762869Y488495D01*
X762549Y488815D01*
X762132Y488988D01*
X761756Y489239D01*
X761312Y489327D01*
X760895Y489500D01*
X760443D01*
X760000Y489588D01*
D02*
G37*
G36*
X993400Y468400D02*
X981520D01*
X982424Y465025D01*
X984257Y461850D01*
X986850Y459257D01*
X990025Y457424D01*
X993400Y456520D01*
Y468400D01*
D02*
G37*
G36*
X942600D02*
X930720D01*
X931624Y465025D01*
X933457Y461850D01*
X936050Y459257D01*
X939225Y457424D01*
X942600Y456520D01*
Y468400D01*
D02*
G37*
G36*
X884280Y468400D02*
X872400D01*
Y456520D01*
X875775Y457424D01*
X878950Y459257D01*
X881543Y461850D01*
X883376Y465025D01*
X884280Y468400D01*
D02*
G37*
G36*
X833480D02*
X821600D01*
Y456520D01*
X824975Y457424D01*
X828150Y459257D01*
X830743Y461850D01*
X832576Y465025D01*
X833480Y468400D01*
D02*
G37*
G36*
X868400D02*
X856520D01*
X857424Y465025D01*
X859257Y461850D01*
X861850Y459257D01*
X865025Y457424D01*
X868400Y456520D01*
Y468400D01*
D02*
G37*
G36*
X817600D02*
X805720D01*
X806624Y465025D01*
X808457Y461850D01*
X811050Y459257D01*
X814225Y457424D01*
X817600Y456520D01*
Y468400D01*
D02*
G37*
G36*
X1009280Y468400D02*
X997400D01*
Y456520D01*
X1000775Y457424D01*
X1003950Y459257D01*
X1006543Y461850D01*
X1008376Y465025D01*
X1009280Y468400D01*
D02*
G37*
G36*
X958480D02*
X946600D01*
Y456520D01*
X949975Y457424D01*
X953150Y459257D01*
X955743Y461850D01*
X957576Y465025D01*
X958480Y468400D01*
D02*
G37*
G36*
X617500Y461500D02*
X610000D01*
Y454000D01*
X617500D01*
Y461500D01*
D02*
G37*
G36*
X606000D02*
X598500D01*
Y454000D01*
X606000D01*
Y461500D01*
D02*
G37*
G36*
X617500Y450000D02*
X610000D01*
Y442500D01*
X617500D01*
Y450000D01*
D02*
G37*
G36*
X606000D02*
X598500D01*
Y442500D01*
X606000D01*
Y450000D01*
D02*
G37*
G36*
X971833Y458925D02*
X968167D01*
X964625Y457976D01*
X961450Y456143D01*
X958857Y453550D01*
X957024Y450375D01*
X956075Y446833D01*
Y443167D01*
X957024Y439625D01*
X958857Y436450D01*
X961450Y433857D01*
X964625Y432024D01*
X968167Y431075D01*
X971833D01*
X975375Y432024D01*
X978550Y433857D01*
X981143Y436450D01*
X982976Y439625D01*
X983925Y443167D01*
Y446833D01*
X982976Y450375D01*
X981143Y453550D01*
X978550Y456143D01*
X975375Y457976D01*
X971833Y458925D01*
D02*
G37*
G36*
X846833D02*
X843167D01*
X839625Y457976D01*
X836450Y456143D01*
X833857Y453550D01*
X832024Y450375D01*
X831075Y446833D01*
Y443167D01*
X832024Y439625D01*
X833857Y436450D01*
X836450Y433857D01*
X839625Y432024D01*
X843167Y431075D01*
X846833D01*
X850375Y432024D01*
X853550Y433857D01*
X856143Y436450D01*
X857976Y439625D01*
X858925Y443167D01*
Y446833D01*
X857976Y450375D01*
X856143Y453550D01*
X853550Y456143D01*
X850375Y457976D01*
X846833Y458925D01*
D02*
G37*
G36*
X997400Y433480D02*
Y421600D01*
X1009280D01*
X1008376Y424975D01*
X1006543Y428150D01*
X1003950Y430743D01*
X1000775Y432576D01*
X997400Y433480D01*
D02*
G37*
G36*
X946600D02*
Y421600D01*
X958480D01*
X957576Y424975D01*
X955743Y428150D01*
X953150Y430743D01*
X949975Y432576D01*
X946600Y433480D01*
D02*
G37*
G36*
X993400D02*
X990025Y432576D01*
X986850Y430743D01*
X984257Y428150D01*
X982424Y424975D01*
X981520Y421600D01*
X993400D01*
Y433480D01*
D02*
G37*
G36*
X942600D02*
X939225Y432576D01*
X936050Y430743D01*
X933457Y428150D01*
X931624Y424975D01*
X930720Y421600D01*
X942600D01*
Y433480D01*
D02*
G37*
G36*
X872400D02*
Y421600D01*
X884280D01*
X883376Y424975D01*
X881543Y428150D01*
X878950Y430743D01*
X875775Y432576D01*
X872400Y433480D01*
D02*
G37*
G36*
X821600D02*
Y421600D01*
X833480D01*
X832576Y424975D01*
X830743Y428150D01*
X828150Y430743D01*
X824975Y432576D01*
X821600Y433480D01*
D02*
G37*
G36*
X817600D02*
X814225Y432576D01*
X811050Y430743D01*
X808457Y428150D01*
X806624Y424975D01*
X805720Y421600D01*
X817600D01*
Y433480D01*
D02*
G37*
G36*
X868400D02*
X865025Y432576D01*
X861850Y430743D01*
X859257Y428150D01*
X857424Y424975D01*
X856520Y421600D01*
X868400D01*
Y433480D01*
D02*
G37*
G36*
X655895Y426500D02*
X654105D01*
X652451Y425815D01*
X651185Y424549D01*
X650500Y422895D01*
Y421105D01*
X651185Y419451D01*
X652451Y418185D01*
X654105Y417500D01*
X655895D01*
X657549Y418185D01*
X658815Y419451D01*
X659500Y421105D01*
Y422895D01*
X658815Y424549D01*
X657549Y425815D01*
X655895Y426500D01*
D02*
G37*
G36*
X884280Y417600D02*
X872400D01*
Y405720D01*
X875775Y406624D01*
X878950Y408457D01*
X881543Y411050D01*
X883376Y414225D01*
X884280Y417600D01*
D02*
G37*
G36*
X833480D02*
X821600D01*
Y405720D01*
X824975Y406624D01*
X828150Y408457D01*
X830743Y411050D01*
X832576Y414225D01*
X833480Y417600D01*
D02*
G37*
G36*
X958480Y417600D02*
X946600D01*
Y405720D01*
X949975Y406624D01*
X953150Y408457D01*
X955743Y411050D01*
X957576Y414225D01*
X958480Y417600D01*
D02*
G37*
G36*
X1009280D02*
X997400D01*
Y405720D01*
X1000775Y406624D01*
X1003950Y408457D01*
X1006543Y411050D01*
X1008376Y414225D01*
X1009280Y417600D01*
D02*
G37*
G36*
X993400D02*
X981520D01*
X982424Y414225D01*
X984257Y411050D01*
X986850Y408457D01*
X990025Y406624D01*
X993400Y405720D01*
Y417600D01*
D02*
G37*
G36*
X942600D02*
X930720D01*
X931624Y414225D01*
X933457Y411050D01*
X936050Y408457D01*
X939225Y406624D01*
X942600Y405720D01*
Y417600D01*
D02*
G37*
G36*
X817600Y417600D02*
X805720D01*
X806624Y414225D01*
X808457Y411050D01*
X811050Y408457D01*
X814225Y406624D01*
X817600Y405720D01*
Y417600D01*
D02*
G37*
G36*
X868400D02*
X856520D01*
X857424Y414225D01*
X859257Y411050D01*
X861850Y408457D01*
X865025Y406624D01*
X868400Y405720D01*
Y417600D01*
D02*
G37*
%LPD*%
G36*
X747896Y790827D02*
X747314Y790244D01*
X747063Y789869D01*
X746743Y789549D01*
X746570Y789132D01*
X746319Y788756D01*
X746231Y788313D01*
X746058Y787895D01*
Y787443D01*
X745970Y787000D01*
X746058Y786557D01*
Y786105D01*
X746231Y785687D01*
X746319Y785244D01*
X746570Y784868D01*
X746743Y784451D01*
X747063Y784131D01*
X747314Y783756D01*
X747690Y783505D01*
X748009Y783185D01*
X748426Y783012D01*
X748802Y782761D01*
X749246Y782673D01*
X749663Y782500D01*
X750115D01*
X750558Y782412D01*
X751001Y782500D01*
X751453D01*
X751871Y782673D01*
X752314Y782761D01*
X752690Y783012D01*
X753107Y783185D01*
X753427Y783505D01*
X753710Y783694D01*
X754081Y783797D01*
X755128Y783588D01*
X755185Y783451D01*
X756451Y782185D01*
X758105Y781500D01*
X759895D01*
X761549Y782185D01*
X762815Y783451D01*
X763500Y785105D01*
Y786895D01*
X763309Y787356D01*
X764015Y788412D01*
X777658D01*
X779314Y786756D01*
X780802Y785761D01*
X782558Y785412D01*
X790588D01*
X791000Y785000D01*
X791993D01*
X792328Y784134D01*
X792366Y783730D01*
X791185Y782549D01*
X790500Y780895D01*
Y779105D01*
X791185Y777451D01*
X792451Y776185D01*
X794105Y775500D01*
X795895D01*
X797549Y776185D01*
X797858Y776494D01*
X797979Y776503D01*
X811000D01*
Y770108D01*
X810983Y768842D01*
X810980Y768828D01*
X810980Y767574D01*
Y754937D01*
X811000Y754835D01*
Y732000D01*
X814531Y728469D01*
X814584Y728232D01*
X814473Y727356D01*
X814278Y726926D01*
X814009Y726815D01*
X813689Y726495D01*
X813314Y726244D01*
X813063Y725869D01*
X812743Y725549D01*
X812570Y725132D01*
X812319Y724756D01*
X812231Y724313D01*
X812058Y723895D01*
Y723443D01*
X811970Y723000D01*
X812058Y722557D01*
Y722105D01*
X812231Y721687D01*
X812319Y721244D01*
X812570Y720868D01*
X812743Y720451D01*
X813063Y720132D01*
X813314Y719756D01*
X814470Y718599D01*
Y687401D01*
X811663Y684593D01*
X810816Y684966D01*
X810500Y685227D01*
Y686895D01*
X809815Y688549D01*
X809322Y689042D01*
X809549Y690185D01*
X810815Y691451D01*
X811500Y693105D01*
Y694895D01*
X810815Y696549D01*
X809549Y697815D01*
X807895Y698500D01*
X806105D01*
X804451Y697815D01*
X803185Y696549D01*
X802500Y694895D01*
X802445Y694858D01*
X800895Y695500D01*
X799105D01*
X797451Y694815D01*
X796185Y693549D01*
X795500Y691895D01*
Y690105D01*
X796185Y688451D01*
X797451Y687185D01*
X799105Y686500D01*
X800895D01*
X801500Y686096D01*
Y685105D01*
X802185Y683451D01*
X803451Y682185D01*
X805105Y681500D01*
X806773D01*
X807034Y681184D01*
X807407Y680337D01*
X791658Y664588D01*
X776000D01*
Y667000D01*
X773182Y669818D01*
X773815Y670451D01*
X774500Y672105D01*
Y673895D01*
X773815Y675549D01*
X772549Y676815D01*
X771000Y677457D01*
Y697000D01*
X779243Y705244D01*
X779726Y704761D01*
X781563Y704000D01*
X783553D01*
X785390Y704761D01*
X786797Y706168D01*
X787558Y708006D01*
Y709995D01*
X786797Y711832D01*
X786315Y712315D01*
X791000Y717000D01*
Y752000D01*
X781000Y762000D01*
X736000D01*
X731000Y767000D01*
Y782500D01*
X731453D01*
X733107Y783185D01*
X734373Y784451D01*
X735058Y786105D01*
Y787895D01*
X734373Y789549D01*
X733961Y789961D01*
X736000Y792000D01*
X736000D01*
X736000Y792000D01*
X736000Y792000D01*
X747410D01*
X747896Y790827D01*
D02*
G37*
G36*
X796859Y781689D02*
X796956Y781635D01*
X797076Y781587D01*
X797218Y781545D01*
X797383Y781510D01*
X797571Y781481D01*
X798015Y781443D01*
X798550Y781430D01*
Y778570D01*
X798271Y778567D01*
X797571Y778519D01*
X797383Y778490D01*
X797218Y778455D01*
X797076Y778413D01*
X796956Y778365D01*
X796859Y778311D01*
X796785Y778250D01*
Y781750D01*
X796859Y781689D01*
D02*
G37*
G36*
X829003Y761051D02*
Y732983D01*
X827829Y732497D01*
X827113Y733213D01*
X826258Y734147D01*
X826256Y734153D01*
X825355Y735049D01*
X820983Y739818D01*
X820473Y741049D01*
X819207Y742315D01*
X817553Y743000D01*
X815763D01*
X814309Y742398D01*
X813039Y742904D01*
Y748030D01*
X814095Y748735D01*
X814663Y748500D01*
X816453D01*
X818107Y749185D01*
X819373Y750451D01*
X820058Y752105D01*
Y753895D01*
X819373Y755549D01*
X819136Y755786D01*
Y767964D01*
X819373Y768201D01*
X819573Y768684D01*
X821071Y768982D01*
X829003Y761051D01*
D02*
G37*
G36*
X703970Y727389D02*
Y714511D01*
X701347Y711888D01*
X701096Y711512D01*
X700777Y711193D01*
X700604Y710775D01*
X700352Y710399D01*
X700264Y709956D01*
X700091Y709539D01*
Y709087D01*
X700003Y708644D01*
Y689481D01*
X700352Y687726D01*
X701347Y686237D01*
X729333Y658252D01*
X728847Y657078D01*
X717689D01*
X701884Y672884D01*
X700561Y673768D01*
X699000Y674078D01*
X699000Y674078D01*
X686471D01*
X686089Y674237D01*
X682418Y677907D01*
X682500Y678105D01*
Y678174D01*
X688270Y683944D01*
X688270Y683944D01*
X688270Y683945D01*
X688270Y683945D01*
X688349Y684062D01*
X689546Y685622D01*
X690352Y687568D01*
X690609Y689519D01*
X690636Y689657D01*
X690637Y689657D01*
X690637Y689657D01*
X690636Y689657D01*
X690636Y690888D01*
X690636Y714087D01*
X690667Y715275D01*
X690684Y715315D01*
X691502Y716176D01*
X696795Y721469D01*
X696863Y721572D01*
X696902Y721622D01*
X697035Y721719D01*
X697537Y722265D01*
X698406Y723142D01*
X698407Y723142D01*
X698407Y723142D01*
X699177Y724126D01*
X702412Y727897D01*
X702700Y728017D01*
X703970Y727389D01*
D02*
G37*
G36*
X998700Y560827D02*
X999229Y560366D01*
X999383Y560253D01*
X999524Y560161D01*
X999654Y560090D01*
X999773Y560039D01*
X999880Y560009D01*
X999975Y560000D01*
X997500Y557525D01*
X997491Y557620D01*
X997461Y557727D01*
X997410Y557846D01*
X997339Y557976D01*
X997247Y558117D01*
X997134Y558270D01*
X996847Y558612D01*
X996478Y558999D01*
X998501Y561022D01*
X998700Y560827D01*
D02*
G37*
%LPC*%
G36*
X795895Y769500D02*
X794105D01*
X792451Y768815D01*
X791185Y767549D01*
X790500Y765895D01*
Y764105D01*
X791185Y762451D01*
X792451Y761185D01*
X794105Y760500D01*
X795895D01*
X797549Y761185D01*
X798815Y762451D01*
X799500Y764105D01*
Y765895D01*
X798815Y767549D01*
X797549Y768815D01*
X795895Y769500D01*
D02*
G37*
%LPD*%
G36*
X992560Y758539D02*
X992362Y758564D01*
X992165Y758566D01*
X991970Y758547D01*
X991777Y758506D01*
X991584Y758443D01*
X991394Y758358D01*
X991205Y758251D01*
X991018Y758122D01*
X990832Y757972D01*
X990647Y757799D01*
X989478Y759501D01*
X989650Y759681D01*
X989949Y760047D01*
X990076Y760233D01*
X990189Y760421D01*
X990287Y760611D01*
X990370Y760803D01*
X990438Y760997D01*
X990492Y761193D01*
X990531Y761391D01*
X992560Y758539D01*
D02*
G37*
G36*
X704975Y605000D02*
X704898Y604990D01*
X704807Y604960D01*
X704703Y604908D01*
X704585Y604836D01*
X704453Y604743D01*
X704147Y604494D01*
X703787Y604162D01*
X703586Y603965D01*
X701464Y606086D01*
X701662Y606287D01*
X702243Y606953D01*
X702336Y607085D01*
X702408Y607203D01*
X702460Y607307D01*
X702490Y607398D01*
X702500Y607475D01*
X704975Y605000D01*
D02*
G37*
G36*
X1115511Y607903D02*
X1114100Y606486D01*
X1114043Y606513D01*
X1113302Y608648D01*
X1115511Y607903D01*
D02*
G37*
G36*
X1093344Y575829D02*
X1093422Y575812D01*
X1093520Y575798D01*
X1093774Y575774D01*
X1094303Y575754D01*
X1094754Y575750D01*
X1095855Y573750D01*
X1095630Y573744D01*
X1095425Y573727D01*
X1095239Y573697D01*
X1095072Y573656D01*
X1094923Y573603D01*
X1094794Y573539D01*
X1094684Y573462D01*
X1094592Y573374D01*
X1094520Y573274D01*
X1094466Y573163D01*
X1093286Y575847D01*
X1093344Y575829D01*
D02*
G37*
G36*
X1004507Y577845D02*
X1004536Y577753D01*
X1004585Y577648D01*
X1004654Y577528D01*
X1004745Y577394D01*
X1004987Y577084D01*
X1005312Y576716D01*
X1005505Y576511D01*
X1003339Y574435D01*
X1003142Y574637D01*
X1002488Y575232D01*
X1002358Y575328D01*
X1002242Y575403D01*
X1002139Y575456D01*
X1002048Y575489D01*
X1001972Y575500D01*
X1004499Y577922D01*
X1004507Y577845D01*
D02*
G37*
G36*
X1044975Y556500D02*
X1044898Y556490D01*
X1044807Y556460D01*
X1044703Y556408D01*
X1044585Y556336D01*
X1044453Y556243D01*
X1044147Y555994D01*
X1043787Y555662D01*
X1043586Y555465D01*
X1041464Y557586D01*
X1041662Y557787D01*
X1042243Y558453D01*
X1042336Y558585D01*
X1042408Y558703D01*
X1042460Y558807D01*
X1042490Y558898D01*
X1042500Y558975D01*
X1044975Y556500D01*
D02*
G37*
G36*
X939347Y579202D02*
X939432Y579160D01*
X939542Y579123D01*
X939677Y579090D01*
X939837Y579062D01*
X940228Y579022D01*
X940718Y579002D01*
X941000Y579000D01*
Y576000D01*
X940718Y575998D01*
X939837Y575938D01*
X939677Y575910D01*
X939542Y575877D01*
X939432Y575840D01*
X939347Y575798D01*
X939285Y575750D01*
Y579250D01*
X939347Y579202D01*
D02*
G37*
G36*
X971620Y550506D02*
X972145Y550064D01*
X972294Y549965D01*
X972431Y549889D01*
X972555Y549837D01*
X972666Y549809D01*
X972764Y549804D01*
X972849Y549823D01*
X971430Y546624D01*
X969365Y548514D01*
X971420Y550701D01*
X971620Y550506D01*
D02*
G37*
G36*
X866689Y585141D02*
X866635Y585044D01*
X866587Y584924D01*
X866545Y584782D01*
X866510Y584617D01*
X866481Y584429D01*
X866443Y583985D01*
X866430Y583450D01*
X863570D01*
X863566Y583728D01*
X863519Y584429D01*
X863490Y584617D01*
X863455Y584782D01*
X863413Y584924D01*
X863365Y585044D01*
X863311Y585141D01*
X863250Y585215D01*
X866750D01*
X866689Y585141D01*
D02*
G37*
G36*
X863522Y536499D02*
X863327Y536300D01*
X862866Y535770D01*
X862753Y535617D01*
X862661Y535476D01*
X862590Y535346D01*
X862539Y535227D01*
X862509Y535120D01*
X862500Y535025D01*
X860025Y537500D01*
X860120Y537509D01*
X860227Y537539D01*
X860346Y537590D01*
X860476Y537661D01*
X860617Y537753D01*
X860770Y537866D01*
X861112Y538153D01*
X861499Y538522D01*
X863522Y536499D01*
D02*
G37*
G36*
X911975Y573500D02*
X911880Y573491D01*
X911773Y573461D01*
X911654Y573410D01*
X911524Y573339D01*
X911383Y573247D01*
X911229Y573134D01*
X910888Y572847D01*
X910501Y572478D01*
X908478Y574501D01*
X908673Y574700D01*
X909134Y575229D01*
X909247Y575383D01*
X909339Y575524D01*
X909410Y575654D01*
X909461Y575773D01*
X909491Y575880D01*
X909500Y575975D01*
X911975Y573500D01*
D02*
G37*
G36*
X775715Y495750D02*
X775641Y495811D01*
X775544Y495865D01*
X775424Y495913D01*
X775282Y495955D01*
X775117Y495990D01*
X774929Y496018D01*
X774485Y496057D01*
X773950Y496070D01*
X773950Y498930D01*
X774229Y498933D01*
X774929Y498981D01*
X775117Y499010D01*
X775282Y499045D01*
X775424Y499087D01*
X775544Y499135D01*
X775641Y499189D01*
X775715Y499250D01*
X775715Y495750D01*
D02*
G37*
G36*
X714359Y499189D02*
X714456Y499135D01*
X714576Y499087D01*
X714718Y499045D01*
X714883Y499010D01*
X715071Y498981D01*
X715515Y498943D01*
X716050Y498930D01*
Y496070D01*
X715771Y496067D01*
X715071Y496018D01*
X714883Y495990D01*
X714718Y495955D01*
X714576Y495913D01*
X714456Y495865D01*
X714359Y495811D01*
X714285Y495750D01*
Y499250D01*
X714359Y499189D01*
D02*
G37*
G36*
X1006385Y505872D02*
X1007034Y505272D01*
X1007163Y505175D01*
X1007279Y505099D01*
X1007382Y505045D01*
X1007472Y505011D01*
X1007549Y505000D01*
X1005002Y502598D01*
X1004995Y502676D01*
X1004967Y502767D01*
X1004918Y502873D01*
X1004849Y502993D01*
X1004760Y503128D01*
X1004520Y503441D01*
X1004199Y503811D01*
X1004008Y504017D01*
X1006190Y506076D01*
X1006385Y505872D01*
D02*
G37*
G36*
X979532Y490044D02*
X979435Y490051D01*
X979326Y490034D01*
X979206Y489996D01*
X979075Y489935D01*
X978932Y489853D01*
X978778Y489748D01*
X978613Y489620D01*
X978247Y489298D01*
X978048Y489104D01*
X976441Y491543D01*
X976641Y491745D01*
X977412Y492623D01*
X977469Y492715D01*
X977507Y492790D01*
X977525Y492850D01*
X979532Y490044D01*
D02*
G37*
G36*
X936859Y491689D02*
X936956Y491635D01*
X937076Y491587D01*
X937218Y491545D01*
X937383Y491510D01*
X937571Y491482D01*
X938015Y491443D01*
X938550Y491430D01*
Y488570D01*
X938271Y488567D01*
X937571Y488519D01*
X937383Y488490D01*
X937218Y488455D01*
X937076Y488413D01*
X936956Y488365D01*
X936859Y488311D01*
X936785Y488250D01*
Y491750D01*
X936859Y491689D01*
D02*
G37*
D12*
X1095102Y578333D02*
G03*
X1095920Y578158I818J1825D01*
G01*
X1100580D02*
G03*
X1101991Y578741I0J2000D01*
G01*
X1117757Y603414D02*
G03*
X1117174Y604826I-2000J-0D01*
G01*
Y593924D02*
G03*
X1117757Y595336I-1417J1412D01*
G01*
X1114806Y607194D02*
G03*
X1113394Y607778I-1412J-1417D01*
G01*
X654169Y512500D02*
G03*
X655586Y513086I2J2000D01*
G01*
X608011Y512550D02*
G03*
X607949Y512550I-11J-9750D01*
G01*
X598320Y512500D02*
G03*
X596914Y511914I8J-2000D01*
G01*
X1181294Y576122D02*
G03*
X1182706Y576706I0J2000D01*
G01*
X1181294Y572872D02*
G03*
X1184996Y574400I0J5250D01*
G01*
X1196726Y586130D02*
G03*
X1198250Y589828I-3726J3698D01*
G01*
X1194417Y588417D02*
G03*
X1195000Y589828I-1417J1412D01*
G01*
X1153836Y585164D02*
G03*
X1152422Y585750I-1414J-1414D01*
G01*
X1169606Y576601D02*
G03*
X1169967Y576669I-186J1991D01*
G01*
X1165412Y578184D02*
G03*
X1169553Y576596I3891J3954D01*
G01*
X1172333Y577359D02*
G03*
X1173000Y577700I-560J1920D01*
G01*
X1156123Y587473D02*
G03*
X1152421Y589000I-3701J-3724D01*
G01*
X1163151Y575849D02*
G03*
X1169721Y573351I6151J6289D01*
G01*
X1163124Y575876D02*
G03*
X1163151Y575849I6179J6262D01*
G01*
X1171522Y572334D02*
G03*
X1172677Y571773I1405J1424D01*
G01*
X1171084Y572772D02*
G03*
X1169721Y573351I-1408J-1421D01*
G01*
X1171085Y572771D02*
G03*
X1171084Y572772I-1409J-1419D01*
G01*
X1121007Y603414D02*
G03*
X1119476Y607120I-5250J0D01*
G01*
X1119472Y591626D02*
G03*
X1121007Y595336I-3715J3710D01*
G01*
X1117104Y609492D02*
G03*
X1116204Y610213I-3710J-3715D01*
G01*
X1177677Y592481D02*
G03*
X1183405Y593655I1974J4928D01*
G01*
X1176757Y593240D02*
G03*
X1177677Y592481I1674J1094D01*
G01*
X1183454Y589742D02*
G03*
X1185714Y591368I-3803J7668D01*
G01*
X587405Y670290D02*
G03*
X593845Y676730I0J6440D01*
G01*
X587075Y670290D02*
G03*
X587075Y665290I0J-2500D01*
G01*
X595060Y652410D02*
G03*
X595060Y665290I0J6440D01*
G01*
X582489Y652410D02*
G03*
X582489Y647410I0J-2500D01*
G01*
X593845Y640970D02*
G03*
X587405Y647410I-6440J0D01*
G01*
Y674230D02*
G03*
X589905Y676730I0J2500D01*
G01*
X587075Y674230D02*
G03*
X587075Y661350I0J-6440D01*
G01*
X595060Y656350D02*
G03*
X595060Y661350I0J2500D01*
G01*
X582489Y656350D02*
G03*
X582489Y643470I0J-6440D01*
G01*
X589905Y640970D02*
G03*
X587405Y643470I-2500J0D01*
G01*
X592116Y633293D02*
G03*
X593845Y637483I-4211J4190D01*
G01*
X558362Y602000D02*
G03*
X562552Y603730I0J5940D01*
G01*
X542828Y602000D02*
G03*
X541417Y601417I0J-2000D01*
G01*
X535784Y591582D02*
G03*
X537195Y591000I1410J1418D01*
G01*
X535523Y595523D02*
G03*
X534940Y594112I1417J-1412D01*
G01*
Y593255D02*
G03*
X535521Y591845I2000J0D01*
G01*
X589322Y636072D02*
G03*
X589905Y637483I-1417J1412D01*
G01*
X558362Y605940D02*
G03*
X559773Y606523I0J2000D01*
G01*
X542828Y605940D02*
G03*
X538638Y604211I0J-5940D01*
G01*
X532740Y598312D02*
G03*
X531000Y594112I4200J-4200D01*
G01*
X532635Y586335D02*
G03*
X532685Y589107I-1417J1412D01*
G01*
X531000Y593255D02*
G03*
X532584Y589216I5940J0D01*
G01*
X1177590Y587875D02*
G03*
X1176750Y587650I86J-1998D01*
G01*
X604173Y619495D02*
G03*
X604750Y620886I-1423J1405D01*
G01*
X608473Y752353D02*
G03*
X608790Y753210I-1667J1105D01*
G01*
X607090Y750336D02*
G03*
X607335Y750637I-1422J1407D01*
G01*
X1174399Y633197D02*
G03*
X1170697Y634725I-3702J-3722D01*
G01*
X606479Y749725D02*
G03*
X604750Y745535I4211J-4190D01*
G01*
X612750Y749250D02*
G03*
X611893Y748932I249J-1984D01*
G01*
X1172108Y630892D02*
G03*
X1170697Y631475I-1412J-1417D01*
G01*
X610172Y747792D02*
G03*
X609871Y747545I1110J-1664D01*
G01*
X609273Y746947D02*
G03*
X608690Y745535I1417J-1412D01*
G01*
X538000Y565304D02*
G03*
X540000Y563304I2000J0D01*
G01*
X546875D02*
G03*
X548287Y563887I0J2000D01*
G01*
X539591Y571591D02*
G03*
X538000Y567774I3823J-3834D01*
G01*
X544888Y576060D02*
G03*
X543477Y575477I0J-2000D01*
G01*
X563849Y576060D02*
G03*
X568040Y577789I0J5940D01*
G01*
X533477Y559477D02*
G03*
X534060Y560888I-1417J1412D01*
G01*
X536805Y574377D02*
G03*
X534060Y567767I6609J-6620D01*
G01*
X544888Y580000D02*
G03*
X540698Y578270I0J-5940D01*
G01*
X563849Y580000D02*
G03*
X565261Y580583I0J2000D01*
G01*
X1101944Y575088D02*
G03*
X1104278Y576432I-1364J5070D01*
G01*
X1179436Y587947D02*
G03*
X1180254Y588154I-71J1999D01*
G01*
X604172Y619494D02*
G03*
X604173Y619495I-1422J1406D01*
G01*
X606950Y616700D02*
G03*
X608690Y620886I-4200J4200D01*
G01*
X1094526Y578591D02*
X1095102Y578333D01*
X1095920Y578158D02*
X1100580D01*
X1101991Y578741D02*
X1117174Y593924D01*
X1114806Y607194D02*
X1117174Y604826D01*
X1112616Y607000D02*
X1113394Y607778D01*
X608011Y512550D02*
X654169Y512500D01*
X598320Y512500D02*
X607949Y512550D01*
X592500Y507500D02*
X596914Y511914D01*
X655586Y513086D02*
X717500Y575000D01*
X1195000Y589828D02*
Y624301D01*
X1175389Y576122D02*
X1181294D01*
X1198250Y589828D02*
Y625648D01*
X1184996Y574400D02*
X1196726Y586130D01*
X1182706Y576706D02*
X1194417Y588417D01*
X1175950Y572872D02*
X1181294D01*
X1153836Y585164D02*
X1163124Y575876D01*
X1156123Y587473D02*
X1165412Y578184D01*
X1169553Y576596D02*
X1169606Y576601D01*
X1133163Y589000D02*
X1152421D01*
X1133163Y585750D02*
X1151075D01*
X1152422Y585750D01*
X1169967Y576669D02*
X1172333Y577359D01*
X1171085Y572771D02*
X1171522Y572334D01*
X1171084Y572772D02*
X1171085Y572771D01*
X1173000Y577700D02*
X1173812D01*
X1172677Y571773D02*
X1173251Y572347D01*
X1173812Y577700D02*
X1175389Y576122D01*
X1175426Y572347D02*
X1175950Y572872D01*
X1173251Y572347D02*
X1175426D01*
X1167176Y611926D02*
X1167750Y612500D01*
X1167176Y610676D02*
Y611926D01*
X1138000Y606000D02*
X1162500D01*
X1167176Y610676D01*
X1117257Y611266D02*
Y611875D01*
X1121007Y595336D02*
Y603414D01*
X1117757Y599375D02*
X1117757Y599375D01*
X1100872Y574750D02*
X1101547Y574982D01*
X1104278Y576432D02*
X1105317Y577471D01*
X1093350Y574750D02*
X1099992D01*
X1112000Y607000D02*
X1112616D01*
X1092500Y579500D02*
X1094395Y578650D01*
X1099992Y574750D02*
X1100872Y574750D01*
X1117104Y609492D02*
X1119476Y607120D01*
X1117757Y595336D02*
Y599375D01*
X1092767Y574167D02*
X1093350Y574750D01*
X1121007Y603414D02*
X1121007Y603414D01*
X1094395Y578650D02*
X1094467D01*
X1101547Y574982D02*
X1101944Y575088D01*
X1116204Y610213D02*
X1117257Y611266D01*
X1117757Y599375D02*
Y603414D01*
X1094467Y578650D02*
X1094526Y578591D01*
X1105317Y577471D02*
X1105317D01*
X1119472Y591626D01*
X1139579Y616546D02*
X1140000Y616125D01*
X1165011D01*
X1195220Y628678D02*
Y629456D01*
X1190120Y627241D02*
X1190541Y626820D01*
X1193884Y630792D02*
Y631387D01*
Y630792D02*
X1195220Y629456D01*
Y628678D02*
X1198250Y625648D01*
X1190541Y626820D02*
X1192481D01*
X1195000Y624301D01*
X1172108Y630892D02*
X1185000Y618000D01*
X1174399Y633197D02*
X1188250Y619346D01*
Y593904D02*
Y619346D01*
X1183405Y593655D02*
X1185000Y595250D01*
X1185714Y591368D02*
X1188250Y593904D01*
X1185000Y595250D02*
Y618000D01*
X1176750Y593250D02*
X1176757Y593240D01*
X1180254Y588154D02*
X1183454Y589742D01*
X593845Y676730D02*
Y686000D01*
X587075Y670290D02*
X587405D01*
X587075Y665290D02*
X595060D01*
X582489Y652410D02*
X595060D01*
X582489Y647410D02*
X587405D01*
X593845Y638000D02*
Y640970D01*
X589905Y676730D02*
Y686000D01*
X587075Y674230D02*
X587405D01*
X587075Y661350D02*
X595060D01*
X582489Y656350D02*
X595060D01*
X582489Y643470D02*
X587405D01*
X589905Y638000D02*
Y640970D01*
X593845Y686000D02*
Y707033D01*
X589905Y686000D02*
Y707033D01*
X593845Y637483D02*
Y638000D01*
X589905Y637483D02*
Y638000D01*
X592115Y633293D02*
X592116Y633293D01*
X562552Y603730D02*
X592115Y633293D01*
X542828Y602000D02*
X558362D01*
X535523Y595523D02*
X541417Y601417D01*
X535523Y595523D02*
X535523Y595523D01*
X537195Y591000D02*
X550000D01*
X534940Y593255D02*
Y594112D01*
X535521Y591845D02*
X535784Y591582D01*
X559773Y606523D02*
X589322Y636072D01*
X559773Y606523D02*
X559773Y606523D01*
X542828Y605940D02*
X558362D01*
X538638Y604211D02*
X538638Y604211D01*
X532740Y598312D02*
X538638Y604211D01*
X532584Y589216D02*
X532685Y589107D01*
X531000Y593255D02*
Y594112D01*
X524600Y578300D02*
X532635Y586335D01*
X548287Y563887D02*
X550000Y565600D01*
X608690Y620886D02*
X608690Y736370D01*
X1165011Y616125D02*
X1165886Y617000D01*
X541444Y573444D02*
X543477Y575477D01*
X603010Y618332D02*
X604172Y619494D01*
X1169350Y631475D02*
X1170697Y631475D01*
X544888Y576060D02*
X563849D01*
X608690Y736370D02*
Y745535D01*
X1170000Y617000D02*
X1174000Y613000D01*
X530600Y556600D02*
X533477Y559477D01*
X604750Y738343D02*
Y745535D01*
X1165886Y617000D02*
X1170000D01*
X607335Y750637D02*
X608473Y752353D01*
X595000Y708188D02*
Y709000D01*
X1132028Y584614D02*
X1133163Y585750D01*
X606479Y749725D02*
X607090Y750336D01*
X1131992Y584614D02*
X1132028D01*
X593845Y707033D02*
X595000Y708188D01*
X604750Y620886D02*
X604750Y736370D01*
X588750Y708188D02*
Y709000D01*
X604750Y736370D02*
X604750Y738343D01*
X588750Y708188D02*
X589905Y707033D01*
X609273Y746947D02*
X609871Y747545D01*
X1133796Y629750D02*
X1135521Y631475D01*
X610172Y747792D02*
X611893Y748932D01*
X1131992Y590172D02*
Y590250D01*
X1133250Y629750D02*
X1133796D01*
X1131992Y590172D02*
X1133163Y589000D01*
X1133250Y636450D02*
X1133796D01*
X715000Y580000D02*
X730000D01*
X1133796Y636450D02*
X1135521Y634725D01*
X534060Y567767D02*
X534060Y560888D01*
X652500Y517500D02*
X715000Y580000D01*
X524600Y552900D02*
X530600Y556600D01*
X595000Y517500D02*
X652500D01*
X539591Y571591D02*
X541444Y573444D01*
X587500Y510000D02*
X595000Y517500D01*
X536805Y574377D02*
X536807Y574379D01*
X587500Y482500D02*
Y510000D01*
X536807Y574379D02*
X536954Y574526D01*
X585000Y480000D02*
X587500Y482500D01*
X536954Y574526D02*
X540698Y578270D01*
X1092500Y573900D02*
X1092767Y574167D01*
X540698Y578270D02*
X540698Y578270D01*
X1177590Y587875D02*
X1179436Y587947D01*
X717500Y575000D02*
X735000D01*
X544888Y580000D02*
X563849D01*
X1135521Y631475D02*
X1169350D01*
X540000Y563304D02*
X546875D01*
X565261Y580583D02*
X565261Y580583D01*
X538000Y565304D02*
Y567774D01*
X604172Y619494D02*
X604173Y619495D01*
X538000Y567774D02*
Y567774D01*
X592500Y492500D02*
Y507500D01*
X568040Y577789D02*
X606950Y616700D01*
X1135521Y634725D02*
X1170697D01*
X548287Y563887D02*
X548287Y563887D01*
X565261Y580583D02*
X603010Y618332D01*
D15*
X946128Y536872D02*
G03*
X948243Y536000I2115J2128D01*
G01*
X975879Y535121D02*
G03*
X973757Y536000I-2121J-2121D01*
G01*
X1024994Y554006D02*
G03*
X1025006Y553994I2150J2092D01*
G01*
X991030Y519968D02*
G03*
X990968Y520032I-2183J-2058D01*
G01*
X946121Y536879D02*
X946128Y536872D01*
X975879Y535121D02*
X990968Y520032D01*
X938000Y545000D02*
X946121Y536879D01*
X948243Y536000D02*
X973757D01*
X973542Y547730D02*
X973772Y547500D01*
X937500Y577500D02*
X942500D01*
X972270Y547730D01*
X973542D01*
X1025023Y553977D02*
X1027000Y552000D01*
X1025006Y553994D02*
X1025023Y553977D01*
X1002000Y578000D02*
X1024994Y554006D01*
X1027000Y552000D02*
X1038000D01*
X1045000Y559000D01*
X991030Y519968D02*
X1007500Y502500D01*
X702500Y535000D02*
X717500D01*
X685459Y513000D02*
X686000D01*
X647500Y497500D02*
X695000Y545000D01*
X717500D01*
X622500Y497500D02*
X647500D01*
X697743Y600243D02*
X705000Y607500D01*
X405000Y520000D02*
X440000Y485000D01*
X700000Y595000D02*
Y595500D01*
X697743Y597757D02*
X700000Y595500D01*
X697743Y597757D02*
Y600243D01*
X659959Y487500D02*
X685459Y513000D01*
X623100Y487500D02*
X659959D01*
X405000Y520000D02*
Y647200D01*
X608000Y502600D02*
X623100Y487500D01*
X405000Y647200D02*
X435700Y677900D01*
X440000Y485000D02*
X545000D01*
D60*
X608000Y528200D02*
D03*
Y553600D02*
D03*
Y502800D02*
D03*
Y477400D02*
D03*
D82*
X1082002Y672170D02*
D03*
Y683170D02*
D03*
X1082000Y716000D02*
D03*
X1082002Y725670D02*
D03*
X953000Y795000D02*
D03*
Y785000D02*
D03*
Y775000D02*
D03*
Y765000D02*
D03*
X963000Y795000D02*
D03*
Y785000D02*
D03*
Y775000D02*
D03*
Y765000D02*
D03*
X943000Y795000D02*
D03*
Y785000D02*
D03*
Y775000D02*
D03*
Y765000D02*
D03*
X770000Y812500D02*
D03*
X1199000Y551000D02*
D03*
Y499000D02*
D03*
X1015000Y810000D02*
D03*
X871000Y581000D02*
D03*
X675558Y709000D02*
D03*
X676000Y749000D02*
D03*
X973000Y678000D02*
D03*
X963000Y548000D02*
D03*
X891000Y585000D02*
D03*
X722500Y767500D02*
D03*
X676000Y733000D02*
D03*
X983000Y667000D02*
D03*
X1124502Y727670D02*
D03*
X1083000Y655000D02*
D03*
X1103000Y504000D02*
D03*
X871000Y497000D02*
D03*
X992502Y738170D02*
D03*
X782558Y709000D02*
D03*
X982000Y703000D02*
D03*
X1124502Y715170D02*
D03*
X714808Y667750D02*
D03*
X1165000Y490000D02*
D03*
X1103000Y529000D02*
D03*
X855000Y497000D02*
D03*
X936000Y527000D02*
D03*
X719558Y686000D02*
D03*
X737558Y709000D02*
D03*
X973000Y712000D02*
D03*
X1124502Y672670D02*
D03*
X725558Y679250D02*
D03*
X1145000Y490000D02*
D03*
X864808Y716750D02*
D03*
X870000Y535000D02*
D03*
X911000Y527000D02*
D03*
X767558Y709000D02*
D03*
X981000Y723000D02*
D03*
X1124502Y685170D02*
D03*
X841408Y739000D02*
D03*
X889000Y538000D02*
D03*
X1059502Y677670D02*
D03*
X752558Y709000D02*
D03*
X1112002Y715170D02*
D03*
X730000Y812500D02*
D03*
X840308Y723000D02*
D03*
X873000Y543000D02*
D03*
X737558Y749000D02*
D03*
X900442Y814000D02*
D03*
X1112002Y672670D02*
D03*
X648808Y732250D02*
D03*
X840558Y754250D02*
D03*
X857000Y543000D02*
D03*
X1000000Y568000D02*
D03*
X752558Y749000D02*
D03*
X1034000Y578000D02*
D03*
X653058Y708500D02*
D03*
X839558Y684000D02*
D03*
X767558Y749000D02*
D03*
X857000Y514000D02*
D03*
X839558Y673000D02*
D03*
X782558Y749000D02*
D03*
X859000Y562000D02*
D03*
X992442Y799000D02*
D03*
X839558Y709000D02*
D03*
X737558Y736000D02*
D03*
X720000Y812500D02*
D03*
X647500Y685000D02*
D03*
X1042502Y738170D02*
D03*
X863558Y702000D02*
D03*
X737558Y722000D02*
D03*
X662500Y690000D02*
D03*
X752558Y722000D02*
D03*
X780558Y803000D02*
D03*
X846558Y649000D02*
D03*
X647500Y637500D02*
D03*
X762558Y646000D02*
D03*
X1031502Y700170D02*
D03*
X767558Y722000D02*
D03*
X1008000Y775000D02*
D03*
X760000Y812500D02*
D03*
X846558Y664000D02*
D03*
X647500Y617500D02*
D03*
X1057002Y720170D02*
D03*
X1082002Y700170D02*
D03*
X782558Y646000D02*
D03*
X752558Y736000D02*
D03*
X687500Y800000D02*
D03*
X839558Y657000D02*
D03*
X647500Y660000D02*
D03*
X1122002Y695170D02*
D03*
X772558Y646000D02*
D03*
X1145000Y540000D02*
D03*
X767558Y736000D02*
D03*
X700000Y800000D02*
D03*
X1102002Y695170D02*
D03*
X675000Y690000D02*
D03*
X1009502Y745170D02*
D03*
X782558Y736000D02*
D03*
X740000Y812500D02*
D03*
X1019502Y755170D02*
D03*
X782558Y722000D02*
D03*
X750000Y812500D02*
D03*
X714000Y757000D02*
D03*
X983000Y688000D02*
D03*
X841558Y771750D02*
D03*
D83*
X912500Y538685D02*
G03*
X913331Y536669I2861J0D01*
G01*
X932169Y517831D02*
G03*
X934185Y517000I2016J2029D01*
G01*
X913331Y536669D02*
X932169Y517831D01*
X934185Y517000D02*
X977000D01*
X912500Y538685D02*
Y557500D01*
X777500Y497500D02*
X777500Y497500D01*
X712500Y497500D02*
X777500D01*
X935000Y490000D02*
X976921D01*
X979421Y492500D01*
X980000D01*
X959680Y597820D02*
X1000000Y557500D01*
X854680Y597820D02*
X959680D01*
X901000Y565000D02*
X912000Y576000D01*
X901000Y524000D02*
Y565000D01*
Y524000D02*
X906591Y518409D01*
X909591D02*
X910000Y518000D01*
X906591Y518409D02*
X909591D01*
X860000Y535000D02*
X865000Y540000D01*
Y587000D01*
X815000Y780000D02*
X832500Y762500D01*
X622500Y522500D02*
Y538900D01*
X832500Y620000D02*
Y762500D01*
X795000Y780000D02*
X815000D01*
X608000Y553400D02*
X622500Y538900D01*
X832500Y620000D02*
X854680Y597820D01*
D84*
X536954Y574526D02*
D03*
D85*
X879000Y773000D02*
Y773587D01*
X880358Y774945D01*
Y775358D01*
X885000Y780000D01*
X913000D01*
X935000Y758000D01*
X989413D01*
X992413Y761000D01*
X993000D01*
D86*
X685387Y686828D02*
G03*
X686558Y689657I-2828J2828D01*
G01*
X687730Y718172D02*
G03*
X686558Y715343I2828J-2828D01*
G01*
X695265Y725828D02*
G03*
X695263Y725826I3040J-2599D01*
G01*
X693911Y724353D02*
G03*
X694033Y724480I-2822J2835D01*
G01*
X695098Y725638D02*
G03*
X695191Y725742I-2944J2708D01*
G01*
X815558Y770750D02*
G03*
X815058Y768828I3500J-1936D01*
G01*
Y754937D02*
G03*
X815558Y753000I4000J0D01*
G01*
X823184Y731382D02*
G03*
X823316Y731242I2974J2675D01*
G01*
X823184Y731382D02*
G03*
X823169Y731398I-2963J-2687D01*
G01*
X678500Y679942D02*
X685387Y686828D01*
X678000Y679000D02*
Y679271D01*
X678191Y676367D02*
X684558Y670000D01*
X678500Y679771D02*
Y679942D01*
X678191Y676367D02*
Y678809D01*
X678000Y679271D02*
X678500Y679771D01*
X678000Y679000D02*
X678191Y678809D01*
X716000Y653000D02*
X785872D01*
X699000Y670000D02*
X716000Y653000D01*
X684558Y670000D02*
X699000D01*
X785872Y653000D02*
X792058Y646814D01*
X792749Y647191D02*
X826558Y681000D01*
Y728000D01*
X823330Y731228D02*
X826558Y728000D01*
X686558Y689657D02*
X686558Y715343D01*
X823316Y731242D02*
X823330Y731228D01*
X695265Y725828D02*
X700558Y732000D01*
X816658Y738500D02*
X823169Y731398D01*
X694033Y724480D02*
X695098Y725638D01*
X792058Y646771D02*
Y646814D01*
X695191Y725742D02*
X695263Y725826D01*
X792558Y646000D02*
Y646271D01*
X687730Y718172D02*
X693911Y724353D01*
X792058Y646771D02*
X792558Y646271D01*
X815558Y770750D02*
X815558Y770750D01*
X792601Y646314D02*
X792749Y646462D01*
X815058Y754937D02*
Y768828D01*
X792749Y646462D02*
Y647191D01*
D88*
X550000Y667200D02*
D03*
X524600Y654500D02*
D03*
X550000Y641800D02*
D03*
X524600Y629100D02*
D03*
X550000Y616400D02*
D03*
X524600Y603700D02*
D03*
X550000Y591000D02*
D03*
X524600Y578300D02*
D03*
X550000Y565600D02*
D03*
D89*
X1204600Y653000D02*
X1206538D01*
Y566600D02*
X1207000Y567062D01*
X1206538Y653000D02*
X1207000Y652538D01*
Y567062D02*
Y652538D01*
X1204600Y566600D02*
X1206538D01*
X1204600Y653000D02*
X1206538D01*
X1197371D02*
X1207000D01*
X1151100Y653200D02*
X1155829D01*
X1156291Y653662D02*
Y656833D01*
X1162458Y663000D02*
X1190742D01*
X1196909Y653462D02*
Y656833D01*
X1155829Y653200D02*
X1156291Y653662D01*
Y656833D02*
X1162458Y663000D01*
X1196909Y653462D02*
X1197371Y653000D01*
X1190742Y663000D02*
X1196909Y656833D01*
X1199000Y551000D02*
Y566138D01*
Y520000D02*
Y551000D01*
Y499000D02*
Y520000D01*
Y566138D02*
X1199271Y566409D01*
X1204409D01*
X1190409D02*
X1199271D01*
X1181000Y557000D02*
X1190409Y566409D01*
X1204409D02*
X1204600Y566600D01*
X1162458Y557000D02*
X1181000D01*
X1155829Y566800D02*
X1156291Y566338D01*
Y563167D02*
Y566338D01*
Y563167D02*
X1162458Y557000D01*
X1151100Y566800D02*
X1155829D01*
X820000Y522500D02*
X825000Y527500D01*
X715000Y522500D02*
X820000D01*
X608000Y477200D02*
X669700D01*
X715000Y522500D01*
X825000Y527500D02*
X830000Y522500D01*
X825000Y517500D02*
X830000Y522500D01*
X825000Y517500D02*
X825000D01*
D90*
X935030Y617191D02*
G03*
X935769Y617246I0J5000D01*
G01*
X947500Y619000D01*
X929809Y617191D02*
X935030D01*
X863000Y684000D02*
X929809Y617191D01*
X761000Y462000D02*
Y484000D01*
X760000Y485000D02*
X761000Y484000D01*
X704591Y689481D02*
X734073Y660000D01*
X793558D02*
X819058Y685500D01*
X734073Y660000D02*
X793558D01*
X704591Y708644D02*
X708558Y712610D01*
X700558Y774500D02*
X707558Y781500D01*
X701558Y749000D02*
X708558Y742000D01*
X707558Y781500D02*
X708558D01*
Y712610D02*
Y742000D01*
X756558Y793000D02*
X779558D01*
X750558Y787000D02*
X756558Y793000D01*
X700558Y750000D02*
X701558Y749000D01*
X835000Y790000D02*
X841000Y784000D01*
X700558Y750000D02*
Y773500D01*
X779558Y793000D02*
X782558Y790000D01*
X704591Y689481D02*
Y708644D01*
X782558Y790000D02*
X835000D01*
X816558Y723000D02*
X819058Y720500D01*
Y685500D02*
Y720500D01*
D92*
X1204600Y566600D02*
D03*
Y653000D02*
D03*
D93*
X1151100Y566800D02*
D03*
Y653200D02*
D03*
D94*
X870400Y470400D02*
D03*
X819600D02*
D03*
Y419600D02*
D03*
X870400D02*
D03*
X845000Y445000D02*
D03*
X995400Y470400D02*
D03*
X944600D02*
D03*
Y419600D02*
D03*
X995400D02*
D03*
X970000Y445000D02*
D03*
D95*
X608000Y452000D02*
D03*
D96*
X461100Y667200D02*
D03*
Y552900D02*
D03*
D97*
X491600Y687550D02*
D03*
Y532550D02*
D03*
D98*
X415400Y542200D02*
D03*
X435700D02*
D03*
X415400Y677900D02*
D03*
X435700D02*
D03*
D99*
X524600Y552900D02*
D03*
D100*
X807000Y445000D02*
D03*
X971000Y528000D02*
D03*
X948000Y605000D02*
D03*
X1080000Y745000D02*
D03*
X1195000Y680000D02*
D03*
Y720000D02*
D03*
X1175000Y740000D02*
D03*
X1140000D02*
D03*
X1177000Y604000D02*
D03*
X1152000Y579000D02*
D03*
X1169000Y583000D02*
D03*
X768000Y786000D02*
D03*
X759000D02*
D03*
X780000Y671000D02*
D03*
X770000Y673000D02*
D03*
X761000D02*
D03*
X678000Y679000D02*
D03*
X1138000Y606000D02*
D03*
X1107000Y601000D02*
D03*
X1139579Y616546D02*
D03*
X1169000Y641000D02*
D03*
X1170000Y648000D02*
D03*
X1008000Y794000D02*
D03*
X887000Y671000D02*
D03*
X893000Y644000D02*
D03*
X950000Y740000D02*
D03*
X912000Y625000D02*
D03*
X795000Y765000D02*
D03*
X685000Y770000D02*
D03*
X645000D02*
D03*
Y810000D02*
D03*
X595000D02*
D03*
Y770000D02*
D03*
X580000Y745000D02*
D03*
X550000Y730000D02*
D03*
Y745000D02*
D03*
X693000Y626000D02*
D03*
X710000Y627000D02*
D03*
X654000Y600000D02*
D03*
X692000Y659000D02*
D03*
X619000Y609000D02*
D03*
Y641000D02*
D03*
X618000Y726000D02*
D03*
X619000Y697000D02*
D03*
X570000Y670000D02*
D03*
X528000Y693000D02*
D03*
X552000Y707000D02*
D03*
X575000Y694000D02*
D03*
X594000Y623000D02*
D03*
Y590000D02*
D03*
Y545000D02*
D03*
X637000Y413000D02*
D03*
X675000D02*
D03*
X668000Y466000D02*
D03*
X659000Y499000D02*
D03*
X688000Y482000D02*
D03*
X735000Y410000D02*
D03*
X800000D02*
D03*
X905000Y500000D02*
D03*
X910000Y480000D02*
D03*
Y410000D02*
D03*
X940000Y500000D02*
D03*
X980000Y480000D02*
D03*
X960000Y505000D02*
D03*
X1025000D02*
D03*
X1050000Y475000D02*
D03*
X1085000Y460000D02*
D03*
X1125000Y480000D02*
D03*
X1185000D02*
D03*
X1134000Y513000D02*
D03*
X1145000Y527000D02*
D03*
X1170000Y505000D02*
D03*
Y517000D02*
D03*
X1185000Y525000D02*
D03*
Y535000D02*
D03*
Y545000D02*
D03*
X1117000Y567000D02*
D03*
X1096000Y588000D02*
D03*
X1101000Y632000D02*
D03*
X1118000Y641000D02*
D03*
X1079000Y630000D02*
D03*
X1051000D02*
D03*
X1079000Y588000D02*
D03*
X1052000D02*
D03*
X1051000Y611000D02*
D03*
X1078000D02*
D03*
X1016000Y630000D02*
D03*
X998000Y606000D02*
D03*
X988000Y594000D02*
D03*
X952000Y630000D02*
D03*
X963000Y641000D02*
D03*
X923000Y748000D02*
D03*
X902000Y702000D02*
D03*
X891000Y692000D02*
D03*
X934000Y648000D02*
D03*
X929000Y674000D02*
D03*
X952000Y694000D02*
D03*
X1007000Y617000D02*
D03*
X973000Y651000D02*
D03*
X940000Y684000D02*
D03*
X912000Y712000D02*
D03*
X865000Y738000D02*
D03*
X869000Y754000D02*
D03*
X898000Y748000D02*
D03*
X879000Y773000D02*
D03*
X993000Y761000D02*
D03*
X1154000Y640000D02*
D03*
X1139000Y642000D02*
D03*
X977000Y517000D02*
D03*
X963000Y576000D02*
D03*
X972000Y557000D02*
D03*
X978000Y568000D02*
D03*
X1002000Y578000D02*
D03*
X1045000Y559000D02*
D03*
X1037000D02*
D03*
X1035000Y568000D02*
D03*
X1121000Y740000D02*
D03*
X1104000D02*
D03*
X777500Y497500D02*
D03*
X760000Y485000D02*
D03*
X935000Y490000D02*
D03*
X980000Y492500D02*
D03*
X1007500Y502500D02*
D03*
X723442Y626000D02*
D03*
X1000000Y557500D02*
D03*
X825000Y517500D02*
D03*
X734000Y452000D02*
D03*
X816658Y738500D02*
D03*
X841000Y784000D02*
D03*
X708558Y781500D02*
D03*
X830000Y522500D02*
D03*
X938000Y545000D02*
D03*
X1041000Y498000D02*
D03*
X815558Y753000D02*
D03*
X832500Y790000D02*
D03*
X825000Y527500D02*
D03*
X1041000Y540000D02*
D03*
X806000Y686000D02*
D03*
X720558Y786000D02*
D03*
X1139250Y580000D02*
D03*
X717500Y535000D02*
D03*
X807000Y694000D02*
D03*
X740558Y786000D02*
D03*
X973772Y547500D02*
D03*
X816558Y723000D02*
D03*
X702500Y535000D02*
D03*
X684558Y670000D02*
D03*
X1125250Y590750D02*
D03*
X800000Y691000D02*
D03*
X750558Y787000D02*
D03*
X701558Y749000D02*
D03*
X937500Y577500D02*
D03*
X717500Y545000D02*
D03*
X999000Y527000D02*
D03*
X700558Y732000D02*
D03*
X1133250Y629750D02*
D03*
X712500Y497500D02*
D03*
X686000Y513000D02*
D03*
X840558Y716000D02*
D03*
X761000Y462000D02*
D03*
X1133250Y636450D02*
D03*
X545000Y485000D02*
D03*
X730558Y787000D02*
D03*
X656000Y590000D02*
D03*
X1169000Y598000D02*
D03*
X848000Y543000D02*
D03*
X622500Y522500D02*
D03*
X655000Y422000D02*
D03*
X792558Y646000D02*
D03*
X1138000Y595000D02*
D03*
X1041000Y512000D02*
D03*
X585000Y480000D02*
D03*
X937000Y567000D02*
D03*
X656000Y413000D02*
D03*
X1122000Y625000D02*
D03*
X1028000Y518000D02*
D03*
X1139000Y625000D02*
D03*
X1041000Y526000D02*
D03*
X592500Y492500D02*
D03*
X912000Y576000D02*
D03*
X653000Y580000D02*
D03*
X1115000Y619000D02*
D03*
X700558Y773500D02*
D03*
X947500Y619000D02*
D03*
X910000Y518000D02*
D03*
X625000Y550000D02*
D03*
X719000Y484000D02*
D03*
X675000Y800000D02*
D03*
X915000Y761000D02*
D03*
X865000Y587000D02*
D03*
X654000Y550000D02*
D03*
X749000Y484000D02*
D03*
X667500Y790000D02*
D03*
X860000Y535000D02*
D03*
X793000Y461000D02*
D03*
X864442Y802000D02*
D03*
X1168000Y623000D02*
D03*
X793000Y581000D02*
D03*
X799649Y613000D02*
D03*
X840000Y695000D02*
D03*
X772000Y460000D02*
D03*
X889442Y772000D02*
D03*
X863000Y684000D02*
D03*
X811558Y714000D02*
D03*
X793000Y551000D02*
D03*
X814649Y613000D02*
D03*
X705000Y607500D02*
D03*
X794000Y432000D02*
D03*
X888442Y787000D02*
D03*
X730000Y580000D02*
D03*
X580000Y486000D02*
D03*
X673000Y599000D02*
D03*
X830000Y613000D02*
D03*
X700000Y595000D02*
D03*
X772000Y430000D02*
D03*
X889692Y756250D02*
D03*
X735000Y575000D02*
D03*
X815558Y770750D02*
D03*
X580000Y500000D02*
D03*
X754942Y627500D02*
D03*
X795000Y780000D02*
D03*
X845500Y497000D02*
D03*
X912500Y557500D02*
D03*
X748000Y462000D02*
D03*
X622500Y497500D02*
D03*
X704591Y708644D02*
D03*
D101*
X532000Y674000D02*
D03*
X1112000Y607000D02*
D03*
X1117257Y611875D02*
D03*
X1193884Y631387D02*
D03*
X1190120Y627241D02*
D03*
X1173000Y577700D02*
D03*
X1172677Y571773D02*
D03*
X1131992Y584614D02*
D03*
X1092500Y573900D02*
D03*
Y579500D02*
D03*
X1167750Y612500D02*
D03*
X1176750Y587650D02*
D03*
X1174000Y613000D02*
D03*
X1176750Y593250D02*
D03*
X1131992Y590250D02*
D03*
X612750Y749250D02*
D03*
X608790Y753210D02*
D03*
X595000Y709000D02*
D03*
X588750D02*
D03*
D102*
X998000Y658000D02*
D03*
X1004000Y666000D02*
D03*
X1199000Y520000D02*
D03*
X1007502Y694170D02*
D03*
X999502Y700170D02*
D03*
X1007002Y707670D02*
D03*
X1015000Y658000D02*
D03*
M02*
