G04*
G04 #@! TF.GenerationSoftware,Altium Limited,Altium Designer,24.4.1 (13)*
G04*
G04 Layer_Physical_Order=2*
G04 Layer_Color=36540*
%FSLAX44Y44*%
%MOMM*%
G71*
G04*
G04 #@! TF.SameCoordinates,BB8F2AFE-483E-42EE-87DF-432BFCC133BD*
G04*
G04*
G04 #@! TF.FilePolarity,Positive*
G04*
G01*
G75*
%ADD60C,1.5000*%
%ADD82C,0.6000*%
%ADD88C,1.4000*%
%ADD92O,2.6000X1.1000*%
%ADD93O,2.1000X1.1000*%
%ADD94C,2.3850*%
%ADD95R,1.5000X1.5000*%
%ADD96C,1.6250*%
%ADD97C,2.4000*%
%ADD98C,1.5300*%
%ADD99R,1.4000X1.4000*%
%ADD100C,0.5000*%
%ADD101C,0.4200*%
G36*
X513000Y745000D02*
Y520000D01*
X508000Y515000D01*
X478000D01*
X473000Y520000D01*
Y538301D01*
X473052Y538336D01*
X475664Y540948D01*
X477716Y544019D01*
X479129Y547431D01*
X479850Y551053D01*
Y554747D01*
X479129Y558369D01*
X477716Y561782D01*
X475664Y564852D01*
X473052Y567464D01*
X473000Y567499D01*
Y652601D01*
X473052Y652636D01*
X475664Y655248D01*
X477716Y658318D01*
X479129Y661731D01*
X479850Y665353D01*
Y669047D01*
X479129Y672669D01*
X477716Y676081D01*
X475664Y679152D01*
X473052Y681764D01*
X473000Y681799D01*
Y745000D01*
X473000D01*
X475451Y747451D01*
X500000D01*
X500975Y747645D01*
X501802Y748198D01*
X502355Y749025D01*
X502549Y750000D01*
X508000D01*
X513000Y745000D01*
D02*
G37*
G36*
X1034007Y816181D02*
X1030513Y814164D01*
X1026873Y811370D01*
X1023629Y808126D01*
X1020836Y804486D01*
X1018542Y800513D01*
X1016786Y796274D01*
X1015599Y791843D01*
X1015000Y787294D01*
Y785000D01*
X1015000Y782706D01*
X1015598Y778157D01*
X1016786Y773725D01*
X1018541Y769486D01*
X1020835Y765513D01*
X1023628Y761873D01*
X1026873Y758629D01*
X1030513Y755836D01*
X1034486Y753542D01*
X1038725Y751786D01*
X1043157Y750599D01*
X1047706Y750000D01*
X1050000Y750000D01*
X1052294Y750000D01*
X1056842Y750598D01*
X1061274Y751786D01*
X1065513Y753541D01*
X1069487Y755835D01*
X1073127Y758629D01*
X1076371Y761873D01*
X1079164Y765513D01*
X1081187Y769017D01*
X1082626Y769373D01*
X1097451Y754549D01*
Y750000D01*
X1097645Y749025D01*
X1098198Y748198D01*
X1099025Y747645D01*
X1100000Y747451D01*
X1197000D01*
Y660552D01*
X1195142Y660307D01*
X1193318Y659551D01*
X1191751Y658349D01*
X1190549Y656782D01*
X1189793Y654958D01*
X1189535Y653000D01*
X1189793Y651042D01*
X1190549Y649218D01*
X1191751Y647651D01*
X1193318Y646449D01*
X1195142Y645693D01*
X1197000Y645448D01*
Y635017D01*
X1196365Y634646D01*
X1195730Y634411D01*
X1194580Y634887D01*
X1193188D01*
X1191901Y634354D01*
X1190917Y633370D01*
X1190384Y632083D01*
Y630741D01*
X1189424D01*
X1188137Y630208D01*
X1187153Y629224D01*
X1186620Y627937D01*
Y626545D01*
X1187153Y625259D01*
X1188137Y624274D01*
X1189424Y623741D01*
X1190816D01*
X1192102Y624274D01*
X1193087Y625259D01*
X1193620Y626545D01*
Y627887D01*
X1194580D01*
X1195730Y628363D01*
X1196365Y628129D01*
X1197000Y627757D01*
Y574151D01*
X1195142Y573907D01*
X1193318Y573151D01*
X1191751Y571949D01*
X1190549Y570382D01*
X1189793Y568558D01*
X1189535Y566600D01*
X1189793Y564642D01*
X1190549Y562818D01*
X1191751Y561251D01*
X1193318Y560049D01*
X1195142Y559293D01*
X1197000Y559048D01*
Y554501D01*
X1196734Y554391D01*
X1195609Y553266D01*
X1195000Y551796D01*
Y550204D01*
X1195609Y548734D01*
X1196734Y547609D01*
X1197000Y547499D01*
Y523501D01*
X1196734Y523391D01*
X1195609Y522266D01*
X1195000Y520796D01*
Y519204D01*
X1195609Y517734D01*
X1196734Y516609D01*
X1197000Y516499D01*
Y502501D01*
X1196734Y502391D01*
X1195609Y501266D01*
X1195000Y499796D01*
Y498204D01*
X1195609Y496734D01*
X1196734Y495609D01*
X1197000Y495499D01*
Y472549D01*
X1100000D01*
X1099025Y472355D01*
X1098198Y471802D01*
X1097645Y470975D01*
X1097451Y470000D01*
Y465451D01*
X1082626Y450626D01*
X1081187Y450983D01*
X1079164Y454487D01*
X1076371Y458127D01*
X1073126Y461371D01*
X1069486Y464164D01*
X1065513Y466458D01*
X1061274Y468214D01*
X1056842Y469401D01*
X1052293Y470000D01*
X1049999Y470000D01*
X1047705D01*
X1043157Y469401D01*
X1038725Y468213D01*
X1034486Y466458D01*
X1030513Y464164D01*
X1026873Y461371D01*
X1023629Y458126D01*
X1020836Y454486D01*
X1018542Y450513D01*
X1016786Y446274D01*
X1015599Y441843D01*
X1015000Y437294D01*
Y435000D01*
X1015000Y432706D01*
X1015598Y428157D01*
X1016786Y423725D01*
X1018541Y419486D01*
X1020835Y415513D01*
X1023628Y411873D01*
X1026873Y408629D01*
X1030513Y405836D01*
X1034006Y403819D01*
X1033666Y402549D01*
X590000Y402549D01*
Y488391D01*
X591270Y489221D01*
X591804Y489000D01*
X593196D01*
X594483Y489533D01*
X595467Y490517D01*
X596000Y491804D01*
Y493196D01*
X595467Y494483D01*
X594483Y495467D01*
X593196Y496000D01*
X591804D01*
X591270Y495779D01*
X590000Y496609D01*
Y705729D01*
X590733Y706033D01*
X591045Y706346D01*
X591875Y706910D01*
X592705Y706346D01*
X593017Y706033D01*
X594304Y705500D01*
X595696D01*
X596983Y706033D01*
X597967Y707017D01*
X598500Y708304D01*
Y709696D01*
X597967Y710983D01*
X596983Y711967D01*
X595696Y712500D01*
X594304D01*
X593017Y711967D01*
X592705Y711654D01*
X591875Y711090D01*
X591045Y711654D01*
X590733Y711967D01*
X590000Y712271D01*
Y817451D01*
X1033667Y817451D01*
X1034007Y816181D01*
D02*
G37*
%LPC*%
G36*
X493600Y701508D02*
Y689550D01*
X505558D01*
X504646Y692954D01*
X502803Y696146D01*
X500196Y698753D01*
X497004Y700596D01*
X493600Y701508D01*
D02*
G37*
G36*
X489600D02*
X486196Y700596D01*
X483004Y698753D01*
X480397Y696146D01*
X478554Y692954D01*
X477642Y689550D01*
X489600D01*
Y701508D01*
D02*
G37*
G36*
X505558Y685550D02*
X493600D01*
Y673592D01*
X497004Y674504D01*
X500196Y676347D01*
X502803Y678954D01*
X504646Y682146D01*
X505558Y685550D01*
D02*
G37*
G36*
X489600D02*
X477642D01*
X478554Y682146D01*
X480397Y678954D01*
X483004Y676347D01*
X486196Y674504D01*
X489600Y673592D01*
Y685550D01*
D02*
G37*
G36*
X493600Y546508D02*
Y534550D01*
X505558D01*
X504646Y537954D01*
X502803Y541146D01*
X500196Y543753D01*
X497004Y545596D01*
X493600Y546508D01*
D02*
G37*
G36*
X489600Y546508D02*
X486196Y545596D01*
X483004Y543753D01*
X480397Y541146D01*
X478554Y537954D01*
X477642Y534550D01*
X489600D01*
Y546508D01*
D02*
G37*
G36*
Y530550D02*
X477642D01*
X478554Y527146D01*
X480397Y523954D01*
X483004Y521347D01*
X486196Y519504D01*
X489600Y518592D01*
Y530550D01*
D02*
G37*
G36*
X505558D02*
X493600D01*
Y518592D01*
X497004Y519504D01*
X500196Y521347D01*
X502803Y523954D01*
X504646Y527146D01*
X505558Y530550D01*
D02*
G37*
G36*
X865138Y805500D02*
X863746D01*
X862459Y804967D01*
X861475Y803982D01*
X860942Y802696D01*
Y801304D01*
X861475Y800017D01*
X862459Y799033D01*
X863746Y798500D01*
X865138D01*
X866424Y799033D01*
X867409Y800017D01*
X867942Y801304D01*
Y802696D01*
X867409Y803982D01*
X866424Y804967D01*
X865138Y805500D01*
D02*
G37*
G36*
X675696Y803500D02*
X674304D01*
X673017Y802967D01*
X672033Y801983D01*
X671500Y800696D01*
Y799304D01*
X672033Y798017D01*
X673017Y797033D01*
X674304Y796500D01*
X675696D01*
X676982Y797033D01*
X677967Y798017D01*
X678500Y799304D01*
Y800696D01*
X677967Y801983D01*
X676982Y802967D01*
X675696Y803500D01*
D02*
G37*
G36*
X1008895Y798500D02*
X1007105D01*
X1005451Y797815D01*
X1004185Y796549D01*
X1003500Y794895D01*
Y793105D01*
X1004185Y791451D01*
X1005451Y790185D01*
X1007105Y789500D01*
X1008895D01*
X1010549Y790185D01*
X1011815Y791451D01*
X1012500Y793105D01*
Y794895D01*
X1011815Y796549D01*
X1010549Y797815D01*
X1008895Y798500D01*
D02*
G37*
G36*
X833196Y793500D02*
X831804D01*
X830517Y792967D01*
X829533Y791983D01*
X829000Y790696D01*
Y789304D01*
X829533Y788017D01*
X830517Y787033D01*
X831804Y786500D01*
X833196D01*
X834483Y787033D01*
X835467Y788017D01*
X836000Y789304D01*
Y790696D01*
X835467Y791983D01*
X834483Y792967D01*
X833196Y793500D01*
D02*
G37*
G36*
X668196Y793500D02*
X666804D01*
X665517Y792967D01*
X664533Y791983D01*
X664000Y790696D01*
Y789304D01*
X664533Y788017D01*
X665517Y787033D01*
X666804Y786500D01*
X668196D01*
X669483Y787033D01*
X670467Y788017D01*
X671000Y789304D01*
Y790696D01*
X670467Y791983D01*
X669483Y792967D01*
X668196Y793500D01*
D02*
G37*
G36*
X751254Y790500D02*
X749862D01*
X748576Y789967D01*
X747591Y788983D01*
X747058Y787696D01*
Y786304D01*
X747591Y785017D01*
X748576Y784033D01*
X749862Y783500D01*
X751254D01*
X752541Y784033D01*
X753525Y785017D01*
X754058Y786304D01*
Y787696D01*
X753525Y788983D01*
X752541Y789967D01*
X751254Y790500D01*
D02*
G37*
G36*
X731254Y790500D02*
X729862D01*
X728576Y789967D01*
X727591Y788983D01*
X727058Y787696D01*
Y786304D01*
X727591Y785017D01*
X728576Y784033D01*
X729862Y783500D01*
X731254D01*
X732541Y784033D01*
X733525Y785017D01*
X734058Y786304D01*
Y787696D01*
X733525Y788983D01*
X732541Y789967D01*
X731254Y790500D01*
D02*
G37*
G36*
X889138Y790500D02*
X887746D01*
X886459Y789967D01*
X885475Y788982D01*
X884942Y787696D01*
Y786304D01*
X885475Y785017D01*
X886459Y784033D01*
X887746Y783500D01*
X889138D01*
X890424Y784033D01*
X891409Y785017D01*
X891942Y786304D01*
Y787696D01*
X891409Y788982D01*
X890424Y789967D01*
X889138Y790500D01*
D02*
G37*
G36*
X768696Y789500D02*
X767304D01*
X766017Y788967D01*
X765033Y787983D01*
X764500Y786696D01*
Y785304D01*
X765033Y784017D01*
X766017Y783033D01*
X767304Y782500D01*
X768696D01*
X769983Y783033D01*
X770967Y784017D01*
X771500Y785304D01*
Y786696D01*
X770967Y787983D01*
X769983Y788967D01*
X768696Y789500D01*
D02*
G37*
G36*
X759696D02*
X758304D01*
X757017Y788967D01*
X756033Y787983D01*
X755500Y786696D01*
Y785304D01*
X756033Y784017D01*
X757017Y783033D01*
X758304Y782500D01*
X759696D01*
X760983Y783033D01*
X761967Y784017D01*
X762500Y785304D01*
Y786696D01*
X761967Y787983D01*
X760983Y788967D01*
X759696Y789500D01*
D02*
G37*
G36*
X741254D02*
X739862D01*
X738576Y788967D01*
X737591Y787983D01*
X737058Y786696D01*
Y785304D01*
X737591Y784017D01*
X738576Y783033D01*
X739862Y782500D01*
X741254D01*
X742541Y783033D01*
X743525Y784017D01*
X744058Y785304D01*
Y786696D01*
X743525Y787983D01*
X742541Y788967D01*
X741254Y789500D01*
D02*
G37*
G36*
X721254D02*
X719862D01*
X718576Y788967D01*
X717591Y787983D01*
X717058Y786696D01*
Y785304D01*
X717591Y784017D01*
X718576Y783033D01*
X719862Y782500D01*
X721254D01*
X722541Y783033D01*
X723525Y784017D01*
X724058Y785304D01*
Y786696D01*
X723525Y787983D01*
X722541Y788967D01*
X721254Y789500D01*
D02*
G37*
G36*
X841696Y787500D02*
X840304D01*
X839017Y786967D01*
X838033Y785983D01*
X837500Y784696D01*
Y783304D01*
X838033Y782017D01*
X839017Y781033D01*
X840304Y780500D01*
X841696D01*
X842982Y781033D01*
X843967Y782017D01*
X844500Y783304D01*
Y784696D01*
X843967Y785983D01*
X842982Y786967D01*
X841696Y787500D01*
D02*
G37*
G36*
X709254Y785000D02*
X707862D01*
X706575Y784467D01*
X705591Y783483D01*
X705058Y782196D01*
Y780804D01*
X705591Y779517D01*
X706575Y778533D01*
X707862Y778000D01*
X709254D01*
X710541Y778533D01*
X711525Y779517D01*
X712058Y780804D01*
Y782196D01*
X711525Y783483D01*
X710541Y784467D01*
X709254Y785000D01*
D02*
G37*
G36*
X795696Y783500D02*
X794304D01*
X793017Y782967D01*
X792033Y781983D01*
X791500Y780696D01*
Y779304D01*
X792033Y778017D01*
X793017Y777033D01*
X794304Y776500D01*
X795696D01*
X796983Y777033D01*
X797967Y778017D01*
X798500Y779304D01*
Y780696D01*
X797967Y781983D01*
X796983Y782967D01*
X795696Y783500D01*
D02*
G37*
G36*
X701254Y777000D02*
X699862D01*
X698576Y776467D01*
X697591Y775483D01*
X697058Y774196D01*
Y772804D01*
X697591Y771517D01*
X698576Y770533D01*
X699862Y770000D01*
X701254D01*
X702541Y770533D01*
X703525Y771517D01*
X704058Y772804D01*
Y774196D01*
X703525Y775483D01*
X702541Y776467D01*
X701254Y777000D01*
D02*
G37*
G36*
X879696Y776500D02*
X878304D01*
X877017Y775967D01*
X876033Y774983D01*
X875500Y773696D01*
Y772304D01*
X876033Y771017D01*
X877017Y770033D01*
X878304Y769500D01*
X879696D01*
X880983Y770033D01*
X881967Y771017D01*
X882500Y772304D01*
Y773696D01*
X881967Y774983D01*
X880983Y775967D01*
X879696Y776500D01*
D02*
G37*
G36*
X890138Y775500D02*
X888746D01*
X887459Y774967D01*
X886475Y773983D01*
X885942Y772696D01*
Y771304D01*
X886475Y770017D01*
X887459Y769033D01*
X888746Y768500D01*
X890138D01*
X891424Y769033D01*
X892409Y770017D01*
X892942Y771304D01*
Y772696D01*
X892409Y773983D01*
X891424Y774967D01*
X890138Y775500D01*
D02*
G37*
G36*
X816254Y774250D02*
X814862D01*
X813576Y773717D01*
X812591Y772733D01*
X812058Y771446D01*
Y770054D01*
X812591Y768767D01*
X813576Y767783D01*
X814862Y767250D01*
X816254D01*
X817541Y767783D01*
X818525Y768767D01*
X819058Y770054D01*
Y771446D01*
X818525Y772733D01*
X817541Y773717D01*
X816254Y774250D01*
D02*
G37*
G36*
X993696Y764500D02*
X992304D01*
X991017Y763967D01*
X990033Y762983D01*
X989500Y761696D01*
Y760304D01*
X990033Y759017D01*
X991017Y758033D01*
X992304Y757500D01*
X993696D01*
X994983Y758033D01*
X995967Y759017D01*
X996500Y760304D01*
Y761696D01*
X995967Y762983D01*
X994983Y763967D01*
X993696Y764500D01*
D02*
G37*
G36*
X915696Y764500D02*
X914304D01*
X913017Y763967D01*
X912033Y762983D01*
X911500Y761696D01*
Y760304D01*
X912033Y759017D01*
X913017Y758033D01*
X914304Y757500D01*
X915696D01*
X916982Y758033D01*
X917967Y759017D01*
X918500Y760304D01*
Y761696D01*
X917967Y762983D01*
X916982Y763967D01*
X915696Y764500D01*
D02*
G37*
G36*
X816254Y756500D02*
X814862D01*
X813576Y755967D01*
X812591Y754983D01*
X812058Y753696D01*
Y752304D01*
X812591Y751017D01*
X813576Y750033D01*
X814862Y749500D01*
X816254D01*
X817541Y750033D01*
X818525Y751017D01*
X819058Y752304D01*
Y753696D01*
X818525Y754983D01*
X817541Y755967D01*
X816254Y756500D01*
D02*
G37*
G36*
X609486Y756710D02*
X608094D01*
X606808Y756177D01*
X605823Y755192D01*
X605290Y753906D01*
Y752514D01*
X605823Y751227D01*
X606808Y750243D01*
X608094Y749710D01*
X609250D01*
Y748554D01*
X609783Y747267D01*
X610767Y746283D01*
X612054Y745750D01*
X613446D01*
X614733Y746283D01*
X615717Y747267D01*
X616250Y748554D01*
Y749946D01*
X615717Y751233D01*
X614733Y752217D01*
X613446Y752750D01*
X612290D01*
Y753906D01*
X611757Y755192D01*
X610773Y756177D01*
X609486Y756710D01*
D02*
G37*
G36*
X702254Y752500D02*
X700862D01*
X699576Y751967D01*
X698591Y750983D01*
X698058Y749696D01*
Y748304D01*
X698591Y747017D01*
X699576Y746033D01*
X700862Y745500D01*
X702254D01*
X703541Y746033D01*
X704525Y747017D01*
X705058Y748304D01*
Y749696D01*
X704525Y750983D01*
X703541Y751967D01*
X702254Y752500D01*
D02*
G37*
G36*
X817354Y742000D02*
X815962D01*
X814676Y741467D01*
X813691Y740483D01*
X813158Y739196D01*
Y737804D01*
X813691Y736517D01*
X814676Y735533D01*
X815962Y735000D01*
X817354D01*
X818641Y735533D01*
X819625Y736517D01*
X820158Y737804D01*
Y739196D01*
X819625Y740483D01*
X818641Y741467D01*
X817354Y742000D01*
D02*
G37*
G36*
X701254Y735500D02*
X699862D01*
X698576Y734967D01*
X697591Y733983D01*
X697058Y732696D01*
Y731304D01*
X697591Y730017D01*
X698576Y729033D01*
X699862Y728500D01*
X701254D01*
X702541Y729033D01*
X703525Y730017D01*
X704058Y731304D01*
Y732696D01*
X703525Y733983D01*
X702541Y734967D01*
X701254Y735500D01*
D02*
G37*
G36*
X1125297Y731670D02*
X1123706D01*
X1122236Y731061D01*
X1121111Y729936D01*
X1120502Y728466D01*
Y726874D01*
X1121111Y725404D01*
X1122236Y724279D01*
X1123706Y723670D01*
X1125297D01*
X1126768Y724279D01*
X1127893Y725404D01*
X1128502Y726874D01*
Y728466D01*
X1127893Y729936D01*
X1126768Y731061D01*
X1125297Y731670D01*
D02*
G37*
G36*
X817254Y726500D02*
X815862D01*
X814576Y725967D01*
X813591Y724983D01*
X813058Y723696D01*
Y722304D01*
X813591Y721017D01*
X814576Y720033D01*
X815862Y719500D01*
X817254D01*
X818541Y720033D01*
X819525Y721017D01*
X820058Y722304D01*
Y723696D01*
X819525Y724983D01*
X818541Y725967D01*
X817254Y726500D01*
D02*
G37*
G36*
X841254Y719500D02*
X839862D01*
X838576Y718967D01*
X837591Y717983D01*
X837058Y716696D01*
Y715304D01*
X837591Y714017D01*
X838576Y713033D01*
X839862Y712500D01*
X841254D01*
X842541Y713033D01*
X843525Y714017D01*
X844058Y715304D01*
Y716696D01*
X843525Y717983D01*
X842541Y718967D01*
X841254Y719500D01*
D02*
G37*
G36*
X1125297Y719170D02*
X1123706D01*
X1122236Y718561D01*
X1121111Y717436D01*
X1120502Y715966D01*
Y714374D01*
X1121111Y712904D01*
X1122236Y711779D01*
X1123706Y711170D01*
X1125297D01*
X1126768Y711779D01*
X1127893Y712904D01*
X1128502Y714374D01*
Y715966D01*
X1127893Y717436D01*
X1126768Y718561D01*
X1125297Y719170D01*
D02*
G37*
G36*
X1112797D02*
X1111206D01*
X1109736Y718561D01*
X1108611Y717436D01*
X1108002Y715966D01*
Y714374D01*
X1108611Y712904D01*
X1109736Y711779D01*
X1111206Y711170D01*
X1112797D01*
X1114268Y711779D01*
X1115393Y712904D01*
X1116002Y714374D01*
Y715966D01*
X1115393Y717436D01*
X1114268Y718561D01*
X1112797Y719170D01*
D02*
G37*
G36*
X812254Y717500D02*
X810862D01*
X809576Y716967D01*
X808591Y715983D01*
X808058Y714696D01*
Y713304D01*
X808591Y712017D01*
X809576Y711033D01*
X810862Y710500D01*
X812254D01*
X813541Y711033D01*
X814525Y712017D01*
X815058Y713304D01*
Y714696D01*
X814525Y715983D01*
X813541Y716967D01*
X812254Y717500D01*
D02*
G37*
G36*
X705288Y712144D02*
X703895D01*
X702609Y711611D01*
X701624Y710626D01*
X701091Y709340D01*
Y707947D01*
X701624Y706661D01*
X702609Y705677D01*
X703895Y705144D01*
X705288D01*
X706574Y705677D01*
X707559Y706661D01*
X708091Y707947D01*
Y709340D01*
X707559Y710626D01*
X706574Y711611D01*
X705288Y712144D01*
D02*
G37*
G36*
X1007797Y711670D02*
X1006206D01*
X1004736Y711061D01*
X1003611Y709936D01*
X1003002Y708466D01*
Y706874D01*
X1003611Y705404D01*
X1004736Y704279D01*
X1006206Y703670D01*
X1007797D01*
X1009268Y704279D01*
X1010393Y705404D01*
X1011002Y706874D01*
Y708466D01*
X1010393Y709936D01*
X1009268Y711061D01*
X1007797Y711670D01*
D02*
G37*
G36*
X1000297Y704170D02*
X998706D01*
X997236Y703561D01*
X996111Y702436D01*
X995502Y700966D01*
Y699374D01*
X996111Y697904D01*
X997236Y696779D01*
X998706Y696170D01*
X1000297D01*
X1001768Y696779D01*
X1002893Y697904D01*
X1003502Y699374D01*
Y700966D01*
X1002893Y702436D01*
X1001768Y703561D01*
X1000297Y704170D01*
D02*
G37*
G36*
X807696Y697500D02*
X806304D01*
X805017Y696967D01*
X804033Y695983D01*
X803500Y694696D01*
Y694246D01*
X802230Y693720D01*
X801982Y693967D01*
X800696Y694500D01*
X799304D01*
X798017Y693967D01*
X797033Y692983D01*
X796500Y691696D01*
Y690304D01*
X797033Y689017D01*
X798017Y688033D01*
X799304Y687500D01*
X800696D01*
X801616Y687881D01*
X802638Y687029D01*
X802500Y686696D01*
Y685304D01*
X803033Y684017D01*
X804017Y683033D01*
X805304Y682500D01*
X806696D01*
X807983Y683033D01*
X808967Y684017D01*
X809500Y685304D01*
Y686696D01*
X808967Y687983D01*
X807983Y688967D01*
X807348Y689230D01*
X807601Y690500D01*
X807696D01*
X808983Y691033D01*
X809967Y692017D01*
X810500Y693304D01*
Y694696D01*
X809967Y695983D01*
X808983Y696967D01*
X807696Y697500D01*
D02*
G37*
G36*
X840696Y698500D02*
X839304D01*
X838017Y697967D01*
X837033Y696983D01*
X836500Y695696D01*
Y694304D01*
X837033Y693017D01*
X838017Y692033D01*
X839304Y691500D01*
X840696D01*
X841982Y692033D01*
X842967Y693017D01*
X843500Y694304D01*
Y695696D01*
X842967Y696983D01*
X841982Y697967D01*
X840696Y698500D01*
D02*
G37*
G36*
X1008298Y698170D02*
X1006706D01*
X1005236Y697561D01*
X1004111Y696436D01*
X1003502Y694966D01*
Y693374D01*
X1004111Y691904D01*
X1005236Y690779D01*
X1006706Y690170D01*
X1008298D01*
X1009768Y690779D01*
X1010893Y691904D01*
X1011502Y693374D01*
Y694966D01*
X1010893Y696436D01*
X1009768Y697561D01*
X1008298Y698170D01*
D02*
G37*
G36*
X1125297Y689170D02*
X1123706D01*
X1122236Y688561D01*
X1121111Y687436D01*
X1120502Y685966D01*
Y684374D01*
X1121111Y682904D01*
X1122236Y681779D01*
X1123706Y681170D01*
X1125297D01*
X1126768Y681779D01*
X1127893Y682904D01*
X1128502Y684374D01*
Y685966D01*
X1127893Y687436D01*
X1126768Y688561D01*
X1125297Y689170D01*
D02*
G37*
G36*
X863696Y687500D02*
X862304D01*
X861017Y686967D01*
X860033Y685983D01*
X859500Y684696D01*
Y683304D01*
X860033Y682017D01*
X861017Y681033D01*
X862304Y680500D01*
X863696D01*
X864983Y681033D01*
X865967Y682017D01*
X866500Y683304D01*
Y684696D01*
X865967Y685983D01*
X864983Y686967D01*
X863696Y687500D01*
D02*
G37*
G36*
X678696Y682500D02*
X677304D01*
X676017Y681967D01*
X675033Y680983D01*
X674500Y679696D01*
Y678304D01*
X675033Y677017D01*
X676017Y676033D01*
X677304Y675500D01*
X678696D01*
X679983Y676033D01*
X680967Y677017D01*
X681500Y678304D01*
Y679696D01*
X680967Y680983D01*
X679983Y681967D01*
X678696Y682500D01*
D02*
G37*
G36*
X770696Y676500D02*
X769304D01*
X768017Y675967D01*
X767033Y674983D01*
X766500Y673696D01*
Y672304D01*
X767033Y671017D01*
X768017Y670033D01*
X769304Y669500D01*
X770696D01*
X771983Y670033D01*
X772967Y671017D01*
X773500Y672304D01*
Y673696D01*
X772967Y674983D01*
X771983Y675967D01*
X770696Y676500D01*
D02*
G37*
G36*
X761696D02*
X760304D01*
X759017Y675967D01*
X758033Y674983D01*
X757500Y673696D01*
Y672304D01*
X758033Y671017D01*
X759017Y670033D01*
X760304Y669500D01*
X761696D01*
X762983Y670033D01*
X763967Y671017D01*
X764500Y672304D01*
Y673696D01*
X763967Y674983D01*
X762983Y675967D01*
X761696Y676500D01*
D02*
G37*
G36*
X1125297Y676670D02*
X1123706D01*
X1122236Y676061D01*
X1121111Y674936D01*
X1120502Y673466D01*
Y671874D01*
X1121111Y670404D01*
X1122236Y669279D01*
X1123706Y668670D01*
X1125297D01*
X1126768Y669279D01*
X1127893Y670404D01*
X1128502Y671874D01*
Y673466D01*
X1127893Y674936D01*
X1126768Y676061D01*
X1125297Y676670D01*
D02*
G37*
G36*
X1112797D02*
X1111206D01*
X1109736Y676061D01*
X1108611Y674936D01*
X1108002Y673466D01*
Y671874D01*
X1108611Y670404D01*
X1109736Y669279D01*
X1111206Y668670D01*
X1112797D01*
X1114268Y669279D01*
X1115393Y670404D01*
X1116002Y671874D01*
Y673466D01*
X1115393Y674936D01*
X1114268Y676061D01*
X1112797Y676670D01*
D02*
G37*
G36*
X780696Y674500D02*
X779304D01*
X778017Y673967D01*
X777033Y672983D01*
X776500Y671696D01*
Y670304D01*
X777033Y669017D01*
X778017Y668033D01*
X779304Y667500D01*
X780696D01*
X781983Y668033D01*
X782967Y669017D01*
X783500Y670304D01*
Y671696D01*
X782967Y672983D01*
X781983Y673967D01*
X780696Y674500D01*
D02*
G37*
G36*
X685254Y673500D02*
X683862D01*
X682576Y672967D01*
X681591Y671983D01*
X681058Y670696D01*
Y669304D01*
X681591Y668017D01*
X682576Y667033D01*
X683862Y666500D01*
X685254D01*
X686541Y667033D01*
X687525Y668017D01*
X688058Y669304D01*
Y670696D01*
X687525Y671983D01*
X686541Y672967D01*
X685254Y673500D01*
D02*
G37*
G36*
X1004796Y670000D02*
X1003204D01*
X1001734Y669391D01*
X1000609Y668266D01*
X1000000Y666796D01*
Y665204D01*
X1000609Y663734D01*
X1001734Y662609D01*
X1003204Y662000D01*
X1004796D01*
X1006266Y662609D01*
X1007391Y663734D01*
X1008000Y665204D01*
Y666796D01*
X1007391Y668266D01*
X1006266Y669391D01*
X1004796Y670000D01*
D02*
G37*
G36*
X847354Y668000D02*
X845762D01*
X844292Y667391D01*
X843167Y666266D01*
X842558Y664796D01*
Y663204D01*
X843167Y661734D01*
X844292Y660609D01*
X845762Y660000D01*
X847354D01*
X848824Y660609D01*
X849949Y661734D01*
X850558Y663204D01*
Y664796D01*
X849949Y666266D01*
X848824Y667391D01*
X847354Y668000D01*
D02*
G37*
G36*
X1015796Y662000D02*
X1014204D01*
X1012734Y661391D01*
X1011609Y660266D01*
X1011000Y658796D01*
Y657204D01*
X1011609Y655734D01*
X1012734Y654609D01*
X1014204Y654000D01*
X1015796D01*
X1017266Y654609D01*
X1018391Y655734D01*
X1019000Y657204D01*
Y658796D01*
X1018391Y660266D01*
X1017266Y661391D01*
X1015796Y662000D01*
D02*
G37*
G36*
X998796D02*
X997204D01*
X995734Y661391D01*
X994609Y660266D01*
X994000Y658796D01*
Y657204D01*
X994609Y655734D01*
X995734Y654609D01*
X997204Y654000D01*
X998796D01*
X1000266Y654609D01*
X1001391Y655734D01*
X1002000Y657204D01*
Y658796D01*
X1001391Y660266D01*
X1000266Y661391D01*
X998796Y662000D01*
D02*
G37*
G36*
X840354Y661000D02*
X838762D01*
X837292Y660391D01*
X836167Y659266D01*
X835558Y657796D01*
Y656204D01*
X836167Y654734D01*
X837292Y653609D01*
X838762Y653000D01*
X840354D01*
X841824Y653609D01*
X842949Y654734D01*
X843558Y656204D01*
Y657796D01*
X842949Y659266D01*
X841824Y660391D01*
X840354Y661000D01*
D02*
G37*
G36*
X1156100Y660765D02*
X1146100D01*
X1144142Y660507D01*
X1142318Y659751D01*
X1140751Y658549D01*
X1139549Y656982D01*
X1138793Y655158D01*
X1138535Y653200D01*
X1138793Y651242D01*
X1139549Y649418D01*
X1140751Y647851D01*
X1142318Y646649D01*
X1144142Y645893D01*
X1146100Y645635D01*
X1156100D01*
X1158058Y645893D01*
X1159882Y646649D01*
X1161449Y647851D01*
X1162651Y649418D01*
X1163407Y651242D01*
X1163665Y653200D01*
X1163407Y655158D01*
X1162651Y656982D01*
X1161449Y658549D01*
X1159882Y659751D01*
X1158058Y660507D01*
X1156100Y660765D01*
D02*
G37*
G36*
X847354Y653000D02*
X845762D01*
X844292Y652391D01*
X843167Y651266D01*
X842558Y649796D01*
Y648204D01*
X843167Y646734D01*
X844292Y645609D01*
X845762Y645000D01*
X847354D01*
X848824Y645609D01*
X849949Y646734D01*
X850558Y648204D01*
Y649796D01*
X849949Y651266D01*
X848824Y652391D01*
X847354Y653000D01*
D02*
G37*
G36*
X793254Y649500D02*
X791862D01*
X790575Y648967D01*
X789591Y647983D01*
X789058Y646696D01*
Y645304D01*
X789591Y644017D01*
X790575Y643033D01*
X791862Y642500D01*
X793254D01*
X794541Y643033D01*
X795525Y644017D01*
X796058Y645304D01*
Y646696D01*
X795525Y647983D01*
X794541Y648967D01*
X793254Y649500D01*
D02*
G37*
G36*
X755638Y631000D02*
X754246D01*
X752959Y630467D01*
X751975Y629483D01*
X751442Y628196D01*
Y626804D01*
X751975Y625517D01*
X752959Y624533D01*
X754246Y624000D01*
X755638D01*
X756925Y624533D01*
X757909Y625517D01*
X758442Y626804D01*
Y628196D01*
X757909Y629483D01*
X756925Y630467D01*
X755638Y631000D01*
D02*
G37*
G36*
X724138Y629500D02*
X722746D01*
X721459Y628967D01*
X720475Y627983D01*
X719942Y626696D01*
Y625304D01*
X720475Y624017D01*
X721459Y623033D01*
X722746Y622500D01*
X724138D01*
X725424Y623033D01*
X726409Y624017D01*
X726942Y625304D01*
Y626696D01*
X726409Y627983D01*
X725424Y628967D01*
X724138Y629500D01*
D02*
G37*
G36*
X1133946Y639950D02*
X1132554D01*
X1131267Y639417D01*
X1130283Y638433D01*
X1129750Y637146D01*
Y635754D01*
X1130283Y634467D01*
X1130837Y633913D01*
X1131130Y633100D01*
X1130837Y632286D01*
X1130283Y631733D01*
X1129750Y630446D01*
Y629054D01*
X1130283Y627767D01*
X1131267Y626783D01*
X1132554Y626250D01*
X1133946D01*
X1134439Y626454D01*
X1134982Y626066D01*
X1135500Y625519D01*
Y624304D01*
X1136033Y623017D01*
X1137017Y622033D01*
X1138304Y621500D01*
X1139696D01*
X1140983Y622033D01*
X1141967Y623017D01*
X1142500Y624304D01*
Y625696D01*
X1141967Y626983D01*
X1140983Y627967D01*
X1139696Y628500D01*
X1138304D01*
X1137811Y628296D01*
X1137268Y628684D01*
X1136750Y629231D01*
Y630446D01*
X1136217Y631733D01*
X1135663Y632286D01*
X1135370Y633100D01*
X1135663Y633913D01*
X1136217Y634467D01*
X1136750Y635754D01*
Y637146D01*
X1136217Y638433D01*
X1135233Y639417D01*
X1133946Y639950D01*
D02*
G37*
G36*
X1168696Y626500D02*
X1167304D01*
X1166017Y625967D01*
X1165033Y624983D01*
X1164500Y623696D01*
Y622304D01*
X1165033Y621017D01*
X1166017Y620033D01*
X1167304Y619500D01*
X1168696D01*
X1169983Y620033D01*
X1170967Y621017D01*
X1171500Y622304D01*
Y623696D01*
X1170967Y624983D01*
X1169983Y625967D01*
X1168696Y626500D01*
D02*
G37*
G36*
X948196Y622500D02*
X946804D01*
X945517Y621967D01*
X944533Y620983D01*
X944000Y619696D01*
Y618304D01*
X944533Y617017D01*
X945517Y616033D01*
X946804Y615500D01*
X948196D01*
X949483Y616033D01*
X950467Y617017D01*
X951000Y618304D01*
Y619696D01*
X950467Y620983D01*
X949483Y621967D01*
X948196Y622500D01*
D02*
G37*
G36*
X1174696Y616500D02*
X1173304D01*
X1172017Y615967D01*
X1171455Y615404D01*
X1171033Y614983D01*
X1169822Y615378D01*
X1169733Y615467D01*
X1168446Y616000D01*
X1167054D01*
X1165767Y615467D01*
X1164783Y614483D01*
X1164250Y613196D01*
Y611804D01*
X1164783Y610517D01*
X1165767Y609533D01*
X1167054Y609000D01*
X1168446D01*
X1169733Y609533D01*
X1170295Y610096D01*
X1170717Y610517D01*
X1171928Y610122D01*
X1172017Y610033D01*
X1173304Y609500D01*
X1174696D01*
X1175983Y610033D01*
X1176967Y611017D01*
X1177500Y612304D01*
Y613696D01*
X1176967Y614983D01*
X1175983Y615967D01*
X1174696Y616500D01*
D02*
G37*
G36*
X1140275Y620046D02*
X1138883D01*
X1137596Y619513D01*
X1136612Y618529D01*
X1136079Y617242D01*
Y615850D01*
X1136612Y614563D01*
X1137596Y613579D01*
X1138883Y613046D01*
X1140275D01*
X1141562Y613579D01*
X1142546Y614563D01*
X1143079Y615850D01*
Y617242D01*
X1142546Y618529D01*
X1141562Y619513D01*
X1140275Y620046D01*
D02*
G37*
G36*
X815345Y616500D02*
X813953D01*
X812666Y615967D01*
X811682Y614983D01*
X811149Y613696D01*
Y612304D01*
X811682Y611017D01*
X812666Y610033D01*
X813953Y609500D01*
X815345D01*
X816632Y610033D01*
X817616Y611017D01*
X818149Y612304D01*
Y613696D01*
X817616Y614983D01*
X816632Y615967D01*
X815345Y616500D01*
D02*
G37*
G36*
X800345D02*
X798953D01*
X797666Y615967D01*
X796682Y614983D01*
X796149Y613696D01*
Y612304D01*
X796682Y611017D01*
X797666Y610033D01*
X798953Y609500D01*
X800345D01*
X801632Y610033D01*
X802616Y611017D01*
X803149Y612304D01*
Y613696D01*
X802616Y614983D01*
X801632Y615967D01*
X800345Y616500D01*
D02*
G37*
G36*
X830696Y616500D02*
X829304D01*
X828017Y615967D01*
X827033Y614983D01*
X826500Y613696D01*
Y612304D01*
X827033Y611017D01*
X828017Y610033D01*
X829304Y609500D01*
X830696D01*
X831983Y610033D01*
X832967Y611017D01*
X833500Y612304D01*
Y613696D01*
X832967Y614983D01*
X831983Y615967D01*
X830696Y616500D01*
D02*
G37*
G36*
X1117953Y615375D02*
X1116561D01*
X1115274Y614842D01*
X1114290Y613858D01*
X1113757Y612571D01*
Y611435D01*
X1113039Y610719D01*
X1112696Y610500D01*
X1111304D01*
X1110017Y609967D01*
X1109033Y608983D01*
X1108500Y607696D01*
Y606304D01*
X1108881Y605384D01*
X1108029Y604362D01*
X1107696Y604500D01*
X1106304D01*
X1105017Y603967D01*
X1104033Y602983D01*
X1103500Y601696D01*
Y600304D01*
X1104033Y599017D01*
X1105017Y598033D01*
X1106304Y597500D01*
X1107696D01*
X1108983Y598033D01*
X1109967Y599017D01*
X1110500Y600304D01*
Y601696D01*
X1110119Y602616D01*
X1110971Y603638D01*
X1111304Y603500D01*
X1112696D01*
X1113983Y604033D01*
X1114967Y605017D01*
X1115500Y606304D01*
Y607440D01*
X1116218Y608156D01*
X1116561Y608375D01*
X1117953D01*
X1119240Y608908D01*
X1120224Y609892D01*
X1120757Y611179D01*
Y612571D01*
X1120224Y613858D01*
X1119240Y614842D01*
X1117953Y615375D01*
D02*
G37*
G36*
X705696Y611000D02*
X704304D01*
X703017Y610467D01*
X702033Y609483D01*
X701500Y608196D01*
Y606804D01*
X702033Y605517D01*
X703017Y604533D01*
X704304Y604000D01*
X705696D01*
X706983Y604533D01*
X707967Y605517D01*
X708500Y606804D01*
Y608196D01*
X707967Y609483D01*
X706983Y610467D01*
X705696Y611000D01*
D02*
G37*
G36*
X1138696Y609500D02*
X1137304D01*
X1136017Y608967D01*
X1135033Y607983D01*
X1134500Y606696D01*
Y605304D01*
X1135033Y604017D01*
X1136017Y603033D01*
X1137304Y602500D01*
X1138696D01*
X1139983Y603033D01*
X1140967Y604017D01*
X1141500Y605304D01*
Y606696D01*
X1140967Y607983D01*
X1139983Y608967D01*
X1138696Y609500D01*
D02*
G37*
G36*
X948696Y608500D02*
X947304D01*
X946017Y607967D01*
X945033Y606983D01*
X944500Y605696D01*
Y604304D01*
X945033Y603017D01*
X946017Y602033D01*
X947304Y601500D01*
X948696D01*
X949983Y602033D01*
X950967Y603017D01*
X951500Y604304D01*
Y605696D01*
X950967Y606983D01*
X949983Y607967D01*
X948696Y608500D01*
D02*
G37*
G36*
X1169696Y601500D02*
X1168304D01*
X1167017Y600967D01*
X1166033Y599983D01*
X1165500Y598696D01*
Y597304D01*
X1166033Y596017D01*
X1167017Y595033D01*
X1168304Y594500D01*
X1169696D01*
X1170983Y595033D01*
X1171967Y596017D01*
X1172500Y597304D01*
Y598696D01*
X1171967Y599983D01*
X1170983Y600967D01*
X1169696Y601500D01*
D02*
G37*
G36*
X1138696Y598500D02*
X1137304D01*
X1136017Y597967D01*
X1135033Y596983D01*
X1134500Y595696D01*
Y594304D01*
X1133493Y593416D01*
X1132688Y593750D01*
X1131295D01*
X1130009Y593217D01*
X1129024Y592233D01*
X1128492Y590946D01*
Y589554D01*
X1129024Y588267D01*
X1129860Y587432D01*
X1129025Y586597D01*
X1128492Y585311D01*
Y583918D01*
X1129025Y582632D01*
X1130009Y581647D01*
X1131296Y581114D01*
X1132688D01*
X1133974Y581647D01*
X1134959Y582632D01*
X1135492Y583918D01*
Y585311D01*
X1134959Y586597D01*
X1134124Y587432D01*
X1134959Y588267D01*
X1135492Y589554D01*
Y590946D01*
X1136499Y591833D01*
X1137304Y591500D01*
X1138696D01*
X1139983Y592033D01*
X1140967Y593017D01*
X1141500Y594304D01*
Y595696D01*
X1140967Y596983D01*
X1139983Y597967D01*
X1138696Y598500D01*
D02*
G37*
G36*
X700696D02*
X699304D01*
X698017Y597967D01*
X697033Y596983D01*
X696500Y595696D01*
Y594304D01*
X697033Y593017D01*
X698017Y592033D01*
X699304Y591500D01*
X700696D01*
X701982Y592033D01*
X702967Y593017D01*
X703500Y594304D01*
Y595696D01*
X702967Y596983D01*
X701982Y597967D01*
X700696Y598500D01*
D02*
G37*
G36*
X656696Y593500D02*
X655304D01*
X654017Y592967D01*
X653033Y591983D01*
X652500Y590696D01*
Y589304D01*
X653033Y588017D01*
X654017Y587033D01*
X655304Y586500D01*
X656696D01*
X657983Y587033D01*
X658967Y588017D01*
X659500Y589304D01*
Y590696D01*
X658967Y591983D01*
X657983Y592967D01*
X656696Y593500D01*
D02*
G37*
G36*
X1177446Y596750D02*
X1176054D01*
X1174767Y596217D01*
X1173783Y595233D01*
X1173250Y593946D01*
Y592554D01*
X1173783Y591267D01*
X1174600Y590450D01*
X1173783Y589633D01*
X1173250Y588346D01*
Y586954D01*
X1173783Y585667D01*
X1174767Y584683D01*
X1176054Y584150D01*
X1177446D01*
X1178733Y584683D01*
X1179717Y585667D01*
X1180250Y586954D01*
Y588346D01*
X1179717Y589633D01*
X1178900Y590450D01*
X1179717Y591267D01*
X1180250Y592554D01*
Y593946D01*
X1179717Y595233D01*
X1178733Y596217D01*
X1177446Y596750D01*
D02*
G37*
G36*
X865696Y590500D02*
X864304D01*
X863017Y589967D01*
X862033Y588983D01*
X861500Y587696D01*
Y586304D01*
X862033Y585017D01*
X863017Y584033D01*
X864304Y583500D01*
X865696D01*
X866982Y584033D01*
X867967Y585017D01*
X868500Y586304D01*
Y587696D01*
X867967Y588983D01*
X866982Y589967D01*
X865696Y590500D01*
D02*
G37*
G36*
X1002696Y581500D02*
X1001304D01*
X1000017Y580967D01*
X999033Y579983D01*
X998500Y578696D01*
Y577304D01*
X999033Y576017D01*
X1000017Y575033D01*
X1001304Y574500D01*
X1002696D01*
X1003983Y575033D01*
X1004967Y576017D01*
X1005500Y577304D01*
Y578696D01*
X1004967Y579983D01*
X1003983Y580967D01*
X1002696Y581500D01*
D02*
G37*
G36*
X938196Y581000D02*
X936804D01*
X935517Y580467D01*
X934533Y579483D01*
X934000Y578196D01*
Y576804D01*
X934533Y575517D01*
X935517Y574533D01*
X936804Y574000D01*
X938196D01*
X939483Y574533D01*
X940467Y575517D01*
X941000Y576804D01*
Y578196D01*
X940467Y579483D01*
X939483Y580467D01*
X938196Y581000D01*
D02*
G37*
G36*
X963696Y579500D02*
X962304D01*
X961017Y578967D01*
X960033Y577983D01*
X959500Y576696D01*
Y575304D01*
X960033Y574017D01*
X961017Y573033D01*
X962304Y572500D01*
X963696D01*
X964983Y573033D01*
X965967Y574017D01*
X966500Y575304D01*
Y576696D01*
X965967Y577983D01*
X964983Y578967D01*
X963696Y579500D01*
D02*
G37*
G36*
X912696D02*
X911304D01*
X910017Y578967D01*
X909033Y577983D01*
X908500Y576696D01*
Y575304D01*
X909033Y574017D01*
X910017Y573033D01*
X911304Y572500D01*
X912696D01*
X913983Y573033D01*
X914967Y574017D01*
X915500Y575304D01*
Y576696D01*
X914967Y577983D01*
X913983Y578967D01*
X912696Y579500D01*
D02*
G37*
G36*
X730696Y583500D02*
X729304D01*
X728017Y582967D01*
X727033Y581983D01*
X726500Y580696D01*
Y579304D01*
X727033Y578017D01*
X728017Y577033D01*
X729304Y576500D01*
X730458D01*
X731046Y576046D01*
X731500Y575458D01*
Y574304D01*
X732033Y573017D01*
X733017Y572033D01*
X734304Y571500D01*
X735696D01*
X736982Y572033D01*
X737967Y573017D01*
X738500Y574304D01*
Y575696D01*
X737967Y576983D01*
X736982Y577967D01*
X735696Y578500D01*
X734542D01*
X733954Y578954D01*
X733500Y579542D01*
Y580696D01*
X732967Y581983D01*
X731983Y582967D01*
X730696Y583500D01*
D02*
G37*
G36*
X1093196Y583000D02*
X1091804D01*
X1090517Y582467D01*
X1089533Y581483D01*
X1089000Y580196D01*
Y578804D01*
X1089533Y577517D01*
X1090350Y576700D01*
X1089533Y575883D01*
X1089000Y574596D01*
Y573204D01*
X1089533Y571917D01*
X1090517Y570933D01*
X1091804Y570400D01*
X1093196D01*
X1094483Y570933D01*
X1095467Y571917D01*
X1096000Y573204D01*
Y574596D01*
X1095467Y575883D01*
X1094650Y576700D01*
X1095467Y577517D01*
X1096000Y578804D01*
Y580196D01*
X1095467Y581483D01*
X1094483Y582467D01*
X1093196Y583000D01*
D02*
G37*
G36*
X1173696Y581200D02*
X1172304D01*
X1171017Y580667D01*
X1170033Y579683D01*
X1169500Y578396D01*
Y577004D01*
X1170033Y575717D01*
X1170747Y575003D01*
X1170695Y574741D01*
X1169710Y573756D01*
X1169177Y572470D01*
Y571077D01*
X1169710Y569791D01*
X1170695Y568806D01*
X1171981Y568274D01*
X1173374D01*
X1174660Y568806D01*
X1175645Y569791D01*
X1176177Y571077D01*
Y572470D01*
X1175645Y573756D01*
X1174930Y574470D01*
X1174983Y574733D01*
X1175967Y575717D01*
X1176500Y577004D01*
Y578396D01*
X1175967Y579683D01*
X1174983Y580667D01*
X1173696Y581200D01*
D02*
G37*
G36*
X1035696Y571500D02*
X1034304D01*
X1033017Y570967D01*
X1032033Y569983D01*
X1031500Y568696D01*
Y567304D01*
X1032033Y566017D01*
X1033017Y565033D01*
X1034304Y564500D01*
X1035696D01*
X1036983Y565033D01*
X1037967Y566017D01*
X1038500Y567304D01*
Y568696D01*
X1037967Y569983D01*
X1036983Y570967D01*
X1035696Y571500D01*
D02*
G37*
G36*
X1156100Y574365D02*
X1146100D01*
X1144142Y574107D01*
X1142318Y573351D01*
X1140751Y572149D01*
X1139549Y570582D01*
X1138793Y568758D01*
X1138535Y566800D01*
X1138793Y564842D01*
X1139549Y563018D01*
X1140751Y561451D01*
X1142318Y560249D01*
X1144142Y559493D01*
X1146100Y559235D01*
X1156100D01*
X1158058Y559493D01*
X1159882Y560249D01*
X1161449Y561451D01*
X1162651Y563018D01*
X1163407Y564842D01*
X1163665Y566800D01*
X1163407Y568758D01*
X1162651Y570582D01*
X1161449Y572149D01*
X1159882Y573351D01*
X1158058Y574107D01*
X1156100Y574365D01*
D02*
G37*
G36*
X1045696Y562500D02*
X1044304D01*
X1043017Y561967D01*
X1042033Y560983D01*
X1041500Y559696D01*
Y558304D01*
X1042033Y557017D01*
X1043017Y556033D01*
X1044304Y555500D01*
X1045696D01*
X1046983Y556033D01*
X1047967Y557017D01*
X1048500Y558304D01*
Y559696D01*
X1047967Y560983D01*
X1046983Y561967D01*
X1045696Y562500D01*
D02*
G37*
G36*
X1000696Y561000D02*
X999304D01*
X998017Y560467D01*
X997033Y559483D01*
X996500Y558196D01*
Y556804D01*
X997033Y555517D01*
X998017Y554533D01*
X999304Y554000D01*
X1000696D01*
X1001983Y554533D01*
X1002967Y555517D01*
X1003500Y556804D01*
Y558196D01*
X1002967Y559483D01*
X1001983Y560467D01*
X1000696Y561000D01*
D02*
G37*
G36*
X913196D02*
X911804D01*
X910517Y560467D01*
X909533Y559483D01*
X909000Y558196D01*
Y556804D01*
X909533Y555517D01*
X910517Y554533D01*
X911804Y554000D01*
X913196D01*
X914482Y554533D01*
X915467Y555517D01*
X916000Y556804D01*
Y558196D01*
X915467Y559483D01*
X914482Y560467D01*
X913196Y561000D01*
D02*
G37*
G36*
X609251Y563100D02*
X606749D01*
X604333Y562453D01*
X602167Y561202D01*
X600398Y559433D01*
X599147Y557267D01*
X598500Y554851D01*
Y552349D01*
X599147Y549933D01*
X600398Y547767D01*
X602167Y545998D01*
X604333Y544747D01*
X606749Y544100D01*
X609251D01*
X611667Y544747D01*
X613833Y545998D01*
X615602Y547767D01*
X616853Y549933D01*
X617500Y552349D01*
Y554851D01*
X616853Y557267D01*
X615602Y559433D01*
X613833Y561202D01*
X611667Y562453D01*
X609251Y563100D01*
D02*
G37*
G36*
X974468Y551000D02*
X973075D01*
X971789Y550467D01*
X970805Y549483D01*
X970272Y548196D01*
Y546804D01*
X970805Y545517D01*
X971789Y544533D01*
X973075Y544000D01*
X974468D01*
X975754Y544533D01*
X976739Y545517D01*
X977272Y546804D01*
Y548196D01*
X976739Y549483D01*
X975754Y550467D01*
X974468Y551000D01*
D02*
G37*
G36*
X938696Y548500D02*
X937304D01*
X936017Y547967D01*
X935033Y546983D01*
X934500Y545696D01*
Y544304D01*
X935033Y543017D01*
X936017Y542033D01*
X937304Y541500D01*
X938696D01*
X939983Y542033D01*
X940967Y543017D01*
X941500Y544304D01*
Y545696D01*
X940967Y546983D01*
X939983Y547967D01*
X938696Y548500D01*
D02*
G37*
G36*
X718196D02*
X716804D01*
X715517Y547967D01*
X714533Y546983D01*
X714000Y545696D01*
Y544304D01*
X714533Y543017D01*
X715517Y542033D01*
X716804Y541500D01*
X718196D01*
X719483Y542033D01*
X720467Y543017D01*
X721000Y544304D01*
Y545696D01*
X720467Y546983D01*
X719483Y547967D01*
X718196Y548500D01*
D02*
G37*
G36*
X848696Y546500D02*
X847304D01*
X846017Y545967D01*
X845033Y544983D01*
X844500Y543696D01*
Y542304D01*
X845033Y541017D01*
X846017Y540033D01*
X847304Y539500D01*
X848696D01*
X849983Y540033D01*
X850967Y541017D01*
X851500Y542304D01*
Y543696D01*
X850967Y544983D01*
X849983Y545967D01*
X848696Y546500D01*
D02*
G37*
G36*
X1041696Y543500D02*
X1040304D01*
X1039017Y542967D01*
X1038033Y541983D01*
X1037500Y540696D01*
Y539304D01*
X1038033Y538017D01*
X1039017Y537033D01*
X1040304Y536500D01*
X1041696D01*
X1042982Y537033D01*
X1043967Y538017D01*
X1044500Y539304D01*
Y540696D01*
X1043967Y541983D01*
X1042982Y542967D01*
X1041696Y543500D01*
D02*
G37*
G36*
X860696Y538500D02*
X859304D01*
X858017Y537967D01*
X857033Y536983D01*
X856500Y535696D01*
Y534304D01*
X857033Y533017D01*
X858017Y532033D01*
X859304Y531500D01*
X860696D01*
X861983Y532033D01*
X862967Y533017D01*
X863500Y534304D01*
Y535696D01*
X862967Y536983D01*
X861983Y537967D01*
X860696Y538500D01*
D02*
G37*
G36*
X718196D02*
X716804D01*
X715517Y537967D01*
X714533Y536983D01*
X714000Y535696D01*
Y534304D01*
X714533Y533017D01*
X715517Y532033D01*
X716804Y531500D01*
X718196D01*
X719483Y532033D01*
X720467Y533017D01*
X721000Y534304D01*
Y535696D01*
X720467Y536983D01*
X719483Y537967D01*
X718196Y538500D01*
D02*
G37*
G36*
X703196D02*
X701804D01*
X700517Y537967D01*
X699533Y536983D01*
X699000Y535696D01*
Y534304D01*
X699533Y533017D01*
X700517Y532033D01*
X701804Y531500D01*
X703196D01*
X704483Y532033D01*
X705467Y533017D01*
X706000Y534304D01*
Y535696D01*
X705467Y536983D01*
X704483Y537967D01*
X703196Y538500D01*
D02*
G37*
G36*
X971696Y531500D02*
X970304D01*
X969017Y530967D01*
X968033Y529983D01*
X967500Y528696D01*
Y527304D01*
X968033Y526017D01*
X969017Y525033D01*
X970304Y524500D01*
X971696D01*
X972983Y525033D01*
X973967Y526017D01*
X974500Y527304D01*
Y528696D01*
X973967Y529983D01*
X972983Y530967D01*
X971696Y531500D01*
D02*
G37*
G36*
X1041696Y529500D02*
X1040304D01*
X1039017Y528967D01*
X1038033Y527983D01*
X1037500Y526696D01*
Y525304D01*
X1038033Y524017D01*
X1039017Y523033D01*
X1040304Y522500D01*
X1041696D01*
X1042982Y523033D01*
X1043967Y524017D01*
X1044500Y525304D01*
Y526696D01*
X1043967Y527983D01*
X1042982Y528967D01*
X1041696Y529500D01*
D02*
G37*
G36*
X623196Y526000D02*
X621804D01*
X620517Y525467D01*
X619533Y524483D01*
X619000Y523196D01*
Y521804D01*
X619533Y520517D01*
X620517Y519533D01*
X621804Y519000D01*
X623196D01*
X624482Y519533D01*
X625467Y520517D01*
X626000Y521804D01*
Y523196D01*
X625467Y524483D01*
X624482Y525467D01*
X623196Y526000D01*
D02*
G37*
G36*
X609251Y537700D02*
X606749D01*
X604333Y537053D01*
X602167Y535802D01*
X600398Y534033D01*
X599147Y531867D01*
X598500Y529451D01*
Y526949D01*
X599147Y524533D01*
X600398Y522367D01*
X602167Y520598D01*
X604333Y519347D01*
X606749Y518700D01*
X609251D01*
X611667Y519347D01*
X613833Y520598D01*
X615602Y522367D01*
X616853Y524533D01*
X617500Y526949D01*
Y529451D01*
X616853Y531867D01*
X615602Y534033D01*
X613833Y535802D01*
X611667Y537053D01*
X609251Y537700D01*
D02*
G37*
G36*
X1028696Y521500D02*
X1027304D01*
X1026017Y520967D01*
X1025033Y519983D01*
X1024500Y518696D01*
Y517304D01*
X1025033Y516017D01*
X1026017Y515033D01*
X1027304Y514500D01*
X1028696D01*
X1029983Y515033D01*
X1030967Y516017D01*
X1031500Y517304D01*
Y518696D01*
X1030967Y519983D01*
X1029983Y520967D01*
X1028696Y521500D01*
D02*
G37*
G36*
X910696D02*
X909304D01*
X908017Y520967D01*
X907033Y519983D01*
X906500Y518696D01*
Y517304D01*
X907033Y516017D01*
X908017Y515033D01*
X909304Y514500D01*
X910696D01*
X911983Y515033D01*
X912967Y516017D01*
X913500Y517304D01*
Y518696D01*
X912967Y519983D01*
X911983Y520967D01*
X910696Y521500D01*
D02*
G37*
G36*
X825696Y531000D02*
X824304D01*
X823017Y530467D01*
X822033Y529483D01*
X821500Y528196D01*
Y526804D01*
X822033Y525517D01*
X823017Y524533D01*
X824304Y524000D01*
X825458D01*
X826046Y523546D01*
X826500Y522958D01*
Y522042D01*
X826046Y521454D01*
X825458Y521000D01*
X824304D01*
X823017Y520467D01*
X822033Y519483D01*
X821500Y518196D01*
Y516804D01*
X822033Y515517D01*
X823017Y514533D01*
X824304Y514000D01*
X825696D01*
X826982Y514533D01*
X827967Y515517D01*
X828500Y516804D01*
Y517958D01*
X828954Y518546D01*
X829542Y519000D01*
X830696D01*
X831983Y519533D01*
X832967Y520517D01*
X833500Y521804D01*
Y523196D01*
X832967Y524483D01*
X831983Y525467D01*
X830696Y526000D01*
X829542D01*
X828954Y526454D01*
X828500Y527042D01*
Y528196D01*
X827967Y529483D01*
X826982Y530467D01*
X825696Y531000D01*
D02*
G37*
G36*
X977696Y520500D02*
X976304D01*
X975017Y519967D01*
X974033Y518983D01*
X973500Y517696D01*
Y516304D01*
X974033Y515017D01*
X975017Y514033D01*
X976304Y513500D01*
X977696D01*
X978983Y514033D01*
X979967Y515017D01*
X980500Y516304D01*
Y517696D01*
X979967Y518983D01*
X978983Y519967D01*
X977696Y520500D01*
D02*
G37*
G36*
X686696Y516500D02*
X685304D01*
X684017Y515967D01*
X683033Y514983D01*
X682500Y513696D01*
Y512304D01*
X683033Y511017D01*
X684017Y510033D01*
X685304Y509500D01*
X686696D01*
X687982Y510033D01*
X688967Y511017D01*
X689500Y512304D01*
Y513696D01*
X688967Y514983D01*
X687982Y515967D01*
X686696Y516500D01*
D02*
G37*
G36*
X1041696Y515500D02*
X1040304D01*
X1039017Y514967D01*
X1038033Y513983D01*
X1037500Y512696D01*
Y511304D01*
X1038033Y510017D01*
X1039017Y509033D01*
X1040304Y508500D01*
X1041696D01*
X1042982Y509033D01*
X1043967Y510017D01*
X1044500Y511304D01*
Y512696D01*
X1043967Y513983D01*
X1042982Y514967D01*
X1041696Y515500D01*
D02*
G37*
G36*
X1008196Y506000D02*
X1006804D01*
X1005517Y505467D01*
X1004533Y504483D01*
X1004000Y503196D01*
Y501804D01*
X1004533Y500517D01*
X1005517Y499533D01*
X1006804Y499000D01*
X1008196D01*
X1009483Y499533D01*
X1010467Y500517D01*
X1011000Y501804D01*
Y503196D01*
X1010467Y504483D01*
X1009483Y505467D01*
X1008196Y506000D01*
D02*
G37*
G36*
X1041696Y501500D02*
X1040304D01*
X1039017Y500967D01*
X1038033Y499983D01*
X1037500Y498696D01*
Y497304D01*
X1038033Y496017D01*
X1039017Y495033D01*
X1040304Y494500D01*
X1041696D01*
X1042982Y495033D01*
X1043967Y496017D01*
X1044500Y497304D01*
Y498696D01*
X1043967Y499983D01*
X1042982Y500967D01*
X1041696Y501500D01*
D02*
G37*
G36*
X778196Y501000D02*
X776804D01*
X775517Y500467D01*
X774533Y499483D01*
X774000Y498196D01*
Y496804D01*
X774533Y495517D01*
X775517Y494533D01*
X776804Y494000D01*
X778196D01*
X779483Y494533D01*
X780467Y495517D01*
X781000Y496804D01*
Y498196D01*
X780467Y499483D01*
X779483Y500467D01*
X778196Y501000D01*
D02*
G37*
G36*
X713196Y501000D02*
X711804D01*
X710517Y500467D01*
X709533Y499483D01*
X709000Y498196D01*
Y496804D01*
X709533Y495517D01*
X710517Y494533D01*
X711804Y494000D01*
X713196D01*
X714482Y494533D01*
X715467Y495517D01*
X716000Y496804D01*
Y498196D01*
X715467Y499483D01*
X714482Y500467D01*
X713196Y501000D01*
D02*
G37*
G36*
X623196D02*
X621804D01*
X620517Y500467D01*
X619533Y499483D01*
X619000Y498196D01*
Y496804D01*
X619533Y495517D01*
X620517Y494533D01*
X621804Y494000D01*
X623196D01*
X624482Y494533D01*
X625467Y495517D01*
X626000Y496804D01*
Y498196D01*
X625467Y499483D01*
X624482Y500467D01*
X623196Y501000D01*
D02*
G37*
G36*
X846196Y500500D02*
X844804D01*
X843517Y499967D01*
X842533Y498983D01*
X842000Y497696D01*
Y496304D01*
X842533Y495017D01*
X843517Y494033D01*
X844804Y493500D01*
X846196D01*
X847483Y494033D01*
X848467Y495017D01*
X849000Y496304D01*
Y497696D01*
X848467Y498983D01*
X847483Y499967D01*
X846196Y500500D01*
D02*
G37*
G36*
X609251Y512300D02*
X606749D01*
X604333Y511653D01*
X602167Y510402D01*
X600398Y508633D01*
X599147Y506467D01*
X598500Y504051D01*
Y501549D01*
X599147Y499133D01*
X600398Y496967D01*
X602167Y495198D01*
X604333Y493947D01*
X606749Y493300D01*
X609251D01*
X611667Y493947D01*
X613833Y495198D01*
X615602Y496967D01*
X616853Y499133D01*
X617500Y501549D01*
Y504051D01*
X616853Y506467D01*
X615602Y508633D01*
X613833Y510402D01*
X611667Y511653D01*
X609251Y512300D01*
D02*
G37*
G36*
X980696Y496000D02*
X979304D01*
X978017Y495467D01*
X977033Y494483D01*
X976500Y493196D01*
Y491804D01*
X977033Y490517D01*
X978017Y489533D01*
X979304Y489000D01*
X980696D01*
X981983Y489533D01*
X982967Y490517D01*
X983500Y491804D01*
Y493196D01*
X982967Y494483D01*
X981983Y495467D01*
X980696Y496000D01*
D02*
G37*
G36*
X935696Y493500D02*
X934304D01*
X933017Y492967D01*
X932033Y491983D01*
X931500Y490696D01*
Y489304D01*
X932033Y488017D01*
X933017Y487033D01*
X934304Y486500D01*
X935696D01*
X936983Y487033D01*
X937967Y488017D01*
X938500Y489304D01*
Y490696D01*
X937967Y491983D01*
X936983Y492967D01*
X935696Y493500D01*
D02*
G37*
G36*
X760696Y488500D02*
X759304D01*
X758017Y487967D01*
X757033Y486983D01*
X756500Y485696D01*
Y484304D01*
X757033Y483017D01*
X758017Y482033D01*
X759304Y481500D01*
X760696D01*
X761983Y482033D01*
X762967Y483017D01*
X763500Y484304D01*
Y485696D01*
X762967Y486983D01*
X761983Y487967D01*
X760696Y488500D01*
D02*
G37*
G36*
X997400Y484280D02*
Y472400D01*
X1009280D01*
X1008376Y475775D01*
X1006543Y478950D01*
X1003950Y481543D01*
X1000775Y483376D01*
X997400Y484280D01*
D02*
G37*
G36*
X946600D02*
Y472400D01*
X958480D01*
X957576Y475775D01*
X955743Y478950D01*
X953150Y481543D01*
X949975Y483376D01*
X946600Y484280D01*
D02*
G37*
G36*
X993400D02*
X990025Y483376D01*
X986850Y481543D01*
X984257Y478950D01*
X982424Y475775D01*
X981520Y472400D01*
X993400D01*
Y484280D01*
D02*
G37*
G36*
X942600D02*
X939225Y483376D01*
X936050Y481543D01*
X933457Y478950D01*
X931624Y475775D01*
X930720Y472400D01*
X942600D01*
Y484280D01*
D02*
G37*
G36*
X872400D02*
Y472400D01*
X884280D01*
X883376Y475775D01*
X881543Y478950D01*
X878950Y481543D01*
X875775Y483376D01*
X872400Y484280D01*
D02*
G37*
G36*
X821600D02*
Y472400D01*
X833480D01*
X832576Y475775D01*
X830743Y478950D01*
X828150Y481543D01*
X824975Y483376D01*
X821600Y484280D01*
D02*
G37*
G36*
X868400D02*
X865025Y483376D01*
X861850Y481543D01*
X859257Y478950D01*
X857424Y475775D01*
X856520Y472400D01*
X868400D01*
Y484280D01*
D02*
G37*
G36*
X817600D02*
X814225Y483376D01*
X811050Y481543D01*
X808457Y478950D01*
X806624Y475775D01*
X805720Y472400D01*
X817600D01*
Y484280D01*
D02*
G37*
G36*
X609251Y486900D02*
X606749D01*
X604333Y486253D01*
X602167Y485002D01*
X600398Y483233D01*
X599147Y481067D01*
X598500Y478651D01*
Y476149D01*
X599147Y473733D01*
X600398Y471567D01*
X602167Y469798D01*
X604333Y468547D01*
X606749Y467900D01*
X609251D01*
X611667Y468547D01*
X613833Y469798D01*
X615602Y471567D01*
X616853Y473733D01*
X617500Y476149D01*
Y478651D01*
X616853Y481067D01*
X615602Y483233D01*
X613833Y485002D01*
X611667Y486253D01*
X609251Y486900D01*
D02*
G37*
G36*
X761696Y465500D02*
X760304D01*
X759017Y464967D01*
X758033Y463983D01*
X757500Y462696D01*
Y461304D01*
X758033Y460017D01*
X759017Y459033D01*
X760304Y458500D01*
X761696D01*
X762982Y459033D01*
X763967Y460017D01*
X764500Y461304D01*
Y462696D01*
X763967Y463983D01*
X762982Y464967D01*
X761696Y465500D01*
D02*
G37*
G36*
X993400Y468400D02*
X981520D01*
X982424Y465025D01*
X984257Y461850D01*
X986850Y459257D01*
X990025Y457424D01*
X993400Y456520D01*
Y468400D01*
D02*
G37*
G36*
X942600D02*
X930720D01*
X931624Y465025D01*
X933457Y461850D01*
X936050Y459257D01*
X939225Y457424D01*
X942600Y456520D01*
Y468400D01*
D02*
G37*
G36*
X884280Y468400D02*
X872400D01*
Y456520D01*
X875775Y457424D01*
X878950Y459257D01*
X881543Y461850D01*
X883376Y465025D01*
X884280Y468400D01*
D02*
G37*
G36*
X833480D02*
X821600D01*
Y456520D01*
X824975Y457424D01*
X828150Y459257D01*
X830743Y461850D01*
X832576Y465025D01*
X833480Y468400D01*
D02*
G37*
G36*
X817600D02*
X805720D01*
X806624Y465025D01*
X808457Y461850D01*
X811050Y459257D01*
X814225Y457424D01*
X817600Y456520D01*
Y468400D01*
D02*
G37*
G36*
X868400D02*
X856520D01*
X857424Y465025D01*
X859257Y461850D01*
X861850Y459257D01*
X865025Y457424D01*
X868400Y456520D01*
Y468400D01*
D02*
G37*
G36*
X1009280Y468400D02*
X997400D01*
Y456520D01*
X1000775Y457424D01*
X1003950Y459257D01*
X1006543Y461850D01*
X1008376Y465025D01*
X1009280Y468400D01*
D02*
G37*
G36*
X958480D02*
X946600D01*
Y456520D01*
X949975Y457424D01*
X953150Y459257D01*
X955743Y461850D01*
X957576Y465025D01*
X958480Y468400D01*
D02*
G37*
G36*
X617500Y461500D02*
X610000D01*
Y454000D01*
X617500D01*
Y461500D01*
D02*
G37*
G36*
X606000D02*
X598500D01*
Y454000D01*
X606000D01*
Y461500D01*
D02*
G37*
G36*
X617500Y450000D02*
X610000D01*
Y442500D01*
X617500D01*
Y450000D01*
D02*
G37*
G36*
X606000D02*
X598500D01*
Y442500D01*
X606000D01*
Y450000D01*
D02*
G37*
G36*
X971833Y458925D02*
X968167D01*
X964625Y457976D01*
X961450Y456143D01*
X958857Y453550D01*
X957024Y450375D01*
X956075Y446833D01*
Y443167D01*
X957024Y439625D01*
X958857Y436450D01*
X961450Y433857D01*
X964625Y432024D01*
X968167Y431075D01*
X971833D01*
X975375Y432024D01*
X978550Y433857D01*
X981143Y436450D01*
X982976Y439625D01*
X983925Y443167D01*
Y446833D01*
X982976Y450375D01*
X981143Y453550D01*
X978550Y456143D01*
X975375Y457976D01*
X971833Y458925D01*
D02*
G37*
G36*
X846833D02*
X843167D01*
X839625Y457976D01*
X836450Y456143D01*
X833857Y453550D01*
X832024Y450375D01*
X831075Y446833D01*
Y443167D01*
X832024Y439625D01*
X833857Y436450D01*
X836450Y433857D01*
X839625Y432024D01*
X843167Y431075D01*
X846833D01*
X850375Y432024D01*
X853550Y433857D01*
X856143Y436450D01*
X857976Y439625D01*
X858925Y443167D01*
Y446833D01*
X857976Y450375D01*
X856143Y453550D01*
X853550Y456143D01*
X850375Y457976D01*
X846833Y458925D01*
D02*
G37*
G36*
X997400Y433480D02*
Y421600D01*
X1009280D01*
X1008376Y424975D01*
X1006543Y428150D01*
X1003950Y430743D01*
X1000775Y432576D01*
X997400Y433480D01*
D02*
G37*
G36*
X946600D02*
Y421600D01*
X958480D01*
X957576Y424975D01*
X955743Y428150D01*
X953150Y430743D01*
X949975Y432576D01*
X946600Y433480D01*
D02*
G37*
G36*
X993400D02*
X990025Y432576D01*
X986850Y430743D01*
X984257Y428150D01*
X982424Y424975D01*
X981520Y421600D01*
X993400D01*
Y433480D01*
D02*
G37*
G36*
X942600D02*
X939225Y432576D01*
X936050Y430743D01*
X933457Y428150D01*
X931624Y424975D01*
X930720Y421600D01*
X942600D01*
Y433480D01*
D02*
G37*
G36*
X872400D02*
Y421600D01*
X884280D01*
X883376Y424975D01*
X881543Y428150D01*
X878950Y430743D01*
X875775Y432576D01*
X872400Y433480D01*
D02*
G37*
G36*
X821600D02*
Y421600D01*
X833480D01*
X832576Y424975D01*
X830743Y428150D01*
X828150Y430743D01*
X824975Y432576D01*
X821600Y433480D01*
D02*
G37*
G36*
X817600D02*
X814225Y432576D01*
X811050Y430743D01*
X808457Y428150D01*
X806624Y424975D01*
X805720Y421600D01*
X817600D01*
Y433480D01*
D02*
G37*
G36*
X868400D02*
X865025Y432576D01*
X861850Y430743D01*
X859257Y428150D01*
X857424Y424975D01*
X856520Y421600D01*
X868400D01*
Y433480D01*
D02*
G37*
G36*
X655696Y425500D02*
X654304D01*
X653017Y424967D01*
X652033Y423983D01*
X651500Y422696D01*
Y421304D01*
X652033Y420017D01*
X653017Y419033D01*
X654304Y418500D01*
X655696D01*
X656983Y419033D01*
X657967Y420017D01*
X658500Y421304D01*
Y422696D01*
X657967Y423983D01*
X656983Y424967D01*
X655696Y425500D01*
D02*
G37*
G36*
X884280Y417600D02*
X872400D01*
Y405720D01*
X875775Y406624D01*
X878950Y408457D01*
X881543Y411050D01*
X883376Y414225D01*
X884280Y417600D01*
D02*
G37*
G36*
X833480D02*
X821600D01*
Y405720D01*
X824975Y406624D01*
X828150Y408457D01*
X830743Y411050D01*
X832576Y414225D01*
X833480Y417600D01*
D02*
G37*
G36*
X958480Y417600D02*
X946600D01*
Y405720D01*
X949975Y406624D01*
X953150Y408457D01*
X955743Y411050D01*
X957576Y414225D01*
X958480Y417600D01*
D02*
G37*
G36*
X1009280D02*
X997400D01*
Y405720D01*
X1000775Y406624D01*
X1003950Y408457D01*
X1006543Y411050D01*
X1008376Y414225D01*
X1009280Y417600D01*
D02*
G37*
G36*
X993400D02*
X981520D01*
X982424Y414225D01*
X984257Y411050D01*
X986850Y408457D01*
X990025Y406624D01*
X993400Y405720D01*
Y417600D01*
D02*
G37*
G36*
X942600D02*
X930720D01*
X931624Y414225D01*
X933457Y411050D01*
X936050Y408457D01*
X939225Y406624D01*
X942600Y405720D01*
Y417600D01*
D02*
G37*
G36*
X817600Y417600D02*
X805720D01*
X806624Y414225D01*
X808457Y411050D01*
X811050Y408457D01*
X814225Y406624D01*
X817600Y405720D01*
Y417600D01*
D02*
G37*
G36*
X868400D02*
X856520D01*
X857424Y414225D01*
X859257Y411050D01*
X861850Y408457D01*
X865025Y406624D01*
X868400Y405720D01*
Y417600D01*
D02*
G37*
%LPD*%
D60*
X608000Y528200D02*
D03*
Y553600D02*
D03*
Y502800D02*
D03*
Y477400D02*
D03*
D82*
X1082002Y672170D02*
D03*
Y683170D02*
D03*
X1082000Y716000D02*
D03*
X1082002Y725670D02*
D03*
X953000Y795000D02*
D03*
Y785000D02*
D03*
Y775000D02*
D03*
Y765000D02*
D03*
X963000Y795000D02*
D03*
Y785000D02*
D03*
Y775000D02*
D03*
Y765000D02*
D03*
X943000Y795000D02*
D03*
Y785000D02*
D03*
Y775000D02*
D03*
Y765000D02*
D03*
X770000Y812500D02*
D03*
X1015000Y810000D02*
D03*
X871000Y581000D02*
D03*
X675558Y709000D02*
D03*
X676000Y749000D02*
D03*
X973000Y678000D02*
D03*
X963000Y548000D02*
D03*
X891000Y585000D02*
D03*
X722500Y767500D02*
D03*
X676000Y733000D02*
D03*
X983000Y667000D02*
D03*
X1083000Y655000D02*
D03*
X1103000Y504000D02*
D03*
X871000Y497000D02*
D03*
X992502Y738170D02*
D03*
X782558Y709000D02*
D03*
X982000Y703000D02*
D03*
X714808Y667750D02*
D03*
X1165000Y490000D02*
D03*
X1103000Y529000D02*
D03*
X855000Y497000D02*
D03*
X936000Y527000D02*
D03*
X719558Y686000D02*
D03*
X737558Y709000D02*
D03*
X973000Y712000D02*
D03*
X725558Y679250D02*
D03*
X1145000Y490000D02*
D03*
X864808Y716750D02*
D03*
X870000Y535000D02*
D03*
X911000Y527000D02*
D03*
X767558Y709000D02*
D03*
X981000Y723000D02*
D03*
X841408Y739000D02*
D03*
X889000Y538000D02*
D03*
X1059502Y677670D02*
D03*
X752558Y709000D02*
D03*
X730000Y812500D02*
D03*
X840308Y723000D02*
D03*
X873000Y543000D02*
D03*
X737558Y749000D02*
D03*
X900442Y814000D02*
D03*
X648808Y732250D02*
D03*
X840558Y754250D02*
D03*
X857000Y543000D02*
D03*
X1000000Y568000D02*
D03*
X752558Y749000D02*
D03*
X1034000Y578000D02*
D03*
X653058Y708500D02*
D03*
X839558Y684000D02*
D03*
X767558Y749000D02*
D03*
X857000Y514000D02*
D03*
X839558Y673000D02*
D03*
X782558Y749000D02*
D03*
X859000Y562000D02*
D03*
X992442Y799000D02*
D03*
X839558Y709000D02*
D03*
X737558Y736000D02*
D03*
X720000Y812500D02*
D03*
X647500Y685000D02*
D03*
X1042502Y738170D02*
D03*
X863558Y702000D02*
D03*
X737558Y722000D02*
D03*
X662500Y690000D02*
D03*
X752558Y722000D02*
D03*
X780558Y803000D02*
D03*
X647500Y637500D02*
D03*
X762558Y646000D02*
D03*
X1031502Y700170D02*
D03*
X767558Y722000D02*
D03*
X1008000Y775000D02*
D03*
X760000Y812500D02*
D03*
X647500Y617500D02*
D03*
X1057002Y720170D02*
D03*
X1082002Y700170D02*
D03*
X782558Y646000D02*
D03*
X752558Y736000D02*
D03*
X687500Y800000D02*
D03*
X647500Y660000D02*
D03*
X1122002Y695170D02*
D03*
X772558Y646000D02*
D03*
X1145000Y540000D02*
D03*
X767558Y736000D02*
D03*
X700000Y800000D02*
D03*
X1102002Y695170D02*
D03*
X675000Y690000D02*
D03*
X1009502Y745170D02*
D03*
X782558Y736000D02*
D03*
X740000Y812500D02*
D03*
X1019502Y755170D02*
D03*
X782558Y722000D02*
D03*
X750000Y812500D02*
D03*
X714000Y757000D02*
D03*
X983000Y688000D02*
D03*
X841558Y771750D02*
D03*
D88*
X550000Y667200D02*
D03*
X524600Y654500D02*
D03*
X550000Y641800D02*
D03*
X524600Y629100D02*
D03*
X550000Y616400D02*
D03*
X524600Y603700D02*
D03*
X550000Y591000D02*
D03*
X524600Y578300D02*
D03*
X550000Y565600D02*
D03*
D92*
X1204600Y566600D02*
D03*
Y653000D02*
D03*
D93*
X1151100Y566800D02*
D03*
Y653200D02*
D03*
D94*
X870400Y470400D02*
D03*
X819600D02*
D03*
Y419600D02*
D03*
X870400D02*
D03*
X845000Y445000D02*
D03*
X995400Y470400D02*
D03*
X944600D02*
D03*
Y419600D02*
D03*
X995400D02*
D03*
X970000Y445000D02*
D03*
D95*
X608000Y452000D02*
D03*
D96*
X461100Y667200D02*
D03*
Y552900D02*
D03*
D97*
X491600Y687550D02*
D03*
Y532550D02*
D03*
D98*
X415400Y542200D02*
D03*
X435700D02*
D03*
X415400Y677900D02*
D03*
X435700D02*
D03*
D99*
X524600Y552900D02*
D03*
D100*
X807000Y445000D02*
D03*
X1080000Y745000D02*
D03*
X1195000Y680000D02*
D03*
Y720000D02*
D03*
X1175000Y740000D02*
D03*
X1140000D02*
D03*
X1177000Y604000D02*
D03*
X1152000Y579000D02*
D03*
X1169000Y583000D02*
D03*
Y641000D02*
D03*
X1170000Y648000D02*
D03*
X1008000Y794000D02*
D03*
X887000Y671000D02*
D03*
X893000Y644000D02*
D03*
X950000Y740000D02*
D03*
X912000Y625000D02*
D03*
X795000Y765000D02*
D03*
X685000Y770000D02*
D03*
X645000D02*
D03*
Y810000D02*
D03*
X595000D02*
D03*
Y770000D02*
D03*
X693000Y626000D02*
D03*
X710000Y627000D02*
D03*
X654000Y600000D02*
D03*
X692000Y659000D02*
D03*
X619000Y609000D02*
D03*
Y641000D02*
D03*
X618000Y726000D02*
D03*
X619000Y697000D02*
D03*
X594000Y623000D02*
D03*
Y590000D02*
D03*
Y545000D02*
D03*
X637000Y413000D02*
D03*
X675000D02*
D03*
X668000Y466000D02*
D03*
X659000Y499000D02*
D03*
X688000Y482000D02*
D03*
X735000Y410000D02*
D03*
X800000D02*
D03*
X905000Y500000D02*
D03*
X910000Y480000D02*
D03*
Y410000D02*
D03*
X940000Y500000D02*
D03*
X980000Y480000D02*
D03*
X960000Y505000D02*
D03*
X1025000D02*
D03*
X1050000Y475000D02*
D03*
X1085000Y460000D02*
D03*
X1125000Y480000D02*
D03*
X1185000D02*
D03*
X1134000Y513000D02*
D03*
X1145000Y527000D02*
D03*
X1170000Y505000D02*
D03*
Y517000D02*
D03*
X1185000Y525000D02*
D03*
Y535000D02*
D03*
Y545000D02*
D03*
X1117000Y567000D02*
D03*
X1096000Y588000D02*
D03*
X1101000Y632000D02*
D03*
X1118000Y641000D02*
D03*
X1079000Y630000D02*
D03*
X1051000D02*
D03*
X1079000Y588000D02*
D03*
X1052000D02*
D03*
X1051000Y611000D02*
D03*
X1078000D02*
D03*
X1016000Y630000D02*
D03*
X998000Y606000D02*
D03*
X988000Y594000D02*
D03*
X952000Y630000D02*
D03*
X963000Y641000D02*
D03*
X923000Y748000D02*
D03*
X902000Y702000D02*
D03*
X891000Y692000D02*
D03*
X934000Y648000D02*
D03*
X929000Y674000D02*
D03*
X952000Y694000D02*
D03*
X1007000Y617000D02*
D03*
X973000Y651000D02*
D03*
X940000Y684000D02*
D03*
X912000Y712000D02*
D03*
X865000Y738000D02*
D03*
X869000Y754000D02*
D03*
X898000Y748000D02*
D03*
X1154000Y640000D02*
D03*
X1139000Y642000D02*
D03*
X972000Y557000D02*
D03*
X978000Y568000D02*
D03*
X1037000Y559000D02*
D03*
X1121000Y740000D02*
D03*
X1104000D02*
D03*
X734000Y452000D02*
D03*
X1139250Y580000D02*
D03*
X1125250Y590750D02*
D03*
X999000Y527000D02*
D03*
X937000Y567000D02*
D03*
X656000Y413000D02*
D03*
X1122000Y625000D02*
D03*
X653000Y580000D02*
D03*
X1115000Y619000D02*
D03*
X625000Y550000D02*
D03*
X719000Y484000D02*
D03*
X654000Y550000D02*
D03*
X749000Y484000D02*
D03*
X793000Y461000D02*
D03*
Y581000D02*
D03*
X772000Y460000D02*
D03*
X793000Y551000D02*
D03*
X794000Y432000D02*
D03*
X673000Y599000D02*
D03*
X772000Y430000D02*
D03*
X889692Y756250D02*
D03*
X748000Y462000D02*
D03*
D101*
X532000Y674000D02*
D03*
M02*
